<?xml version="1.0" encoding="UTF-8" standalone="no"?>
<svg
   xmlns:dc="http://purl.org/dc/elements/1.1/"
   xmlns:cc="http://creativecommons.org/ns#"
   xmlns:rdf="http://www.w3.org/1999/02/22-rdf-syntax-ns#"
   xmlns:svg="http://www.w3.org/2000/svg"
   xmlns="http://www.w3.org/2000/svg"
   xmlns:sodipodi="http://sodipodi.sourceforge.net/DTD/sodipodi-0.dtd"
   xmlns:inkscape="http://www.inkscape.org/namespaces/inkscape"
   version="1.1"
   viewBox="0 0 717.50861 318.89273"
   stroke-miterlimit="10"
   id="svg2"
   inkscape:version="0.48.0 r9654"
   width="100%"
   height="100%"
   sodipodi:docname="ArchitectureUpload.svg"
   style="fill:none;stroke:none">
  <metadata
     id="metadata108">
    <rdf:RDF>
      <cc:Work
         rdf:about="">
        <dc:format>image/svg+xml</dc:format>
        <dc:type
           rdf:resource="http://purl.org/dc/dcmitype/StillImage" />
      </cc:Work>
    </rdf:RDF>
  </metadata>
  <defs
     id="defs106" />
  <sodipodi:namedview
     pagecolor="#ffffff"
     bordercolor="#666666"
     borderopacity="1"
     objecttolerance="10"
     gridtolerance="10"
     guidetolerance="10"
     inkscape:pageopacity="0"
     inkscape:pageshadow="2"
     inkscape:window-width="640"
     inkscape:window-height="480"
     id="namedview104"
     showgrid="false"
     fit-margin-top="0"
     fit-margin-left="0"
     fit-margin-right="0"
     fit-margin-bottom="0"
     inkscape:zoom="0.40138889"
     inkscape:cx="415.22491"
     inkscape:cy="-28.650522"
     inkscape:window-x="0"
     inkscape:window-y="24"
     inkscape:window-maximized="0"
     inkscape:current-layer="svg2" />
  <path
     d="m 418.26104,109.68925 0,0 c -2.58263,-24.427857 5.89664,-48.609957 21.83979,-62.28494 15.94311,-13.674984 36.55401,-14.444553 53.08668,-1.982155 l 0,0 c 5.8564,-14.203372 16.5753,-24.009819 28.9144,-26.453082 12.3392,-2.443267 24.8493,2.763625 33.7463,14.045684 l 0,0 c 4.9889,-12.877689 14.78466,-21.52985 25.91125,-22.886247 11.12658,-1.3563981 22.00935,4.774933 28.78649,16.218273 l 0,0 c 9.01313,-13.650315 23.35326,-19.3976651 36.81536,-14.755139 13.4621,4.642525 23.6282,18.841089 26.0994,36.451891 l 0,0 c 11.04264,3.876748 20.24095,13.731958 25.2183,27.019358 4.9774,13.28739 5.24567,28.703507 0.7354,42.265327 l 0,0 c 10.8738,18.215 13.41743,42.48627 6.6817,63.75618 -6.7357,21.26993 -21.7389,36.34296 -39.4105,39.5941 -0.1245,19.96259 -8.63074,38.28003 -22.23994,47.89195 -13.60916,9.61193 -30.19622,9.01745 -43.36779,-1.55433 -5.61037,23.90863 -21.40167,41.5004 -40.55157,45.17496 -19.14985,3.67459 -38.2252,-7.22675 -48.9849,-27.99423 -13.18906,10.23635 -29.01486,13.1851 -43.9074,8.18112 -14.8925,-5.004 -27.5973,-17.53928 -35.24842,-34.77808 l 0,0 c -13.47758,2.02991 -26.50855,-6.95744 -32.62568,-22.50163 -6.1171,-15.54419 -4.0182,-34.33628 5.25507,-47.04979 l 0,0 c -12.02234,-9.10735 -18.15689,-27.17937 -15.20467,-44.79219 2.9522,-17.61284 14.32216,-30.77535 28.1809,-32.62381 z"
     id="path4"
     inkscape:connector-curvature="0"
     style="fill:#cfe2f3;fill-rule:nonzero;stroke:#073763;stroke-width:2;stroke-linecap:butt;stroke-linejoin:round" />
  <path
     d="m 405.01837,188.04673 0,0 c 5.6734,4.29779 12.22748,6.24737 18.78228,5.58697 m 8.58539,63.96601 c 2.81879,-0.42456 5.58177,-1.32361 8.21762,-2.67396 m 70.9343,29.26978 c -1.98261,-3.8266 -3.64252,-7.91565 -4.95145,-12.19748 m 94.4913,-4.98397 0,0 c 1.0229,-4.35889 1.6856,-8.84516 1.9771,-13.38393 m 63.6282,-32.95198 c 0.13256,-21.25327 -9.24635,-40.71297 -24.1083,-50.02059 m 56.83675,-53.32746 c -2.40685,7.23713 -6.08118,13.6571 -10.73485,18.75651 m -15.2166,-88.043091 0,0 c 0.4101,2.92252 0.5999,5.888964 0.56674,8.858214 m -63.48044,-30.554083 0,0 c -2.2483,3.405079 -4.1007,7.210203 -5.49936,11.296905 m -49.19884,-4.630417 0,0 c -1.1982,3.092805 -2.0929,6.365521 -2.6636,9.74276 m -59.998,2.66489 0,0 c 3.49826,2.637035 6.73465,5.810995 9.6381,9.452141 m -84.56367,54.815301 0,0 c 0.35597,3.36679 0.91837,6.69207 1.68201,9.94473"
     id="path6"
     inkscape:connector-curvature="0"
     style="stroke:#073763;stroke-width:2;stroke-linecap:butt;stroke-linejoin:round" />
  <path
     d="m 5.6460146,36.252207 0,0 8.0000004,0 0,2 -8.0000004,0 z m 14.0000004,0 0,0 8,0 0,2 -8,0 z m 14,0 0,0 8,0 0,2 -8,0 z m 14,0 0,0 8,0 0,2 -8,0 z m 14,0 0,0 8.00001,0 0,2 -8.00001,0 z m 14.00001,0 0,0 8,0 0,2 -8,0 z m 14,0 0,0 8,0 0,2 -8,0 z m 13.999995,0 0,0 8,0 0,2 -8,0 z m 14,0 0,0 8,0 0,2 -8,0 z m 14,0 0,0 8,0 0,2 -8,0 z m 14,0 0,0 8,0 0,2 -8,0 z m 14,0 0,0 8,0 0,2 -8,0 z m 14,0 0,0 8,0 0,2 -8,0 z m 14,0 0,0 7.99999,0 0,2 -7.99999,0 z m 13.99999,0 0,0 8,0 0,2 -8,0 z m 14,0 0,0 8,0 0,2 -8,0 z m 14,0 0,0 8,0 0,2 -8,0 z m 14,0 0,0 8,0 0,2 -8,0 z m 14,0 0,0 8,0 0,2 -8,0 z m 14,0 0,0 8,0 0,2 -8,0 z m 14,0 0,0 8,0 0,2 -8,0 z m 14,0 0,0 8,0 0,2 -8,0 z m 14,0 0,0 8,0 0,2 -8,0 z m 14,0 0,0 8,0 0,2 -8,0 z m 14,0 0,0 8,0 0,2 -8,0 z m 14.5118,1.48822 0,0 0,8 -2,0 0,-8 z m 0,14 0,0 0,8 -2,0 0,-8 z m 0,14 0,0 0,8 -2,0 0,-8 z m 0,14 0,0 0,7.999996 -2,0 0,-7.999996 z m 0,13.999996 0,0 0,7.999997 -2,0 0,-7.999997 z m 0,13.999997 0,0 0,8 -2,0 0,-8 z m 0,14 0,0 0,8 -2,0 0,-8 z m 0,14 0,0 0,8 -2,0 0,-8 z m 0,14 0,0 0,8 -2,0 0,-8 z m 0,14 0,0 0,8 -2,0 0,-8 z m 0,14 0,0 0,8 -2,0 0,-8 z m 0,14 0,0 0,8 -2,0 0,-8 z m 0,14 0,0 0,8 -2,0 0,-8 z m 0,14 0,0 0,8 -2,0 0,-8 z m 0,14 0,0 0,8 -2,0 0,-8 z m 0,14 0,0 0,8 -2,0 0,-8 z m 0,14 0,0 0,8 -2,0 0,-8 z m 0,14 0,0 0,8 -2,0 0,-8 z m 0,14 0,0 0,8 -2,0 0,-8 z m -2.9843,13.01573 0,0 -8,0 0,-2 8,0 z m -14,0 0,0 -8,0 0,-2 8,0 z m -14,0 0,0 -8,0 0,-2 8,0 z m -14,0 0,0 -8,0 0,-2 8,0 z m -14,0 0,0 -8,0 0,-2 8,0 z m -14,0 0,0 -8,0 0,-2 8,0 z m -14,0 0,0 -8,0 0,-2 8,0 z m -14,0 0,0 -8,0 0,-2 8,0 z m -14,0 0,0 -8,0 0,-2 8,0 z m -14,0 0,0 -8,0 0,-2 8,0 z m -14,0 0,0 -8,0 0,-2 8,0 z m -14,0 0,0 -7.99999,0 0,-2 7.99999,0 z m -13.99999,0 0,0 -8,0 0,-2 8,0 z m -14,0 0,0 -8,0 0,-2 8,0 z m -14,0 0,0 -8,0 0,-2 8,0 z m -14,0 0,0 -8,0 0,-2 8,0 z m -14,0 0,0 -8,0 0,-2 8,0 z m -14,0 0,0 -8,0 0,-2 8,0 z m -14,0 0,0 -7.999995,0 0,-2 7.999995,0 z m -13.999995,0 0,0 -8,0 0,-2 8,0 z m -14,0 0,0 -8,0 0,-2 8,0 z m -14,0 0,0 -8,0 0,-2 8,0 z m -14,0 0,0 -8,0 0,-2 8,0 z m -14,0 0,0 -8,0 0,-2 8,0 z m -14,0 0,0 -8.0000004,0 0,-2 8.0000004,0 z m -12.5275104,-3.47248 0,0 0,-8 2,0 0,8 z m 0,-14 0,0 0,-8 2,0 0,8 z m 0,-14 0,0 0,-8 2,0 0,8 z m 0,-14 0,0 0,-8 2,0 0,8 z m 0,-14 0,0 0,-8 2,0 0,8 z m 0,-14 0,0 0,-8 2,0 0,8 z m 0,-14 0,0 0,-8 2,0 0,8 z m 0,-14 0,0 0,-8 2,0 0,8 z m 0,-14 0,0 0,-8 2,0 0,8 z m 0,-14 0,0 0,-8 2,0 0,8 z m 0,-14 0,0 0,-8 2,0 0,8 z m 0,-14 0,0 0,-8 2,0 0,8 z m 0,-14 0,0 0,-8 2,0 0,8 z m 0,-14 0,0 0,-8 2,0 0,8 z m 0,-14 0,0 0,-7.999997 2,0 0,7.999997 z m 0,-13.999997 0,0 0,-8 2,0 0,8 z m 0,-14 0,0 0,-8 2,0 0,8 z m 0,-14 0,0 0,-8 2,0 0,8 z m 0,-14.000003 0,0 0,-8 2,0 0,8 z m 1,-11.031463 0,0 8.0000004,0 0,2 -8.0000004,0 z"
     id="path8"
     inkscape:connector-curvature="0"
     style="fill:#073763;fill-rule:nonzero" />
  <path
     d="m 22.349129,50.533449 1.234376,0 0,5.390624 q 0,1.39063 -0.32031,2.21875 -0.320316,0.82813 -1.14844,1.34375 -0.828126,0.51563 -2.171876,0.51563 -1.3125,0 -2.140624,-0.45313 -0.828126,-0.45312 -1.1875,-1.30469 -0.359376,-0.85156 -0.359376,-2.32031 l 0,-5.390624 1.234376,0 0,5.375004 q 0,1.21875 0.22656,1.78906 0.226564,0.57031 0.77344,0.88281 0.546874,0.3125 1.34375,0.3125 1.359374,0 1.9375,-0.61719 0.578124,-0.61718 0.578124,-2.36718 l 0,-5.375004 z m 2.921876,7.296874 1.125,-0.17187 q 0.09375,0.67187 0.53125,1.03906 0.4375,0.36719 1.21875,0.36719 0.78125,0 1.16406,-0.32032 0.382814,-0.32031 0.382814,-0.75781 0,-0.39062 -0.34375,-0.60937 -0.234374,-0.15625 -1.171874,-0.39063 -1.25,-0.3125 -1.734376,-0.54687 -0.484374,-0.23438 -0.734374,-0.64063 -0.25,-0.40625 -0.25,-0.90625 0,-0.45312 0.203124,-0.83594 0.203126,-0.38281 0.5625,-0.63281 0.265626,-0.20312 0.726566,-0.33594 0.460934,-0.13281 0.992184,-0.13281 0.78125,0 1.382816,0.22656 0.60156,0.22657 0.89062,0.61719 0.289064,0.39063 0.39844,1.04688 l -1.125,0.15625 q -0.07813,-0.53125 -0.4375,-0.82032 -0.359376,-0.28906 -1.03125,-0.28906 -0.78125,0 -1.125,0.25781 -0.34375,0.25782 -0.34375,0.61719 0,0.21875 0.140624,0.39063 0.140626,0.1875 0.4375,0.3125 0.171876,0.0625 1.015626,0.28125 1.21875,0.32812 1.69531,0.53125 0.476564,0.20312 0.75,0.60156 0.27344,0.39844 0.27344,0.97656 0,0.57813 -0.33594,1.07813 -0.335936,0.5 -0.960936,0.78125 -0.625,0.28125 -1.421874,0.28125 -1.3125,0 -2,-0.54688 -0.6875,-0.54687 -0.875,-1.625 z m 11.71875,-0.15625 1.1875,0.14063 q -0.28125,1.04687 -1.03906,1.61718 -0.75782,0.57032 -1.92969,0.57032 -1.484376,0 -2.35156,-0.91407 -0.86719,-0.91406 -0.86719,-2.55468 0,-1.70313 0.88281,-2.64063 0.882814,-0.9375 2.27344,-0.9375 1.35937,0 2.21094,0.92188 0.85156,0.92187 0.85156,2.57812 0,0.10938 0,0.3125 l -5.03125,0 q 0.0625,1.10938 0.625,1.70313 0.5625,0.59375 1.40625,0.59375 0.64062,0 1.08594,-0.33594 0.44531,-0.33594 0.69531,-1.05469 z m -3.75,-1.84375 3.76562,0 q -0.0781,-0.85937 -0.4375,-1.28125 -0.54687,-0.65625 -1.406246,-0.65625 -0.796874,0 -1.328124,0.52344 -0.53125,0.52344 -0.59375,1.41406 z m 6.54687,4.01563 0,-6.73438 1.03125,0 0,1.01563 q 0.39063,-0.71875 0.72657,-0.94532 0.33593,-0.22656 0.72656,-0.22656 0.57812,0 1.17187,0.35938 l -0.39062,1.0625 q -0.42188,-0.25 -0.82813,-0.25 -0.375,0 -0.67968,0.22656 -0.30469,0.22656 -0.42969,0.63281 -0.1875,0.60938 -0.1875,1.32813 l 0,3.53125 -1.14063,0 z m 10.65625,-1.01563 0.15625,1 q -0.48437,0.10938 -0.85937,0.10938 -0.625,0 -0.96875,-0.20313 -0.34375,-0.20312 -0.48438,-0.52344 -0.14062,-0.32031 -0.14062,-1.33593 l 0,-3.89063 -0.82813,0 0,-0.875 0.82813,0 0,-1.671874 1.14062,-0.6875 0,2.359374 1.15625,0 0,0.875 -1.15625,0 0,3.95313 q 0,0.48437 0.0625,0.625 0.0625,0.14062 0.19532,0.21875 0.13281,0.07812 0.38281,0.07812 0.20312,0 0.51562,-0.03125 z m 5.8125,-1.15625 1.1875,0.14063 q -0.28125,1.04687 -1.03906,1.61718 -0.75781,0.57032 -1.92969,0.57032 -1.48437,0 -2.35156,-0.91407 -0.86719,-0.91406 -0.86719,-2.55468 0,-1.70313 0.88282,-2.64063 0.88281,-0.9375 2.27343,-0.9375 1.35938,0 2.21094,0.92188 0.85156,0.92187 0.85156,2.57812 0,0.10938 0,0.3125 l -5.03125,0 q 0.0625,1.10938 0.625,1.70313 0.5625,0.59375 1.40625,0.59375 0.64063,0 1.08594,-0.33594 0.44531,-0.33594 0.69531,-1.05469 z m -3.75,-1.84375 3.76563,0 q -0.0781,-0.85937 -0.4375,-1.28125 -0.54688,-0.65625 -1.40625,-0.65625 -0.79688,0 -1.32813,0.52344 -0.53125,0.52344 -0.59375,1.41406 z m 6.53125,4.01563 0,-6.73438 1.03125,0 0,1.01563 q 0.39063,-0.71875 0.72657,-0.94532 0.33593,-0.22656 0.72656,-0.22656 0.57812,0 1.17187,0.35938 l -0.39062,1.0625 q -0.42188,-0.25 -0.82813,-0.25 -0.375,0 -0.67968,0.22656 -0.30469,0.22656 -0.42969,0.63281 -0.1875,0.60938 -0.1875,1.32813 l 0,3.53125 -1.14063,0 z m 4.45312,0 0,-6.73438 1.01563,0 0,0.9375 q 0.32812,-0.5 0.85156,-0.79687 0.52344,-0.29688 1.19531,-0.29688 0.75,0 1.22657,0.3125 0.47656,0.3125 0.67968,0.85938 0.79688,-1.17188 2.07812,-1.17188 1,0 1.53907,0.55469 0.53906,0.55469 0.53906,1.71094 l 0,4.625 -1.125,0 0,-4.25 q 0,-0.6875 -0.10937,-0.98438 -0.10938,-0.29687 -0.40626,-0.48437 -0.29687,-0.1875 -0.6875,-0.1875 -0.71874,0 -1.1875,0.47656 -0.46874,0.47656 -0.46874,1.50781 l 0,3.92188 -1.14063,0 0,-4.375 q 0,-0.76563 -0.28125,-1.14844 -0.28125,-0.38281 -0.90625,-0.38281 -0.48437,0 -0.89063,0.25781 -0.40624,0.25781 -0.59374,0.74219 -0.1875,0.48437 -0.1875,1.40625 l 0,3.5 -1.14063,0 z m 11.10937,-7.98438 0,-1.328124 1.14063,0 0,1.328124 -1.14063,0 z m 0,7.98438 0,-6.73438 1.14063,0 0,6.73438 -1.14063,0 z m 2.95313,0 0,-6.73438 1.03125,0 0,0.95313 q 0.73438,-1.10938 2.14062,-1.10938 0.60938,0 1.1172,0.21875 0.5078,0.21875 0.76562,0.57031 0.25781,0.35157 0.35156,0.85157 0.0625,0.3125 0.0625,1.10937 l 0,4.14063 -1.14062,0 0,-4.09375 q 0,-0.70313 -0.13282,-1.04688 -0.13281,-0.34375 -0.46874,-0.55469 -0.33594,-0.21093 -0.78907,-0.21093 -0.73437,0 -1.26563,0.46093 -0.53124,0.46094 -0.53124,1.75782 l 0,3.6875 -1.14063,0 z m 11.8125,-0.82813 q -0.625,0.53125 -1.21093,0.75781 -0.58594,0.22657 -1.25782,0.22657 -1.125,0 -1.71875,-0.54688 -0.59375,-0.54687 -0.59375,-1.39062 0,-0.48438 0.22656,-0.89844 0.22656,-0.41406 0.59376,-0.66406 0.36718,-0.25 0.8203,-0.375 0.32813,-0.07813 1.01563,-0.17188 1.375,-0.15625 2.03125,-0.39062 0.0156,-0.23438 0.0156,-0.29688 0,-0.70312 -0.32812,-0.98437 -0.4375,-0.39063 -1.29688,-0.39063 -0.8125,0 -1.1953,0.28125 -0.38282,0.28125 -0.57032,1 l -1.10936,-0.14062 q 0.14063,-0.71875 0.4922,-1.16407 0.35156,-0.44531 1.01562,-0.67968 0.66406,-0.23438 1.52344,-0.23438 0.875,0 1.41406,0.20313 0.53906,0.20312 0.78906,0.50781 0.25,0.30469 0.35938,0.77344 0.0469,0.29687 0.0469,1.0625 l 0,1.51562 q 0,1.59375 0.0781,2.01563 0.0781,0.42187 0.28124,0.8125 l -1.1875,0 q -0.17187,-0.35938 -0.23437,-0.82813 z m -0.0937,-2.5625 q -0.625,0.26563 -1.85938,0.4375 -0.70312,0.10938 -1,0.23438 -0.29687,0.125 -0.45312,0.36718 -0.15625,0.24219 -0.15625,0.53907 0,0.45312 0.34375,0.75781 0.34375,0.30469 1.01562,0.30469 0.65626,0 1.17188,-0.28907 0.51562,-0.28906 0.76562,-0.78906 0.17188,-0.375 0.17188,-1.14062 l 0,-0.42188 z m 3.07812,3.39063 0,-9.312504 1.14063,0 0,9.312504 -1.14063,0 z"
     id="path10"
     inkscape:connector-curvature="0"
     style="fill:#073763;fill-rule:nonzero" />
  <path
     d="m 149.78261,107.48389 0,0 c 0,-5.67372 4.59945,-10.273167 10.27317,-10.273167 l 74.16233,0 c 2.7246,0 5.3376,1.08235 7.26422,3.008937 1.9266,1.92659 3.00894,4.53961 3.00894,7.26423 l 0,41.09145 c 0,5.67372 -4.59946,10.27318 -10.27316,10.27318 l -74.16233,0 c -5.67372,0 -10.27317,-4.59946 -10.27317,-10.27318 z"
     id="path12"
     inkscape:connector-curvature="0"
     style="fill:#cfe2f3;fill-rule:nonzero;stroke:#073763;stroke-width:2;stroke-linecap:butt;stroke-linejoin:round" />
  <path
     d="m 183.11964,116.704 1.23437,0 0,5.39063 q 0,1.39062 -0.32031,2.21875 -0.32031,0.82812 -1.14844,1.34375 -0.82812,0.51562 -2.17187,0.51562 -1.3125,0 -2.14063,-0.45312 -0.82812,-0.45313 -1.1875,-1.30469 -0.35937,-0.85156 -0.35937,-2.32031 l 0,-5.39063 1.23437,0 0,5.375 q 0,1.21875 0.22657,1.78906 0.22656,0.57032 0.77343,0.88282 0.54688,0.3125 1.34375,0.3125 1.35938,0 1.9375,-0.61719 0.57813,-0.61719 0.57813,-2.36719 l 0,-5.375 z m 3.375,11.89063 0,-9.3125 1.03125,0 0,0.875 q 0.375,-0.51563 0.83594,-0.77344 0.46093,-0.25781 1.13281,-0.25781 0.85937,0 1.51562,0.44531 0.65627,0.44531 0.99221,1.25 0.33594,0.80469 0.33594,1.77344 0,1.03125 -0.3672,1.85937 -0.36718,0.82813 -1.07813,1.27344 -0.71094,0.44531 -1.49219,0.44531 -0.5625,0 -1.01563,-0.24219 -0.45312,-0.24218 -0.75,-0.61718 l 0,3.28125 -1.14062,0 z m 1.03125,-5.90625 q 0,1.29687 0.53125,1.92187 0.53125,0.625 1.26562,0.625 0.76563,0 1.3125,-0.64844 0.54688,-0.64843 0.54688,-1.99218 0,-1.29688 -0.53125,-1.9375 -0.53125,-0.64063 -1.26563,-0.64063 -0.73437,0 -1.29687,0.67969 -0.5625,0.67969 -0.5625,1.99219 z m 6.34376,3.32812 0,-9.3125 1.14063,0 0,9.3125 -1.14063,0 z m 2.57813,-3.375 q 0,-1.875 1.03125,-2.76562 0.875,-0.75 2.125,-0.75 1.39062,0 2.27344,0.90625 0.88281,0.90625 0.88281,2.51562 0,1.29688 -0.39063,2.04688 -0.39062,0.75 -1.14062,1.16406 -0.75,0.41406 -1.625,0.41406 -1.42188,0 -2.28906,-0.90625 -0.86719,-0.90625 -0.86719,-2.625 z m 1.17187,0 q 0,1.29688 0.5625,1.94531 0.5625,0.64844 1.42188,0.64844 0.84375,0 1.41406,-0.64844 0.57032,-0.64843 0.57032,-1.97656 0,-1.25 -0.57032,-1.89844 -0.57031,-0.64843 -1.41406,-0.64843 -0.85938,0 -1.42188,0.64062 -0.5625,0.64063 -0.5625,1.9375 z m 11.04688,2.54688 q -0.625,0.53125 -1.21094,0.75781 -0.58594,0.22656 -1.25781,0.22656 -1.125,0 -1.71875,-0.54687 -0.59375,-0.54688 -0.59375,-1.39063 0,-0.48437 0.22656,-0.89844 0.22657,-0.41406 0.59375,-0.66406 0.36719,-0.25 0.82032,-0.375 0.32812,-0.0781 1.01562,-0.17187 1.375,-0.15625 2.03125,-0.39063 0.0156,-0.23437 0.0156,-0.29687 0,-0.70313 -0.32813,-0.98438 -0.4375,-0.39062 -1.29687,-0.39062 -0.8125,0 -1.19532,0.28125 -0.38281,0.28125 -0.57031,1 l -1.10937,-0.14063 q 0.14062,-0.71875 0.49218,-1.16406 0.35156,-0.44531 1.01562,-0.67969 0.66407,-0.23437 1.52344,-0.23437 0.875,0 1.41406,0.20312 0.53907,0.20313 0.78907,0.50781 0.25,0.30469 0.35937,0.77344 0.0469,0.29688 0.0469,1.0625 l 0,1.51563 q 0,1.59375 0.0781,2.01562 0.0781,0.42188 0.28126,0.8125 l -1.1875,0 q -0.17188,-0.35937 -0.23438,-0.82812 z m -0.0937,-2.5625 q -0.625,0.26562 -1.85937,0.4375 -0.70313,0.10937 -1,0.23437 -0.29688,0.125 -0.45313,0.36719 -0.15625,0.24219 -0.15625,0.53906 0,0.45313 0.34375,0.75781 0.34375,0.30469 1.01563,0.30469 0.65624,0 1.17187,-0.28906 0.51563,-0.28906 0.76563,-0.78906 0.17187,-0.375 0.17187,-1.14063 l 0,-0.42187 z m 7.5,3.39062 0,-0.84375 q -0.64063,1 -1.89063,1 -0.79687,0 -1.47656,-0.44531 -0.67968,-0.44531 -1.05468,-1.24219 -0.375,-0.79687 -0.375,-1.82812 0,-1.01563 0.34374,-1.83594 0.34376,-0.82031 1.01563,-1.25781 0.67187,-0.4375 1.5,-0.4375 0.60937,0 1.08593,0.25781 0.47657,0.25781 0.77344,0.66406 l 0,-3.34375 1.14063,0 0,9.3125 -1.0625,0 z m -3.60937,-3.35937 q 0,1.29687 0.53906,1.9375 0.53906,0.64062 1.28906,0.64062 0.75,0 1.27344,-0.61719 0.52344,-0.61718 0.52344,-1.86718 0,-1.39063 -0.53126,-2.03907 -0.53124,-0.64843 -1.3125,-0.64843 -0.76562,0 -1.27344,0.625 -0.5078,0.625 -0.5078,1.96875 z"
     id="path14"
     inkscape:connector-curvature="0"
     style="fill:#000000;fill-rule:nonzero" />
  <path
     d="m 168.49464,136.48525 q 0,-2.3125 1.24219,-3.625 1.24218,-1.3125 3.21093,-1.3125 1.29688,0 2.32813,0.61719 1.03125,0.61719 1.57812,1.71875 0.54688,1.10156 0.54688,2.49219 0,1.42187 -0.57031,2.53906 -0.57032,1.11719 -1.61719,1.6875 -1.04688,0.57031 -2.26563,0.57031 -1.3125,0 -2.35156,-0.63281 -1.03906,-0.63281 -1.57031,-1.73438 -0.53125,-1.10156 -0.53125,-2.32031 z m 1.26562,0.0156 q 0,1.6875 0.90625,2.65625 0.90625,0.96875 2.28125,0.96875 1.39063,0 2.28907,-0.97657 0.89843,-0.97656 0.89843,-2.77343 0,-1.14063 -0.39062,-1.99219 -0.39063,-0.85156 -1.125,-1.3125 -0.73438,-0.46094 -1.65625,-0.46094 -1.3125,0 -2.25781,0.89844 -0.94532,0.89844 -0.94532,2.99219 z m 9.32813,7.09375 0,-9.3125 1.03125,0 0,0.875 q 0.375,-0.51563 0.83594,-0.77344 0.46093,-0.25781 1.13281,-0.25781 0.85937,0 1.51562,0.44531 0.65625,0.44531 0.99219,1.25 0.33594,0.80469 0.33594,1.77344 0,1.03125 -0.36719,1.85937 -0.36719,0.82813 -1.07812,1.27344 -0.71094,0.44531 -1.49219,0.44531 -0.5625,0 -1.01563,-0.24219 -0.45312,-0.24218 -0.75,-0.61718 l 0,3.28125 -1.14062,0 z m 1.03125,-5.90625 q 0,1.29687 0.53125,1.92187 0.53125,0.625 1.26562,0.625 0.76563,0 1.3125,-0.64844 0.54688,-0.64843 0.54688,-1.99218 0,-1.29688 -0.53125,-1.9375 -0.53125,-0.64063 -1.26563,-0.64063 -0.73437,0 -1.29687,0.67969 -0.5625,0.67969 -0.5625,1.99219 z m 10.98437,1.15625 1.18752,0.14062 q -0.28125,1.04688 -1.03906,1.61719 -0.75783,0.57031 -1.92971,0.57031 -1.48437,0 -2.35156,-0.91406 -0.86719,-0.91406 -0.86719,-2.55469 0,-1.70312 0.88282,-2.64062 0.88281,-0.9375 2.27343,-0.9375 1.35938,0 2.21095,0.92187 0.85157,0.92188 0.85157,2.57813 0,0.10937 0,0.3125 l -5.03127,0 q 0.0625,1.10937 0.625,1.70312 0.5625,0.59375 1.40625,0.59375 0.64063,0 1.08594,-0.33594 0.44531,-0.33593 0.69531,-1.05468 z m -3.75,-1.84375 3.76563,0 q -0.0781,-0.85938 -0.4375,-1.28125 -0.54688,-0.65625 -1.40625,-0.65625 -0.79688,0 -1.32813,0.52343 -0.53125,0.52344 -0.59375,1.41407 z m 6.5469,4.01562 0,-6.73437 1.03124,0 0,1.01562 q 0.39063,-0.71875 0.72656,-0.94531 0.33594,-0.22656 0.72657,-0.22656 0.57813,0 1.17187,0.35937 l -0.39062,1.0625 q -0.42188,-0.25 -0.82812,-0.25 -0.375,0 -0.6797,0.22656 -0.30468,0.22657 -0.42968,0.63282 -0.1875,0.60937 -0.1875,1.32812 l 0,3.53125 -1.14062,0 z m 8.84374,-0.82812 q -0.625,0.53125 -1.21094,0.75781 -0.58593,0.22656 -1.2578,0.22656 -1.125,0 -1.71876,-0.54687 -0.59374,-0.54688 -0.59374,-1.39063 0,-0.48437 0.22656,-0.89844 0.22656,-0.41406 0.59374,-0.66406 0.3672,-0.25 0.82032,-0.375 0.32812,-0.0781 1.01562,-0.17187 1.375,-0.15625 2.03126,-0.39063 0.0156,-0.23437 0.0156,-0.29687 0,-0.70313 -0.32812,-0.98438 -0.4375,-0.39062 -1.29688,-0.39062 -0.8125,0 -1.19532,0.28125 -0.3828,0.28125 -0.5703,1 l -1.10938,-0.14063 q 0.14062,-0.71875 0.49218,-1.16406 0.35157,-0.44531 1.01563,-0.67969 0.66407,-0.23437 1.52344,-0.23437 0.875,0 1.41406,0.20312 0.53907,0.20313 0.78907,0.50781 0.25,0.30469 0.35937,0.77344 0.0469,0.29688 0.0469,1.0625 l 0,1.51563 q 0,1.59375 0.0781,2.01562 0.0781,0.42188 0.28125,0.8125 l -1.1875,0 q -0.17188,-0.35937 -0.23438,-0.82812 z m -0.0937,-2.5625 q -0.625,0.26562 -1.85938,0.4375 -0.70312,0.10937 -1,0.23437 -0.29688,0.125 -0.45312,0.36719 -0.15626,0.24219 -0.15626,0.53906 0,0.45313 0.34376,0.75781 0.34374,0.30469 1.01562,0.30469 0.65625,0 1.17188,-0.28906 0.51562,-0.28906 0.76562,-0.78906 0.17188,-0.375 0.17188,-1.14063 l 0,-0.42187 z m 5.60937,2.375 0.15625,1 q -0.48438,0.10937 -0.85938,0.10937 -0.625,0 -0.96874,-0.20312 -0.34376,-0.20313 -0.48438,-0.52344 -0.14062,-0.32031 -0.14062,-1.33594 l 0,-3.89062 -0.82813,0 0,-0.875 0.82813,0 0,-1.67188 1.14062,-0.6875 0,2.35938 1.15625,0 0,0.875 -1.15625,0 0,3.95312 q 0,0.48438 0.0625,0.625 0.0625,0.14063 0.19531,0.21875 0.13281,0.0781 0.38281,0.0781 0.20313,0 0.51563,-0.0312 z m 1.20313,-6.96875 0,-1.32813 1.14062,0 0,1.32813 -1.14062,0 z m 0,7.98437 0,-6.73437 1.14062,0 0,6.73437 -1.14062,0 z m 2.54687,-3.375 q 0,-1.875 1.03125,-2.76562 0.875,-0.75 2.125,-0.75 1.39062,0 2.27344,0.90625 0.88281,0.90625 0.88281,2.51562 0,1.29688 -0.39063,2.04688 -0.39062,0.75 -1.14062,1.16406 -0.75,0.41406 -1.625,0.41406 -1.42188,0 -2.28906,-0.90625 -0.86719,-0.90625 -0.86719,-2.625 z m 1.17187,0 q 0,1.29688 0.5625,1.94531 0.5625,0.64844 1.42188,0.64844 0.84375,0 1.41406,-0.64844 0.57032,-0.64843 0.57032,-1.97656 0,-1.25 -0.57032,-1.89844 -0.57031,-0.64843 -1.41406,-0.64843 -0.85938,0 -1.42188,0.64062 -0.5625,0.64063 -0.5625,1.9375 z m 6.65626,3.375 0,-6.73437 1.03124,0 0,0.95312 q 0.73438,-1.10937 2.14063,-1.10937 0.60937,0 1.11719,0.21875 0.50781,0.21875 0.76562,0.57031 0.25782,0.35156 0.35156,0.85156 0.0625,0.3125 0.0625,1.10938 l 0,4.14062 -1.14062,0 0,-4.09375 q 0,-0.70312 -0.13282,-1.04687 -0.1328,-0.34375 -0.46874,-0.55469 -0.33594,-0.21094 -0.78906,-0.21094 -0.73438,0 -1.26563,0.46094 -0.53125,0.46094 -0.53125,1.75781 l 0,3.6875 -1.14062,0 z"
     id="path16"
     inkscape:connector-curvature="0"
     style="fill:#000000;fill-rule:nonzero" />
  <path
     d="m 272.65001,87.289143 0,-9.3125 1.21876,0 0,9.3125 -1.21876,0 z m 7.71876,0 0,-0.84375 q -0.64063,1 -1.89063,1 -0.79687,0 -1.47656,-0.445315 -0.67967,-0.445315 -1.05467,-1.242185 -0.375,-0.79688 -0.375,-1.82813 0,-1.01562 0.34373,-1.835935 0.34377,-0.820315 1.01563,-1.257815 0.67187,-0.4375 1.5,-0.4375 0.60937,0 1.08594,0.257815 0.47656,0.257815 0.77343,0.664065 l 0,-3.34375 1.14063,0 0,9.3125 -1.0625,0 z m -3.60936,-3.35938 q 0,1.29688 0.53905,1.9375 0.53905,0.64063 1.28905,0.64063 0.75,0 1.27345,-0.61719 0.52345,-0.61719 0.52345,-1.86719 0,-1.39062 -0.53127,-2.03906 -0.53123,-0.64844 -1.3125,-0.64844 -0.76563,0 -1.27343,0.625 -0.5078,0.625 -0.5078,1.96875 z m 11.25,1.1875 1.1875,0.14063 q -0.28127,1.04687 -1.03908,1.617185 -0.75782,0.570315 -1.92969,0.570315 -1.48437,0 -2.35156,-0.914065 -0.86717,-0.914065 -0.86717,-2.554685 0,-1.70313 0.8828,-2.64063 0.8828,-0.9375 2.27343,-0.9375 1.35937,0 2.21094,0.92188 0.85156,0.92187 0.85156,2.57812 0,0.10938 0,0.3125 l -5.03123,0 q 0.0625,1.10938 0.625,1.70313 0.5625,0.59375 1.40623,0.59375 0.64063,0 1.08594,-0.33594 0.44533,-0.33594 0.69533,-1.05469 z m -3.75,-1.84375 3.7656,0 q -0.0781,-0.85937 -0.4375,-1.28125 -0.54687,-0.65625 -1.40624,-0.65625 -0.79686,0 -1.32813,0.52344 -0.53123,0.52344 -0.59373,1.41406 z m 6.5625,4.01563 0,-6.73438 1.03123,0 0,0.95313 q 0.73437,-1.10938 2.14063,-1.10938 0.60937,0 1.11719,0.21875 0.50781,0.21875 0.76562,0.570315 0.25783,0.351565 0.35156,0.851565 0.0625,0.3125 0.0625,1.10937 l 0,4.14063 -1.14063,0 0,-4.09375 q 0,-0.70313 -0.1328,-1.04688 -0.1328,-0.34375 -0.46875,-0.554685 -0.33595,-0.210935 -0.78905,-0.210935 -0.7344,0 -1.26564,0.460935 -0.53126,0.460935 -0.53126,1.757815 l 0,3.6875 -1.1406,0 z m 9.90623,-1.01563 0.15627,1 q -0.4844,0.10938 -0.8594,0.10938 -0.625,0 -0.96874,-0.20313 -0.34376,-0.20312 -0.48436,-0.523435 -0.14064,-0.320315 -0.14064,-1.335935 l 0,-3.89063 -0.82813,0 0,-0.875 0.82813,0 0,-1.67187 1.14064,-0.6875 0,2.35937 1.15623,0 0,0.875 -1.15623,0 0,3.95313 q 0,0.48437 0.0625,0.625 0.0625,0.14062 0.1953,0.21875 0.1328,0.07812 0.3828,0.07812 0.20313,0 0.51563,-0.03125 z m 1.20313,-6.96875 0,-1.32812 1.14064,0 0,1.32812 -1.14064,0 z m 0,7.98438 0,-6.73438 1.14064,0 0,6.73438 -1.14064,0 z m 3.21874,0 0,-5.85938 -1,0 0,-0.875 1,0 0,-0.71875 q 0,-0.6875 0.125,-1.01562 0.1719,-0.4375 0.58595,-0.71875 0.41405,-0.28125 1.16405,-0.28125 0.4844,0 1.0625,0.125 l -0.17187,0.98437 q -0.35937,-0.0625 -0.67187,-0.0625 -0.51563,0 -0.73436,0.226565 -0.21877,0.226565 -0.21877,0.835935 l 0,0.625 1.3125,0 0,0.875 -1.3125,0 0,5.85938 -1.14063,0 z m 3.4375,-7.98438 0,-1.32812 1.14063,0 0,1.32812 -1.14063,0 z m 0,7.98438 0,-6.73438 1.14063,0 0,6.73438 -1.14063,0 z m 7.57813,-2.17188 1.1875,0.14063 q -0.28123,1.04687 -1.03906,1.617185 -0.75781,0.570315 -1.92967,0.570315 -1.4844,0 -2.35158,-0.914065 -0.86719,-0.914065 -0.86719,-2.554685 0,-1.70313 0.88282,-2.64063 0.88281,-0.9375 2.27345,-0.9375 1.35936,0 2.21092,0.92188 0.85158,0.92187 0.85158,2.57812 0,0.10938 0,0.3125 l -5.03127,0 q 0.0625,1.10938 0.625,1.70313 0.5625,0.59375 1.40627,0.59375 0.6406,0 1.08592,-0.33594 0.44531,-0.33594 0.69531,-1.05469 z m -3.75,-1.84375 3.76563,0 q -0.0781,-0.85937 -0.4375,-1.28125 -0.54686,-0.65625 -1.40626,-0.65625 -0.79687,0 -1.3281,0.52344 -0.53127,0.52344 -0.59377,1.41406 z m 6.53127,4.01563 0,-6.73438 1.03123,0 0,1.01563 q 0.39063,-0.71875 0.72657,-0.945315 0.33593,-0.226565 0.72656,-0.226565 0.57814,0 1.17187,0.35938 l -0.39063,1.0625 q -0.42187,-0.25 -0.8281,-0.25 -0.375,0 -0.6797,0.22656 -0.3047,0.22656 -0.4297,0.63281 -0.1875,0.60938 -0.1875,1.32813 l 0,3.53125 -1.1406,0 z m 4.75,0 0,-1.29688 1.29686,0 0,1.29688 q 0,0.71875 -0.25,1.15625 -0.25,0.4375 -0.8125,0.6875 l -0.3125,-0.48438 q 0.35937,-0.17187 0.53124,-0.47656 0.1719,-0.30469 0.1875,-0.88281 l -0.6406,0 z"
     id="path18"
     inkscape:connector-curvature="0"
     style="fill:#000000;fill-rule:nonzero" />
  <path
     d="m 253.19691,102.28914 0,-9.312497 6.71873,0 0,1.10937 -5.48437,0 0,2.84375 5.14064,0 0,1.09375 -5.14064,0 0,3.171877 5.70314,0 0,1.09375 -6.9375,0 z m 8.71873,0 0,-6.734377 1.03127,0 0,0.95313 q 0.73436,-1.10938 2.1406,-1.10938 0.6094,0 1.1172,0.21875 0.5078,0.21875 0.76562,0.57031 0.25781,0.35157 0.35158,0.85157 0.0625,0.3125 0.0625,1.10937 l 0,4.140627 -1.14064,0 0,-4.093747 q 0,-0.70313 -0.13281,-1.04688 -0.13282,-0.34375 -0.46875,-0.55469 -0.33594,-0.21093 -0.78907,-0.21093 -0.73437,0 -1.26563,0.46093 -0.53124,0.46094 -0.53124,1.75782 l 0,3.687497 -1.14063,0 z m 11.79687,-2.468747 1.125,0.14062 q -0.17187,1.171877 -0.9375,1.828127 -0.7656,0.65625 -1.85937,0.65625 -1.39063,0 -2.22656,-0.90625 -0.83594,-0.90625 -0.83594,-2.593747 0,-1.09375 0.35937,-1.91407 0.3594,-0.82031 1.09376,-1.22656 0.73437,-0.40625 1.60937,-0.40625 1.09377,0 1.79687,0.55469 0.70313,0.55469 0.89063,1.57031 l -1.10937,0.17188 q -0.15626,-0.67188 -0.55469,-1.01563 -0.39844,-0.34375 -0.97657,-0.34375 -0.85937,0 -1.39843,0.61719 -0.53907,0.61719 -0.53907,1.96094 0,1.359367 0.51563,1.976557 0.51563,0.61719 1.35937,0.61719 0.6719,0 1.125,-0.41407 0.45313,-0.41406 0.5625,-1.273427 z m 2.26563,2.468747 0,-6.734377 1.03127,0 0,1.01563 q 0.3906,-0.71875 0.72655,-0.94532 0.33595,-0.22656 0.72655,-0.22656 0.57813,0 1.1719,0.35938 l -0.39064,1.0625 q -0.42186,-0.25 -0.82813,-0.25 -0.375,0 -0.67968,0.22656 -0.30469,0.22656 -0.42969,0.63281 -0.1875,0.60938 -0.1875,1.32813 l 0,3.531247 -1.14063,0 z m 4.40627,2.59375 -0.14064,-1.0625 q 0.375,0.0937 0.65624,0.0937 0.39063,0 0.6172,-0.125 0.22656,-0.125 0.3672,-0.35938 0.10936,-0.17187 0.35936,-0.84375 0.0312,-0.0937 0.0937,-0.28125 l -2.5625,-6.749997 1.2344,0 1.40623,3.89063 q 0.26563,0.749997 0.48437,1.562497 0.20313,-0.78125 0.46876,-1.531247 l 1.45314,-3.92188 1.1406,0 -2.5625,6.843747 q -0.42187,1.10938 -0.6406,1.53125 -0.3125,0.5625 -0.70314,0.82813 -0.39063,0.26562 -0.9375,0.26562 -0.32813,0 -0.73436,-0.14062 z m 6.71873,-0.0156 0,-9.312497 1.03127,0 0,0.875 q 0.375,-0.51562 0.83592,-0.77344 0.46094,-0.25781 1.13281,-0.25781 0.85937,0 1.51563,0.44531 0.65624,0.44532 0.99219,1.25 0.33595,0.80469 0.33595,1.77344 0,1.03125 -0.3672,1.859377 -0.3672,0.82812 -1.07813,1.27343 -0.71094,0.44532 -1.49217,0.44532 -0.5625,0 -1.01564,-0.24219 -0.45313,-0.24219 -0.75,-0.61719 l 0,3.28125 -1.14063,0 z m 1.03127,-5.906247 q 0,1.296877 0.53123,1.921877 0.53127,0.625 1.26563,0.625 0.76564,0 1.3125,-0.64844 0.54687,-0.64844 0.54687,-1.992187 0,-1.29687 -0.53123,-1.9375 -0.53127,-0.64062 -1.26564,-0.64062 -0.73436,0 -1.29686,0.67968 -0.5625,0.67969 -0.5625,1.99219 z m 8.875,2.312497 0.15623,1 q -0.48437,0.10938 -0.85937,0.10938 -0.625,0 -0.96876,-0.20313 -0.34374,-0.20312 -0.48437,-0.52344 -0.14063,-0.32031 -0.14063,-1.33593 l 0,-3.890627 -0.8281,0 0,-0.875 0.8281,0 0,-1.67187 1.14063,-0.6875 0,2.35937 1.15627,0 0,0.875 -1.15627,0 0,3.953127 q 0,0.48437 0.0625,0.625 0.0625,0.14062 0.19532,0.21875 0.13281,0.0781 0.38281,0.0781 0.20314,0 0.51564,-0.0312 z m 5.8125,-1.15625 1.1875,0.14063 q -0.28127,1.04687 -1.03908,1.61718 -0.75782,0.57032 -1.92969,0.57032 -1.48437,0 -2.35156,-0.91407 -0.86717,-0.91406 -0.86717,-2.554677 0,-1.70313 0.8828,-2.64063 0.8828,-0.9375 2.27343,-0.9375 1.35937,0 2.21094,0.92188 0.85156,0.92187 0.85156,2.57812 0,0.10938 0,0.3125 l -5.03123,0 q 0.0625,1.109377 0.625,1.703127 0.5625,0.59375 1.40623,0.59375 0.64063,0 1.08594,-0.33594 0.44533,-0.33594 0.69533,-1.05469 z m -3.75,-1.843747 3.7656,0 q -0.0781,-0.85937 -0.4375,-1.28125 -0.54687,-0.65625 -1.40624,-0.65625 -0.79686,0 -1.32813,0.52344 -0.53123,0.52344 -0.59373,1.41406 z m 10.92186,4.015627 0,-0.84375 q -0.64063,1 -1.89063,1 -0.79687,0 -1.47656,-0.44532 -0.67967,-0.44531 -1.05467,-1.24218 -0.375,-0.796877 -0.375,-1.828127 0,-1.01562 0.34373,-1.83594 0.34377,-0.82031 1.01563,-1.25781 0.67187,-0.4375 1.5,-0.4375 0.60937,0 1.08594,0.25781 0.47656,0.25782 0.77343,0.66407 l 0,-3.34375 1.14063,0 0,9.312497 -1.0625,0 z m -3.60936,-3.359377 q 0,1.296877 0.53905,1.937497 0.53905,0.64063 1.28905,0.64063 0.75,0 1.27345,-0.61719 0.52345,-0.61719 0.52345,-1.867187 0,-1.39062 -0.53127,-2.03906 -0.53123,-0.64844 -1.3125,-0.64844 -0.76563,0 -1.27343,0.625 -0.5078,0.625 -0.5078,1.96875 z m 10.4531,3.359377 0,-9.312497 1.2344,0 0,4.625 4.625,-4.625 1.65623,0 -3.89063,3.78125 4.0625,5.531247 -1.625,0 -3.3125,-4.703127 -1.5156,1.48438 0,3.218747 -1.2344,0 z m 13.40626,-2.17188 1.1875,0.14063 q -0.28126,1.04687 -1.03906,1.61718 -0.7578,0.57032 -1.9297,0.57032 -1.48437,0 -2.35155,-0.91407 -0.86719,-0.91406 -0.86719,-2.554677 0,-1.70313 0.88281,-2.64063 0.88283,-0.9375 2.27343,-0.9375 1.3594,0 2.21095,0.92188 0.85155,0.92187 0.85155,2.57812 0,0.10938 0,0.3125 l -5.03124,0 q 0.0625,1.109377 0.625,1.703127 0.5625,0.59375 1.40624,0.59375 0.64063,0 1.08595,-0.33594 0.44531,-0.33594 0.69531,-1.05469 z m -3.75,-1.843747 3.76564,0 q -0.0781,-0.85937 -0.4375,-1.28125 -0.5469,-0.65625 -1.40627,-0.65625 -0.79687,0 -1.32813,0.52344 -0.53124,0.52344 -0.59374,1.41406 z m 6.5,6.609377 -0.14063,-1.0625 q 0.375,0.0937 0.65627,0.0937 0.3906,0 0.61717,-0.125 0.22656,-0.125 0.36719,-0.35938 0.10937,-0.17187 0.35937,-0.84375 0.0313,-0.0937 0.0938,-0.28125 l -2.5625,-6.749997 1.23436,0 1.40624,3.89063 q 0.26563,0.749997 0.4844,1.562497 0.2031,-0.78125 0.46873,-1.531247 l 1.45313,-3.92188 1.14064,0 -2.5625,6.843747 q -0.4219,1.10938 -0.64064,1.53125 -0.3125,0.5625 -0.70313,0.82813 -0.39063,0.26562 -0.9375,0.26562 -0.32813,0 -0.73437,-0.14062 z m 6.26564,-4.60938 1.125,-0.17187 q 0.0937,0.67187 0.53123,1.03906 0.4375,0.36719 1.21877,0.36719 0.78123,0 1.16405,-0.32032 0.38281,-0.32031 0.38281,-0.75781 0,-0.39062 -0.34376,-0.609367 -0.23437,-0.15625 -1.17187,-0.39063 -1.25,-0.3125 -1.73437,-0.54687 -0.48436,-0.23438 -0.73436,-0.64063 -0.25,-0.40625 -0.25,-0.90625 0,-0.45312 0.2031,-0.83594 0.20313,-0.38281 0.5625,-0.63281 0.26563,-0.20312 0.72657,-0.33594 0.46093,-0.13281 0.99219,-0.13281 0.78124,0 1.38281,0.22656 0.60156,0.22657 0.89063,0.61719 0.28906,0.39063 0.39843,1.04688 l -1.125,0.15625 q -0.0781,-0.53125 -0.4375,-0.82032 -0.35937,-0.28906 -1.03123,-0.28906 -0.78127,0 -1.125,0.25781 -0.34377,0.25782 -0.34377,0.61719 0,0.21875 0.14063,0.39063 0.14064,0.1875 0.4375,0.3125 0.17187,0.0625 1.01564,0.28125 1.21873,0.32812 1.6953,0.53125 0.47656,0.20312 0.75,0.60156 0.27343,0.39844 0.27343,0.976557 0,0.57813 -0.33593,1.07813 -0.33594,0.5 -0.96094,0.78125 -0.625,0.28125 -1.42186,0.28125 -1.3125,0 -2,-0.54688 -0.6875,-0.54687 -0.875,-1.625 z"
     id="path20"
     inkscape:connector-curvature="0"
     style="fill:#000000;fill-rule:nonzero" />
  <path
     d="m 259.70751,147.07421 0,-9.3125 6.71875,0 0,1.10938 -5.48437,0 0,2.84375 5.14062,0 0,1.09375 -5.14062,0 0,3.17187 5.70312,0 0,1.09375 -6.9375,0 z m 8.71875,0 0,-6.73437 1.03125,0 0,0.95312 q 0.73438,-1.10937 2.14063,-1.10937 0.60937,0 1.11719,0.21875 0.50781,0.21875 0.76562,0.57031 0.25781,0.35156 0.35156,0.85156 0.0625,0.3125 0.0625,1.10938 l 0,4.14062 -1.14062,0 0,-4.09375 q 0,-0.70312 -0.13281,-1.04687 -0.13282,-0.34375 -0.46875,-0.55469 -0.33594,-0.21094 -0.78907,-0.21094 -0.73437,0 -1.26562,0.46094 -0.53125,0.46094 -0.53125,1.75781 l 0,3.6875 -1.14063,0 z m 11.8125,-2.46875 1.125,0.14063 q -0.17187,1.17187 -0.9375,1.82812 -0.76562,0.65625 -1.85937,0.65625 -1.39063,0 -2.22656,-0.90625 -0.83594,-0.90625 -0.83594,-2.59375 0,-1.09375 0.35937,-1.91406 0.35938,-0.82031 1.09375,-1.22656 0.73438,-0.40625 1.60938,-0.40625 1.09375,0 1.79687,0.55468 0.70313,0.55469 0.89063,1.57032 l -1.10938,0.17187 q -0.15625,-0.67187 -0.55468,-1.01562 -0.39844,-0.34375 -0.97657,-0.34375 -0.85937,0 -1.39843,0.61718 -0.53907,0.61719 -0.53907,1.96094 0,1.35938 0.51563,1.97656 0.51562,0.61719 1.35937,0.61719 0.67188,0 1.125,-0.41406 0.45313,-0.41406 0.5625,-1.27344 z m 2.25,2.46875 0,-6.73437 1.03125,0 0,1.01562 q 0.39063,-0.71875 0.72657,-0.94531 0.33593,-0.22656 0.72656,-0.22656 0.57812,0 1.17187,0.35937 l -0.39062,1.0625 q -0.42188,-0.25 -0.82813,-0.25 -0.375,0 -0.67968,0.22656 -0.30469,0.22657 -0.42969,0.63282 -0.1875,0.60937 -0.1875,1.32812 l 0,3.53125 -1.14063,0 z m 4.40625,2.59375 -0.14062,-1.0625 q 0.375,0.0937 0.65625,0.0937 0.39062,0 0.61719,-0.125 0.22656,-0.125 0.36718,-0.35937 0.10938,-0.17188 0.35938,-0.84375 0.0312,-0.0937 0.0937,-0.28125 l -2.5625,-6.75 1.23437,0 1.40625,3.89062 q 0.26563,0.75 0.48438,1.5625 0.20312,-0.78125 0.46875,-1.53125 l 1.45312,-3.92187 1.14063,0 -2.5625,6.84375 q -0.42188,1.10937 -0.64063,1.53125 -0.3125,0.5625 -0.70312,0.82812 -0.39063,0.26563 -0.9375,0.26563 -0.32813,0 -0.73438,-0.14063 z m 6.71875,-0.0156 0,-9.3125 1.03125,0 0,0.875 q 0.375,-0.51563 0.83594,-0.77344 0.46094,-0.25781 1.13281,-0.25781 0.85938,0 1.51563,0.44531 0.65625,0.44531 0.99219,1.25 0.33593,0.80469 0.33593,1.77344 0,1.03125 -0.36718,1.85937 -0.36719,0.82813 -1.07812,1.27344 -0.71095,0.44531 -1.4922,0.44531 -0.5625,0 -1.01562,-0.24219 -0.45313,-0.24218 -0.75,-0.61718 l 0,3.28125 -1.14063,0 z m 1.03125,-5.90625 q 0,1.29687 0.53125,1.92187 0.53125,0.625 1.26563,0.625 0.76562,0 1.3125,-0.64844 0.54687,-0.64843 0.54687,-1.99218 0,-1.29688 -0.53125,-1.9375 -0.53125,-0.64063 -1.26562,-0.64063 -0.73438,0 -1.29688,0.67969 -0.5625,0.67969 -0.5625,1.99219 z m 8.875,2.3125 0.15625,1 q -0.48437,0.10937 -0.85937,0.10937 -0.625,0 -0.96875,-0.20312 -0.34375,-0.20313 -0.48438,-0.52344 -0.14062,-0.32031 -0.14062,-1.33594 l 0,-3.89062 -0.82813,0 0,-0.875 0.82813,0 0,-1.67188 1.14062,-0.6875 0,2.35938 1.15625,0 0,0.875 -1.15625,0 0,3.95312 q 0,0.48438 0.0625,0.625 0.0625,0.14063 0.19532,0.21875 0.13281,0.0781 0.38281,0.0781 0.20312,0 0.51562,-0.0312 z m 5.8125,-1.15625 1.1875,0.14062 q -0.28125,1.04688 -1.03906,1.61719 -0.75781,0.57031 -1.92969,0.57031 -1.48437,0 -2.35155,-0.91406 -0.8672,-0.91406 -0.8672,-2.55469 0,-1.70312 0.88282,-2.64062 0.88281,-0.9375 2.27343,-0.9375 1.35938,0 2.21095,0.92187 0.85155,0.92188 0.85155,2.57813 0,0.10937 0,0.3125 l -5.03125,0 q 0.0625,1.10937 0.625,1.70312 0.5625,0.59375 1.40625,0.59375 0.64063,0 1.08595,-0.33594 0.4453,-0.33593 0.6953,-1.05468 z m -3.75,-1.84375 3.76563,0 q -0.0781,-0.85938 -0.4375,-1.28125 -0.54688,-0.65625 -1.40625,-0.65625 -0.79688,0 -1.32813,0.52343 -0.53125,0.52344 -0.59375,1.41407 z m 10.92188,4.01562 0,-0.84375 q -0.64063,1 -1.89063,1 -0.79687,0 -1.47655,-0.44531 -0.6797,-0.44531 -1.0547,-1.24219 -0.375,-0.79687 -0.375,-1.82812 0,-1.01563 0.34375,-1.83594 0.34375,-0.82031 1.01563,-1.25781 0.67187,-0.4375 1.5,-0.4375 0.60937,0 1.08594,0.25781 0.47656,0.25781 0.77343,0.66406 l 0,-3.34375 1.14063,0 0,9.3125 -1.0625,0 z m -3.60938,-3.35937 q 0,1.29687 0.53907,1.9375 0.53906,0.64062 1.28906,0.64062 0.75,0 1.27344,-0.61719 0.52343,-0.61718 0.52343,-1.86718 0,-1.39063 -0.53125,-2.03907 -0.53125,-0.64843 -1.3125,-0.64843 -0.76562,0 -1.27343,0.625 -0.50782,0.625 -0.50782,1.96875 z m 10.5625,3.35937 0,-9.3125 6.28125,0 0,1.10938 -5.04687,0 0,2.875 4.375,0 0,1.09375 -4.375,0 0,4.23437 -1.23438,0 z m 7.9375,-7.98437 0,-1.32813 1.14063,0 0,1.32813 -1.14063,0 z m 0,7.98437 0,-6.73437 1.14063,0 0,6.73437 -1.14063,0 z m 2.92188,0 0,-9.3125 1.14062,0 0,9.3125 -1.14062,0 z m 7.60937,-2.17187 1.1875,0.14062 q -0.28125,1.04688 -1.03905,1.61719 -0.75782,0.57031 -1.9297,0.57031 -1.48437,0 -2.35156,-0.91406 -0.86719,-0.91406 -0.86719,-2.55469 0,-1.70312 0.88282,-2.64062 0.88281,-0.9375 2.27343,-0.9375 1.35938,0 2.21094,0.92187 0.85156,0.92188 0.85156,2.57813 0,0.10937 0,0.3125 l -5.03125,0 q 0.0625,1.10937 0.625,1.70312 0.5625,0.59375 1.40625,0.59375 0.64063,0 1.08594,-0.33594 0.44531,-0.33593 0.69531,-1.05468 z m -3.75,-1.84375 3.76563,0 q -0.0781,-0.85938 -0.4375,-1.28125 -0.54688,-0.65625 -1.40625,-0.65625 -0.79688,0 -1.32813,0.52343 -0.53125,0.52344 -0.59375,1.41407 z m 6.09375,2 1.125,-0.17188 q 0.0937,0.67188 0.53125,1.03906 0.4375,0.36719 1.21875,0.36719 0.78125,0 1.16407,-0.32031 0.38281,-0.32031 0.38281,-0.75781 0,-0.39063 -0.34375,-0.60938 -0.23438,-0.15625 -1.17188,-0.39062 -1.25,-0.3125 -1.73437,-0.54688 -0.48438,-0.23437 -0.73438,-0.64062 -0.25,-0.40625 -0.25,-0.90625 0,-0.45313 0.20313,-0.83594 0.20312,-0.38281 0.5625,-0.63281 0.26562,-0.20313 0.72657,-0.33594 0.46093,-0.13281 0.99218,-0.13281 0.78125,0 1.38282,0.22656 0.60155,0.22656 0.89062,0.61719 0.28906,0.39062 0.39843,1.04687 l -1.125,0.15625 q -0.0781,-0.53125 -0.4375,-0.82031 -0.35937,-0.28906 -1.03125,-0.28906 -0.78125,0 -1.125,0.25781 -0.34375,0.25781 -0.34375,0.61719 0,0.21875 0.14063,0.39062 0.14062,0.1875 0.4375,0.3125 0.17187,0.0625 1.01562,0.28125 1.21875,0.32813 1.69532,0.53125 0.47656,0.20313 0.75,0.60156 0.27343,0.39844 0.27343,0.97657 0,0.57812 -0.33593,1.07812 -0.33594,0.5 -0.96094,0.78125 -0.625,0.28125 -1.42188,0.28125 -1.3125,0 -2,-0.54687 -0.6875,-0.54688 -0.875,-1.625 z"
     id="path22"
     inkscape:connector-curvature="0"
     style="fill:#000000;fill-rule:nonzero" />
  <path
     d="m 452.96337,266.16145 c 32.68214,10.76687 32.68214,-10.7669 65.36074,-10.7669 l 0,-55.96838 -65.36074,0 z m 5.38494,-66.73528 0,-7.25595 64.91426,0 0,56.31947 c -2.46746,0 -4.93846,0.39011 -4.93846,0.39011 l 0,-49.45363 z m 5.06154,-7.25595 0,-7.0804 65.47666,0 0,56.14391 c -2.8119,0 -5.62394,0.29258 -5.62394,0.29258 l 0,-49.35609 z"
     id="path24"
     inkscape:connector-curvature="0"
     style="fill:#f4cccc;fill-rule:nonzero" />
  <path
     d="m 452.96337,199.42617 65.36074,0 0,55.96838 c -32.6786,0 -32.6786,21.53377 -65.36074,10.7669 z m 5.38494,0 0,-7.25595 64.91426,0 0,56.31947 c -2.46746,0 -4.93846,0.39011 -4.93846,0.39011 m -54.91426,-56.70958 0,-7.0804 65.47666,0 0,56.14391 c -2.8119,0 -5.62394,0.29258 -5.62394,0.29258"
     id="path26"
     inkscape:connector-curvature="0"
     style="stroke:#073763;stroke-width:2;stroke-linecap:butt;stroke-linejoin:round" />
  <path
     d="m 472.63525,238.28555 0,-9.3125 6.28126,0 0,1.10937 -5.0469,0 0,2.875 4.375,0 0,1.09375 -4.375,0 0,4.23438 -1.23436,0 z m 7.9375,-7.98438 0,-1.32812 1.14062,0 0,1.32812 -1.14062,0 z m 0,7.98438 0,-6.73438 1.14062,0 0,6.73438 -1.14062,0 z m 2.92186,0 0,-9.3125 1.14064,0 0,9.3125 -1.14064,0 z m 7.6094,-2.17188 1.1875,0.14062 q -0.28126,1.04688 -1.0391,1.61719 -0.7578,0.57031 -1.92966,0.57031 -1.48438,0 -2.35154,-0.91406 -0.8672,-0.91406 -0.8672,-2.55468 0,-1.70313 0.8828,-2.64063 0.8828,-0.9375 2.27344,-0.9375 1.35936,0 2.21096,0.92187 0.85154,0.92188 0.85154,2.57813 0,0.10937 0,0.3125 l -5.03124,0 q 0.0625,1.10937 0.625,1.70313 0.5625,0.59374 1.40624,0.59374 0.64062,0 1.08596,-0.33594 0.4453,-0.33593 0.6953,-1.05468 z m -3.75,-1.84375 3.7656,0 q -0.0781,-0.85937 -0.4375,-1.28125 -0.54686,-0.65625 -1.40624,-0.65625 -0.79686,0 -1.32812,0.52343 -0.53124,0.52344 -0.59374,1.41407 z m 6.09374,2 1.125,-0.17187 q 0.0938,0.67187 0.53126,1.03906 0.4375,0.36718 1.21874,0.36718 0.78126,0 1.16406,-0.32031 0.3828,-0.32031 0.3828,-0.75781 0,-0.39062 -0.34374,-0.60938 -0.23436,-0.15624 -1.17186,-0.39062 -1.25,-0.3125 -1.7344,-0.54688 -0.48436,-0.23437 -0.73436,-0.64062 -0.25,-0.40625 -0.25,-0.90625 0,-0.45313 0.20312,-0.83594 0.20314,-0.38281 0.5625,-0.63281 0.26564,-0.20312 0.72654,-0.33594 0.46096,-0.13281 0.9922,-0.13281 0.78126,0 1.3828,0.22656 0.6016,0.22657 0.89065,0.61719 0.28905,0.39062 0.39845,1.04688 l -1.125,0.15624 q -0.0781,-0.53124 -0.4375,-0.82031 -0.3594,-0.28906 -1.03126,-0.28906 -0.78124,0 -1.125,0.25781 -0.34374,0.25782 -0.34374,0.61719 0,0.21875 0.1406,0.39063 0.14064,0.1875 0.4375,0.3125 0.1719,0.0625 1.01564,0.28124 1.21876,0.32813 1.69531,0.53126 0.47655,0.20312 0.75,0.60156 0.27345,0.39844 0.27345,0.97656 0,0.57812 -0.33595,1.07812 -0.33595,0.5 -0.96095,0.78126 -0.625,0.28124 -1.42186,0.28124 -1.3125,0 -2,-0.54687 -0.6875,-0.54687 -0.875,-1.625 z"
     id="path28"
     inkscape:connector-curvature="0"
     style="fill:#000000;fill-rule:nonzero" />
  <path
     d="m 243.47424,150.79785 254.07873,0"
     id="path30"
     inkscape:connector-curvature="0"
     style="stroke:#073763;stroke-width:2;stroke-linecap:butt;stroke-linejoin:round" />
  <path
     d="m 77.540665,106.54063 60.472445,0"
     id="path32"
     inkscape:connector-curvature="0"
     style="stroke:#073763;stroke-width:2;stroke-linecap:butt;stroke-linejoin:round" />
  <path
     d="m 138.01311,109.84409 9.0762,-3.30346 -9.0762,-3.30347 z"
     id="path34"
     inkscape:connector-curvature="0"
     style="fill:#073763;fill-rule:evenodd;stroke:#073763;stroke-width:2;stroke-linecap:butt" />
  <path
     d="m 25.982079,216.67505 58.083746,0 0,52.81656 c -29.04031,0 -29.04031,20.32111 -58.083746,10.16056 z m 4.785386,0 0,-6.84733 57.68705,0 0,53.14787 c -2.19278,0 -4.38869,0.36814 -4.38869,0.36814 m -48.80034,-53.51601 0,-6.68167 58.18683,0 0,52.9822 c -2.4989,0 -4.9978,0.27608 -4.9978,0.27608"
     id="path36"
     inkscape:connector-curvature="0"
     style="stroke:#073763;stroke-width:2;stroke-linecap:butt;stroke-linejoin:round" />
  <path
     d="m 42.669575,246.15943 0,-9.3125 1.26563,0 4.89062,7.3125 0,-7.3125 1.1875,0 0,9.3125 -1.26562,0 -4.89063,-7.3125 0,7.3125 -1.1875,0 z m 14.10938,-2.17188 1.1875,0.14063 q -0.28125,1.04687 -1.03906,1.61719 -0.75782,0.57031 -1.92969,0.57031 -1.48438,0 -2.35156,-0.91406 -0.86719,-0.91407 -0.86719,-2.55469 0,-1.70312 0.88281,-2.64062 0.88281,-0.9375 2.27344,-0.9375 1.35937,0 2.21094,0.92187 0.85156,0.92187 0.85156,2.57813 0,0.10937 0,0.3125 l -5.03125,0 q 0.0625,1.10937 0.625,1.70312 0.5625,0.59375 1.40625,0.59375 0.64062,0 1.08594,-0.33593 0.44531,-0.33594 0.69531,-1.0547 z m -3.75,-1.84374 3.76562,0 q -0.0781,-0.85938 -0.4375,-1.28126 -0.54687,-0.65624 -1.40625,-0.65624 -0.79687,0 -1.32812,0.52344 -0.53125,0.52343 -0.59375,1.41406 z m 7.78125,4.01562 -2.0625,-6.73438 1.1875,0 1.07812,3.89063 0.39063,1.4375 q 0.0312,-0.10937 0.35937,-1.39063 l 1.0625,-3.9375 1.17187,0 1.01562,3.90626 0.34376,1.28124 0.375,-1.29687 1.15624,-3.89063 1.10938,0 -2.10938,6.73438 -1.17187,0 -1.07813,-4.03125 -0.26562,-1.15625 -1.35937,5.1875 -1.20312,0 z"
     id="path38"
     inkscape:connector-curvature="0"
     style="fill:#000000;fill-rule:nonzero" />
  <path
     d="m 42.013325,261.15943 0,-9.3125 6.28125,0 0,1.10938 -5.04687,0 0,2.875 4.375,0 0,1.09374 -4.375,0 0,4.23438 -1.23438,0 z m 7.9375,-7.98438 0,-1.32812 1.14063,0 0,1.32812 -1.14063,0 z m 0,7.98438 0,-6.73438 1.14063,0 0,6.73438 -1.14063,0 z m 2.92188,0 0,-9.3125 1.14062,0 0,9.3125 -1.14062,0 z m 7.60937,-2.17188 1.1875,0.14063 q -0.28125,1.04687 -1.03906,1.61719 -0.75781,0.57031 -1.92969,0.57031 -1.48437,0 -2.35156,-0.91406 -0.86719,-0.91407 -0.86719,-2.55469 0,-1.70312 0.88282,-2.64062 0.88281,-0.9375 2.27343,-0.9375 1.35938,0 2.21094,0.92187 0.85156,0.92187 0.85156,2.57813 0,0.10937 0,0.3125 l -5.03125,0 q 0.0625,1.10937 0.625,1.70312 0.5625,0.59375 1.40625,0.59375 0.64063,0 1.08594,-0.33593 0.44531,-0.33594 0.69531,-1.0547 z m -3.75,-1.84374 3.76563,0 q -0.0781,-0.85938 -0.4375,-1.28126 -0.54688,-0.65624 -1.40625,-0.65624 -0.79688,0 -1.32813,0.52344 -0.53125,0.52343 -0.59375,1.41406 z m 6.09375,2 1.12499,-0.17188 q 0.0938,0.67188 0.53126,1.03906 0.4375,0.36719 1.21874,0.36719 0.78126,0 1.16407,-0.32031 0.38281,-0.32032 0.38281,-0.75782 0,-0.39062 -0.34375,-0.60937 -0.23437,-0.15625 -1.17187,-0.39063 -1.25,-0.3125 -1.73438,-0.54687 -0.48438,-0.23437 -0.73438,-0.64063 -0.24999,-0.40624 -0.24999,-0.90624 0,-0.45313 0.20313,-0.83594 0.20312,-0.38282 0.56249,-0.63282 0.26563,-0.20312 0.72657,-0.33593 0.46093,-0.13281 0.99218,-0.13281 0.78125,0 1.38282,0.22656 0.60156,0.22656 0.89062,0.61718 0.28906,0.39063 0.39844,1.04688 l -1.125,0.15625 q -0.0781,-0.53125 -0.4375,-0.82031 -0.35938,-0.28906 -1.03126,-0.28906 -0.78124,0 -1.125,0.25781 -0.34374,0.25781 -0.34374,0.61719 0,0.21874 0.14062,0.39062 0.14062,0.1875 0.4375,0.3125 0.17188,0.0625 1.01562,0.28125 1.21876,0.32813 1.69532,0.53125 0.47656,0.20312 0.75,0.60156 0.27344,0.39844 0.27344,0.97656 0,0.57813 -0.33594,1.07813 -0.33594,0.5 -0.96094,0.78125 -0.625,0.28125 -1.42188,0.28125 -1.3125,0 -2,-0.54687 -0.68749,-0.54688 -0.87499,-1.625 z"
     id="path40"
     inkscape:connector-curvature="0"
     style="fill:#000000;fill-rule:nonzero" />
  <path
     d="m 93.448015,236.34902 104.944865,0"
     id="path42"
     inkscape:connector-curvature="0"
     style="stroke:#073763;stroke-width:2;stroke-linecap:butt;stroke-linejoin:round" />
  <path
     d="m 150.01585,151.99995 -58.015745,0"
     id="path44"
     inkscape:connector-curvature="0"
     style="stroke:#073763;stroke-width:2;stroke-linecap:butt;stroke-linejoin:round" />
  <path
     d="m 92.000105,148.69648 -9.0762,3.30347 9.0762,3.30346 z"
     id="path46"
     inkscape:connector-curvature="0"
     style="fill:#073763;fill-rule:evenodd;stroke:#073763;stroke-width:2;stroke-linecap:butt" />
  <path
     d="m 16.00058,149.18262 0,-9.3125 1.21875,0 0,9.3125 -1.21875,0 z m 7.71875,0 0,-0.84375 q -0.640625,1 -1.890625,1 -0.796875,0 -1.47656,-0.44531 -0.67969,-0.44531 -1.05469,-1.24219 -0.375,-0.79687 -0.375,-1.82812 0,-1.01563 0.34375,-1.83594 0.34375,-0.82031 1.015625,-1.25781 0.671875,-0.4375 1.5,-0.4375 0.609375,0 1.085935,0.25781 0.476565,0.25781 0.77344,0.66406 l 0,-3.34375 1.140625,0 0,9.3125 -1.0625,0 z m -3.609375,-3.35937 q 0,1.29687 0.53906,1.9375 0.539065,0.64062 1.289065,0.64062 0.75,0 1.273435,-0.61718 0.52344,-0.61719 0.52344,-1.86719 0,-1.39063 -0.53125,-2.03906 -0.53125,-0.64844 -1.3125,-0.64844 -0.765625,0 -1.27344,0.625 -0.50781,0.625 -0.50781,1.96875 z m 11.265625,1.1875 1.1875,0.14062 q -0.28125,1.04688 -1.039065,1.61719 -0.75781,0.57031 -1.929685,0.57031 -1.484375,0 -2.351565,-0.91406 -0.867185,-0.91406 -0.867185,-2.55469 0,-1.70312 0.882815,-2.64062 0.88281,-0.9375 2.273435,-0.9375 1.359375,0 2.210935,0.92187 0.851565,0.92188 0.851565,2.57813 0,0.10937 0,0.3125 l -5.03125,0 q 0.0625,1.10937 0.625,1.70312 0.5625,0.59375 1.40625,0.59375 0.640625,0 1.085935,-0.33593 0.445315,-0.33594 0.695315,-1.05469 z m -3.75,-1.84375 3.765625,0 q -0.07813,-0.85938 -0.4375,-1.28125 -0.546875,-0.65625 -1.40625,-0.65625 -0.796875,0 -1.328125,0.52344 -0.53125,0.52343 -0.59375,1.41406 z m 6.546875,4.01562 0,-6.73437 1.03125,0 0,0.95312 q 0.73438,-1.10937 2.14063,-1.10937 0.60937,0 1.11718,0.21875 0.50782,0.21875 0.76563,0.57031 0.25781,0.35156 0.35156,0.85156 0.0625,0.3125 0.0625,1.10938 l 0,4.14062 -1.14062,0 0,-4.09375 q 0,-0.70312 -0.13282,-1.04687 -0.13281,-0.34375 -0.46875,-0.55469 -0.33593,-0.21094 -0.78906,-0.21094 -0.73437,0 -1.26562,0.46094 -0.53125,0.46094 -0.53125,1.75781 l 0,3.6875 -1.14063,0 z m 9.90625,-1.01562 0.15625,1 q -0.48437,0.10937 -0.85937,0.10937 -0.625,0 -0.96875,-0.20312 -0.34375,-0.20313 -0.48438,-0.52344 -0.14062,-0.32031 -0.14062,-1.33594 l 0,-3.89062 -0.82813,0 0,-0.875 0.82813,0 0,-1.67188 1.14062,-0.6875 0,2.35938 1.15625,0 0,0.875 -1.15625,0 0,3.95312 q 0,0.48438 0.0625,0.625 0.0625,0.14063 0.19531,0.21875 0.13282,0.0781 0.38282,0.0781 0.20312,0 0.51562,-0.0312 z m 1.20313,-6.96875 0,-1.32813 1.14062,0 0,1.32813 -1.14062,0 z m 0,7.98437 0,-6.73437 1.14062,0 0,6.73437 -1.14062,0 z m 3.23437,0 0,-5.85937 -1,0 0,-0.875 1,0 0,-0.71875 q 0,-0.6875 0.125,-1.01563 0.17188,-0.4375 0.58594,-0.71875 0.41406,-0.28125 1.16406,-0.28125 0.48438,0 1.0625,0.125 l -0.17187,0.98438 q -0.35938,-0.0625 -0.67188,-0.0625 -0.51562,0 -0.73437,0.22656 -0.21875,0.22656 -0.21875,0.83594 l 0,0.625 1.3125,0 0,0.875 -1.3125,0 0,5.85937 -1.14063,0 z m 3.4375,-7.98437 0,-1.32813 1.14063,0 0,1.32813 -1.14063,0 z m 0,7.98437 0,-6.73437 1.14063,0 0,6.73437 -1.14063,0 z m 7.5625,-2.17187 1.1875,0.14062 q -0.28125,1.04688 -1.03906,1.61719 -0.75781,0.57031 -1.92969,0.57031 -1.48437,0 -2.35156,-0.91406 -0.86719,-0.91406 -0.86719,-2.55469 0,-1.70312 0.88281,-2.64062 0.88282,-0.9375 2.27344,-0.9375 1.35938,0 2.21094,0.92187 0.85156,0.92188 0.85156,2.57813 0,0.10937 0,0.3125 l -5.03125,0 q 0.0625,1.10937 0.625,1.70312 0.5625,0.59375 1.40625,0.59375 0.64063,0 1.08594,-0.33593 0.44531,-0.33594 0.69531,-1.05469 z m -3.75,-1.84375 3.76563,0 q -0.0781,-0.85938 -0.4375,-1.28125 -0.54688,-0.65625 -1.40625,-0.65625 -0.79688,0 -1.32813,0.52344 -0.53125,0.52343 -0.59375,1.41406 z m 6.54688,4.01562 0,-6.73437 1.03125,0 0,1.01562 q 0.39062,-0.71875 0.72656,-0.94531 0.33594,-0.22656 0.72656,-0.22656 0.57813,0 1.17188,0.35937 l -0.39063,1.0625 q -0.42187,-0.25 -0.82812,-0.25 -0.375,0 -0.67969,0.22657 -0.30469,0.22656 -0.42969,0.63281 -0.1875,0.60937 -0.1875,1.32812 l 0,3.53125 -1.14062,0 z m 4,-2.01562 1.125,-0.17188 q 0.0937,0.67188 0.53125,1.03907 0.4375,0.36718 1.21875,0.36718 0.78125,0 1.16406,-0.32031 0.38281,-0.32031 0.38281,-0.75781 0,-0.39063 -0.34375,-0.60938 -0.23437,-0.15625 -1.17187,-0.39062 -1.25,-0.3125 -1.73438,-0.54688 -0.48437,-0.23437 -0.73437,-0.64062 -0.25,-0.40625 -0.25,-0.90625 0,-0.45313 0.20312,-0.83594 0.20313,-0.38281 0.5625,-0.63281 0.26563,-0.20313 0.72656,-0.33594 0.46094,-0.13281 0.99219,-0.13281 0.78125,0 1.38281,0.22656 0.60157,0.22656 0.89063,0.61719 0.28906,0.39062 0.39844,1.04687 l -1.125,0.15625 q -0.0781,-0.53125 -0.4375,-0.82031 -0.35938,-0.28906 -1.03125,-0.28906 -0.78125,0 -1.125,0.25781 -0.34375,0.25781 -0.34375,0.61719 0,0.21875 0.14062,0.39062 0.14063,0.1875 0.4375,0.3125 0.17188,0.0625 1.01563,0.28125 1.21875,0.32813 1.69531,0.53125 0.47656,0.20313 0.75,0.60157 0.27344,0.39843 0.27344,0.97656 0,0.57812 -0.33594,1.07812 -0.33594,0.5 -0.96094,0.78125 -0.625,0.28125 -1.42187,0.28125 -1.3125,0 -2,-0.54687 -0.6875,-0.54688 -0.875,-1.625 z m 7.40625,2.01562 0,-1.29687 1.29687,0 0,1.29687 q 0,0.71875 -0.25,1.15625 -0.25,0.4375 -0.8125,0.6875 l -0.3125,-0.48437 q 0.35938,-0.17188 0.53125,-0.47656 0.17188,-0.30469 0.1875,-0.88282 l -0.64062,0 z"
     id="path48"
     inkscape:connector-curvature="0"
     style="fill:#000000;fill-rule:nonzero" />
  <path
     d="m 18.71933,160.917 1.234375,0.3125 q -0.390625,1.51562 -1.39844,2.3125 -1.00781,0.79687 -2.460935,0.79687 -1.5,0 -2.445315,-0.60937 -0.94531,-0.60938 -1.4375,-1.77344 -0.492185,-1.16406 -0.492185,-2.49219 0,-1.45312 0.5625,-2.53906 0.5625,-1.08594 1.585935,-1.64844 1.02344,-0.5625 2.257815,-0.5625 1.390625,0 2.34375,0.71094 0.953125,0.71094 1.328125,2.00781 l -1.21875,0.28125 q -0.328125,-1.01562 -0.9375,-1.47656 -0.609375,-0.46094 -1.546875,-0.46094 -1.078125,0 -1.796875,0.51563 -0.71875,0.51562 -1.00781,1.375 -0.289065,0.85937 -0.289065,1.78125 0,1.1875 0.34375,2.07812 0.34375,0.89063 1.070315,1.32813 0.72656,0.4375 1.585935,0.4375 1.03125,0 1.75,-0.60156 0.71875,-0.60157 0.96875,-1.77344 z m 7.234375,2.4375 q -0.625,0.53125 -1.21094,0.75781 -0.585935,0.22656 -1.25781,0.22656 -1.125,0 -1.71875,-0.54687 -0.59375,-0.54688 -0.59375,-1.39063 0,-0.48437 0.22656,-0.89843 0.226565,-0.41407 0.59375,-0.66407 0.36719,-0.25 0.820315,-0.375 0.328125,-0.0781 1.015625,-0.17187 1.375,-0.15625 2.03125,-0.39063 0.01563,-0.23437 0.01563,-0.29687 0,-0.70313 -0.328125,-0.98438 -0.4375,-0.39062 -1.296875,-0.39062 -0.8125,0 -1.195315,0.28125 -0.38281,0.28125 -0.57031,1 l -1.109375,-0.14063 q 0.140625,-0.71875 0.492185,-1.16406 0.351565,-0.44531 1.01563,-0.67969 0.66406,-0.23437 1.523435,-0.23437 0.875,0 1.414065,0.20312 0.53906,0.20313 0.78906,0.50782 0.25,0.30468 0.359375,0.77343 0.04687,0.29688 0.04687,1.0625 l 0,1.51563 q 0,1.59375 0.07813,2.01562 0.07813,0.42188 0.28125,0.8125 l -1.1875,0 q -0.17188,-0.35937 -0.23438,-0.82812 z m -0.09375,-2.5625 q -0.625,0.26562 -1.859375,0.4375 -0.703125,0.10937 -1,0.23437 -0.296875,0.125 -0.453125,0.36719 -0.15625,0.24219 -0.15625,0.53906 0,0.45313 0.34375,0.75782 0.34375,0.30468 1.015625,0.30468 0.65625,0 1.171875,-0.28906 0.515625,-0.28906 0.765625,-0.78906 0.171875,-0.375 0.171875,-1.14063 l 0,-0.42187 z m 3.109375,5.96875 0,-9.3125 1.03125,0 0,0.875 q 0.375,-0.51563 0.835935,-0.77344 0.46094,-0.25781 1.132815,-0.25781 0.859375,0 1.515625,0.44531 0.65625,0.44531 0.99219,1.25 0.335935,0.80469 0.335935,1.77344 0,1.03125 -0.367185,1.85937 -0.36719,0.82813 -1.07813,1.27344 -0.710935,0.44531 -1.492185,0.44531 -0.5625,0 -1.015625,-0.24218 -0.453125,-0.24219 -0.75,-0.61719 l 0,3.28125 -1.140625,0 z m 1.03125,-5.90625 q 0,1.29687 0.53125,1.92187 0.53125,0.625 1.265625,0.625 0.765625,0 1.3125,-0.64843 0.546875,-0.64844 0.546875,-1.99219 0,-1.29688 -0.53125,-1.9375 -0.53125,-0.64063 -1.265625,-0.64063 -0.734375,0 -1.296875,0.67969 -0.5625,0.67969 -0.5625,1.99219 z m 10.781255,2.5 q -0.625,0.53125 -1.21094,0.75781 -0.58594,0.22656 -1.25781,0.22656 -1.125,0 -1.71875,-0.54687 -0.59375,-0.54688 -0.59375,-1.39063 0,-0.48437 0.22656,-0.89843 0.22656,-0.41407 0.59375,-0.66407 0.36719,-0.25 0.82031,-0.375 0.32813,-0.0781 1.01563,-0.17187 1.375,-0.15625 2.03125,-0.39063 0.0156,-0.23437 0.0156,-0.29687 0,-0.70313 -0.32812,-0.98438 -0.4375,-0.39062 -1.29688,-0.39062 -0.8125,0 -1.19531,0.28125 -0.38281,0.28125 -0.57031,1 l -1.10938,-0.14063 q 0.14063,-0.71875 0.49219,-1.16406 0.35156,-0.44531 1.01562,-0.67969 0.66407,-0.23437 1.52344,-0.23437 0.875,0 1.41406,0.20312 0.53907,0.20313 0.78907,0.50782 0.25,0.30468 0.35937,0.77343 0.0469,0.29688 0.0469,1.0625 l 0,1.51563 q 0,1.59375 0.0781,2.01562 0.0781,0.42188 0.28125,0.8125 l -1.1875,0 q -0.17187,-0.35937 -0.23437,-0.82812 z m -0.0937,-2.5625 q -0.625,0.26562 -1.85938,0.4375 -0.70312,0.10937 -1,0.23437 -0.29687,0.125 -0.45312,0.36719 -0.15625,0.24219 -0.15625,0.53906 0,0.45313 0.34375,0.75782 0.34375,0.30468 1.01562,0.30468 0.65625,0 1.17188,-0.28906 0.51562,-0.28906 0.76562,-0.78906 0.17188,-0.375 0.17188,-1.14063 l 0,-0.42187 z m 4.15625,3.39062 -1.0625,0 0,-9.3125 1.15625,0 0,3.32813 q 0.71875,-0.90625 1.84375,-0.90625 0.625,0 1.17968,0.25 0.55469,0.25 0.91407,0.70312 0.35937,0.45313 0.5625,1.09375 0.20312,0.64063 0.20312,1.375 0,1.73438 -0.85937,2.67969 -0.85938,0.94531 -2.0625,0.94531 -1.1875,0 -1.875,-1 l 0,0.84375 z m -0.0156,-3.42187 q 0,1.21875 0.34375,1.75 0.53125,0.89062 1.45313,0.89062 0.75,0 1.29687,-0.65625 0.54688,-0.65625 0.54688,-1.9375 0,-1.32812 -0.52344,-1.95312 -0.52344,-0.625 -1.27344,-0.625 -0.75,0 -1.29687,0.64844 -0.54688,0.64843 -0.54688,1.88281 z m 6.39063,-4.5625 0,-1.32813 1.14062,0 0,1.32813 -1.14062,0 z m 0,7.98437 0,-6.73437 1.14062,0 0,6.73437 -1.14062,0 z m 2.92187,0 0,-9.3125 1.14063,0 0,9.3125 -1.14063,0 z m 3,-7.98437 0,-1.32813 1.14063,0 0,1.32813 -1.14063,0 z m 0,7.98437 0,-6.73437 1.14063,0 0,6.73437 -1.14063,0 z m 5.45313,-1.01562 0.15625,1 q -0.48438,0.10937 -0.85938,0.10937 -0.625,0 -0.96875,-0.20312 -0.34375,-0.20313 -0.48437,-0.52344 -0.14063,-0.32031 -0.14063,-1.33594 l 0,-3.89062 -0.82812,0 0,-0.875 0.82812,0 0,-1.67188 1.14063,-0.6875 0,2.35938 1.15625,0 0,0.875 -1.15625,0 0,3.95312 q 0,0.48438 0.0625,0.625 0.0625,0.14063 0.19531,0.21875 0.13281,0.0781 0.38281,0.0781 0.20313,0 0.51563,-0.0312 z m 1.20312,-6.96875 0,-1.32813 1.14063,0 0,1.32813 -1.14063,0 z m 0,7.98437 0,-6.73437 1.14063,0 0,6.73437 -1.14063,0 z m 7.57813,-2.17187 1.1875,0.14062 q -0.28125,1.04688 -1.03907,1.61719 -0.75781,0.57031 -1.92968,0.57031 -1.48438,0 -2.35157,-0.91406 -0.86718,-0.91406 -0.86718,-2.55469 0,-1.70312 0.88281,-2.64062 0.88281,-0.9375 2.27344,-0.9375 1.35937,0 2.21093,0.92187 0.85157,0.92188 0.85157,2.57813 0,0.10937 0,0.3125 l -5.03125,0 q 0.0625,1.10937 0.625,1.70312 0.5625,0.59375 1.40625,0.59375 0.64062,0 1.08593,-0.33593 0.44532,-0.33594 0.69532,-1.05469 z m -3.75,-1.84375 3.76562,0 q -0.0781,-0.85938 -0.4375,-1.28125 -0.54687,-0.65625 -1.40625,-0.65625 -0.79687,0 -1.32812,0.52344 -0.53125,0.52343 -0.59375,1.41406 z m 6.09375,2 1.125,-0.17188 q 0.0937,0.67188 0.53125,1.03907 0.4375,0.36718 1.21875,0.36718 0.78125,0 1.16406,-0.32031 0.38281,-0.32031 0.38281,-0.75781 0,-0.39063 -0.34375,-0.60938 -0.23437,-0.15625 -1.17187,-0.39062 -1.25,-0.3125 -1.73438,-0.54688 -0.48437,-0.23437 -0.73437,-0.64062 -0.25,-0.40625 -0.25,-0.90625 0,-0.45313 0.20312,-0.83594 0.20313,-0.38281 0.5625,-0.63281 0.26563,-0.20313 0.72656,-0.33594 0.46094,-0.13281 0.99219,-0.13281 0.78125,0 1.38281,0.22656 0.60157,0.22656 0.89063,0.61719 0.28906,0.39062 0.39844,1.04687 l -1.125,0.15625 q -0.0781,-0.53125 -0.4375,-0.82031 -0.35938,-0.28906 -1.03125,-0.28906 -0.78125,0 -1.125,0.25781 -0.34375,0.25781 -0.34375,0.61719 0,0.21875 0.14062,0.39062 0.14063,0.1875 0.4375,0.3125 0.17188,0.0625 1.01563,0.28125 1.21875,0.32813 1.69531,0.53125 0.47656,0.20313 0.75,0.60157 0.27344,0.39843 0.27344,0.97656 0,0.57812 -0.33594,1.07812 -0.33594,0.5 -0.96094,0.78125 -0.625,0.28125 -1.42187,0.28125 -1.3125,0 -2,-0.54687 -0.6875,-0.54688 -0.875,-1.625 z"
     id="path50"
     inkscape:connector-curvature="0"
     style="fill:#000000;fill-rule:nonzero" />
  <path
     d="m 602.33557,65.897478 76.23498,0 0,65.187092 c -38.11749,0 -38.11749,24.83748 -76.23498,10.72528 z"
     id="path52"
     inkscape:connector-curvature="0"
     style="fill:#f4cccc;fill-rule:nonzero;stroke:#073763;stroke-width:2;stroke-linecap:butt;stroke-linejoin:round" />
  <path
     d="m 621.80431,96.475603 0,-9.3125 3.51563,0 q 0.92187,0 1.40627,0.09375 0.6875,0.109375 1.15623,0.42969 0.46877,0.32031 0.75,0.89844 0.28127,0.57812 0.28127,1.28125 0,1.1875 -0.75783,2.00781 -0.75781,0.82031 -2.72657,0.82031 l -2.3906,0 0,3.78125 -1.2344,0 z m 1.2344,-4.875 2.40623,0 q 1.1875,0 1.69531,-0.44531 0.50782,-0.44531 0.50782,-1.25781 0,-0.57813 -0.29686,-0.99219 -0.2969,-0.41406 -0.78127,-0.55469 -0.3125,-0.0781 -1.15623,-0.0781 l -2.375,0 0,3.32812 z m 11.90623,4.04688 q -0.625,0.53125 -1.21093,0.75781 -0.58594,0.22656 -1.2578,0.22656 -1.125,0 -1.71877,-0.54687 -0.59373,-0.54688 -0.59373,-1.39063 0,-0.48437 0.22654,-0.89844 0.22656,-0.41406 0.59376,-0.66406 0.3672,-0.25 0.8203,-0.375 0.32813,-0.0781 1.01563,-0.17187 1.375,-0.15625 2.03127,-0.39063 0.0156,-0.23437 0.0156,-0.29687 0,-0.70313 -0.3281,-0.98438 -0.4375,-0.39062 -1.2969,-0.39062 -0.8125,0 -1.1953,0.28125 -0.3828,0.28125 -0.5703,1 l -1.1094,-0.14063 q 0.14063,-0.71875 0.4922,-1.16406 0.35156,-0.44531 1.0156,-0.67969 0.6641,-0.23437 1.52346,-0.23437 0.875,0 1.41404,0.20312 0.5391,0.20313 0.7891,0.50781 0.25,0.30469 0.35936,0.77344 0.0469,0.29688 0.0469,1.0625 l 0,1.51563 q 0,1.59375 0.0781,2.01562 0.0781,0.42188 0.28124,0.8125 l -1.1875,0 q -0.17187,-0.35937 -0.23437,-0.82812 z m -0.0937,-2.5625 q -0.625,0.26562 -1.8594,0.4375 -0.7031,0.10937 -1,0.23437 -0.29687,0.125 -0.4531,0.36719 -0.15627,0.24219 -0.15627,0.53906 0,0.45313 0.34377,0.75781 0.34373,0.30469 1.0156,0.30469 0.65626,0 1.1719,-0.28906 0.5156,-0.28906 0.7656,-0.78906 0.1719,-0.375 0.1719,-1.14063 l 0,-0.42187 z m 3.10936,3.39062 0,-6.73437 1.03124,0 0,1.01562 q 0.39063,-0.71875 0.72657,-0.94531 0.33593,-0.22656 0.72656,-0.22656 0.57813,0 1.17187,0.35937 l -0.3906,1.0625 q -0.4219,-0.25 -0.82814,-0.25 -0.375,0 -0.67969,0.22656 -0.30467,0.22657 -0.42967,0.63282 -0.1875,0.60937 -0.1875,1.32812 l 0,3.53125 -1.14064,0 z m 9.0625,-2.17187 1.1875,0.14062 q -0.28126,1.04688 -1.03906,1.61719 -0.7578,0.57031 -1.9297,0.57031 -1.48437,0 -2.35156,-0.91406 -0.86718,-0.91406 -0.86718,-2.55469 0,-1.70312 0.88281,-2.64062 0.88283,-0.9375 2.27343,-0.9375 1.3594,0 2.21094,0.92187 0.85156,0.92188 0.85156,2.57813 0,0.10937 0,0.3125 l -5.03124,0 q 0.0625,1.10937 0.625,1.70312 0.5625,0.59375 1.40624,0.59375 0.64063,0 1.08594,-0.33594 0.44532,-0.33593 0.69532,-1.05468 z m -3.75,-1.84375 3.76564,0 q -0.0781,-0.85938 -0.4375,-1.28125 -0.5469,-0.65625 -1.40627,-0.65625 -0.79687,0 -1.32813,0.52343 -0.53124,0.52344 -0.59374,1.41407 z m 6.54687,4.01562 0,-6.73437 1.03127,0 0,0.95312 q 0.73436,-1.10937 2.1406,-1.10937 0.6094,0 1.1172,0.21875 0.5078,0.21875 0.7656,0.57031 0.25783,0.35156 0.3516,0.85156 0.0625,0.3125 0.0625,1.10938 l 0,4.14062 -1.14064,0 0,-4.09375 q 0,-0.70312 -0.13282,-1.04687 -0.13281,-0.34375 -0.46874,-0.55469 -0.33594,-0.21094 -0.78907,-0.21094 -0.73437,0 -1.26563,0.46094 -0.53124,0.46094 -0.53124,1.75781 l 0,3.6875 -1.14063,0 z m 9.92187,-1.01562 0.15626,1 q -0.48436,0.10937 -0.85936,0.10937 -0.625,0 -0.96877,-0.20312 -0.34373,-0.20313 -0.48437,-0.52344 -0.14063,-0.32031 -0.14063,-1.33594 l 0,-3.89062 -0.82813,0 0,-0.875 0.82813,0 0,-1.67188 1.14063,-0.6875 0,2.35938 1.15624,0 0,0.875 -1.15624,0 0,3.95312 q 0,0.48438 0.0625,0.625 0.0625,0.14063 0.19531,0.21875 0.13283,0.0781 0.38283,0.0781 0.2031,0 0.5156,-0.0312 z"
     id="path54"
     inkscape:connector-curvature="0"
     style="fill:#000000;fill-rule:nonzero" />
  <path
     d="m 620.13244,111.4756 0,-0.84375 q -0.64063,1 -1.89063,1 -0.79687,0 -1.47656,-0.44531 -0.67968,-0.44531 -1.05468,-1.24219 -0.375,-0.79687 -0.375,-1.82812 0,-1.01563 0.34374,-1.83594 0.34376,-0.82031 1.01563,-1.25781 0.67187,-0.4375 1.5,-0.4375 0.60937,0 1.08594,0.25781 0.47656,0.25781 0.77343,0.66406 l 0,-3.34375 1.14063,0 0,9.3125 -1.0625,0 z m -3.60937,-3.35937 q 0,1.29687 0.53904,1.9375 0.5391,0.64062 1.2891,0.64062 0.75,0 1.2734,-0.61719 0.52346,-0.61718 0.52346,-1.86718 0,-1.39063 -0.53126,-2.03907 -0.53124,-0.64843 -1.3125,-0.64843 -0.7656,0 -1.27343,0.625 -0.50781,0.625 -0.50781,1.96875 z m 6.64064,-4.625 0,-1.32813 1.1406,0 0,1.32813 -1.1406,0 z m 0,7.98437 0,-6.73437 1.1406,0 0,6.73437 -1.1406,0 z m 2.9531,0 0,-6.73437 1.03126,0 0,1.01562 q 0.39064,-0.71875 0.72654,-0.94531 0.33596,-0.22656 0.7266,-0.22656 0.5781,0 1.17186,0.35937 l -0.39063,1.0625 q -0.42187,-0.25 -0.82813,-0.25 -0.375,0 -0.6797,0.22656 -0.30467,0.22657 -0.42967,0.63282 -0.1875,0.60937 -0.1875,1.32812 l 0,3.53125 -1.14063,0 z m 9.0625,-2.17187 1.1875,0.14062 q -0.28124,1.04688 -1.03906,1.61719 -0.75781,0.57031 -1.92968,0.57031 -1.48436,0 -2.35156,-0.91406 -0.8672,-0.91406 -0.8672,-2.55469 0,-1.70312 0.8828,-2.64062 0.88283,-0.9375 2.27346,-0.9375 1.35937,0 2.21094,0.92187 0.85156,0.92188 0.85156,2.57813 0,0.10937 0,0.3125 l -5.03126,0 q 0.0625,1.10937 0.625,1.70312 0.5625,0.59375 1.40626,0.59375 0.64064,0 1.08594,-0.33594 0.4453,-0.33593 0.6953,-1.05468 z m -3.75,-1.84375 3.76563,0 q -0.0781,-0.85938 -0.4375,-1.28125 -0.54687,-0.65625 -1.40623,-0.65625 -0.7969,0 -1.32814,0.52343 -0.53126,0.52344 -0.59376,1.41407 z m 10.9375,1.54687 1.125,0.14063 q -0.17187,1.17187 -0.9375,1.82812 -0.7656,0.65625 -1.85937,0.65625 -1.39063,0 -2.22656,-0.90625 -0.83594,-0.90625 -0.83594,-2.59375 0,-1.09375 0.35937,-1.91406 0.3594,-0.82031 1.09376,-1.22656 0.73437,-0.40625 1.60937,-0.40625 1.09377,0 1.79687,0.55468 0.70313,0.55469 0.89063,1.57032 l -1.10937,0.17187 q -0.15626,-0.67187 -0.55469,-1.01562 -0.39844,-0.34375 -0.97657,-0.34375 -0.85937,0 -1.39843,0.61718 -0.53907,0.61719 -0.53907,1.96094 0,1.35938 0.51563,1.97656 0.51563,0.61719 1.35937,0.61719 0.6719,0 1.125,-0.41406 0.45313,-0.41406 0.5625,-1.27344 z m 4.76563,1.45313 0.15627,1 q -0.4844,0.10937 -0.8594,0.10937 -0.625,0 -0.96874,-0.20312 -0.34376,-0.20313 -0.48436,-0.52344 -0.14064,-0.32031 -0.14064,-1.33594 l 0,-3.89062 -0.82813,0 0,-0.875 0.82813,0 0,-1.67188 1.14064,-0.6875 0,2.35938 1.15623,0 0,0.875 -1.15623,0 0,3.95312 q 0,0.48438 0.0625,0.625 0.0625,0.14063 0.1953,0.21875 0.1328,0.0781 0.3828,0.0781 0.20313,0 0.51563,-0.0312 z m 0.78127,-2.35938 q 0,-1.875 1.03123,-2.76562 0.875,-0.75 2.125,-0.75 1.39063,0 2.27344,0.90625 0.88283,0.90625 0.88283,2.51562 0,1.29688 -0.39064,2.04688 -0.39063,0.75 -1.14063,1.16406 -0.75,0.41406 -1.625,0.41406 -1.42187,0 -2.28906,-0.90625 -0.86717,-0.90625 -0.86717,-2.625 z m 1.17186,0 q 0,1.29688 0.5625,1.94531 0.5625,0.64844 1.42187,0.64844 0.84377,0 1.41407,-0.64844 0.5703,-0.64843 0.5703,-1.97656 0,-1.25 -0.5703,-1.89844 -0.5703,-0.64843 -1.41407,-0.64843 -0.85937,0 -1.42187,0.64062 -0.5625,0.64063 -0.5625,1.9375 z m 6.65624,3.375 0,-6.73437 1.03126,0 0,1.01562 q 0.39064,-0.71875 0.72654,-0.94531 0.33596,-0.22656 0.7266,-0.22656 0.5781,0 1.17186,0.35937 l -0.39063,1.0625 q -0.42187,-0.25 -0.82813,-0.25 -0.375,0 -0.6797,0.22656 -0.30467,0.22657 -0.42967,0.63282 -0.1875,0.60937 -0.1875,1.32812 l 0,3.53125 -1.14063,0 z m 4.40626,2.59375 -0.14063,-1.0625 q 0.375,0.0937 0.65627,0.0937 0.3906,0 0.61717,-0.125 0.22656,-0.125 0.36719,-0.35937 0.10937,-0.17188 0.35937,-0.84375 0.0313,-0.0937 0.0938,-0.28125 l -2.5625,-6.75 1.23436,0 1.40624,3.89062 q 0.26563,0.75 0.4844,1.5625 0.2031,-0.78125 0.46873,-1.53125 l 1.45313,-3.92187 1.14064,0 -2.5625,6.84375 q -0.4219,1.10937 -0.64064,1.53125 -0.3125,0.5625 -0.70313,0.82812 -0.39063,0.26563 -0.9375,0.26563 -0.32813,0 -0.73437,-0.14063 z"
     id="path56"
     inkscape:connector-curvature="0"
     style="fill:#000000;fill-rule:nonzero" />
  <path
     d="m 603.08131,107.20684 0,0 -5.3298,5.96605 -1.49144,-1.33243 5.32974,-5.96605 z m -9.3271,10.44058 0,0 -5.3298,5.96607 -1.49143,-1.33243 5.32977,-5.96607 z m -9.3271,10.44061 0,0 -5.32976,5.96607 -1.49144,-1.33243 5.32975,-5.96606 z m -9.3271,10.44062 0,0 -5.32975,5.96606 -1.49145,-1.33243 5.32977,-5.96606 z m -9.32707,10.44061 0,0 -5.32977,5.96606 -1.49146,-1.33242 5.3298,-5.96607 z m -9.32708,10.44061 0,0 -5.32975,5.96604 -1.4915,-1.33243 5.3298,-5.96603 z m -9.32709,10.44058 0,0 -5.32976,5.96604 -1.49147,-1.33243 5.32977,-5.96603 z m -9.32706,10.44062 0,0 -0.32205,0.36044 -1.49145,-1.33249 0.322,-0.36044 z"
     id="path58"
     inkscape:connector-curvature="0"
     style="fill:#073763;fill-rule:nonzero" />
  <path
     d="m 534.26037,177.78443 -3.58316,8.96945 8.5103,-4.56778 z"
     id="path60"
     inkscape:connector-curvature="0"
     style="fill:#073763;fill-rule:evenodd;stroke:#073763;stroke-width:2;stroke-linecap:butt" />
  <path
     d="m 562.20331,169.65473 0,-9.3125 1.23437,0 0,8.21875 4.57813,0 0,1.09375 -5.8125,0 z m 7.3281,-7.98438 0,-1.32812 1.14064,0 0,1.32812 -1.14064,0 z m 0,7.98438 0,-6.73438 1.14064,0 0,6.73438 -1.14064,0 z m 2.95314,0 0,-6.73438 1.03126,0 0,0.95313 q 0.73437,-1.10937 2.1406,-1.10937 0.6094,0 1.1172,0.21874 0.5078,0.21876 0.76563,0.57032 0.25781,0.35156 0.35157,0.85156 0.0625,0.3125 0.0625,1.10938 l 0,4.14062 -1.14063,0 0,-4.09375 q 0,-0.70313 -0.13281,-1.04687 -0.13282,-0.34376 -0.46876,-0.55469 -0.33593,-0.21094 -0.78906,-0.21094 -0.73437,0 -1.26564,0.46094 -0.53123,0.46093 -0.53123,1.75781 l 0,3.6875 -1.14063,0 z m 7.40626,0 0,-9.3125 1.1406,0 0,5.3125 2.70314,-2.73438 1.48436,0 -2.5781,2.5 2.84374,4.23438 -1.40624,0 -2.2344,-3.45312 -0.8125,0.78124 0,2.67188 -1.1406,0 z"
     id="path62"
     inkscape:connector-curvature="0"
     style="fill:#000000;fill-rule:nonzero" />
  <path
     d="m 15.276841,106.54063 0,0 c 0,-4.46064 3.935604,-8.076687 8.790424,-8.076687 l 0,0 c 4.85481,0 8.79042,3.616047 8.79042,8.076687 l 0,0 c 0,4.46063 -3.93561,8.07668 -8.79042,8.07668 l 0,0 c -4.85482,0 -8.790424,-3.61605 -8.790424,-8.07668 z"
     id="path64"
     inkscape:connector-curvature="0"
     style="stroke:#073763;stroke-width:2;stroke-linecap:butt;stroke-linejoin:round" />
  <path
     d="m 30.283025,100.82954 34.41612,0"
     id="path66"
     inkscape:connector-curvature="0"
     style="stroke:#073763;stroke-width:2;stroke-linecap:butt;stroke-linejoin:round" />
  <path
     d="m 64.202365,100.75012 c 0,1.68833 -0.34699,5.47902 -1.99018,4.72337 -1.04758,-0.48175 -0.006,-3.22406 -1.16143,-3.04763 -1.5043,0.22966 -1.78667,3.67423 -3.1506,3.04763 -1.06152,-0.48767 -0.53256,-3.23962 -1.65848,-2.89479 -1.26835,0.38846 -0.66133,3.06435 -1.99017,3.19956 -2.23743,0.22764 -3.92208,-2.21994 -6.13686,-2.59003 -1.13165,-0.1891 -1.05387,1.97618 -1.99017,2.59003 -1.60807,1.05427 -3.8719,-2.48747 -5.63881,-1.67575 -2.41537,1.10963 -4.76318,2.8948 -7.46364,2.8948"
     id="path68"
     inkscape:connector-curvature="0"
     style="stroke:#073763;stroke-width:2;stroke-linecap:butt;stroke-linejoin:round" />
  <path
     d="m 35.343885,102.27394 19.90171,0"
     id="path70"
     inkscape:connector-curvature="0"
     style="stroke:#cccccc;stroke-width:1;stroke-linecap:butt;stroke-linejoin:round" />
  <path
     d="m 21.331525,106.54063 0,0 c 0,-1.38823 1.22483,-2.51361 2.73574,-2.51361 l 0,0 c 1.5109,0 2.73573,1.12538 2.73573,2.51361 l 0,0 c 0,1.38822 -1.22483,2.5136 -2.73573,2.5136 l 0,0 c -1.51091,0 -2.73574,-1.12538 -2.73574,-2.5136 z"
     id="path72"
     inkscape:connector-curvature="0"
     style="stroke:#073763;stroke-width:2;stroke-linecap:butt;stroke-linejoin:round" />
  <path
     d="m 22.97213,96.194283 0,-9.3125 1.234375,0 0,4.625 4.625,-4.625 1.65625,0 -3.890625,3.78125 4.0625,5.53125 -1.625,0 -3.3125,-4.70312 -1.515625,1.48437 0,3.21875 -1.234375,0 z m 13.406245,-2.17187 1.1875,0.14062 q -0.28125,1.04688 -1.03906,1.61719 -0.75781,0.57031 -1.929685,0.57031 -1.484375,0 -2.351565,-0.91406 -0.867185,-0.91406 -0.867185,-2.55469 0,-1.70312 0.882815,-2.64062 0.88281,-0.9375 2.273435,-0.9375 1.359375,0 2.210935,0.92187 0.85156,0.92188 0.85156,2.57813 0,0.10937 0,0.3125 l -5.031245,0 q 0.0625,1.10937 0.625,1.70312 0.5625,0.59375 1.40625,0.59375 0.640625,0 1.085935,-0.33594 0.44531,-0.33593 0.69531,-1.05468 z m -3.749995,-1.84375 3.765625,0 q -0.0781,-0.85938 -0.4375,-1.28125 -0.54688,-0.65625 -1.40625,-0.65625 -0.796875,0 -1.328125,0.52343 -0.53125,0.52344 -0.59375,1.41407 z m 6.499995,6.60937 -0.14062,-1.0625 q 0.375,0.0937 0.65625,0.0937 0.39062,0 0.61719,-0.125 0.22656,-0.125 0.36718,-0.35937 0.10938,-0.17188 0.35938,-0.84375 0.0312,-0.0937 0.0937,-0.28125 l -2.5625,-6.75 1.23437,0 1.40625,3.89062 q 0.26563,0.75 0.48438,1.5625 0.20312,-0.78125 0.46875,-1.53125 l 1.45312,-3.92187 1.14063,0 -2.5625,6.84375 q -0.42188,1.10937 -0.64063,1.53125 -0.3125,0.5625 -0.70312,0.82812 -0.39063,0.26563 -0.9375,0.26563 -0.32813,0 -0.73438,-0.14063 z m 6.70313,-2.59375 0,-6.73437 1.03125,0 0,1.01562 q 0.39062,-0.71875 0.72656,-0.94531 0.33594,-0.22656 0.72656,-0.22656 0.57813,0 1.17188,0.35937 l -0.39063,1.0625 q -0.42187,-0.25 -0.82812,-0.25 -0.375,0 -0.67969,0.22656 -0.30469,0.22657 -0.42969,0.63282 -0.1875,0.60937 -0.1875,1.32812 l 0,3.53125 -1.14062,0 z m 4.45312,-7.98437 0,-1.32813 1.14063,0 0,1.32813 -1.14063,0 z m 0,7.98437 0,-6.73437 1.14063,0 0,6.73437 -1.14063,0 z m 2.95313,0 0,-6.73437 1.03125,0 0,0.95312 q 0.73437,-1.10937 2.14062,-1.10937 0.60938,0 1.11719,0.21875 0.50781,0.21875 0.76563,0.57031 0.25781,0.35156 0.35156,0.85156 0.0625,0.3125 0.0625,1.10938 l 0,4.14062 -1.14063,0 0,-4.09375 q 0,-0.70312 -0.13281,-1.04687 -0.13281,-0.34375 -0.46875,-0.55469 -0.33594,-0.21094 -0.78906,-0.21094 -0.73438,0 -1.26563,0.46094 -0.53125,0.46094 -0.53125,1.75781 l 0,3.6875 -1.14062,0 z m 7.20312,0.5625 1.125,0.15625 q 0.0625,0.51563 0.375,0.75 0.4375,0.32813 1.17188,0.32813 0.78126,0 1.21876,-0.32032 0.4375,-0.32031 0.57812,-0.89843 0.0937,-0.34375 0.0937,-1.45313 -0.75,0.875 -1.87501,0.875 -1.39062,0 -2.14843,-1 -0.75782,-1 -0.75782,-2.40625 0,-0.96875 0.35157,-1.78125 0.35156,-0.8125 1.00781,-1.25781 0.65625,-0.44531 1.5625,-0.44531 1.18751,0 1.96876,0.96875 l 0,-0.8125 1.04687,0 0,5.8125 q 0,1.57812 -0.32031,2.23437 -0.32031,0.65625 -1.01562,1.03906 -0.69532,0.38282 -1.71095,0.38282 -1.20313,0 -1.94531,-0.53907 -0.74219,-0.53906 -0.72657,-1.63281 z m 0.95313,-4.04687 q 0,1.3125 0.52344,1.92187 0.52343,0.60938 1.32032,0.60938 0.79687,0 1.32812,-0.60157 0.53125,-0.60156 0.53125,-1.89843 0,-1.23438 -0.54687,-1.86719 -0.54688,-0.63281 -1.32814,-0.63281 -0.76562,0 -1.29687,0.625 -0.53125,0.625 -0.53125,1.84375 z"
     id="path74"
     inkscape:connector-curvature="0"
     style="fill:#000000;fill-rule:nonzero" />
  <path
     d="m 243.46945,106.54063 346.86612,0"
     id="path76"
     inkscape:connector-curvature="0"
     style="stroke:#073763;stroke-width:2;stroke-linecap:butt;stroke-linejoin:round" />
  <path
     d="m 590.33557,109.84409 9.07614,-3.30346 -9.07614,-3.30347 z"
     id="path78"
     inkscape:connector-curvature="0"
     style="fill:#073763;fill-rule:evenodd;stroke:#073763;stroke-width:2;stroke-linecap:butt" />
  <path
     d="m 496.14821,149.59375 0,23.49607"
     id="path80"
     inkscape:connector-curvature="0"
     style="stroke:#073763;stroke-width:2;stroke-linecap:butt;stroke-linejoin:round" />
  <path
     d="m 492.84471,173.08982 3.3035,9.0762 3.30345,-9.0762 z"
     id="path82"
     inkscape:connector-curvature="0"
     style="fill:#073763;fill-rule:evenodd;stroke:#073763;stroke-width:2;stroke-linecap:butt" />
  <path
     d="m 197.13693,237.17876 0,-66.74015"
     id="path84"
     inkscape:connector-curvature="0"
     style="stroke:#073763;stroke-width:2;stroke-linecap:butt;stroke-linejoin:round" />
  <path
     d="m 200.44039,170.43861 -3.30346,-9.07621 -3.30347,9.07621 z"
     id="path86"
     inkscape:connector-curvature="0"
     style="fill:#073763;fill-rule:evenodd;stroke:#073763;stroke-width:2;stroke-linecap:butt" />
  <path
     d="m 458.59971,255.50968 15.9626,0 0,10.13967 -15.9626,0 z"
     id="path88"
     inkscape:connector-curvature="0"
     style="fill:#bf9000;fill-rule:nonzero;stroke:#073763;stroke-width:2;stroke-linecap:butt;stroke-linejoin:round" />
  <path
     d="m 465.46496,259.10462 0,0 c 0,-0.71689 0.57845,-1.29803 1.29185,-1.29803 l 0,0 c 0.3427,0 0.6713,0.13676 0.91353,0.38018 0.24231,0.24344 0.37842,0.57361 0.37842,0.91785 l 0,0 c 0,0.71689 -0.57845,1.29807 -1.29195,1.29807 l 0,0 c -0.7134,0 -1.29185,-0.58118 -1.29185,-1.29807 z"
     id="path90"
     inkscape:connector-curvature="0"
     style="fill:#000000;fill-rule:nonzero;stroke:#000000;stroke-width:2;stroke-linecap:butt;stroke-linejoin:round" />
  <path
     d="m 465.67211,263.05635 1.0269,-4.7172 1.027,4.7172 z"
     id="path92"
     inkscape:connector-curvature="0"
     style="fill:#000000;fill-rule:nonzero;stroke:#000000;stroke-width:2;stroke-linecap:butt;stroke-linejoin:round" />
  <path
     d="m 459.78911,255.48801 0,0 c 0,-5.17273 3.0209,-9.36602 6.74726,-9.36602 3.72638,0 6.74724,4.19329 6.74724,9.36602 l -3.37364,0 c 0,-3.30951 -1.51036,-5.99243 -3.3736,-5.99243 -1.86322,0 -3.37359,2.68292 -3.37359,5.99243 z"
     id="path94"
     inkscape:connector-curvature="0"
     style="fill:#bf9000;fill-rule:nonzero;stroke:#073763;stroke-width:2;stroke-linecap:butt;stroke-linejoin:round" />
  <path
     d="m 608.42901,132.16292 15.963,0 0,10.13853 -15.963,0 z"
     id="path96"
     inkscape:connector-curvature="0"
     style="fill:#bf9000;fill-rule:nonzero;stroke:#073763;stroke-width:2;stroke-linecap:butt;stroke-linejoin:round" />
  <path
     d="m 615.29425,135.75819 0,0 c 0,-0.71704 0.57826,-1.29833 1.29156,-1.29833 l 0,0 c 0.3425,0 0.6711,0.13678 0.9133,0.38027 0.2422,0.24348 0.37827,0.57372 0.37827,0.91806 l 0,0 c 0,0.71705 -0.57827,1.29834 -1.29157,1.29834 l 0,0 c -0.7133,0 -1.29156,-0.58129 -1.29156,-1.29834 z"
     id="path98"
     inkscape:connector-curvature="0"
     style="fill:#000000;fill-rule:nonzero;stroke:#000000;stroke-width:2;stroke-linecap:butt;stroke-linejoin:round" />
  <path
     d="m 615.50131,139.70962 1.027,-4.71721 1.027,4.71721 z"
     id="path100"
     inkscape:connector-curvature="0"
     style="fill:#000000;fill-rule:nonzero;stroke:#000000;stroke-width:2;stroke-linecap:butt;stroke-linejoin:round" />
  <path
     d="m 609.61841,132.14127 0,0 c 0,-5.17271 3.02087,-9.36602 6.74725,-9.36602 3.72635,0 6.74719,4.19331 6.74719,9.36602 l -3.3736,0 c 0,-3.30952 -1.51044,-5.99242 -3.37359,-5.99242 -1.86325,0 -3.3736,2.6829 -3.3736,5.99242 z"
     id="path102"
     inkscape:connector-curvature="0"
     style="fill:#bf9000;fill-rule:nonzero;stroke:#073763;stroke-width:2;stroke-linecap:butt;stroke-linejoin:round" />
  <rect
     style="fill:none;stroke:none"
     id="rect3085"
     width="717.50861"
     height="318.89273"
     x="0"
     y="0" />
</svg>
