<?xml version="1.0" standalone="yes"?>

<svg version="1.1" viewBox="0.0 0.0 960.0 720.0" fill="none" stroke="none" stroke-linecap="square" stroke-miterlimit="10" clip-path="url(#clip0)" xmlns="http://www.w3.org/2000/svg" xmlns:xlink="http://www.w3.org/1999/xlink"><clipPath id="clip0"><path d="M0 0L960.0 0L960.0 720.0L0 720.0L0 0Z" clip-rule="nonzero"></path></clipPath><path d="M545.45953 164.00655L545.45953 164.00655C542.49445 140.32869 552.22955 116.88904 570.53394 103.63391C588.8383 90.378784 612.50183 89.632835 631.4831 101.71261L631.4831 101.71261C638.20685 87.94532 650.5133 78.43995 664.67993 76.0717C678.8466 73.70345 693.20953 78.75048 703.42426 89.68615L703.42426 89.68615C709.15204 77.203835 720.3986 68.81732 733.1731 67.50256C745.94763 66.18781 758.4422 72.1309 766.223 83.2229L766.223 83.2229C776.5711 69.991684 793.0351 64.42079 808.491 68.92078C823.9469 73.42077 835.6187 87.1834 838.4559 104.25351L838.4559 104.25351C851.13403 108.01123 861.69464 117.563866 867.4092 130.4433C873.1238 143.32274 873.4317 158.26555 868.2535 171.411L868.2535 171.411C880.73773 189.06674 883.65814 212.59282 875.9248 233.20972C868.19147 253.8266 850.9663 268.43686 830.67737 271.58817C830.53436 290.93787 820.7683 308.6929 805.14355 318.00974C789.51874 327.32654 770.47504 326.7503 755.3527 316.50308C748.91144 339.6777 730.78125 356.72934 708.7952 360.2911C686.80914 363.85284 664.90857 353.2862 652.55536 333.15634C637.4129 343.0784 619.24316 345.93665 602.14496 341.08627C585.04675 336.2359 570.4603 324.0855 561.676 307.37598L561.676 307.37598C546.20233 309.34357 531.2414 300.63217 524.2183 285.56522C517.1952 270.49826 519.605 252.28314 530.25165 239.95996L530.25165 239.95996C516.4487 231.13222 509.40564 213.61507 512.7951 196.54298C516.1846 179.47092 529.23846 166.71252 545.1498 164.92082Z" fill-rule="nonzero" fill="#cfe2f3" stroke="#073763" stroke-width="2.0" stroke-linejoin="round" stroke-linecap="butt"></path><path d="M530.25555 239.95827L530.25555 239.95827C536.7692 244.12411 544.294 246.01382 551.81964 245.37372M561.6766 307.3758C564.91284 306.96426 568.085 306.09283 571.11127 304.78394M652.55133 333.15506C650.27515 329.44595 648.3694 325.48245 646.8666 321.33206M755.35266 316.50113L755.35266 316.50113C756.527 312.27606 757.28784 307.92755 757.62256 303.52814M830.67444 271.58783C830.8267 250.9871 820.05865 232.12486 802.99554 223.10301M868.2502 171.41283C865.4869 178.42776 861.2684 184.65062 855.9254 189.59348M838.4552 104.25352L838.4552 104.25352C838.926 107.0863 839.1439 109.96167 839.1059 112.83976M766.2236 83.22376L766.2236 83.22376C763.6423 86.52429 761.51556 90.21259 759.9098 94.17382M703.4242 89.68557L703.4242 89.68557C702.0486 92.68342 701.02136 95.85565 700.36615 99.1292M631.482 101.71228L631.482 101.71228C635.4984 104.26835 639.2142 107.34486 642.5476 110.874214M545.45953 164.00655L545.45953 164.00655C545.8682 167.26997 546.5139 170.49316 547.3907 173.64595" fill-rule="nonzero" stroke="#073763" stroke-width="2.0" stroke-linejoin="round" stroke-linecap="butt"></path><path d="M336.1128 26.365984L390.00253 26.365984L390.00253 72.41323L336.1128 72.41323Z" fill-rule="nonzero" stroke="#073763" stroke-width="2.0" stroke-linejoin="round" stroke-linecap="butt"></path><path d="M325.89246 113.67307L336.20743 72.41323L389.98697 72.41323L379.672 113.67307Z" fill-rule="nonzero" stroke="#073763" stroke-width="2.0" stroke-linejoin="round" stroke-linecap="butt"></path><path d="M339.87656 29.578583L386.23877 29.578583L386.23877 69.20063L339.87656 69.20063Z" fill-rule="nonzero" stroke="#073763" stroke-width="2.0" stroke-linejoin="round" stroke-linecap="butt"></path><path d="M340.5834 82.81917L341.50467 79.13413L346.2842 79.13413L345.36295 82.81917Z" fill-rule="nonzero" stroke="#073763" stroke-width="1.0" stroke-linejoin="round" stroke-linecap="butt"></path><path d="M347.46985 82.81917L348.39108 79.13413L353.17062 79.13413L352.24936 82.81917Z" fill-rule="nonzero" stroke="#073763" stroke-width="1.0" stroke-linejoin="round" stroke-linecap="butt"></path><path d="M354.5105 82.81917L355.43176 79.13413L360.21127 79.13413L359.29004 82.81917Z" fill-rule="nonzero" stroke="#073763" stroke-width="1.0" stroke-linejoin="round" stroke-linecap="butt"></path><path d="M361.54553 82.81917L362.4668 79.13413L367.24634 79.13413L366.32507 82.81917Z" fill-rule="nonzero" stroke="#073763" stroke-width="1.0" stroke-linejoin="round" stroke-linecap="butt"></path><path d="M368.43198 82.81917L369.3532 79.13413L374.13275 79.13413L373.2115 82.81917Z" fill-rule="nonzero" stroke="#073763" stroke-width="1.0" stroke-linejoin="round" stroke-linecap="butt"></path><path d="M375.47266 82.81917L376.3939 79.13413L381.17343 79.13413L380.25217 82.81917Z" fill-rule="nonzero" stroke="#073763" stroke-width="1.0" stroke-linejoin="round" stroke-linecap="butt"></path><path d="M338.98453 88.26098L339.9058 84.575935L344.68533 84.575935L343.76407 88.26098Z" fill-rule="nonzero" stroke="#073763" stroke-width="1.0" stroke-linejoin="round" stroke-linecap="butt"></path><path d="M345.87097 88.26098L346.7922 84.575935L351.57175 84.575935L350.65048 88.26098Z" fill-rule="nonzero" stroke="#073763" stroke-width="1.0" stroke-linejoin="round" stroke-linecap="butt"></path><path d="M352.91165 88.26098L353.83292 84.575935L358.61243 84.575935L357.69116 88.26098Z" fill-rule="nonzero" stroke="#073763" stroke-width="1.0" stroke-linejoin="round" stroke-linecap="butt"></path><path d="M359.9467 88.26098L360.86795 84.575935L365.64746 84.575935L364.72623 88.26098Z" fill-rule="nonzero" stroke="#073763" stroke-width="1.0" stroke-linejoin="round" stroke-linecap="butt"></path><path d="M366.8331 88.26098L367.75433 84.575935L372.53387 84.575935L371.6126 88.26098Z" fill-rule="nonzero" stroke="#073763" stroke-width="1.0" stroke-linejoin="round" stroke-linecap="butt"></path><path d="M373.87378 88.26098L374.79504 84.575935L379.57455 84.575935L378.6533 88.26098Z" fill-rule="nonzero" stroke="#073763" stroke-width="1.0" stroke-linejoin="round" stroke-linecap="butt"></path><path d="M337.38565 94.18242L338.30692 90.49738L343.08646 90.49738L342.1652 94.18242Z" fill-rule="nonzero" stroke="#073763" stroke-width="1.0" stroke-linejoin="round" stroke-linecap="butt"></path><path d="M344.2721 94.18242L345.19333 90.49738L349.97287 90.49738L349.0516 94.18242Z" fill-rule="nonzero" stroke="#073763" stroke-width="1.0" stroke-linejoin="round" stroke-linecap="butt"></path><path d="M351.31277 94.18242L352.23404 90.49738L357.01355 90.49738L356.0923 94.18242Z" fill-rule="nonzero" stroke="#073763" stroke-width="1.0" stroke-linejoin="round" stroke-linecap="butt"></path><path d="M358.3478 94.18242L359.26907 90.49738L364.04858 90.49738L363.12735 94.18242Z" fill-rule="nonzero" stroke="#073763" stroke-width="1.0" stroke-linejoin="round" stroke-linecap="butt"></path><path d="M365.23422 94.18242L366.1555 90.49738L370.93503 90.49738L370.01376 94.18242Z" fill-rule="nonzero" stroke="#073763" stroke-width="1.0" stroke-linejoin="round" stroke-linecap="butt"></path><path d="M372.2749 94.18242L373.19617 90.49738L377.97568 90.49738L377.0544 94.18242Z" fill-rule="nonzero" stroke="#073763" stroke-width="1.0" stroke-linejoin="round" stroke-linecap="butt"></path><path d="M335.78677 99.62423L336.70804 95.939186L341.48758 95.939186L340.5663 99.62423Z" fill-rule="nonzero" stroke="#073763" stroke-width="1.0" stroke-linejoin="round" stroke-linecap="butt"></path><path d="M342.67322 99.62423L343.59445 95.939186L348.374 95.939186L347.45273 99.62423Z" fill-rule="nonzero" stroke="#073763" stroke-width="1.0" stroke-linejoin="round" stroke-linecap="butt"></path><path d="M349.7139 99.62423L350.63516 95.939186L355.41467 95.939186L354.4934 99.62423Z" fill-rule="nonzero" stroke="#073763" stroke-width="1.0" stroke-linejoin="round" stroke-linecap="butt"></path><path d="M356.74893 99.62423L357.6702 95.939186L362.4497 95.939186L361.52847 99.62423Z" fill-rule="nonzero" stroke="#073763" stroke-width="1.0" stroke-linejoin="round" stroke-linecap="butt"></path><path d="M363.63535 99.62423L364.5566 95.939186L369.33615 95.939186L368.4149 99.62423Z" fill-rule="nonzero" stroke="#073763" stroke-width="1.0" stroke-linejoin="round" stroke-linecap="butt"></path><path d="M370.67603 99.62423L371.5973 95.939186L376.3768 95.939186L375.45554 99.62423Z" fill-rule="nonzero" stroke="#073763" stroke-width="1.0" stroke-linejoin="round" stroke-linecap="butt"></path><path d="M344.74048 110.58666L346.80347 102.334694L362.78772 102.334694L360.72473 110.58666Z" fill-rule="nonzero" stroke="#073763" stroke-width="1.0" stroke-linejoin="round" stroke-linecap="butt"></path><path d="M319.38583 259.28348L356.3071 259.28348L356.3071 335.19684L319.38583 335.19684Z" fill-rule="nonzero" fill="#ffffff"></path><path d="M356.3071 259.28348L368.61417 246.97638L368.61417 322.88977L356.3071 335.19684Z" fill-rule="nonzero" fill="#cccccc"></path><path d="M319.38583 259.28348L331.6929 246.97638L368.61417 246.97638L356.3071 259.28348Z" fill-rule="nonzero" fill="#ffffff"></path><path d="M319.38583 259.28348L331.6929 246.97638L368.61417 246.97638L368.61417 322.88977L356.3071 335.19684L319.38583 335.19684ZM319.38583 259.28348L356.3071 259.28348L368.61417 246.97638M356.3071 259.28348L356.3071 335.19684" fill-rule="nonzero" stroke="#073763" stroke-width="2.0" stroke-linejoin="round" stroke-linecap="butt"></path><path d="M325.25104 312.5748L348.84158 312.5748" fill-rule="nonzero" stroke="#073763" stroke-width="1.0" stroke-linejoin="round" stroke-linecap="butt"></path><path d="M325.25104 317.8513L348.84158 317.8513" fill-rule="nonzero" stroke="#073763" stroke-width="1.0" stroke-linejoin="round" stroke-linecap="butt"></path><path d="M325.25104 323.46457L348.84158 323.46457" fill-rule="nonzero" stroke="#073763" stroke-width="1.0" stroke-linejoin="round" stroke-linecap="butt"></path><path d="M334.0297 301.41733L334.0297 301.41733C334.0297 300.1214 335.08026 299.07086 336.37616 299.07086L336.37616 299.07086C336.99847 299.07086 337.5953 299.31808 338.03534 299.75812C338.4754 300.19818 338.72263 300.795 338.72263 301.41733L338.72263 301.41733C338.72263 302.71323 337.67206 303.7638 336.37616 303.7638L336.37616 303.7638C335.08026 303.7638 334.0297 302.71323 334.0297 301.41733Z" fill-rule="nonzero" stroke="#073763" stroke-width="2.0" stroke-linejoin="round" stroke-linecap="butt"></path><path d="M325.25104 277.8942L348.84158 277.8942" fill-rule="nonzero" stroke="#073763" stroke-width="2.0" stroke-linejoin="round" stroke-linecap="butt"></path><path d="M325.2957 270.73065L333.9256 270.73065" fill-rule="nonzero" stroke="#073763" stroke-width="2.0" stroke-linejoin="round" stroke-linecap="butt"></path><path d="M340.2904 270.73065L348.92032 270.73065" fill-rule="nonzero" stroke="#073763" stroke-width="2.0" stroke-linejoin="round" stroke-linecap="butt"></path><path d="M363.4884 259.28348L400.40964 259.28348L400.40964 335.19684L363.4884 335.19684Z" fill-rule="nonzero" fill="#ffffff"></path><path d="M400.40964 259.28348L412.71674 246.97638L412.71674 322.88977L400.40964 335.19684Z" fill-rule="nonzero" fill="#cccccc"></path><path d="M363.4884 259.28348L375.79547 246.97638L412.71674 246.97638L400.40964 259.28348Z" fill-rule="nonzero" fill="#ffffff"></path><path d="M363.4884 259.28348L375.79547 246.97638L412.71674 246.97638L412.71674 322.88977L400.40964 335.19684L363.4884 335.19684ZM363.4884 259.28348L400.40964 259.28348L412.71674 246.97638M400.40964 259.28348L400.40964 335.19684" fill-rule="nonzero" stroke="#073763" stroke-width="2.0" stroke-linejoin="round" stroke-linecap="butt"></path><path d="M369.3536 312.5748L392.94415 312.5748" fill-rule="nonzero" stroke="#073763" stroke-width="1.0" stroke-linejoin="round" stroke-linecap="butt"></path><path d="M369.3536 317.8513L392.94415 317.8513" fill-rule="nonzero" stroke="#073763" stroke-width="1.0" stroke-linejoin="round" stroke-linecap="butt"></path><path d="M369.3536 323.46457L392.94415 323.46457" fill-rule="nonzero" stroke="#073763" stroke-width="1.0" stroke-linejoin="round" stroke-linecap="butt"></path><path d="M378.13226 301.41733L378.13226 301.41733C378.13226 300.1214 379.1828 299.07086 380.47873 299.07086L380.47873 299.07086C381.10104 299.07086 381.69788 299.31808 382.1379 299.75812C382.57797 300.19818 382.82516 300.795 382.82516 301.41733L382.82516 301.41733C382.82516 302.71323 381.77463 303.7638 380.47873 303.7638L380.47873 303.7638C379.1828 303.7638 378.13226 302.71323 378.13226 301.41733Z" fill-rule="nonzero" stroke="#073763" stroke-width="2.0" stroke-linejoin="round" stroke-linecap="butt"></path><path d="M369.3536 277.8942L392.94415 277.8942" fill-rule="nonzero" stroke="#073763" stroke-width="2.0" stroke-linejoin="round" stroke-linecap="butt"></path><path d="M369.39825 270.73065L378.02817 270.73065" fill-rule="nonzero" stroke="#073763" stroke-width="2.0" stroke-linejoin="round" stroke-linecap="butt"></path><path d="M384.39297 270.73065L393.0229 270.73065" fill-rule="nonzero" stroke="#073763" stroke-width="2.0" stroke-linejoin="round" stroke-linecap="butt"></path><path d="M556.9239 128.20473L817.4278 128.20473L817.4278 295.38583L556.9239 295.38583Z" fill-rule="nonzero" fill="#ffffff" stroke="#073763" stroke-width="2.0" stroke-linejoin="round" stroke-linecap="butt"></path><path d="M556.9239 128.20473L817.4278 128.20473L817.4278 172.29921L556.9239 172.29921Z" fill-rule="nonzero" fill="#ffffff" stroke="#073763" stroke-width="2.0" stroke-linejoin="round" stroke-linecap="butt"></path><path d="M631.002 152.3766L632.6895 152.23598Q632.8145 153.2516 633.252 153.90785Q633.6895 154.5641 634.6192 154.97035Q635.5489 155.3766 636.70514 155.3766Q637.7364 155.3766 638.52545 155.0641Q639.3145 154.7516 639.70514 154.22035Q640.09576 153.6891 640.09576 153.0641Q640.09576 152.42348 639.72076 151.94691Q639.34576 151.47035 638.4864 151.14223Q637.9395 150.92348 636.0645 150.47816Q634.1895 150.03285 633.4395 149.6266Q632.47076 149.11098 631.9942 148.36098Q631.51764 147.61098 631.51764 146.67348Q631.51764 145.64223 632.1036 144.74379Q632.6895 143.84535 633.8067 143.38441Q634.9239 142.92348 636.2989 142.92348Q637.8145 142.92348 638.97076 143.40785Q640.127 143.89223 640.7442 144.83754Q641.3614 145.78285 641.40826 146.98598L639.6895 147.11098Q639.5489 145.82973 638.7442 145.16566Q637.9395 144.5016 636.377 144.5016Q634.752 144.5016 634.002 145.10316Q633.252 145.70473 633.252 146.54848Q633.252 147.28285 633.78326 147.7516Q634.2989 148.22035 636.4942 148.72035Q638.6895 149.22035 639.502 149.59535Q640.6895 150.14223 641.2598 150.97816Q641.83014 151.8141 641.83014 152.90785Q641.83014 154.0016 641.20514 154.96254Q640.58014 155.92348 639.4161 156.45473Q638.252 156.98598 636.7989 156.98598Q634.95514 156.98598 633.70514 156.44691Q632.45514 155.90785 631.7442 154.82973Q631.03326 153.7516 631.002 152.3766ZM650.58014 153.57973L652.2989 153.79848Q651.89264 155.29848 650.7911 156.13441Q649.6895 156.97035 647.97076 156.97035Q645.8145 156.97035 644.5489 155.64223Q643.28326 154.3141 643.28326 151.90785Q643.28326 149.42348 644.5567 148.04848Q645.83014 146.67348 647.877 146.67348Q649.8614 146.67348 651.1114 148.01723Q652.3614 149.36098 652.3614 151.8141Q652.3614 151.95473 652.34576 152.2516L645.002 152.2516Q645.09576 153.8766 645.9239 154.73598Q646.752 155.59535 647.9864 155.59535Q648.89264 155.59535 649.5411 155.11879Q650.1895 154.64223 650.58014 153.57973ZM645.09576 150.8766L650.59576 150.8766Q650.4864 149.64223 649.97076 149.01723Q649.1739 148.04848 647.89264 148.04848Q646.752 148.04848 645.96295 148.82191Q645.1739 149.59535 645.09576 150.8766ZM654.1895 156.7516L654.1895 146.89223L655.6895 146.89223L655.6895 148.39223Q656.26764 147.34535 656.752 147.00941Q657.2364 146.67348 657.83014 146.67348Q658.6739 146.67348 659.5489 147.22035L658.97076 148.76723Q658.3614 148.40785 657.7364 148.40785Q657.1895 148.40785 656.7598 148.73598Q656.33014 149.0641 656.14264 149.64223Q655.8614 150.53285 655.8614 151.59535L655.8614 156.7516L654.1895 156.7516ZM663.15826 156.7516L659.40826 146.89223L661.1739 146.89223L663.2989 152.79848Q663.64264 153.7516 663.9239 154.78285Q664.14264 154.0016 664.5489 152.90785L666.7364 146.89223L668.45514 146.89223L664.72076 156.7516L663.15826 156.7516ZM669.76764 145.0641L669.76764 143.15785L671.4395 143.15785L671.4395 145.0641L669.76764 145.0641ZM669.76764 156.7516L669.76764 146.89223L671.4395 146.89223L671.4395 156.7516L669.76764 156.7516ZM680.33014 153.14223L681.97076 153.36098Q681.70514 155.04848 680.59576 156.00941Q679.4864 156.97035 677.8614 156.97035Q675.84576 156.97035 674.6192 155.65004Q673.39264 154.32973 673.39264 151.86098Q673.39264 150.26723 673.9161 149.07191Q674.4395 147.8766 675.52545 147.27504Q676.6114 146.67348 677.877 146.67348Q679.4864 146.67348 680.502 147.48598Q681.51764 148.29848 681.8145 149.79848L680.1895 150.04848Q679.95514 149.04848 679.3614 148.54848Q678.76764 148.04848 677.9395 148.04848Q676.6739 148.04848 675.8848 148.95473Q675.09576 149.86098 675.09576 151.8141Q675.09576 153.79848 675.8614 154.69691Q676.627 155.59535 677.84576 155.59535Q678.83014 155.59535 679.4864 154.99379Q680.14264 154.39223 680.33014 153.14223ZM689.97076 153.57973L691.6895 153.79848Q691.28326 155.29848 690.1817 156.13441Q689.08014 156.97035 687.3614 156.97035Q685.20514 156.97035 683.9395 155.64223Q682.6739 154.3141 682.6739 151.90785Q682.6739 149.42348 683.9473 148.04848Q685.22076 146.67348 687.26764 146.67348Q689.252 146.67348 690.502 148.01723Q691.752 149.36098 691.752 151.8141Q691.752 151.95473 691.7364 152.2516L684.39264 152.2516Q684.4864 153.8766 685.3145 154.73598Q686.14264 155.59535 687.377 155.59535Q688.28326 155.59535 688.9317 155.11879Q689.58014 154.64223 689.97076 153.57973ZM684.4864 150.8766L689.9864 150.8766Q689.877 149.64223 689.3614 149.01723Q688.5645 148.04848 687.28326 148.04848Q686.14264 148.04848 685.3536 148.82191Q684.5645 149.59535 684.4864 150.8766ZM698.9239 156.7516L698.9239 143.15785L700.72076 143.15785L700.72076 155.14223L707.4239 155.14223L707.4239 156.7516L698.9239 156.7516ZM715.59576 155.53285Q714.65826 156.32973 713.7989 156.65004Q712.9395 156.97035 711.95514 156.97035Q710.34576 156.97035 709.47076 156.18129Q708.59576 155.39223 708.59576 154.15785Q708.59576 153.42348 708.9239 152.82973Q709.252 152.23598 709.78326 151.8766Q710.3145 151.51723 710.9864 151.32973Q711.4864 151.1891 712.47076 151.07973Q714.502 150.82973 715.45514 150.5016Q715.45514 150.15785 715.45514 150.0641Q715.45514 149.04848 714.9864 148.6266Q714.34576 148.0641 713.08014 148.0641Q711.90826 148.0641 711.34576 148.47035Q710.78326 148.8766 710.51764 149.9391L708.877 149.70473Q709.1114 148.65785 709.6192 148.01723Q710.127 147.3766 711.08795 147.02504Q712.0489 146.67348 713.33014 146.67348Q714.59576 146.67348 715.377 146.97035Q716.15826 147.26723 716.53326 147.72035Q716.90826 148.17348 717.0489 148.86098Q717.14264 149.28285 717.14264 150.39223L717.14264 152.6266Q717.14264 154.95473 717.2442 155.57191Q717.34576 156.1891 717.6739 156.7516L715.9239 156.7516Q715.65826 156.23598 715.59576 155.53285ZM715.45514 151.8141Q714.5489 152.17348 712.72076 152.4391Q711.6895 152.57973 711.26764 152.76723Q710.84576 152.95473 710.6114 153.3141Q710.377 153.67348 710.377 154.11098Q710.377 154.78285 710.8848 155.22816Q711.39264 155.67348 712.3614 155.67348Q713.33014 155.67348 714.08014 155.24379Q714.83014 154.8141 715.1895 154.09535Q715.45514 153.51723 715.45514 152.42348L715.45514 151.8141ZM719.45514 160.54848L719.28326 158.98598Q719.83014 159.1266 720.2364 159.1266Q720.78326 159.1266 721.1192 158.9391Q721.45514 158.7516 721.6739 158.42348Q721.83014 158.17348 722.1739 157.17348Q722.22076 157.03285 722.33014 156.76723L718.59576 146.89223L720.39264 146.89223L722.4395 152.61098Q722.84576 153.6891 723.15826 154.89223Q723.4395 153.73598 723.84576 152.64223L725.9395 146.89223L727.6114 146.89223L723.8614 156.92348Q723.26764 158.54848 722.9239 159.15785Q722.4864 159.98598 721.90826 160.36879Q721.33014 160.7516 720.53326 160.7516Q720.0489 160.7516 719.45514 160.54848ZM735.6114 153.57973L737.33014 153.79848Q736.9239 155.29848 735.8223 156.13441Q734.72076 156.97035 733.002 156.97035Q730.84576 156.97035 729.58014 155.64223Q728.3145 154.3141 728.3145 151.90785Q728.3145 149.42348 729.58795 148.04848Q730.8614 146.67348 732.90826 146.67348Q734.89264 146.67348 736.14264 148.01723Q737.39264 149.36098 737.39264 151.8141Q737.39264 151.95473 737.377 152.2516L730.03326 152.2516Q730.127 153.8766 730.95514 154.73598Q731.78326 155.59535 733.01764 155.59535Q733.9239 155.59535 734.5723 155.11879Q735.22076 154.64223 735.6114 153.57973ZM730.127 150.8766L735.627 150.8766Q735.51764 149.64223 735.002 149.01723Q734.20514 148.04848 732.9239 148.04848Q731.78326 148.04848 730.9942 148.82191Q730.20514 149.59535 730.127 150.8766ZM739.22076 156.7516L739.22076 146.89223L740.72076 146.89223L740.72076 148.39223Q741.2989 147.34535 741.78326 147.00941Q742.26764 146.67348 742.8614 146.67348Q743.70514 146.67348 744.58014 147.22035L744.002 148.76723Q743.39264 148.40785 742.76764 148.40785Q742.22076 148.40785 741.7911 148.73598Q741.3614 149.0641 741.1739 149.64223Q740.89264 150.53285 740.89264 151.59535L740.89264 156.7516L739.22076 156.7516Z" fill-rule="nonzero" fill="#000000"></path><path d="M556.9239 172.10216L817.4278 172.10216L817.4278 216.19666L556.9239 216.19666Z" fill-rule="nonzero" fill="#ffffff" stroke="#073763" stroke-width="2.0" stroke-linejoin="round" stroke-linecap="butt"></path><path d="M613.20514 200.64903L607.9239 187.05528L609.877 187.05528L613.40826 196.93028Q613.84576 198.11778 614.127 199.14903Q614.4395 198.03966 614.8614 196.93028L618.53326 187.05528L620.377 187.05528L615.0489 200.64903L613.20514 200.64903ZM621.5489 188.96153L621.5489 187.05528L623.22076 187.05528L623.22076 188.96153L621.5489 188.96153ZM621.5489 200.64903L621.5489 190.78966L623.22076 190.78966L623.22076 200.64903L621.5489 200.64903ZM625.65826 200.64903L625.65826 190.78966L627.15826 190.78966L627.15826 192.28966Q627.7364 191.24278 628.22076 190.90685Q628.70514 190.5709 629.2989 190.5709Q630.14264 190.5709 631.01764 191.11778L630.4395 192.66466Q629.83014 192.30528 629.20514 192.30528Q628.65826 192.30528 628.2286 192.6334Q627.7989 192.96153 627.6114 193.53966Q627.33014 194.43028 627.33014 195.49278L627.33014 200.64903L625.65826 200.64903ZM635.5489 199.14903L635.78326 200.6334Q635.08014 200.77403 634.51764 200.77403Q633.6114 200.77403 633.1114 200.48497Q632.6114 200.1959 632.40826 199.73497Q632.20514 199.27403 632.20514 197.7584L632.20514 192.10216L630.97076 192.10216L630.97076 190.78966L632.20514 190.78966L632.20514 188.35216L633.8614 187.35216L633.8614 190.78966L635.5489 190.78966L635.5489 192.10216L633.8614 192.10216L633.8614 197.85216Q633.8614 198.5709 633.9473 198.77403Q634.03326 198.97716 634.2364 199.10216Q634.4395 199.22716 634.8145 199.22716Q635.08014 199.22716 635.5489 199.14903ZM643.53326 200.64903L643.53326 199.1959Q642.39264 200.86778 640.40826 200.86778Q639.5489 200.86778 638.7911 200.53185Q638.03326 200.1959 637.6661 199.6959Q637.2989 199.1959 637.14264 198.46153Q637.0489 197.96153 637.0489 196.89903L637.0489 190.78966L638.72076 190.78966L638.72076 196.2584Q638.72076 197.5709 638.8145 198.02403Q638.97076 198.68028 639.4864 199.05528Q640.002 199.43028 640.752 199.43028Q641.502 199.43028 642.15826 199.04747Q642.8145 198.66466 643.08795 198.0006Q643.3614 197.33653 643.3614 196.0709L643.3614 190.78966L645.03326 190.78966L645.03326 200.64903L643.53326 200.64903ZM653.89264 199.43028Q652.95514 200.22716 652.09576 200.54747Q651.2364 200.86778 650.252 200.86778Q648.64264 200.86778 647.76764 200.07872Q646.89264 199.28966 646.89264 198.05528Q646.89264 197.3209 647.22076 196.72716Q647.5489 196.1334 648.08014 195.77403Q648.6114 195.41466 649.28326 195.22716Q649.78326 195.08653 650.76764 194.97716Q652.7989 194.72716 653.752 194.39903Q653.752 194.05528 653.752 193.96153Q653.752 192.9459 653.28326 192.52403Q652.64264 191.96153 651.377 191.96153Q650.20514 191.96153 649.64264 192.36778Q649.08014 192.77403 648.8145 193.83653L647.1739 193.60216Q647.40826 192.55528 647.9161 191.91466Q648.4239 191.27403 649.3848 190.92247Q650.34576 190.5709 651.627 190.5709Q652.89264 190.5709 653.6739 190.86778Q654.45514 191.16466 654.83014 191.61778Q655.20514 192.0709 655.34576 192.7584Q655.4395 193.18028 655.4395 194.28966L655.4395 196.52403Q655.4395 198.85216 655.5411 199.46935Q655.64264 200.08653 655.97076 200.64903L654.22076 200.64903Q653.95514 200.1334 653.89264 199.43028ZM653.752 195.71153Q652.84576 196.0709 651.01764 196.33653Q649.9864 196.47716 649.5645 196.66466Q649.14264 196.85216 648.90826 197.21153Q648.6739 197.5709 648.6739 198.0084Q648.6739 198.68028 649.1817 199.1256Q649.6895 199.5709 650.65826 199.5709Q651.627 199.5709 652.377 199.14122Q653.127 198.71153 653.4864 197.99278Q653.752 197.41466 653.752 196.3209L653.752 195.71153ZM657.7989 200.64903L657.7989 187.05528L659.47076 187.05528L659.47076 200.64903L657.7989 200.64903ZM661.9864 188.96153L661.9864 187.05528L663.65826 187.05528L663.65826 188.96153L661.9864 188.96153ZM661.9864 200.64903L661.9864 190.78966L663.65826 190.78966L663.65826 200.64903L661.9864 200.64903ZM665.2364 200.64903L665.2364 199.28966L671.502 192.10216Q670.4395 192.14903 669.627 192.14903L665.6114 192.14903L665.6114 190.78966L673.65826 190.78966L673.65826 191.89903L668.3145 198.14903L667.2989 199.28966Q668.40826 199.21153 669.39264 199.21153L673.95514 199.21153L673.95514 200.64903L665.2364 200.64903ZM681.877 199.43028Q680.9395 200.22716 680.08014 200.54747Q679.22076 200.86778 678.2364 200.86778Q676.627 200.86778 675.752 200.07872Q674.877 199.28966 674.877 198.05528Q674.877 197.3209 675.20514 196.72716Q675.53326 196.1334 676.0645 195.77403Q676.59576 195.41466 677.26764 195.22716Q677.76764 195.08653 678.752 194.97716Q680.78326 194.72716 681.7364 194.39903Q681.7364 194.05528 681.7364 193.96153Q681.7364 192.9459 681.26764 192.52403Q680.627 191.96153 679.3614 191.96153Q678.1895 191.96153 677.627 192.36778Q677.0645 192.77403 676.7989 193.83653L675.15826 193.60216Q675.39264 192.55528 675.90045 191.91466Q676.40826 191.27403 677.3692 190.92247Q678.33014 190.5709 679.6114 190.5709Q680.877 190.5709 681.65826 190.86778Q682.4395 191.16466 682.8145 191.61778Q683.1895 192.0709 683.33014 192.7584Q683.4239 193.18028 683.4239 194.28966L683.4239 196.52403Q683.4239 198.85216 683.52545 199.46935Q683.627 200.08653 683.95514 200.64903L682.20514 200.64903Q681.9395 200.1334 681.877 199.43028ZM681.7364 195.71153Q680.83014 196.0709 679.002 196.33653Q677.97076 196.47716 677.5489 196.66466Q677.127 196.85216 676.89264 197.21153Q676.65826 197.5709 676.65826 198.0084Q676.65826 198.68028 677.1661 199.1256Q677.6739 199.5709 678.64264 199.5709Q679.6114 199.5709 680.3614 199.14122Q681.1114 198.71153 681.47076 197.99278Q681.7364 197.41466 681.7364 196.3209L681.7364 195.71153ZM689.47076 199.14903L689.70514 200.6334Q689.002 200.77403 688.4395 200.77403Q687.53326 200.77403 687.03326 200.48497Q686.53326 200.1959 686.33014 199.73497Q686.127 199.27403 686.127 197.7584L686.127 192.10216L684.89264 192.10216L684.89264 190.78966L686.127 190.78966L686.127 188.35216L687.78326 187.35216L687.78326 190.78966L689.47076 190.78966L689.47076 192.10216L687.78326 192.10216L687.78326 197.85216Q687.78326 198.5709 687.8692 198.77403Q687.95514 198.97716 688.15826 199.10216Q688.3614 199.22716 688.7364 199.22716Q689.002 199.22716 689.47076 199.14903ZM691.01764 188.96153L691.01764 187.05528L692.6895 187.05528L692.6895 188.96153L691.01764 188.96153ZM691.01764 200.64903L691.01764 190.78966L692.6895 190.78966L692.6895 200.64903L691.01764 200.64903ZM694.51764 195.72716Q694.51764 192.99278 696.0489 191.66466Q697.3145 190.5709 699.14264 190.5709Q701.1739 190.5709 702.46295 191.90685Q703.752 193.24278 703.752 195.58653Q703.752 197.49278 703.1817 198.57872Q702.6114 199.66466 701.52545 200.26622Q700.4395 200.86778 699.14264 200.86778Q697.08014 200.86778 695.7989 199.53966Q694.51764 198.21153 694.51764 195.72716ZM696.2364 195.72716Q696.2364 197.61778 697.0645 198.55528Q697.89264 199.49278 699.14264 199.49278Q700.39264 199.49278 701.21295 198.54747Q702.03326 197.60216 702.03326 195.66466Q702.03326 193.83653 701.20514 192.89903Q700.377 191.96153 699.14264 191.96153Q697.89264 191.96153 697.0645 192.89903Q696.2364 193.83653 696.2364 195.72716ZM705.51764 200.64903L705.51764 190.78966L707.01764 190.78966L707.01764 192.1959Q708.1114 190.5709 710.15826 190.5709Q711.0489 190.5709 711.7989 190.89122Q712.5489 191.21153 712.9161 191.73497Q713.28326 192.2584 713.4395 192.96153Q713.53326 193.43028 713.53326 194.58653L713.53326 200.64903L711.8614 200.64903L711.8614 194.64903Q711.8614 193.6334 711.6661 193.1256Q711.47076 192.61778 710.97076 192.3209Q710.47076 192.02403 709.7989 192.02403Q708.7364 192.02403 707.96295 192.6959Q707.1895 193.36778 707.1895 195.27403L707.1895 200.64903L705.51764 200.64903ZM721.22076 200.64903L721.22076 187.05528L723.01764 187.05528L723.01764 199.03966L729.72076 199.03966L729.72076 200.64903L721.22076 200.64903ZM737.89264 199.43028Q736.95514 200.22716 736.09576 200.54747Q735.2364 200.86778 734.252 200.86778Q732.64264 200.86778 731.76764 200.07872Q730.89264 199.28966 730.89264 198.05528Q730.89264 197.3209 731.22076 196.72716Q731.5489 196.1334 732.08014 195.77403Q732.6114 195.41466 733.28326 195.22716Q733.78326 195.08653 734.76764 194.97716Q736.7989 194.72716 737.752 194.39903Q737.752 194.05528 737.752 193.96153Q737.752 192.9459 737.28326 192.52403Q736.64264 191.96153 735.377 191.96153Q734.20514 191.96153 733.64264 192.36778Q733.08014 192.77403 732.8145 193.83653L731.1739 193.60216Q731.40826 192.55528 731.9161 191.91466Q732.4239 191.27403 733.3848 190.92247Q734.34576 190.5709 735.627 190.5709Q736.89264 190.5709 737.6739 190.86778Q738.45514 191.16466 738.83014 191.61778Q739.20514 192.0709 739.34576 192.7584Q739.4395 193.18028 739.4395 194.28966L739.4395 196.52403Q739.4395 198.85216 739.5411 199.46935Q739.64264 200.08653 739.97076 200.64903L738.22076 200.64903Q737.95514 200.1334 737.89264 199.43028ZM737.752 195.71153Q736.84576 196.0709 735.01764 196.33653Q733.9864 196.47716 733.5645 196.66466Q733.14264 196.85216 732.90826 197.21153Q732.6739 197.5709 732.6739 198.0084Q732.6739 198.68028 733.1817 199.1256Q733.6895 199.5709 734.65826 199.5709Q735.627 199.5709 736.377 199.14122Q737.127 198.71153 737.4864 197.99278Q737.752 197.41466 737.752 196.3209L737.752 195.71153ZM741.752 204.4459L741.58014 202.8834Q742.127 203.02403 742.53326 203.02403Q743.08014 203.02403 743.4161 202.83653Q743.752 202.64903 743.97076 202.3209Q744.127 202.0709 744.47076 201.0709Q744.51764 200.93028 744.627 200.66466L740.89264 190.78966L742.6895 190.78966L744.7364 196.5084Q745.14264 197.58653 745.45514 198.78966Q745.7364 197.6334 746.14264 196.53966L748.2364 190.78966L749.90826 190.78966L746.15826 200.8209Q745.5645 202.4459 745.22076 203.05528Q744.78326 203.8834 744.20514 204.26622Q743.627 204.64903 742.83014 204.64903Q742.34576 204.64903 741.752 204.4459ZM757.90826 197.47716L759.627 197.6959Q759.22076 199.1959 758.1192 200.03185Q757.01764 200.86778 755.2989 200.86778Q753.14264 200.86778 751.877 199.53966Q750.6114 198.21153 750.6114 195.80528Q750.6114 193.3209 751.8848 191.9459Q753.15826 190.5709 755.20514 190.5709Q757.1895 190.5709 758.4395 191.91466Q759.6895 193.2584 759.6895 195.71153Q759.6895 195.85216 759.6739 196.14903L752.33014 196.14903Q752.4239 197.77403 753.252 198.6334Q754.08014 199.49278 755.3145 199.49278Q756.22076 199.49278 756.8692 199.01622Q757.51764 198.53966 757.90826 197.47716ZM752.4239 194.77403L757.9239 194.77403Q757.8145 193.53966 757.2989 192.91466Q756.502 191.9459 755.22076 191.9459Q754.08014 191.9459 753.2911 192.71935Q752.502 193.49278 752.4239 194.77403ZM761.51764 200.64903L761.51764 190.78966L763.01764 190.78966L763.01764 192.28966Q763.59576 191.24278 764.08014 190.90685Q764.5645 190.5709 765.15826 190.5709Q766.002 190.5709 766.877 191.11778L766.2989 192.66466Q765.6895 192.30528 765.0645 192.30528Q764.51764 192.30528 764.08795 192.6334Q763.65826 192.96153 763.47076 193.53966Q763.1895 194.43028 763.1895 195.49278L763.1895 200.64903L761.51764 200.64903Z" fill-rule="nonzero" fill="#000000"></path><path d="M624.8972 239.42267L624.8972 225.82892L626.7097 225.82892L626.7097 231.40704L633.7722 231.40704L633.7722 225.82892L635.5691 225.82892L635.5691 239.42267L633.7722 239.42267L633.7722 233.01642L626.7097 233.01642L626.7097 239.42267L624.8972 239.42267ZM644.53784 238.20392Q643.60034 239.0008 642.74097 239.3211Q641.8816 239.64142 640.8972 239.64142Q639.28784 239.64142 638.41284 238.85236Q637.53784 238.0633 637.53784 236.82892Q637.53784 236.09454 637.86597 235.5008Q638.1941 234.90704 638.72534 234.54767Q639.2566 234.1883 639.92847 234.0008Q640.42847 233.86017 641.41284 233.7508Q643.4441 233.5008 644.3972 233.17267Q644.3972 232.82892 644.3972 232.73517Q644.3972 231.71954 643.92847 231.29767Q643.28784 230.73517 642.0222 230.73517Q640.85034 230.73517 640.28784 231.14142Q639.72534 231.54767 639.4597 232.61017L637.8191 232.3758Q638.05347 231.32892 638.5613 230.6883Q639.0691 230.04767 640.03 229.6961Q640.99097 229.34454 642.2722 229.34454Q643.53784 229.34454 644.3191 229.64142Q645.10034 229.9383 645.47534 230.39142Q645.85034 230.84454 645.99097 231.53204Q646.0847 231.95392 646.0847 233.0633L646.0847 235.29767Q646.0847 237.6258 646.1863 238.24298Q646.28784 238.86017 646.61597 239.42267L644.86597 239.42267Q644.60034 238.90704 644.53784 238.20392ZM644.3972 234.48517Q643.49097 234.84454 641.66284 235.11017Q640.6316 235.2508 640.2097 235.4383Q639.78784 235.6258 639.55347 235.98517Q639.3191 236.34454 639.3191 236.78204Q639.3191 237.45392 639.8269 237.89923Q640.3347 238.34454 641.30347 238.34454Q642.2722 238.34454 643.0222 237.91486Q643.7722 237.48517 644.1316 236.76642Q644.3972 236.1883 644.3972 235.09454L644.3972 234.48517ZM648.4597 239.42267L648.4597 229.5633L649.9597 229.5633L649.9597 231.0633Q650.53784 230.01642 651.0222 229.68048Q651.5066 229.34454 652.10034 229.34454Q652.9441 229.34454 653.8191 229.89142L653.24097 231.4383Q652.6316 231.07892 652.0066 231.07892Q651.4597 231.07892 651.03 231.40704Q650.60034 231.73517 650.41284 232.3133Q650.1316 233.20392 650.1316 234.26642L650.1316 239.42267L648.4597 239.42267ZM661.0691 239.42267L661.0691 238.17267Q660.1316 239.64142 658.3191 239.64142Q657.1472 239.64142 656.155 238.99298Q655.16284 238.34454 654.6238 237.18048Q654.0847 236.01642 654.0847 234.5008Q654.0847 233.03204 654.5769 231.82892Q655.0691 230.6258 656.04565 229.98517Q657.0222 229.34454 658.24097 229.34454Q659.1316 229.34454 659.8269 229.71954Q660.5222 230.09454 660.9597 230.70392L660.9597 225.82892L662.61597 225.82892L662.61597 239.42267L661.0691 239.42267ZM655.78784 234.5008Q655.78784 236.39142 656.5925 237.32892Q657.3972 238.26642 658.47534 238.26642Q659.5691 238.26642 660.3347 237.3758Q661.10034 236.48517 661.10034 234.64142Q661.10034 232.6258 660.3191 231.68048Q659.53784 230.73517 658.3972 230.73517Q657.28784 230.73517 656.53784 231.64142Q655.78784 232.54767 655.78784 234.5008ZM666.8972 239.42267L663.8816 229.5633L665.60034 229.5633L667.16284 235.2508L667.7566 237.3758Q667.78784 237.21954 668.2566 235.34454L669.8347 229.5633L671.55347 229.5633L673.0222 235.28204L673.5066 237.17267L674.0847 235.26642L675.7722 229.5633L677.3972 229.5633L674.3191 239.42267L672.5847 239.42267L671.0066 233.51642L670.6316 231.84454L668.6316 239.42267L666.8972 239.42267ZM684.97534 238.20392Q684.03784 239.0008 683.17847 239.3211Q682.3191 239.64142 681.3347 239.64142Q679.72534 239.64142 678.85034 238.85236Q677.97534 238.0633 677.97534 236.82892Q677.97534 236.09454 678.30347 235.5008Q678.6316 234.90704 679.16284 234.54767Q679.6941 234.1883 680.36597 234.0008Q680.86597 233.86017 681.85034 233.7508Q683.8816 233.5008 684.8347 233.17267Q684.8347 232.82892 684.8347 232.73517Q684.8347 231.71954 684.36597 231.29767Q683.72534 230.73517 682.4597 230.73517Q681.28784 230.73517 680.72534 231.14142Q680.16284 231.54767 679.8972 232.61017L678.2566 232.3758Q678.49097 231.32892 678.9988 230.6883Q679.5066 230.04767 680.4675 229.6961Q681.42847 229.34454 682.7097 229.34454Q683.97534 229.34454 684.7566 229.64142Q685.53784 229.9383 685.91284 230.39142Q686.28784 230.84454 686.42847 231.53204Q686.5222 231.95392 686.5222 233.0633L686.5222 235.29767Q686.5222 237.6258 686.6238 238.24298Q686.72534 238.86017 687.05347 239.42267L685.30347 239.42267Q685.03784 238.90704 684.97534 238.20392ZM684.8347 234.48517Q683.92847 234.84454 682.10034 235.11017Q681.0691 235.2508 680.6472 235.4383Q680.22534 235.6258 679.99097 235.98517Q679.7566 236.34454 679.7566 236.78204Q679.7566 237.45392 680.2644 237.89923Q680.7722 238.34454 681.74097 238.34454Q682.7097 238.34454 683.4597 237.91486Q684.2097 237.48517 684.5691 236.76642Q684.8347 236.1883 684.8347 235.09454L684.8347 234.48517ZM688.8972 239.42267L688.8972 229.5633L690.3972 229.5633L690.3972 231.0633Q690.97534 230.01642 691.4597 229.68048Q691.9441 229.34454 692.53784 229.34454Q693.3816 229.34454 694.2566 229.89142L693.67847 231.4383Q693.0691 231.07892 692.4441 231.07892Q691.8972 231.07892 691.4675 231.40704Q691.03784 231.73517 690.85034 232.3133Q690.5691 233.20392 690.5691 234.26642L690.5691 239.42267L688.8972 239.42267ZM701.86597 236.2508L703.5847 236.46954Q703.17847 237.96954 702.0769 238.80548Q700.97534 239.64142 699.2566 239.64142Q697.10034 239.64142 695.8347 238.3133Q694.5691 236.98517 694.5691 234.57892Q694.5691 232.09454 695.8425 230.71954Q697.11597 229.34454 699.16284 229.34454Q701.1472 229.34454 702.3972 230.6883Q703.6472 232.03204 703.6472 234.48517Q703.6472 234.6258 703.6316 234.92267L696.28784 234.92267Q696.3816 236.54767 697.2097 237.40704Q698.03784 238.26642 699.2722 238.26642Q700.17847 238.26642 700.8269 237.78986Q701.47534 237.3133 701.86597 236.2508ZM696.3816 233.54767L701.8816 233.54767Q701.7722 232.3133 701.2566 231.6883Q700.4597 230.71954 699.17847 230.71954Q698.03784 230.71954 697.2488 231.49298Q696.4597 232.26642 696.3816 233.54767ZM710.8191 239.42267L710.8191 225.82892L712.61597 225.82892L712.61597 237.8133L719.3191 237.8133L719.3191 239.42267L710.8191 239.42267ZM727.49097 238.20392Q726.55347 239.0008 725.6941 239.3211Q724.8347 239.64142 723.85034 239.64142Q722.24097 239.64142 721.36597 238.85236Q720.49097 238.0633 720.49097 236.82892Q720.49097 236.09454 720.8191 235.5008Q721.1472 234.90704 721.67847 234.54767Q722.2097 234.1883 722.8816 234.0008Q723.3816 233.86017 724.36597 233.7508Q726.3972 233.5008 727.35034 233.17267Q727.35034 232.82892 727.35034 232.73517Q727.35034 231.71954 726.8816 231.29767Q726.24097 230.73517 724.97534 230.73517Q723.80347 230.73517 723.24097 231.14142Q722.67847 231.54767 722.41284 232.61017L720.7722 232.3758Q721.0066 231.32892 721.5144 230.6883Q722.0222 230.04767 722.98315 229.6961Q723.9441 229.34454 725.22534 229.34454Q726.49097 229.34454 727.2722 229.64142Q728.05347 229.9383 728.42847 230.39142Q728.80347 230.84454 728.9441 231.53204Q729.03784 231.95392 729.03784 233.0633L729.03784 235.29767Q729.03784 237.6258 729.1394 238.24298Q729.24097 238.86017 729.5691 239.42267L727.8191 239.42267Q727.55347 238.90704 727.49097 238.20392ZM727.35034 234.48517Q726.4441 234.84454 724.61597 235.11017Q723.5847 235.2508 723.16284 235.4383Q722.74097 235.6258 722.5066 235.98517Q722.2722 236.34454 722.2722 236.78204Q722.2722 237.45392 722.78 237.89923Q723.28784 238.34454 724.2566 238.34454Q725.22534 238.34454 725.97534 237.91486Q726.72534 237.48517 727.0847 236.76642Q727.35034 236.1883 727.35034 235.09454L727.35034 234.48517ZM731.35034 243.21954L731.17847 241.65704Q731.72534 241.79767 732.1316 241.79767Q732.67847 241.79767 733.0144 241.61017Q733.35034 241.42267 733.5691 241.09454Q733.72534 240.84454 734.0691 239.84454Q734.11597 239.70392 734.22534 239.4383L730.49097 229.5633L732.28784 229.5633L734.3347 235.28204Q734.74097 236.36017 735.05347 237.5633Q735.3347 236.40704 735.74097 235.3133L737.8347 229.5633L739.5066 229.5633L735.7566 239.59454Q735.16284 241.21954 734.8191 241.82892Q734.3816 242.65704 733.80347 243.03986Q733.22534 243.42267 732.42847 243.42267Q731.9441 243.42267 731.35034 243.21954ZM747.5066 236.2508L749.22534 236.46954Q748.8191 237.96954 747.7175 238.80548Q746.61597 239.64142 744.8972 239.64142Q742.74097 239.64142 741.47534 238.3133Q740.2097 236.98517 740.2097 234.57892Q740.2097 232.09454 741.48315 230.71954Q742.7566 229.34454 744.80347 229.34454Q746.78784 229.34454 748.03784 230.6883Q749.28784 232.03204 749.28784 234.48517Q749.28784 234.6258 749.2722 234.92267L741.92847 234.92267Q742.0222 236.54767 742.85034 237.40704Q743.67847 238.26642 744.91284 238.26642Q745.8191 238.26642 746.4675 237.78986Q747.11597 237.3133 747.5066 236.2508ZM742.0222 233.54767L747.5222 233.54767Q747.41284 232.3133 746.8972 231.6883Q746.10034 230.71954 744.8191 230.71954Q743.67847 230.71954 742.8894 231.49298Q742.10034 232.26642 742.0222 233.54767ZM751.11597 239.42267L751.11597 229.5633L752.61597 229.5633L752.61597 231.0633Q753.1941 230.01642 753.67847 229.68048Q754.16284 229.34454 754.7566 229.34454Q755.60034 229.34454 756.47534 229.89142L755.8972 231.4383Q755.28784 231.07892 754.66284 231.07892Q754.11597 231.07892 753.6863 231.40704Q753.2566 231.73517 753.0691 232.3133Q752.78784 233.20392 752.78784 234.26642L752.78784 239.42267L751.11597 239.42267Z" fill-rule="nonzero" fill="#000000"></path><path d="M605.4982 266.5133L627.8135 266.5133L627.8135 312.39536L605.4982 312.39536Z" fill-rule="nonzero" fill="#65cc30" fill-opacity="0.9231"></path><path d="M627.8135 266.5133L635.25183 259.0749L635.25183 304.95694L627.8135 312.39536Z" fill-rule="nonzero" fill="#50a326" fill-opacity="0.9231"></path><path d="M605.4982 266.5133L612.93665 259.0749L635.25183 259.0749L627.8135 266.5133Z" fill-rule="nonzero" fill="#83d659" fill-opacity="0.9231"></path><path d="M605.4982 266.5133L612.93665 259.0749L635.25183 259.0749L635.25183 304.95694L627.8135 312.39536L605.4982 312.39536ZM605.4982 266.5133L627.8135 266.5133L635.25183 259.0749M627.8135 266.5133L627.8135 312.39536" fill-rule="nonzero" stroke="#073763" stroke-width="2.0" stroke-linejoin="round" stroke-linecap="butt"></path><path d="M609.04315 298.7226L623.30133 298.7226" fill-rule="nonzero" stroke="#073763" stroke-width="1.0" stroke-linejoin="round" stroke-linecap="butt"></path><path d="M609.04315 301.91168L623.30133 301.91168" fill-rule="nonzero" stroke="#073763" stroke-width="1.0" stroke-linejoin="round" stroke-linecap="butt"></path><path d="M609.04315 305.30435L623.30133 305.30435" fill-rule="nonzero" stroke="#073763" stroke-width="1.0" stroke-linejoin="round" stroke-linecap="butt"></path><path d="M614.349 291.979L614.349 291.979C614.349 291.19577 614.98395 290.56082 615.7672 290.56082L615.7672 290.56082C616.1433 290.56082 616.504 290.71024 616.77 290.9762C617.036 291.24216 617.1854 291.60287 617.1854 291.979L617.1854 291.979C617.1854 292.76227 616.5505 293.39722 615.7672 293.39722L615.7672 293.39722C614.98395 293.39722 614.349 292.76227 614.349 291.979Z" fill-rule="nonzero" stroke="#073763" stroke-width="2.0" stroke-linejoin="round" stroke-linecap="butt"></path><path d="M609.04315 277.76163L623.30133 277.76163" fill-rule="nonzero" stroke="#073763" stroke-width="2.0" stroke-linejoin="round" stroke-linecap="butt"></path><path d="M609.0701 273.43198L614.2861 273.43198" fill-rule="nonzero" stroke="#073763" stroke-width="2.0" stroke-linejoin="round" stroke-linecap="butt"></path><path d="M618.133 273.43198L623.3489 273.43198" fill-rule="nonzero" stroke="#073763" stroke-width="2.0" stroke-linejoin="round" stroke-linecap="butt"></path><path d="M632.1534 266.5133L654.46857 266.5133L654.46857 312.39536L632.1534 312.39536Z" fill-rule="nonzero" fill="#65cc30" fill-opacity="0.9231"></path><path d="M654.46857 266.5133L661.907 259.0749L661.907 304.95694L654.46857 312.39536Z" fill-rule="nonzero" fill="#50a326" fill-opacity="0.9231"></path><path d="M632.1534 266.5133L639.59174 259.0749L661.907 259.0749L654.46857 266.5133Z" fill-rule="nonzero" fill="#83d659" fill-opacity="0.9231"></path><path d="M632.1534 266.5133L639.59174 259.0749L661.907 259.0749L661.907 304.95694L654.46857 312.39536L632.1534 312.39536ZM632.1534 266.5133L654.46857 266.5133L661.907 259.0749M654.46857 266.5133L654.46857 312.39536" fill-rule="nonzero" stroke="#073763" stroke-width="2.0" stroke-linejoin="round" stroke-linecap="butt"></path><path d="M635.6983 298.7226L649.9564 298.7226" fill-rule="nonzero" stroke="#073763" stroke-width="1.0" stroke-linejoin="round" stroke-linecap="butt"></path><path d="M635.6983 301.91168L649.9564 301.91168" fill-rule="nonzero" stroke="#073763" stroke-width="1.0" stroke-linejoin="round" stroke-linecap="butt"></path><path d="M635.6983 305.30435L649.9564 305.30435" fill-rule="nonzero" stroke="#073763" stroke-width="1.0" stroke-linejoin="round" stroke-linecap="butt"></path><path d="M641.0041 291.979L641.0041 291.979C641.0041 291.19577 641.63904 290.56082 642.4223 290.56082L642.4223 290.56082C642.79846 290.56082 643.1592 290.71024 643.4251 290.9762C643.6911 291.24216 643.8405 291.60287 643.8405 291.979L643.8405 291.979C643.8405 292.76227 643.20557 293.39722 642.4223 293.39722L642.4223 293.39722C641.63904 293.39722 641.0041 292.76227 641.0041 291.979Z" fill-rule="nonzero" stroke="#073763" stroke-width="2.0" stroke-linejoin="round" stroke-linecap="butt"></path><path d="M635.6983 277.76163L649.9564 277.76163" fill-rule="nonzero" stroke="#073763" stroke-width="2.0" stroke-linejoin="round" stroke-linecap="butt"></path><path d="M635.7253 273.43198L640.94116 273.43198" fill-rule="nonzero" stroke="#073763" stroke-width="2.0" stroke-linejoin="round" stroke-linecap="butt"></path><path d="M644.7881 273.43198L650.004 273.43198" fill-rule="nonzero" stroke="#073763" stroke-width="2.0" stroke-linejoin="round" stroke-linecap="butt"></path><path d="M659.44696 266.5133L681.76215 266.5133L681.76215 312.39536L659.44696 312.39536Z" fill-rule="nonzero" fill="#cc2727" fill-opacity="0.9231"></path><path d="M681.76215 266.5133L689.20056 259.0749L689.20056 304.95694L681.76215 312.39536Z" fill-rule="nonzero" fill="#a31f1f" fill-opacity="0.9231"></path><path d="M659.44696 266.5133L666.8854 259.0749L689.20056 259.0749L681.76215 266.5133Z" fill-rule="nonzero" fill="#d65252" fill-opacity="0.9231"></path><path d="M659.44696 266.5133L666.8854 259.0749L689.20056 259.0749L689.20056 304.95694L681.76215 312.39536L659.44696 312.39536ZM659.44696 266.5133L681.76215 266.5133L689.20056 259.0749M681.76215 266.5133L681.76215 312.39536" fill-rule="nonzero" stroke="#073763" stroke-width="2.0" stroke-linejoin="round" stroke-linecap="butt"></path><path d="M662.9919 298.7226L677.25 298.7226" fill-rule="nonzero" stroke="#073763" stroke-width="1.0" stroke-linejoin="round" stroke-linecap="butt"></path><path d="M662.9919 301.91168L677.25 301.91168" fill-rule="nonzero" stroke="#073763" stroke-width="1.0" stroke-linejoin="round" stroke-linecap="butt"></path><path d="M662.9919 305.30435L677.25 305.30435" fill-rule="nonzero" stroke="#073763" stroke-width="1.0" stroke-linejoin="round" stroke-linecap="butt"></path><path d="M668.2977 291.979L668.2977 291.979C668.2977 291.19577 668.9327 290.56082 669.71594 290.56082L669.71594 290.56082C670.09204 290.56082 670.45276 290.71024 670.71875 290.9762C670.9847 291.24216 671.1341 291.60287 671.1341 291.979L671.1341 291.979C671.1341 292.76227 670.49915 293.39722 669.71594 293.39722L669.71594 293.39722C668.9327 293.39722 668.2977 292.76227 668.2977 291.979Z" fill-rule="nonzero" stroke="#073763" stroke-width="2.0" stroke-linejoin="round" stroke-linecap="butt"></path><path d="M662.9919 277.76163L677.25 277.76163" fill-rule="nonzero" stroke="#073763" stroke-width="2.0" stroke-linejoin="round" stroke-linecap="butt"></path><path d="M663.01886 273.43198L668.2348 273.43198" fill-rule="nonzero" stroke="#073763" stroke-width="2.0" stroke-linejoin="round" stroke-linecap="butt"></path><path d="M672.08167 273.43198L677.2976 273.43198" fill-rule="nonzero" stroke="#073763" stroke-width="2.0" stroke-linejoin="round" stroke-linecap="butt"></path><path d="M686.10205 266.5133L708.4173 266.5133L708.4173 312.39536L686.10205 312.39536Z" fill-rule="nonzero" fill="#cc2727" fill-opacity="0.9231"></path><path d="M708.4173 266.5133L715.8557 259.0749L715.8557 304.95694L708.4173 312.39536Z" fill-rule="nonzero" fill="#a31f1f" fill-opacity="0.9231"></path><path d="M686.10205 266.5133L693.54047 259.0749L715.8557 259.0749L708.4173 266.5133Z" fill-rule="nonzero" fill="#d65252" fill-opacity="0.9231"></path><path d="M686.10205 266.5133L693.54047 259.0749L715.8557 259.0749L715.8557 304.95694L708.4173 312.39536L686.10205 312.39536ZM686.10205 266.5133L708.4173 266.5133L715.8557 259.0749M708.4173 266.5133L708.4173 312.39536" fill-rule="nonzero" stroke="#073763" stroke-width="2.0" stroke-linejoin="round" stroke-linecap="butt"></path><path d="M689.647 298.7226L703.90515 298.7226" fill-rule="nonzero" stroke="#073763" stroke-width="1.0" stroke-linejoin="round" stroke-linecap="butt"></path><path d="M689.647 301.91168L703.90515 301.91168" fill-rule="nonzero" stroke="#073763" stroke-width="1.0" stroke-linejoin="round" stroke-linecap="butt"></path><path d="M689.647 305.30435L703.90515 305.30435" fill-rule="nonzero" stroke="#073763" stroke-width="1.0" stroke-linejoin="round" stroke-linecap="butt"></path><path d="M694.9528 291.979L694.9528 291.979C694.9528 291.19577 695.58777 290.56082 696.37103 290.56082L696.37103 290.56082C696.74713 290.56082 697.1079 290.71024 697.37384 290.9762C697.63983 291.24216 697.78925 291.60287 697.78925 291.979L697.78925 291.979C697.78925 292.76227 697.1543 293.39722 696.37103 293.39722L696.37103 293.39722C695.58777 293.39722 694.9528 292.76227 694.9528 291.979Z" fill-rule="nonzero" stroke="#073763" stroke-width="2.0" stroke-linejoin="round" stroke-linecap="butt"></path><path d="M689.647 277.76163L703.90515 277.76163" fill-rule="nonzero" stroke="#073763" stroke-width="2.0" stroke-linejoin="round" stroke-linecap="butt"></path><path d="M689.674 273.43198L694.8899 273.43198" fill-rule="nonzero" stroke="#073763" stroke-width="2.0" stroke-linejoin="round" stroke-linecap="butt"></path><path d="M698.7368 273.43198L703.9527 273.43198" fill-rule="nonzero" stroke="#073763" stroke-width="2.0" stroke-linejoin="round" stroke-linecap="butt"></path><path d="M713.3957 266.5133L735.7109 266.5133L735.7109 312.39536L713.3957 312.39536Z" fill-rule="nonzero" fill="#65cc30" fill-opacity="0.9231"></path><path d="M735.7109 266.5133L743.1493 259.0749L743.1493 304.95694L735.7109 312.39536Z" fill-rule="nonzero" fill="#50a326" fill-opacity="0.9231"></path><path d="M713.3957 266.5133L720.8341 259.0749L743.1493 259.0749L735.7109 266.5133Z" fill-rule="nonzero" fill="#83d659" fill-opacity="0.9231"></path><path d="M713.3957 266.5133L720.8341 259.0749L743.1493 259.0749L743.1493 304.95694L735.7109 312.39536L713.3957 312.39536ZM713.3957 266.5133L735.7109 266.5133L743.1493 259.0749M735.7109 266.5133L735.7109 312.39536" fill-rule="nonzero" stroke="#073763" stroke-width="2.0" stroke-linejoin="round" stroke-linecap="butt"></path><path d="M716.9406 298.7226L731.1987 298.7226" fill-rule="nonzero" stroke="#073763" stroke-width="1.0" stroke-linejoin="round" stroke-linecap="butt"></path><path d="M716.9406 301.91168L731.1987 301.91168" fill-rule="nonzero" stroke="#073763" stroke-width="1.0" stroke-linejoin="round" stroke-linecap="butt"></path><path d="M716.9406 305.30435L731.1987 305.30435" fill-rule="nonzero" stroke="#073763" stroke-width="1.0" stroke-linejoin="round" stroke-linecap="butt"></path><path d="M722.24646 291.979L722.24646 291.979C722.24646 291.19577 722.8814 290.56082 723.6646 290.56082L723.6646 290.56082C724.0408 290.56082 724.4015 290.71024 724.6675 290.9762C724.9334 291.24216 725.0828 291.60287 725.0828 291.979L725.0828 291.979C725.0828 292.76227 724.4479 293.39722 723.6646 293.39722L723.6646 293.39722C722.8814 293.39722 722.24646 292.76227 722.24646 291.979Z" fill-rule="nonzero" stroke="#073763" stroke-width="2.0" stroke-linejoin="round" stroke-linecap="butt"></path><path d="M716.9406 277.76163L731.1987 277.76163" fill-rule="nonzero" stroke="#073763" stroke-width="2.0" stroke-linejoin="round" stroke-linecap="butt"></path><path d="M716.9676 273.43198L722.18353 273.43198" fill-rule="nonzero" stroke="#073763" stroke-width="2.0" stroke-linejoin="round" stroke-linecap="butt"></path><path d="M726.0304 273.43198L731.24634 273.43198" fill-rule="nonzero" stroke="#073763" stroke-width="2.0" stroke-linejoin="round" stroke-linecap="butt"></path><path d="M740.0508 266.5133L762.366 266.5133L762.366 312.39536L740.0508 312.39536Z" fill-rule="nonzero" fill="#cc2727" fill-opacity="0.9231"></path><path d="M762.366 266.5133L769.8044 259.0749L769.8044 304.95694L762.366 312.39536Z" fill-rule="nonzero" fill="#a31f1f" fill-opacity="0.9231"></path><path d="M740.0508 266.5133L747.4892 259.0749L769.8044 259.0749L762.366 266.5133Z" fill-rule="nonzero" fill="#d65252" fill-opacity="0.9231"></path><path d="M740.0508 266.5133L747.4892 259.0749L769.8044 259.0749L769.8044 304.95694L762.366 312.39536L740.0508 312.39536ZM740.0508 266.5133L762.366 266.5133L769.8044 259.0749M762.366 266.5133L762.366 312.39536" fill-rule="nonzero" stroke="#073763" stroke-width="2.0" stroke-linejoin="round" stroke-linecap="butt"></path><path d="M743.5957 298.7226L757.8538 298.7226" fill-rule="nonzero" stroke="#073763" stroke-width="1.0" stroke-linejoin="round" stroke-linecap="butt"></path><path d="M743.5957 301.91168L757.8538 301.91168" fill-rule="nonzero" stroke="#073763" stroke-width="1.0" stroke-linejoin="round" stroke-linecap="butt"></path><path d="M743.5957 305.30435L757.8538 305.30435" fill-rule="nonzero" stroke="#073763" stroke-width="1.0" stroke-linejoin="round" stroke-linecap="butt"></path><path d="M748.90155 291.979L748.90155 291.979C748.90155 291.19577 749.5365 290.56082 750.31976 290.56082L750.31976 290.56082C750.69586 290.56082 751.0566 290.71024 751.3226 290.9762C751.5885 291.24216 751.7379 291.60287 751.7379 291.979L751.7379 291.979C751.7379 292.76227 751.10297 293.39722 750.31976 293.39722L750.31976 293.39722C749.5365 293.39722 748.90155 292.76227 748.90155 291.979Z" fill-rule="nonzero" stroke="#073763" stroke-width="2.0" stroke-linejoin="round" stroke-linecap="butt"></path><path d="M743.5957 277.76163L757.8538 277.76163" fill-rule="nonzero" stroke="#073763" stroke-width="2.0" stroke-linejoin="round" stroke-linecap="butt"></path><path d="M743.6227 273.43198L748.8386 273.43198" fill-rule="nonzero" stroke="#073763" stroke-width="2.0" stroke-linejoin="round" stroke-linecap="butt"></path><path d="M752.6855 273.43198L757.9014 273.43198" fill-rule="nonzero" stroke="#073763" stroke-width="2.0" stroke-linejoin="round" stroke-linecap="butt"></path><path d="M412.71674 284.93307L595.1734 284.93307" fill-rule="evenodd" stroke="#073763" stroke-width="2.0" stroke-linejoin="round" stroke-linecap="butt"></path><path d="M595.1734 288.23654L604.2496 284.93307L595.1734 281.6296Z" fill-rule="evenodd" fill="#073763" stroke="#073763" stroke-width="2.0" stroke-linecap="butt"></path><path d="M301.63058 362.0024L301.63058 351.89304L297.84933 351.89304L297.84933 350.5493L306.92746 350.5493L306.92746 351.89304L303.1462 351.89304L303.1462 362.0024L301.63058 362.0024ZM308.30246 362.0024L308.30246 353.70554L309.56808 353.70554L309.56808 354.95554Q310.05246 354.08054 310.4587 353.7993Q310.86496 353.51804 311.36496 353.51804Q312.06808 353.51804 312.80246 353.97116L312.31808 355.26804Q311.80246 354.97116 311.28683 354.97116Q310.8337 354.97116 310.46652 355.2446Q310.09933 355.51804 309.94308 356.01804Q309.7087 356.76804 309.7087 357.65866L309.7087 362.0024L308.30246 362.0024ZM319.0837 362.0024L319.0837 360.78366Q318.11496 362.1899 316.44308 362.1899Q315.7087 362.1899 315.0759 361.90866Q314.44308 361.6274 314.13058 361.19772Q313.81808 360.76804 313.69308 360.15866Q313.61496 359.7368 313.61496 358.84616L313.61496 353.70554L315.0212 353.70554L315.0212 358.2993Q315.0212 359.40866 315.09933 359.78366Q315.23996 360.34616 315.66965 360.65866Q316.09933 360.97116 316.72433 360.97116Q317.36496 360.97116 317.91965 360.65085Q318.47433 360.33054 318.7009 359.76804Q318.92746 359.20554 318.92746 358.14304L318.92746 353.70554L320.3337 353.70554L320.3337 362.0024L319.0837 362.0024ZM321.97433 359.51804L323.36496 359.2993Q323.47433 360.14304 324.0134 360.58835Q324.55246 361.03366 325.50558 361.03366Q326.47433 361.03366 326.94308 360.63522Q327.41183 360.2368 327.41183 359.70554Q327.41183 359.2368 327.00558 358.95554Q326.7087 358.76804 325.56808 358.4868Q324.0212 358.09616 323.41965 357.8071Q322.81808 357.51804 322.5134 357.01804Q322.2087 356.51804 322.2087 355.90866Q322.2087 355.34616 322.4587 354.8774Q322.7087 354.40866 323.1462 354.09616Q323.47433 353.84616 324.04465 353.6821Q324.61496 353.51804 325.25558 353.51804Q326.23996 353.51804 326.97433 353.7993Q327.7087 354.08054 328.06027 354.5571Q328.41183 355.03366 328.55246 355.84616L327.17746 356.03366Q327.0837 355.39304 326.63058 355.03366Q326.17746 354.6743 325.36496 354.6743Q324.3962 354.6743 323.98215 354.9946Q323.56808 355.3149 323.56808 355.7368Q323.56808 356.01804 323.73996 356.2368Q323.91183 356.45554 324.2712 356.6118Q324.48996 356.6899 325.5212 356.97116Q327.00558 357.3618 327.59933 357.6196Q328.19308 357.8774 328.52902 358.3618Q328.86496 358.84616 328.86496 359.5649Q328.86496 360.26804 328.4509 360.88522Q328.03683 361.5024 327.2634 361.84616Q326.48996 362.1899 325.5212 362.1899Q323.8962 362.1899 323.05246 361.51804Q322.2087 360.84616 321.97433 359.51804ZM333.59933 360.7368L333.80246 361.9868Q333.2087 362.1118 332.73996 362.1118Q331.97433 362.1118 331.55246 361.8696Q331.13058 361.6274 330.9587 361.22897Q330.78683 360.83054 330.78683 359.5649L330.78683 354.7993L329.75558 354.7993L329.75558 353.70554L330.78683 353.70554L330.78683 351.64304L332.19308 350.7993L332.19308 353.70554L333.59933 353.70554L333.59933 354.7993L332.19308 354.7993L332.19308 359.64304Q332.19308 360.2524 332.2634 360.4243Q332.3337 360.59616 332.50558 360.69772Q332.67746 360.7993 332.98996 360.7993Q333.22433 360.7993 333.59933 360.7368ZM340.66183 359.33054L342.11496 359.5024Q341.7712 360.78366 340.84152 361.4868Q339.91183 362.1899 338.47433 362.1899Q336.6462 362.1899 335.5837 361.0649Q334.5212 359.9399 334.5212 357.9243Q334.5212 355.83054 335.59933 354.6743Q336.67746 353.51804 338.3962 353.51804Q340.05246 353.51804 341.10715 354.65085Q342.16183 355.78366 342.16183 357.83054Q342.16183 357.95554 342.16183 358.20554L335.97433 358.20554Q336.05246 359.58054 336.74777 360.3071Q337.44308 361.03366 338.47433 361.03366Q339.25558 361.03366 339.80246 360.6274Q340.34933 360.22116 340.66183 359.33054ZM336.05246 357.0493L340.67746 357.0493Q340.5837 356.0024 340.1462 355.4868Q339.47433 354.6743 338.41183 354.6743Q337.44308 354.6743 336.77902 355.32272Q336.11496 355.97116 336.05246 357.0493ZM349.25558 362.0024L349.25558 360.95554Q348.47433 362.1899 346.94308 362.1899Q345.94308 362.1899 345.11496 361.64304Q344.28683 361.09616 343.8259 360.1118Q343.36496 359.1274 343.36496 357.8618Q343.36496 356.6118 343.77902 355.60397Q344.19308 354.59616 345.0212 354.0571Q345.84933 353.51804 346.88058 353.51804Q347.63058 353.51804 348.21652 353.83054Q348.80246 354.14304 349.16183 354.65866L349.16183 350.5493L350.56808 350.5493L350.56808 362.0024L349.25558 362.0024ZM344.81808 357.8618Q344.81808 359.45554 345.48996 360.2446Q346.16183 361.03366 347.06808 361.03366Q347.98996 361.03366 348.6384 360.27585Q349.28683 359.51804 349.28683 357.97116Q349.28683 356.26804 348.63058 355.47116Q347.97433 354.6743 347.00558 354.6743Q346.06808 354.6743 345.44308 355.4399Q344.81808 356.20554 344.81808 357.8618ZM360.31808 362.0024L360.31808 351.89304L356.53683 351.89304L356.53683 350.5493L365.61496 350.5493L365.61496 351.89304L361.8337 351.89304L361.8337 362.0024L360.31808 362.0024ZM367.00558 362.0024L367.00558 350.5493L368.41183 350.5493L368.41183 354.65866Q369.3962 353.51804 370.8962 353.51804Q371.81808 353.51804 372.49777 353.8774Q373.17746 354.2368 373.46652 354.8774Q373.75558 355.51804 373.75558 356.7368L373.75558 362.0024L372.34933 362.0024L372.34933 356.7368Q372.34933 355.6899 371.8962 355.20554Q371.44308 354.72116 370.59933 354.72116Q369.97433 354.72116 369.42746 355.0493Q368.88058 355.3774 368.6462 355.9321Q368.41183 356.4868 368.41183 357.45554L368.41183 362.0024L367.00558 362.0024ZM375.8962 352.15866L375.8962 350.5493L377.30246 350.5493L377.30246 352.15866L375.8962 352.15866ZM375.8962 362.0024L375.8962 353.70554L377.30246 353.70554L377.30246 362.0024L375.8962 362.0024ZM379.44308 362.0024L379.44308 353.70554L380.7087 353.70554L380.7087 354.95554Q381.19308 354.08054 381.59933 353.7993Q382.00558 353.51804 382.50558 353.51804Q383.2087 353.51804 383.94308 353.97116L383.4587 355.26804Q382.94308 354.97116 382.42746 354.97116Q381.97433 354.97116 381.60715 355.2446Q381.23996 355.51804 381.0837 356.01804Q380.84933 356.76804 380.84933 357.65866L380.84933 362.0024L379.44308 362.0024ZM390.16183 362.0024L390.16183 360.95554Q389.38058 362.1899 387.84933 362.1899Q386.84933 362.1899 386.0212 361.64304Q385.19308 361.09616 384.73215 360.1118Q384.2712 359.1274 384.2712 357.8618Q384.2712 356.6118 384.68527 355.60397Q385.09933 354.59616 385.92746 354.0571Q386.75558 353.51804 387.78683 353.51804Q388.53683 353.51804 389.12277 353.83054Q389.7087 354.14304 390.06808 354.65866L390.06808 350.5493L391.47433 350.5493L391.47433 362.0024L390.16183 362.0024ZM385.72433 357.8618Q385.72433 359.45554 386.3962 360.2446Q387.06808 361.03366 387.97433 361.03366Q388.8962 361.03366 389.54465 360.27585Q390.19308 359.51804 390.19308 357.97116Q390.19308 356.26804 389.53683 355.47116Q388.88058 354.6743 387.91183 354.6743Q386.97433 354.6743 386.34933 355.4399Q385.72433 356.20554 385.72433 357.8618ZM398.30246 362.0024L398.30246 350.5493L402.63058 350.5493Q403.7712 350.5493 404.36496 350.65866Q405.2087 350.7993 405.77902 351.1899Q406.34933 351.58054 406.7009 352.29147Q407.05246 353.0024 407.05246 353.8618Q407.05246 355.3149 406.12277 356.33054Q405.19308 357.34616 402.75558 357.34616L399.81808 357.34616L399.81808 362.0024L398.30246 362.0024ZM399.81808 355.9868L402.78683 355.9868Q404.25558 355.9868 404.87277 355.4399Q405.48996 354.89304 405.48996 353.90866Q405.48996 353.1899 405.12277 352.6743Q404.75558 352.15866 404.16183 352.0024Q403.78683 351.89304 402.75558 351.89304L399.81808 351.89304L399.81808 355.9868ZM414.2087 360.97116Q413.42746 361.64304 412.7087 361.91647Q411.98996 362.1899 411.16183 362.1899Q409.78683 362.1899 409.05246 361.51804Q408.31808 360.84616 408.31808 359.8149Q408.31808 359.20554 408.59933 358.69772Q408.88058 358.1899 409.3259 357.88522Q409.7712 357.58054 410.3337 357.4243Q410.75558 357.3149 411.5837 357.22116Q413.28683 357.01804 414.09933 356.7368Q414.09933 356.4399 414.09933 356.3618Q414.09933 355.5024 413.7087 355.15866Q413.16183 354.6743 412.09933 354.6743Q411.11496 354.6743 410.6384 355.02585Q410.16183 355.3774 409.94308 356.2524L408.56808 356.0649Q408.75558 355.1899 409.18527 354.64304Q409.61496 354.09616 410.42746 353.8071Q411.23996 353.51804 412.30246 353.51804Q413.36496 353.51804 414.02902 353.76804Q414.69308 354.01804 415.00558 354.39304Q415.31808 354.76804 415.44308 355.34616Q415.5212 355.70554 415.5212 356.64304L415.5212 358.51804Q415.5212 360.4868 415.60715 361.0024Q415.69308 361.51804 415.9587 362.0024L414.48996 362.0024Q414.2712 361.5649 414.2087 360.97116ZM414.09933 357.83054Q413.3337 358.14304 411.80246 358.3618Q410.92746 358.4868 410.56808 358.64304Q410.2087 358.7993 410.0134 359.10397Q409.81808 359.40866 409.81808 359.76804Q409.81808 360.33054 410.24777 360.70554Q410.67746 361.08054 411.48996 361.08054Q412.30246 361.08054 412.93527 360.72897Q413.56808 360.3774 413.86496 359.7524Q414.09933 359.28366 414.09933 358.34616L414.09933 357.83054ZM417.67746 362.0024L417.67746 353.70554L418.94308 353.70554L418.94308 354.95554Q419.42746 354.08054 419.8337 353.7993Q420.23996 353.51804 420.73996 353.51804Q421.44308 353.51804 422.17746 353.97116L421.69308 355.26804Q421.17746 354.97116 420.66183 354.97116Q420.2087 354.97116 419.84152 355.2446Q419.47433 355.51804 419.31808 356.01804Q419.0837 356.76804 419.0837 357.65866L419.0837 362.0024L417.67746 362.0024ZM426.0837 360.7368L426.28683 361.9868Q425.69308 362.1118 425.22433 362.1118Q424.4587 362.1118 424.03683 361.8696Q423.61496 361.6274 423.44308 361.22897Q423.2712 360.83054 423.2712 359.5649L423.2712 354.7993L422.23996 354.7993L422.23996 353.70554L423.2712 353.70554L423.2712 351.64304L424.67746 350.7993L424.67746 353.70554L426.0837 353.70554L426.0837 354.7993L424.67746 354.7993L424.67746 359.64304Q424.67746 360.2524 424.74777 360.4243Q424.81808 360.59616 424.98996 360.69772Q425.16183 360.7993 425.47433 360.7993Q425.7087 360.7993 426.0837 360.7368ZM427.41183 365.20554L427.25558 363.8774Q427.7087 364.0024 428.05246 364.0024Q428.5212 364.0024 428.80246 363.84616Q429.0837 363.6899 429.2712 363.40866Q429.3962 363.20554 429.69308 362.3618Q429.73996 362.2524 429.81808 362.01804L426.67746 353.70554L428.19308 353.70554L429.91183 358.5024Q430.25558 359.4243 430.5212 360.4243Q430.75558 359.45554 431.09933 358.53366L432.86496 353.70554L434.2712 353.70554L431.11496 362.14304Q430.61496 363.51804 430.3337 364.03366Q429.9587 364.72116 429.47433 365.0493Q428.98996 365.3774 428.31808 365.3774Q427.91183 365.3774 427.41183 365.20554Z" fill-rule="nonzero" fill="#000000"></path><path d="M342.05774 168.70886L357.9475 152.8191L373.83728 168.70886L365.8924 168.70886L365.8924 219.98445L373.83728 219.98445L357.9475 235.87422L342.05774 219.98445L350.00262 219.98445L350.00262 168.70886Z" fill-rule="nonzero" fill="#cfe2f3" stroke="#073763" stroke-width="2.0" stroke-linejoin="round" stroke-linecap="butt"></path><path d="M313.4499 133.9868L314.9655 134.3618Q314.49677 136.2368 313.25458 137.22118Q312.0124 138.20555 310.23114 138.20555Q308.37177 138.20555 307.2155 137.44774Q306.05927 136.68993 305.4499 135.26024Q304.8405 133.83055 304.8405 132.18993Q304.8405 130.39305 305.528 129.06493Q306.2155 127.73679 307.47333 127.04148Q308.73114 126.34617 310.24677 126.34617Q311.9655 126.34617 313.1374 127.22117Q314.30927 128.09618 314.778 129.68993L313.278 130.03368Q312.8874 128.78368 312.12958 128.21336Q311.37177 127.64304 310.2155 127.64304Q308.903 127.64304 308.0124 128.27586Q307.12177 128.90868 306.7624 129.97899Q306.403 131.0493 306.403 132.1743Q306.403 133.64305 306.8327 134.72899Q307.2624 135.81493 308.16083 136.35399Q309.05927 136.89305 310.10614 136.89305Q311.37177 136.89305 312.25458 136.15868Q313.1374 135.4243 313.4499 133.9868ZM316.62177 138.00243L316.62177 126.54929L318.028 126.54929L318.028 138.00243L316.62177 138.00243ZM319.68427 133.84618Q319.68427 131.5493 320.9655 130.43993Q322.04364 129.51805 323.5749 129.51805Q325.29364 129.51805 326.37958 130.63524Q327.4655 131.75243 327.4655 133.7368Q327.4655 135.33055 326.98114 136.25243Q326.49677 137.1743 325.5827 137.68211Q324.66864 138.18993 323.5749 138.18993Q321.8405 138.18993 320.7624 137.07274Q319.68427 135.95555 319.68427 133.84618ZM321.1374 133.84618Q321.1374 135.43993 321.8327 136.2368Q322.528 137.03368 323.5749 137.03368Q324.62177 137.03368 325.31708 136.2368Q326.0124 135.43993 326.0124 133.7993Q326.0124 132.26805 325.31708 131.47118Q324.62177 130.6743 323.5749 130.6743Q322.528 130.6743 321.8327 131.46336Q321.1374 132.25243 321.1374 133.84618ZM334.54364 138.00243L334.54364 136.78368Q333.5749 138.18993 331.903 138.18993Q331.16864 138.18993 330.53583 137.90868Q329.903 137.62743 329.5905 137.19774Q329.278 136.76805 329.153 136.15868Q329.0749 135.7368 329.0749 134.84618L329.0749 129.70555L330.48114 129.70555L330.48114 134.2993Q330.48114 135.40868 330.55927 135.78368Q330.6999 136.34618 331.12958 136.65868Q331.55927 136.97118 332.18427 136.97118Q332.8249 136.97118 333.37958 136.65086Q333.93427 136.33055 334.16083 135.76805Q334.3874 135.20555 334.3874 134.14305L334.3874 129.70555L335.79364 129.70555L335.79364 138.00243L334.54364 138.00243ZM343.3874 138.00243L343.3874 136.95555Q342.60614 138.18993 341.0749 138.18993Q340.0749 138.18993 339.24677 137.64305Q338.41864 137.09618 337.9577 136.1118Q337.49677 135.12743 337.49677 133.8618Q337.49677 132.6118 337.91083 131.60399Q338.3249 130.59618 339.153 130.05711Q339.98114 129.51805 341.0124 129.51805Q341.7624 129.51805 342.34833 129.83055Q342.93427 130.14305 343.29364 130.65868L343.29364 126.54929L344.6999 126.54929L344.6999 138.00243L343.3874 138.00243ZM338.9499 133.8618Q338.9499 135.45555 339.62177 136.24461Q340.29364 137.03368 341.1999 137.03368Q342.12177 137.03368 342.7702 136.27586Q343.41864 135.51805 343.41864 133.97118Q343.41864 132.26805 342.7624 131.47118Q342.10614 130.6743 341.1374 130.6743Q340.1999 130.6743 339.5749 131.43993Q338.9499 132.20555 338.9499 133.8618ZM359.6999 133.9868L361.2155 134.3618Q360.74677 136.2368 359.50458 137.22118Q358.2624 138.20555 356.48114 138.20555Q354.62177 138.20555 353.4655 137.44774Q352.30927 136.68993 351.6999 135.26024Q351.0905 133.83055 351.0905 132.18993Q351.0905 130.39305 351.778 129.06493Q352.4655 127.73679 353.72333 127.04148Q354.98114 126.34617 356.49677 126.34617Q358.2155 126.34617 359.3874 127.22117Q360.55927 128.09618 361.028 129.68993L359.528 130.03368Q359.1374 128.78368 358.37958 128.21336Q357.62177 127.64304 356.4655 127.64304Q355.153 127.64304 354.2624 128.27586Q353.37177 128.90868 353.0124 129.97899Q352.653 131.0493 352.653 132.1743Q352.653 133.64305 353.0827 134.72899Q353.5124 135.81493 354.41083 136.35399Q355.30927 136.89305 356.35614 136.89305Q357.62177 136.89305 358.50458 136.15868Q359.3874 135.4243 359.6999 133.9868ZM368.3405 138.00243L368.3405 136.78368Q367.37177 138.18993 365.6999 138.18993Q364.9655 138.18993 364.3327 137.90868Q363.6999 137.62743 363.3874 137.19774Q363.0749 136.76805 362.9499 136.15868Q362.87177 135.7368 362.87177 134.84618L362.87177 129.70555L364.278 129.70555L364.278 134.2993Q364.278 135.40868 364.35614 135.78368Q364.49677 136.34618 364.92645 136.65868Q365.35614 136.97118 365.98114 136.97118Q366.62177 136.97118 367.17645 136.65086Q367.73114 136.33055 367.9577 135.76805Q368.18427 135.20555 368.18427 134.14305L368.18427 129.70555L369.5905 129.70555L369.5905 138.00243L368.3405 138.00243ZM371.24677 135.51805L372.6374 135.2993Q372.74677 136.14305 373.28583 136.58836Q373.8249 137.03368 374.778 137.03368Q375.74677 137.03368 376.2155 136.63524Q376.68427 136.2368 376.68427 135.70555Q376.68427 135.2368 376.278 134.95555Q375.98114 134.76805 374.8405 134.4868Q373.29364 134.09618 372.69208 133.80711Q372.0905 133.51805 371.78583 133.01805Q371.48114 132.51805 371.48114 131.90868Q371.48114 131.34618 371.73114 130.87743Q371.98114 130.40868 372.41864 130.09618Q372.74677 129.84618 373.31708 129.68211Q373.8874 129.51805 374.528 129.51805Q375.5124 129.51805 376.24677 129.7993Q376.98114 130.08055 377.3327 130.55711Q377.68427 131.03368 377.8249 131.84618L376.4499 132.03368Q376.35614 131.39305 375.903 131.03368Q375.4499 130.6743 374.6374 130.6743Q373.66864 130.6743 373.25458 130.99461Q372.8405 131.31493 372.8405 131.7368Q372.8405 132.01805 373.0124 132.2368Q373.18427 132.45555 373.54364 132.6118Q373.7624 132.68993 374.79364 132.97118Q376.278 133.3618 376.87177 133.61961Q377.4655 133.87743 377.80145 134.3618Q378.1374 134.84618 378.1374 135.56493Q378.1374 136.26805 377.72333 136.88524Q377.30927 137.50243 376.53583 137.84618Q375.7624 138.18993 374.79364 138.18993Q373.16864 138.18993 372.3249 137.51805Q371.48114 136.84618 371.24677 135.51805ZM382.87177 136.7368L383.0749 137.9868Q382.48114 138.1118 382.0124 138.1118Q381.24677 138.1118 380.8249 137.86961Q380.403 137.62743 380.23114 137.22899Q380.05927 136.83055 380.05927 135.56493L380.05927 130.7993L379.028 130.7993L379.028 129.70555L380.05927 129.70555L380.05927 127.64304L381.4655 126.79929L381.4655 129.70555L382.87177 129.70555L382.87177 130.7993L381.4655 130.7993L381.4655 135.64305Q381.4655 136.25243 381.53583 136.4243Q381.60614 136.59618 381.778 136.69774Q381.9499 136.7993 382.2624 136.7993Q382.49677 136.7993 382.87177 136.7368ZM383.7155 133.84618Q383.7155 131.5493 384.99677 130.43993Q386.0749 129.51805 387.60614 129.51805Q389.3249 129.51805 390.41083 130.63524Q391.49677 131.75243 391.49677 133.7368Q391.49677 135.33055 391.0124 136.25243Q390.528 137.1743 389.61395 137.68211Q388.6999 138.18993 387.60614 138.18993Q385.87177 138.18993 384.79364 137.07274Q383.7155 135.95555 383.7155 133.84618ZM385.16864 133.84618Q385.16864 135.43993 385.86395 136.2368Q386.55927 137.03368 387.60614 137.03368Q388.653 137.03368 389.34833 136.2368Q390.04364 135.43993 390.04364 133.7993Q390.04364 132.26805 389.34833 131.47118Q388.653 130.6743 387.60614 130.6743Q386.55927 130.6743 385.86395 131.46336Q385.16864 132.25243 385.16864 133.84618ZM393.153 138.00243L393.153 129.70555L394.403 129.70555L394.403 130.8618Q394.79364 130.25243 395.44208 129.88524Q396.0905 129.51805 396.91864 129.51805Q397.8405 129.51805 398.43427 129.90086Q399.028 130.28368 399.2624 130.97118Q400.24677 129.51805 401.8249 129.51805Q403.05927 129.51805 403.72333 130.19774Q404.3874 130.87743 404.3874 132.2993L404.3874 138.00243L402.99677 138.00243L402.99677 132.76805Q402.99677 131.9243 402.85614 131.55711Q402.7155 131.18993 402.35614 130.96336Q401.99677 130.7368 401.5124 130.7368Q400.6374 130.7368 400.05927 131.31493Q399.48114 131.89305 399.48114 133.1743L399.48114 138.00243L398.0749 138.00243L398.0749 132.6118Q398.0749 131.6743 397.73114 131.20555Q397.3874 130.7368 396.60614 130.7368Q396.0124 130.7368 395.5124 131.0493Q395.0124 131.3618 394.78583 131.96336Q394.55927 132.56493 394.55927 133.68993L394.55927 138.00243L393.153 138.00243ZM412.153 135.33055L413.60614 135.50243Q413.2624 136.78368 412.3327 137.4868Q411.403 138.18993 409.9655 138.18993Q408.1374 138.18993 407.0749 137.06493Q406.0124 135.93993 406.0124 133.9243Q406.0124 131.83055 407.0905 130.6743Q408.16864 129.51805 409.8874 129.51805Q411.54364 129.51805 412.59833 130.65086Q413.653 131.78368 413.653 133.83055Q413.653 133.95555 413.653 134.20555L407.4655 134.20555Q407.54364 135.58055 408.23895 136.30711Q408.93427 137.03368 409.9655 137.03368Q410.74677 137.03368 411.29364 136.62743Q411.8405 136.22118 412.153 135.33055ZM407.54364 133.0493L412.16864 133.0493Q412.0749 132.00243 411.6374 131.4868Q410.9655 130.6743 409.903 130.6743Q408.93427 130.6743 408.2702 131.32274Q407.60614 131.97118 407.54364 133.0493ZM415.35614 138.00243L415.35614 129.70555L416.62177 129.70555L416.62177 130.95555Q417.10614 130.08055 417.5124 129.7993Q417.91864 129.51805 418.41864 129.51805Q419.12177 129.51805 419.85614 129.97118L419.37177 131.26805Q418.85614 130.97118 418.3405 130.97118Q417.8874 130.97118 417.5202 131.24461Q417.153 131.51805 416.99677 132.01805Q416.7624 132.76805 416.7624 133.65868L416.7624 138.00243L415.35614 138.00243Z" fill-rule="nonzero" fill="#000000"></path><path d="M286.53326 187.54208L287.76764 187.85458Q287.377 189.37021 286.3692 190.16708Q285.3614 190.96396 283.90826 190.96396Q282.40826 190.96396 281.46295 190.35458Q280.51764 189.74521 280.02545 188.58115Q279.53326 187.41708 279.53326 186.08896Q279.53326 184.63583 280.09576 183.5499Q280.65826 182.46396 281.6817 181.90146Q282.70514 181.33896 283.9395 181.33896Q285.33014 181.33896 286.28326 182.0499Q287.2364 182.76083 287.6114 184.05771L286.39264 184.33896Q286.0645 183.32333 285.45514 182.8624Q284.84576 182.40146 283.90826 182.40146Q282.83014 182.40146 282.1114 182.91708Q281.39264 183.43271 281.10358 184.29208Q280.8145 185.15146 280.8145 186.07333Q280.8145 187.26083 281.15826 188.15146Q281.502 189.04208 282.22858 189.47958Q282.95514 189.91708 283.8145 189.91708Q284.84576 189.91708 285.5645 189.31552Q286.28326 188.71396 286.53326 187.54208ZM293.7989 190.80771L293.7989 189.82333Q293.002 190.96396 291.65826 190.96396Q291.0645 190.96396 290.54108 190.72958Q290.01764 190.49521 289.76764 190.15146Q289.51764 189.80771 289.4239 189.30771Q289.34576 188.97958 289.34576 188.24521L289.34576 184.07333L290.4864 184.07333L290.4864 187.80771Q290.4864 188.69833 290.5645 189.01083Q290.6739 189.46396 291.01764 189.72177Q291.3614 189.97958 291.877 189.97958Q292.39264 189.97958 292.84576 189.71396Q293.2989 189.44833 293.4864 188.99521Q293.6739 188.54208 293.6739 187.68271L293.6739 184.07333L294.8145 184.07333L294.8145 190.80771L293.7989 190.80771ZM296.34576 188.79208L297.47076 188.62021Q297.5645 189.29208 298.002 189.65927Q298.4395 190.02646 299.22076 190.02646Q300.002 190.02646 300.38483 189.70615Q300.76764 189.38583 300.76764 188.94833Q300.76764 188.55771 300.4239 188.33896Q300.1895 188.18271 299.252 187.94833Q298.002 187.63583 297.51764 187.40146Q297.03326 187.16708 296.78326 186.76083Q296.53326 186.35458 296.53326 185.85458Q296.53326 185.40146 296.7364 185.01865Q296.9395 184.63583 297.2989 184.38583Q297.5645 184.18271 298.02545 184.0499Q298.4864 183.91708 299.01764 183.91708Q299.7989 183.91708 300.40045 184.14365Q301.002 184.37021 301.29108 184.76083Q301.58014 185.15146 301.6895 185.80771L300.5645 185.96396Q300.4864 185.43271 300.127 185.14365Q299.76764 184.85458 299.09576 184.85458Q298.3145 184.85458 297.97076 185.1124Q297.627 185.37021 297.627 185.72958Q297.627 185.94833 297.76764 186.12021Q297.90826 186.30771 298.20514 186.43271Q298.377 186.49521 299.22076 186.71396Q300.4395 187.04208 300.91608 187.24521Q301.39264 187.44833 301.66608 187.84677Q301.9395 188.24521 301.9395 188.82333Q301.9395 189.40146 301.60358 189.90146Q301.26764 190.40146 300.64264 190.68271Q300.01764 190.96396 299.22076 190.96396Q297.90826 190.96396 297.22076 190.41708Q296.53326 189.87021 296.34576 188.79208ZM305.95514 189.79208L306.1114 190.79208Q305.627 190.90146 305.252 190.90146Q304.627 190.90146 304.28326 190.69833Q303.9395 190.49521 303.7989 190.1749Q303.65826 189.85458 303.65826 188.83896L303.65826 184.94833L302.83014 184.94833L302.83014 184.07333L303.65826 184.07333L303.65826 182.40146L304.7989 181.71396L304.7989 184.07333L305.95514 184.07333L305.95514 184.94833L304.7989 184.94833L304.7989 188.90146Q304.7989 189.38583 304.8614 189.52646Q304.9239 189.66708 305.0567 189.74521Q305.1895 189.82333 305.4395 189.82333Q305.64264 189.82333 305.95514 189.79208ZM306.7364 187.43271Q306.7364 185.55771 307.76764 184.66708Q308.64264 183.91708 309.89264 183.91708Q311.28326 183.91708 312.16608 184.82333Q313.0489 185.72958 313.0489 187.33896Q313.0489 188.63583 312.65826 189.38583Q312.26764 190.13583 311.51764 190.5499Q310.76764 190.96396 309.89264 190.96396Q308.47076 190.96396 307.60358 190.05771Q306.7364 189.15146 306.7364 187.43271ZM307.90826 187.43271Q307.90826 188.72958 308.47076 189.37802Q309.03326 190.02646 309.89264 190.02646Q310.7364 190.02646 311.3067 189.37802Q311.877 188.72958 311.877 187.40146Q311.877 186.15146 311.3067 185.50302Q310.7364 184.85458 309.89264 184.85458Q309.03326 184.85458 308.47076 185.49521Q307.90826 186.13583 307.90826 187.43271ZM314.58014 190.80771L314.58014 184.07333L315.59576 184.07333L315.59576 185.01083Q315.9239 184.51083 316.44733 184.21396Q316.97076 183.91708 317.64264 183.91708Q318.39264 183.91708 318.8692 184.22958Q319.34576 184.54208 319.5489 185.08896Q320.34576 183.91708 321.627 183.91708Q322.627 183.91708 323.16608 184.47177Q323.70514 185.02646 323.70514 186.18271L323.70514 190.80771L322.58014 190.80771L322.58014 186.55771Q322.58014 185.87021 322.47076 185.57333Q322.3614 185.27646 322.0645 185.08896Q321.76764 184.90146 321.377 184.90146Q320.65826 184.90146 320.1895 185.37802Q319.72076 185.85458 319.72076 186.88583L319.72076 190.80771L318.58014 190.80771L318.58014 186.43271Q318.58014 185.66708 318.2989 185.28427Q318.01764 184.90146 317.39264 184.90146Q316.90826 184.90146 316.502 185.15927Q316.09576 185.41708 315.90826 185.90146Q315.72076 186.38583 315.72076 187.30771L315.72076 190.80771L314.58014 190.80771ZM330.28326 188.63583L331.47076 188.77646Q331.1895 189.82333 330.4317 190.39365Q329.6739 190.96396 328.502 190.96396Q327.01764 190.96396 326.15045 190.0499Q325.28326 189.13583 325.28326 187.49521Q325.28326 185.79208 326.16608 184.85458Q327.0489 183.91708 328.4395 183.91708Q329.7989 183.91708 330.65045 184.83896Q331.502 185.76083 331.502 187.41708Q331.502 187.52646 331.502 187.72958L326.47076 187.72958Q326.53326 188.83896 327.09576 189.43271Q327.65826 190.02646 328.502 190.02646Q329.14264 190.02646 329.58795 189.69052Q330.03326 189.35458 330.28326 188.63583ZM326.53326 186.79208L330.2989 186.79208Q330.22076 185.93271 329.8614 185.51083Q329.3145 184.85458 328.45514 184.85458Q327.65826 184.85458 327.127 185.37802Q326.59576 185.90146 326.53326 186.79208ZM333.08014 190.80771L333.08014 184.07333L334.1114 184.07333L334.1114 185.08896Q334.502 184.37021 334.83795 184.14365Q335.1739 183.91708 335.5645 183.91708Q336.14264 183.91708 336.7364 184.27646L336.34576 185.33896Q335.9239 185.08896 335.51764 185.08896Q335.14264 185.08896 334.83795 185.31552Q334.53326 185.54208 334.40826 185.94833Q334.22076 186.55771 334.22076 187.27646L334.22076 190.80771L333.08014 190.80771Z" fill-rule="nonzero" fill="#000000"></path><path d="M275.65826 205.80771L275.65826 199.07333L276.6895 199.07333L276.6895 200.08896Q277.08014 199.37021 277.41608 199.14365Q277.752 198.91708 278.14264 198.91708Q278.72076 198.91708 279.3145 199.27646L278.9239 200.33896Q278.502 200.08896 278.09576 200.08896Q277.72076 200.08896 277.41608 200.31552Q277.1114 200.54208 276.9864 200.94833Q276.7989 201.55771 276.7989 202.27646L276.7989 205.80771L275.65826 205.80771ZM284.72076 203.63583L285.90826 203.77646Q285.627 204.82333 284.8692 205.39365Q284.1114 205.96396 282.9395 205.96396Q281.45514 205.96396 280.58795 205.0499Q279.72076 204.13583 279.72076 202.49521Q279.72076 200.79208 280.60358 199.85458Q281.4864 198.91708 282.877 198.91708Q284.2364 198.91708 285.08795 199.83896Q285.9395 200.76083 285.9395 202.41708Q285.9395 202.52646 285.9395 202.72958L280.90826 202.72958Q280.97076 203.83896 281.53326 204.43271Q282.09576 205.02646 282.9395 205.02646Q283.58014 205.02646 284.02545 204.69052Q284.47076 204.35458 284.72076 203.63583ZM280.97076 201.79208L284.7364 201.79208Q284.65826 200.93271 284.2989 200.51083Q283.752 199.85458 282.89264 199.85458Q282.09576 199.85458 281.5645 200.37802Q281.03326 200.90146 280.97076 201.79208ZM287.3145 206.37021L288.4395 206.52646Q288.502 207.04208 288.8145 207.27646Q289.252 207.60458 289.9864 207.60458Q290.76764 207.60458 291.20514 207.28427Q291.64264 206.96396 291.78326 206.38583Q291.877 206.04208 291.877 204.93271Q291.127 205.80771 290.002 205.80771Q288.6114 205.80771 287.85358 204.80771Q287.09576 203.80771 287.09576 202.40146Q287.09576 201.43271 287.44733 200.62021Q287.7989 199.80771 288.45514 199.3624Q289.1114 198.91708 290.01764 198.91708Q291.20514 198.91708 291.9864 199.88583L291.9864 199.07333L293.03326 199.07333L293.03326 204.88583Q293.03326 206.46396 292.71295 207.12021Q292.39264 207.77646 291.69733 208.15927Q291.002 208.54208 289.9864 208.54208Q288.78326 208.54208 288.04108 208.00302Q287.2989 207.46396 287.3145 206.37021ZM288.26764 202.32333Q288.26764 203.63583 288.79108 204.24521Q289.3145 204.85458 290.1114 204.85458Q290.90826 204.85458 291.4395 204.25302Q291.97076 203.65146 291.97076 202.35458Q291.97076 201.12021 291.4239 200.4874Q290.877 199.85458 290.09576 199.85458Q289.33014 199.85458 288.7989 200.47958Q288.26764 201.10458 288.26764 202.32333ZM294.9395 197.82333L294.9395 196.49521L296.08014 196.49521L296.08014 197.82333L294.9395 197.82333ZM294.9395 205.80771L294.9395 199.07333L296.08014 199.07333L296.08014 205.80771L294.9395 205.80771ZM297.4395 203.79208L298.5645 203.62021Q298.65826 204.29208 299.09576 204.65927Q299.53326 205.02646 300.3145 205.02646Q301.09576 205.02646 301.47858 204.70615Q301.8614 204.38583 301.8614 203.94833Q301.8614 203.55771 301.51764 203.33896Q301.28326 203.18271 300.34576 202.94833Q299.09576 202.63583 298.6114 202.40146Q298.127 202.16708 297.877 201.76083Q297.627 201.35458 297.627 200.85458Q297.627 200.40146 297.83014 200.01865Q298.03326 199.63583 298.39264 199.38583Q298.65826 199.18271 299.1192 199.0499Q299.58014 198.91708 300.1114 198.91708Q300.89264 198.91708 301.4942 199.14365Q302.09576 199.37021 302.38483 199.76083Q302.6739 200.15146 302.78326 200.80771L301.65826 200.96396Q301.58014 200.43271 301.22076 200.14365Q300.8614 199.85458 300.1895 199.85458Q299.40826 199.85458 299.0645 200.1124Q298.72076 200.37021 298.72076 200.72958Q298.72076 200.94833 298.8614 201.12021Q299.002 201.30771 299.2989 201.43271Q299.47076 201.49521 300.3145 201.71396Q301.53326 202.04208 302.00983 202.24521Q302.4864 202.44833 302.75983 202.84677Q303.03326 203.24521 303.03326 203.82333Q303.03326 204.40146 302.69733 204.90146Q302.3614 205.40146 301.7364 205.68271Q301.1114 205.96396 300.3145 205.96396Q299.002 205.96396 298.3145 205.41708Q297.627 204.87021 297.4395 203.79208ZM307.0645 204.79208L307.22076 205.79208Q306.7364 205.90146 306.3614 205.90146Q305.7364 205.90146 305.39264 205.69833Q305.0489 205.49521 304.90826 205.1749Q304.76764 204.85458 304.76764 203.83896L304.76764 199.94833L303.9395 199.94833L303.9395 199.07333L304.76764 199.07333L304.76764 197.40146L305.90826 196.71396L305.90826 199.07333L307.0645 199.07333L307.0645 199.94833L305.90826 199.94833L305.90826 203.90146Q305.90826 204.38583 305.97076 204.52646Q306.03326 204.66708 306.16608 204.74521Q306.2989 204.82333 306.5489 204.82333Q306.752 204.82333 307.0645 204.79208ZM308.252 205.80771L308.252 199.07333L309.28326 199.07333L309.28326 200.08896Q309.6739 199.37021 310.00983 199.14365Q310.34576 198.91708 310.7364 198.91708Q311.3145 198.91708 311.90826 199.27646L311.51764 200.33896Q311.09576 200.08896 310.6895 200.08896Q310.3145 200.08896 310.00983 200.31552Q309.70514 200.54208 309.58014 200.94833Q309.39264 201.55771 309.39264 202.27646L309.39264 205.80771L308.252 205.80771ZM317.09576 204.97958Q316.47076 205.51083 315.88483 205.7374Q315.2989 205.96396 314.627 205.96396Q313.502 205.96396 312.90826 205.41708Q312.3145 204.87021 312.3145 204.02646Q312.3145 203.54208 312.54108 203.12802Q312.76764 202.71396 313.13483 202.46396Q313.502 202.21396 313.95514 202.08896Q314.28326 202.01083 314.97076 201.91708Q316.34576 201.76083 317.002 201.52646Q317.01764 201.29208 317.01764 201.22958Q317.01764 200.52646 316.6895 200.24521Q316.252 199.85458 315.39264 199.85458Q314.58014 199.85458 314.19733 200.13583Q313.8145 200.41708 313.627 201.13583L312.51764 200.99521Q312.65826 200.27646 313.00983 199.83115Q313.3614 199.38583 314.02545 199.15146Q314.6895 198.91708 315.5489 198.91708Q316.4239 198.91708 316.96295 199.12021Q317.502 199.32333 317.752 199.62802Q318.002 199.93271 318.1114 200.40146Q318.15826 200.69833 318.15826 201.46396L318.15826 202.97958Q318.15826 204.57333 318.2364 204.99521Q318.3145 205.41708 318.51764 205.80771L317.33014 205.80771Q317.15826 205.44833 317.09576 204.97958ZM317.002 202.41708Q316.377 202.68271 315.14264 202.85458Q314.4395 202.96396 314.14264 203.08896Q313.84576 203.21396 313.6895 203.45615Q313.53326 203.69833 313.53326 203.99521Q313.53326 204.44833 313.877 204.75302Q314.22076 205.05771 314.89264 205.05771Q315.5489 205.05771 316.0645 204.76865Q316.58014 204.47958 316.83014 203.97958Q317.002 203.60458 317.002 202.83896L317.002 202.41708ZM322.6114 204.79208L322.76764 205.79208Q322.28326 205.90146 321.90826 205.90146Q321.28326 205.90146 320.9395 205.69833Q320.59576 205.49521 320.45514 205.1749Q320.3145 204.85458 320.3145 203.83896L320.3145 199.94833L319.4864 199.94833L319.4864 199.07333L320.3145 199.07333L320.3145 197.40146L321.45514 196.71396L321.45514 199.07333L322.6114 199.07333L322.6114 199.94833L321.45514 199.94833L321.45514 203.90146Q321.45514 204.38583 321.51764 204.52646Q321.58014 204.66708 321.71295 204.74521Q321.84576 204.82333 322.09576 204.82333Q322.2989 204.82333 322.6114 204.79208ZM323.8145 197.82333L323.8145 196.49521L324.95514 196.49521L324.95514 197.82333L323.8145 197.82333ZM323.8145 205.80771L323.8145 199.07333L324.95514 199.07333L324.95514 205.80771L323.8145 205.80771ZM326.3614 202.43271Q326.3614 200.55771 327.39264 199.66708Q328.26764 198.91708 329.51764 198.91708Q330.90826 198.91708 331.79108 199.82333Q332.6739 200.72958 332.6739 202.33896Q332.6739 203.63583 332.28326 204.38583Q331.89264 205.13583 331.14264 205.5499Q330.39264 205.96396 329.51764 205.96396Q328.09576 205.96396 327.22858 205.05771Q326.3614 204.15146 326.3614 202.43271ZM327.53326 202.43271Q327.53326 203.72958 328.09576 204.37802Q328.65826 205.02646 329.51764 205.02646Q330.3614 205.02646 330.9317 204.37802Q331.502 203.72958 331.502 202.40146Q331.502 201.15146 330.9317 200.50302Q330.3614 199.85458 329.51764 199.85458Q328.65826 199.85458 328.09576 200.49521Q327.53326 201.13583 327.53326 202.43271ZM334.1895 205.80771L334.1895 199.07333L335.22076 199.07333L335.22076 200.02646Q335.95514 198.91708 337.3614 198.91708Q337.97076 198.91708 338.47858 199.13583Q338.9864 199.35458 339.2442 199.70615Q339.502 200.05771 339.59576 200.55771Q339.65826 200.87021 339.65826 201.66708L339.65826 205.80771L338.51764 205.80771L338.51764 201.71396Q338.51764 201.01083 338.38483 200.66708Q338.252 200.32333 337.91608 200.1124Q337.58014 199.90146 337.127 199.90146Q336.39264 199.90146 335.8614 200.3624Q335.33014 200.82333 335.33014 202.12021L335.33014 205.80771L334.1895 205.80771Z" fill-rule="nonzero" fill="#000000"></path></svg>

