<?xml version="1.0" encoding="UTF-8" standalone="no"?>
<svg
   xmlns:dc="http://purl.org/dc/elements/1.1/"
   xmlns:cc="http://creativecommons.org/ns#"
   xmlns:rdf="http://www.w3.org/1999/02/22-rdf-syntax-ns#"
   xmlns:svg="http://www.w3.org/2000/svg"
   xmlns="http://www.w3.org/2000/svg"
   xmlns:sodipodi="http://sodipodi.sourceforge.net/DTD/sodipodi-0.dtd"
   xmlns:inkscape="http://www.inkscape.org/namespaces/inkscape"
   version="1.1"
   viewBox="0 0 716.263 308.92734"
   stroke-miterlimit="10"
   id="svg2"
   inkscape:version="0.48.0 r9654"
   width="100%"
   height="100%"
   sodipodi:docname="ArchitectureDownload.svg"
   style="fill:none;stroke:none">
  <metadata
     id="metadata124">
    <rdf:RDF>
      <cc:Work
         rdf:about="">
        <dc:format>image/svg+xml</dc:format>
        <dc:type
           rdf:resource="http://purl.org/dc/dcmitype/StillImage" />
      </cc:Work>
    </rdf:RDF>
  </metadata>
  <defs
     id="defs122" />
  <sodipodi:namedview
     pagecolor="#ffffff"
     bordercolor="#666666"
     borderopacity="1"
     objecttolerance="10"
     gridtolerance="10"
     guidetolerance="10"
     inkscape:pageopacity="0"
     inkscape:pageshadow="2"
     inkscape:window-width="966"
     inkscape:window-height="686"
     id="namedview120"
     showgrid="false"
     fit-margin-top="0"
     fit-margin-left="0"
     fit-margin-right="0"
     fit-margin-bottom="0"
     inkscape:zoom="0.80277778"
     inkscape:cx="225.27453"
     inkscape:cy="103.90536"
     inkscape:window-x="0"
     inkscape:window-y="24"
     inkscape:window-maximized="0"
     inkscape:current-layer="svg2" />
  <path
     d="m 418.26104,103.46088 0,0 c -2.58263,-24.42786 5.89667,-48.60996 21.83979,-62.284943 15.94311,-13.674984 36.55401,-14.444553 53.08673,-1.982157 l 0,0 c 5.85638,-14.20337 16.57525,-24.009817 28.91435,-26.45308 12.3392,-2.443267 24.8493,2.76362 33.7463,14.045684 l 0,0 c 4.9889,-12.877689 14.78466,-21.5298516 25.91125,-22.8862466 11.12665,-1.356398 22.00935,4.774933 28.78649,16.2182726 l 0,0 C 619.55908,6.4680954 633.89921,0.72074537 647.36131,5.3632704 660.82341,10.005796 670.98956,24.20436 673.46075,41.815162 l 0,0 c 11.0426,3.876748 20.24091,13.731958 25.21832,27.019358 4.97734,13.28739 5.24561,28.70351 0.73534,42.26533 l 0,0 c 10.8738,18.215 13.41743,42.48625 6.6817,63.75618 -6.7357,21.26993 -21.7388,36.34296 -39.41045,39.5941 -0.12455,19.96259 -8.63079,38.28 -22.23999,47.89195 -13.60916,9.61193 -30.19622,9.01745 -43.36776,-1.55436 -5.6104,23.90866 -21.4017,41.50043 -40.5516,45.17499 -19.14985,3.67459 -38.2252,-7.22678 -48.9849,-27.99427 -13.18906,10.23639 -29.01486,13.18514 -43.9074,8.18116 -14.8925,-5.004 -27.5973,-17.53928 -35.24842,-34.77812 l 0,0 c -13.47758,2.02995 -26.50855,-6.9574 -32.62565,-22.50159 -6.11713,-15.54419 -4.01823,-34.33628 5.25504,-47.04979 l 0,0 c -12.02234,-9.10735 -18.15687,-27.17937 -15.20465,-44.79219 2.95221,-17.61284 14.32218,-30.77535 28.18091,-32.62381 z"
     id="path4"
     inkscape:connector-curvature="0"
     style="fill:#cfe2f3;fill-rule:nonzero;stroke:#073763;stroke-width:2;stroke-linecap:butt;stroke-linejoin:round" />
  <path
     d="m 405.01841,181.81836 0,0 c 5.67336,4.29779 12.22747,6.24737 18.78224,5.58697 m 8.58539,63.96598 c 2.81882,-0.42453 5.58177,-1.32358 8.21765,-2.67393 m 70.93427,29.26978 c -1.98261,-3.8266 -3.64245,-7.91565 -4.95142,-12.19748 m 94.49127,-4.98397 0,0 c 1.0229,-4.35889 1.6856,-8.84516 1.9771,-13.38393 m 63.6282,-32.952 c 0.1326,-21.25325 -9.24635,-40.71295 -24.1083,-50.02058 m 56.83675,-53.32745 c -2.40685,7.23713 -6.08118,13.65708 -10.73485,18.75651 m -15.2166,-88.043094 0,0 c 0.4101,2.92252 0.5999,5.888958 0.56674,8.858214 m -63.48044,-30.554083 0,0 c -2.2483,3.405079 -4.1007,7.210203 -5.4993,11.296905 m -49.1989,-4.630422 0,0 c -1.1982,3.092805 -2.0929,6.365526 -2.6636,9.742765 m -59.998,2.66489 0,0 c 3.49826,2.637035 6.73465,5.81099 9.6381,9.452141 m -84.56367,54.815304 0,0 c 0.35597,3.36679 0.91837,6.69207 1.68201,9.94473"
     id="path6"
     inkscape:connector-curvature="0"
     style="stroke:#073763;stroke-width:2;stroke-linecap:butt;stroke-linejoin:round" />
  <path
     d="m 5.6460146,30.023834 0,0 8.0000004,0 0,2 -8.0000004,0 z m 14.0000004,0 0,0 8,0 0,2 -8,0 z m 14,0 0,0 8,0 0,2 -8,0 z m 14,0 0,0 8,0 0,2 -8,0 z m 14,0 0,0 8.00001,0 0,2 -8.00001,0 z m 14.00001,0 0,0 8,0 0,2 -8,0 z m 14,0 0,0 8,0 0,2 -8,0 z m 13.999995,0 0,0 8,0 0,2 -8,0 z m 14,0 0,0 8,0 0,2 -8,0 z m 14,0 0,0 8,0 0,2 -8,0 z m 14,0 0,0 8,0 0,2 -8,0 z m 14,0 0,0 8,0 0,2 -8,0 z m 14,0 0,0 8,0 0,2 -8,0 z m 14,0 0,0 7.99999,0 0,2 -7.99999,0 z m 13.99999,0 0,0 8,0 0,2 -8,0 z m 14,0 0,0 8,0 0,2 -8,0 z m 14,0 0,0 8,0 0,2 -8,0 z m 14,0 0,0 8,0 0,2 -8,0 z m 14,0 0,0 8,0 0,2 -8,0 z m 14,0 0,0 8,0 0,2 -8,0 z m 14,0 0,0 8,0 0,2 -8,0 z m 14,0 0,0 8,0 0,2 -8,0 z m 14,0 0,0 8,0 0,2 -8,0 z m 14,0 0,0 8,0 0,2 -8,0 z m 14,0 0,0 8,0 0,2 -8,0 z m 14.5118,1.48822 0,0 0,8 -2,0 0,-8 z m 0,14 0,0 0,8 -2,0 0,-8 z m 0,14 0,0 0,8 -2,0 0,-8 z m 0,14 0,0 0,7.999996 -2,0 0,-7.999996 z m 0,13.999996 0,0 0,8 -2,0 0,-8 z m 0,14 0,0 0,8 -2,0 0,-8 z m 0,14 0,0 0,8 -2,0 0,-8 z m 0,14 0,0 0,8 -2,0 0,-8 z m 0,14 0,0 0,8 -2,0 0,-8 z m 0,14 0,0 0,8 -2,0 0,-8 z m 0,14 0,0 0,8 -2,0 0,-8 z m 0,14 0,0 0,8 -2,0 0,-8 z m 0,14 0,0 0,8 -2,0 0,-8 z m 0,14 0,0 0,8 -2,0 0,-8 z m 0,14 0,0 0,8 -2,0 0,-8 z m 0,14 0,0 0,8 -2,0 0,-8 z m 0,14 0,0 0,8 -2,0 0,-8 z m 0,14 0,0 0,8 -2,0 0,-8 z m 0,14 0,0 0,8 -2,0 0,-8 z m -2.9843,13.01573 0,0 -8,0 0,-2 8,0 z m -14,0 0,0 -8,0 0,-2 8,0 z m -14,0 0,0 -8,0 0,-2 8,0 z m -14,0 0,0 -8,0 0,-2 8,0 z m -14,0 0,0 -8,0 0,-2 8,0 z m -14,0 0,0 -8,0 0,-2 8,0 z m -14,0 0,0 -8,0 0,-2 8,0 z m -14,0 0,0 -8,0 0,-2 8,0 z m -14,0 0,0 -8,0 0,-2 8,0 z m -14,0 0,0 -8,0 0,-2 8,0 z m -14,0 0,0 -8,0 0,-2 8,0 z m -14,0 0,0 -7.99999,0 0,-2 7.99999,0 z m -13.99999,0 0,0 -8,0 0,-2 8,0 z m -14,0 0,0 -8,0 0,-2 8,0 z m -14,0 0,0 -8,0 0,-2 8,0 z m -14,0 0,0 -8,0 0,-2 8,0 z m -14,0 0,0 -8,0 0,-2 8,0 z m -14,0 0,0 -8,0 0,-2 8,0 z m -14,0 0,0 -7.999995,0 0,-2 7.999995,0 z m -13.999995,0 0,0 -8,0 0,-2 8,0 z m -14,0 0,0 -8,0 0,-2 8,0 z m -14,0 0,0 -8,0 0,-2 8,0 z m -14,0 0,0 -8,0 0,-2 8,0 z m -14,0 0,0 -8,0 0,-2 8,0 z m -14,0 0,0 -8.0000004,0 0,-2 8.0000004,0 z m -12.5275104,-3.47248 0,0 0,-8 2,0 0,8 z m 0,-14 0,0 0,-8 2,0 0,8 z m 0,-14 0,0 0,-8 2,0 0,8 z m 0,-14 0,0 0,-8 2,0 0,8 z m 0,-14 0,0 0,-8 2,0 0,8 z m 0,-14 0,0 0,-8 2,0 0,8 z m 0,-14 0,0 0,-8 2,0 0,8 z m 0,-14 0,0 0,-8 2,0 0,8 z m 0,-14 0,0 0,-8 2,0 0,8 z m 0,-14 0,0 0,-8 2,0 0,8 z m 0,-14 0,0 0,-8 2,0 0,8 z m 0,-14 0,0 0,-8 2,0 0,8 z m 0,-14 0,0 0,-8 2,0 0,8 z m 0,-14 0,0 0,-8 2,0 0,8 z m 0,-14 0,0 0,-8 2,0 0,8 z m 0,-14 0,0 0,-8 2,0 0,8 z m 0,-14 0,0 0,-8 2,0 0,8 z m 0,-14 0,0 0,-8 2,0 0,8 z m 0,-14.000003 0,0 0,-8 2,0 0,8 z m 1,-11.031463 0,0 8.0000004,0 0,2 -8.0000004,0 z"
     id="path8"
     inkscape:connector-curvature="0"
     style="fill:#073763;fill-rule:nonzero" />
  <path
     d="m 22.349129,44.30508 1.234376,0 0,5.39062 q 0,1.39063 -0.32031,2.21875 -0.320316,0.82813 -1.14844,1.34375 -0.828126,0.51563 -2.171876,0.51563 -1.3125,0 -2.140624,-0.45313 -0.828126,-0.45312 -1.1875,-1.30469 -0.359376,-0.85156 -0.359376,-2.32031 l 0,-5.39062 1.234376,0 0,5.375 q 0,1.21875 0.22656,1.78906 0.226564,0.57031 0.77344,0.88281 0.546874,0.3125 1.34375,0.3125 1.359374,0 1.9375,-0.61719 0.578124,-0.61718 0.578124,-2.36718 l 0,-5.375 z m 2.921876,7.29687 1.125,-0.17187 q 0.09375,0.67187 0.53125,1.03906 0.4375,0.36719 1.21875,0.36719 0.78125,0 1.16406,-0.32032 0.382814,-0.32031 0.382814,-0.75781 0,-0.39062 -0.34375,-0.60937 -0.234374,-0.15625 -1.171874,-0.39063 -1.25,-0.3125 -1.734376,-0.54687 -0.484374,-0.23438 -0.734374,-0.64063 -0.25,-0.40625 -0.25,-0.90625 0,-0.45312 0.203124,-0.83594 0.203126,-0.38281 0.5625,-0.63281 0.265626,-0.20312 0.726566,-0.33594 0.460934,-0.13281 0.992184,-0.13281 0.78125,0 1.382816,0.22656 0.60156,0.22657 0.89062,0.61719 0.289064,0.39063 0.39844,1.04688 l -1.125,0.15625 q -0.07813,-0.53125 -0.4375,-0.82032 -0.359376,-0.28906 -1.03125,-0.28906 -0.78125,0 -1.125,0.25781 -0.34375,0.25782 -0.34375,0.61719 0,0.21875 0.140624,0.39063 0.140626,0.1875 0.4375,0.3125 0.171876,0.0625 1.015626,0.28125 1.21875,0.32812 1.69531,0.53125 0.476564,0.20312 0.75,0.60156 0.27344,0.39844 0.27344,0.97656 0,0.57813 -0.33594,1.07813 -0.335936,0.5 -0.960936,0.78125 -0.625,0.28125 -1.421874,0.28125 -1.3125,0 -2,-0.54688 -0.6875,-0.54687 -0.875,-1.625 z m 11.71875,-0.15625 1.1875,0.14063 q -0.28125,1.04687 -1.03906,1.61718 -0.75782,0.57032 -1.92969,0.57032 -1.484376,0 -2.35156,-0.91407 -0.86719,-0.91406 -0.86719,-2.55468 0,-1.70313 0.88281,-2.64063 0.882814,-0.9375 2.27344,-0.9375 1.35937,0 2.21094,0.92188 0.85156,0.92187 0.85156,2.57812 0,0.10938 0,0.3125 l -5.03125,0 q 0.0625,1.10938 0.625,1.70313 0.5625,0.59375 1.40625,0.59375 0.64062,0 1.08594,-0.33594 0.44531,-0.33594 0.69531,-1.05469 z m -3.75,-1.84375 3.76562,0 q -0.0781,-0.85937 -0.4375,-1.28125 -0.54687,-0.65625 -1.406246,-0.65625 -0.796874,0 -1.328124,0.52344 -0.53125,0.52344 -0.59375,1.41406 z m 6.54687,4.01563 0,-6.73438 1.03125,0 0,1.01563 q 0.39063,-0.71875 0.72657,-0.94532 0.33593,-0.22656 0.72656,-0.22656 0.57812,0 1.17187,0.35938 l -0.39062,1.0625 q -0.42188,-0.25 -0.82813,-0.25 -0.375,0 -0.67968,0.22656 -0.30469,0.22656 -0.42969,0.63281 -0.1875,0.60938 -0.1875,1.32813 l 0,3.53125 -1.14063,0 z m 10.65625,-1.01563 0.15625,1 q -0.48437,0.10938 -0.85937,0.10938 -0.625,0 -0.96875,-0.20313 -0.34375,-0.20312 -0.48438,-0.52344 -0.14062,-0.32031 -0.14062,-1.33593 l 0,-3.89063 -0.82813,0 0,-0.875 0.82813,0 0,-1.67187 1.14062,-0.6875 0,2.35937 1.15625,0 0,0.875 -1.15625,0 0,3.95313 q 0,0.48437 0.0625,0.625 0.0625,0.14062 0.19532,0.21875 0.13281,0.07812 0.38281,0.07812 0.20312,0 0.51562,-0.03125 z m 5.8125,-1.15625 1.1875,0.14063 q -0.28125,1.04687 -1.03906,1.61718 -0.75781,0.57032 -1.92969,0.57032 -1.48437,0 -2.35156,-0.91407 -0.86719,-0.91406 -0.86719,-2.55468 0,-1.70313 0.88282,-2.64063 0.88281,-0.9375 2.27343,-0.9375 1.35938,0 2.21094,0.92188 0.85156,0.92187 0.85156,2.57812 0,0.10938 0,0.3125 l -5.03125,0 q 0.0625,1.10938 0.625,1.70313 0.5625,0.59375 1.40625,0.59375 0.64063,0 1.08594,-0.33594 0.44531,-0.33594 0.69531,-1.05469 z m -3.75,-1.84375 3.76563,0 q -0.0781,-0.85937 -0.4375,-1.28125 -0.54688,-0.65625 -1.40625,-0.65625 -0.79688,0 -1.32813,0.52344 -0.53125,0.52344 -0.59375,1.41406 z m 6.53125,4.01563 0,-6.73438 1.03125,0 0,1.01563 q 0.39063,-0.71875 0.72657,-0.94532 0.33593,-0.22656 0.72656,-0.22656 0.57812,0 1.17187,0.35938 l -0.39062,1.0625 q -0.42188,-0.25 -0.82813,-0.25 -0.375,0 -0.67968,0.22656 -0.30469,0.22656 -0.42969,0.63281 -0.1875,0.60938 -0.1875,1.32813 l 0,3.53125 -1.14063,0 z m 4.45312,0 0,-6.73438 1.01563,0 0,0.9375 q 0.32812,-0.5 0.85156,-0.79687 0.52344,-0.29688 1.19531,-0.29688 0.75,0 1.22657,0.3125 0.47656,0.3125 0.67968,0.85938 0.79688,-1.17188 2.07812,-1.17188 1,0 1.53907,0.55469 0.53906,0.55469 0.53906,1.71094 l 0,4.625 -1.125,0 0,-4.25 q 0,-0.6875 -0.10937,-0.98438 -0.10938,-0.29687 -0.40626,-0.48437 -0.29687,-0.1875 -0.6875,-0.1875 -0.71874,0 -1.1875,0.47656 -0.46874,0.47656 -0.46874,1.50781 l 0,3.92188 -1.14063,0 0,-4.375 q 0,-0.76563 -0.28125,-1.14844 -0.28125,-0.38281 -0.90625,-0.38281 -0.48437,0 -0.89063,0.25781 -0.40624,0.25781 -0.59374,0.74219 -0.1875,0.48437 -0.1875,1.40625 l 0,3.5 -1.14063,0 z m 11.10937,-7.98438 0,-1.32812 1.14063,0 0,1.32812 -1.14063,0 z m 0,7.98438 0,-6.73438 1.14063,0 0,6.73438 -1.14063,0 z m 2.95313,0 0,-6.73438 1.03125,0 0,0.95313 q 0.73438,-1.10938 2.14062,-1.10938 0.60938,0 1.1172,0.21875 0.5078,0.21875 0.76562,0.57031 0.25781,0.35157 0.35156,0.85157 0.0625,0.3125 0.0625,1.10937 l 0,4.14063 -1.14062,0 0,-4.09375 q 0,-0.70313 -0.13282,-1.04688 -0.13281,-0.34375 -0.46874,-0.55469 -0.33594,-0.21093 -0.78907,-0.21093 -0.73437,0 -1.26563,0.46093 -0.53124,0.46094 -0.53124,1.75782 l 0,3.6875 -1.14063,0 z m 11.8125,-0.82813 q -0.625,0.53125 -1.21093,0.75781 -0.58594,0.22657 -1.25782,0.22657 -1.125,0 -1.71875,-0.54688 -0.59375,-0.54687 -0.59375,-1.39062 0,-0.48438 0.22656,-0.89844 0.22656,-0.41406 0.59376,-0.66406 0.36718,-0.25 0.8203,-0.375 0.32813,-0.07813 1.01563,-0.17188 1.375,-0.15625 2.03125,-0.39062 0.0156,-0.23438 0.0156,-0.29688 0,-0.70312 -0.32812,-0.98437 -0.4375,-0.39063 -1.29688,-0.39063 -0.8125,0 -1.1953,0.28125 -0.38282,0.28125 -0.57032,1 l -1.10936,-0.14062 q 0.14063,-0.71875 0.4922,-1.16407 0.35156,-0.44531 1.01562,-0.67968 0.66406,-0.23438 1.52344,-0.23438 0.875,0 1.41406,0.20313 0.53906,0.20312 0.78906,0.50781 0.25,0.30469 0.35938,0.77344 0.0469,0.29687 0.0469,1.0625 l 0,1.51562 q 0,1.59375 0.0781,2.01563 0.0781,0.42187 0.28124,0.8125 l -1.1875,0 q -0.17187,-0.35938 -0.23437,-0.82813 z m -0.0937,-2.5625 q -0.625,0.26563 -1.85938,0.4375 -0.70312,0.10938 -1,0.23438 -0.29687,0.125 -0.45312,0.36718 -0.15625,0.24219 -0.15625,0.53907 0,0.45312 0.34375,0.75781 0.34375,0.30469 1.01562,0.30469 0.65626,0 1.17188,-0.28907 0.51562,-0.28906 0.76562,-0.78906 0.17188,-0.375 0.17188,-1.14062 l 0,-0.42188 z m 3.07812,3.39063 0,-9.3125 1.14063,0 0,9.3125 -1.14063,0 z"
     id="path10"
     inkscape:connector-curvature="0"
     style="fill:#073763;fill-rule:nonzero" />
  <path
     d="m 149.78262,81.57865 0,0 c 0,-7.848105 6.36214,-14.21026 14.21025,-14.21026 l 66.28814,0 c 3.7688,0 7.38323,1.49715 10.04818,4.16209 2.66495,2.66494 4.16208,6.27938 4.16208,10.04817 l 0,56.83933 c 0,7.8481 -6.36216,14.21025 -14.21026,14.21025 l -66.28814,0 c -7.84811,0 -14.21025,-6.36215 -14.21025,-14.21025 z"
     id="path12"
     inkscape:connector-curvature="0"
     style="fill:#cfe2f3;fill-rule:nonzero;stroke:#073763;stroke-width:2;stroke-linecap:butt;stroke-linejoin:round" />
  <path
     d="m 168.49153,107.98356 0,-9.3125 3.20312,0 q 1.09375,0 1.65625,0.14062 0.8125,0.1875 1.375,0.67188 0.73438,0.60937 1.10156,1.57812 0.36719,0.96875 0.36719,2.21875 0,1.0625 -0.25,1.88282 -0.25,0.82031 -0.64062,1.35156 -0.39063,0.53125 -0.85157,0.84375 -0.46093,0.3125 -1.10937,0.46875 -0.64844,0.15625 -1.49219,0.15625 l -3.35937,0 z m 1.23437,-1.09375 1.98438,0 q 0.92187,0 1.44531,-0.17188 0.52344,-0.17187 0.83594,-0.48437 0.4375,-0.4375 0.67968,-1.17969 0.24219,-0.74219 0.24219,-1.78906 0,-1.46875 -0.47656,-2.25 -0.47656,-0.78125 -1.16406,-1.04688 -0.5,-0.1875 -1.59375,-0.1875 l -1.95313,0 0,7.10938 z m 7.82813,-2.28125 q 0,-1.875 1.03125,-2.76563 0.875,-0.75 2.125,-0.75 1.39062,0 2.27343,0.90625 0.88282,0.90625 0.88282,2.51563 0,1.29687 -0.39063,2.04687 -0.39062,0.75 -1.14062,1.16407 -0.75,0.41406 -1.625,0.41406 -1.42188,0 -2.28907,-0.90625 -0.86718,-0.90625 -0.86718,-2.625 z m 1.17187,0 q 0,1.29687 0.5625,1.94531 0.5625,0.64844 1.42188,0.64844 0.84375,0 1.41406,-0.64844 0.57031,-0.64844 0.57031,-1.97656 0,-1.25 -0.57031,-1.89844 -0.57031,-0.64844 -1.41406,-0.64844 -0.85938,0 -1.42188,0.64063 -0.5625,0.64062 -0.5625,1.9375 z m 7.89063,3.375 -2.0625,-6.73438 1.1875,0 1.07812,3.89063 0.39063,1.4375 q 0.0312,-0.10938 0.35937,-1.39063 l 1.0625,-3.9375 1.17188,0 1.01562,3.90625 0.34375,1.28125 0.37501,-1.29687 1.15626,-3.89063 1.10937,0 -2.10937,6.73438 -1.17189,0 -1.07813,-4.03125 -0.26562,-1.15625 -1.35938,5.1875 -1.20312,0 z m 8.39064,0 0,-6.73438 1.03124,0 0,0.95313 q 0.73438,-1.10938 2.14063,-1.10938 0.60937,0 1.11719,0.21875 0.50781,0.21875 0.76562,0.57032 0.25782,0.35156 0.35156,0.85156 0.0625,0.3125 0.0625,1.10937 l 0,4.14063 -1.14062,0 0,-4.09375 q 0,-0.70313 -0.13281,-1.04688 -0.13281,-0.34375 -0.46875,-0.55468 -0.33594,-0.21094 -0.78906,-0.21094 -0.73438,0 -1.26563,0.46094 -0.53125,0.46093 -0.53125,1.75781 l 0,3.6875 -1.14062,0 z m 7.39062,0 0,-9.3125 1.14062,0 0,9.3125 -1.14062,0 z m 2.5625,-3.375 q 0,-1.875 1.03125,-2.76563 0.875,-0.75 2.125,-0.75 1.39063,0 2.27344,0.90625 0.88281,0.90625 0.88281,2.51563 0,1.29687 -0.39062,2.04687 -0.39063,0.75 -1.14063,1.16407 -0.75,0.41406 -1.625,0.41406 -1.42187,0 -2.28906,-0.90625 -0.86719,-0.90625 -0.86719,-2.625 z m 1.17188,0 q 0,1.29687 0.5625,1.94531 0.5625,0.64844 1.42187,0.64844 0.84375,0 1.41407,-0.64844 0.5703,-0.64844 0.5703,-1.97656 0,-1.25 -0.5703,-1.89844 -0.57032,-0.64844 -1.41407,-0.64844 -0.85937,0 -1.42187,0.64063 -0.5625,0.64062 -0.5625,1.9375 z m 11.0625,2.54687 q -0.625,0.53125 -1.21094,0.75782 -0.58594,0.22656 -1.25782,0.22656 -1.125,0 -1.71874,-0.54688 -0.59376,-0.54687 -0.59376,-1.39062 0,-0.48438 0.22657,-0.89844 0.22656,-0.41406 0.59375,-0.66406 0.36718,-0.25 0.82031,-0.375 0.32813,-0.0781 1.01563,-0.17188 1.375,-0.15625 2.03124,-0.39062 0.0156,-0.23438 0.0156,-0.29688 0,-0.70312 -0.32813,-0.98437 -0.4375,-0.39063 -1.29687,-0.39063 -0.8125,0 -1.19531,0.28125 -0.38282,0.28125 -0.57032,1 l -1.10937,-0.14062 q 0.14063,-0.71875 0.49219,-1.16406 0.35156,-0.44532 1.01562,-0.67969 0.66406,-0.23438 1.52344,-0.23438 0.875,0 1.41406,0.20313 0.53906,0.20312 0.78906,0.50781 0.25,0.30469 0.35938,0.77344 0.0469,0.29687 0.0469,1.0625 l 0,1.51562 q 0,1.59375 0.0781,2.01563 0.0781,0.42187 0.28125,0.8125 l -1.1875,0 q -0.17187,-0.35938 -0.23437,-0.82813 z m -0.0938,-2.5625 q -0.625,0.26563 -1.85937,0.4375 -0.70313,0.10938 -1,0.23438 -0.29687,0.125 -0.45313,0.36719 -0.15624,0.24218 -0.15624,0.53906 0,0.45312 0.34374,0.75781 0.34376,0.30469 1.01563,0.30469 0.65625,0 1.17187,-0.28906 0.51563,-0.28907 0.76563,-0.78907 0.17187,-0.375 0.17187,-1.14062 l 0,-0.42188 z m 7.48438,3.39063 0,-0.84375 q -0.64062,1 -1.89062,1 -0.79688,0 -1.47656,-0.44531 -0.6797,-0.44532 -1.0547,-1.24219 -0.375,-0.79688 -0.375,-1.82813 0,-1.01562 0.34376,-1.83593 0.34374,-0.82032 1.01562,-1.25782 0.67188,-0.4375 1.5,-0.4375 0.60938,0 1.08594,0.25782 0.47656,0.25781 0.77344,0.66406 l 0,-3.34375 1.14062,0 0,9.3125 -1.0625,0 z m -3.60934,-3.35938 q 0,1.29688 0.53907,1.9375 0.53906,0.64063 1.28906,0.64063 0.75,0 1.27344,-0.61719 0.52343,-0.61719 0.52343,-1.86719 0,-1.39062 -0.53124,-2.03906 -0.53126,-0.64844 -1.3125,-0.64844 -0.76563,0 -1.27344,0.625 -0.50782,0.625 -0.50782,1.96875 z"
     id="path14"
     inkscape:connector-curvature="0"
     style="fill:#000000;fill-rule:nonzero" />
  <path
     d="m 168.49153,118.45232 q 0,-2.3125 1.24218,-3.625 1.24219,-1.3125 3.21094,-1.3125 1.29688,0 2.32813,0.61718 1.03125,0.61719 1.57812,1.71875 0.54688,1.10157 0.54688,2.49219 0,1.42188 -0.57032,2.53906 -0.57031,1.11719 -1.61718,1.6875 -1.04688,0.57032 -2.26563,0.57032 -1.3125,0 -2.35156,-0.63282 -1.03906,-0.63281 -1.57031,-1.73437 -0.53125,-1.10156 -0.53125,-2.32031 z m 1.26562,0.0156 q 0,1.6875 0.90625,2.65625 0.90625,0.96875 2.28125,0.96875 1.39063,0 2.28906,-0.97656 0.89844,-0.97656 0.89844,-2.77344 0,-1.14062 -0.39062,-1.99219 -0.39063,-0.85156 -1.125,-1.3125 -0.73438,-0.46093 -1.65625,-0.46093 -1.3125,0 -2.25782,0.89843 -0.94531,0.89844 -0.94531,2.99219 z m 9.32813,7.09375 0,-9.3125 1.03125,0 0,0.875 q 0.375,-0.51562 0.83593,-0.77344 0.46094,-0.25781 1.13282,-0.25781 0.85937,0 1.51562,0.44531 0.65625,0.44532 0.99219,1.25 0.33594,0.80469 0.33594,1.77344 0,1.03125 -0.36719,1.85938 -0.36719,0.82812 -1.07813,1.27343 -0.71093,0.44532 -1.49218,0.44532 -0.5625,0 -1.01563,-0.24219 -0.45312,-0.24219 -0.75,-0.61719 l 0,3.28125 -1.14062,0 z m 1.03125,-5.90625 q 0,1.29688 0.53125,1.92188 0.53125,0.625 1.26562,0.625 0.76563,0 1.3125,-0.64844 0.54688,-0.64844 0.54688,-1.99219 0,-1.29687 -0.53125,-1.9375 -0.53125,-0.64062 -1.26563,-0.64062 -0.73437,0 -1.29687,0.67968 -0.5625,0.67969 -0.5625,1.99219 z m 11,1.15625 1.18751,0.14063 q -0.28125,1.04687 -1.03906,1.61718 -0.75783,0.57032 -1.9297,0.57032 -1.48438,0 -2.35157,-0.91407 -0.86718,-0.91406 -0.86718,-2.55468 0,-1.70313 0.88281,-2.64063 0.88281,-0.9375 2.27344,-0.9375 1.35937,0 2.21095,0.92188 0.85156,0.92187 0.85156,2.57812 0,0.10938 0,0.3125 l -5.03126,0 q 0.0625,1.10938 0.625,1.70313 0.5625,0.59375 1.40625,0.59375 0.64062,0 1.08593,-0.33594 0.44532,-0.33594 0.69532,-1.05469 z m -3.75,-1.84375 3.76562,0 q -0.0781,-0.85937 -0.4375,-1.28125 -0.54687,-0.65625 -1.40625,-0.65625 -0.79687,0 -1.32812,0.52344 -0.53125,0.52344 -0.59375,1.41406 z m 6.53126,4.01563 0,-6.73438 1.03125,0 0,1.01563 q 0.39063,-0.71875 0.72657,-0.94532 0.33593,-0.22656 0.72656,-0.22656 0.57812,0 1.17187,0.35938 l -0.39063,1.0625 q -0.42187,-0.25 -0.82812,-0.25 -0.375,0 -0.67968,0.22656 -0.3047,0.22656 -0.4297,0.63281 -0.1875,0.60938 -0.1875,1.32813 l 0,3.53125 -1.14062,0 z m 8.84375,-0.82813 q -0.625,0.53125 -1.21093,0.75781 -0.58594,0.22657 -1.25782,0.22657 -1.125,0 -1.71875,-0.54688 -0.59375,-0.54687 -0.59375,-1.39062 0,-0.48438 0.22656,-0.89844 0.22656,-0.41406 0.59376,-0.66406 0.36718,-0.25 0.8203,-0.375 0.32813,-0.0781 1.01563,-0.17188 1.375,-0.15625 2.03125,-0.39062 0.0156,-0.23438 0.0156,-0.29688 0,-0.70312 -0.32812,-0.98437 -0.4375,-0.39063 -1.29688,-0.39063 -0.8125,0 -1.1953,0.28125 -0.38282,0.28125 -0.57032,1 l -1.10938,-0.14062 q 0.14063,-0.71875 0.4922,-1.16407 0.35156,-0.44531 1.01562,-0.67968 0.66406,-0.23438 1.52344,-0.23438 0.875,0 1.41406,0.20313 0.53906,0.20312 0.78906,0.50781 0.25,0.30469 0.35938,0.77344 0.0469,0.29687 0.0469,1.0625 l 0,1.51562 q 0,1.59375 0.0781,2.01563 0.0781,0.42187 0.28124,0.8125 l -1.1875,0 q -0.17187,-0.35938 -0.23437,-0.82813 z m -0.0937,-2.5625 q -0.625,0.26563 -1.85938,0.4375 -0.70312,0.10938 -1,0.23438 -0.29687,0.125 -0.45312,0.36718 -0.15625,0.24219 -0.15625,0.53907 0,0.45312 0.34375,0.75781 0.34375,0.30469 1.01562,0.30469 0.65626,0 1.17188,-0.28907 0.51562,-0.28906 0.76562,-0.78906 0.17188,-0.375 0.17188,-1.14062 l 0,-0.42188 z m 5.625,2.375 0.15625,1 q -0.48437,0.10938 -0.85937,0.10938 -0.625,0 -0.96876,-0.20313 -0.34374,-0.20312 -0.48437,-0.52344 -0.14063,-0.32031 -0.14063,-1.33593 l 0,-3.89063 -0.82812,0 0,-0.875 0.82812,0 0,-1.67187 1.14063,-0.6875 0,2.35937 1.15625,0 0,0.875 -1.15625,0 0,3.95313 q 0,0.48437 0.0625,0.625 0.0625,0.14062 0.19531,0.21875 0.13282,0.0781 0.38282,0.0781 0.20312,0 0.51562,-0.0312 z m 1.20312,-6.96875 0,-1.32812 1.14063,0 0,1.32812 -1.14063,0 z m 0,7.98438 0,-6.73438 1.14063,0 0,6.73438 -1.14063,0 z m 2.53126,-3.375 q 0,-1.875 1.03124,-2.76563 0.875,-0.75 2.125,-0.75 1.39063,0 2.27344,0.90625 0.88282,0.90625 0.88282,2.51563 0,1.29687 -0.39063,2.04687 -0.39063,0.75 -1.14063,1.16406 -0.75,0.41407 -1.625,0.41407 -1.42187,0 -2.28906,-0.90625 -0.86718,-0.90625 -0.86718,-2.625 z m 1.17187,0 q 0,1.29687 0.5625,1.94531 0.5625,0.64844 1.42187,0.64844 0.84376,0 1.41407,-0.64844 0.57031,-0.64844 0.57031,-1.97656 0,-1.25 -0.57031,-1.89844 -0.57031,-0.64844 -1.41407,-0.64844 -0.85937,0 -1.42187,0.64063 -0.5625,0.64062 -0.5625,1.9375 z m 6.65625,3.375 0,-6.73438 1.03125,0 0,0.95313 q 0.73437,-1.10938 2.14063,-1.10938 0.60937,0 1.11718,0.21875 0.50782,0.21875 0.76563,0.57031 0.25781,0.35157 0.35156,0.85157 0.0625,0.3125 0.0625,1.10937 l 0,4.14063 -1.14063,0 0,-4.09375 q 0,-0.70313 -0.1328,-1.04688 -0.13282,-0.34375 -0.46876,-0.55469 -0.33594,-0.21093 -0.78906,-0.21093 -0.73438,0 -1.26562,0.46093 -0.53126,0.46094 -0.53126,1.75782 l 0,3.6875 -1.14062,0 z"
     id="path16"
     inkscape:connector-curvature="0"
     style="fill:#000000;fill-rule:nonzero" />
  <path
     d="m 452.96337,259.93308 c 32.68214,10.76687 32.68214,-10.7669 65.36074,-10.7669 l 0,-55.96838 -65.36074,0 z m 5.38494,-66.73528 0,-7.25595 64.9143,0 0,56.31947 c -2.4675,0 -4.9385,0.39011 -4.9385,0.39011 l 0,-49.45363 z m 5.06154,-7.25595 0,-7.0804 65.47666,0 0,56.14391 c -2.8119,0 -5.6239,0.29258 -5.6239,0.29258 l 0,-49.35609 z"
     id="path18"
     inkscape:connector-curvature="0"
     style="fill:#f4cccc;fill-rule:nonzero" />
  <path
     d="m 452.96337,193.1978 65.36074,0 0,55.96838 c -32.6786,0 -32.6786,21.53377 -65.36074,10.7669 z m 5.38494,0 0,-7.25595 64.9143,0 0,56.31947 c -2.4675,0 -4.9385,0.39011 -4.9385,0.39011 m -54.91426,-56.70958 0,-7.0804 65.47666,0 0,56.14391 c -2.8119,0 -5.6239,0.29258 -5.6239,0.29258"
     id="path20"
     inkscape:connector-curvature="0"
     style="stroke:#073763;stroke-width:2;stroke-linecap:butt;stroke-linejoin:round" />
  <path
     d="m 472.63525,232.05718 0,-9.3125 6.28126,0 0,1.10937 -5.0469,0 0,2.875 4.375,0 0,1.09375 -4.375,0 0,4.23438 -1.23436,0 z m 7.9375,-7.98438 0,-1.32812 1.14062,0 0,1.32812 -1.14062,0 z m 0,7.98438 0,-6.73438 1.14062,0 0,6.73438 -1.14062,0 z m 2.92186,0 0,-9.3125 1.14064,0 0,9.3125 -1.14064,0 z m 7.6094,-2.17188 1.1875,0.14062 q -0.28126,1.04688 -1.0391,1.61719 -0.7578,0.57031 -1.92966,0.57031 -1.48438,0 -2.35154,-0.91406 -0.8672,-0.91406 -0.8672,-2.55468 0,-1.70313 0.8828,-2.64063 0.8828,-0.9375 2.27344,-0.9375 1.35936,0 2.21096,0.92187 0.85154,0.92188 0.85154,2.57813 0,0.10937 0,0.3125 l -5.03124,0 q 0.0625,1.10937 0.625,1.70313 0.5625,0.59374 1.40624,0.59374 0.64062,0 1.08596,-0.33594 0.4453,-0.33593 0.6953,-1.05468 z m -3.75,-1.84375 3.7656,0 q -0.0781,-0.85937 -0.4375,-1.28125 -0.54686,-0.65625 -1.40624,-0.65625 -0.79686,0 -1.32812,0.52343 -0.53124,0.52344 -0.59374,1.41407 z m 6.09374,2 1.125,-0.17187 q 0.0938,0.67187 0.53126,1.03906 0.4375,0.36718 1.21874,0.36718 0.78126,0 1.16406,-0.32031 0.3828,-0.32031 0.3828,-0.75781 0,-0.39062 -0.34374,-0.60938 -0.23436,-0.15624 -1.17186,-0.39062 -1.25,-0.3125 -1.7344,-0.54688 -0.48436,-0.23437 -0.73436,-0.64062 -0.25,-0.40625 -0.25,-0.90625 0,-0.45313 0.20312,-0.83594 0.20314,-0.38281 0.5625,-0.63281 0.26564,-0.20312 0.72654,-0.33594 0.46096,-0.13281 0.9922,-0.13281 0.78126,0 1.3828,0.22656 0.6016,0.22657 0.89065,0.61719 0.28905,0.39062 0.39845,1.04688 l -1.125,0.15624 q -0.0781,-0.53124 -0.4375,-0.82031 -0.3594,-0.28906 -1.03126,-0.28906 -0.78124,0 -1.125,0.25781 -0.34374,0.25782 -0.34374,0.61719 0,0.21875 0.1406,0.39063 0.14064,0.1875 0.4375,0.3125 0.1719,0.0625 1.01564,0.28124 1.21876,0.32813 1.69531,0.53126 0.47655,0.20312 0.75,0.60156 0.27345,0.39844 0.27345,0.97656 0,0.57812 -0.33595,1.07812 -0.33595,0.5 -0.96095,0.78126 -0.625,0.28124 -1.42186,0.28124 -1.3125,0 -2,-0.54687 -0.6875,-0.54687 -0.875,-1.625 z"
     id="path22"
     inkscape:connector-curvature="0"
     style="fill:#000000;fill-rule:nonzero" />
  <path
     d="m 243.47424,128.56948 267.4331,0"
     id="path24"
     inkscape:connector-curvature="0"
     style="stroke:#073763;stroke-width:2;stroke-linecap:butt;stroke-linejoin:round" />
  <path
     d="m 78.771775,92.23557 60.472425,0"
     id="path26"
     inkscape:connector-curvature="0"
     style="stroke:#073763;stroke-width:2;stroke-linecap:butt;stroke-linejoin:round" />
  <path
     d="m 139.2442,95.53904 9.0762,-3.30347 -9.0762,-3.30346 z"
     id="path28"
     inkscape:connector-curvature="0"
     style="fill:#073763;fill-rule:evenodd;stroke:#073763;stroke-width:2;stroke-linecap:butt" />
  <path
     d="m 25.982075,210.44668 58.08375,0 0,52.81656 c -29.04032,0 -29.04032,20.32114 -58.08375,10.16056 z m 4.78538,0 0,-6.84733 57.68706,0 0,53.14787 c -2.19278,0 -4.38869,0.36814 -4.38869,0.36814 m -48.80035,-53.51601 0,-6.68167 58.18683,0 0,52.9822 c -2.4989,0 -4.99779,0.2761 -4.99779,0.2761"
     id="path30"
     inkscape:connector-curvature="0"
     style="stroke:#073763;stroke-width:2;stroke-linecap:butt;stroke-linejoin:round" />
  <path
     d="m 42.669575,239.93106 0,-9.3125 1.26562,0 4.89063,7.3125 0,-7.3125 1.1875,0 0,9.3125 -1.26563,0 -4.89062,-7.3125 0,7.3125 -1.1875,0 z m 14.10937,-2.17188 1.1875,0.14063 q -0.28125,1.04687 -1.03906,1.61719 -0.75781,0.57031 -1.92969,0.57031 -1.48437,0 -2.35156,-0.91406 -0.86719,-0.91407 -0.86719,-2.55469 0,-1.70312 0.88281,-2.64062 0.88282,-0.9375 2.27344,-0.9375 1.35938,0 2.21094,0.92187 0.85156,0.92187 0.85156,2.57813 0,0.10937 0,0.3125 l -5.03125,0 q 0.0625,1.10937 0.625,1.70312 0.5625,0.59375 1.40625,0.59375 0.64063,0 1.08594,-0.33593 0.44531,-0.33594 0.69531,-1.0547 z m -3.75,-1.84374 3.76563,0 q -0.0781,-0.85938 -0.4375,-1.28126 -0.54688,-0.65624 -1.40625,-0.65624 -0.79688,0 -1.32813,0.52344 -0.53125,0.52343 -0.59375,1.41406 z m 7.78125,4.01562 -2.0625,-6.73438 1.1875,0 1.07813,3.89063 0.39062,1.4375 q 0.0312,-0.10937 0.35938,-1.39063 l 1.0625,-3.9375 1.17187,0 1.01562,3.90626 0.34376,1.28124 0.375,-1.29687 1.15624,-3.89063 1.10938,0 -2.10938,6.73438 -1.17187,0 -1.07813,-4.03125 -0.26562,-1.15625 -1.35937,5.1875 -1.20313,0 z"
     id="path32"
     inkscape:connector-curvature="0"
     style="fill:#000000;fill-rule:nonzero" />
  <path
     d="m 42.013325,254.93106 0,-9.3125 6.28125,0 0,1.10938 -5.04688,0 0,2.875 4.375,0 0,1.09374 -4.375,0 0,4.23438 -1.23437,0 z m 7.9375,-7.98438 0,-1.32812 1.14062,0 0,1.32812 -1.14062,0 z m 0,7.98438 0,-6.73438 1.14062,0 0,6.73438 -1.14062,0 z m 2.92187,0 0,-9.3125 1.14063,0 0,9.3125 -1.14063,0 z m 7.60938,-2.17188 1.1875,0.14063 q -0.28125,1.04687 -1.03907,1.61719 -0.75781,0.57031 -1.92968,0.57031 -1.48438,0 -2.35157,-0.91406 -0.86718,-0.91407 -0.86718,-2.55469 0,-1.70312 0.88281,-2.64062 0.88281,-0.9375 2.27344,-0.9375 1.35937,0 2.21093,0.92187 0.85157,0.92187 0.85157,2.57813 0,0.10937 0,0.3125 l -5.03125,0 q 0.0625,1.10937 0.625,1.70312 0.5625,0.59375 1.40625,0.59375 0.64062,0 1.08593,-0.33593 0.44532,-0.33594 0.69532,-1.0547 z m -3.75,-1.84374 3.76562,0 q -0.0781,-0.85938 -0.4375,-1.28126 -0.54687,-0.65624 -1.40625,-0.65624 -0.79687,0 -1.32812,0.52344 -0.53125,0.52343 -0.59375,1.41406 z m 6.09375,2 1.12499,-0.17188 q 0.0938,0.67188 0.53126,1.03906 0.4375,0.36719 1.21874,0.36719 0.78126,0 1.16407,-0.32031 0.38281,-0.32032 0.38281,-0.75782 0,-0.39062 -0.34375,-0.60937 -0.23437,-0.15625 -1.17187,-0.39063 -1.25,-0.3125 -1.73438,-0.54687 -0.48438,-0.23437 -0.73438,-0.64063 -0.24999,-0.40624 -0.24999,-0.90624 0,-0.45313 0.20312,-0.83594 0.20313,-0.38282 0.5625,-0.63282 0.26563,-0.20312 0.72657,-0.33593 0.46093,-0.13281 0.99218,-0.13281 0.78125,0 1.38282,0.22656 0.60156,0.22656 0.89062,0.61718 0.28906,0.39063 0.39844,1.04688 l -1.125,0.15625 q -0.0781,-0.53125 -0.4375,-0.82031 -0.35938,-0.28906 -1.03126,-0.28906 -0.78124,0 -1.125,0.25781 -0.34374,0.25781 -0.34374,0.61719 0,0.21874 0.14062,0.39062 0.14062,0.1875 0.4375,0.3125 0.17188,0.0625 1.01562,0.28125 1.21876,0.32813 1.69532,0.53125 0.47656,0.20312 0.75,0.60156 0.27344,0.39844 0.27344,0.97656 0,0.57813 -0.33594,1.07813 -0.33594,0.5 -0.96094,0.78125 -0.625,0.28125 -1.42188,0.28125 -1.3125,0 -2,-0.54687 -0.68749,-0.54688 -0.87499,-1.625 z"
     id="path34"
     inkscape:connector-curvature="0"
     style="fill:#000000;fill-rule:nonzero" />
  <path
     d="m 150.01586,137.77158 -58.015745,0"
     id="path36"
     inkscape:connector-curvature="0"
     style="stroke:#073763;stroke-width:2;stroke-linecap:butt;stroke-linejoin:round" />
  <path
     d="m 92.000115,134.46811 -9.0762,3.30347 9.0762,3.30346 z"
     id="path38"
     inkscape:connector-curvature="0"
     style="fill:#073763;fill-rule:evenodd;stroke:#073763;stroke-width:2;stroke-linecap:butt" />
  <path
     d="m 16.00058,134.95425 0,-9.3125 1.21875,0 0,9.3125 -1.21875,0 z m 7.71875,0 0,-0.84375 q -0.640625,1 -1.890625,1 -0.796875,0 -1.47656,-0.44531 -0.67969,-0.44531 -1.05469,-1.24219 -0.375,-0.79687 -0.375,-1.82812 0,-1.01563 0.34375,-1.83594 0.34375,-0.82031 1.015625,-1.25781 0.671875,-0.4375 1.5,-0.4375 0.609375,0 1.085935,0.25781 0.476565,0.25781 0.77344,0.66406 l 0,-3.34375 1.140625,0 0,9.3125 -1.0625,0 z m -3.609375,-3.35937 q 0,1.29687 0.53906,1.9375 0.539065,0.64062 1.289065,0.64062 0.75,0 1.273435,-0.61718 0.52344,-0.61719 0.52344,-1.86719 0,-1.39063 -0.53125,-2.03906 -0.53125,-0.64844 -1.3125,-0.64844 -0.765625,0 -1.27344,0.625 -0.50781,0.625 -0.50781,1.96875 z m 11.265625,1.1875 1.1875,0.14062 q -0.28125,1.04688 -1.039065,1.61719 -0.75781,0.57031 -1.929685,0.57031 -1.484375,0 -2.351565,-0.91406 -0.867185,-0.91406 -0.867185,-2.55469 0,-1.70312 0.882815,-2.64062 0.88281,-0.9375 2.273435,-0.9375 1.359375,0 2.210935,0.92187 0.851565,0.92188 0.851565,2.57813 0,0.10937 0,0.3125 l -5.03125,0 q 0.0625,1.10937 0.625,1.70312 0.5625,0.59375 1.40625,0.59375 0.640625,0 1.085935,-0.33593 0.445315,-0.33594 0.695315,-1.05469 z m -3.75,-1.84375 3.765625,0 q -0.07813,-0.85938 -0.4375,-1.28125 -0.546875,-0.65625 -1.40625,-0.65625 -0.796875,0 -1.328125,0.52344 -0.53125,0.52343 -0.59375,1.41406 z m 6.546875,4.01562 0,-6.73437 1.03125,0 0,0.95312 q 0.73438,-1.10937 2.14063,-1.10937 0.60937,0 1.11718,0.21875 0.50782,0.21875 0.76563,0.57031 0.25781,0.35156 0.35156,0.85156 0.0625,0.3125 0.0625,1.10938 l 0,4.14062 -1.14062,0 0,-4.09375 q 0,-0.70312 -0.13282,-1.04687 -0.13281,-0.34375 -0.46875,-0.55469 -0.33593,-0.21094 -0.78906,-0.21094 -0.73437,0 -1.26562,0.46094 -0.53125,0.46094 -0.53125,1.75781 l 0,3.6875 -1.14063,0 z m 9.90625,-1.01562 0.15625,1 q -0.48437,0.10937 -0.85937,0.10937 -0.625,0 -0.96875,-0.20312 -0.34375,-0.20313 -0.48438,-0.52344 -0.14062,-0.32031 -0.14062,-1.33594 l 0,-3.89062 -0.82813,0 0,-0.875 0.82813,0 0,-1.67188 1.14062,-0.6875 0,2.35938 1.15625,0 0,0.875 -1.15625,0 0,3.95312 q 0,0.48438 0.0625,0.625 0.0625,0.14063 0.19531,0.21875 0.13282,0.0781 0.38282,0.0781 0.20312,0 0.51562,-0.0312 z m 1.20313,-6.96875 0,-1.32813 1.14062,0 0,1.32813 -1.14062,0 z m 0,7.98437 0,-6.73437 1.14062,0 0,6.73437 -1.14062,0 z m 3.23437,0 0,-5.85937 -1,0 0,-0.875 1,0 0,-0.71875 q 0,-0.6875 0.125,-1.01563 0.17188,-0.4375 0.58594,-0.71875 0.41406,-0.28125 1.16406,-0.28125 0.48438,0 1.0625,0.125 l -0.17187,0.98438 q -0.35938,-0.0625 -0.67188,-0.0625 -0.51562,0 -0.73437,0.22656 -0.21875,0.22656 -0.21875,0.83594 l 0,0.625 1.3125,0 0,0.875 -1.3125,0 0,5.85937 -1.14063,0 z m 3.4375,-7.98437 0,-1.32813 1.14063,0 0,1.32813 -1.14063,0 z m 0,7.98437 0,-6.73437 1.14063,0 0,6.73437 -1.14063,0 z m 7.5625,-2.17187 1.1875,0.14062 q -0.28125,1.04688 -1.03906,1.61719 -0.75781,0.57031 -1.92969,0.57031 -1.48437,0 -2.35156,-0.91406 -0.86719,-0.91406 -0.86719,-2.55469 0,-1.70312 0.88281,-2.64062 0.88282,-0.9375 2.27344,-0.9375 1.35938,0 2.21094,0.92187 0.85156,0.92188 0.85156,2.57813 0,0.10937 0,0.3125 l -5.03125,0 q 0.0625,1.10937 0.625,1.70312 0.5625,0.59375 1.40625,0.59375 0.64063,0 1.08594,-0.33593 0.44531,-0.33594 0.69531,-1.05469 z m -3.75,-1.84375 3.76563,0 q -0.0781,-0.85938 -0.4375,-1.28125 -0.54688,-0.65625 -1.40625,-0.65625 -0.79688,0 -1.32813,0.52344 -0.53125,0.52343 -0.59375,1.41406 z m 6.54688,4.01562 0,-6.73437 1.03125,0 0,1.01562 q 0.39062,-0.71875 0.72656,-0.94531 0.33594,-0.22656 0.72656,-0.22656 0.57813,0 1.17188,0.35937 l -0.39063,1.0625 q -0.42187,-0.25 -0.82812,-0.25 -0.375,0 -0.67969,0.22657 -0.30469,0.22656 -0.42969,0.63281 -0.1875,0.60937 -0.1875,1.32812 l 0,3.53125 -1.14062,0 z m 4,-2.01562 1.125,-0.17188 q 0.0937,0.67188 0.53125,1.03907 0.4375,0.36718 1.21875,0.36718 0.78125,0 1.16406,-0.32031 0.38281,-0.32031 0.38281,-0.75781 0,-0.39063 -0.34375,-0.60938 -0.23437,-0.15625 -1.17187,-0.39062 -1.25,-0.3125 -1.73438,-0.54688 -0.48437,-0.23437 -0.73437,-0.64062 -0.25,-0.40625 -0.25,-0.90625 0,-0.45313 0.20312,-0.83594 0.20313,-0.38281 0.5625,-0.63281 0.26563,-0.20313 0.72656,-0.33594 0.46094,-0.13281 0.99219,-0.13281 0.78125,0 1.38281,0.22656 0.60157,0.22656 0.89063,0.61719 0.28906,0.39062 0.39844,1.04687 l -1.125,0.15625 q -0.0781,-0.53125 -0.4375,-0.82031 -0.35938,-0.28906 -1.03125,-0.28906 -0.78125,0 -1.125,0.25781 -0.34375,0.25781 -0.34375,0.61719 0,0.21875 0.14062,0.39062 0.14063,0.1875 0.4375,0.3125 0.17188,0.0625 1.01563,0.28125 1.21875,0.32813 1.69531,0.53125 0.47656,0.20313 0.75,0.60157 0.27344,0.39843 0.27344,0.97656 0,0.57812 -0.33594,1.07812 -0.33594,0.5 -0.96094,0.78125 -0.625,0.28125 -1.42187,0.28125 -1.3125,0 -2,-0.54687 -0.6875,-0.54688 -0.875,-1.625 z m 7.40625,2.01562 0,-1.29687 1.29687,0 0,1.29687 q 0,0.71875 -0.25,1.15625 -0.25,0.4375 -0.8125,0.6875 l -0.3125,-0.48437 q 0.35938,-0.17188 0.53125,-0.47656 0.17188,-0.30469 0.1875,-0.88282 l -0.64062,0 z"
     id="path40"
     inkscape:connector-curvature="0"
     style="fill:#000000;fill-rule:nonzero" />
  <path
     d="m 18.71933,146.68863 1.234375,0.3125 q -0.390625,1.51562 -1.39844,2.3125 -1.00781,0.79687 -2.460935,0.79687 -1.5,0 -2.445315,-0.60937 -0.94531,-0.60938 -1.4375,-1.77344 -0.492185,-1.16406 -0.492185,-2.49219 0,-1.45312 0.5625,-2.53906 0.5625,-1.08594 1.585935,-1.64844 1.02344,-0.5625 2.257815,-0.5625 1.390625,0 2.34375,0.71094 0.953125,0.71094 1.328125,2.00781 l -1.21875,0.28125 q -0.328125,-1.01562 -0.9375,-1.47656 -0.609375,-0.46094 -1.546875,-0.46094 -1.078125,0 -1.796875,0.51563 -0.71875,0.51562 -1.00781,1.375 -0.289065,0.85937 -0.289065,1.78125 0,1.1875 0.34375,2.07812 0.34375,0.89063 1.070315,1.32813 0.72656,0.4375 1.585935,0.4375 1.03125,0 1.75,-0.60156 0.71875,-0.60157 0.96875,-1.77344 z m 7.234375,2.4375 q -0.625,0.53125 -1.21094,0.75781 -0.585935,0.22656 -1.25781,0.22656 -1.125,0 -1.71875,-0.54687 -0.59375,-0.54688 -0.59375,-1.39063 0,-0.48437 0.22656,-0.89843 0.226565,-0.41407 0.59375,-0.66407 0.36719,-0.25 0.820315,-0.375 0.328125,-0.0781 1.015625,-0.17187 1.375,-0.15625 2.03125,-0.39063 0.01563,-0.23437 0.01563,-0.29687 0,-0.70313 -0.328125,-0.98438 -0.4375,-0.39062 -1.296875,-0.39062 -0.8125,0 -1.195315,0.28125 -0.38281,0.28125 -0.57031,1 l -1.109375,-0.14063 q 0.140625,-0.71875 0.492185,-1.16406 0.351565,-0.44531 1.01563,-0.67969 0.66406,-0.23437 1.523435,-0.23437 0.875,0 1.414065,0.20312 0.53906,0.20313 0.78906,0.50782 0.25,0.30468 0.359375,0.77343 0.04687,0.29688 0.04687,1.0625 l 0,1.51563 q 0,1.59375 0.07813,2.01562 0.07813,0.42188 0.28125,0.8125 l -1.1875,0 q -0.17188,-0.35937 -0.23438,-0.82812 z m -0.09375,-2.5625 q -0.625,0.26562 -1.859375,0.4375 -0.703125,0.10937 -1,0.23437 -0.296875,0.125 -0.453125,0.36719 -0.15625,0.24219 -0.15625,0.53906 0,0.45313 0.34375,0.75782 0.34375,0.30468 1.015625,0.30468 0.65625,0 1.171875,-0.28906 0.515625,-0.28906 0.765625,-0.78906 0.171875,-0.375 0.171875,-1.14063 l 0,-0.42187 z m 3.109375,5.96875 0,-9.3125 1.03125,0 0,0.875 q 0.375,-0.51563 0.835935,-0.77344 0.46094,-0.25781 1.132815,-0.25781 0.859375,0 1.515625,0.44531 0.65625,0.44531 0.99219,1.25 0.335935,0.80469 0.335935,1.77344 0,1.03125 -0.367185,1.85937 -0.36719,0.82813 -1.07813,1.27344 -0.710935,0.44531 -1.492185,0.44531 -0.5625,0 -1.015625,-0.24218 -0.453125,-0.24219 -0.75,-0.61719 l 0,3.28125 -1.140625,0 z m 1.03125,-5.90625 q 0,1.29687 0.53125,1.92187 0.53125,0.625 1.265625,0.625 0.765625,0 1.3125,-0.64843 0.546875,-0.64844 0.546875,-1.99219 0,-1.29688 -0.53125,-1.9375 -0.53125,-0.64063 -1.265625,-0.64063 -0.734375,0 -1.296875,0.67969 -0.5625,0.67969 -0.5625,1.99219 z m 10.781255,2.5 q -0.625,0.53125 -1.21094,0.75781 -0.58594,0.22656 -1.25781,0.22656 -1.125,0 -1.71875,-0.54687 -0.59375,-0.54688 -0.59375,-1.39063 0,-0.48437 0.22656,-0.89843 0.22656,-0.41407 0.59375,-0.66407 0.36719,-0.25 0.82031,-0.375 0.32813,-0.0781 1.01563,-0.17187 1.375,-0.15625 2.03125,-0.39063 0.0156,-0.23437 0.0156,-0.29687 0,-0.70313 -0.32812,-0.98438 -0.4375,-0.39062 -1.29688,-0.39062 -0.8125,0 -1.19531,0.28125 -0.38281,0.28125 -0.57031,1 l -1.10938,-0.14063 q 0.14063,-0.71875 0.49219,-1.16406 0.35156,-0.44531 1.01562,-0.67969 0.66407,-0.23437 1.52344,-0.23437 0.875,0 1.41406,0.20312 0.53907,0.20313 0.78907,0.50782 0.25,0.30468 0.35937,0.77343 0.0469,0.29688 0.0469,1.0625 l 0,1.51563 q 0,1.59375 0.0781,2.01562 0.0781,0.42188 0.28125,0.8125 l -1.1875,0 q -0.17187,-0.35937 -0.23437,-0.82812 z m -0.0937,-2.5625 q -0.625,0.26562 -1.85938,0.4375 -0.70312,0.10937 -1,0.23437 -0.29687,0.125 -0.45312,0.36719 -0.15625,0.24219 -0.15625,0.53906 0,0.45313 0.34375,0.75782 0.34375,0.30468 1.01562,0.30468 0.65625,0 1.17188,-0.28906 0.51562,-0.28906 0.76562,-0.78906 0.17188,-0.375 0.17188,-1.14063 l 0,-0.42187 z m 4.15625,3.39062 -1.0625,0 0,-9.3125 1.15625,0 0,3.32813 q 0.71875,-0.90625 1.84375,-0.90625 0.625,0 1.17968,0.25 0.55469,0.25 0.91407,0.70312 0.35937,0.45313 0.5625,1.09375 0.20312,0.64063 0.20312,1.375 0,1.73438 -0.85937,2.67969 -0.85938,0.94531 -2.0625,0.94531 -1.1875,0 -1.875,-1 l 0,0.84375 z m -0.0156,-3.42187 q 0,1.21875 0.34375,1.75 0.53125,0.89062 1.45313,0.89062 0.75,0 1.29687,-0.65625 0.54688,-0.65625 0.54688,-1.9375 0,-1.32812 -0.52344,-1.95312 -0.52344,-0.625 -1.27344,-0.625 -0.75,0 -1.29687,0.64844 -0.54688,0.64843 -0.54688,1.88281 z m 6.39063,-4.5625 0,-1.32813 1.14062,0 0,1.32813 -1.14062,0 z m 0,7.98437 0,-6.73437 1.14062,0 0,6.73437 -1.14062,0 z m 2.92187,0 0,-9.3125 1.14063,0 0,9.3125 -1.14063,0 z m 3,-7.98437 0,-1.32813 1.14063,0 0,1.32813 -1.14063,0 z m 0,7.98437 0,-6.73437 1.14063,0 0,6.73437 -1.14063,0 z m 5.45313,-1.01562 0.15625,1 q -0.48438,0.10937 -0.85938,0.10937 -0.625,0 -0.96875,-0.20312 -0.34375,-0.20313 -0.48437,-0.52344 -0.14063,-0.32031 -0.14063,-1.33594 l 0,-3.89062 -0.82812,0 0,-0.875 0.82812,0 0,-1.67188 1.14063,-0.6875 0,2.35938 1.15625,0 0,0.875 -1.15625,0 0,3.95312 q 0,0.48438 0.0625,0.625 0.0625,0.14063 0.19531,0.21875 0.13281,0.0781 0.38281,0.0781 0.20313,0 0.51563,-0.0312 z m 1.20312,-6.96875 0,-1.32813 1.14063,0 0,1.32813 -1.14063,0 z m 0,7.98437 0,-6.73437 1.14063,0 0,6.73437 -1.14063,0 z m 7.57813,-2.17187 1.1875,0.14062 q -0.28125,1.04688 -1.03907,1.61719 -0.75781,0.57031 -1.92968,0.57031 -1.48438,0 -2.35157,-0.91406 -0.86718,-0.91406 -0.86718,-2.55469 0,-1.70312 0.88281,-2.64062 0.88281,-0.9375 2.27344,-0.9375 1.35937,0 2.21093,0.92187 0.85157,0.92188 0.85157,2.57813 0,0.10937 0,0.3125 l -5.03125,0 q 0.0625,1.10937 0.625,1.70312 0.5625,0.59375 1.40625,0.59375 0.64062,0 1.08593,-0.33593 0.44532,-0.33594 0.69532,-1.05469 z m -3.75,-1.84375 3.76562,0 q -0.0781,-0.85938 -0.4375,-1.28125 -0.54687,-0.65625 -1.40625,-0.65625 -0.79687,0 -1.32812,0.52344 -0.53125,0.52343 -0.59375,1.41406 z m 6.09375,2 1.125,-0.17188 q 0.0937,0.67188 0.53125,1.03907 0.4375,0.36718 1.21875,0.36718 0.78125,0 1.16406,-0.32031 0.38281,-0.32031 0.38281,-0.75781 0,-0.39063 -0.34375,-0.60938 -0.23437,-0.15625 -1.17187,-0.39062 -1.25,-0.3125 -1.73438,-0.54688 -0.48437,-0.23437 -0.73437,-0.64062 -0.25,-0.40625 -0.25,-0.90625 0,-0.45313 0.20312,-0.83594 0.20313,-0.38281 0.5625,-0.63281 0.26563,-0.20313 0.72656,-0.33594 0.46094,-0.13281 0.99219,-0.13281 0.78125,0 1.38281,0.22656 0.60157,0.22656 0.89063,0.61719 0.28906,0.39062 0.39844,1.04687 l -1.125,0.15625 q -0.0781,-0.53125 -0.4375,-0.82031 -0.35938,-0.28906 -1.03125,-0.28906 -0.78125,0 -1.125,0.25781 -0.34375,0.25781 -0.34375,0.61719 0,0.21875 0.14062,0.39062 0.14063,0.1875 0.4375,0.3125 0.17188,0.0625 1.01563,0.28125 1.21875,0.32813 1.69531,0.53125 0.47656,0.20313 0.75,0.60157 0.27344,0.39843 0.27344,0.97656 0,0.57812 -0.33594,1.07812 -0.33594,0.5 -0.96094,0.78125 -0.625,0.28125 -1.42187,0.28125 -1.3125,0 -2,-0.54687 -0.6875,-0.54688 -0.875,-1.625 z"
     id="path42"
     inkscape:connector-curvature="0"
     style="fill:#000000;fill-rule:nonzero" />
  <path
     d="m 602.33561,59.669105 76.23494,0 0,65.187095 c -38.11749,0 -38.11749,24.83748 -76.23494,10.72527 z"
     id="path44"
     inkscape:connector-curvature="0"
     style="fill:#f4cccc;fill-rule:nonzero;stroke:#073763;stroke-width:2;stroke-linecap:butt;stroke-linejoin:round" />
  <path
     d="m 621.80438,90.24723 0,-9.3125 3.51563,0 q 0.92187,0 1.40624,0.09375 0.6875,0.109375 1.15626,0.42969 0.46874,0.32031 0.75,0.89844 0.28124,0.57812 0.28124,1.28125 0,1.1875 -0.75784,2.00781 -0.7578,0.82031 -2.72653,0.82031 l -2.39063,0 0,3.78125 -1.23437,0 z m 1.23437,-4.875 2.40626,0 q 1.1875,0 1.6953,-0.44531 0.5078,-0.44531 0.5078,-1.25781 0,-0.57813 -0.29686,-0.99219 -0.29687,-0.41406 -0.78124,-0.55469 -0.3125,-0.0781 -1.15626,-0.0781 l -2.375,0 0,3.32812 z m 11.90626,4.04688 q -0.625,0.53125 -1.21094,0.75781 -0.58596,0.22656 -1.25782,0.22656 -1.125,0 -1.71874,-0.54687 -0.59376,-0.54688 -0.59376,-1.39063 0,-0.48437 0.22656,-0.89844 0.22657,-0.41406 0.59376,-0.66406 0.36718,-0.25 0.82031,-0.375 0.32813,-0.0781 1.01563,-0.17187 1.375,-0.15625 2.03124,-0.39063 0.0156,-0.23437 0.0156,-0.29687 0,-0.70313 -0.32813,-0.98438 -0.4375,-0.39062 -1.29687,-0.39062 -0.8125,0 -1.19531,0.28125 -0.38282,0.28125 -0.57032,1 l -1.10937,-0.14063 q 0.14063,-0.71875 0.49219,-1.16406 0.35154,-0.44531 1.01564,-0.67969 0.66404,-0.23437 1.5234,-0.23437 0.875,0 1.4141,0.20312 0.53904,0.20313 0.78904,0.50781 0.25,0.30469 0.35936,0.77344 0.0469,0.29688 0.0469,1.0625 l 0,1.51563 q 0,1.59375 0.0781,2.01562 0.0781,0.42188 0.28127,0.8125 l -1.1875,0 q -0.17187,-0.35937 -0.23437,-0.82812 z m -0.0938,-2.5625 q -0.625,0.26562 -1.85937,0.4375 -0.70313,0.10937 -1,0.23437 -0.29687,0.125 -0.45313,0.36719 -0.15624,0.24219 -0.15624,0.53906 0,0.45313 0.34374,0.75781 0.34376,0.30469 1.01563,0.30469 0.65623,0 1.17187,-0.28906 0.51563,-0.28906 0.76563,-0.78906 0.17187,-0.375 0.17187,-1.14063 l 0,-0.42187 z m 3.10936,3.39062 0,-6.73437 1.03127,0 0,1.01562 q 0.39063,-0.71875 0.72653,-0.94531 0.33597,-0.22656 0.7266,-0.22656 0.5781,0 1.17187,0.35937 l -0.39063,1.0625 q -0.42187,-0.25 -0.82814,-0.25 -0.375,0 -0.6797,0.22656 -0.30466,0.22657 -0.42966,0.63282 -0.1875,0.60937 -0.1875,1.32812 l 0,3.53125 -1.14064,0 z m 9.0625,-2.17187 1.1875,0.14062 q -0.28123,1.04688 -1.03904,1.61719 -0.75782,0.57031 -1.92969,0.57031 -1.48437,0 -2.35157,-0.91406 -0.8672,-0.91406 -0.8672,-2.55469 0,-1.70312 0.8828,-2.64062 0.88284,-0.9375 2.27347,-0.9375 1.35937,0 2.21093,0.92187 0.85157,0.92188 0.85157,2.57813 0,0.10937 0,0.3125 l -5.03127,0 q 0.0625,1.10937 0.625,1.70312 0.5625,0.59375 1.40627,0.59375 0.64063,0 1.08593,-0.33594 0.4453,-0.33593 0.6953,-1.05468 z m -3.75,-1.84375 3.76564,0 q -0.0781,-0.85938 -0.4375,-1.28125 -0.54687,-0.65625 -1.40624,-0.65625 -0.7969,0 -1.32813,0.52343 -0.53127,0.52344 -0.59377,1.41407 z m 6.5469,4.01562 0,-6.73437 1.03124,0 0,0.95312 q 0.73436,-1.10937 2.14063,-1.10937 0.60937,0 1.11719,0.21875 0.50781,0.21875 0.76564,0.57031 0.2578,0.35156 0.35154,0.85156 0.0625,0.3125 0.0625,1.10938 l 0,4.14062 -1.14064,0 0,-4.09375 q 0,-0.70312 -0.1328,-1.04687 -0.1328,-0.34375 -0.46874,-0.55469 -0.33596,-0.21094 -0.78906,-0.21094 -0.7344,0 -1.26563,0.46094 -0.53127,0.46094 -0.53127,1.75781 l 0,3.6875 -1.1406,0 z m 9.92187,-1.01562 0.15623,1 q -0.48436,0.10937 -0.85936,0.10937 -0.625,0 -0.96874,-0.20312 -0.34376,-0.20313 -0.4844,-0.52344 -0.1406,-0.32031 -0.1406,-1.33594 l 0,-3.89062 -0.82813,0 0,-0.875 0.82813,0 0,-1.67188 1.1406,-0.6875 0,2.35938 1.15627,0 0,0.875 -1.15627,0 0,3.95312 q 0,0.48438 0.0625,0.625 0.0625,0.14063 0.1953,0.21875 0.13284,0.0781 0.38284,0.0781 0.20313,0 0.51563,-0.0312 z"
     id="path46"
     inkscape:connector-curvature="0"
     style="fill:#000000;fill-rule:nonzero" />
  <path
     d="m 620.13251,105.24723 0,-0.84375 q -0.64063,1 -1.89063,1 -0.79687,0 -1.47657,-0.44531 -0.6797,-0.44531 -1.0547,-1.24219 -0.375,-0.79687 -0.375,-1.82812 0,-1.01563 0.34377,-1.83594 0.34373,-0.82031 1.01563,-1.25781 0.67187,-0.4375 1.5,-0.4375 0.60937,0 1.0859,0.25781 0.4766,0.25781 0.77347,0.66406 l 0,-3.34375 1.14063,0 0,9.3125 -1.0625,0 z m -3.6094,-3.35937 q 0,1.29687 0.5391,1.9375 0.53904,0.64062 1.28904,0.64062 0.75,0 1.27346,-0.61719 0.5234,-0.61718 0.5234,-1.86718 0,-1.39063 -0.53123,-2.03907 -0.53127,-0.64843 -1.3125,-0.64843 -0.76563,0 -1.27347,0.625 -0.5078,0.625 -0.5078,1.96875 z m 6.64064,-4.625 0,-1.32813 1.14063,0 0,1.32813 -1.14063,0 z m 0,7.98437 0,-6.73437 1.14063,0 0,6.73437 -1.14063,0 z m 2.95313,0 0,-6.73437 1.03123,0 0,1.01562 q 0.39064,-0.71875 0.7266,-0.94531 0.3359,-0.22656 0.72654,-0.22656 0.57813,0 1.17186,0.35937 l -0.3906,1.0625 q -0.4219,-0.25 -0.82813,-0.25 -0.375,0 -0.67967,0.22656 -0.3047,0.22657 -0.4297,0.63282 -0.1875,0.60937 -0.1875,1.32812 l 0,3.53125 -1.14063,0 z m 9.0625,-2.17187 1.1875,0.14062 q -0.28127,1.04688 -1.03907,1.61719 -0.7578,0.57031 -1.9297,0.57031 -1.48436,0 -2.35154,-0.91406 -0.86719,-0.91406 -0.86719,-2.55469 0,-1.70312 0.88283,-2.64062 0.8828,-0.9375 2.2734,-0.9375 1.3594,0 2.21096,0.92187 0.85154,0.92188 0.85154,2.57813 0,0.10937 0,0.3125 l -5.03123,0 q 0.0625,1.10937 0.625,1.70312 0.5625,0.59375 1.40623,0.59375 0.64064,0 1.08596,-0.33594 0.44531,-0.33593 0.69531,-1.05468 z m -3.75,-1.84375 3.76563,0 q -0.0781,-0.85938 -0.4375,-1.28125 -0.5469,-0.65625 -1.40626,-0.65625 -0.79687,0 -1.32814,0.52343 -0.53123,0.52344 -0.59373,1.41407 z m 10.9375,1.54687 1.125,0.14063 q -0.17187,1.17187 -0.9375,1.82812 -0.76563,0.65625 -1.85937,0.65625 -1.39063,0 -2.2266,-0.90625 -0.8359,-0.90625 -0.8359,-2.59375 0,-1.09375 0.35937,-1.91406 0.35937,-0.82031 1.09373,-1.22656 0.7344,-0.40625 1.6094,-0.40625 1.09374,0 1.79687,0.55468 0.70313,0.55469 0.89063,1.57032 l -1.1094,0.17187 q -0.15623,-0.67187 -0.5547,-1.01562 -0.3984,-0.34375 -0.97653,-0.34375 -0.85937,0 -1.39847,0.61718 -0.53903,0.61719 -0.53903,1.96094 0,1.35938 0.51563,1.97656 0.5156,0.61719 1.35937,0.61719 0.67187,0 1.125,-0.41406 0.45313,-0.41406 0.5625,-1.27344 z m 4.76563,1.45313 0.15624,1 q -0.48437,0.10937 -0.85937,0.10937 -0.625,0 -0.96877,-0.20312 -0.34373,-0.20313 -0.48436,-0.52344 -0.14064,-0.32031 -0.14064,-1.33594 l 0,-3.89062 -0.8281,0 0,-0.875 0.8281,0 0,-1.67188 1.14064,-0.6875 0,2.35938 1.15626,0 0,0.875 -1.15626,0 0,3.95312 q 0,0.48438 0.0625,0.625 0.0625,0.14063 0.19532,0.21875 0.13281,0.0781 0.38281,0.0781 0.20313,0 0.51563,-0.0312 z m 0.78124,-2.35938 q 0,-1.875 1.03126,-2.76562 0.875,-0.75 2.125,-0.75 1.3906,0 2.2734,0.90625 0.88284,0.90625 0.88284,2.51562 0,1.29688 -0.39064,2.04688 -0.3906,0.75 -1.1406,1.16406 -0.75,0.41406 -1.625,0.41406 -1.4219,0 -2.2891,-0.90625 -0.86716,-0.90625 -0.86716,-2.625 z m 1.17186,0 q 0,1.29688 0.5625,1.94531 0.5625,0.64844 1.4219,0.64844 0.84374,0 1.41406,-0.64844 0.57031,-0.64843 0.57031,-1.97656 0,-1.25 -0.57031,-1.89844 -0.57032,-0.64843 -1.41406,-0.64843 -0.8594,0 -1.4219,0.64062 -0.5625,0.64063 -0.5625,1.9375 z m 6.65627,3.375 0,-6.73437 1.03123,0 0,1.01562 q 0.39064,-0.71875 0.7266,-0.94531 0.3359,-0.22656 0.72654,-0.22656 0.57813,0 1.17186,0.35937 l -0.3906,1.0625 q -0.4219,-0.25 -0.82813,-0.25 -0.375,0 -0.67967,0.22656 -0.3047,0.22657 -0.4297,0.63282 -0.1875,0.60937 -0.1875,1.32812 l 0,3.53125 -1.14063,0 z m 4.40623,2.59375 -0.1406,-1.0625 q 0.375,0.0937 0.65624,0.0937 0.39063,0 0.61716,-0.125 0.2266,-0.125 0.3672,-0.35937 0.1094,-0.17188 0.3594,-0.84375 0.0312,-0.0937 0.0937,-0.28125 l -2.5625,-6.75 1.23436,0 1.40627,3.89062 q 0.26563,0.75 0.48437,1.5625 0.20313,-0.78125 0.46876,-1.53125 l 1.4531,-3.92187 1.14064,0 -2.5625,6.84375 q -0.42187,1.10937 -0.64064,1.53125 -0.3125,0.5625 -0.7031,0.82812 -0.39063,0.26563 -0.9375,0.26563 -0.32813,0 -0.7344,-0.14063 z"
     id="path48"
     inkscape:connector-curvature="0"
     style="fill:#000000;fill-rule:nonzero" />
  <path
     d="m 603.08136,100.97847 0,0 -5.32975,5.96605 -1.4915,-1.33243 5.3298,-5.96605 z m -9.32709,10.44058 0,0 -5.32976,5.96607 -1.4915,-1.33243 5.3298,-5.96607 z m -9.32706,10.44061 0,0 -5.3298,5.96607 -1.49146,-1.33243 5.32976,-5.96606 z m -9.3271,10.44062 0,0 -5.3298,5.96603 -1.49144,-1.33243 5.32974,-5.96603 z m -9.3271,10.44058 0,0 -5.3298,5.96603 -1.49143,-1.33242 5.32977,-5.96604 z m -9.3271,10.44058 0,0 -5.32976,5.96604 -1.49144,-1.33243 5.32975,-5.96604 z m -9.3271,10.44058 0,0 -5.32975,5.96604 -1.49145,-1.33243 5.32977,-5.96603 z m -9.32707,10.44062 0,0 -0.32208,0.3605 -1.49145,-1.33249 0.3221,-0.3605 z"
     id="path50"
     inkscape:connector-curvature="0"
     style="fill:#073763;fill-rule:nonzero" />
  <path
     d="m 534.26037,171.55605 -3.58316,8.96945 8.5103,-4.56778 z"
     id="path52"
     inkscape:connector-curvature="0"
     style="fill:#073763;fill-rule:evenodd;stroke:#073763;stroke-width:2;stroke-linecap:butt" />
  <path
     d="m 562.20336,163.42636 0,-9.3125 1.23435,0 0,8.21875 4.57815,0 0,1.09375 -5.8125,0 z m 7.32815,-7.98438 0,-1.32812 1.1406,0 0,1.32812 -1.1406,0 z m 0,7.98438 0,-6.73438 1.1406,0 0,6.73438 -1.1406,0 z m 2.9531,0 0,-6.73438 1.03125,0 0,0.95313 q 0.73435,-1.10937 2.14065,-1.10937 0.60935,0 1.11717,0.21874 0.50783,0.21876 0.76563,0.57032 0.2578,0.35156 0.35155,0.85156 0.0625,0.3125 0.0625,1.10938 l 0,4.14062 -1.14065,0 0,-4.09375 q 0,-0.70313 -0.1328,-1.04687 -0.1328,-0.34376 -0.46873,-0.55469 -0.33597,-0.21094 -0.78907,-0.21094 -0.7344,0 -1.2656,0.46094 -0.5313,0.46093 -0.5313,1.75781 l 0,3.6875 -1.1406,0 z m 7.40625,0 0,-9.3125 1.14065,0 0,5.3125 2.7031,-2.73438 1.4844,0 -2.57815,2.5 2.84375,4.23438 -1.40625,0 -2.23435,-3.45312 -0.8125,0.78124 0,2.67188 -1.14065,0 z"
     id="path54"
     inkscape:connector-curvature="0"
     style="fill:#000000;fill-rule:nonzero" />
  <path
     d="m 15.276841,100.31226 0,0 c 0,-4.46064 3.935604,-8.07669 8.790424,-8.07669 l 0,0 c 4.85481,0 8.79042,3.61605 8.79042,8.07669 l 0,0 c 0,4.46063 -3.93561,8.07669 -8.79042,8.07669 l 0,0 c -4.85482,0 -8.790424,-3.61606 -8.790424,-8.07669 z"
     id="path56"
     inkscape:connector-curvature="0"
     style="stroke:#073763;stroke-width:2;stroke-linecap:butt;stroke-linejoin:round" />
  <path
     d="m 30.283025,94.60117 34.41612,0"
     id="path58"
     inkscape:connector-curvature="0"
     style="stroke:#073763;stroke-width:2;stroke-linecap:butt;stroke-linejoin:round" />
  <path
     d="m 64.202365,94.52175 c 0,1.68833 -0.34699,5.47903 -1.99018,4.72337 -1.04758,-0.48175 -0.006,-3.22406 -1.16143,-3.04763 -1.5043,0.22966 -1.78667,3.67423 -3.15061,3.04763 -1.06151,-0.48766 -0.53255,-3.23962 -1.65847,-2.89479 -1.26835,0.38846 -0.66133,3.06435 -1.99017,3.19956 -2.23743,0.22765 -3.92208,-2.21993 -6.13686,-2.59003 -1.13165,-0.1891 -1.05387,1.97618 -1.99017,2.59003 -1.60807,1.05427 -3.8719,-2.48747 -5.63881,-1.67574 -2.41537,1.10962 -4.76318,2.89479 -7.46364,2.89479"
     id="path60"
     inkscape:connector-curvature="0"
     style="stroke:#073763;stroke-width:2;stroke-linecap:butt;stroke-linejoin:round" />
  <path
     d="m 35.343885,96.04557 19.90171,0"
     id="path62"
     inkscape:connector-curvature="0"
     style="stroke:#cccccc;stroke-width:1;stroke-linecap:butt;stroke-linejoin:round" />
  <path
     d="m 21.331525,100.31226 0,0 c 0,-1.38823 1.22483,-2.51361 2.73574,-2.51361 l 0,0 c 1.5109,0 2.73573,1.12538 2.73573,2.51361 l 0,0 c 0,1.38822 -1.22483,2.51361 -2.73573,2.51361 l 0,0 c -1.51091,0 -2.73574,-1.12539 -2.73574,-2.51361 z"
     id="path64"
     inkscape:connector-curvature="0"
     style="stroke:#073763;stroke-width:2;stroke-linecap:butt;stroke-linejoin:round" />
  <path
     d="m 22.97213,89.96591 0,-9.3125 1.234375,0 0,4.625 4.625,-4.625 1.65625,0 -3.890625,3.78125 4.0625,5.53125 -1.625,0 -3.3125,-4.70312 -1.515625,1.48437 0,3.21875 -1.234375,0 z m 13.406245,-2.17187 1.1875,0.14062 q -0.28125,1.04688 -1.03906,1.61719 -0.75781,0.57031 -1.929685,0.57031 -1.484375,0 -2.351565,-0.91406 -0.867185,-0.91406 -0.867185,-2.55469 0,-1.70312 0.882815,-2.64062 0.88281,-0.9375 2.273435,-0.9375 1.359375,0 2.210935,0.92187 0.85156,0.92188 0.85156,2.57813 0,0.10937 0,0.3125 l -5.031245,0 q 0.0625,1.10937 0.625,1.70312 0.5625,0.59375 1.40625,0.59375 0.640625,0 1.085935,-0.33594 0.44531,-0.33593 0.69531,-1.05468 z m -3.749995,-1.84375 3.765625,0 q -0.0781,-0.85938 -0.4375,-1.28125 -0.54688,-0.65625 -1.40625,-0.65625 -0.796875,0 -1.328125,0.52343 -0.53125,0.52344 -0.59375,1.41407 z m 6.499995,6.60937 -0.14062,-1.0625 q 0.375,0.0937 0.65625,0.0937 0.39062,0 0.61719,-0.125 0.22656,-0.125 0.36718,-0.35937 0.10938,-0.17188 0.35938,-0.84375 0.0312,-0.0937 0.0937,-0.28125 l -2.5625,-6.75 1.23437,0 1.40625,3.89062 q 0.26563,0.75 0.48438,1.5625 0.20312,-0.78125 0.46875,-1.53125 l 1.45312,-3.92187 1.14063,0 -2.5625,6.84375 q -0.42188,1.10937 -0.64063,1.53125 -0.3125,0.5625 -0.70312,0.82812 -0.39063,0.26563 -0.9375,0.26563 -0.32813,0 -0.73438,-0.14063 z m 6.70313,-2.59375 0,-6.73437 1.03125,0 0,1.01562 q 0.39062,-0.71875 0.72656,-0.94531 0.33594,-0.22656 0.72656,-0.22656 0.57813,0 1.17188,0.35937 l -0.39063,1.0625 q -0.42187,-0.25 -0.82812,-0.25 -0.375,0 -0.67969,0.22656 -0.30469,0.22657 -0.42969,0.63282 -0.1875,0.60937 -0.1875,1.32812 l 0,3.53125 -1.14062,0 z m 4.45312,-7.98437 0,-1.32813 1.14063,0 0,1.32813 -1.14063,0 z m 0,7.98437 0,-6.73437 1.14063,0 0,6.73437 -1.14063,0 z m 2.95313,0 0,-6.73437 1.03125,0 0,0.95312 q 0.73437,-1.10937 2.14062,-1.10937 0.60938,0 1.11719,0.21875 0.50781,0.21875 0.76563,0.57031 0.25781,0.35156 0.35156,0.85156 0.0625,0.3125 0.0625,1.10938 l 0,4.14062 -1.14063,0 0,-4.09375 q 0,-0.70312 -0.13281,-1.04687 -0.13281,-0.34375 -0.46875,-0.55469 -0.33594,-0.21094 -0.78906,-0.21094 -0.73438,0 -1.26563,0.46094 -0.53125,0.46094 -0.53125,1.75781 l 0,3.6875 -1.14062,0 z m 7.20312,0.5625 1.125,0.15625 q 0.0625,0.51563 0.375,0.75 0.4375,0.32813 1.17188,0.32813 0.78126,0 1.21876,-0.32032 0.4375,-0.32031 0.57812,-0.89843 0.0937,-0.34375 0.0937,-1.45313 -0.75,0.875 -1.87501,0.875 -1.39062,0 -2.14843,-1 -0.75782,-1 -0.75782,-2.40625 0,-0.96875 0.35157,-1.78125 0.35156,-0.8125 1.00781,-1.25781 0.65625,-0.44531 1.5625,-0.44531 1.18751,0 1.96876,0.96875 l 0,-0.8125 1.04687,0 0,5.8125 q 0,1.57812 -0.32031,2.23437 -0.32031,0.65625 -1.01562,1.03906 -0.69532,0.38282 -1.71095,0.38282 -1.20313,0 -1.94531,-0.53907 -0.74219,-0.53906 -0.72657,-1.63281 z m 0.95313,-4.04687 q 0,1.3125 0.52344,1.92187 0.52343,0.60938 1.32032,0.60938 0.79687,0 1.32812,-0.60157 0.53125,-0.60156 0.53125,-1.89843 0,-1.23438 -0.54687,-1.86719 -0.54688,-0.63281 -1.32814,-0.63281 -0.76562,0 -1.29687,0.625 -0.53125,0.625 -0.53125,1.84375 z"
     id="path66"
     inkscape:connector-curvature="0"
     style="fill:#000000;fill-rule:nonzero" />
  <path
     d="m 244.16415,84.46616 346.86612,0"
     id="path68"
     inkscape:connector-curvature="0"
     style="stroke:#073763;stroke-width:2;stroke-linecap:butt;stroke-linejoin:round" />
  <path
     d="m 591.03027,87.76962 9.07617,-3.30346 -9.07617,-3.30347 z"
     id="path70"
     inkscape:connector-curvature="0"
     style="fill:#073763;fill-rule:evenodd;stroke:#073763;stroke-width:2;stroke-linecap:butt" />
  <path
     d="m 510.57661,127.87918 0,39.08662"
     id="path72"
     inkscape:connector-curvature="0"
     style="stroke:#073763;stroke-width:2;stroke-linecap:butt;stroke-linejoin:round" />
  <path
     d="m 507.27311,166.9658 3.3035,9.07621 3.30345,-9.07621 z"
     id="path74"
     inkscape:connector-curvature="0"
     style="fill:#073763;fill-rule:evenodd;stroke:#073763;stroke-width:2;stroke-linecap:butt" />
  <path
     d="m 458.59971,249.28131 15.9626,0 0,10.13967 -15.9626,0 z"
     id="path76"
     inkscape:connector-curvature="0"
     style="fill:#bf9000;fill-rule:nonzero;stroke:#073763;stroke-width:2;stroke-linecap:butt;stroke-linejoin:round" />
  <path
     d="m 465.46496,252.87628 0,0 c 0,-0.71692 0.57845,-1.29806 1.29195,-1.29806 l 0,0 c 0.3426,0 0.6712,0.13678 0.91343,0.38018 0.24231,0.24344 0.37842,0.57361 0.37842,0.91788 l 0,0 c 0,0.7169 -0.57845,1.29804 -1.29185,1.29804 l 0,0 c -0.7135,0 -1.29195,-0.58114 -1.29195,-1.29804 z"
     id="path78"
     inkscape:connector-curvature="0"
     style="fill:#000000;fill-rule:nonzero;stroke:#000000;stroke-width:2;stroke-linecap:butt;stroke-linejoin:round" />
  <path
     d="m 465.67211,256.82798 1.0269,-4.7172 1.027,4.7172 z"
     id="path80"
     inkscape:connector-curvature="0"
     style="fill:#000000;fill-rule:nonzero;stroke:#000000;stroke-width:2;stroke-linecap:butt;stroke-linejoin:round" />
  <path
     d="m 459.78911,249.25964 0,0 c 0,-5.1727 3.0209,-9.36602 6.74726,-9.36602 3.72638,0 6.74724,4.19332 6.74724,9.36602 l -3.37364,0 c 0,-3.30951 -1.51036,-5.9924 -3.3736,-5.9924 -1.86322,0 -3.37359,2.68289 -3.37359,5.9924 z"
     id="path82"
     inkscape:connector-curvature="0"
     style="fill:#bf9000;fill-rule:nonzero;stroke:#073763;stroke-width:2;stroke-linecap:butt;stroke-linejoin:round" />
  <path
     d="m 608.42901,125.93455 15.963,0 0,10.13853 -15.963,0 z"
     id="path84"
     inkscape:connector-curvature="0"
     style="fill:#bf9000;fill-rule:nonzero;stroke:#073763;stroke-width:2;stroke-linecap:butt;stroke-linejoin:round" />
  <path
     d="m 615.29425,129.52982 0,0 c 0,-0.71704 0.57826,-1.29833 1.29156,-1.29833 l 0,0 c 0.3425,0 0.6711,0.13678 0.9133,0.38027 0.2422,0.24348 0.37827,0.57372 0.37827,0.91806 l 0,0 c 0,0.71705 -0.57827,1.29834 -1.29157,1.29834 l 0,0 c -0.7133,0 -1.29156,-0.58129 -1.29156,-1.29834 z"
     id="path86"
     inkscape:connector-curvature="0"
     style="fill:#000000;fill-rule:nonzero;stroke:#000000;stroke-width:2;stroke-linecap:butt;stroke-linejoin:round" />
  <path
     d="m 615.50131,133.48123 1.027,-4.71719 1.027,4.71719 z"
     id="path88"
     inkscape:connector-curvature="0"
     style="fill:#000000;fill-rule:nonzero;stroke:#000000;stroke-width:2;stroke-linecap:butt;stroke-linejoin:round" />
  <path
     d="m 609.61841,125.9129 0,0 c 0,-5.17271 3.02087,-9.36602 6.74725,-9.36602 3.72635,0 6.74719,4.19331 6.74719,9.36602 l -3.3736,0 c 0,-3.30952 -1.51044,-5.99242 -3.37359,-5.99242 -1.86325,0 -3.3736,2.6829 -3.3736,5.99242 z"
     id="path90"
     inkscape:connector-curvature="0"
     style="fill:#bf9000;fill-rule:nonzero;stroke:#073763;stroke-width:2;stroke-linecap:butt;stroke-linejoin:round" />
  <path
     d="m 492.71545,78.970115 0,-9.3125 1.21876,0 0,9.3125 -1.21876,0 z m 7.71876,0 0,-0.84375 q -0.64064,1 -1.89064,1 -0.79686,0 -1.47656,-0.445315 -0.6797,-0.44531 -1.0547,-1.242185 -0.375,-0.796875 -0.375,-1.828125 0,-1.015625 0.34376,-1.83594 0.34374,-0.82031 1.01564,-1.25781 0.67186,-0.4375 1.5,-0.4375 0.60936,0 1.0859,0.25781 0.4766,0.257815 0.77346,0.664065 l 0,-3.34375 1.14064,0 0,9.3125 -1.0625,0 z m -3.6094,-3.359375 q 0,1.296875 0.5391,1.9375 0.53904,0.640625 1.28904,0.640625 0.75,0 1.27346,-0.617185 0.5234,-0.61719 0.5234,-1.86719 0,-1.390625 -0.53124,-2.03906 -0.53126,-0.64844 -1.3125,-0.64844 -0.76562,0 -1.27346,0.625 -0.5078,0.625 -0.5078,1.96875 z m 11.26564,1.1875 1.1875,0.140625 q -0.28124,1.046875 -1.03904,1.617185 -0.75784,0.570315 -1.9297,0.570315 -1.4844,0 -2.3516,-0.914065 -0.86716,-0.91406 -0.86716,-2.554685 0,-1.703125 0.88281,-2.640625 0.88281,-0.9375 2.27345,-0.9375 1.35936,0 2.2109,0.921875 0.8516,0.921875 0.8516,2.578125 0,0.109375 0,0.3125 l -5.03126,0 q 0.0625,1.109375 0.625,1.703125 0.5625,0.59375 1.40626,0.59375 0.6406,0 1.0859,-0.335935 0.44534,-0.33594 0.69534,-1.05469 z m -3.75,-1.84375 3.76562,0 q -0.0781,-0.859375 -0.4375,-1.28125 -0.54686,-0.65625 -1.40626,-0.65625 -0.79686,0 -1.3281,0.52344 -0.53126,0.523435 -0.59376,1.41406 z m 6.54686,4.015625 0,-6.734375 1.03126,0 0,0.953125 q 0.73438,-1.109375 2.14064,-1.109375 0.60936,0 1.1172,0.21875 0.5078,0.21875 0.7656,0.57031 0.2578,0.351565 0.35156,0.851565 0.0625,0.3125 0.0625,1.109375 l 0,4.140625 -1.14062,0 0,-4.09375 q 0,-0.703125 -0.13284,-1.046875 -0.1328,-0.34375 -0.4687,-0.55469 -0.33596,-0.210935 -0.7891,-0.210935 -0.73436,0 -1.2656,0.460935 -0.53126,0.46094 -0.53126,1.757815 l 0,3.6875 -1.14064,0 z m 9.90626,-1.015625 0.15624,1 q -0.48436,0.109375 -0.85936,0.109375 -0.625,0 -0.96874,-0.203125 -0.34376,-0.203125 -0.4844,-0.52344 -0.1406,-0.32031 -0.1406,-1.335935 l 0,-3.890625 -0.82814,0 0,-0.875 0.82814,0 0,-1.671875 1.1406,-0.6875 0,2.359375 1.15626,0 0,0.875 -1.15626,0 0,3.953125 q 0,0.484375 0.0625,0.625 0.0625,0.140625 0.1953,0.21875 0.13284,0.07813 0.38284,0.07813 0.20312,0 0.51562,-0.03125 z m 1.20314,-6.96875 0,-1.328125 1.1406,0 0,1.328125 -1.1406,0 z m 0,7.984375 0,-6.734375 1.1406,0 0,6.734375 -1.1406,0 z m 3.23436,0 0,-5.859375 -1,0 0,-0.875 1,0 0,-0.71875 q 0,-0.6875 0.125,-1.015625 0.17188,-0.4375 0.58594,-0.71875 0.41406,-0.28125 1.16406,-0.28125 0.48438,0 1.0625,0.125 l -0.17186,0.984375 q -0.3594,-0.0625 -0.6719,-0.0625 -0.5156,0 -0.73436,0.22656 -0.21874,0.226565 -0.21874,0.83594 l 0,0.625 1.3125,0 0,0.875 -1.3125,0 0,5.859375 -1.14064,0 z m 3.4375,-7.984375 0,-1.328125 1.14064,0 0,1.328125 -1.14064,0 z m 0,7.984375 0,-6.734375 1.14064,0 0,6.734375 -1.14064,0 z m 7.5625,-2.171875 1.1875,0.140625 q -0.28126,1.046875 -1.03906,1.617185 -0.7578,0.570315 -1.9297,0.570315 -1.48436,0 -2.35155,-0.914065 -0.86719,-0.91406 -0.86719,-2.554685 0,-1.703125 0.88284,-2.640625 0.8828,-0.9375 2.2734,-0.9375 1.3594,0 2.21095,0.921875 0.85155,0.921875 0.85155,2.578125 0,0.109375 0,0.3125 l -5.03124,0 q 0.0625,1.109375 0.625,1.703125 0.5625,0.59375 1.40624,0.59375 0.64064,0 1.08595,-0.335935 0.44531,-0.33594 0.69531,-1.05469 z m -3.75,-1.84375 3.76564,0 q -0.0781,-0.859375 -0.4375,-1.28125 -0.5469,-0.65625 -1.40626,-0.65625 -0.79688,0 -1.32814,0.52344 -0.53124,0.523435 -0.59374,1.41406 z m 6.54688,4.015625 0,-6.734375 1.03126,0 0,1.015625 q 0.3906,-0.71875 0.72655,-0.945315 0.33595,-0.22656 0.72655,-0.22656 0.57814,0 1.1719,0.359375 l -0.39064,1.0625 q -0.42186,-0.25 -0.82812,-0.25 -0.375,0 -0.67969,0.226565 -0.30469,0.22656 -0.42969,0.63281 -0.1875,0.609375 -0.1875,1.328125 l 0,3.53125 -1.14062,0 z"
     id="path92"
     inkscape:connector-curvature="0"
     style="fill:#000000;fill-rule:nonzero" />
  <path
     d="m 463.93801,75.554145 0,-1.5625 4.04685,0 0,3.703125 q -0.59375,0.5625 -1.71095,1 -1.1172,0.4375 -2.2734,0.4375 -1.45315,0 -2.5391,-0.609375 -1.0859,-0.609375 -1.6328,-1.75 -0.5469,-1.140625 -0.5469,-2.484375 0,-1.453125 0.6094,-2.578125 0.6094,-1.125 1.78125,-1.734375 0.89065,-0.46875 2.23435,-0.46875 1.7188,0 2.69534,0.72656 0.97656,0.726565 1.25781,2.007815 l -1.85935,0.359375 q -0.20315,-0.6875 -0.7422,-1.08594 -0.5391,-0.398435 -1.3516,-0.398435 -1.23435,0 -1.9609,0.78125 -0.7266,0.78125 -0.7266,2.3125 0,1.65625 0.7344,2.484375 0.7344,0.828125 1.9219,0.828125 0.5937,0 1.1875,-0.226565 0.5937,-0.22656 1.0156,-0.554685 l 0,-1.1875 -2.1406,0 z m 6.0312,3.421875 0,-9.3125 6.89065,0 0,1.578125 -5.01565,0 0,2.0625 4.6719,0 0,1.578125 -4.6719,0 0,2.53125 5.20315,0 0,1.5625 -7.07815,0 z m 10.9844,0 0,-7.734375 -2.7656,0 0,-1.578125 7.3906,0 0,1.578125 -2.75,0 0,7.734375 -1.875,0 z m 6.375,-4.953125 0,-1.78125 1.78125,0 0,1.78125 -1.78125,0 z m 0,4.953125 0,-1.78125 1.78125,0 0,1.78125 -1.78125,0 z"
     id="path94"
     inkscape:connector-curvature="0"
     style="fill:#000000;fill-rule:nonzero" />
  <path
     d="m 603.03027,100.31226 -346.86612,0"
     id="path96"
     inkscape:connector-curvature="0"
     style="stroke:#073763;stroke-width:2;stroke-linecap:butt;stroke-linejoin:round" />
  <path
     d="m 256.16415,97.00879 -9.0762,3.30347 9.0762,3.30346 z"
     id="path98"
     inkscape:connector-curvature="0"
     style="fill:#073763;fill-rule:evenodd;stroke:#073763;stroke-width:2;stroke-linecap:butt" />
  <path
     d="m 251.93961,115.48416 0,-9.31249 6.71874,0 0,1.10937 -5.48437,0 0,2.84374 5.14063,0 0,1.09376 -5.14063,0 0,3.17187 5.70313,0 0,1.09375 -6.9375,0 z m 8.71874,0 0,-6.73437 1.03126,0 0,0.95312 q 0.73437,-1.10937 2.14062,-1.10937 0.60938,0 1.11718,0.21875 0.50782,0.21875 0.76563,0.57031 0.25781,0.35156 0.35157,0.85156 0.0625,0.3125 0.0625,1.10938 l 0,4.14062 -1.14063,0 0,-4.09375 q 0,-0.70313 -0.13282,-1.04687 -0.13281,-0.34376 -0.46875,-0.55469 -0.33593,-0.21094 -0.78906,-0.21094 -0.73437,0 -1.26562,0.46094 -0.53125,0.46093 -0.53125,1.75781 l 0,3.6875 -1.14063,0 z m 11.79688,-2.46875 1.125,0.14063 q -0.17188,1.17187 -0.9375,1.82812 -0.76562,0.65625 -1.85938,0.65625 -1.39062,0 -2.22656,-0.90625 -0.83594,-0.90625 -0.83594,-2.59375 0,-1.09375 0.35938,-1.91406 0.35938,-0.82031 1.09375,-1.22656 0.73437,-0.40625 1.60937,-0.40625 1.09376,0 1.79688,0.55469 0.70312,0.55468 0.89062,1.57031 l -1.10937,0.17187 q -0.15625,-0.67187 -0.55469,-1.01563 -0.39844,-0.34374 -0.97656,-0.34374 -0.85938,0 -1.39844,0.61718 -0.53906,0.61719 -0.53906,1.96094 0,1.35938 0.51562,1.97656 0.51563,0.61719 1.35938,0.61719 0.67188,0 1.125,-0.41406 0.45312,-0.41407 0.5625,-1.27344 z m 2.26562,2.46875 0,-6.73437 1.03126,0 0,1.01562 q 0.39062,-0.71874 0.72655,-0.9453 0.33595,-0.22657 0.72657,-0.22657 0.57812,0 1.17188,0.35938 l -0.39063,1.06249 q -0.42187,-0.25 -0.82813,-0.25 -0.375,0 -0.67969,0.22657 -0.30468,0.22656 -0.42968,0.6328 -0.1875,0.60938 -0.1875,1.32813 l 0,3.53125 -1.14063,0 z m 4.40626,2.59375 -0.14063,-1.0625 q 0.375,0.0937 0.65625,0.0937 0.39062,0 0.61718,-0.125 0.22657,-0.125 0.3672,-0.35938 0.10937,-0.17187 0.35937,-0.84374 0.0312,-0.0938 0.0937,-0.28126 l -2.5625,-6.74999 1.23438,0 1.40624,3.89062 q 0.26563,0.75 0.48438,1.5625 0.20312,-0.78125 0.46875,-1.53125 l 1.45313,-3.92187 1.14062,0 -2.5625,6.84375 q -0.42188,1.10937 -0.64062,1.53124 -0.3125,0.5625 -0.70313,0.82813 -0.39063,0.26563 -0.9375,0.26563 -0.32813,0 -0.73437,-0.14063 z m 6.70312,-0.0156 0,-9.31249 1.03125,0 0,0.87499 q 0.375,-0.51561 0.83593,-0.77342 0.46094,-0.25782 1.13282,-0.25782 0.85938,0 1.51562,0.44532 0.65626,0.4453 0.99219,1.24999 0.33594,0.80469 0.33594,1.77343 0,1.03126 -0.36719,1.85938 -0.36718,0.82812 -1.07813,1.27344 -0.71093,0.44531 -1.49218,0.44531 -0.5625,0 -1.01563,-0.24219 -0.45312,-0.24218 -0.75,-0.61718 l 0,3.28124 -1.14062,0 z m 1.03125,-5.90624 q 0,1.29687 0.53125,1.92187 0.53125,0.625 1.26562,0.625 0.76563,0 1.3125,-0.64843 0.54688,-0.64844 0.54688,-1.9922 0,-1.29687 -0.53125,-1.9375 -0.53125,-0.64062 -1.26563,-0.64062 -0.73437,0 -1.29687,0.67969 -0.5625,0.67969 -0.5625,1.99219 z m 8.89063,2.3125 0.15624,1 q -0.48437,0.10937 -0.85937,0.10937 -0.625,0 -0.96875,-0.20313 -0.34375,-0.20312 -0.48438,-0.52343 -0.14062,-0.32031 -0.14062,-1.33594 l 0,-3.89063 -0.82812,0 0,-0.87499 0.82812,0 0,-1.67187 1.14062,-0.6875 0,2.35937 1.15626,0 0,0.87499 -1.15626,0 0,3.95313 q 0,0.48437 0.0625,0.625 0.0625,0.14063 0.19531,0.21875 0.13282,0.0781 0.38282,0.0781 0.20313,0 0.51563,-0.0312 z m 5.8125,-1.15626 1.1875,0.14063 q -0.28126,1.04687 -1.03907,1.61719 -0.75781,0.57031 -1.92969,0.57031 -1.48437,0 -2.35156,-0.91406 -0.86718,-0.91407 -0.86718,-2.55469 0,-1.70312 0.8828,-2.64062 0.88282,-0.9375 2.27344,-0.9375 1.35938,0 2.21094,0.92187 0.85156,0.92187 0.85156,2.57813 0,0.10937 0,0.3125 l -5.03124,0 q 0.0625,1.10937 0.625,1.70312 0.5625,0.59375 1.40624,0.59375 0.64063,0 1.08594,-0.33593 0.44532,-0.33594 0.69532,-1.0547 z m -3.75,-1.84374 3.76562,0 q -0.0781,-0.85938 -0.4375,-1.28126 -0.54688,-0.65624 -1.40625,-0.65624 -0.79687,0 -1.32813,0.52344 -0.53124,0.52343 -0.59374,1.41406 z m 10.92187,4.01562 0,-0.84375 q -0.64063,1 -1.89063,1 -0.79687,0 -1.47656,-0.44531 -0.67968,-0.44532 -1.05468,-1.24219 -0.375,-0.79687 -0.375,-1.82813 0,-1.01562 0.34374,-1.83593 0.34376,-0.82031 1.01563,-1.25781 0.67187,-0.4375 1.5,-0.4375 0.60937,0 1.08593,0.25782 0.47657,0.25781 0.77344,0.66405 l 0,-3.34374 1.14063,0 0,9.31249 -1.0625,0 z m -3.60937,-3.35938 q 0,1.29688 0.53905,1.9375 0.53907,0.64063 1.28907,0.64063 0.75,0 1.27343,-0.61719 0.52345,-0.61718 0.52345,-1.86718 0,-1.39063 -0.53126,-2.03906 -0.53124,-0.64844 -1.3125,-0.64844 -0.76562,0 -1.27344,0.625 -0.5078,0.625 -0.5078,1.96874 z m 10.54687,3.35938 0,-9.31249 6.28125,0 0,1.10937 -5.04688,0 0,2.875 4.375,0 0,1.09374 -4.375,0 0,4.23438 -1.23437,0 z m 7.51563,-3.375 q 0,-1.875 1.03124,-2.76562 0.875,-0.75 2.125,-0.75 1.39063,0 2.27344,0.90624 0.88282,0.90626 0.88282,2.51563 0,1.29687 -0.39063,2.04687 -0.39063,0.75 -1.14063,1.16407 -0.75,0.41406 -1.625,0.41406 -1.42187,0 -2.28906,-0.90625 -0.86718,-0.90625 -0.86718,-2.625 z m 1.17187,0 q 0,1.29688 0.5625,1.94532 0.5625,0.64843 1.42187,0.64843 0.84376,0 1.41406,-0.64843 0.57032,-0.64844 0.57032,-1.97657 0,-1.25 -0.57032,-1.89843 -0.5703,-0.64844 -1.41406,-0.64844 -0.85937,0 -1.42187,0.64062 -0.5625,0.64062 -0.5625,1.9375 z m 6.64063,3.375 0,-9.31249 1.14062,0 0,9.31249 -1.14062,0 z m 7.35937,0 0,-0.84375 q -0.64063,1 -1.89063,1 -0.79687,0 -1.47656,-0.44531 -0.67968,-0.44532 -1.05468,-1.24219 -0.375,-0.79687 -0.375,-1.82813 0,-1.01562 0.34374,-1.83593 0.34376,-0.82031 1.01563,-1.25781 0.67187,-0.4375 1.5,-0.4375 0.60937,0 1.08593,0.25782 0.47657,0.25781 0.77344,0.66405 l 0,-3.34374 1.14063,0 0,9.31249 -1.0625,0 z m -3.60937,-3.35938 q 0,1.29688 0.53905,1.9375 0.53907,0.64063 1.28907,0.64063 0.75,0 1.27343,-0.61719 0.52345,-0.61718 0.52345,-1.86718 0,-1.39063 -0.53126,-2.03906 -0.53124,-0.64844 -1.3125,-0.64844 -0.76562,0 -1.27344,0.625 -0.5078,0.625 -0.5078,1.96874 z m 11.26562,1.1875 1.1875,0.14063 q -0.28125,1.04687 -1.03907,1.61719 -0.75781,0.57031 -1.92968,0.57031 -1.48437,0 -2.35157,-0.91406 -0.86718,-0.91407 -0.86718,-2.55469 0,-1.70312 0.88281,-2.64062 0.88281,-0.9375 2.27344,-0.9375 1.35937,0 2.21093,0.92187 0.85157,0.92187 0.85157,2.57813 0,0.10937 0,0.3125 l -5.03125,0 q 0.0625,1.10937 0.625,1.70312 0.5625,0.59375 1.40625,0.59375 0.64063,0 1.08593,-0.33593 0.44532,-0.33594 0.69532,-1.0547 z m -3.75,-1.84374 3.76562,0 q -0.0781,-0.85938 -0.4375,-1.28126 -0.54687,-0.65624 -1.40624,-0.65624 -0.79688,0 -1.32813,0.52344 -0.53125,0.52343 -0.59375,1.41406 z m 6.53125,4.01562 0,-6.73437 1.03125,0 0,1.01562 q 0.39062,-0.71874 0.72656,-0.9453 0.33594,-0.22657 0.72656,-0.22657 0.57813,0 1.17188,0.35938 l -0.39062,1.06249 q -0.42188,-0.25 -0.82813,-0.25 -0.375,0 -0.67969,0.22657 -0.30468,0.22656 -0.42968,0.6328 -0.1875,0.60938 -0.1875,1.32813 l 0,3.53125 -1.14063,0 z"
     id="path100"
     inkscape:connector-curvature="0"
     style="fill:#000000;fill-rule:nonzero" />
  <path
     d="m 447.57941,124.05463 0,-9.3125 1.21874,0 0,9.3125 -1.21874,0 z m 7.71874,0 0,-0.84375 q -0.64064,1 -1.89064,1 -0.79686,0 -1.47655,-0.44532 -0.67968,-0.44531 -1.05468,-1.24218 -0.375,-0.79688 -0.375,-1.82813 0,-1.01562 0.34373,-1.83594 0.34377,-0.82031 1.01564,-1.25781 0.67186,-0.4375 1.5,-0.4375 0.60936,0 1.08596,0.25781 0.47654,0.25782 0.7734,0.66407 l 0,-3.34375 1.14064,0 0,9.3125 -1.0625,0 z m -3.60937,-3.35938 q 0,1.29688 0.53903,1.9375 0.5391,0.64063 1.2891,0.64063 0.75,0 1.2734,-0.61719 0.52347,-0.61719 0.52347,-1.86719 0,-1.39062 -0.53127,-2.03906 -0.53123,-0.64844 -1.3125,-0.64844 -0.7656,0 -1.2734,0.625 -0.50783,0.625 -0.50783,1.96875 z m 11.26563,1.1875 1.1875,0.14063 q -0.28126,1.04687 -1.0391,1.61718 -0.7578,0.57032 -1.92966,0.57032 -1.48437,0 -2.35154,-0.91407 -0.8672,-0.91406 -0.8672,-2.55468 0,-1.70313 0.8828,-2.64063 0.8828,-0.9375 2.27344,-0.9375 1.35936,0 2.21096,0.92188 0.85154,0.92187 0.85154,2.57812 0,0.10938 0,0.3125 l -5.03124,0 q 0.0625,1.10938 0.625,1.70313 0.5625,0.59375 1.40624,0.59375 0.64063,0 1.08596,-0.33594 0.4453,-0.33594 0.6953,-1.05469 z m -3.75,-1.84375 3.7656,0 q -0.0781,-0.85937 -0.4375,-1.28125 -0.54686,-0.65625 -1.40623,-0.65625 -0.79687,0 -1.32813,0.52344 -0.53124,0.52344 -0.59374,1.41406 z m 6.54687,4.01563 0,-6.73438 1.03123,0 0,0.95313 q 0.7344,-1.10938 2.14064,-1.10938 0.60936,0 1.11716,0.21875 0.50784,0.21875 0.76565,0.57031 0.25782,0.35157 0.35155,0.85157 0.0625,0.3125 0.0625,1.10937 l 0,4.14063 -1.1406,0 0,-4.09375 q 0,-0.70313 -0.1328,-1.04688 -0.13283,-0.34375 -0.4688,-0.55469 -0.3359,-0.21093 -0.78903,-0.21093 -0.73437,0 -1.26563,0.46093 -0.53124,0.46094 -0.53124,1.75782 l 0,3.6875 -1.14063,0 z m 9.90623,-1.01563 0.15627,1 q -0.48437,0.10938 -0.85937,0.10938 -0.625,0 -0.96876,-0.20313 -0.34374,-0.20312 -0.48437,-0.52344 -0.14063,-0.32031 -0.14063,-1.33593 l 0,-3.89063 -0.82814,0 0,-0.875 0.82814,0 0,-1.67187 1.14063,-0.6875 0,2.35937 1.15623,0 0,0.875 -1.15623,0 0,3.95313 q 0,0.48437 0.0625,0.625 0.0625,0.14062 0.19533,0.21875 0.1328,0.0781 0.3828,0.0781 0.2031,0 0.5156,-0.0312 z m 1.20314,-6.96875 0,-1.32812 1.14063,0 0,1.32812 -1.14063,0 z m 0,7.98438 0,-6.73438 1.14063,0 0,6.73438 -1.14063,0 z m 3.23436,0 0,-5.85938 -1,0 0,-0.875 1,0 0,-0.71875 q 0,-0.6875 0.125,-1.01562 0.1719,-0.4375 0.58595,-0.71875 0.41405,-0.28125 1.16405,-0.28125 0.4844,0 1.0625,0.125 l -0.17186,0.98437 q -0.35937,-0.0625 -0.67187,-0.0625 -0.51563,0 -0.73437,0.22656 -0.21876,0.22657 -0.21876,0.83594 l 0,0.625 1.3125,0 0,0.875 -1.3125,0 0,5.85938 -1.14064,0 z m 3.4375,-7.98438 0,-1.32812 1.14064,0 0,1.32812 -1.14064,0 z m 0,7.98438 0,-6.73438 1.14064,0 0,6.73438 -1.14064,0 z m 7.5625,-2.17188 1.1875,0.14063 q -0.28123,1.04687 -1.03905,1.61718 -0.75781,0.57032 -1.92968,0.57032 -1.48437,0 -2.35157,-0.91407 -0.8672,-0.91406 -0.8672,-2.55468 0,-1.70313 0.8828,-2.64063 0.88284,-0.9375 2.27347,-0.9375 1.35937,0 2.21093,0.92188 0.85157,0.92187 0.85157,2.57812 0,0.10938 0,0.3125 l -5.03127,0 q 0.0625,1.10938 0.625,1.70313 0.5625,0.59375 1.40627,0.59375 0.64063,0 1.08593,-0.33594 0.4453,-0.33594 0.6953,-1.05469 z m -3.75,-1.84375 3.76564,0 q -0.0781,-0.85937 -0.4375,-1.28125 -0.54687,-0.65625 -1.40624,-0.65625 -0.7969,0 -1.32813,0.52344 -0.53127,0.52344 -0.59377,1.41406 z m 6.5469,4.01563 0,-6.73438 1.03124,0 0,1.01563 q 0.39063,-0.71875 0.72656,-0.94532 0.33594,-0.22656 0.72657,-0.22656 0.57813,0 1.17187,0.35938 l -0.39064,1.0625 q -0.42186,-0.25 -0.8281,-0.25 -0.375,0 -0.6797,0.22656 -0.3047,0.22656 -0.4297,0.63281 -0.1875,0.60938 -0.1875,1.32813 l 0,3.53125 -1.1406,0 z"
     id="path102"
     inkscape:connector-curvature="0"
     style="fill:#000000;fill-rule:nonzero" />
  <path
     d="m 417.93966,120.66138 0,-1.5625 4.04688,0 0,3.70312 q -0.59375,0.5625 -1.71093,1 -1.1172,0.4375 -2.27345,0.4375 -1.45312,0 -2.53905,-0.60937 -1.08595,-0.60938 -1.63282,-1.75 -0.54688,-1.14063 -0.54688,-2.48438 0,-1.45312 0.60938,-2.57812 0.60937,-1.125 1.78125,-1.73438 0.89062,-0.46875 2.23437,-0.46875 1.71875,0 2.6953,0.72656 0.97658,0.72657 1.25783,2.00782 l -1.85938,0.35937 q -0.20312,-0.6875 -0.74219,-1.08594 -0.53906,-0.39843 -1.35156,-0.39843 -1.23437,0 -1.96094,0.78125 -0.72656,0.78125 -0.72656,2.3125 0,1.65625 0.73438,2.48437 0.73437,0.82813 1.92187,0.82813 0.59375,0 1.1875,-0.22657 0.59375,-0.22656 1.01563,-0.55468 l 0,-1.1875 -2.14063,0 z m 6.03125,3.42187 0,-9.3125 6.89063,0 0,1.57813 -5.01563,0 0,2.0625 4.67188,0 0,1.57812 -4.67188,0 0,2.53125 5.20313,0 0,1.5625 -7.07813,0 z m 10.98438,0 0,-7.73437 -2.76563,0 0,-1.57813 7.39063,0 0,1.57813 -2.75,0 0,7.73437 -1.875,0 z m 6.375,-4.95312 0,-1.78125 1.78125,0 0,1.78125 -1.78125,0 z m 0,4.95312 0,-1.78125 1.78125,0 0,1.78125 -1.78125,0 z"
     id="path104"
     inkscape:connector-curvature="0"
     style="fill:#000000;fill-rule:nonzero" />
  <path
     d="m 496.14821,178.86145 0,-39.18111"
     id="path106"
     inkscape:connector-curvature="0"
     style="stroke:#073763;stroke-width:2;stroke-linecap:butt;stroke-linejoin:round" />
  <path
     d="m 496.24331,140.50124 -240.00003,0"
     id="path108"
     inkscape:connector-curvature="0"
     style="stroke:#073763;stroke-width:2;stroke-linecap:butt;stroke-linejoin:round" />
  <path
     d="m 256.24328,137.19777 -9.0762,3.30347 9.0762,3.30346 z"
     id="path110"
     inkscape:connector-curvature="0"
     style="fill:#073763;fill-rule:evenodd;stroke:#073763;stroke-width:2;stroke-linecap:butt" />
  <path
     d="m 260.60549,154.8371 0,-9.3125 6.71875,0 0,1.10937 -5.48437,0 0,2.84375 5.14062,0 0,1.09375 -5.14062,0 0,3.17188 5.70312,0 0,1.09375 -6.9375,0 z m 8.71875,0 0,-6.73438 1.03125,0 0,0.95313 q 0.73438,-1.10938 2.14062,-1.10938 0.60938,0 1.1172,0.21875 0.5078,0.21875 0.76562,0.57031 0.25781,0.35157 0.35156,0.85157 0.0625,0.3125 0.0625,1.10937 l 0,4.14063 -1.14062,0 0,-4.09375 q 0,-0.70313 -0.13281,-1.04688 -0.13282,-0.34375 -0.46875,-0.55469 -0.33594,-0.21093 -0.78907,-0.21093 -0.73437,0 -1.26563,0.46093 -0.53124,0.46094 -0.53124,1.75782 l 0,3.6875 -1.14063,0 z m 11.8125,-2.46875 1.125,0.14062 q -0.17187,1.17188 -0.9375,1.82813 -0.76563,0.65625 -1.85937,0.65625 -1.39063,0 -2.22656,-0.90625 -0.83594,-0.90625 -0.83594,-2.59375 0,-1.09375 0.35937,-1.91407 0.35937,-0.82031 1.09375,-1.22656 0.73438,-0.40625 1.60938,-0.40625 1.09374,0 1.79687,0.55469 0.70313,0.55469 0.89063,1.57031 l -1.10938,0.17188 q -0.15625,-0.67188 -0.55468,-1.01563 -0.39844,-0.34375 -0.97657,-0.34375 -0.85937,0 -1.39843,0.61719 -0.53907,0.61719 -0.53907,1.96094 0,1.35937 0.51563,1.97656 0.51562,0.61719 1.35937,0.61719 0.67187,0 1.125,-0.41407 0.45313,-0.41406 0.5625,-1.27343 z m 2.25,2.46875 0,-6.73438 1.03125,0 0,1.01563 q 0.39062,-0.71875 0.72657,-0.94532 0.33593,-0.22656 0.72655,-0.22656 0.57813,0 1.17188,0.35938 l -0.39062,1.0625 q -0.42188,-0.25 -0.82813,-0.25 -0.375,0 -0.67968,0.22656 -0.30469,0.22656 -0.42969,0.63281 -0.1875,0.60938 -0.1875,1.32813 l 0,3.53125 -1.14063,0 z m 4.40625,2.59375 -0.14062,-1.0625 q 0.375,0.0937 0.65624,0.0937 0.39063,0 0.6172,-0.125 0.22656,-0.125 0.36718,-0.35938 0.10938,-0.17187 0.35938,-0.84375 0.0312,-0.0937 0.0937,-0.28125 l -2.5625,-6.75 1.23438,0 1.40625,3.89063 q 0.26563,0.75 0.48437,1.5625 0.20313,-0.78125 0.46876,-1.53125 l 1.45312,-3.92188 1.14062,0 -2.5625,6.84375 q -0.42187,1.10938 -0.64062,1.53125 -0.3125,0.5625 -0.70312,0.82813 -0.39063,0.26562 -0.9375,0.26562 -0.32813,0 -0.73438,-0.14062 z m 6.71875,-0.0156 0,-9.3125 1.03125,0 0,0.875 q 0.375,-0.51562 0.83594,-0.77344 0.46094,-0.25781 1.13281,-0.25781 0.85937,0 1.51563,0.44531 0.65624,0.44532 0.99219,1.25 0.33593,0.80469 0.33593,1.77344 0,1.03125 -0.36718,1.85938 -0.3672,0.82812 -1.07813,1.27343 -0.71094,0.44532 -1.49219,0.44532 -0.5625,0 -1.01562,-0.24219 -0.45313,-0.24219 -0.75,-0.61719 l 0,3.28125 -1.14063,0 z m 1.03125,-5.90625 q 0,1.29688 0.53125,1.92188 0.53125,0.625 1.26563,0.625 0.76562,0 1.3125,-0.64844 0.54687,-0.64844 0.54687,-1.99219 0,-1.29687 -0.53125,-1.9375 -0.53125,-0.64062 -1.26562,-0.64062 -0.73438,0 -1.29688,0.67968 -0.5625,0.67969 -0.5625,1.99219 z m 8.875,2.3125 0.15625,1 q -0.48437,0.10938 -0.85937,0.10938 -0.625,0 -0.96876,-0.20313 -0.34374,-0.20312 -0.48437,-0.52344 -0.14063,-0.32031 -0.14063,-1.33593 l 0,-3.89063 -0.82812,0 0,-0.875 0.82812,0 0,-1.67187 1.14063,-0.6875 0,2.35937 1.15625,0 0,0.875 -1.15625,0 0,3.95313 q 0,0.48437 0.0625,0.625 0.0625,0.14062 0.19532,0.21875 0.13281,0.0781 0.38281,0.0781 0.20312,0 0.51562,-0.0312 z m 5.8125,-1.15625 1.1875,0.14063 q -0.28125,1.04687 -1.03906,1.61718 -0.75782,0.57032 -1.92969,0.57032 -1.48437,0 -2.35156,-0.91407 -0.86719,-0.91406 -0.86719,-2.55468 0,-1.70313 0.88282,-2.64063 0.8828,-0.9375 2.27343,-0.9375 1.35937,0 2.21094,0.92188 0.85156,0.92187 0.85156,2.57812 0,0.10938 0,0.3125 l -5.03125,0 q 0.0625,1.10938 0.625,1.70313 0.5625,0.59375 1.40625,0.59375 0.64063,0 1.08594,-0.33594 0.44531,-0.33594 0.69531,-1.05469 z m -3.75,-1.84375 3.76562,0 q -0.0781,-0.85937 -0.4375,-1.28125 -0.54687,-0.65625 -1.40624,-0.65625 -0.79688,0 -1.32813,0.52344 -0.53125,0.52344 -0.59375,1.41406 z m 10.9375,4.01563 0,-0.84375 q -0.64062,1 -1.89062,1 -0.79688,0 -1.47656,-0.44532 -0.6797,-0.44531 -1.0547,-1.24218 -0.375,-0.79688 -0.375,-1.82813 0,-1.01562 0.34376,-1.83594 0.34374,-0.82031 1.01562,-1.25781 0.67188,-0.4375 1.5,-0.4375 0.60938,0 1.08594,0.25781 0.47656,0.25782 0.77344,0.66407 l 0,-3.34375 1.14062,0 0,9.3125 -1.0625,0 z m -3.60938,-3.35938 q 0,1.29688 0.53907,1.9375 0.53906,0.64063 1.28906,0.64063 0.75,0 1.27344,-0.61719 0.52343,-0.61719 0.52343,-1.86719 0,-1.39062 -0.53124,-2.03906 -0.53126,-0.64844 -1.3125,-0.64844 -0.76563,0 -1.27344,0.625 -0.50782,0.625 -0.50782,1.96875 z m 10.54688,3.35938 0,-9.3125 6.28125,0 0,1.10937 -5.04687,0 0,2.875 4.375,0 0,1.09375 -4.375,0 0,4.23438 -1.23438,0 z m 7.9375,-7.98438 0,-1.32812 1.14062,0 0,1.32812 -1.14062,0 z m 0,7.98438 0,-6.73438 1.14062,0 0,6.73438 -1.14062,0 z m 2.9375,0 0,-9.3125 1.14062,0 0,9.3125 -1.14062,0 z m 7.59375,-2.17188 1.1875,0.14063 q -0.28125,1.04687 -1.03906,1.61718 -0.75781,0.57032 -1.92969,0.57032 -1.48438,0 -2.35156,-0.91407 -0.86719,-0.91406 -0.86719,-2.55468 0,-1.70313 0.88282,-2.64063 0.88281,-0.9375 2.27343,-0.9375 1.35938,0 2.21094,0.92188 0.85156,0.92187 0.85156,2.57812 0,0.10938 0,0.3125 l -5.03125,0 q 0.0625,1.10938 0.625,1.70313 0.5625,0.59375 1.40625,0.59375 0.64062,0 1.08594,-0.33594 0.44531,-0.33594 0.69531,-1.05469 z m -3.75,-1.84375 3.76563,0 q -0.0781,-0.85937 -0.4375,-1.28125 -0.54688,-0.65625 -1.40626,-0.65625 -0.79687,0 -1.32812,0.52344 -0.53125,0.52344 -0.59375,1.41406 z"
     id="path112"
     inkscape:connector-curvature="0"
     style="fill:#000000;fill-rule:nonzero" />
  <path
     d="m 197.13693,152.62823 0,83.96851"
     id="path114"
     inkscape:connector-curvature="0"
     style="stroke:#073763;stroke-width:2;stroke-linecap:butt;stroke-linejoin:round" />
  <path
     d="m 197.38931,236.67642 -91.93701,0"
     id="path116"
     inkscape:connector-curvature="0"
     style="stroke:#073763;stroke-width:2;stroke-linecap:butt;stroke-linejoin:round" />
  <path
     d="m 105.4523,233.37295 -9.076205,3.30347 9.076205,3.30346 z"
     id="path118"
     inkscape:connector-curvature="0"
     style="fill:#073763;fill-rule:evenodd;stroke:#073763;stroke-width:2;stroke-linecap:butt" />
  <rect
     style="fill:none;stroke:none"
     id="rect3101"
     width="716.263"
     height="308.92734"
     x="0"
     y="0" />
</svg>
