<?xml version="1.0" standalone="yes"?>

<svg version="1.1" viewBox="0.0 0.0 960.0 720.0" fill="none" stroke="none" stroke-linecap="square" stroke-miterlimit="10" clip-path="url(#clip0)" xmlns="http://www.w3.org/2000/svg" xmlns:xlink="http://www.w3.org/1999/xlink"><clipPath id="clip0"><path d="M0 0L960.0 0L960.0 720.0L0 720.0L0 0Z" clip-rule="nonzero"></path></clipPath><path d="M206.31242 52.542572L300.29666 52.542572L300.29666 82.30635L206.31242 82.30635Z" fill-rule="nonzero" fill="#fcc9d9" fill-opacity="0.4308"></path><path d="M206.31242 52.542572L300.29666 52.542572L300.29666 82.30635L206.31242 82.30635Z" fill-rule="nonzero" stroke="#073763" stroke-width="1.0" stroke-linejoin="round" stroke-linecap="butt" stroke-dasharray="4.0,3.0"></path><path d="M219.49992 72.91757L219.49992 63.605072L223.62492 63.605072Q224.87492 63.605072 225.52336 63.862885Q226.1718 64.1207 226.56242 64.75351Q226.95305 65.38632 226.95305 66.15195Q226.95305 67.13632 226.30461 67.81601Q225.65617 68.4957 224.32805 68.6832Q224.81242 68.91757 225.06242 69.15195Q225.6093 69.63632 226.09367 70.38632L227.70305 72.91757L226.15617 72.91757L224.9218 70.98007Q224.39055 70.13632 224.03899 69.69882Q223.68742 69.26132 223.41399 69.081635Q223.14055 68.90195 222.8593 68.82382Q222.64055 68.79257 222.1718 68.79257L220.7343 68.79257L220.7343 72.91757L219.49992 72.91757ZM220.7343 67.71445L223.39055 67.71445Q224.2343 67.71445 224.71086 67.54257Q225.18742 67.3707 225.42961 66.987885Q225.6718 66.60507 225.6718 66.15195Q225.6718 65.4957 225.19524 65.06601Q224.71867 64.63632 223.68742 64.63632L220.7343 64.63632L220.7343 67.71445ZM228.5468 69.54257Q228.5468 67.66757 229.57805 66.77695Q230.45305 66.02695 231.70305 66.02695Q233.09367 66.02695 233.97649 66.9332Q234.8593 67.83945 234.8593 69.44882Q234.8593 70.7457 234.46867 71.4957Q234.07805 72.2457 233.32805 72.65976Q232.57805 73.07382 231.70305 73.07382Q230.28117 73.07382 229.41399 72.16757Q228.5468 71.26132 228.5468 69.54257ZM229.71867 69.54257Q229.71867 70.83945 230.28117 71.487885Q230.84367 72.13632 231.70305 72.13632Q232.5468 72.13632 233.11711 71.487885Q233.68742 70.83945 233.68742 69.51132Q233.68742 68.26132 233.11711 67.612885Q232.5468 66.96445 231.70305 66.96445Q230.84367 66.96445 230.28117 67.60507Q229.71867 68.2457 229.71867 69.54257ZM235.95305 69.54257Q235.95305 67.66757 236.9843 66.77695Q237.8593 66.02695 239.1093 66.02695Q240.49992 66.02695 241.38274 66.9332Q242.26555 67.83945 242.26555 69.44882Q242.26555 70.7457 241.87492 71.4957Q241.4843 72.2457 240.7343 72.65976Q239.9843 73.07382 239.1093 73.07382Q237.68742 73.07382 236.82024 72.16757Q235.95305 71.26132 235.95305 69.54257ZM237.12492 69.54257Q237.12492 70.83945 237.68742 71.487885Q238.24992 72.13632 239.1093 72.13632Q239.95305 72.13632 240.52336 71.487885Q241.09367 70.83945 241.09367 69.51132Q241.09367 68.26132 240.52336 67.612885Q239.95305 66.96445 239.1093 66.96445Q238.24992 66.96445 237.68742 67.60507Q237.12492 68.2457 237.12492 69.54257ZM246.2968 71.90195L246.45305 72.90195Q245.96867 73.01132 245.59367 73.01132Q244.96867 73.01132 244.62492 72.8082Q244.28117 72.60507 244.14055 72.28476Q243.99992 71.96445 243.99992 70.94882L243.99992 67.0582L243.1718 67.0582L243.1718 66.1832L243.99992 66.1832L243.99992 64.51132L245.14055 63.823822L245.14055 66.1832L246.2968 66.1832L246.2968 67.0582L245.14055 67.0582L245.14055 71.01132Q245.14055 71.4957 245.20305 71.63632Q245.26555 71.77695 245.39836 71.85507Q245.53117 71.9332 245.78117 71.9332Q245.9843 71.9332 246.2968 71.90195ZM251.39055 72.91757L251.39055 63.605072L257.67178 63.605072L257.67178 64.71445L252.62492 64.71445L252.62492 67.58945L256.9999 67.58945L256.9999 68.6832L252.62492 68.6832L252.62492 72.91757L251.39055 72.91757ZM258.92178 69.54257Q258.92178 67.66757 259.95303 66.77695Q260.82803 66.02695 262.07803 66.02695Q263.46866 66.02695 264.35147 66.9332Q265.23428 67.83945 265.23428 69.44882Q265.23428 70.7457 264.84366 71.4957Q264.45303 72.2457 263.70303 72.65976Q262.95303 73.07382 262.07803 73.07382Q260.65616 73.07382 259.78897 72.16757Q258.92178 71.26132 258.92178 69.54257ZM260.09366 69.54257Q260.09366 70.83945 260.65616 71.487885Q261.21866 72.13632 262.07803 72.13632Q262.92178 72.13632 263.4921 71.487885Q264.0624 70.83945 264.0624 69.51132Q264.0624 68.26132 263.4921 67.612885Q262.92178 66.96445 262.07803 66.96445Q261.21866 66.96445 260.65616 67.60507Q260.09366 68.2457 260.09366 69.54257ZM266.71866 72.91757L266.71866 63.605072L267.85928 63.605072L267.85928 72.91757L266.71866 72.91757ZM274.07803 72.91757L274.07803 72.07382Q273.4374 73.07382 272.1874 73.07382Q271.39053 73.07382 270.71085 72.62851Q270.03116 72.1832 269.65616 71.38632Q269.28116 70.58945 269.28116 69.5582Q269.28116 68.54257 269.6249 67.72226Q269.96866 66.90195 270.64053 66.46445Q271.3124 66.02695 272.14053 66.02695Q272.7499 66.02695 273.22647 66.28476Q273.70303 66.54257 273.9999 66.94882L273.9999 63.605072L275.14053 63.605072L275.14053 72.91757L274.07803 72.91757ZM270.46866 69.5582Q270.46866 70.85507 271.00772 71.4957Q271.54678 72.13632 272.29678 72.13632Q273.04678 72.13632 273.57022 71.519135Q274.09366 70.90195 274.09366 69.65195Q274.09366 68.26132 273.5624 67.612885Q273.03116 66.96445 272.2499 66.96445Q271.48428 66.96445 270.97647 67.58945Q270.46866 68.21445 270.46866 69.5582ZM281.73428 70.7457L282.92178 70.88632Q282.64053 71.9332 281.88272 72.50351Q281.1249 73.07382 279.95303 73.07382Q278.46866 73.07382 277.60147 72.15976Q276.73428 71.2457 276.73428 69.60507Q276.73428 67.90195 277.6171 66.96445Q278.4999 66.02695 279.89053 66.02695Q281.2499 66.02695 282.10147 66.94882Q282.95303 67.8707 282.95303 69.52695Q282.95303 69.63632 282.95303 69.83945L277.92178 69.83945Q277.98428 70.94882 278.54678 71.54257Q279.10928 72.13632 279.95303 72.13632Q280.59366 72.13632 281.03897 71.800385Q281.48428 71.46445 281.73428 70.7457ZM277.98428 68.90195L281.7499 68.90195Q281.67178 68.04257 281.3124 67.6207Q280.76553 66.96445 279.90616 66.96445Q279.10928 66.96445 278.57803 67.487885Q278.04678 68.01132 277.98428 68.90195ZM284.51553 72.91757L284.51553 66.1832L285.54678 66.1832L285.54678 67.19882Q285.9374 66.48007 286.27335 66.25351Q286.60928 66.02695 286.9999 66.02695Q287.57803 66.02695 288.17178 66.38632L287.78116 67.44882Q287.35928 67.19882 286.95303 67.19882Q286.57803 67.19882 286.27335 67.425385Q285.96866 67.65195 285.84366 68.0582Q285.65616 68.66757 285.65616 69.38632L285.65616 72.91757L284.51553 72.91757Z" fill-rule="nonzero" fill="#000000"></path><path d="M322.1496 52.952023L417.74014 52.952023L417.74014 81.896904L322.1496 81.896904Z" fill-rule="nonzero" fill="#fce5cd" fill-opacity="0.4308"></path><path d="M322.1496 52.952023L417.74014 52.952023L417.74014 81.896904L322.1496 81.896904Z" fill-rule="nonzero" stroke="#073763" stroke-width="1.0" stroke-linejoin="round" stroke-linecap="butt" stroke-dasharray="4.0,3.0"></path><path d="M331.99335 69.9364L333.16522 69.82703Q333.24335 70.53015 333.54803 70.975464Q333.85272 71.42078 334.48553 71.694214Q335.11835 71.96765 335.91522 71.96765Q336.61835 71.96765 337.1574 71.76453Q337.69647 71.5614 337.9621 71.194214Q338.22772 70.82703 338.22772 70.38953Q338.22772 69.95203 337.9699 69.6239Q337.7121 69.29578 337.13397 69.07703Q336.75897 68.9364 335.47772 68.6239Q334.19647 68.3114 333.68085 68.04578Q333.00897 67.70203 332.68085 67.17859Q332.35272 66.65515 332.35272 66.01453Q332.35272 65.3114 332.75116 64.70203Q333.1496 64.09265 333.92303 63.772335Q334.69647 63.452023 335.63397 63.452023Q336.66522 63.452023 337.45428 63.78796Q338.24335 64.1239 338.67303 64.77234Q339.10272 65.42078 339.13397 66.23328L337.94647 66.32703Q337.85272 65.4364 337.30585 64.99109Q336.75897 64.54578 335.68085 64.54578Q334.57147 64.54578 334.05585 64.95203Q333.54022 65.35828 333.54022 65.9364Q333.54022 66.4364 333.8996 66.76453Q334.25897 67.09265 335.75897 67.42859Q337.25897 67.76453 337.82147 68.01453Q338.63397 68.38953 339.01678 68.96765Q339.3996 69.54578 339.3996 70.29578Q339.3996 71.03015 338.97772 71.6864Q338.55585 72.34265 337.75897 72.70984Q336.9621 73.07703 335.9621 73.07703Q334.69647 73.07703 333.8449 72.70984Q332.99335 72.34265 332.50897 71.600464Q332.0246 70.85828 331.99335 69.9364ZM341.16522 72.92078L341.16522 63.608273L342.30585 63.608273L342.30585 66.95203Q343.10272 66.03015 344.32147 66.03015Q345.07147 66.03015 345.62616 66.32703Q346.18085 66.6239 346.41522 67.13953Q346.6496 67.65515 346.6496 68.65515L346.6496 72.92078L345.50897 72.92078L345.50897 68.65515Q345.50897 67.79578 345.14178 67.40515Q344.7746 67.01453 344.0871 67.01453Q343.5871 67.01453 343.13397 67.27234Q342.68085 67.53015 342.49335 67.98328Q342.30585 68.4364 342.30585 69.23328L342.30585 72.92078L341.16522 72.92078ZM352.9621 72.09265Q352.3371 72.6239 351.75116 72.850464Q351.16522 73.07703 350.49335 73.07703Q349.36835 73.07703 348.7746 72.53015Q348.18085 71.98328 348.18085 71.13953Q348.18085 70.65515 348.4074 70.24109Q348.63397 69.82703 349.00116 69.57703Q349.36835 69.32703 349.82147 69.20203Q350.1496 69.1239 350.8371 69.03015Q352.2121 68.8739 352.86835 68.63953Q352.88397 68.40515 352.88397 68.34265Q352.88397 67.63953 352.55585 67.35828Q352.11835 66.96765 351.25897 66.96765Q350.44647 66.96765 350.06366 67.2489Q349.68085 67.53015 349.49335 68.2489L348.38397 68.10828Q348.5246 67.38953 348.87616 66.944214Q349.22772 66.4989 349.89178 66.26453Q350.55585 66.03015 351.41522 66.03015Q352.29022 66.03015 352.82928 66.23328Q353.36835 66.4364 353.61835 66.74109Q353.86835 67.04578 353.97772 67.51453Q354.0246 67.8114 354.0246 68.57703L354.0246 70.09265Q354.0246 71.6864 354.10272 72.10828Q354.18085 72.53015 354.38397 72.92078L353.19647 72.92078Q353.0246 72.5614 352.9621 72.09265ZM352.86835 69.53015Q352.24335 69.79578 351.00897 69.96765Q350.30585 70.07703 350.00897 70.20203Q349.7121 70.32703 349.55585 70.569214Q349.3996 70.8114 349.3996 71.10828Q349.3996 71.5614 349.74335 71.86609Q350.0871 72.17078 350.75897 72.17078Q351.41522 72.17078 351.93085 71.881714Q352.44647 71.59265 352.69647 71.09265Q352.86835 70.71765 352.86835 69.95203L352.86835 69.53015ZM355.97772 72.92078L355.97772 66.1864L357.00897 66.1864L357.00897 67.20203Q357.3996 66.48328 357.73553 66.256714Q358.07147 66.03015 358.4621 66.03015Q359.04022 66.03015 359.63397 66.38953L359.24335 67.45203Q358.82147 67.20203 358.41522 67.20203Q358.04022 67.20203 357.73553 67.42859Q357.43085 67.65515 357.30585 68.0614Q357.11835 68.67078 357.11835 69.38953L357.11835 72.92078L355.97772 72.92078ZM365.04022 70.7489L366.22772 70.88953Q365.94647 71.9364 365.18866 72.506714Q364.43085 73.07703 363.25897 73.07703Q361.7746 73.07703 360.9074 72.162964Q360.04022 71.2489 360.04022 69.60828Q360.04022 67.90515 360.92303 66.96765Q361.80585 66.03015 363.19647 66.03015Q364.55585 66.03015 365.4074 66.95203Q366.25897 67.8739 366.25897 69.53015Q366.25897 69.63953 366.25897 69.84265L361.22772 69.84265Q361.29022 70.95203 361.85272 71.54578Q362.41522 72.13953 363.25897 72.13953Q363.8996 72.13953 364.3449 71.80359Q364.79022 71.46765 365.04022 70.7489ZM361.29022 68.90515L365.05585 68.90515Q364.97772 68.04578 364.61835 67.6239Q364.07147 66.96765 363.2121 66.96765Q362.41522 66.96765 361.88397 67.49109Q361.35272 68.01453 361.29022 68.90515ZM371.74335 72.92078L371.74335 63.608273L378.0246 63.608273L378.0246 64.71765L372.97772 64.71765L372.97772 67.59265L377.35272 67.59265L377.35272 68.6864L372.97772 68.6864L372.97772 72.92078L371.74335 72.92078ZM379.25897 69.54578Q379.25897 67.67078 380.29022 66.78015Q381.16522 66.03015 382.41522 66.03015Q383.80585 66.03015 384.68866 66.9364Q385.57147 67.84265 385.57147 69.45203Q385.57147 70.7489 385.18085 71.4989Q384.79022 72.2489 384.04022 72.662964Q383.29022 73.07703 382.41522 73.07703Q380.99335 73.07703 380.12616 72.17078Q379.25897 71.26453 379.25897 69.54578ZM380.43085 69.54578Q380.43085 70.84265 380.99335 71.49109Q381.55585 72.13953 382.41522 72.13953Q383.25897 72.13953 383.82928 71.49109Q384.3996 70.84265 384.3996 69.51453Q384.3996 68.26453 383.82928 67.61609Q383.25897 66.96765 382.41522 66.96765Q381.55585 66.96765 380.99335 67.60828Q380.43085 68.2489 380.43085 69.54578ZM387.07147 72.92078L387.07147 63.608273L388.2121 63.608273L388.2121 72.92078L387.07147 72.92078ZM394.43085 72.92078L394.43085 72.07703Q393.79022 73.07703 392.54022 73.07703Q391.74335 73.07703 391.06366 72.631714Q390.38397 72.1864 390.00897 71.38953Q389.63397 70.59265 389.63397 69.5614Q389.63397 68.54578 389.97772 67.725464Q390.32147 66.90515 390.99335 66.46765Q391.66522 66.03015 392.49335 66.03015Q393.10272 66.03015 393.57928 66.287964Q394.05585 66.54578 394.35272 66.95203L394.35272 63.608273L395.49335 63.608273L395.49335 72.92078L394.43085 72.92078ZM390.82147 69.5614Q390.82147 70.85828 391.36053 71.4989Q391.8996 72.13953 392.6496 72.13953Q393.3996 72.13953 393.92303 71.52234Q394.44647 70.90515 394.44647 69.65515Q394.44647 68.26453 393.91522 67.61609Q393.38397 66.96765 392.60272 66.96765Q391.8371 66.96765 391.32928 67.59265Q390.82147 68.21765 390.82147 69.5614ZM402.07147 70.7489L403.25897 70.88953Q402.97772 71.9364 402.2199 72.506714Q401.4621 73.07703 400.29022 73.07703Q398.80585 73.07703 397.93866 72.162964Q397.07147 71.2489 397.07147 69.60828Q397.07147 67.90515 397.95428 66.96765Q398.8371 66.03015 400.22772 66.03015Q401.5871 66.03015 402.43866 66.95203Q403.29022 67.8739 403.29022 69.53015Q403.29022 69.63953 403.29022 69.84265L398.25897 69.84265Q398.32147 70.95203 398.88397 71.54578Q399.44647 72.13953 400.29022 72.13953Q400.93085 72.13953 401.37616 71.80359Q401.82147 71.46765 402.07147 70.7489ZM398.32147 68.90515L402.0871 68.90515Q402.00897 68.04578 401.6496 67.6239Q401.10272 66.96765 400.24335 66.96765Q399.44647 66.96765 398.91522 67.49109Q398.38397 68.01453 398.32147 68.90515ZM404.86835 72.92078L404.86835 66.1864L405.8996 66.1864L405.8996 67.20203Q406.29022 66.48328 406.62616 66.256714Q406.9621 66.03015 407.35272 66.03015Q407.93085 66.03015 408.5246 66.38953L408.13397 67.45203Q407.7121 67.20203 407.30585 67.20203Q406.93085 67.20203 406.62616 67.42859Q406.32147 67.65515 406.19647 68.0614Q406.00897 68.67078 406.00897 69.38953L406.00897 72.92078L404.86835 72.92078Z" fill-rule="nonzero" fill="#000000"></path><path d="M200.10236 132.63011L200.10236 132.63011C200.10236 127.40297 204.3398 123.16554 209.56693 123.16554L209.56693 123.16554C212.07709 123.16554 214.48444 124.1627 216.25938 125.937645C218.03433 127.7126 219.0315 130.11995 219.0315 132.63011L219.0315 132.63011C219.0315 137.85724 214.79407 142.09467 209.56693 142.09467L209.56693 142.09467C204.3398 142.09467 200.10236 137.85724 200.10236 132.63011Z" fill-rule="nonzero" fill="#fcc9d9" stroke="#073763" stroke-width="2.0" stroke-linejoin="round" stroke-linecap="butt"></path><path d="M154.32927 182.37791L154.32927 182.37791C154.32927 177.15077 158.56671 172.91335 163.79384 172.91335L163.79384 172.91335C166.304 172.91335 168.71135 173.9105 170.4863 175.68546C172.26125 177.4604 173.2584 179.86775 173.2584 182.37791L173.2584 182.37791C173.2584 187.60504 169.02098 191.84248 163.79384 191.84248L163.79384 191.84248C158.56671 191.84248 154.32927 187.60504 154.32927 182.37791Z" fill-rule="nonzero" fill="#cfe2f3" stroke="#073763" stroke-width="2.0" stroke-linejoin="round" stroke-linecap="butt"></path><path d="M202.87447 139.32257L178.4677 166.72458" fill-rule="evenodd" stroke="#073763" stroke-width="2.0" stroke-linejoin="round" stroke-linecap="butt"></path><path d="M176.00087 164.52739L172.43097 173.50212L180.93452 168.92175Z" fill-rule="evenodd" fill="#073763" stroke="#073763" stroke-width="2.0" stroke-linecap="butt"></path><path d="M266.43082 181.63586L266.43082 181.63586C266.43082 176.40874 262.1934 172.1713 256.96625 172.1713L256.96625 172.1713C254.45609 172.1713 252.04874 173.16846 250.27379 174.9434C248.49884 176.71835 247.50168 179.1257 247.50168 181.63586L247.50168 181.63586C247.50168 186.863 251.7391 191.10043 256.96625 191.10043L256.96625 191.10043C262.1934 191.10043 266.43082 186.863 266.43082 181.63586Z" fill-rule="nonzero" fill="#fce5cd" stroke="#073763" stroke-width="2.0" stroke-linejoin="round" stroke-linecap="butt"></path><path d="M217.89583 138.56546L242.29564 165.97964" fill-rule="evenodd" stroke="#073763" stroke-width="2.0" stroke-linejoin="round" stroke-linecap="butt"></path><path d="M239.82802 168.17593L248.32991 172.75938L244.76326 163.78334Z" fill-rule="evenodd" fill="#073763" stroke="#073763" stroke-width="2.0" stroke-linecap="butt"></path><path d="M195.10262 114.443344L198.68074 105.130844L199.99324 105.130844L203.80574 114.443344L202.39949 114.443344L201.32137 111.630844L197.43074 111.630844L196.39949 114.443344L195.10262 114.443344ZM197.79012 110.61522L200.94637 110.61522L199.96199 108.037094Q199.52449 106.86522 199.30574 106.11522Q199.13387 107.005844 198.80574 107.89647L197.79012 110.61522ZM204.83699 114.443344L204.83699 105.130844L205.97762 105.130844L205.97762 114.443344L204.83699 114.443344ZM207.82137 106.45897L207.82137 105.130844L208.96199 105.130844L208.96199 106.45897L207.82137 106.45897ZM207.82137 114.443344L207.82137 107.70897L208.96199 107.70897L208.96199 114.443344L207.82137 114.443344ZM215.18074 111.974594L216.30574 112.11522Q216.13387 113.287094 215.36824 113.943344Q214.60262 114.599594 213.50887 114.599594Q212.11824 114.599594 211.2823 113.693344Q210.44637 112.787094 210.44637 111.099594Q210.44637 110.005844 210.80574 109.18553Q211.16512 108.36522 211.89949 107.95897Q212.63387 107.55272 213.50887 107.55272Q214.60262 107.55272 215.30574 108.10741Q216.00887 108.662094 216.19637 109.67772L215.08699 109.849594Q214.93074 109.17772 214.5323 108.83397Q214.13387 108.49022 213.55574 108.49022Q212.69637 108.49022 212.1573 109.10741Q211.61824 109.724594 211.61824 111.068344Q211.61824 112.42772 212.13387 113.04491Q212.64949 113.662094 213.49324 113.662094Q214.16512 113.662094 214.61824 113.24803Q215.07137 112.83397 215.18074 111.974594ZM222.05574 112.27147L223.24324 112.412094Q222.96199 113.45897 222.20418 114.02928Q221.44637 114.599594 220.27449 114.599594Q218.79012 114.599594 217.92293 113.68553Q217.05574 112.77147 217.05574 111.130844Q217.05574 109.42772 217.93855 108.49022Q218.82137 107.55272 220.21199 107.55272Q221.57137 107.55272 222.42293 108.474594Q223.27449 109.39647 223.27449 111.05272Q223.27449 111.162094 223.27449 111.36522L218.24324 111.36522Q218.30574 112.474594 218.86824 113.068344Q219.43074 113.662094 220.27449 113.662094Q220.91512 113.662094 221.36043 113.32616Q221.80574 112.99022 222.05574 112.27147ZM218.30574 110.42772L222.07137 110.42772Q221.99324 109.568344 221.63387 109.14647Q221.08699 108.49022 220.22762 108.49022Q219.43074 108.49022 218.89949 109.01366Q218.36824 109.537094 218.30574 110.42772Z" fill-rule="nonzero" fill="#000000"></path><path d="M94.80492 236.12376L94.80492 228.24876L100.11742 228.24876L100.11742 229.18626L95.83617 229.18626L95.83617 231.62376L99.53929 231.62376L99.53929 232.54564L95.83617 232.54564L95.83617 236.12376L94.80492 236.12376ZM101.13304 229.35814L101.13304 228.24876L102.10179 228.24876L102.10179 229.35814L101.13304 229.35814ZM101.13304 236.12376L101.13304 230.42064L102.10179 230.42064L102.10179 236.12376L101.13304 236.12376ZM103.47679 236.12376L103.47679 228.24876L104.44554 228.24876L104.44554 236.12376L103.47679 236.12376ZM109.75804 234.28001L110.75804 234.40501Q110.52367 235.28001 109.88304 235.76439Q109.24242 236.24876 108.25804 236.24876Q107.00804 236.24876 106.27367 235.48314Q105.53929 234.71751 105.53929 233.32689Q105.53929 231.87376 106.28148 231.0847Q107.02367 230.29564 108.19554 230.29564Q109.35179 230.29564 110.07054 231.06908Q110.78929 231.84251 110.78929 233.26439Q110.78929 233.34251 110.78929 233.51439L106.53929 233.51439Q106.58617 234.45189 107.06273 234.95189Q107.53929 235.45189 108.25804 235.45189Q108.78929 235.45189 109.16429 235.17845Q109.53929 234.90501 109.75804 234.28001ZM106.58617 232.71751L109.77367 232.71751Q109.71117 231.99876 109.41429 231.63939Q108.94554 231.09251 108.21117 231.09251Q107.53929 231.09251 107.08617 231.53783Q106.63304 231.98314 106.58617 232.71751ZM111.41429 234.42064L112.36742 234.26439Q112.44554 234.84251 112.81273 235.1472Q113.17992 235.45189 113.83617 235.45189Q114.50804 235.45189 114.828354 235.18626Q115.14867 234.92064 115.14867 234.54564Q115.14867 234.21751 114.86742 234.03001Q114.66429 233.90501 113.88304 233.70189Q112.82054 233.43626 112.40648 233.24095Q111.99242 233.04564 111.78148 232.70189Q111.57054 232.35814 111.57054 231.93626Q111.57054 231.54564 111.74242 231.22533Q111.91429 230.90501 112.22679 230.68626Q112.44554 230.51439 112.83617 230.40501Q113.22679 230.29564 113.66429 230.29564Q114.33617 230.29564 114.84398 230.48314Q115.35179 230.67064 115.59398 231.00658Q115.83617 231.34251 115.92992 231.88939L114.99242 232.01439Q114.91429 231.57689 114.609604 231.3347Q114.30492 231.09251 113.74242 231.09251Q113.07054 231.09251 112.78929 231.31126Q112.50804 231.53001 112.50804 231.82689Q112.50804 232.01439 112.61742 232.15501Q112.74242 232.31126 112.99242 232.42064Q113.13304 232.46751 113.85179 232.67064Q114.86742 232.93626 115.27367 233.10814Q115.67992 233.28001 115.91429 233.61595Q116.14867 233.95189 116.14867 234.45189Q116.14867 234.93626 115.86742 235.35814Q115.58617 235.78001 115.05492 236.01439Q114.52367 236.24876 113.85179 236.24876Q112.74242 236.24876 112.15648 235.78783Q111.57054 235.32689 111.41429 234.42064ZM123.80492 235.42064Q123.25804 235.87376 122.765854 236.06126Q122.27367 236.24876 121.69554 236.24876Q120.75804 236.24876 120.25023 235.78783Q119.74242 235.32689 119.74242 234.62376Q119.74242 234.20189 119.93773 233.85814Q120.13304 233.51439 120.43773 233.30345Q120.74242 233.09251 121.13304 232.98314Q121.41429 232.90501 121.99242 232.84251Q123.16429 232.70189 123.71117 232.49876Q123.72679 232.31126 123.72679 232.24876Q123.72679 231.65501 123.44554 231.42064Q123.08617 231.09251 122.35179 231.09251Q121.66429 231.09251 121.34398 231.32689Q121.02367 231.56126 120.86742 232.17064L119.91429 232.04564Q120.03929 231.43626 120.33617 231.06126Q120.63304 230.68626 121.19554 230.49095Q121.75804 230.29564 122.49242 230.29564Q123.22679 230.29564 123.67992 230.46751Q124.13304 230.63939 124.34398 230.8972Q124.55492 231.15501 124.64867 231.54564Q124.69554 231.79564 124.69554 232.45189L124.69554 233.73314Q124.69554 235.07689 124.75804 235.43626Q124.82054 235.79564 125.00804 236.12376L123.99242 236.12376Q123.83617 235.82689 123.80492 235.42064ZM123.71117 233.26439Q123.19554 233.48314 122.13304 233.62376Q121.53929 233.71751 121.297104 233.81908Q121.05492 233.92064 120.91429 234.13158Q120.77367 234.34251 120.77367 234.59251Q120.77367 234.98314 121.07054 235.24095Q121.36742 235.49876 121.92992 235.49876Q122.49242 235.49876 122.922104 235.24876Q123.35179 234.99876 123.57054 234.57689Q123.71117 234.24876 123.71117 233.60814L123.71117 233.26439ZM126.00804 236.12376L126.00804 230.42064L126.88304 230.42064L126.88304 231.23314Q127.50804 230.29564 128.69554 230.29564Q129.21117 230.29564 129.64867 230.47533Q130.08617 230.65501 130.2971 230.9597Q130.50804 231.26439 130.60179 231.67064Q130.64867 231.95189 130.64867 232.62376L130.64867 236.12376L129.67992 236.12376L129.67992 232.65501Q129.67992 232.06126 129.57054 231.7722Q129.46117 231.48314 129.1721 231.30345Q128.88304 231.12376 128.49242 231.12376Q127.88304 231.12376 127.42992 231.51439Q126.97679 231.90501 126.97679 233.01439L126.97679 236.12376L126.00804 236.12376ZM135.63304 236.12376L135.63304 235.40501Q135.10179 236.24876 134.03929 236.24876Q133.36742 236.24876 132.78929 235.87376Q132.21117 235.49876 131.89867 234.82689Q131.58617 234.15501 131.58617 233.28001Q131.58617 232.42064 131.87523 231.72533Q132.16429 231.03001 132.72679 230.66283Q133.28929 230.29564 133.99242 230.29564Q134.50804 230.29564 134.91429 230.51439Q135.32054 230.73314 135.57054 231.07689L135.57054 228.24876L136.53929 228.24876L136.53929 236.12376L135.63304 236.12376ZM132.58617 233.28001Q132.58617 234.37376 133.0471 234.91283Q133.50804 235.45189 134.13304 235.45189Q134.77367 235.45189 135.21117 234.93626Q135.64867 234.42064 135.64867 233.35814Q135.64867 232.18626 135.20335 231.63939Q134.75804 231.09251 134.08617 231.09251Q133.44554 231.09251 133.01585 231.61595Q132.58617 232.13939 132.58617 233.28001ZM141.00804 236.12376L141.00804 228.24876L146.32054 228.24876L146.32054 229.18626L142.03929 229.18626L142.03929 231.62376L145.74242 231.62376L145.74242 232.54564L142.03929 232.54564L142.03929 236.12376L141.00804 236.12376ZM146.96117 233.26439Q146.96117 231.68626 147.85179 230.92064Q148.58617 230.29564 149.64867 230.29564Q150.82054 230.29564 151.56273 231.06126Q152.30492 231.82689 152.30492 233.18626Q152.30492 234.29564 151.97679 234.92845Q151.64867 235.56126 151.01585 235.90501Q150.38304 236.24876 149.64867 236.24876Q148.44554 236.24876 147.70335 235.48314Q146.96117 234.71751 146.96117 233.26439ZM147.96117 233.26439Q147.96117 234.37376 148.43773 234.91283Q148.91429 235.45189 149.64867 235.45189Q150.36742 235.45189 150.84398 234.90501Q151.32054 234.35814 151.32054 233.23314Q151.32054 232.18626 150.83617 231.63939Q150.35179 231.09251 149.64867 231.09251Q148.91429 231.09251 148.43773 231.63158Q147.96117 232.17064 147.96117 233.26439ZM153.24242 236.12376L153.24242 228.24876L154.21117 228.24876L154.21117 236.12376L153.24242 236.12376ZM159.32054 236.12376L159.32054 235.40501Q158.78929 236.24876 157.72679 236.24876Q157.05492 236.24876 156.47679 235.87376Q155.89867 235.49876 155.58617 234.82689Q155.27367 234.15501 155.27367 233.28001Q155.27367 232.42064 155.56273 231.72533Q155.85179 231.03001 156.41429 230.66283Q156.97679 230.29564 157.67992 230.29564Q158.19554 230.29564 158.60179 230.51439Q159.00804 230.73314 159.25804 231.07689L159.25804 228.24876L160.22679 228.24876L160.22679 236.12376L159.32054 236.12376ZM156.27367 233.28001Q156.27367 234.37376 156.7346 234.91283Q157.19554 235.45189 157.82054 235.45189Q158.46117 235.45189 158.89867 234.93626Q159.33617 234.42064 159.33617 233.35814Q159.33617 232.18626 158.89085 231.63939Q158.44554 231.09251 157.77367 231.09251Q157.13304 231.09251 156.70335 231.61595Q156.27367 232.13939 156.27367 233.28001ZM165.44554 234.28001L166.44554 234.40501Q166.21117 235.28001 165.57054 235.76439Q164.92992 236.24876 163.94554 236.24876Q162.69554 236.24876 161.96117 235.48314Q161.22679 234.71751 161.22679 233.32689Q161.22679 231.87376 161.96898 231.0847Q162.71117 230.29564 163.88304 230.29564Q165.03929 230.29564 165.75804 231.06908Q166.47679 231.84251 166.47679 233.26439Q166.47679 233.34251 166.47679 233.51439L162.22679 233.51439Q162.27367 234.45189 162.75023 234.95189Q163.22679 235.45189 163.94554 235.45189Q164.47679 235.45189 164.85179 235.17845Q165.22679 234.90501 165.44554 234.28001ZM162.27367 232.71751L165.46117 232.71751Q165.39867 231.99876 165.10179 231.63939Q164.63304 231.09251 163.89867 231.09251Q163.22679 231.09251 162.77367 231.53783Q162.32054 231.98314 162.27367 232.71751ZM167.47679 236.12376L167.47679 230.42064L168.33617 230.42064L168.33617 231.28001Q168.67992 230.67064 168.96117 230.48314Q169.24242 230.29564 169.57054 230.29564Q170.07054 230.29564 170.57054 230.60814L170.24242 231.49876Q169.88304 231.29564 169.52367 231.29564Q169.21117 231.29564 168.96117 231.48314Q168.71117 231.67064 168.60179 232.01439Q168.44554 232.53001 168.44554 233.13939L168.44554 236.12376L167.47679 236.12376ZM170.64867 234.42064L171.60179 234.26439Q171.67992 234.84251 172.0471 235.1472Q172.41429 235.45189 173.07054 235.45189Q173.74242 235.45189 174.06273 235.18626Q174.38304 234.92064 174.38304 234.54564Q174.38304 234.21751 174.10179 234.03001Q173.89867 233.90501 173.11742 233.70189Q172.05492 233.43626 171.64085 233.24095Q171.22679 233.04564 171.01585 232.70189Q170.80492 232.35814 170.80492 231.93626Q170.80492 231.54564 170.97679 231.22533Q171.14867 230.90501 171.46117 230.68626Q171.67992 230.51439 172.07054 230.40501Q172.46117 230.29564 172.89867 230.29564Q173.57054 230.29564 174.07835 230.48314Q174.58617 230.67064 174.82835 231.00658Q175.07054 231.34251 175.16429 231.88939L174.22679 232.01439Q174.14867 231.57689 173.84398 231.3347Q173.53929 231.09251 172.97679 231.09251Q172.30492 231.09251 172.02367 231.31126Q171.74242 231.53001 171.74242 231.82689Q171.74242 232.01439 171.85179 232.15501Q171.97679 232.31126 172.22679 232.42064Q172.36742 232.46751 173.08617 232.67064Q174.10179 232.93626 174.50804 233.10814Q174.91429 233.28001 175.14867 233.61595Q175.38304 233.95189 175.38304 234.45189Q175.38304 234.93626 175.10179 235.35814Q174.82054 235.78001 174.28929 236.01439Q173.75804 236.24876 173.08617 236.24876Q171.97679 236.24876 171.39085 235.78783Q170.80492 235.32689 170.64867 234.42064Z" fill-rule="nonzero" fill="#000000"></path><path d="M100.53929 250.31126L100.53929 242.42064L101.42992 242.42064L101.42992 243.15501Q101.74242 242.73314 102.13304 242.51439Q102.52367 242.29564 103.08617 242.29564Q103.80492 242.29564 104.36742 242.67064Q104.92992 243.04564 105.21117 243.72533Q105.49242 244.40501 105.49242 245.23314Q105.49242 246.10814 105.17992 246.80345Q104.86742 247.49876 104.265854 247.87376Q103.66429 248.24876 103.00804 248.24876Q102.52367 248.24876 102.140854 248.04564Q101.75804 247.84251 101.50804 247.53001L101.50804 250.31126L100.53929 250.31126ZM101.41429 245.31126Q101.41429 246.40501 101.86742 246.92845Q102.32054 247.45189 102.94554 247.45189Q103.58617 247.45189 104.047104 246.91283Q104.50804 246.37376 104.50804 245.21751Q104.50804 244.13939 104.06273 243.59251Q103.61742 243.04564 102.99242 243.04564Q102.36742 243.04564 101.890854 243.62376Q101.41429 244.20189 101.41429 245.31126ZM106.46117 248.12376L106.46117 242.42064L107.32054 242.42064L107.32054 243.28001Q107.66429 242.67064 107.94554 242.48314Q108.22679 242.29564 108.55492 242.29564Q109.05492 242.29564 109.55492 242.60814L109.22679 243.49876Q108.86742 243.29564 108.50804 243.29564Q108.19554 243.29564 107.94554 243.48314Q107.69554 243.67064 107.58617 244.01439Q107.42992 244.53001 107.42992 245.13939L107.42992 248.12376L106.46117 248.12376ZM110.02367 241.35814L110.02367 240.24876L110.99242 240.24876L110.99242 241.35814L110.02367 241.35814ZM110.02367 248.12376L110.02367 242.42064L110.99242 242.42064L110.99242 248.12376L110.02367 248.12376ZM113.97679 248.12376L111.80492 242.42064L112.82054 242.42064L114.05492 245.84251Q114.24242 246.38939 114.41429 246.98314Q114.53929 246.53001 114.77367 245.90501L116.03929 242.42064L117.03929 242.42064L114.88304 248.12376L113.97679 248.12376ZM121.44554 247.42064Q120.89867 247.87376 120.40648 248.06126Q119.91429 248.24876 119.33617 248.24876Q118.39867 248.24876 117.890854 247.78783Q117.38304 247.32689 117.38304 246.62376Q117.38304 246.20189 117.578354 245.85814Q117.77367 245.51439 118.078354 245.30345Q118.38304 245.09251 118.77367 244.98314Q119.05492 244.90501 119.63304 244.84251Q120.80492 244.70189 121.35179 244.49876Q121.36742 244.31126 121.36742 244.24876Q121.36742 243.65501 121.08617 243.42064Q120.72679 243.09251 119.99242 243.09251Q119.30492 243.09251 118.984604 243.32689Q118.66429 243.56126 118.50804 244.17064L117.55492 244.04564Q117.67992 243.43626 117.97679 243.06126Q118.27367 242.68626 118.83617 242.49095Q119.39867 242.29564 120.13304 242.29564Q120.86742 242.29564 121.32054 242.46751Q121.77367 242.63939 121.984604 242.8972Q122.19554 243.15501 122.28929 243.54564Q122.33617 243.79564 122.33617 244.45189L122.33617 245.73314Q122.33617 247.07689 122.39867 247.43626Q122.46117 247.79564 122.64867 248.12376L121.63304 248.12376Q121.47679 247.82689 121.44554 247.42064ZM121.35179 245.26439Q120.83617 245.48314 119.77367 245.62376Q119.17992 245.71751 118.93773 245.81908Q118.69554 245.92064 118.55492 246.13158Q118.41429 246.34251 118.41429 246.59251Q118.41429 246.98314 118.71117 247.24095Q119.00804 247.49876 119.57054 247.49876Q120.13304 247.49876 120.56273 247.24876Q120.99242 246.99876 121.21117 246.57689Q121.35179 246.24876 121.35179 245.60814L121.35179 245.26439ZM125.75804 247.26439L125.88304 248.10814Q125.47679 248.20189 125.16429 248.20189Q124.63304 248.20189 124.34398 248.03001Q124.05492 247.85814 123.93773 247.59251Q123.82054 247.32689 123.82054 246.45189L123.82054 243.17064L123.10179 243.17064L123.10179 242.42064L123.82054 242.42064L123.82054 241.01439L124.77367 240.42064L124.77367 242.42064L125.75804 242.42064L125.75804 243.17064L124.77367 243.17064L124.77367 246.51439Q124.77367 246.92064 124.828354 247.03783Q124.88304 247.15501 125.00023 247.22533Q125.11742 247.29564 125.32054 247.29564Q125.49242 247.29564 125.75804 247.26439ZM130.50804 246.28001L131.50804 246.40501Q131.27367 247.28001 130.63304 247.76439Q129.99242 248.24876 129.00804 248.24876Q127.75804 248.24876 127.02367 247.48314Q126.28929 246.71751 126.28929 245.32689Q126.28929 243.87376 127.03148 243.0847Q127.77367 242.29564 128.94554 242.29564Q130.10179 242.29564 130.82054 243.06908Q131.53929 243.84251 131.53929 245.26439Q131.53929 245.34251 131.53929 245.51439L127.28929 245.51439Q127.33617 246.45189 127.81273 246.95189Q128.28929 247.45189 129.00804 247.45189Q129.53929 247.45189 129.91429 247.17845Q130.28929 246.90501 130.50804 246.28001ZM127.33617 244.71751L130.52367 244.71751Q130.46117 243.99876 130.16429 243.63939Q129.69554 243.09251 128.96117 243.09251Q128.28929 243.09251 127.83617 243.53783Q127.38304 243.98314 127.33617 244.71751ZM137.60179 247.26439L137.72679 248.10814Q137.32054 248.20189 137.00804 248.20189Q136.47679 248.20189 136.18773 248.03001Q135.89867 247.85814 135.78148 247.59251Q135.66429 247.32689 135.66429 246.45189L135.66429 243.17064L134.94554 243.17064L134.94554 242.42064L135.66429 242.42064L135.66429 241.01439L136.61742 240.42064L136.61742 242.42064L137.60179 242.42064L137.60179 243.17064L136.61742 243.17064L136.61742 246.51439Q136.61742 246.92064 136.6721 247.03783Q136.72679 247.15501 136.84398 247.22533Q136.96117 247.29564 137.16429 247.29564Q137.33617 247.29564 137.60179 247.26439ZM138.08617 245.26439Q138.08617 243.68626 138.97679 242.92064Q139.71117 242.29564 140.77367 242.29564Q141.94554 242.29564 142.68773 243.06126Q143.42992 243.82689 143.42992 245.18626Q143.42992 246.29564 143.10179 246.92845Q142.77367 247.56126 142.14085 247.90501Q141.50804 248.24876 140.77367 248.24876Q139.57054 248.24876 138.82835 247.48314Q138.08617 246.71751 138.08617 245.26439ZM139.08617 245.26439Q139.08617 246.37376 139.56273 246.91283Q140.03929 247.45189 140.77367 247.45189Q141.49242 247.45189 141.96898 246.90501Q142.44554 246.35814 142.44554 245.23314Q142.44554 244.18626 141.96117 243.63939Q141.47679 243.09251 140.77367 243.09251Q140.03929 243.09251 139.56273 243.63158Q139.08617 244.17064 139.08617 245.26439ZM146.60179 248.12376L149.63304 240.24876L150.74242 240.24876L153.97679 248.12376L152.78929 248.12376L151.86742 245.73314L148.57054 245.73314L147.71117 248.12376L146.60179 248.12376ZM148.86742 244.88939L151.53929 244.88939L150.72679 242.70189Q150.35179 241.71751 150.16429 241.07689Q150.00804 241.82689 149.74242 242.57689L148.86742 244.88939ZM154.41429 248.12376L154.41429 240.24876L155.38304 240.24876L155.38304 248.12376L154.41429 248.12376ZM156.82054 241.35814L156.82054 240.24876L157.78929 240.24876L157.78929 241.35814L156.82054 241.35814ZM156.82054 248.12376L156.82054 242.42064L157.78929 242.42064L157.78929 248.12376L156.82054 248.12376ZM162.89867 246.03001L163.83617 246.15501Q163.69554 247.13939 163.0471 247.69408Q162.39867 248.24876 161.47679 248.24876Q160.30492 248.24876 159.59398 247.48314Q158.88304 246.71751 158.88304 245.29564Q158.88304 244.37376 159.18773 243.67845Q159.49242 242.98314 160.11742 242.63939Q160.74242 242.29564 161.47679 242.29564Q162.39867 242.29564 162.99242 242.76439Q163.58617 243.23314 163.75804 244.09251L162.80492 244.23314Q162.67992 243.67064 162.33617 243.38158Q161.99242 243.09251 161.50804 243.09251Q160.78929 243.09251 160.32835 243.61595Q159.86742 244.13939 159.86742 245.26439Q159.86742 246.42064 160.30492 246.93626Q160.74242 247.45189 161.46117 247.45189Q162.02367 247.45189 162.40648 247.10814Q162.78929 246.76439 162.89867 246.03001ZM168.39867 246.28001L169.39867 246.40501Q169.16429 247.28001 168.52367 247.76439Q167.88304 248.24876 166.89867 248.24876Q165.64867 248.24876 164.91429 247.48314Q164.17992 246.71751 164.17992 245.32689Q164.17992 243.87376 164.9221 243.0847Q165.66429 242.29564 166.83617 242.29564Q167.99242 242.29564 168.71117 243.06908Q169.42992 243.84251 169.42992 245.26439Q169.42992 245.34251 169.42992 245.51439L165.17992 245.51439Q165.22679 246.45189 165.70335 246.95189Q166.17992 247.45189 166.89867 247.45189Q167.42992 247.45189 167.80492 247.17845Q168.17992 246.90501 168.39867 246.28001ZM165.22679 244.71751L168.41429 244.71751Q168.35179 243.99876 168.05492 243.63939Q167.58617 243.09251 166.85179 243.09251Q166.17992 243.09251 165.72679 243.53783Q165.27367 243.98314 165.22679 244.71751Z" fill-rule="nonzero" fill="#000000"></path><path d="M157.10138 189.07037L137.69482 213.693" fill-rule="evenodd" stroke="#073763" stroke-width="2.0" stroke-linejoin="round" stroke-linecap="butt"></path><path d="M135.10034 211.64813L132.07658 220.8213L140.28932 215.73787Z" fill-rule="evenodd" stroke="#073763" stroke-width="2.0" stroke-linecap="butt"></path><path d="M419.80054 132.63011L419.80054 132.63011C419.80054 127.40297 415.56308 123.16554 410.33597 123.16554L410.33597 123.16554C407.8258 123.16554 405.41846 124.1627 403.6435 125.937645C401.86856 127.7126 400.8714 130.11995 400.8714 132.63011L400.8714 132.63011C400.8714 137.85724 405.10883 142.09467 410.33597 142.09467L410.33597 142.09467C415.56308 142.09467 419.80054 137.85724 419.80054 132.63011Z" fill-rule="nonzero" fill="#fcc9d9" stroke="#073763" stroke-width="2.0" stroke-linejoin="round" stroke-linecap="butt"></path><path d="M465.57367 182.37791L465.57367 182.37791C465.57367 177.15077 461.3362 172.91335 456.1091 172.91335L456.1091 172.91335C453.59894 172.91335 451.1916 173.9105 449.41663 175.68546C447.64166 177.4604 446.64453 179.86775 446.64453 182.37791L446.64453 182.37791C446.64453 187.60504 450.88196 191.84248 456.1091 191.84248L456.1091 191.84248C461.3362 191.84248 465.57367 187.60504 465.57367 182.37791Z" fill-rule="nonzero" fill="#cfe2f3" stroke="#073763" stroke-width="2.0" stroke-linejoin="round" stroke-linecap="butt"></path><path d="M417.0284 139.32257L441.43524 166.72458" fill-rule="evenodd" stroke="#073763" stroke-width="2.0" stroke-linejoin="round" stroke-linecap="butt"></path><path d="M438.9684 168.92177L447.47195 173.50214L443.90207 164.52739Z" fill-rule="evenodd" fill="#073763" stroke="#073763" stroke-width="2.0" stroke-linecap="butt"></path><path d="M353.4721 181.63586L353.4721 181.63586C353.4721 176.40874 357.70953 172.1713 362.93668 172.1713L362.93668 172.1713C365.44684 172.1713 367.8542 173.16846 369.62915 174.9434C371.40408 176.71835 372.40125 179.1257 372.40125 181.63586L372.40125 181.63586C372.40125 186.863 368.16382 191.10043 362.93668 191.10043L362.93668 191.10043C357.70953 191.10043 353.4721 186.863 353.4721 181.63586Z" fill-rule="nonzero" fill="#fce5cd" stroke="#073763" stroke-width="2.0" stroke-linejoin="round" stroke-linecap="butt"></path><path d="M402.00708 138.56546L377.60727 165.97964" fill-rule="evenodd" stroke="#073763" stroke-width="2.0" stroke-linejoin="round" stroke-linecap="butt"></path><path d="M375.13965 163.78334L371.57303 172.75938L380.07492 168.17593Z" fill-rule="evenodd" fill="#073763" stroke="#073763" stroke-width="2.0" stroke-linecap="butt"></path><path d="M449.6267 233.7928L449.6267 225.9178L454.9392 225.9178L454.9392 226.8553L450.65796 226.8553L450.65796 229.2928L454.36108 229.2928L454.36108 230.21468L450.65796 230.21468L450.65796 233.7928L449.6267 233.7928ZM455.95483 227.02718L455.95483 225.9178L456.92358 225.9178L456.92358 227.02718L455.95483 227.02718ZM455.95483 233.7928L455.95483 228.08968L456.92358 228.08968L456.92358 233.7928L455.95483 233.7928ZM458.29858 233.7928L458.29858 225.9178L459.26733 225.9178L459.26733 233.7928L458.29858 233.7928ZM464.57983 231.94905L465.57983 232.07405Q465.34546 232.94905 464.70483 233.43343Q464.0642 233.9178 463.07983 233.9178Q461.82983 233.9178 461.09546 233.15218Q460.36108 232.38655 460.36108 230.99593Q460.36108 229.5428 461.10327 228.75374Q461.84546 227.96468 463.01733 227.96468Q464.17358 227.96468 464.89233 228.73811Q465.61108 229.51155 465.61108 230.93343Q465.61108 231.01155 465.61108 231.18343L461.36108 231.18343Q461.40796 232.12093 461.88452 232.62093Q462.36108 233.12093 463.07983 233.12093Q463.61108 233.12093 463.98608 232.84749Q464.36108 232.57405 464.57983 231.94905ZM461.40796 230.38655L464.59546 230.38655Q464.53296 229.6678 464.23608 229.30843Q463.76733 228.76155 463.03296 228.76155Q462.36108 228.76155 461.90796 229.20686Q461.45483 229.65218 461.40796 230.38655ZM466.23608 232.08968L467.1892 231.93343Q467.26733 232.51155 467.63452 232.81624Q468.0017 233.12093 468.65796 233.12093Q469.32983 233.12093 469.65015 232.8553Q469.97046 232.58968 469.97046 232.21468Q469.97046 231.88655 469.6892 231.69905Q469.48608 231.57405 468.70483 231.37093Q467.64233 231.1053 467.22827 230.90999Q466.8142 230.71468 466.60327 230.37093Q466.39233 230.02718 466.39233 229.6053Q466.39233 229.21468 466.5642 228.89436Q466.73608 228.57405 467.04858 228.3553Q467.26733 228.18343 467.65796 228.07405Q468.04858 227.96468 468.48608 227.96468Q469.15796 227.96468 469.66577 228.15218Q470.17358 228.33968 470.41577 228.67561Q470.65796 229.01155 470.7517 229.55843L469.8142 229.68343Q469.73608 229.24593 469.4314 229.00374Q469.1267 228.76155 468.5642 228.76155Q467.89233 228.76155 467.61108 228.9803Q467.32983 229.19905 467.32983 229.49593Q467.32983 229.68343 467.4392 229.82405Q467.5642 229.9803 467.8142 230.08968Q467.95483 230.13655 468.67358 230.33968Q469.6892 230.6053 470.09546 230.77718Q470.5017 230.94905 470.73608 231.28499Q470.97046 231.62093 470.97046 232.12093Q470.97046 232.6053 470.6892 233.02718Q470.40796 233.44905 469.8767 233.68343Q469.34546 233.9178 468.67358 233.9178Q467.5642 233.9178 466.97827 233.45686Q466.39233 232.99593 466.23608 232.08968ZM478.6267 233.08968Q478.07983 233.5428 477.58765 233.7303Q477.09546 233.9178 476.51733 233.9178Q475.57983 233.9178 475.07202 233.45686Q474.5642 232.99593 474.5642 232.2928Q474.5642 231.87093 474.75952 231.52718Q474.95483 231.18343 475.25952 230.97249Q475.5642 230.76155 475.95483 230.65218Q476.23608 230.57405 476.8142 230.51155Q477.98608 230.37093 478.53296 230.1678Q478.54858 229.9803 478.54858 229.9178Q478.54858 229.32405 478.26733 229.08968Q477.90796 228.76155 477.17358 228.76155Q476.48608 228.76155 476.16577 228.99593Q475.84546 229.2303 475.6892 229.83968L474.73608 229.71468Q474.86108 229.1053 475.15796 228.7303Q475.45483 228.3553 476.01733 228.15999Q476.57983 227.96468 477.3142 227.96468Q478.04858 227.96468 478.5017 228.13655Q478.95483 228.30843 479.16577 228.56624Q479.3767 228.82405 479.47046 229.21468Q479.51733 229.46468 479.51733 230.12093L479.51733 231.40218Q479.51733 232.74593 479.57983 233.1053Q479.64233 233.46468 479.82983 233.7928L478.8142 233.7928Q478.65796 233.49593 478.6267 233.08968ZM478.53296 230.93343Q478.01733 231.15218 476.95483 231.2928Q476.36108 231.38655 476.1189 231.48811Q475.8767 231.58968 475.73608 231.80061Q475.59546 232.01155 475.59546 232.26155Q475.59546 232.65218 475.89233 232.90999Q476.1892 233.1678 476.7517 233.1678Q477.3142 233.1678 477.7439 232.9178Q478.17358 232.6678 478.39233 232.24593Q478.53296 231.9178 478.53296 231.27718L478.53296 230.93343ZM480.82983 233.7928L480.82983 228.08968L481.70483 228.08968L481.70483 228.90218Q482.32983 227.96468 483.51733 227.96468Q484.03296 227.96468 484.47046 228.14436Q484.90796 228.32405 485.1189 228.62874Q485.32983 228.93343 485.42358 229.33968Q485.47046 229.62093 485.47046 230.2928L485.47046 233.7928L484.5017 233.7928L484.5017 230.32405Q484.5017 229.7303 484.39233 229.44124Q484.28296 229.15218 483.9939 228.97249Q483.70483 228.7928 483.3142 228.7928Q482.70483 228.7928 482.2517 229.18343Q481.79858 229.57405 481.79858 230.68343L481.79858 233.7928L480.82983 233.7928ZM490.45483 233.7928L490.45483 233.07405Q489.92358 233.9178 488.86108 233.9178Q488.1892 233.9178 487.61108 233.5428Q487.03296 233.1678 486.72046 232.49593Q486.40796 231.82405 486.40796 230.94905Q486.40796 230.08968 486.69702 229.39436Q486.98608 228.69905 487.54858 228.33186Q488.11108 227.96468 488.8142 227.96468Q489.32983 227.96468 489.73608 228.18343Q490.14233 228.40218 490.39233 228.74593L490.39233 225.9178L491.36108 225.9178L491.36108 233.7928L490.45483 233.7928ZM487.40796 230.94905Q487.40796 232.0428 487.8689 232.58186Q488.32983 233.12093 488.95483 233.12093Q489.59546 233.12093 490.03296 232.6053Q490.47046 232.08968 490.47046 231.02718Q490.47046 229.8553 490.02515 229.30843Q489.57983 228.76155 488.90796 228.76155Q488.26733 228.76155 487.83765 229.28499Q487.40796 229.80843 487.40796 230.94905ZM495.82983 233.7928L495.82983 225.9178L501.14233 225.9178L501.14233 226.8553L496.86108 226.8553L496.86108 229.2928L500.5642 229.2928L500.5642 230.21468L496.86108 230.21468L496.86108 233.7928L495.82983 233.7928ZM501.78296 230.93343Q501.78296 229.3553 502.67358 228.58968Q503.40796 227.96468 504.47046 227.96468Q505.64233 227.96468 506.38452 228.7303Q507.1267 229.49593 507.1267 230.8553Q507.1267 231.96468 506.79858 232.59749Q506.47046 233.2303 505.83765 233.57405Q505.20483 233.9178 504.47046 233.9178Q503.26733 233.9178 502.52515 233.15218Q501.78296 232.38655 501.78296 230.93343ZM502.78296 230.93343Q502.78296 232.0428 503.25952 232.58186Q503.73608 233.12093 504.47046 233.12093Q505.1892 233.12093 505.66577 232.57405Q506.14233 232.02718 506.14233 230.90218Q506.14233 229.8553 505.65796 229.30843Q505.17358 228.76155 504.47046 228.76155Q503.73608 228.76155 503.25952 229.30061Q502.78296 229.83968 502.78296 230.93343ZM508.0642 233.7928L508.0642 225.9178L509.03296 225.9178L509.03296 233.7928L508.0642 233.7928ZM514.14233 233.7928L514.14233 233.07405Q513.6111 233.9178 512.5486 233.9178Q511.8767 233.9178 511.29858 233.5428Q510.72046 233.1678 510.40796 232.49593Q510.09546 231.82405 510.09546 230.94905Q510.09546 230.08968 510.38452 229.39436Q510.67358 228.69905 511.23608 228.33186Q511.79858 227.96468 512.5017 227.96468Q513.01733 227.96468 513.4236 228.18343Q513.82983 228.40218 514.07983 228.74593L514.07983 225.9178L515.0486 225.9178L515.0486 233.7928L514.14233 233.7928ZM511.09546 230.94905Q511.09546 232.0428 511.5564 232.58186Q512.01733 233.12093 512.64233 233.12093Q513.28296 233.12093 513.72046 232.6053Q514.15796 232.08968 514.15796 231.02718Q514.15796 229.8553 513.71265 229.30843Q513.26733 228.76155 512.59546 228.76155Q511.95483 228.76155 511.52515 229.28499Q511.09546 229.80843 511.09546 230.94905ZM520.26733 231.94905L521.26733 232.07405Q521.03296 232.94905 520.39233 233.43343Q519.7517 233.9178 518.76733 233.9178Q517.51733 233.9178 516.78296 233.15218Q516.0486 232.38655 516.0486 230.99593Q516.0486 229.5428 516.7908 228.75374Q517.53296 227.96468 518.70483 227.96468Q519.8611 227.96468 520.57983 228.73811Q521.2986 229.51155 521.2986 230.93343Q521.2986 231.01155 521.2986 231.18343L517.0486 231.18343Q517.09546 232.12093 517.572 232.62093Q518.0486 233.12093 518.76733 233.12093Q519.2986 233.12093 519.6736 232.84749Q520.0486 232.57405 520.26733 231.94905ZM517.09546 230.38655L520.28296 230.38655Q520.22046 229.6678 519.9236 229.30843Q519.45483 228.76155 518.72046 228.76155Q518.0486 228.76155 517.59546 229.20686Q517.14233 229.65218 517.09546 230.38655ZM522.2986 233.7928L522.2986 228.08968L523.15796 228.08968L523.15796 228.94905Q523.5017 228.33968 523.78296 228.15218Q524.0642 227.96468 524.39233 227.96468Q524.89233 227.96468 525.39233 228.27718L525.0642 229.1678Q524.70483 228.96468 524.34546 228.96468Q524.03296 228.96468 523.78296 229.15218Q523.53296 229.33968 523.4236 229.68343Q523.26733 230.19905 523.26733 230.80843L523.26733 233.7928L522.2986 233.7928ZM525.47046 232.08968L526.4236 231.93343Q526.5017 232.51155 526.8689 232.81624Q527.2361 233.12093 527.89233 233.12093Q528.5642 233.12093 528.8845 232.8553Q529.20483 232.58968 529.20483 232.21468Q529.20483 231.88655 528.9236 231.69905Q528.72046 231.57405 527.9392 231.37093Q526.8767 231.1053 526.46265 230.90999Q526.0486 230.71468 525.83765 230.37093Q525.6267 230.02718 525.6267 229.6053Q525.6267 229.21468 525.7986 228.89436Q525.97046 228.57405 526.28296 228.3553Q526.5017 228.18343 526.89233 228.07405Q527.28296 227.96468 527.72046 227.96468Q528.39233 227.96468 528.90015 228.15218Q529.40796 228.33968 529.65015 228.67561Q529.89233 229.01155 529.9861 229.55843L529.0486 229.68343Q528.97046 229.24593 528.6658 229.00374Q528.3611 228.76155 527.7986 228.76155Q527.1267 228.76155 526.84546 228.9803Q526.5642 229.19905 526.5642 229.49593Q526.5642 229.68343 526.6736 229.82405Q526.7986 229.9803 527.0486 230.08968Q527.1892 230.13655 527.90796 230.33968Q528.9236 230.6053 529.32983 230.77718Q529.7361 230.94905 529.97046 231.28499Q530.20483 231.62093 530.20483 232.12093Q530.20483 232.6053 529.9236 233.02718Q529.64233 233.44905 529.1111 233.68343Q528.57983 233.9178 527.90796 233.9178Q526.7986 233.9178 526.21265 233.45686Q525.6267 232.99593 525.47046 232.08968Z" fill-rule="nonzero" fill="#000000"></path><path d="M457.42358 247.9803L457.42358 240.08968L458.3142 240.08968L458.3142 240.82405Q458.6267 240.40218 459.01733 240.18343Q459.40796 239.96468 459.97046 239.96468Q460.6892 239.96468 461.2517 240.33968Q461.8142 240.71468 462.09546 241.39436Q462.3767 242.07405 462.3767 242.90218Q462.3767 243.77718 462.0642 244.47249Q461.7517 245.1678 461.15015 245.5428Q460.54858 245.9178 459.89233 245.9178Q459.40796 245.9178 459.02515 245.71468Q458.64233 245.51155 458.39233 245.19905L458.39233 247.9803L457.42358 247.9803ZM458.29858 242.9803Q458.29858 244.07405 458.7517 244.59749Q459.20483 245.12093 459.82983 245.12093Q460.47046 245.12093 460.9314 244.58186Q461.39233 244.0428 461.39233 242.88655Q461.39233 241.80843 460.94702 241.26155Q460.5017 240.71468 459.8767 240.71468Q459.2517 240.71468 458.77515 241.2928Q458.29858 241.87093 458.29858 242.9803ZM463.34546 245.7928L463.34546 240.08968L464.20483 240.08968L464.20483 240.94905Q464.54858 240.33968 464.82983 240.15218Q465.11108 239.96468 465.4392 239.96468Q465.9392 239.96468 466.4392 240.27718L466.11108 241.1678Q465.7517 240.96468 465.39233 240.96468Q465.07983 240.96468 464.82983 241.15218Q464.57983 241.33968 464.47046 241.68343Q464.3142 242.19905 464.3142 242.80843L464.3142 245.7928L463.34546 245.7928ZM466.92358 239.02718L466.92358 237.9178L467.89233 237.9178L467.89233 239.02718L466.92358 239.02718ZM466.92358 245.7928L466.92358 240.08968L467.89233 240.08968L467.89233 245.7928L466.92358 245.7928ZM470.86108 245.7928L468.6892 240.08968L469.70483 240.08968L470.9392 243.51155Q471.1267 244.05843 471.29858 244.65218Q471.42358 244.19905 471.65796 243.57405L472.92358 240.08968L473.92358 240.08968L471.76733 245.7928L470.86108 245.7928ZM478.32983 245.08968Q477.78296 245.5428 477.29077 245.7303Q476.79858 245.9178 476.22046 245.9178Q475.28296 245.9178 474.77515 245.45686Q474.26733 244.99593 474.26733 244.2928Q474.26733 243.87093 474.46265 243.52718Q474.65796 243.18343 474.96265 242.97249Q475.26733 242.76155 475.65796 242.65218Q475.9392 242.57405 476.51733 242.51155Q477.6892 242.37093 478.23608 242.1678Q478.2517 241.9803 478.2517 241.9178Q478.2517 241.32405 477.97046 241.08968Q477.61108 240.76155 476.8767 240.76155Q476.1892 240.76155 475.8689 240.99593Q475.54858 241.2303 475.39233 241.83968L474.4392 241.71468Q474.5642 241.1053 474.86108 240.7303Q475.15796 240.3553 475.72046 240.15999Q476.28296 239.96468 477.01733 239.96468Q477.7517 239.96468 478.20483 240.13655Q478.65796 240.30843 478.8689 240.56624Q479.07983 240.82405 479.17358 241.21468Q479.22046 241.46468 479.22046 242.12093L479.22046 243.40218Q479.22046 244.74593 479.28296 245.1053Q479.34546 245.46468 479.53296 245.7928L478.51733 245.7928Q478.36108 245.49593 478.32983 245.08968ZM478.23608 242.93343Q477.72046 243.15218 476.65796 243.2928Q476.0642 243.38655 475.82202 243.48811Q475.57983 243.58968 475.4392 243.80061Q475.29858 244.01155 475.29858 244.26155Q475.29858 244.65218 475.59546 244.90999Q475.89233 245.1678 476.45483 245.1678Q477.01733 245.1678 477.44702 244.9178Q477.8767 244.6678 478.09546 244.24593Q478.23608 243.9178 478.23608 243.27718L478.23608 242.93343ZM482.64233 244.93343L482.76733 245.77718Q482.36108 245.87093 482.04858 245.87093Q481.51733 245.87093 481.22827 245.69905Q480.9392 245.52718 480.82202 245.26155Q480.70483 244.99593 480.70483 244.12093L480.70483 240.83968L479.98608 240.83968L479.98608 240.08968L480.70483 240.08968L480.70483 238.68343L481.65796 238.08968L481.65796 240.08968L482.64233 240.08968L482.64233 240.83968L481.65796 240.83968L481.65796 244.18343Q481.65796 244.58968 481.71265 244.70686Q481.76733 244.82405 481.88452 244.89436Q482.0017 244.96468 482.20483 244.96468Q482.3767 244.96468 482.64233 244.93343ZM487.39233 243.94905L488.39233 244.07405Q488.15796 244.94905 487.51733 245.43343Q486.8767 245.9178 485.89233 245.9178Q484.64233 245.9178 483.90796 245.15218Q483.17358 244.38655 483.17358 242.99593Q483.17358 241.5428 483.91577 240.75374Q484.65796 239.96468 485.82983 239.96468Q486.98608 239.96468 487.70483 240.73811Q488.42358 241.51155 488.42358 242.93343Q488.42358 243.01155 488.42358 243.18343L484.17358 243.18343Q484.22046 244.12093 484.69702 244.62093Q485.17358 245.12093 485.89233 245.12093Q486.42358 245.12093 486.79858 244.84749Q487.17358 244.57405 487.39233 243.94905ZM484.22046 242.38655L487.40796 242.38655Q487.34546 241.6678 487.04858 241.30843Q486.57983 240.76155 485.84546 240.76155Q485.17358 240.76155 484.72046 241.20686Q484.26733 241.65218 484.22046 242.38655ZM494.5017 244.93343L494.6267 245.77718Q494.22046 245.87093 493.90796 245.87093Q493.3767 245.87093 493.08765 245.69905Q492.79858 245.52718 492.6814 245.26155Q492.5642 244.99593 492.5642 244.12093L492.5642 240.83968L491.84546 240.83968L491.84546 240.08968L492.5642 240.08968L492.5642 238.68343L493.51733 238.08968L493.51733 240.08968L494.5017 240.08968L494.5017 240.83968L493.51733 240.83968L493.51733 244.18343Q493.51733 244.58968 493.57202 244.70686Q493.6267 244.82405 493.7439 244.89436Q493.86108 244.96468 494.0642 244.96468Q494.23608 244.96468 494.5017 244.93343ZM494.97046 242.93343Q494.97046 241.3553 495.86108 240.58968Q496.59546 239.96468 497.65796 239.96468Q498.82983 239.96468 499.57202 240.7303Q500.3142 241.49593 500.3142 242.8553Q500.3142 243.96468 499.98608 244.59749Q499.65796 245.2303 499.02515 245.57405Q498.39233 245.9178 497.65796 245.9178Q496.45483 245.9178 495.71265 245.15218Q494.97046 244.38655 494.97046 242.93343ZM495.97046 242.93343Q495.97046 244.0428 496.44702 244.58186Q496.92358 245.12093 497.65796 245.12093Q498.3767 245.12093 498.85327 244.57405Q499.32983 244.02718 499.32983 242.90218Q499.32983 241.8553 498.84546 241.30843Q498.36108 240.76155 497.65796 240.76155Q496.92358 240.76155 496.44702 241.30061Q495.97046 241.83968 495.97046 242.93343ZM504.3142 245.7928L504.3142 237.9178L507.26733 237.9178Q508.15796 237.9178 508.70483 238.15999Q509.2517 238.40218 509.5642 238.89436Q509.8767 239.38655 509.8767 239.93343Q509.8767 240.43343 509.60327 240.87874Q509.32983 241.32405 508.76733 241.6053Q509.48608 241.80843 509.8689 242.31624Q510.2517 242.82405 510.2517 243.51155Q510.2517 244.05843 510.01733 244.53499Q509.78296 245.01155 509.4392 245.26936Q509.09546 245.52718 508.57983 245.65999Q508.0642 245.7928 507.3142 245.7928L504.3142 245.7928ZM505.34546 241.2303L507.04858 241.2303Q507.7517 241.2303 508.04858 241.13655Q508.4392 241.01155 508.64233 240.73811Q508.84546 240.46468 508.84546 240.05843Q508.84546 239.6678 508.65796 239.37093Q508.47046 239.07405 508.1189 238.96468Q507.76733 238.8553 506.92358 238.8553L505.34546 238.8553L505.34546 241.2303ZM505.34546 244.87093L507.3142 244.87093Q507.8142 244.87093 508.01733 244.82405Q508.3767 244.76155 508.6189 244.61311Q508.86108 244.46468 509.01733 244.17561Q509.17358 243.88655 509.17358 243.51155Q509.17358 243.07405 508.94702 242.74593Q508.72046 242.4178 508.32202 242.28499Q507.92358 242.15218 507.17358 242.15218L505.34546 242.15218L505.34546 244.87093ZM510.97046 242.93343Q510.97046 241.3553 511.86108 240.58968Q512.59546 239.96468 513.65796 239.96468Q514.82983 239.96468 515.572 240.7303Q516.3142 241.49593 516.3142 242.8553Q516.3142 243.96468 515.9861 244.59749Q515.65796 245.2303 515.02515 245.57405Q514.39233 245.9178 513.65796 245.9178Q512.45483 245.9178 511.71265 245.15218Q510.97046 244.38655 510.97046 242.93343ZM511.97046 242.93343Q511.97046 244.0428 512.447 244.58186Q512.9236 245.12093 513.65796 245.12093Q514.3767 245.12093 514.8533 244.57405Q515.32983 244.02718 515.32983 242.90218Q515.32983 241.8553 514.84546 241.30843Q514.3611 240.76155 513.65796 240.76155Q512.9236 240.76155 512.447 241.30061Q511.97046 241.83968 511.97046 242.93343ZM518.14233 245.7928L517.2517 245.7928L517.2517 237.9178L518.22046 237.9178L518.22046 240.7303Q518.82983 239.96468 519.78296 239.96468Q520.3142 239.96468 520.78296 240.17561Q521.2517 240.38655 521.5564 240.76936Q521.8611 241.15218 522.03296 241.69124Q522.20483 242.2303 522.20483 242.8553Q522.20483 244.32405 521.4783 245.12093Q520.7517 245.9178 519.7361 245.9178Q518.72046 245.9178 518.14233 245.07405L518.14233 245.7928ZM518.14233 242.90218Q518.14233 243.9178 518.4236 244.38655Q518.8767 245.12093 519.65796 245.12093Q520.28296 245.12093 520.7439 244.57405Q521.20483 244.02718 521.20483 242.93343Q521.20483 241.82405 520.76733 241.2928Q520.32983 240.76155 519.6892 240.76155Q519.0642 240.76155 518.6033 241.30843Q518.14233 241.8553 518.14233 242.90218Z" fill-rule="nonzero" fill="#000000"></path><path d="M462.80154 189.07037L481.42972 214.25708" fill-rule="evenodd" stroke="#073763" stroke-width="2.0" stroke-linejoin="round" stroke-linecap="butt"></path><path d="M478.7737 216.22144L486.82672 221.55429L484.08566 212.29272Z" fill-rule="evenodd" stroke="#073763" stroke-width="2.0" stroke-linecap="butt"></path><path d="M297.52457 252.01764L297.52457 252.01764C297.52457 246.7905 301.762 242.55307 306.98914 242.55307L306.98914 242.55307C309.4993 242.55307 311.90665 243.55023 313.68158 245.32518C315.45654 247.10013 316.4537 249.50748 316.4537 252.01764L316.4537 252.01764C316.4537 257.24478 312.21628 261.4822 306.98914 261.4822L306.98914 261.4822C301.762 261.4822 297.52457 257.24478 297.52457 252.01764Z" fill-rule="nonzero" fill="#cfe2f3" stroke="#073763" stroke-width="2.0" stroke-linejoin="round" stroke-linecap="butt"></path><path d="M263.65872 188.32832L293.80795 235.2308" fill-rule="evenodd" stroke="#073763" stroke-width="2.0" stroke-linejoin="round" stroke-linecap="butt"></path><path d="M291.02908 237.01707L298.7157 242.86568L296.5868 233.44452Z" fill-rule="evenodd" fill="#073763" stroke="#073763" stroke-width="2.0" stroke-linecap="butt"></path><path d="M356.24423 188.32832L320.8616 235.71022" fill-rule="evenodd" stroke="#073763" stroke-width="2.0" stroke-linejoin="round" stroke-linecap="butt"></path><path d="M318.21472 233.73364L315.431 242.98248L323.50848 237.68678Z" fill-rule="evenodd" fill="#073763" stroke="#073763" stroke-width="2.0" stroke-linecap="butt"></path><path d="M284.46133 220.82503L287.49258 212.95003L288.60196 212.95003L291.83633 220.82503L290.64883 220.82503L289.72696 218.4344L286.43008 218.4344L285.5707 220.82503L284.46133 220.82503ZM286.72696 217.59065L289.39883 217.59065L288.58633 215.40315Q288.21133 214.41878 288.02383 213.77815Q287.86758 214.52815 287.60196 215.27815L286.72696 217.59065ZM292.28946 220.82503L292.28946 212.95003L293.2582 212.95003L293.2582 220.82503L292.28946 220.82503ZM294.68008 214.0594L294.68008 212.95003L295.64883 212.95003L295.64883 214.0594L294.68008 214.0594ZM294.68008 220.82503L294.68008 215.1219L295.64883 215.1219L295.64883 220.82503L294.68008 220.82503ZM300.77383 218.73128L301.71133 218.85628Q301.5707 219.84065 300.92227 220.39534Q300.27383 220.95003 299.35196 220.95003Q298.18008 220.95003 297.46915 220.1844Q296.7582 219.41878 296.7582 217.9969Q296.7582 217.07503 297.0629 216.37971Q297.36758 215.6844 297.99258 215.34065Q298.61758 214.9969 299.35196 214.9969Q300.27383 214.9969 300.86758 215.46565Q301.46133 215.9344 301.6332 216.79378L300.68008 216.9344Q300.55508 216.3719 300.21133 216.08284Q299.86758 215.79378 299.3832 215.79378Q298.66446 215.79378 298.20352 216.31721Q297.74258 216.84065 297.74258 217.96565Q297.74258 219.1219 298.18008 219.63753Q298.61758 220.15315 299.33633 220.15315Q299.89883 220.15315 300.28165 219.8094Q300.66446 219.46565 300.77383 218.73128ZM306.27383 218.98128L307.27383 219.10628Q307.03946 219.98128 306.39883 220.46565Q305.7582 220.95003 304.77383 220.95003Q303.52383 220.95003 302.78946 220.1844Q302.05508 219.41878 302.05508 218.02815Q302.05508 216.57503 302.79727 215.78596Q303.53946 214.9969 304.71133 214.9969Q305.86758 214.9969 306.58633 215.77034Q307.30508 216.54378 307.30508 217.96565Q307.30508 218.04378 307.30508 218.21565L303.05508 218.21565Q303.10196 219.15315 303.57852 219.65315Q304.05508 220.15315 304.77383 220.15315Q305.30508 220.15315 305.68008 219.87971Q306.05508 219.60628 306.27383 218.98128ZM303.10196 217.41878L306.28946 217.41878Q306.22696 216.70003 305.93008 216.34065Q305.46133 215.79378 304.72696 215.79378Q304.05508 215.79378 303.60196 216.23909Q303.14883 216.6844 303.10196 217.41878ZM307.5707 220.96565L309.85196 212.8094L310.6332 212.8094L308.35196 220.96565L307.5707 220.96565ZM311.33633 220.82503L311.33633 212.95003L314.28946 212.95003Q315.18008 212.95003 315.72696 213.19221Q316.27383 213.4344 316.58633 213.92659Q316.89883 214.41878 316.89883 214.96565Q316.89883 215.46565 316.6254 215.91096Q316.35196 216.35628 315.78946 216.63753Q316.5082 216.84065 316.89102 217.34846Q317.27383 217.85628 317.27383 218.54378Q317.27383 219.09065 317.03946 219.56721Q316.80508 220.04378 316.46133 220.30159Q316.11758 220.5594 315.60196 220.69221Q315.08633 220.82503 314.33633 220.82503L311.33633 220.82503ZM312.36758 216.26253L314.0707 216.26253Q314.77383 216.26253 315.0707 216.16878Q315.46133 216.04378 315.66446 215.77034Q315.86758 215.4969 315.86758 215.09065Q315.86758 214.70003 315.68008 214.40315Q315.49258 214.10628 315.14102 213.9969Q314.78946 213.88753 313.9457 213.88753L312.36758 213.88753L312.36758 216.26253ZM312.36758 219.90315L314.33633 219.90315Q314.83633 219.90315 315.03946 219.85628Q315.39883 219.79378 315.64102 219.64534Q315.8832 219.4969 316.03946 219.20784Q316.1957 218.91878 316.1957 218.54378Q316.1957 218.10628 315.96915 217.77815Q315.74258 217.45003 315.34415 217.31721Q314.9457 217.1844 314.1957 217.1844L312.36758 217.1844L312.36758 219.90315ZM317.99258 217.96565Q317.99258 216.38753 318.8832 215.6219Q319.61758 214.9969 320.68008 214.9969Q321.85196 214.9969 322.59415 215.76253Q323.33633 216.52815 323.33633 217.88753Q323.33633 218.9969 323.0082 219.62971Q322.68008 220.26253 322.04727 220.60628Q321.41446 220.95003 320.68008 220.95003Q319.47696 220.95003 318.73477 220.1844Q317.99258 219.41878 317.99258 217.96565ZM318.99258 217.96565Q318.99258 219.07503 319.46915 219.61409Q319.9457 220.15315 320.68008 220.15315Q321.39883 220.15315 321.8754 219.60628Q322.35196 219.0594 322.35196 217.9344Q322.35196 216.88753 321.86758 216.34065Q321.3832 215.79378 320.68008 215.79378Q319.9457 215.79378 319.46915 216.33284Q318.99258 216.8719 318.99258 217.96565ZM325.18008 220.82503L324.28946 220.82503L324.28946 212.95003L325.2582 212.95003L325.2582 215.76253Q325.86758 214.9969 326.8207 214.9969Q327.35196 214.9969 327.8207 215.20784Q328.28946 215.41878 328.59415 215.80159Q328.89883 216.1844 329.0707 216.72346Q329.24258 217.26253 329.24258 217.88753Q329.24258 219.35628 328.51602 220.15315Q327.78946 220.95003 326.77383 220.95003Q325.7582 220.95003 325.18008 220.10628L325.18008 220.82503ZM325.18008 217.9344Q325.18008 218.95003 325.46133 219.41878Q325.91446 220.15315 326.6957 220.15315Q327.3207 220.15315 327.78165 219.60628Q328.24258 219.0594 328.24258 217.96565Q328.24258 216.85628 327.80508 216.32503Q327.36758 215.79378 326.72696 215.79378Q326.10196 215.79378 325.64102 216.34065Q325.18008 216.88753 325.18008 217.9344Z" fill-rule="nonzero" fill="#000000"></path><path d="M300.29666 258.71008L279.45764 286.31665" fill-rule="evenodd" stroke="#073763" stroke-width="2.0" stroke-linejoin="round" stroke-linecap="butt"></path><path d="M276.821 284.3264L273.9894 293.56067L282.09424 288.30692Z" fill-rule="evenodd" fill="#073763" stroke="#073763" stroke-width="2.0" stroke-linecap="butt"></path><path d="M313.68158 258.71008L334.88547 287.53226" fill-rule="evenodd" stroke="#073763" stroke-width="2.0" stroke-linejoin="round" stroke-linecap="butt"></path><path d="M332.22452 289.48987L340.26395 294.84314L337.54642 285.57465Z" fill-rule="evenodd" stroke="#073763" stroke-width="2.0" stroke-linecap="butt"></path><path d="M362.93668 191.10043L374.8861 235.69827" fill-rule="evenodd" stroke="#073763" stroke-width="2.0" stroke-linejoin="round" stroke-linecap="butt" stroke-dasharray="8.0,6.0"></path><path d="M371.6952 236.55324L377.2351 244.46523L378.077 234.8433Z" fill-rule="evenodd" fill="#073763" stroke="#073763" stroke-width="2.0" stroke-linecap="butt"></path><path d="M369.62915 188.32832L415.44308 234.14227" fill-rule="evenodd" stroke="#073763" stroke-width="2.0" stroke-linejoin="round" stroke-linecap="butt" stroke-dasharray="8.0,6.0"></path><path d="M413.10718 236.47816L421.8609 240.5601L417.77896 231.80637Z" fill-rule="evenodd" fill="#073763" stroke="#073763" stroke-width="2.0" stroke-linecap="butt"></path><path d="M389.21375 244.51633L389.21375 241.3132L392.41687 241.3132L392.41687 244.51633L389.21375 244.51633ZM398.10437 244.51633L398.10437 241.3132L401.3075 241.3132L401.3075 244.51633L398.10437 244.51633ZM406.995 244.51633L406.995 241.3132L410.19812 241.3132L410.19812 244.51633L406.995 244.51633Z" fill-rule="nonzero" fill="#073763"></path><path d="M398.82214 117.09071L398.82214 107.77821L402.30652 107.77821Q403.38464 107.77821 404.02527 108.067276Q404.6659 108.35634 405.03308 108.942276Q405.40027 109.52821 405.40027 110.16884Q405.40027 110.76259 405.07214 111.286026Q404.74402 111.80946 404.1034 112.13759Q404.94714 112.38759 405.40027 112.98134Q405.8534 113.57509 405.8534 114.38759Q405.8534 115.04384 405.57214 115.60634Q405.2909 116.16884 404.88464 116.473526Q404.4784 116.77821 403.86902 116.93446Q403.25964 117.09071 402.36902 117.09071L398.82214 117.09071ZM400.05652 111.70009L402.07214 111.70009Q402.88464 111.70009 403.24402 111.59071Q403.71277 111.45009 403.94714 111.12196Q404.18152 110.79384 404.18152 110.30946Q404.18152 109.84071 403.96277 109.48915Q403.74402 109.13759 403.32996 109.01259Q402.9159 108.88759 401.9159 108.88759L400.05652 108.88759L400.05652 111.70009ZM400.05652 115.99696L402.36902 115.99696Q402.96277 115.99696 403.21277 115.95009Q403.63464 115.87196 403.9159 115.692276Q404.19714 115.51259 404.38464 115.17665Q404.57214 114.84071 404.57214 114.38759Q404.57214 113.87196 404.30652 113.48915Q404.0409 113.10634 403.56433 112.95009Q403.08777 112.79384 402.19714 112.79384L400.05652 112.79384L400.05652 115.99696ZM407.19714 113.71571Q407.19714 111.84071 408.2284 110.95009Q409.1034 110.20009 410.3534 110.20009Q411.74402 110.20009 412.62683 111.10634Q413.50964 112.01259 413.50964 113.62196Q413.50964 114.91884 413.11902 115.66884Q412.7284 116.41884 411.9784 116.8329Q411.2284 117.24696 410.3534 117.24696Q408.93152 117.24696 408.06433 116.34071Q407.19714 115.43446 407.19714 113.71571ZM408.36902 113.71571Q408.36902 115.01259 408.93152 115.661026Q409.49402 116.30946 410.3534 116.30946Q411.19714 116.30946 411.76746 115.661026Q412.33777 115.01259 412.33777 113.68446Q412.33777 112.43446 411.76746 111.786026Q411.19714 111.13759 410.3534 111.13759Q409.49402 111.13759 408.93152 111.77821Q408.36902 112.41884 408.36902 113.71571ZM416.08777 117.09071L415.02527 117.09071L415.02527 107.77821L416.18152 107.77821L416.18152 111.10634Q416.90027 110.20009 418.02527 110.20009Q418.65027 110.20009 419.20496 110.45009Q419.75964 110.70009 420.11902 111.15321Q420.4784 111.60634 420.68152 112.24696Q420.88464 112.88759 420.88464 113.62196Q420.88464 115.35634 420.02527 116.30165Q419.1659 117.24696 417.96277 117.24696Q416.77527 117.24696 416.08777 116.24696L416.08777 117.09071ZM416.07214 113.66884Q416.07214 114.88759 416.4159 115.41884Q416.94714 116.30946 417.86902 116.30946Q418.61902 116.30946 419.1659 115.65321Q419.71277 114.99696 419.71277 113.71571Q419.71277 112.38759 419.18933 111.76259Q418.6659 111.13759 417.9159 111.13759Q417.1659 111.13759 416.61902 111.786026Q416.07214 112.43446 416.07214 113.66884Z" fill-rule="nonzero" fill="#000000"></path><path d="M219.0315 182.37791L219.0315 182.37791C219.0315 177.15077 214.79407 172.91335 209.56693 172.91335L209.56693 172.91335C207.05676 172.91335 204.64941 173.9105 202.87447 175.68546C201.09952 177.4604 200.10236 179.86775 200.10236 182.37791L200.10236 182.37791C200.10236 187.60504 204.3398 191.84248 209.56693 191.84248L209.56693 191.84248C214.79407 191.84248 219.0315 187.60504 219.0315 182.37791Z" fill-rule="nonzero" fill="#b6d7a8" stroke="#073763" stroke-width="2.0" stroke-linejoin="round" stroke-linecap="butt"></path><path d="M209.56693 142.09467L209.56693 160.91335" fill-rule="evenodd" stroke="#073763" stroke-width="2.0" stroke-linejoin="round" stroke-linecap="butt"></path><path d="M206.26346 160.91335L209.56693 169.98955L212.87039 160.91335Z" fill-rule="evenodd" fill="#073763" stroke="#073763" stroke-width="2.0" stroke-linecap="butt"></path><path d="M256.07086 302.58673L256.07086 302.58673C256.07086 297.3596 260.3083 293.12216 265.53543 293.12216L265.53543 293.12216C268.0456 293.12216 270.45294 294.11932 272.2279 295.8943C274.00284 297.66922 275.0 300.07657 275.0 302.58673L275.0 302.58673C275.0 307.81387 270.76257 312.0513 265.53543 312.0513L265.53543 312.0513C260.3083 312.0513 256.07086 307.81387 256.07086 302.58673Z" fill-rule="nonzero" fill="#cfe2f3" stroke="#073763" stroke-width="2.0" stroke-linejoin="round" stroke-linecap="butt"></path><path d="M209.56693 191.84248L253.70692 285.04895" fill-rule="evenodd" stroke="#073763" stroke-width="2.0" stroke-linejoin="round" stroke-linecap="butt"></path><path d="M250.72133 286.46286L257.59158 293.2518L256.69254 283.63507Z" fill-rule="evenodd" fill="#073763" stroke="#073763" stroke-width="2.0" stroke-linecap="butt"></path><path d="M91.708664 52.542576L187.20473 52.542576L187.20473 82.30635L91.708664 82.30635Z" fill-rule="nonzero" fill="#b6d7a8" stroke="#073763" stroke-width="1.0" stroke-linejoin="round" stroke-linecap="butt" stroke-dasharray="4.0,3.0"></path><path d="M113.19304 65.41757L110.72429 56.105076L111.989914 56.105076L113.41179 62.21445Q113.63054 63.167576 113.802414 64.1207Q114.16179 62.6207 114.22429 62.40195L115.989914 56.105076L117.47429 56.105076L118.802414 60.823826Q119.302414 62.573826 119.53679 64.1207Q119.708664 63.230076 119.989914 62.08945L121.458664 56.105076L122.69304 56.105076L120.146164 65.41757L118.958664 65.41757L116.989914 58.323826Q116.739914 57.4332 116.69304 57.230076Q116.552414 57.8707 116.427414 58.323826L114.458664 65.41757L113.19304 65.41757ZM123.989914 65.41757L123.989914 58.6832L125.021164 58.6832L125.021164 59.698826Q125.41179 58.980076 125.74773 58.753513Q126.083664 58.52695 126.47429 58.52695Q127.052414 58.52695 127.646164 58.886326L127.25554 59.948826Q126.833664 59.698826 126.427414 59.698826Q126.052414 59.698826 125.74773 59.92539Q125.44304 60.15195 125.31804 60.5582Q125.13054 61.167576 125.13054 61.886326L125.13054 65.41757L123.989914 65.41757ZM128.44304 57.4332L128.44304 56.105076L129.58366 56.105076L129.58366 57.4332L128.44304 57.4332ZM128.44304 65.41757L128.44304 58.6832L129.58366 58.6832L129.58366 65.41757L128.44304 65.41757ZM133.91179 64.40195L134.06804 65.40195Q133.58366 65.51132 133.20866 65.51132Q132.58366 65.51132 132.23991 65.3082Q131.89616 65.10507 131.75554 64.78476Q131.61491 64.46445 131.61491 63.448826L131.61491 59.5582L130.78679 59.5582L130.78679 58.6832L131.61491 58.6832L131.61491 57.011326L132.75554 56.323826L132.75554 58.6832L133.91179 58.6832L133.91179 59.5582L132.75554 59.5582L132.75554 63.511326Q132.75554 63.9957 132.81804 64.13632Q132.88054 64.27695 133.01335 64.35507Q133.14616 64.4332 133.39616 64.4332Q133.59929 64.4332 133.91179 64.40195ZM139.72429 63.2457L140.91179 63.386326Q140.63054 64.4332 139.87273 65.00351Q139.11491 65.57382 137.94304 65.57382Q136.45866 65.57382 135.59148 64.65976Q134.72429 63.7457 134.72429 62.105076Q134.72429 60.40195 135.6071 59.46445Q136.48991 58.52695 137.88054 58.52695Q139.23991 58.52695 140.09148 59.448826Q140.94304 60.3707 140.94304 62.02695Q140.94304 62.136326 140.94304 62.33945L135.91179 62.33945Q135.97429 63.448826 136.53679 64.04257Q137.09929 64.63632 137.94304 64.63632Q138.58366 64.63632 139.02898 64.300385Q139.47429 63.96445 139.72429 63.2457ZM135.97429 61.40195L139.73991 61.40195Q139.66179 60.542576 139.30241 60.1207Q138.75554 59.46445 137.89616 59.46445Q137.09929 59.46445 136.56804 59.98789Q136.03679 60.511326 135.97429 61.40195ZM146.31804 65.41757L146.31804 56.105076L147.55241 56.105076L147.55241 60.730076L152.17741 56.105076L153.83366 56.105076L149.94304 59.886326L154.00554 65.41757L152.38054 65.41757L149.06804 60.71445L147.55241 62.198826L147.55241 65.41757L146.31804 65.41757ZM159.72429 63.2457L160.91179 63.386326Q160.63054 64.4332 159.87273 65.00351Q159.11491 65.57382 157.94304 65.57382Q156.45866 65.57382 155.59148 64.65976Q154.72429 63.7457 154.72429 62.105076Q154.72429 60.40195 155.6071 59.46445Q156.48991 58.52695 157.88054 58.52695Q159.23991 58.52695 160.09148 59.448826Q160.94304 60.3707 160.94304 62.02695Q160.94304 62.136326 160.94304 62.33945L155.91179 62.33945Q155.97429 63.448826 156.53679 64.04257Q157.09929 64.63632 157.94304 64.63632Q158.58366 64.63632 159.02898 64.300385Q159.47429 63.96445 159.72429 63.2457ZM155.97429 61.40195L159.73991 61.40195Q159.66179 60.542576 159.30241 60.1207Q158.75554 59.46445 157.89616 59.46445Q157.09929 59.46445 156.56804 59.98789Q156.03679 60.511326 155.97429 61.40195ZM162.47429 68.01132L162.33366 66.94882Q162.70866 67.04257 162.98991 67.04257Q163.38054 67.04257 163.6071 66.91757Q163.83366 66.79257 163.97429 66.5582Q164.08366 66.38632 164.33366 65.71445Q164.36491 65.6207 164.42741 65.4332L161.86491 58.6832L163.09929 58.6832L164.50554 62.573826Q164.77116 63.323826 164.98991 64.13632Q165.19304 63.355076 165.45866 62.605076L166.91179 58.6832L168.05241 58.6832L165.48991 65.52695Q165.06804 66.63632 164.84929 67.0582Q164.53679 67.6207 164.14616 67.88632Q163.75554 68.15195 163.20866 68.15195Q162.88054 68.15195 162.47429 68.01132Z" fill-rule="nonzero" fill="#000000"></path><path d="M121.614914 80.41757L121.614914 71.10507L127.896164 71.10507L127.896164 72.21445L122.84929 72.21445L122.84929 75.08945L127.22429 75.08945L127.22429 76.1832L122.84929 76.1832L122.84929 80.41757L121.614914 80.41757ZM129.14616 77.04257Q129.14616 75.16757 130.17741 74.27695Q131.05241 73.52695 132.30241 73.52695Q133.69304 73.52695 134.57585 74.4332Q135.45866 75.33945 135.45866 76.94882Q135.45866 78.2457 135.06804 78.9957Q134.67741 79.7457 133.92741 80.15976Q133.17741 80.57382 132.30241 80.57382Q130.88054 80.57382 130.01335 79.66757Q129.14616 78.76132 129.14616 77.04257ZM130.31804 77.04257Q130.31804 78.33945 130.88054 78.987885Q131.44304 79.63632 132.30241 79.63632Q133.14616 79.63632 133.71648 78.987885Q134.28679 78.33945 134.28679 77.01132Q134.28679 75.76132 133.71648 75.112885Q133.14616 74.46445 132.30241 74.46445Q131.44304 74.46445 130.88054 75.10507Q130.31804 75.7457 130.31804 77.04257ZM136.94304 80.41757L136.94304 71.10507L138.08366 71.10507L138.08366 80.41757L136.94304 80.41757ZM144.30241 80.41757L144.30241 79.57382Q143.66179 80.57382 142.41179 80.57382Q141.61491 80.57382 140.93523 80.12851Q140.25554 79.6832 139.88054 78.88632Q139.50554 78.08945 139.50554 77.0582Q139.50554 76.04257 139.84929 75.22226Q140.19304 74.40195 140.86491 73.96445Q141.53679 73.52695 142.36491 73.52695Q142.97429 73.52695 143.45085 73.78476Q143.92741 74.04257 144.22429 74.44882L144.22429 71.10507L145.36491 71.10507L145.36491 80.41757L144.30241 80.41757ZM140.69304 77.0582Q140.69304 78.35507 141.2321 78.9957Q141.77116 79.63632 142.52116 79.63632Q143.27116 79.63632 143.7946 79.019135Q144.31804 78.40195 144.31804 77.15195Q144.31804 75.76132 143.78679 75.112885Q143.25554 74.46445 142.47429 74.46445Q141.70866 74.46445 141.20085 75.08945Q140.69304 75.71445 140.69304 77.0582ZM151.95866 78.2457L153.14616 78.38632Q152.86491 79.4332 152.1071 80.00351Q151.34929 80.57382 150.17741 80.57382Q148.69304 80.57382 147.82585 79.65976Q146.95866 78.7457 146.95866 77.10507Q146.95866 75.40195 147.84148 74.46445Q148.72429 73.52695 150.11491 73.52695Q151.47429 73.52695 152.32585 74.44882Q153.17741 75.3707 153.17741 77.02695Q153.17741 77.13632 153.17741 77.33945L148.14616 77.33945Q148.20866 78.44882 148.77116 79.04257Q149.33366 79.63632 150.17741 79.63632Q150.81804 79.63632 151.26335 79.300385Q151.70866 78.96445 151.95866 78.2457ZM148.20866 76.40195L151.97429 76.40195Q151.89616 75.54257 151.53679 75.1207Q150.98991 74.46445 150.13054 74.46445Q149.33366 74.46445 148.80241 74.987885Q148.27116 75.51132 148.20866 76.40195ZM154.73991 80.41757L154.73991 73.6832L155.77116 73.6832L155.77116 74.69882Q156.16179 73.98007 156.49773 73.75351Q156.83366 73.52695 157.22429 73.52695Q157.80241 73.52695 158.39616 73.88632L158.00554 74.94882Q157.58366 74.69882 157.17741 74.69882Q156.80241 74.69882 156.49773 74.925385Q156.19304 75.15195 156.06804 75.5582Q155.88054 76.16757 155.88054 76.88632L155.88054 80.41757L154.73991 80.41757Z" fill-rule="nonzero" fill="#000000"></path><path d="M237.31274 320.41055L238.29712 320.33243Q238.35962 320.91055 238.61743 321.29337Q238.87524 321.67618 239.4065 321.91055Q239.93774 322.14493 240.60962 322.14493Q241.219 322.14493 241.67212 321.96524Q242.12524 321.78555 242.3518 321.48087Q242.57837 321.17618 242.57837 320.80118Q242.57837 320.42618 242.35962 320.15274Q242.14087 319.8793 241.64087 319.6918Q241.32837 319.5668 240.24243 319.309Q239.1565 319.05118 238.719 318.8168Q238.1565 318.51993 237.88306 318.08243Q237.60962 317.64493 237.60962 317.09805Q237.60962 316.5043 237.94556 315.98868Q238.2815 315.47305 238.92993 315.19962Q239.57837 314.92618 240.37524 314.92618Q241.25024 314.92618 241.92212 315.21524Q242.594 315.5043 242.95337 316.05118Q243.31274 316.59805 243.344 317.28555L242.344 317.36368Q242.26587 316.61368 241.79712 316.23087Q241.32837 315.84805 240.42212 315.84805Q239.48462 315.84805 239.04712 316.19962Q238.60962 316.55118 238.60962 317.03555Q238.60962 317.45743 238.92212 317.73868Q239.219 318.0043 240.49243 318.29337Q241.76587 318.58243 242.23462 318.80118Q242.92212 319.11368 243.25024 319.59805Q243.57837 320.08243 243.57837 320.72305Q243.57837 321.34805 243.219 321.90274Q242.85962 322.45743 242.17993 322.76993Q241.50024 323.08243 240.6565 323.08243Q239.594 323.08243 238.87524 322.76993Q238.1565 322.45743 237.74243 321.83243Q237.32837 321.20743 237.31274 320.41055ZM244.64087 322.9418L244.64087 315.0668L245.60962 315.0668L245.60962 317.89493Q246.29712 317.11368 247.32837 317.11368Q247.95337 317.11368 248.42212 317.36368Q248.89087 317.61368 249.094 318.05118Q249.29712 318.48868 249.29712 319.33243L249.29712 322.9418L248.32837 322.9418L248.32837 319.33243Q248.32837 318.59805 248.01587 318.26993Q247.70337 317.9418 247.12524 317.9418Q246.68774 317.9418 246.31274 318.16055Q245.93774 318.3793 245.77368 318.76212Q245.60962 319.14493 245.60962 319.8168L245.60962 322.9418L244.64087 322.9418ZM254.31274 322.23868Q253.76587 322.6918 253.27368 322.8793Q252.7815 323.0668 252.20337 323.0668Q251.26587 323.0668 250.75806 322.60587Q250.25024 322.14493 250.25024 321.4418Q250.25024 321.01993 250.44556 320.67618Q250.64087 320.33243 250.94556 320.1215Q251.25024 319.91055 251.64087 319.80118Q251.92212 319.72305 252.50024 319.66055Q253.67212 319.51993 254.219 319.3168Q254.23462 319.1293 254.23462 319.0668Q254.23462 318.47305 253.95337 318.23868Q253.594 317.91055 252.85962 317.91055Q252.17212 317.91055 251.8518 318.14493Q251.5315 318.3793 251.37524 318.98868L250.42212 318.86368Q250.54712 318.2543 250.844 317.8793Q251.14087 317.5043 251.70337 317.309Q252.26587 317.11368 253.00024 317.11368Q253.73462 317.11368 254.18774 317.28555Q254.64087 317.45743 254.8518 317.71524Q255.06274 317.97305 255.1565 318.36368Q255.20337 318.61368 255.20337 319.26993L255.20337 320.55118Q255.20337 321.89493 255.26587 322.2543Q255.32837 322.61368 255.51587 322.9418L254.50024 322.9418Q254.344 322.64493 254.31274 322.23868ZM254.219 320.08243Q253.70337 320.30118 252.64087 320.4418Q252.04712 320.53555 251.80493 320.63712Q251.56274 320.73868 251.42212 320.94962Q251.2815 321.16055 251.2815 321.41055Q251.2815 321.80118 251.57837 322.059Q251.87524 322.3168 252.43774 322.3168Q253.00024 322.3168 253.42993 322.0668Q253.85962 321.8168 254.07837 321.39493Q254.219 321.0668 254.219 320.42618L254.219 320.08243ZM256.50024 322.9418L256.50024 317.23868L257.35962 317.23868L257.35962 318.09805Q257.70337 317.48868 257.98462 317.30118Q258.26587 317.11368 258.594 317.11368Q259.094 317.11368 259.594 317.42618L259.26587 318.3168Q258.9065 318.11368 258.54712 318.11368Q258.23462 318.11368 257.98462 318.30118Q257.73462 318.48868 257.62524 318.83243Q257.469 319.34805 257.469 319.95743L257.469 322.9418L256.50024 322.9418ZM263.95337 321.09805L264.95337 321.22305Q264.719 322.09805 264.07837 322.58243Q263.43774 323.0668 262.45337 323.0668Q261.20337 323.0668 260.469 322.30118Q259.73462 321.53555 259.73462 320.14493Q259.73462 318.6918 260.4768 317.90274Q261.219 317.11368 262.39087 317.11368Q263.54712 317.11368 264.26587 317.88712Q264.98462 318.66055 264.98462 320.08243Q264.98462 320.16055 264.98462 320.33243L260.73462 320.33243Q260.7815 321.26993 261.25806 321.76993Q261.73462 322.26993 262.45337 322.26993Q262.98462 322.26993 263.35962 321.9965Q263.73462 321.72305 263.95337 321.09805ZM260.7815 319.53555L263.969 319.53555Q263.9065 318.8168 263.60962 318.45743Q263.14087 317.91055 262.4065 317.91055Q261.73462 317.91055 261.2815 318.35587Q260.82837 318.80118 260.7815 319.53555ZM269.67212 322.9418L269.67212 322.22305Q269.14087 323.0668 268.07837 323.0668Q267.4065 323.0668 266.82837 322.6918Q266.25024 322.3168 265.93774 321.64493Q265.62524 320.97305 265.62524 320.09805Q265.62524 319.23868 265.9143 318.54337Q266.20337 317.84805 266.76587 317.48087Q267.32837 317.11368 268.0315 317.11368Q268.54712 317.11368 268.95337 317.33243Q269.35962 317.55118 269.60962 317.89493L269.60962 315.0668L270.57837 315.0668L270.57837 322.9418L269.67212 322.9418ZM266.62524 320.09805Q266.62524 321.1918 267.08618 321.73087Q267.54712 322.26993 268.17212 322.26993Q268.81274 322.26993 269.25024 321.7543Q269.68774 321.23868 269.68774 320.17618Q269.68774 319.0043 269.24243 318.45743Q268.79712 317.91055 268.12524 317.91055Q267.48462 317.91055 267.05493 318.434Q266.62524 318.95743 266.62524 320.09805ZM275.04712 322.9418L275.04712 315.0668L280.35962 315.0668L280.35962 316.0043L276.07837 316.0043L276.07837 318.4418L279.7815 318.4418L279.7815 319.36368L276.07837 319.36368L276.07837 322.9418L275.04712 322.9418ZM281.01587 320.08243Q281.01587 318.5043 281.9065 317.73868Q282.64087 317.11368 283.70337 317.11368Q284.87524 317.11368 285.61743 317.8793Q286.35962 318.64493 286.35962 320.0043Q286.35962 321.11368 286.0315 321.7465Q285.70337 322.3793 285.07056 322.72305Q284.43774 323.0668 283.70337 323.0668Q282.50024 323.0668 281.75806 322.30118Q281.01587 321.53555 281.01587 320.08243ZM282.01587 320.08243Q282.01587 321.1918 282.49243 321.73087Q282.969 322.26993 283.70337 322.26993Q284.42212 322.26993 284.89868 321.72305Q285.37524 321.17618 285.37524 320.05118Q285.37524 319.0043 284.89087 318.45743Q284.4065 317.91055 283.70337 317.91055Q282.969 317.91055 282.49243 318.44962Q282.01587 318.98868 282.01587 320.08243ZM287.2815 322.9418L287.2815 315.0668L288.25024 315.0668L288.25024 322.9418L287.2815 322.9418ZM293.35962 322.9418L293.35962 322.22305Q292.82837 323.0668 291.76587 323.0668Q291.094 323.0668 290.51587 322.6918Q289.93774 322.3168 289.62524 321.64493Q289.31274 320.97305 289.31274 320.09805Q289.31274 319.23868 289.6018 318.54337Q289.89087 317.84805 290.45337 317.48087Q291.01587 317.11368 291.719 317.11368Q292.23462 317.11368 292.64087 317.33243Q293.04712 317.55118 293.29712 317.89493L293.29712 315.0668L294.26587 315.0668L294.26587 322.9418L293.35962 322.9418ZM290.31274 320.09805Q290.31274 321.1918 290.77368 321.73087Q291.23462 322.26993 291.85962 322.26993Q292.50024 322.26993 292.93774 321.7543Q293.37524 321.23868 293.37524 320.17618Q293.37524 319.0043 292.92993 318.45743Q292.48462 317.91055 291.81274 317.91055Q291.17212 317.91055 290.74243 318.434Q290.31274 318.95743 290.31274 320.09805ZM299.50024 321.09805L300.50024 321.22305Q300.26587 322.09805 299.62524 322.58243Q298.98462 323.0668 298.00024 323.0668Q296.75024 323.0668 296.01587 322.30118Q295.2815 321.53555 295.2815 320.14493Q295.2815 318.6918 296.02368 317.90274Q296.76587 317.11368 297.93774 317.11368Q299.094 317.11368 299.81274 317.88712Q300.5315 318.66055 300.5315 320.08243Q300.5315 320.16055 300.5315 320.33243L296.2815 320.33243Q296.32837 321.26993 296.80493 321.76993Q297.2815 322.26993 298.00024 322.26993Q298.5315 322.26993 298.9065 321.9965Q299.2815 321.72305 299.50024 321.09805ZM296.32837 319.53555L299.51587 319.53555Q299.45337 318.8168 299.1565 318.45743Q298.68774 317.91055 297.95337 317.91055Q297.2815 317.91055 296.82837 318.35587Q296.37524 318.80118 296.32837 319.53555ZM301.51587 322.9418L301.51587 317.23868L302.37524 317.23868L302.37524 318.09805Q302.719 317.48868 303.00024 317.30118Q303.2815 317.11368 303.60962 317.11368Q304.10962 317.11368 304.60962 317.42618L304.2815 318.3168Q303.92212 318.11368 303.56274 318.11368Q303.25024 318.11368 303.00024 318.30118Q302.75024 318.48868 302.64087 318.83243Q302.48462 319.34805 302.48462 319.95743L302.48462 322.9418L301.51587 322.9418Z" fill-rule="nonzero" fill="#000000"></path><path d="M419.80054 182.37791L419.80054 182.37791C419.80054 177.15077 415.56308 172.91335 410.33597 172.91335L410.33597 172.91335C407.8258 172.91335 405.41846 173.9105 403.6435 175.68546C401.86856 177.4604 400.8714 179.86775 400.8714 182.37791L400.8714 182.37791C400.8714 187.60504 405.10883 191.84248 410.33597 191.84248L410.33597 191.84248C415.56308 191.84248 419.80054 187.60504 419.80054 182.37791Z" fill-rule="nonzero" fill="#b6d7a8" stroke="#073763" stroke-width="2.0" stroke-linejoin="round" stroke-linecap="butt"></path><path d="M410.33597 142.09467L410.33597 160.91335" fill-rule="evenodd" stroke="#073763" stroke-width="2.0" stroke-linejoin="round" stroke-linecap="butt"></path><path d="M407.0325 160.91335L410.33597 169.98955L413.63943 160.91335Z" fill-rule="evenodd" fill="#073763" stroke="#073763" stroke-width="2.0" stroke-linecap="butt"></path><path d="M434.70078 52.952023L530.2913 52.952023L530.2913 81.896904L434.70078 81.896904Z" fill-rule="nonzero" fill="#cfe2f3" stroke="#073763" stroke-width="1.0" stroke-linejoin="round" stroke-linecap="butt" stroke-dasharray="4.0,3.0"></path><path d="M460.16953 65.42078L460.16953 56.108273L464.29453 56.108273Q465.54453 56.108273 466.19296 56.366085Q466.8414 56.623898 467.23203 57.25671Q467.62265 57.889523 467.62265 58.655148Q467.62265 59.639523 466.9742 60.31921Q466.32578 60.998898 464.99765 61.186398Q465.48203 61.420773 465.73203 61.655148Q466.2789 62.139523 466.76328 62.889523L468.37265 65.42078L466.82578 65.42078L465.5914 63.483273Q465.06015 62.639523 464.7086 62.202023Q464.35703 61.764523 464.0836 61.584835Q463.81015 61.405148 463.5289 61.327023Q463.31015 61.295773 462.8414 61.295773L461.4039 61.295773L461.4039 65.42078L460.16953 65.42078ZM461.4039 60.217648L464.06015 60.217648Q464.9039 60.217648 465.38046 60.045773Q465.85703 59.873898 466.0992 59.491085Q466.3414 59.108273 466.3414 58.655148Q466.3414 57.998898 465.86484 57.56921Q465.38828 57.139523 464.35703 57.139523L461.4039 57.139523L461.4039 60.217648ZM474.24765 63.248898L475.43515 63.389523Q475.1539 64.4364 474.3961 65.006714Q473.63828 65.57703 472.4664 65.57703Q470.98203 65.57703 470.11484 64.662964Q469.24765 63.748898 469.24765 62.108273Q469.24765 60.405148 470.13046 59.467648Q471.01328 58.530148 472.4039 58.530148Q473.76328 58.530148 474.61484 59.452023Q475.4664 60.373898 475.4664 62.030148Q475.4664 62.139523 475.4664 62.342648L470.43515 62.342648Q470.49765 63.452023 471.06015 64.04578Q471.62265 64.63953 472.4664 64.63953Q473.10703 64.63953 473.55234 64.30359Q473.99765 63.967648 474.24765 63.248898ZM470.49765 61.405148L474.26328 61.405148Q474.18515 60.545773 473.82578 60.123898Q473.2789 59.467648 472.41953 59.467648Q471.62265 59.467648 471.0914 59.991085Q470.56015 60.514523 470.49765 61.405148ZM476.82578 65.98328L477.95078 66.13953Q478.01328 66.65515 478.32578 66.88953Q478.76328 67.21765 479.49765 67.21765Q480.2789 67.21765 480.7164 66.89734Q481.1539 66.57703 481.29453 65.9989Q481.38828 65.65515 481.38828 64.54578Q480.63828 65.42078 479.51328 65.42078Q478.12265 65.42078 477.36484 64.42078Q476.60703 63.420773 476.60703 62.014523Q476.60703 61.045773 476.9586 60.233273Q477.31015 59.420773 477.9664 58.97546Q478.62265 58.530148 479.5289 58.530148Q480.7164 58.530148 481.49765 59.498898L481.49765 58.686398L482.54453 58.686398L482.54453 64.4989Q482.54453 66.07703 482.2242 66.73328Q481.9039 67.38953 481.2086 67.77234Q480.51328 68.15515 479.49765 68.15515Q478.29453 68.15515 477.55234 67.61609Q476.81015 67.07703 476.82578 65.98328ZM477.7789 61.936398Q477.7789 63.248898 478.30234 63.858273Q478.82578 64.46765 479.62265 64.46765Q480.41953 64.46765 480.95078 63.866085Q481.48203 63.264523 481.48203 61.967648Q481.48203 60.733273 480.93515 60.10046Q480.38828 59.467648 479.60703 59.467648Q478.8414 59.467648 478.31015 60.092648Q477.7789 60.717648 477.7789 61.936398ZM488.88828 65.42078L488.88828 64.4364Q488.0914 65.57703 486.74765 65.57703Q486.1539 65.57703 485.63046 65.34265Q485.10703 65.10828 484.85703 64.76453Q484.60703 64.42078 484.51328 63.920773Q484.43515 63.592648 484.43515 62.858273L484.43515 58.686398L485.57578 58.686398L485.57578 62.420773Q485.57578 63.311398 485.6539 63.623898Q485.76328 64.07703 486.10703 64.33484Q486.45078 64.59265 486.9664 64.59265Q487.48203 64.59265 487.93515 64.32703Q488.38828 64.0614 488.57578 63.608273Q488.76328 63.155148 488.76328 62.295773L488.76328 58.686398L489.9039 58.686398L489.9039 65.42078L488.88828 65.42078ZM491.8414 65.42078L491.8414 56.108273L492.98203 56.108273L492.98203 65.42078L491.8414 65.42078ZM499.23203 64.59265Q498.60703 65.1239 498.0211 65.350464Q497.43515 65.57703 496.76328 65.57703Q495.63828 65.57703 495.04453 65.03015Q494.45078 64.48328 494.45078 63.639523Q494.45078 63.155148 494.67734 62.741085Q494.9039 62.327023 495.2711 62.077023Q495.63828 61.827023 496.0914 61.702023Q496.41953 61.623898 497.10703 61.530148Q498.48203 61.373898 499.13828 61.139523Q499.1539 60.905148 499.1539 60.842648Q499.1539 60.139523 498.82578 59.858273Q498.38828 59.467648 497.5289 59.467648Q496.7164 59.467648 496.3336 59.748898Q495.95078 60.030148 495.76328 60.748898L494.6539 60.608273Q494.79453 59.889523 495.1461 59.44421Q495.49765 58.998898 496.1617 58.764523Q496.82578 58.530148 497.68515 58.530148Q498.56015 58.530148 499.0992 58.733273Q499.63828 58.936398 499.88828 59.241085Q500.13828 59.545773 500.24765 60.014523Q500.29453 60.311398 500.29453 61.077023L500.29453 62.592648Q500.29453 64.1864 500.37265 64.60828Q500.45078 65.03015 500.6539 65.42078L499.4664 65.42078Q499.29453 65.0614 499.23203 64.59265ZM499.13828 62.030148Q498.51328 62.295773 497.2789 62.467648Q496.57578 62.577023 496.2789 62.702023Q495.98203 62.827023 495.82578 63.06921Q495.66953 63.311398 495.66953 63.608273Q495.66953 64.0614 496.01328 64.36609Q496.35703 64.67078 497.0289 64.67078Q497.68515 64.67078 498.20078 64.381714Q498.7164 64.09265 498.9664 63.592648Q499.13828 63.217648 499.13828 62.452023L499.13828 62.030148ZM502.23203 65.42078L502.23203 58.686398L503.26328 58.686398L503.26328 59.702023Q503.6539 58.983273 503.98984 58.75671Q504.32578 58.530148 504.7164 58.530148Q505.29453 58.530148 505.88828 58.889523L505.49765 59.952023Q505.07578 59.702023 504.66953 59.702023Q504.29453 59.702023 503.98984 59.928585Q503.68515 60.155148 503.56015 60.561398Q503.37265 61.170773 503.37265 61.889523L503.37265 65.42078L502.23203 65.42078Z" fill-rule="nonzero" fill="#000000"></path><path d="M464.6539 80.42078L464.6539 71.10828L470.93515 71.10828L470.93515 72.21765L465.88828 72.21765L465.88828 75.09265L470.26328 75.09265L470.26328 76.1864L465.88828 76.1864L465.88828 80.42078L464.6539 80.42078ZM472.18515 77.04578Q472.18515 75.17078 473.2164 74.28015Q474.0914 73.53015 475.3414 73.53015Q476.73203 73.53015 477.61484 74.4364Q478.49765 75.34265 478.49765 76.95203Q478.49765 78.2489 478.10703 78.9989Q477.7164 79.7489 476.9664 80.162964Q476.2164 80.57703 475.3414 80.57703Q473.91953 80.57703 473.05234 79.67078Q472.18515 78.76453 472.18515 77.04578ZM473.35703 77.04578Q473.35703 78.34265 473.91953 78.99109Q474.48203 79.63953 475.3414 79.63953Q476.18515 79.63953 476.75546 78.99109Q477.32578 78.34265 477.32578 77.01453Q477.32578 75.76453 476.75546 75.11609Q476.18515 74.46765 475.3414 74.46765Q474.48203 74.46765 473.91953 75.10828Q473.35703 75.7489 473.35703 77.04578ZM479.98203 80.42078L479.98203 71.10828L481.12265 71.10828L481.12265 80.42078L479.98203 80.42078ZM487.3414 80.42078L487.3414 79.57703Q486.70078 80.57703 485.45078 80.57703Q484.6539 80.57703 483.9742 80.131714Q483.29453 79.6864 482.91953 78.88953Q482.54453 78.09265 482.54453 77.0614Q482.54453 76.04578 482.88828 75.225464Q483.23203 74.40515 483.9039 73.96765Q484.57578 73.53015 485.4039 73.53015Q486.01328 73.53015 486.48984 73.787964Q486.9664 74.04578 487.26328 74.45203L487.26328 71.10828L488.4039 71.10828L488.4039 80.42078L487.3414 80.42078ZM483.73203 77.0614Q483.73203 78.35828 484.2711 78.9989Q484.81015 79.63953 485.56015 79.63953Q486.31015 79.63953 486.8336 79.02234Q487.35703 78.40515 487.35703 77.15515Q487.35703 75.76453 486.82578 75.11609Q486.29453 74.46765 485.51328 74.46765Q484.74765 74.46765 484.23984 75.09265Q483.73203 75.71765 483.73203 77.0614ZM494.99765 78.2489L496.18515 78.38953Q495.9039 79.4364 495.1461 80.006714Q494.38828 80.57703 493.2164 80.57703Q491.73203 80.57703 490.86484 79.662964Q489.99765 78.7489 489.99765 77.10828Q489.99765 75.40515 490.88046 74.46765Q491.76328 73.53015 493.1539 73.53015Q494.51328 73.53015 495.36484 74.45203Q496.2164 75.3739 496.2164 77.03015Q496.2164 77.13953 496.2164 77.34265L491.18515 77.34265Q491.24765 78.45203 491.81015 79.04578Q492.37265 79.63953 493.2164 79.63953Q493.85703 79.63953 494.30234 79.30359Q494.74765 78.96765 494.99765 78.2489ZM491.24765 76.40515L495.01328 76.40515Q494.93515 75.54578 494.57578 75.1239Q494.0289 74.46765 493.16953 74.46765Q492.37265 74.46765 491.8414 74.99109Q491.31015 75.51453 491.24765 76.40515ZM497.7789 80.42078L497.7789 73.6864L498.81015 73.6864L498.81015 74.70203Q499.20078 73.98328 499.5367 73.756714Q499.87265 73.53015 500.26328 73.53015Q500.8414 73.53015 501.43515 73.88953L501.04453 74.95203Q500.62265 74.70203 500.2164 74.70203Q499.8414 74.70203 499.5367 74.92859Q499.23203 75.15515 499.10703 75.5614Q498.91953 76.17078 498.91953 76.88953L498.91953 80.42078L497.7789 80.42078Z" fill-rule="nonzero" fill="#000000"></path></svg>

