<?xml version="1.0" standalone="yes"?>

<svg version="1.1" viewBox="0.0 0.0 960.0 720.0" fill="none" stroke="none" stroke-linecap="square" stroke-miterlimit="10" clip-path="url(#clip0)" xmlns="http://www.w3.org/2000/svg" xmlns:xlink="http://www.w3.org/1999/xlink"><clipPath id="clip0"><path d="M0 0L960.0 0L960.0 720.0L0 720.0L0 0Z" clip-rule="nonzero"></path></clipPath><path d="M520.94543 386.26508L520.94543 386.26508C512.57886 365.16827 513.35803 341.6769 522.9523 325.75922C532.5466 309.84152 549.2734 304.28912 566.03485 311.45813L566.03485 311.45813C567.2118 297.45352 573.5056 286.20746 583.0126 281.1217C592.5195 276.03592 604.12286 277.70776 614.3129 285.63153L614.3129 285.63153C615.1166 273.00986 620.9476 263.00757 629.73676 259.17404C638.52594 255.34048 649.0295 258.2182 657.5201 266.78604L657.5201 266.78604C661.43054 252.5272 671.73566 244.03273 683.9764 244.97823C696.2171 245.9237 708.1949 256.13934 714.7269 271.20474L714.7269 271.20474C724.7853 272.04126 734.85785 278.62595 742.3422 289.25754C749.82666 299.88913 753.98865 313.5247 753.7529 326.64124L753.7529 326.64124C767.33875 340.25876 775.6333 361.2256 775.54114 381.71732C775.449 402.20908 766.984 419.14703 753.3052 426.2103C758.3071 443.97867 756.00635 462.26498 747.28955 474.0209C738.57275 485.77682 724.80115 489.16663 711.28296 482.8837C712.7895 505.45444 704.32135 524.8168 689.537 532.60547C674.7527 540.39417 656.30255 535.21295 642.1578 519.3003C633.94556 531.51184 621.705 537.8704 608.1973 536.9416C594.68964 536.0128 581.0526 527.8749 570.3625 514.3636L570.3625 514.3636C559.8151 519.35095 546.81744 514.4428 537.8202 502.07498C528.82294 489.70718 525.7414 472.51257 530.10486 459.02475L530.10486 459.02475C517.90466 453.7717 508.2468 439.16177 506.1674 422.81348C504.088 406.4652 510.05832 392.08313 520.965 387.16696Z" fill-rule="nonzero" fill="#cfe2f3" stroke="#073763" stroke-width="2.0" stroke-linejoin="round" stroke-linecap="butt"></path><path d="M530.10724 459.0224L530.10724 459.0224C535.86456 461.50134 541.74457 461.6856 546.9578 459.55045M570.3628 514.3633C572.5688 513.3202 574.60754 511.86865 576.4266 510.0461M642.15454 519.3C639.5482 516.3679 637.1398 513.12646 634.97015 509.63074M711.28235 482.88193L711.28235 482.88193C711.0077 478.76697 710.4048 474.62387 709.48364 470.52182M753.303 426.21057C747.9776 407.2934 735.3009 392.21674 720.7179 387.45645M753.75104 326.6436C753.6253 333.64313 752.2498 340.21588 749.73254 345.84653M714.72644 271.2049L714.72644 271.2049C715.8104 273.705 716.72473 276.29617 717.4568 278.9425M657.5207 266.7867L657.5207 266.7867C656.5453 270.3436 655.99725 274.1624 655.89374 278.12427M614.3127 285.631L614.3127 285.631C614.1197 288.66235 614.22186 291.78186 614.6168 294.9177M566.03394 311.45804L566.03394 311.45804C569.5807 312.975 573.0496 315.0309 576.3646 317.58066M520.94543 386.26508L520.94543 386.26508C522.0986 389.17276 523.4106 391.99478 524.86926 394.70474" fill-rule="nonzero" stroke="#073763" stroke-width="2.0" stroke-linejoin="round" stroke-linecap="butt"></path><path d="M204.3643 283.77054L498.695 283.77054L498.695 522.8256L204.3643 522.8256Z" fill-rule="nonzero" stroke="#073763" stroke-width="2.0" stroke-linejoin="round" stroke-linecap="butt" stroke-dasharray="8.0,6.0"></path><path d="M220.47368 296.45804L221.70805 296.45804L221.70805 301.84866Q221.70805 303.2393 221.38774 304.0674Q221.06743 304.89554 220.2393 305.41116Q219.41118 305.9268 218.06743 305.9268Q216.75493 305.9268 215.9268 305.47366Q215.09868 305.02054 214.7393 304.16898Q214.37993 303.3174 214.37993 301.84866L214.37993 296.45804L215.6143 296.45804L215.6143 301.83304Q215.6143 303.0518 215.84087 303.6221Q216.06743 304.1924 216.6143 304.5049Q217.16118 304.8174 217.95805 304.8174Q219.31743 304.8174 219.89555 304.20023Q220.47368 303.58304 220.47368 301.83304L220.47368 296.45804ZM223.39555 303.7549L224.52055 303.58304Q224.6143 304.2549 225.0518 304.6221Q225.4893 304.9893 226.27055 304.9893Q227.0518 304.9893 227.43462 304.66898Q227.81743 304.34866 227.81743 303.91116Q227.81743 303.52054 227.47368 303.3018Q227.2393 303.14554 226.3018 302.91116Q225.0518 302.59866 224.56743 302.3643Q224.08305 302.1299 223.83305 301.72366Q223.58305 301.3174 223.58305 300.8174Q223.58305 300.3643 223.78618 299.98148Q223.9893 299.59866 224.34868 299.34866Q224.6143 299.14554 225.07524 299.01273Q225.53618 298.8799 226.06743 298.8799Q226.84868 298.8799 227.45024 299.10648Q228.0518 299.33304 228.34087 299.72366Q228.62993 300.1143 228.7393 300.77054L227.6143 300.9268Q227.53618 300.39554 227.1768 300.10648Q226.81743 299.8174 226.14555 299.8174Q225.3643 299.8174 225.02055 300.07523Q224.6768 300.33304 224.6768 300.6924Q224.6768 300.91116 224.81743 301.08304Q224.95805 301.27054 225.25493 301.39554Q225.4268 301.45804 226.27055 301.6768Q227.4893 302.0049 227.96587 302.20804Q228.44243 302.41116 228.71587 302.8096Q228.9893 303.20804 228.9893 303.78616Q228.9893 304.3643 228.65337 304.8643Q228.31743 305.3643 227.69243 305.64554Q227.06743 305.9268 226.27055 305.9268Q224.95805 305.9268 224.27055 305.3799Q223.58305 304.83304 223.39555 303.7549ZM235.1143 303.59866L236.3018 303.7393Q236.02055 304.78616 235.26274 305.35648Q234.50493 305.9268 233.33305 305.9268Q231.84868 305.9268 230.98149 305.01273Q230.1143 304.09866 230.1143 302.45804Q230.1143 300.7549 230.99712 299.8174Q231.87993 298.8799 233.27055 298.8799Q234.62993 298.8799 235.48149 299.8018Q236.33305 300.72366 236.33305 302.3799Q236.33305 302.4893 236.33305 302.6924L231.3018 302.6924Q231.3643 303.8018 231.9268 304.39554Q232.4893 304.9893 233.33305 304.9893Q233.97368 304.9893 234.41899 304.65335Q234.8643 304.3174 235.1143 303.59866ZM231.3643 301.7549L235.12993 301.7549Q235.0518 300.89554 234.69243 300.47366Q234.14555 299.8174 233.28618 299.8174Q232.4893 299.8174 231.95805 300.34085Q231.4268 300.8643 231.3643 301.7549ZM237.89555 305.77054L237.89555 299.03616L238.9268 299.03616L238.9268 300.0518Q239.31743 299.33304 239.65337 299.10648Q239.9893 298.8799 240.37993 298.8799Q240.95805 298.8799 241.5518 299.2393L241.16118 300.3018Q240.7393 300.0518 240.33305 300.0518Q239.95805 300.0518 239.65337 300.27835Q239.34868 300.5049 239.22368 300.91116Q239.03618 301.52054 239.03618 302.2393L239.03618 305.77054L237.89555 305.77054ZM248.5518 304.7549L248.70805 305.7549Q248.22368 305.8643 247.84868 305.8643Q247.22368 305.8643 246.87993 305.66116Q246.53618 305.45804 246.39555 305.13773Q246.25493 304.8174 246.25493 303.8018L246.25493 299.91116L245.4268 299.91116L245.4268 299.03616L246.25493 299.03616L246.25493 297.3643L247.39555 296.6768L247.39555 299.03616L248.5518 299.03616L248.5518 299.91116L247.39555 299.91116L247.39555 303.8643Q247.39555 304.34866 247.45805 304.4893Q247.52055 304.6299 247.65337 304.70804Q247.78618 304.78616 248.03618 304.78616Q248.2393 304.78616 248.5518 304.7549ZM254.3643 303.59866L255.5518 303.7393Q255.27055 304.78616 254.51274 305.35648Q253.75493 305.9268 252.58305 305.9268Q251.09868 305.9268 250.23149 305.01273Q249.3643 304.09866 249.3643 302.45804Q249.3643 300.7549 250.24712 299.8174Q251.12993 298.8799 252.52055 298.8799Q253.87993 298.8799 254.73149 299.8018Q255.58305 300.72366 255.58305 302.3799Q255.58305 302.4893 255.58305 302.6924L250.5518 302.6924Q250.6143 303.8018 251.1768 304.39554Q251.7393 304.9893 252.58305 304.9893Q253.22368 304.9893 253.66899 304.65335Q254.1143 304.3174 254.3643 303.59866ZM250.6143 301.7549L254.37993 301.7549Q254.3018 300.89554 253.94243 300.47366Q253.39555 299.8174 252.53618 299.8174Q251.7393 299.8174 251.20805 300.34085Q250.6768 300.8643 250.6143 301.7549ZM257.16116 305.77054L257.16116 299.03616L258.1924 299.03616L258.1924 300.0518Q258.58304 299.33304 258.91898 299.10648Q259.2549 298.8799 259.64554 298.8799Q260.22366 298.8799 260.8174 299.2393L260.4268 300.3018Q260.0049 300.0518 259.59866 300.0518Q259.22366 300.0518 258.91898 300.27835Q258.6143 300.5049 258.4893 300.91116Q258.3018 301.52054 258.3018 302.2393L258.3018 305.77054L257.16116 305.77054ZM261.6143 305.77054L261.6143 299.03616L262.6299 299.03616L262.6299 299.97366Q262.95804 299.47366 263.48148 299.1768Q264.0049 298.8799 264.6768 298.8799Q265.4268 298.8799 265.90335 299.1924Q266.3799 299.5049 266.58304 300.0518Q267.3799 298.8799 268.66116 298.8799Q269.66116 298.8799 270.20023 299.4346Q270.7393 299.9893 270.7393 301.14554L270.7393 305.77054L269.6143 305.77054L269.6143 301.52054Q269.6143 300.83304 269.5049 300.53616Q269.39554 300.2393 269.09866 300.0518Q268.8018 299.8643 268.41116 299.8643Q267.6924 299.8643 267.22366 300.34085Q266.7549 300.8174 266.7549 301.84866L266.7549 305.77054L265.6143 305.77054L265.6143 301.39554Q265.6143 300.6299 265.33304 300.2471Q265.0518 299.8643 264.4268 299.8643Q263.9424 299.8643 263.53616 300.1221Q263.1299 300.3799 262.9424 300.8643Q262.7549 301.34866 262.7549 302.27054L262.7549 305.77054L261.6143 305.77054ZM272.70804 297.78616L272.70804 296.45804L273.84866 296.45804L273.84866 297.78616L272.70804 297.78616ZM272.70804 305.77054L272.70804 299.03616L273.84866 299.03616L273.84866 305.77054L272.70804 305.77054ZM275.6768 305.77054L275.6768 299.03616L276.70804 299.03616L276.70804 299.9893Q277.4424 298.8799 278.84866 298.8799Q279.45804 298.8799 279.96585 299.09866Q280.47366 299.3174 280.73148 299.66898Q280.9893 300.02054 281.08304 300.52054Q281.14554 300.83304 281.14554 301.6299L281.14554 305.77054L280.0049 305.77054L280.0049 301.6768Q280.0049 300.97366 279.8721 300.6299Q279.7393 300.28616 279.40335 300.07523Q279.0674 299.8643 278.6143 299.8643Q277.8799 299.8643 277.34866 300.32523Q276.8174 300.78616 276.8174 302.08304L276.8174 305.77054L275.6768 305.77054ZM287.47366 304.9424Q286.84866 305.47366 286.26273 305.70023Q285.6768 305.9268 285.0049 305.9268Q283.8799 305.9268 283.28616 305.3799Q282.6924 304.83304 282.6924 303.9893Q282.6924 303.5049 282.91898 303.09085Q283.14554 302.6768 283.51273 302.4268Q283.8799 302.1768 284.33304 302.0518Q284.66116 301.97366 285.34866 301.8799Q286.72366 301.72366 287.3799 301.4893Q287.39554 301.2549 287.39554 301.1924Q287.39554 300.4893 287.0674 300.20804Q286.6299 299.8174 285.77054 299.8174Q284.95804 299.8174 284.57523 300.09866Q284.1924 300.3799 284.0049 301.09866L282.89554 300.95804Q283.03616 300.2393 283.38773 299.79398Q283.7393 299.34866 284.40335 299.1143Q285.0674 298.8799 285.9268 298.8799Q286.8018 298.8799 287.34085 299.08304Q287.8799 299.28616 288.1299 299.59085Q288.3799 299.89554 288.4893 300.3643Q288.53616 300.66116 288.53616 301.4268L288.53616 302.9424Q288.53616 304.53616 288.6143 304.95804Q288.6924 305.3799 288.89554 305.77054L287.70804 305.77054Q287.53616 305.41116 287.47366 304.9424ZM287.3799 302.3799Q286.7549 302.64554 285.52054 302.8174Q284.8174 302.9268 284.52054 303.0518Q284.22366 303.1768 284.0674 303.41898Q283.91116 303.66116 283.91116 303.95804Q283.91116 304.41116 284.2549 304.71585Q284.59866 305.02054 285.27054 305.02054Q285.9268 305.02054 286.4424 304.73148Q286.95804 304.4424 287.20804 303.9424Q287.3799 303.5674 287.3799 302.8018L287.3799 302.3799ZM290.47366 305.77054L290.47366 296.45804L291.6143 296.45804L291.6143 305.77054L290.47366 305.77054Z" fill-rule="nonzero" fill="#073763"></path><path d="M159.83691 375.23944L159.83691 375.23944C159.83691 368.04382 165.67012 362.2106 172.86575 362.2106L172.86575 362.2106C176.32121 362.2106 179.63515 363.58328 182.07854 366.02667C184.52191 368.47003 185.89459 371.78397 185.89459 375.23944L185.89459 375.23944C185.89459 382.43506 180.06139 388.26828 172.86575 388.26828L172.86575 388.26828C165.67012 388.26828 159.83691 382.43506 159.83691 375.23944Z" fill-rule="nonzero" stroke="#073763" stroke-width="2.0" stroke-linejoin="round" stroke-linecap="butt"></path><path d="M172.86575 388.26828L172.86575 427.6882" fill-rule="nonzero" stroke="#073763" stroke-width="2.0" stroke-linejoin="round" stroke-linecap="butt"></path><path d="M172.86575 427.6882L153.60037 461.03217" fill-rule="nonzero" stroke="#073763" stroke-width="2.0" stroke-linejoin="round" stroke-linecap="butt"></path><path d="M192.13113 461.03217L172.86575 427.6882" fill-rule="nonzero" stroke="#073763" stroke-width="2.0" stroke-linejoin="round" stroke-linecap="butt"></path><path d="M150.34007 404.45242L195.39143 404.45242" fill-rule="nonzero" stroke="#073763" stroke-width="2.0" stroke-linejoin="round" stroke-linecap="butt"></path><path d="M163.54398 337.75235L165.34085 337.75235L165.34085 345.5961Q165.34085 347.6586 164.87991 348.86172Q164.41898 350.06485 163.20804 350.82266Q161.9971 351.58047 160.02835 351.58047Q158.1221 351.58047 156.90335 350.92422Q155.6846 350.26797 155.16898 349.01797Q154.65335 347.76797 154.65335 345.5961L154.65335 337.75235L156.45023 337.75235L156.45023 345.5961Q156.45023 347.36172 156.77835 348.20547Q157.10648 349.04922 157.91116 349.50235Q158.71585 349.95547 159.8721 349.95547Q161.85648 349.95547 162.70023 349.05704Q163.54398 348.1586 163.54398 345.5961L163.54398 337.75235ZM167.21585 348.4086L168.8721 348.14297Q169.01273 349.14297 169.64554 349.6664Q170.27835 350.18985 171.41898 350.18985Q172.57523 350.18985 173.12991 349.7211Q173.6846 349.25235 173.6846 348.62735Q173.6846 348.06485 173.20023 347.73672Q172.85648 347.51797 171.4971 347.17422Q169.65335 346.70547 168.94241 346.36954Q168.23148 346.0336 167.86429 345.43204Q167.4971 344.83047 167.4971 344.11172Q167.4971 343.45547 167.80179 342.89297Q168.10648 342.33047 168.6221 341.95547Q169.01273 341.67422 169.6846 341.4711Q170.35648 341.26797 171.1221 341.26797Q172.29398 341.26797 173.16898 341.6039Q174.04398 341.93985 174.45804 342.51016Q174.8721 343.08047 175.02835 344.0336L173.40335 344.25235Q173.29398 343.50235 172.75491 343.07266Q172.21585 342.64297 171.2471 342.64297Q170.09085 342.64297 169.60648 343.0258Q169.1221 343.4086 169.1221 343.9086Q169.1221 344.23672 169.32523 344.50235Q169.52835 344.76797 169.96585 344.93985Q170.21585 345.0336 171.4346 345.37735Q173.20023 345.8461 173.90335 346.14297Q174.60648 346.43985 175.00491 347.01797Q175.40335 347.5961 175.40335 348.45547Q175.40335 349.2836 174.91898 350.0258Q174.4346 350.76797 173.51273 351.1664Q172.59085 351.56485 171.4346 351.56485Q169.51273 351.56485 168.50491 350.76797Q167.4971 349.9711 167.21585 348.4086ZM183.96585 348.17422L185.6846 348.39297Q185.27835 349.89297 184.17679 350.7289Q183.07523 351.56485 181.35648 351.56485Q179.20023 351.56485 177.9346 350.23672Q176.66898 348.9086 176.66898 346.50235Q176.66898 344.01797 177.94241 342.64297Q179.21585 341.26797 181.26273 341.26797Q183.2471 341.26797 184.4971 342.61172Q185.7471 343.95547 185.7471 346.4086Q185.7471 346.54922 185.73148 346.8461L178.38773 346.8461Q178.48148 348.4711 179.3096 349.33047Q180.13773 350.18985 181.3721 350.18985Q182.27835 350.18985 182.92679 349.7133Q183.57523 349.23672 183.96585 348.17422ZM178.48148 345.4711L183.98148 345.4711Q183.8721 344.23672 183.35648 343.61172Q182.5596 342.64297 181.27835 342.64297Q180.13773 342.64297 179.34866 343.4164Q178.5596 344.18985 178.48148 345.4711ZM187.57523 351.3461L187.57523 341.48672L189.07523 341.48672L189.07523 342.98672Q189.65335 341.93985 190.13773 341.6039Q190.6221 341.26797 191.21585 341.26797Q192.0596 341.26797 192.9346 341.81485L192.35648 343.36172Q191.7471 343.00235 191.1221 343.00235Q190.57523 343.00235 190.14554 343.33047Q189.71585 343.6586 189.52835 344.23672Q189.2471 345.12735 189.2471 346.18985L189.2471 351.3461L187.57523 351.3461Z" fill-rule="nonzero" fill="#000000"></path><path d="M312.73843 346.9285L312.73843 346.9285C312.73843 336.9495 320.82803 328.8599 330.80704 328.8599L403.07928 328.8599L403.07928 328.8599C407.87137 328.8599 412.4672 330.76355 415.8557 334.15207C419.24423 337.5406 421.1479 342.1364 421.1479 346.9285L421.1479 475.92514C421.1479 485.90417 413.0583 493.99374 403.07928 493.99374L330.80704 493.99374C320.82803 493.99374 312.73843 485.90417 312.73843 475.92514Z" fill-rule="nonzero" fill="#cfe2f3" stroke="#073763" stroke-width="2.0" stroke-linejoin="round" stroke-linecap="butt"></path><path d="M338.7493 404.73013L340.1868 404.60513Q340.28055 405.4645 340.65555 406.0192Q341.03055 406.57388 341.8118 406.90982Q342.59305 407.24576 343.5618 407.24576Q344.4368 407.24576 345.10086 406.98795Q345.76492 406.73013 346.08524 406.28482Q346.40555 405.8395 346.40555 405.30826Q346.40555 404.76138 346.09305 404.36295Q345.78055 403.9645 345.0618 403.68326Q344.60867 403.51138 343.03055 403.12857Q341.45242 402.74576 340.8118 402.41763Q339.9993 401.98013 339.59305 401.34732Q339.1868 400.7145 339.1868 399.91763Q339.1868 399.05826 339.679 398.30045Q340.17117 397.54263 341.1165 397.152Q342.0618 396.76138 343.21805 396.76138Q344.4993 396.76138 345.46805 397.17545Q346.4368 397.5895 346.96024 398.38638Q347.48367 399.18326 347.53055 400.18326L346.07742 400.29263Q345.95242 399.2145 345.28055 398.65982Q344.60867 398.10513 343.28055 398.10513Q341.90555 398.10513 341.28055 398.60513Q340.65555 399.10513 340.65555 399.82388Q340.65555 400.43326 341.09305 400.8395Q341.53055 401.23013 343.3821 401.652Q345.23367 402.07388 345.92117 402.38638Q346.92117 402.8395 347.39774 403.55045Q347.8743 404.26138 347.8743 405.18326Q347.8743 406.0895 347.35086 406.902Q346.82742 407.7145 345.84305 408.16763Q344.85867 408.62076 343.63992 408.62076Q342.07742 408.62076 341.03055 408.15982Q339.98367 407.69888 339.3821 406.79263Q338.78055 405.88638 338.7493 404.73013ZM355.4368 405.74576L356.88992 405.91763Q356.54617 407.19888 355.6165 407.902Q354.6868 408.60513 353.2493 408.60513Q351.42117 408.60513 350.35867 407.48013Q349.29617 406.35513 349.29617 404.3395Q349.29617 402.24576 350.3743 401.0895Q351.45242 399.93326 353.17117 399.93326Q354.82742 399.93326 355.8821 401.06607Q356.9368 402.19888 356.9368 404.24576Q356.9368 404.37076 356.9368 404.62076L350.7493 404.62076Q350.82742 405.99576 351.52274 406.72232Q352.21805 407.44888 353.2493 407.44888Q354.03055 407.44888 354.57742 407.04263Q355.1243 406.63638 355.4368 405.74576ZM350.82742 403.4645L355.45242 403.4645Q355.35867 402.41763 354.92117 401.902Q354.2493 401.0895 353.1868 401.0895Q352.21805 401.0895 351.554 401.73795Q350.88992 402.38638 350.82742 403.4645ZM364.07742 405.37076L365.46805 405.55826Q365.23367 406.98013 364.304 407.79263Q363.3743 408.60513 362.01492 408.60513Q360.3118 408.60513 359.27274 407.48795Q358.23367 406.37076 358.23367 404.29263Q358.23367 402.94888 358.679 401.94107Q359.1243 400.93326 360.03836 400.43326Q360.95242 399.93326 362.01492 399.93326Q363.3743 399.93326 364.23367 400.61295Q365.09305 401.29263 365.32742 402.55826L363.96805 402.76138Q363.76492 401.93326 363.27274 401.51138Q362.78055 401.0895 362.07742 401.0895Q361.01492 401.0895 360.35086 401.84732Q359.6868 402.60513 359.6868 404.26138Q359.6868 405.93326 360.32742 406.69107Q360.96805 407.44888 361.9993 407.44888Q362.82742 407.44888 363.3821 406.94107Q363.9368 406.43326 364.07742 405.37076ZM372.10867 408.41763L372.10867 407.19888Q371.13992 408.60513 369.46805 408.60513Q368.73367 408.60513 368.10086 408.32388Q367.46805 408.04263 367.15555 407.61295Q366.84305 407.18326 366.71805 406.57388Q366.63992 406.152 366.63992 405.26138L366.63992 400.12076L368.04617 400.12076L368.04617 404.7145Q368.04617 405.82388 368.1243 406.19888Q368.26492 406.76138 368.6946 407.07388Q369.1243 407.38638 369.7493 407.38638Q370.38992 407.38638 370.9446 407.06607Q371.4993 406.74576 371.72586 406.18326Q371.95242 405.62076 371.95242 404.55826L371.95242 400.12076L373.35867 400.12076L373.35867 408.41763L372.10867 408.41763ZM375.54617 408.41763L375.54617 400.12076L376.8118 400.12076L376.8118 401.37076Q377.29617 400.49576 377.70242 400.2145Q378.10867 399.93326 378.60867 399.93326Q379.3118 399.93326 380.04617 400.38638L379.5618 401.68326Q379.04617 401.38638 378.53055 401.38638Q378.07742 401.38638 377.71024 401.65982Q377.34305 401.93326 377.1868 402.43326Q376.95242 403.18326 376.95242 404.07388L376.95242 408.41763L375.54617 408.41763ZM380.88992 398.57388L380.88992 396.9645L382.29617 396.9645L382.29617 398.57388L380.88992 398.57388ZM380.88992 408.41763L380.88992 400.12076L382.29617 400.12076L382.29617 408.41763L380.88992 408.41763ZM387.51492 407.152L387.71805 408.402Q387.1243 408.527 386.65555 408.527Q385.88992 408.527 385.46805 408.28482Q385.04617 408.04263 384.8743 407.6442Q384.70242 407.24576 384.70242 405.98013L384.70242 401.2145L383.67117 401.2145L383.67117 400.12076L384.70242 400.12076L384.70242 398.05826L386.10867 397.2145L386.10867 400.12076L387.51492 400.12076L387.51492 401.2145L386.10867 401.2145L386.10867 406.05826Q386.10867 406.66763 386.179 406.8395Q386.2493 407.01138 386.42117 407.11295Q386.59305 407.2145 386.90555 407.2145Q387.13992 407.2145 387.51492 407.152ZM388.82742 411.62076L388.67117 410.29263Q389.1243 410.41763 389.46805 410.41763Q389.9368 410.41763 390.21805 410.26138Q390.4993 410.10513 390.6868 409.82388Q390.8118 409.62076 391.10867 408.777Q391.15555 408.66763 391.23367 408.43326L388.09305 400.12076L389.60867 400.12076L391.32742 404.91763Q391.67117 405.8395 391.9368 406.8395Q392.17117 405.87076 392.51492 404.94888L394.28055 400.12076L395.6868 400.12076L392.53055 408.55826Q392.03055 409.93326 391.7493 410.44888Q391.3743 411.13638 390.88992 411.4645Q390.40555 411.79263 389.73367 411.79263Q389.32742 411.79263 388.82742 411.62076Z" fill-rule="nonzero" fill="#000000"></path><path d="M328.57742 420.8395Q328.57742 417.98013 330.10867 416.37076Q331.63992 414.76138 334.0618 414.76138Q335.63992 414.76138 336.91336 415.5192Q338.1868 416.277 338.85867 417.62857Q339.53055 418.98013 339.53055 420.69888Q339.53055 422.44888 338.82742 423.82388Q338.1243 425.19888 336.83524 425.90982Q335.54617 426.62076 334.04617 426.62076Q332.4368 426.62076 331.16336 425.8317Q329.88992 425.04263 329.23367 423.69107Q328.57742 422.3395 328.57742 420.8395ZM330.13992 420.85513Q330.13992 422.93326 331.2493 424.12076Q332.35867 425.30826 334.04617 425.30826Q335.7493 425.30826 336.85867 424.10513Q337.96805 422.902 337.96805 420.69888Q337.96805 419.29263 337.4915 418.25357Q337.01492 417.2145 336.10867 416.63638Q335.20242 416.05826 334.0618 416.05826Q332.45242 416.05826 331.29617 417.16763Q330.13992 418.277 330.13992 420.85513ZM341.3118 429.60513L341.3118 418.12076L342.59305 418.12076L342.59305 419.19888Q343.04617 418.55826 343.6165 418.24576Q344.1868 417.93326 344.9993 417.93326Q346.0618 417.93326 346.8743 418.48013Q347.6868 419.027 348.10086 420.0192Q348.51492 421.01138 348.51492 422.19888Q348.51492 423.48013 348.054 424.49576Q347.59305 425.51138 346.72586 426.05826Q345.85867 426.60513 344.88992 426.60513Q344.1868 426.60513 343.6321 426.30826Q343.07742 426.01138 342.71805 425.55826L342.71805 429.60513L341.3118 429.60513ZM342.57742 422.30826Q342.57742 423.91763 343.22586 424.68326Q343.8743 425.44888 344.79617 425.44888Q345.73367 425.44888 346.40555 424.652Q347.07742 423.85513 347.07742 422.19888Q347.07742 420.60513 346.42117 419.81607Q345.76492 419.027 344.85867 419.027Q343.96805 419.027 343.27274 419.87076Q342.57742 420.7145 342.57742 422.30826ZM355.8743 423.74576L357.32742 423.91763Q356.98367 425.19888 356.054 425.902Q355.1243 426.60513 353.6868 426.60513Q351.85867 426.60513 350.79617 425.48013Q349.73367 424.35513 349.73367 422.3395Q349.73367 420.24576 350.8118 419.0895Q351.88992 417.93326 353.60867 417.93326Q355.26492 417.93326 356.3196 419.06607Q357.3743 420.19888 357.3743 422.24576Q357.3743 422.37076 357.3743 422.62076L351.1868 422.62076Q351.26492 423.99576 351.96024 424.72232Q352.65555 425.44888 353.6868 425.44888Q354.46805 425.44888 355.01492 425.04263Q355.5618 424.63638 355.8743 423.74576ZM351.26492 421.4645L355.88992 421.4645Q355.79617 420.41763 355.35867 419.902Q354.6868 419.0895 353.6243 419.0895Q352.65555 419.0895 351.9915 419.73795Q351.32742 420.38638 351.26492 421.4645ZM359.09305 426.41763L359.09305 418.12076L360.35867 418.12076L360.35867 419.37076Q360.84305 418.49576 361.2493 418.2145Q361.65555 417.93326 362.15555 417.93326Q362.85867 417.93326 363.59305 418.38638L363.10867 419.68326Q362.59305 419.38638 362.07742 419.38638Q361.6243 419.38638 361.2571 419.65982Q360.88992 419.93326 360.73367 420.43326Q360.4993 421.18326 360.4993 422.07388L360.4993 426.41763L359.09305 426.41763ZM369.84305 425.38638Q369.0618 426.05826 368.34305 426.3317Q367.6243 426.60513 366.79617 426.60513Q365.42117 426.60513 364.6868 425.93326Q363.95242 425.26138 363.95242 424.23013Q363.95242 423.62076 364.23367 423.11295Q364.51492 422.60513 364.96024 422.30045Q365.40555 421.99576 365.96805 421.8395Q366.38992 421.73013 367.21805 421.63638Q368.92117 421.43326 369.73367 421.152Q369.73367 420.85513 369.73367 420.777Q369.73367 419.91763 369.34305 419.57388Q368.79617 419.0895 367.73367 419.0895Q366.7493 419.0895 366.27274 419.44107Q365.79617 419.79263 365.57742 420.66763L364.20242 420.48013Q364.38992 419.60513 364.8196 419.05826Q365.2493 418.51138 366.0618 418.22232Q366.8743 417.93326 367.9368 417.93326Q368.9993 417.93326 369.66336 418.18326Q370.32742 418.43326 370.63992 418.80826Q370.95242 419.18326 371.07742 419.76138Q371.15555 420.12076 371.15555 421.05826L371.15555 422.93326Q371.15555 424.902 371.2415 425.41763Q371.32742 425.93326 371.59305 426.41763L370.1243 426.41763Q369.90555 425.98013 369.84305 425.38638ZM369.73367 422.24576Q368.96805 422.55826 367.4368 422.777Q366.5618 422.902 366.20242 423.05826Q365.84305 423.2145 365.64774 423.5192Q365.45242 423.82388 365.45242 424.18326Q365.45242 424.74576 365.8821 425.12076Q366.3118 425.49576 367.1243 425.49576Q367.9368 425.49576 368.5696 425.1442Q369.20242 424.79263 369.4993 424.16763Q369.73367 423.69888 369.73367 422.76138L369.73367 422.24576ZM376.38992 425.152L376.59305 426.402Q375.9993 426.527 375.53055 426.527Q374.76492 426.527 374.34305 426.28482Q373.92117 426.04263 373.7493 425.6442Q373.57742 425.24576 373.57742 423.98013L373.57742 419.2145L372.54617 419.2145L372.54617 418.12076L373.57742 418.12076L373.57742 416.05826L374.98367 415.2145L374.98367 418.12076L376.38992 418.12076L376.38992 419.2145L374.98367 419.2145L374.98367 424.05826Q374.98367 424.66763 375.054 424.8395Q375.1243 425.01138 375.29617 425.11295Q375.46805 425.2145 375.78055 425.2145Q376.01492 425.2145 376.38992 425.152ZM377.78055 416.57388L377.78055 414.9645L379.1868 414.9645L379.1868 416.57388L377.78055 416.57388ZM377.78055 426.41763L377.78055 418.12076L379.1868 418.12076L379.1868 426.41763L377.78055 426.41763ZM380.79617 422.26138Q380.79617 419.9645 382.07742 418.85513Q383.15555 417.93326 384.6868 417.93326Q386.40555 417.93326 387.4915 419.05045Q388.57742 420.16763 388.57742 422.152Q388.57742 423.74576 388.09305 424.66763Q387.60867 425.5895 386.6946 426.09732Q385.78055 426.60513 384.6868 426.60513Q382.95242 426.60513 381.8743 425.48795Q380.79617 424.37076 380.79617 422.26138ZM382.2493 422.26138Q382.2493 423.85513 382.9446 424.652Q383.63992 425.44888 384.6868 425.44888Q385.73367 425.44888 386.429 424.652Q387.1243 423.85513 387.1243 422.2145Q387.1243 420.68326 386.429 419.88638Q385.73367 419.0895 384.6868 419.0895Q383.63992 419.0895 382.9446 419.87857Q382.2493 420.66763 382.2493 422.26138ZM390.23367 426.41763L390.23367 418.12076L391.4993 418.12076L391.4993 419.29263Q392.40555 417.93326 394.13992 417.93326Q394.88992 417.93326 395.51492 418.19888Q396.13992 418.4645 396.45242 418.902Q396.76492 419.3395 396.88992 419.94888Q396.96805 420.3395 396.96805 421.30826L396.96805 426.41763L395.5618 426.41763L395.5618 421.37076Q395.5618 420.51138 395.39774 420.0817Q395.23367 419.652 394.8196 419.402Q394.40555 419.152 393.84305 419.152Q392.9368 419.152 392.28836 419.72232Q391.63992 420.29263 391.63992 421.88638L391.63992 426.41763L390.23367 426.41763ZM398.5618 423.93326L399.95242 423.7145Q400.0618 424.55826 400.60086 425.00357Q401.13992 425.44888 402.09305 425.44888Q403.0618 425.44888 403.53055 425.05045Q403.9993 424.652 403.9993 424.12076Q403.9993 423.652 403.59305 423.37076Q403.29617 423.18326 402.15555 422.902Q400.60867 422.51138 400.0071 422.22232Q399.40555 421.93326 399.10086 421.43326Q398.79617 420.93326 398.79617 420.32388Q398.79617 419.76138 399.04617 419.29263Q399.29617 418.82388 399.73367 418.51138Q400.0618 418.26138 400.6321 418.09732Q401.20242 417.93326 401.84305 417.93326Q402.82742 417.93326 403.5618 418.2145Q404.29617 418.49576 404.64774 418.97232Q404.9993 419.44888 405.13992 420.26138L403.76492 420.44888Q403.67117 419.80826 403.21805 419.44888Q402.76492 419.0895 401.95242 419.0895Q400.98367 419.0895 400.5696 419.40982Q400.15555 419.73013 400.15555 420.152Q400.15555 420.43326 400.32742 420.652Q400.4993 420.87076 400.85867 421.027Q401.07742 421.10513 402.10867 421.38638Q403.59305 421.777 404.1868 422.03482Q404.78055 422.29263 405.1165 422.777Q405.45242 423.26138 405.45242 423.98013Q405.45242 424.68326 405.03836 425.30045Q404.6243 425.91763 403.85086 426.26138Q403.07742 426.60513 402.10867 426.60513Q400.48367 426.60513 399.63992 425.93326Q398.79617 425.26138 398.5618 423.93326Z" fill-rule="nonzero" fill="#000000"></path><path d="M269.80142 420.55655L300.44708 420.55655" fill-rule="evenodd" stroke="#073763" stroke-width="2.0" stroke-linejoin="round" stroke-linecap="butt"></path><path d="M300.44708 423.86002L309.5233 420.55655L300.44708 417.25308Z" fill-rule="evenodd" fill="#073763" stroke="#073763" stroke-width="2.0" stroke-linecap="butt"></path><path d="M213.12878 424.12305L213.12878 424.12305C213.12878 419.6624 217.06438 416.04636 221.9192 416.04636L221.9192 416.04636C226.77402 416.04636 230.70961 419.6624 230.70961 424.12305L230.70961 424.12305C230.70961 428.58368 226.77402 432.19974 221.9192 432.19974L221.9192 432.19974C217.06438 432.19974 213.12878 428.58368 213.12878 424.12305Z" fill-rule="nonzero" stroke="#073763" stroke-width="2.0" stroke-linejoin="round" stroke-linecap="butt"></path><path d="M228.13496 418.412L262.5511 418.412" fill-rule="nonzero" stroke="#073763" stroke-width="2.0" stroke-linejoin="round" stroke-linecap="butt"></path><path d="M262.0543 418.33255C262.0543 420.02087 261.7073 423.81158 260.06412 423.05594C259.01654 422.5742 260.05832 419.83185 258.90268 420.0083C257.3984 420.23795 257.11603 423.68253 255.75209 423.05594C254.69057 422.56827 255.21953 419.8163 254.09361 420.16113C252.82526 420.5496 253.43228 423.2255 252.10344 423.3607C249.86601 423.58835 248.18137 421.14075 245.96658 420.77066C244.83493 420.58157 244.91272 422.74686 243.97641 423.3607C242.36835 424.41495 240.10452 420.87323 238.3376 421.68494C235.92224 422.7946 233.57442 424.57974 230.87396 424.57974" fill-rule="evenodd" stroke="#073763" stroke-width="2.0" stroke-linejoin="round" stroke-linecap="butt"></path><path d="M233.19583 419.85638L253.09753 419.85638" fill-rule="nonzero" stroke="#cccccc" stroke-width="1.0" stroke-linejoin="round" stroke-linecap="butt"></path><path d="M219.18347 424.12305L219.18347 424.12305C219.18347 422.73483 220.4083 421.60947 221.9192 421.60947L221.9192 421.60947C223.4301 421.60947 224.65492 422.73483 224.65492 424.12305L224.65492 424.12305C224.65492 425.5113 223.4301 426.63666 221.9192 426.63666L221.9192 426.63666C220.4083 426.63666 219.18347 425.5113 219.18347 424.12305Z" fill-rule="nonzero" stroke="#073763" stroke-width="2.0" stroke-linejoin="round" stroke-linecap="butt"></path><path d="M226.2482 412.2767L226.2482 403.68295L227.38882 403.68295L227.38882 407.94858L231.65445 403.68295L233.20132 403.68295L229.59195 407.16733L233.35757 412.2767L231.85757 412.2767L228.79507 407.93295L227.38882 409.29233L227.38882 412.2767L226.2482 412.2767ZM238.42007 410.2767L239.51382 410.4017Q239.26382 411.35483 238.5607 411.88608Q237.85757 412.41733 236.77945 412.41733Q235.42007 412.41733 234.61539 411.57358Q233.8107 410.72983 233.8107 409.2142Q233.8107 407.6517 234.6232 406.78452Q235.4357 405.91733 236.71695 405.91733Q237.96695 405.91733 238.75601 406.76108Q239.54507 407.60483 239.54507 409.1517Q239.54507 409.24545 239.54507 409.43295L234.90445 409.43295Q234.96695 410.4642 235.48257 411.00327Q235.9982 411.54233 236.77945 411.54233Q237.35757 411.54233 237.77164 411.23764Q238.1857 410.93295 238.42007 410.2767ZM234.96695 408.57358L238.4357 408.57358Q238.3732 407.7767 238.04507 407.38608Q237.52945 406.7767 236.73257 406.7767Q235.9982 406.7767 235.50601 407.26108Q235.01382 407.74545 234.96695 408.57358ZM240.79507 414.66733L240.67007 413.68295Q241.01382 413.7767 241.27945 413.7767Q241.6232 413.7767 241.83414 413.65952Q242.04507 413.54233 242.1857 413.3392Q242.27945 413.16733 242.51382 412.54233Q242.52945 412.4642 242.60757 412.29233L240.23257 406.05795L241.3732 406.05795L242.67007 409.6517Q242.92007 410.3392 243.1232 411.10483Q243.3107 410.37045 243.5607 409.68295L244.88882 406.05795L245.9357 406.05795L243.57632 412.38608Q243.1857 413.4017 242.98257 413.79233Q242.70132 414.32358 242.33414 414.56577Q241.96695 414.80795 241.46695 414.80795Q241.17007 414.80795 240.79507 414.66733Z" fill-rule="nonzero" fill="#000000"></path><path d="M601.6545 304.32916L671.33 304.32916L671.33 369.51624C636.49225 369.51624 636.49225 394.35373 601.6545 380.24152Z" fill-rule="nonzero" fill="#f4cccc" stroke="#073763" stroke-width="2.0" stroke-linejoin="round" stroke-linecap="butt"></path><path d="M619.7326 333.9073L619.7326 325.31354L622.9826 325.31354Q623.82635 325.31354 624.2795 325.39166Q624.9201 325.50104 625.3498 325.7979Q625.7795 326.0948 626.0373 326.62604Q626.2951 327.1573 626.2951 327.7979Q626.2951 328.89166 625.5998 329.64948Q624.9045 330.4073 623.07635 330.4073L620.8732 330.4073L620.8732 333.9073L619.7326 333.9073ZM620.8732 329.4073L623.092 329.4073Q624.20135 329.4073 624.6623 328.99323Q625.1232 328.57916 625.1232 327.82916Q625.1232 327.2979 624.8498 326.9151Q624.57635 326.5323 624.13885 326.4073Q623.842 326.32916 623.07635 326.32916L620.8732 326.32916L620.8732 329.4073ZM631.6701 333.14166Q631.07635 333.64166 630.5373 333.8448Q629.9982 334.0479 629.3732 334.0479Q628.342 334.0479 627.7951 333.5479Q627.2482 333.0479 627.2482 332.26666Q627.2482 331.81354 627.45135 331.43073Q627.6545 331.0479 627.9982 330.82135Q628.342 330.5948 628.76385 330.4854Q629.0607 330.39166 629.70135 330.31354Q630.967 330.1729 631.57635 329.95416Q631.57635 329.7354 631.57635 329.68854Q631.57635 329.0323 631.2795 328.76666Q630.8732 328.4229 630.07635 328.4229Q629.342 328.4229 628.9826 328.68073Q628.6232 328.93854 628.45135 329.5948L627.4201 329.45416Q627.5607 328.7979 627.88885 328.39166Q628.217 327.9854 628.82635 327.76666Q629.4357 327.5479 630.2326 327.5479Q631.0295 327.5479 631.5295 327.7354Q632.0295 327.9229 632.26385 328.20416Q632.4982 328.4854 632.592 328.9229Q632.63885 329.18854 632.63885 329.89166L632.63885 331.2979Q632.63885 332.76666 632.70917 333.1573Q632.7795 333.5479 632.9826 333.9073L631.8732 333.9073Q631.717 333.57916 631.6701 333.14166ZM631.57635 330.7823Q630.9982 331.01666 629.8576 331.18854Q629.20135 331.2823 628.9357 331.39948Q628.6701 331.51666 628.52167 331.7354Q628.3732 331.95416 628.3732 332.2354Q628.3732 332.6573 628.69354 332.93854Q629.01385 333.2198 629.6232 333.2198Q630.2326 333.2198 630.70917 332.95416Q631.1857 332.68854 631.4045 332.2198Q631.57635 331.8604 631.57635 331.1729L631.57635 330.7823ZM634.26385 333.9073L634.26385 327.68854L635.217 327.68854L635.217 328.62604Q635.57635 327.9698 635.88104 327.75885Q636.1857 327.5479 636.5607 327.5479Q637.092 327.5479 637.63885 327.87604L637.2795 328.8604Q636.88885 328.62604 636.51385 328.62604Q636.1545 328.62604 635.88104 328.83698Q635.6076 329.0479 635.4982 329.4229Q635.3107 329.9854 635.3107 330.64166L635.3107 333.9073L634.26385 333.9073ZM642.5295 331.9073L643.6232 332.0323Q643.3732 332.9854 642.6701 333.51666Q641.967 334.0479 640.88885 334.0479Q639.5295 334.0479 638.7248 333.20416Q637.9201 332.3604 637.9201 330.8448Q637.9201 329.2823 638.7326 328.4151Q639.5451 327.5479 640.82635 327.5479Q642.07635 327.5479 642.8654 328.39166Q643.6545 329.2354 643.6545 330.7823Q643.6545 330.87604 643.6545 331.06354L639.01385 331.06354Q639.07635 332.0948 639.592 332.63385Q640.1076 333.1729 640.88885 333.1729Q641.467 333.1729 641.88104 332.86823Q642.2951 332.56354 642.5295 331.9073ZM639.07635 330.20416L642.5451 330.20416Q642.4826 329.4073 642.1545 329.01666Q641.63885 328.4073 640.842 328.4073Q640.1076 328.4073 639.6154 328.89166Q639.1232 329.37604 639.07635 330.20416ZM644.95135 333.9073L644.95135 327.68854L645.88885 327.68854L645.88885 328.56354Q646.57635 327.5479 647.8732 327.5479Q648.4357 327.5479 648.9123 327.75104Q649.38885 327.95416 649.6232 328.2823Q649.8576 328.6104 649.95135 329.0479Q649.9982 329.3448 649.9982 330.07916L649.9982 333.9073L648.95135 333.9073L648.95135 330.12604Q648.95135 329.4698 648.82635 329.1573Q648.70135 328.8448 648.38885 328.64948Q648.07635 328.45416 647.6545 328.45416Q646.9826 328.45416 646.4904 328.88385Q645.9982 329.31354 645.9982 330.50104L645.9982 333.9073L644.95135 333.9073ZM653.9201 332.9698L654.07635 333.89166Q653.6232 333.9854 653.2795 333.9854Q652.70135 333.9854 652.38885 333.80573Q652.07635 333.62604 651.94354 333.32916Q651.8107 333.0323 651.8107 332.07916L651.8107 328.50104L651.0451 328.50104L651.0451 327.68854L651.8107 327.68854L651.8107 326.14166L652.8576 325.51666L652.8576 327.68854L653.9201 327.68854L653.9201 328.50104L652.8576 328.50104L652.8576 332.14166Q652.8576 332.5948 652.9123 332.7198Q652.967 332.8448 653.092 332.9229Q653.217 333.00104 653.45135 333.00104Q653.63885 333.00104 653.9201 332.9698Z" fill-rule="nonzero" fill="#000000"></path><path d="M618.3107 347.9073L618.3107 347.12604Q617.717 348.0479 616.57635 348.0479Q615.82635 348.0479 615.20135 347.63385Q614.57635 347.2198 614.2326 346.4854Q613.88885 345.75104 613.88885 344.7979Q613.88885 343.87604 614.20135 343.1104Q614.51385 342.3448 615.13885 341.94635Q615.76385 341.5479 616.5295 341.5479Q617.092 341.5479 617.5295 341.7823Q617.967 342.01666 618.2482 342.39166L618.2482 339.31354L619.2951 339.31354L619.2951 347.9073L618.3107 347.9073ZM614.9826 344.7979Q614.9826 346.00104 615.4826 346.58698Q615.9826 347.1729 616.6701 347.1729Q617.3576 347.1729 617.842 346.6104Q618.32635 346.0479 618.32635 344.89166Q618.32635 343.6104 617.83417 343.01666Q617.342 342.4229 616.6232 342.4229Q615.9201 342.4229 615.45135 342.99323Q614.9826 343.56354 614.9826 344.7979ZM620.95135 340.5323L620.95135 339.31354L622.01385 339.31354L622.01385 340.5323L620.95135 340.5323ZM620.95135 347.9073L620.95135 341.68854L622.01385 341.68854L622.01385 347.9073L620.95135 347.9073ZM623.592 347.9073L623.592 341.68854L624.5451 341.68854L624.5451 342.62604Q624.9045 341.9698 625.20917 341.75885Q625.51385 341.5479 625.88885 341.5479Q626.4201 341.5479 626.967 341.87604L626.6076 342.8604Q626.217 342.62604 625.842 342.62604Q625.4826 342.62604 625.20917 342.83698Q624.9357 343.0479 624.82635 343.4229Q624.63885 343.9854 624.63885 344.64166L624.63885 347.9073L623.592 347.9073ZM631.8576 345.9073L632.95135 346.0323Q632.70135 346.9854 631.9982 347.51666Q631.2951 348.0479 630.217 348.0479Q628.8576 348.0479 628.0529 347.20416Q627.2482 346.3604 627.2482 344.8448Q627.2482 343.2823 628.0607 342.4151Q628.8732 341.5479 630.1545 341.5479Q631.4045 341.5479 632.19354 342.39166Q632.9826 343.2354 632.9826 344.7823Q632.9826 344.87604 632.9826 345.06354L628.342 345.06354Q628.4045 346.0948 628.9201 346.63385Q629.4357 347.1729 630.217 347.1729Q630.7951 347.1729 631.20917 346.86823Q631.6232 346.56354 631.8576 345.9073ZM628.4045 344.20416L631.8732 344.20416Q631.8107 343.4073 631.4826 343.01666Q630.967 342.4073 630.1701 342.4073Q629.4357 342.4073 628.94354 342.89166Q628.45135 343.37604 628.4045 344.20416ZM638.342 345.62604L639.3732 345.76666Q639.20135 346.82916 638.4982 347.43854Q637.7951 348.0479 636.7795 348.0479Q635.4982 348.0479 634.7248 347.21198Q633.95135 346.37604 633.95135 344.81354Q633.95135 343.81354 634.2873 343.05573Q634.6232 342.2979 635.3029 341.9229Q635.9826 341.5479 636.7951 341.5479Q637.7951 341.5479 638.44354 342.05573Q639.092 342.56354 639.2795 343.51666L638.2482 343.6729Q638.1076 343.0479 637.7326 342.7276Q637.3576 342.4073 636.82635 342.4073Q636.0295 342.4073 635.5295 342.9776Q635.0295 343.5479 635.0295 344.7823Q635.0295 346.0479 635.51385 346.6104Q635.9982 347.1729 636.76385 347.1729Q637.38885 347.1729 637.8029 346.7979Q638.217 346.4229 638.342 345.62604ZM642.57635 346.9698L642.7326 347.89166Q642.2795 347.9854 641.9357 347.9854Q641.3576 347.9854 641.0451 347.80573Q640.7326 347.62604 640.5998 347.32916Q640.467 347.0323 640.467 346.07916L640.467 342.50104L639.70135 342.50104L639.70135 341.68854L640.467 341.68854L640.467 340.14166L641.51385 339.51666L641.51385 341.68854L642.57635 341.68854L642.57635 342.50104L641.51385 342.50104L641.51385 346.14166Q641.51385 346.5948 641.56854 346.7198Q641.6232 346.8448 641.7482 346.9229Q641.8732 347.00104 642.1076 347.00104Q642.2951 347.00104 642.57635 346.9698ZM643.2326 344.7979Q643.2326 343.06354 644.1857 342.2354Q644.9826 341.5479 646.13885 341.5479Q647.4201 341.5479 648.2404 342.38385Q649.0607 343.2198 649.0607 344.70416Q649.0607 345.9073 648.70135 346.5948Q648.342 347.2823 647.64667 347.6651Q646.95135 348.0479 646.13885 348.0479Q644.842 348.0479 644.0373 347.21198Q643.2326 346.37604 643.2326 344.7979ZM644.3107 344.7979Q644.3107 345.9854 644.83417 346.57916Q645.3576 347.1729 646.13885 347.1729Q646.9357 347.1729 647.45135 346.57916Q647.967 345.9854 647.967 344.76666Q647.967 343.6104 647.44354 343.01666Q646.9201 342.4229 646.13885 342.4229Q645.3576 342.4229 644.83417 343.00885Q644.3107 343.5948 644.3107 344.7979ZM650.2795 347.9073L650.2795 341.68854L651.2326 341.68854L651.2326 342.62604Q651.592 341.9698 651.89667 341.75885Q652.20135 341.5479 652.57635 341.5479Q653.1076 341.5479 653.6545 341.87604L653.2951 342.8604Q652.9045 342.62604 652.5295 342.62604Q652.1701 342.62604 651.89667 342.83698Q651.6232 343.0479 651.51385 343.4229Q651.32635 343.9854 651.32635 344.64166L651.32635 347.9073L650.2795 347.9073ZM654.2482 350.2979L654.1232 349.31354Q654.467 349.4073 654.7326 349.4073Q655.07635 349.4073 655.2873 349.2901Q655.4982 349.1729 655.63885 348.9698Q655.7326 348.7979 655.967 348.1729Q655.9826 348.0948 656.0607 347.9229L653.6857 341.68854L654.82635 341.68854L656.1232 345.2823Q656.3732 345.9698 656.57635 346.7354Q656.76385 346.00104 657.01385 345.31354L658.342 341.68854L659.38885 341.68854L657.0295 348.01666Q656.63885 349.0323 656.4357 349.4229Q656.1545 349.95416 655.7873 350.19635Q655.4201 350.43854 654.9201 350.43854Q654.6232 350.43854 654.2482 350.2979Z" fill-rule="nonzero" fill="#000000"></path><path d="M605.7585 369.19592L621.72107 369.19592L621.72107 379.3356L605.7585 379.3356Z" fill-rule="nonzero" fill="#bf9000" stroke="#073763" stroke-width="2.0" stroke-linejoin="round" stroke-linecap="butt"></path><path d="M612.6238 372.7909L612.6238 372.7909C612.6238 372.074 613.20215 371.49286 613.91565 371.49286L613.91565 371.49286C614.2583 371.49286 614.5869 371.6296 614.82916 371.87305C615.0714 372.1165 615.2075 372.44662 615.2075 372.7909L615.2075 372.7909C615.2075 373.50778 614.62915 374.08893 613.91565 374.08893L613.91565 374.08893C613.20215 374.08893 612.6238 373.50778 612.6238 372.7909Z" fill-rule="nonzero" fill="#000000" stroke="#000000" stroke-width="2.0" stroke-linejoin="round" stroke-linecap="butt"></path><path d="M612.8309 376.7426L613.85785 372.02542L614.8848 376.7426Z" fill-rule="nonzero" fill="#000000" stroke="#000000" stroke-width="2.0" stroke-linejoin="round" stroke-linecap="butt"></path><path d="M606.94794 369.1743L606.94794 369.1743C606.94794 364.00156 609.96875 359.80826 613.6952 359.80826C617.4216 359.80826 620.4424 364.00156 620.4424 369.1743L617.0688 369.1743C617.0688 365.86475 615.55835 363.18185 613.6952 363.18185C611.832 363.18185 610.32153 365.86475 610.32153 369.1743Z" fill-rule="nonzero" fill="#bf9000" stroke="#073763" stroke-width="2.0" stroke-linejoin="round" stroke-linecap="butt"></path><path d="M597.67224 496.7347C627.88464 506.97784 627.88464 486.49155 658.0938 486.49155L658.0938 433.24573L597.67224 433.24573ZM602.65027 433.24573L602.65027 426.34274L662.6591 426.34274L662.6591 479.92258C660.3781 479.92258 658.0938 480.2937 658.0938 480.2937L658.0938 433.24573ZM607.3293 426.34274L607.3293 419.60675L667.8581 419.60675L667.8581 473.0196C665.2586 473.0196 662.6591 473.2979 662.6591 473.2979L662.6591 426.34274Z" fill-rule="nonzero" fill="#f4cccc"></path><path d="M597.67224 433.24573L658.0938 433.24573L658.0938 486.49155C627.88464 486.49155 627.88464 506.97784 597.67224 496.7347ZM602.65027 433.24573L602.65027 426.34274L662.6591 426.34274L662.6591 479.92258C660.3781 479.92258 658.0938 480.2937 658.0938 480.2937M607.3293 426.34274L607.3293 419.60675L667.8581 419.60675L667.8581 473.0196C665.2586 473.0196 662.6591 473.2979 662.6591 473.2979" fill-rule="nonzero" stroke="#073763" stroke-width="2.0" stroke-linejoin="round" stroke-linecap="butt"></path><path d="M616.18787 468.9801L616.18787 460.38635L621.98474 460.38635L621.98474 461.40198L617.3285 461.40198L617.3285 464.05823L621.35974 464.05823L621.35974 465.07385L617.3285 465.07385L617.3285 468.9801L616.18787 468.9801ZM623.3285 461.6051L623.3285 460.38635L624.391 460.38635L624.391 461.6051L623.3285 461.6051ZM623.3285 468.9801L623.3285 462.76135L624.391 462.76135L624.391 468.9801L623.3285 468.9801ZM625.9691 468.9801L625.9691 460.38635L627.0316 460.38635L627.0316 468.9801L625.9691 468.9801ZM632.92224 466.9801L634.016 467.1051Q633.766 468.05823 633.06287 468.58948Q632.35974 469.12073 631.2816 469.12073Q629.92224 469.12073 629.11755 468.27698Q628.31287 467.43323 628.31287 465.9176Q628.31287 464.3551 629.12537 463.4879Q629.93787 462.62073 631.2191 462.62073Q632.4691 462.62073 633.2582 463.46448Q634.04724 464.30823 634.04724 465.8551Q634.04724 465.94885 634.04724 466.13635L629.4066 466.13635Q629.4691 467.1676 629.98474 467.70667Q630.50037 468.24573 631.2816 468.24573Q631.85974 468.24573 632.2738 467.94104Q632.68787 467.63635 632.92224 466.9801ZM629.4691 465.27698L632.93787 465.27698Q632.87537 464.4801 632.54724 464.08948Q632.0316 463.4801 631.23474 463.4801Q630.50037 463.4801 630.0082 463.96448Q629.516 464.44885 629.4691 465.27698ZM634.92224 467.12073L635.9535 466.96448Q636.04724 467.58948 636.4457 467.9176Q636.8441 468.24573 637.5785 468.24573Q638.29724 468.24573 638.6488 467.95667Q639.00037 467.6676 639.00037 467.26135Q639.00037 466.90198 638.68787 466.69885Q638.4691 466.55823 637.60974 466.33948Q636.4535 466.0426 636.0082 465.83167Q635.56287 465.62073 635.3285 465.24573Q635.0941 464.87073 635.0941 464.40198Q635.0941 463.99573 635.2816 463.63635Q635.4691 463.27698 635.79724 463.0426Q636.04724 462.87073 636.4691 462.74573Q636.891 462.62073 637.391 462.62073Q638.10974 462.62073 638.6644 462.83167Q639.2191 463.0426 639.48474 463.40198Q639.75037 463.76135 639.8441 464.3551L638.81287 464.49573Q638.75037 464.02698 638.4144 463.75354Q638.0785 463.4801 637.4535 463.4801Q636.73474 463.4801 636.42224 463.7223Q636.10974 463.96448 636.10974 464.2926Q636.10974 464.49573 636.23474 464.65198Q636.37537 464.82385 636.641 464.93323Q636.79724 464.99573 637.5785 465.19885Q638.7035 465.51135 639.141 465.69885Q639.5785 465.88635 639.8285 466.24573Q640.0785 466.6051 640.0785 467.15198Q640.0785 467.68323 639.7738 468.14417Q639.4691 468.6051 638.891 468.8629Q638.31287 469.12073 637.5785 469.12073Q636.35974 469.12073 635.7269 468.6129Q635.0941 468.1051 634.92224 467.12073Z" fill-rule="nonzero" fill="#000000"></path><path d="M601.1219 485.01288L617.08496 485.01288L617.08496 495.1514L601.1219 495.1514Z" fill-rule="nonzero" fill="#bf9000" stroke="#073763" stroke-width="2.0" stroke-linejoin="round" stroke-linecap="butt"></path><path d="M607.9872 488.60815L607.9872 488.60815C607.9872 487.89108 608.5654 487.3098 609.27875 487.3098L609.27875 487.3098C609.6213 487.3098 609.9498 487.4466 610.192 487.6901C610.43427 487.93356 610.5703 488.2638 610.5703 488.60815L610.5703 488.60815C610.5703 489.3252 609.99207 489.9065 609.27875 489.9065L609.27875 489.9065C608.5654 489.9065 607.9872 489.3252 607.9872 488.60815Z" fill-rule="nonzero" fill="#000000" stroke="#000000" stroke-width="2.0" stroke-linejoin="round" stroke-linecap="butt"></path><path d="M608.1943 492.55957L609.22125 487.84238L610.2482 492.55957Z" fill-rule="nonzero" fill="#000000" stroke="#000000" stroke-width="2.0" stroke-linejoin="round" stroke-linecap="butt"></path><path d="M602.31134 484.99124L602.31134 484.99124C602.31134 479.8185 605.33215 475.6252 609.05853 475.6252C612.785 475.6252 615.8058 479.8185 615.8058 484.99124L612.4322 484.99124C612.4322 481.6817 610.92175 478.9988 609.05853 478.9988C607.1954 478.9988 605.68494 481.6817 605.68494 484.99124Z" fill-rule="nonzero" fill="#bf9000" stroke="#073763" stroke-width="2.0" stroke-linejoin="round" stroke-linecap="butt"></path><path d="M636.20306 380.24152L636.96954 407.6163" fill-rule="evenodd" stroke="#073763" stroke-width="2.0" stroke-linejoin="round" stroke-linecap="butt" stroke-dasharray="8.0,6.0"></path><path d="M633.6674 407.70874L637.22363 416.68893L640.2717 407.52383Z" fill-rule="evenodd" fill="#073763" stroke="#073763" stroke-width="2.0" stroke-linecap="butt"></path><path d="M213.06094 334.64304L260.2918 334.64304L260.2918 374.83826C236.67638 374.83826 236.67638 390.15335 213.06094 381.4516Z" fill-rule="nonzero" fill="#cfe2f3" stroke="#073763" stroke-width="2.0" stroke-linejoin="round" stroke-linecap="butt"></path><path d="M226.99844 360.2368L226.99844 350.9243L233.2797 350.9243L233.2797 352.03366L228.23282 352.03366L228.23282 354.90866L232.60782 354.90866L232.60782 356.0024L228.23282 356.0024L228.23282 360.2368L226.99844 360.2368ZM234.93594 352.2524L234.93594 350.9243L236.07657 350.9243L236.07657 352.2524L234.93594 352.2524ZM234.93594 360.2368L234.93594 353.5024L236.07657 353.5024L236.07657 360.2368L234.93594 360.2368ZM237.85782 360.2368L237.85782 350.9243L238.99844 350.9243L238.99844 360.2368L237.85782 360.2368ZM245.4672 358.0649L246.6547 358.20554Q246.37344 359.2524 245.61563 359.82272Q244.85782 360.39304 243.68594 360.39304Q242.20157 360.39304 241.33438 359.47897Q240.4672 358.5649 240.4672 356.9243Q240.4672 355.22116 241.35 354.28366Q242.23282 353.34616 243.62344 353.34616Q244.98282 353.34616 245.83438 354.26804Q246.68594 355.1899 246.68594 356.84616Q246.68594 356.95554 246.68594 357.15866L241.6547 357.15866Q241.7172 358.26804 242.2797 358.8618Q242.8422 359.45554 243.68594 359.45554Q244.32657 359.45554 244.77188 359.1196Q245.2172 358.78366 245.4672 358.0649ZM241.7172 356.22116L245.48282 356.22116Q245.4047 355.3618 245.04532 354.9399Q244.49844 354.28366 243.63907 354.28366Q242.8422 354.28366 242.31094 354.8071Q241.7797 355.33054 241.7172 356.22116Z" fill-rule="nonzero" fill="#000000"></path><path d="M436.11423 352.68253L591.38983 352.68253" fill-rule="evenodd" stroke="#073763" stroke-width="2.0" stroke-linejoin="round" stroke-linecap="butt"></path><path d="M436.11423 349.37906L427.03802 352.68253L436.11423 355.986Z" fill-rule="evenodd" fill="#073763" stroke="#073763" stroke-width="2.0" stroke-linecap="butt"></path><path d="M591.38983 355.986L600.466 352.68253L591.38983 349.37906Z" fill-rule="evenodd" fill="#073763" stroke="#073763" stroke-width="2.0" stroke-linecap="butt"></path><path d="M436.11423 464.50708L584.64966 464.50708" fill-rule="evenodd" stroke="#073763" stroke-width="2.0" stroke-linejoin="round" stroke-linecap="butt"></path><path d="M436.11423 461.20364L427.03802 464.50708L436.11423 467.81055Z" fill-rule="evenodd" fill="#073763" stroke="#073763" stroke-width="2.0" stroke-linecap="butt"></path><path d="M584.64966 467.81055L593.7258 464.50708L584.64966 461.20364Z" fill-rule="evenodd" fill="#073763" stroke="#073763" stroke-width="2.0" stroke-linecap="butt"></path><path d="M273.1269 359.70352L300.2135 359.70352" fill-rule="evenodd" stroke="#073763" stroke-width="2.0" stroke-linejoin="round" stroke-linecap="butt"></path><path d="M273.1269 356.4001L264.0507 359.70352L273.1269 363.007Z" fill-rule="evenodd" fill="#073763" stroke="#073763" stroke-width="2.0" stroke-linecap="butt"></path><path d="M300.2135 363.007L309.2897 359.70352L300.2135 356.4001Z" fill-rule="evenodd" fill="#073763" stroke="#073763" stroke-width="2.0" stroke-linecap="butt"></path><path d="M429.35037 342.36343L429.35037 333.05093L435.63162 333.05093L435.63162 334.1603L430.58475 334.1603L430.58475 337.0353L434.95975 337.0353L434.95975 338.12906L430.58475 338.12906L430.58475 342.36343L429.35037 342.36343ZM437.28787 334.37906L437.28787 333.05093L438.4285 333.05093L438.4285 334.37906L437.28787 334.37906ZM437.28787 342.36343L437.28787 335.62906L438.4285 335.62906L438.4285 342.36343L437.28787 342.36343ZM440.20975 342.36343L440.20975 333.05093L441.35037 333.05093L441.35037 342.36343L440.20975 342.36343ZM447.81912 340.19156L449.00662 340.33218Q448.72537 341.37906 447.96756 341.94937Q447.20975 342.51968 446.03787 342.51968Q444.5535 342.51968 443.6863 341.60562Q442.81912 340.69156 442.81912 339.05093Q442.81912 337.3478 443.70193 336.4103Q444.58475 335.4728 445.97537 335.4728Q447.33475 335.4728 448.1863 336.39468Q449.03787 337.31656 449.03787 338.9728Q449.03787 339.08218 449.03787 339.2853L444.00662 339.2853Q444.06912 340.39468 444.63162 340.98843Q445.19412 341.58218 446.03787 341.58218Q446.6785 341.58218 447.1238 341.24625Q447.56912 340.9103 447.81912 340.19156ZM444.06912 338.3478L447.83475 338.3478Q447.75662 337.48843 447.39725 337.06656Q446.85037 336.4103 445.991 336.4103Q445.19412 336.4103 444.66287 336.93375Q444.13162 337.45718 444.06912 338.3478ZM454.45975 342.36343L454.45975 333.05093L457.97537 333.05093Q458.89725 333.05093 459.38162 333.14468Q460.06912 333.25406 460.53787 333.57437Q461.00662 333.89468 461.28787 334.4728Q461.56912 335.05093 461.56912 335.75406Q461.56912 336.94156 460.8113 337.76187Q460.0535 338.58218 458.08475 338.58218L455.69412 338.58218L455.69412 342.36343L454.45975 342.36343ZM455.69412 337.48843L458.10037 337.48843Q459.28787 337.48843 459.7957 337.04312Q460.3035 336.5978 460.3035 335.7853Q460.3035 335.20718 460.00662 334.79312Q459.70975 334.37906 459.22537 334.23843Q458.91287 334.1603 458.06912 334.1603L455.69412 334.1603L455.69412 337.48843ZM462.78787 338.98843Q462.78787 337.11343 463.81912 336.2228Q464.69412 335.4728 465.94412 335.4728Q467.33475 335.4728 468.21756 336.37906Q469.10037 337.2853 469.10037 338.89468Q469.10037 340.19156 468.70975 340.94156Q468.31912 341.69156 467.56912 342.10562Q466.81912 342.51968 465.94412 342.51968Q464.52225 342.51968 463.65506 341.61343Q462.78787 340.70718 462.78787 338.98843ZM463.95975 338.98843Q463.95975 340.2853 464.52225 340.93375Q465.08475 341.58218 465.94412 341.58218Q466.78787 341.58218 467.3582 340.93375Q467.9285 340.2853 467.9285 338.95718Q467.9285 337.70718 467.3582 337.05875Q466.78787 336.4103 465.94412 336.4103Q465.08475 336.4103 464.52225 337.05093Q463.95975 337.69156 463.95975 338.98843ZM470.616 334.37906L470.616 333.05093L471.75662 333.05093L471.75662 334.37906L470.616 334.37906ZM470.616 342.36343L470.616 335.62906L471.75662 335.62906L471.75662 342.36343L470.616 342.36343ZM473.58475 342.36343L473.58475 335.62906L474.616 335.62906L474.616 336.58218Q475.35037 335.4728 476.75662 335.4728Q477.366 335.4728 477.8738 335.69156Q478.38162 335.9103 478.63943 336.26187Q478.89725 336.61343 478.991 337.11343Q479.0535 337.42593 479.0535 338.2228L479.0535 342.36343L477.91287 342.36343L477.91287 338.26968Q477.91287 337.56656 477.78006 337.2228Q477.64725 336.87906 477.3113 336.66812Q476.97537 336.45718 476.52225 336.45718Q475.78787 336.45718 475.25662 336.91812Q474.72537 337.37906 474.72537 338.67593L474.72537 342.36343L473.58475 342.36343ZM483.491 341.3478L483.64725 342.3478Q483.16287 342.45718 482.78787 342.45718Q482.16287 342.45718 481.81912 342.25406Q481.47537 342.05093 481.33475 341.73062Q481.19412 341.4103 481.19412 340.39468L481.19412 336.50406L480.366 336.50406L480.366 335.62906L481.19412 335.62906L481.19412 333.95718L482.33475 333.26968L482.33475 335.62906L483.491 335.62906L483.491 336.50406L482.33475 336.50406L482.33475 340.45718Q482.33475 340.94156 482.39725 341.08218Q482.45975 341.2228 482.59256 341.30093Q482.72537 341.37906 482.97537 341.37906Q483.1785 341.37906 483.491 341.3478ZM489.3035 340.19156L490.491 340.33218Q490.20975 341.37906 489.45193 341.94937Q488.69412 342.51968 487.52225 342.51968Q486.03787 342.51968 485.1707 341.60562Q484.3035 340.69156 484.3035 339.05093Q484.3035 337.3478 485.1863 336.4103Q486.06912 335.4728 487.45975 335.4728Q488.81912 335.4728 489.6707 336.39468Q490.52225 337.31656 490.52225 338.9728Q490.52225 339.08218 490.52225 339.2853L485.491 339.2853Q485.5535 340.39468 486.116 340.98843Q486.6785 341.58218 487.52225 341.58218Q488.16287 341.58218 488.6082 341.24625Q489.0535 340.9103 489.3035 340.19156ZM485.5535 338.3478L489.31912 338.3478Q489.241 337.48843 488.88162 337.06656Q488.33475 336.4103 487.47537 336.4103Q486.6785 336.4103 486.14725 336.93375Q485.616 337.45718 485.5535 338.3478ZM492.10037 342.36343L492.10037 335.62906L493.13162 335.62906L493.13162 336.64468Q493.52225 335.92593 493.8582 335.69937Q494.19412 335.4728 494.58475 335.4728Q495.16287 335.4728 495.75662 335.83218L495.366 336.89468Q494.94412 336.64468 494.53787 336.64468Q494.16287 336.64468 493.8582 336.87125Q493.5535 337.0978 493.4285 337.50406Q493.241 338.11343 493.241 338.83218L493.241 342.36343L492.10037 342.36343Z" fill-rule="nonzero" fill="#000000"></path><path d="M430.78976 438.91193L430.78976 429.59943L437.5085 429.59943L437.5085 430.7088L432.02414 430.7088L432.02414 433.55255L437.16476 433.55255L437.16476 434.6463L432.02414 434.6463L432.02414 437.81818L437.72726 437.81818L437.72726 438.91193L430.78976 438.91193ZM439.5085 438.91193L439.5085 432.17755L440.53976 432.17755L440.53976 433.13068Q441.27414 432.0213 442.6804 432.0213Q443.28976 432.0213 443.79758 432.24005Q444.3054 432.4588 444.5632 432.81036Q444.821 433.16193 444.91476 433.66193Q444.97726 433.97443 444.97726 434.7713L444.97726 438.91193L443.83664 438.91193L443.83664 434.81818Q443.83664 434.11505 443.70383 433.7713Q443.571 433.42755 443.23508 433.2166Q442.89914 433.00568 442.446 433.00568Q441.71164 433.00568 441.1804 433.4666Q440.64914 433.92755 440.64914 435.22443L440.64914 438.91193L439.5085 438.91193ZM451.321 436.44318L452.446 436.5838Q452.27414 437.75568 451.5085 438.41193Q450.7429 439.06818 449.64914 439.06818Q448.2585 439.06818 447.42258 438.16193Q446.58664 437.25568 446.58664 435.56818Q446.58664 434.47443 446.946 433.6541Q447.3054 432.8338 448.03976 432.42755Q448.77414 432.0213 449.64914 432.0213Q450.7429 432.0213 451.446 432.576Q452.14914 433.13068 452.33664 434.1463L451.22726 434.31818Q451.071 433.6463 450.67258 433.30255Q450.27414 432.9588 449.696 432.9588Q448.83664 432.9588 448.29758 433.576Q447.7585 434.19318 447.7585 435.53693Q447.7585 436.8963 448.27414 437.5135Q448.78976 438.13068 449.6335 438.13068Q450.3054 438.13068 450.7585 437.7166Q451.21164 437.30255 451.321 436.44318ZM453.571 438.91193L453.571 432.17755L454.60226 432.17755L454.60226 433.19318Q454.9929 432.47443 455.32883 432.24786Q455.66476 432.0213 456.0554 432.0213Q456.6335 432.0213 457.22726 432.38068L456.83664 433.44318Q456.41476 433.19318 456.0085 433.19318Q455.6335 433.19318 455.32883 433.41974Q455.02414 433.6463 454.89914 434.05255Q454.71164 434.66193 454.71164 435.38068L454.71164 438.91193L453.571 438.91193ZM457.97726 441.50568L457.83664 440.44318Q458.21164 440.53693 458.4929 440.53693Q458.8835 440.53693 459.11008 440.41193Q459.33664 440.28693 459.47726 440.05255Q459.58664 439.88068 459.83664 439.2088Q459.8679 439.11505 459.9304 438.92755L457.3679 432.17755L458.60226 432.17755L460.0085 436.06818Q460.27414 436.81818 460.4929 437.63068Q460.696 436.84943 460.96164 436.09943L462.41476 432.17755L463.5554 432.17755L460.9929 439.0213Q460.571 440.13068 460.35226 440.55255Q460.03976 441.11505 459.64914 441.38068Q459.2585 441.6463 458.71164 441.6463Q458.3835 441.6463 457.97726 441.50568ZM464.696 441.49005L464.696 432.17755L465.72726 432.17755L465.72726 433.05255Q466.10226 432.53693 466.5632 432.2791Q467.02414 432.0213 467.696 432.0213Q468.5554 432.0213 469.21164 432.4666Q469.8679 432.91193 470.20383 433.7166Q470.53976 434.5213 470.53976 435.49005Q470.53976 436.5213 470.17258 437.34943Q469.8054 438.17755 469.09445 438.62286Q468.3835 439.06818 467.60226 439.06818Q467.03976 439.06818 466.58664 438.826Q466.1335 438.5838 465.83664 438.2088L465.83664 441.49005L464.696 441.49005ZM465.72726 435.5838Q465.72726 436.88068 466.2585 437.50568Q466.78976 438.13068 467.52414 438.13068Q468.28976 438.13068 468.83664 437.48224Q469.3835 436.8338 469.3835 435.49005Q469.3835 434.19318 468.85226 433.55255Q468.321 432.91193 467.58664 432.91193Q466.85226 432.91193 466.28976 433.5916Q465.72726 434.2713 465.72726 435.5838ZM474.60226 437.8963L474.7585 438.8963Q474.27414 439.00568 473.89914 439.00568Q473.27414 439.00568 472.9304 438.80255Q472.58664 438.59943 472.446 438.2791Q472.3054 437.9588 472.3054 436.94318L472.3054 433.05255L471.47726 433.05255L471.47726 432.17755L472.3054 432.17755L472.3054 430.50568L473.446 429.81818L473.446 432.17755L474.60226 432.17755L474.60226 433.05255L473.446 433.05255L473.446 437.00568Q473.446 437.49005 473.5085 437.63068Q473.571 437.7713 473.70383 437.84943Q473.83664 437.92755 474.08664 437.92755Q474.28976 437.92755 474.60226 437.8963ZM480.41476 436.74005L481.60226 436.88068Q481.321 437.92755 480.5632 438.49786Q479.8054 439.06818 478.6335 439.06818Q477.14914 439.06818 476.28195 438.1541Q475.41476 437.24005 475.41476 435.59943Q475.41476 433.8963 476.29758 432.9588Q477.1804 432.0213 478.571 432.0213Q479.9304 432.0213 480.78195 432.94318Q481.6335 433.86505 481.6335 435.5213Q481.6335 435.63068 481.6335 435.8338L476.60226 435.8338Q476.66476 436.94318 477.22726 437.53693Q477.78976 438.13068 478.6335 438.13068Q479.27414 438.13068 479.71945 437.79474Q480.16476 437.4588 480.41476 436.74005ZM476.66476 434.8963L480.4304 434.8963Q480.35226 434.03693 479.9929 433.61505Q479.446 432.9588 478.58664 432.9588Q477.78976 432.9588 477.2585 433.48224Q476.72726 434.00568 476.66476 434.8963ZM487.60226 438.91193L487.60226 438.06818Q486.96164 439.06818 485.71164 439.06818Q484.91476 439.06818 484.23508 438.62286Q483.5554 438.17755 483.1804 437.38068Q482.8054 436.5838 482.8054 435.55255Q482.8054 434.53693 483.14914 433.7166Q483.4929 432.8963 484.16476 432.4588Q484.83664 432.0213 485.66476 432.0213Q486.27414 432.0213 486.7507 432.2791Q487.22726 432.53693 487.52414 432.94318L487.52414 429.59943L488.66476 429.59943L488.66476 438.91193L487.60226 438.91193ZM483.9929 435.55255Q483.9929 436.84943 484.53195 437.49005Q485.071 438.13068 485.821 438.13068Q486.571 438.13068 487.09445 437.5135Q487.6179 436.8963 487.6179 435.6463Q487.6179 434.25568 487.08664 433.60724Q486.5554 432.9588 485.77414 432.9588Q485.0085 432.9588 484.5007 433.5838Q483.9929 434.2088 483.9929 435.55255Z" fill-rule="nonzero" fill="#000000"></path><path d="M450.08664 453.91193L450.08664 444.59943L456.3679 444.59943L456.3679 445.7088L451.321 445.7088L451.321 448.5838L455.696 448.5838L455.696 449.67755L451.321 449.67755L451.321 453.91193L450.08664 453.91193ZM458.02414 445.92755L458.02414 444.59943L459.16476 444.59943L459.16476 445.92755L458.02414 445.92755ZM458.02414 453.91193L458.02414 447.17755L459.16476 447.17755L459.16476 453.91193L458.02414 453.91193ZM460.96164 453.91193L460.96164 444.59943L462.10226 444.59943L462.10226 453.91193L460.96164 453.91193ZM468.5554 451.74005L469.7429 451.88068Q469.46164 452.92755 468.70383 453.49786Q467.946 454.06818 466.77414 454.06818Q465.28976 454.06818 464.42258 453.1541Q463.5554 452.24005 463.5554 450.59943Q463.5554 448.8963 464.4382 447.9588Q465.321 447.0213 466.71164 447.0213Q468.071 447.0213 468.92258 447.94318Q469.77414 448.86505 469.77414 450.5213Q469.77414 450.63068 469.77414 450.8338L464.7429 450.8338Q464.8054 451.94318 465.3679 452.53693Q465.9304 453.13068 466.77414 453.13068Q467.41476 453.13068 467.86008 452.79474Q468.3054 452.4588 468.5554 451.74005ZM464.8054 449.8963L468.571 449.8963Q468.4929 449.03693 468.1335 448.61505Q467.58664 447.9588 466.72726 447.9588Q465.9304 447.9588 465.39914 448.48224Q464.8679 449.00568 464.8054 449.8963Z" fill-rule="nonzero" fill="#000000"></path><path d="M171.5725 225.29538L232.83232 225.29538" fill-rule="evenodd" stroke="#073763" stroke-width="2.0" stroke-linejoin="round" stroke-linecap="butt"></path><path d="M232.83234 228.59885L241.90852 225.29538L232.83234 221.99191Z" fill-rule="evenodd" fill="#073763" stroke="#073763" stroke-width="2.0" stroke-linecap="butt"></path><path d="M256.49243 209.9473L256.49243 209.9473C255.45105 202.54979 258.8701 195.22672 265.29868 191.08551C271.7273 186.9443 280.03802 186.71126 286.70438 190.48524L286.70438 190.48524C289.0658 186.18404 293.38788 183.21434 298.36328 182.47444C303.33868 181.73454 308.38303 183.31136 311.9705 186.7279L311.9705 186.7279C313.98212 182.82816 317.93198 180.20801 322.41846 179.79726C326.90494 179.38649 331.2931 181.24324 334.0258 184.70865L334.0258 184.70865C337.66006 180.5749 343.44232 178.83443 348.8705 180.24033C354.2987 181.64622 358.39792 185.94598 359.39435 191.27908L359.39435 191.27908C363.847 192.45308 367.5559 195.43753 369.5629 199.46136C371.56992 203.4852 371.67807 208.15367 369.85944 212.2606L369.85944 212.2606C374.24396 217.77666 375.26962 225.12674 372.55365 231.56793C369.83765 238.00911 363.78806 242.57368 356.66248 243.55823C356.61227 249.60352 353.18237 255.15059 347.69485 258.06137C342.20737 260.97217 335.5191 260.79214 330.20807 257.59067C327.94583 264.83096 321.57843 270.15826 313.8568 271.27106C306.13516 272.38382 298.44357 269.08255 294.10504 262.79352C288.78693 265.8934 282.40564 266.78638 276.40067 265.27103C270.39566 263.75568 265.27283 259.9596 262.18774 254.73915L262.18774 254.73915C256.7533 255.35388 251.49893 252.63223 249.03238 247.92497C246.56583 243.21773 247.41216 237.5269 251.15132 233.67686L251.15132 233.67686C246.30367 230.91888 243.8301 225.44612 245.02048 220.11241C246.21088 214.77872 250.79549 210.7927 256.38364 210.23293Z" fill-rule="nonzero" fill="#cfe2f3" stroke="#073763" stroke-width="2.0" stroke-linejoin="round" stroke-linecap="butt"></path><path d="M251.1527 233.67633L251.1527 233.67633C253.44032 234.97784 256.08307 235.56824 258.7261 235.36824M262.18793 254.7391C263.32452 254.61053 264.4386 254.33827 265.50143 253.92935M294.10364 262.79312C293.30423 261.63434 292.63492 260.39603 292.10712 259.09937M330.20804 257.59006L330.20804 257.59006C330.62048 256.27005 330.8877 254.91148 331.00525 253.537M356.66147 243.55814C356.71494 237.122 352.93314 231.229 346.9405 228.41037M369.85828 212.26118C368.8878 214.4528 367.40622 216.39697 365.52975 217.94122M359.3941 191.27908L359.3941 191.27908C359.55948 192.16411 359.636 193.06244 359.62262 193.96162M334.02597 184.70891L334.02597 184.70891C333.1194 185.74007 332.3725 186.89238 331.80853 188.12996M311.97046 186.72772L311.97046 186.72772C311.48734 187.66432 311.1266 188.6554 310.89648 189.67813M286.70398 190.48514L286.70398 190.48514C288.11456 191.28372 289.41956 192.24489 290.59027 193.34753M256.49243 209.9473L256.49243 209.9473C256.63596 210.96686 256.86273 211.97386 257.17062 212.95886" fill-rule="nonzero" stroke="#073763" stroke-width="2.0" stroke-linejoin="round" stroke-linecap="butt"></path><path d="M282.39902 212.54153Q282.39902 209.15091 284.21933 207.23685Q286.03964 205.32278 288.91464 205.32278Q290.78964 205.32278 292.30527 206.22122Q293.8209 207.11966 294.60995 208.72903Q295.39902 210.33841 295.39902 212.38528Q295.39902 214.44778 294.56308 216.0806Q293.72714 217.71341 292.1959 218.55716Q290.66464 219.40091 288.89902 219.40091Q286.97714 219.40091 285.46933 218.47122Q283.96152 217.54153 283.18027 215.93997Q282.39902 214.33841 282.39902 212.54153ZM284.2584 212.57278Q284.2584 215.02591 285.5787 216.43997Q286.89902 217.85403 288.8834 217.85403Q290.91464 217.85403 292.22714 216.42435Q293.53964 214.99466 293.53964 212.36966Q293.53964 210.71341 292.98495 209.47903Q292.43027 208.24466 291.34433 207.55716Q290.2584 206.86966 288.91464 206.86966Q287.0084 206.86966 285.6334 208.18216Q284.2584 209.49466 284.2584 212.57278ZM300.89902 217.66653L301.1334 219.15091Q300.43027 219.29153 299.86777 219.29153Q298.96152 219.29153 298.46152 219.00247Q297.96152 218.71341 297.7584 218.25247Q297.55527 217.79153 297.55527 216.27591L297.55527 210.61966L296.3209 210.61966L296.3209 209.30716L297.55527 209.30716L297.55527 206.86966L299.21152 205.86966L299.21152 209.30716L300.89902 209.30716L300.89902 210.61966L299.21152 210.61966L299.21152 216.36966Q299.21152 217.08841 299.29745 217.29153Q299.3834 217.49466 299.58652 217.61966Q299.78964 217.74466 300.16464 217.74466Q300.43027 217.74466 300.89902 217.66653ZM302.43027 219.16653L302.43027 205.57278L304.10214 205.57278L304.10214 210.44778Q305.27402 209.08841 307.05527 209.08841Q308.14902 209.08841 308.9537 209.5181Q309.7584 209.94778 310.10995 210.71341Q310.46152 211.47903 310.46152 212.91653L310.46152 219.16653L308.78964 219.16653L308.78964 212.91653Q308.78964 211.66653 308.24277 211.09622Q307.6959 210.52591 306.71152 210.52591Q305.96152 210.52591 305.31308 210.90872Q304.66464 211.29153 304.3834 211.9556Q304.10214 212.61966 304.10214 213.77591L304.10214 219.16653L302.43027 219.16653ZM319.55527 215.99466L321.27402 216.21341Q320.86777 217.71341 319.7662 218.54935Q318.66464 219.38528 316.9459 219.38528Q314.78964 219.38528 313.52402 218.05716Q312.2584 216.72903 312.2584 214.32278Q312.2584 211.83841 313.53183 210.46341Q314.80527 209.08841 316.85214 209.08841Q318.83652 209.08841 320.08652 210.43216Q321.33652 211.77591 321.33652 214.22903Q321.33652 214.36966 321.3209 214.66653L313.97714 214.66653Q314.0709 216.29153 314.89902 217.15091Q315.72714 218.01028 316.96152 218.01028Q317.86777 218.01028 318.5162 217.53372Q319.16464 217.05716 319.55527 215.99466ZM314.0709 213.29153L319.5709 213.29153Q319.46152 212.05716 318.9459 211.43216Q318.14902 210.46341 316.86777 210.46341Q315.72714 210.46341 314.93808 211.23685Q314.14902 212.01028 314.0709 213.29153ZM323.16464 219.16653L323.16464 209.30716L324.66464 209.30716L324.66464 210.80716Q325.24277 209.76028 325.72714 209.42435Q326.21152 209.08841 326.80527 209.08841Q327.64902 209.08841 328.52402 209.63528L327.9459 211.18216Q327.33652 210.82278 326.71152 210.82278Q326.16464 210.82278 325.73495 211.15091Q325.30527 211.47903 325.11777 212.05716Q324.83652 212.94778 324.83652 214.01028L324.83652 219.16653L323.16464 219.16653Z" fill-rule="nonzero" fill="#000000"></path><path d="M289.71152 240.16653L289.71152 238.71341Q288.5709 240.38528 286.58652 240.38528Q285.72714 240.38528 284.96933 240.04935Q284.21152 239.71341 283.84433 239.21341Q283.47714 238.71341 283.3209 237.97903Q283.22714 237.47903 283.22714 236.41653L283.22714 230.30716L284.89902 230.30716L284.89902 235.77591Q284.89902 237.08841 284.99277 237.54153Q285.14902 238.19778 285.66464 238.57278Q286.18027 238.94778 286.93027 238.94778Q287.68027 238.94778 288.33652 238.56497Q288.99277 238.18216 289.2662 237.5181Q289.53964 236.85403 289.53964 235.58841L289.53964 230.30716L291.21152 230.30716L291.21152 240.16653L289.71152 240.16653ZM292.96152 237.22903L294.61777 236.96341Q294.7584 237.96341 295.3912 238.48685Q296.02402 239.01028 297.16464 239.01028Q298.3209 239.01028 298.87558 238.54153Q299.43027 238.07278 299.43027 237.44778Q299.43027 236.88528 298.9459 236.55716Q298.60214 236.33841 297.24277 235.99466Q295.39902 235.52591 294.68808 235.18997Q293.97714 234.85403 293.60995 234.25247Q293.24277 233.65091 293.24277 232.93216Q293.24277 232.27591 293.54745 231.71341Q293.85214 231.15091 294.36777 230.77591Q294.7584 230.49466 295.43027 230.29153Q296.10214 230.08841 296.86777 230.08841Q298.03964 230.08841 298.91464 230.42435Q299.78964 230.76028 300.2037 231.3306Q300.61777 231.90091 300.77402 232.85403L299.14902 233.07278Q299.03964 232.32278 298.50058 231.8931Q297.96152 231.46341 296.99277 231.46341Q295.83652 231.46341 295.35214 231.84622Q294.86777 232.22903 294.86777 232.72903Q294.86777 233.05716 295.0709 233.32278Q295.27402 233.58841 295.71152 233.76028Q295.96152 233.85403 297.18027 234.19778Q298.9459 234.66653 299.64902 234.96341Q300.35214 235.26028 300.75058 235.83841Q301.14902 236.41653 301.14902 237.27591Q301.14902 238.10403 300.66464 238.84622Q300.18027 239.58841 299.2584 239.98685Q298.33652 240.38528 297.18027 240.38528Q295.2584 240.38528 294.25058 239.58841Q293.24277 238.79153 292.96152 237.22903ZM309.71152 236.99466L311.43027 237.21341Q311.02402 238.71341 309.92245 239.54935Q308.8209 240.38528 307.10214 240.38528Q304.9459 240.38528 303.68027 239.05716Q302.41464 237.72903 302.41464 235.32278Q302.41464 232.83841 303.68808 231.46341Q304.96152 230.08841 307.0084 230.08841Q308.99277 230.08841 310.24277 231.43216Q311.49277 232.77591 311.49277 235.22903Q311.49277 235.36966 311.47714 235.66653L304.1334 235.66653Q304.22714 237.29153 305.05527 238.15091Q305.8834 239.01028 307.11777 239.01028Q308.02402 239.01028 308.67245 238.53372Q309.3209 238.05716 309.71152 236.99466ZM304.22714 234.29153L309.72714 234.29153Q309.61777 233.05716 309.10214 232.43216Q308.30527 231.46341 307.02402 231.46341Q305.8834 231.46341 305.09433 232.23685Q304.30527 233.01028 304.22714 234.29153ZM313.3209 240.16653L313.3209 230.30716L314.8209 230.30716L314.8209 231.80716Q315.39902 230.76028 315.8834 230.42435Q316.36777 230.08841 316.96152 230.08841Q317.80527 230.08841 318.68027 230.63528L318.10214 232.18216Q317.49277 231.82278 316.86777 231.82278Q316.3209 231.82278 315.8912 232.15091Q315.46152 232.47903 315.27402 233.05716Q314.99277 233.94778 314.99277 235.01028L314.99277 240.16653L313.3209 240.16653ZM318.86777 237.22903L320.52402 236.96341Q320.66464 237.96341 321.29745 238.48685Q321.93027 239.01028 323.0709 239.01028Q324.22714 239.01028 324.78183 238.54153Q325.33652 238.07278 325.33652 237.44778Q325.33652 236.88528 324.85214 236.55716Q324.5084 236.33841 323.14902 235.99466Q321.30527 235.52591 320.59433 235.18997Q319.8834 234.85403 319.5162 234.25247Q319.14902 233.65091 319.14902 232.93216Q319.14902 232.27591 319.4537 231.71341Q319.7584 231.15091 320.27402 230.77591Q320.66464 230.49466 321.33652 230.29153Q322.0084 230.08841 322.77402 230.08841Q323.9459 230.08841 324.8209 230.42435Q325.6959 230.76028 326.10995 231.3306Q326.52402 231.90091 326.68027 232.85403L325.05527 233.07278Q324.9459 232.32278 324.40683 231.8931Q323.86777 231.46341 322.89902 231.46341Q321.74277 231.46341 321.2584 231.84622Q320.77402 232.22903 320.77402 232.72903Q320.77402 233.05716 320.97714 233.32278Q321.18027 233.58841 321.61777 233.76028Q321.86777 233.85403 323.08652 234.19778Q324.85214 234.66653 325.55527 234.96341Q326.2584 235.26028 326.65683 235.83841Q327.05527 236.41653 327.05527 237.27591Q327.05527 238.10403 326.5709 238.84622Q326.08652 239.58841 325.16464 239.98685Q324.24277 240.38528 323.08652 240.38528Q321.16464 240.38528 320.15683 239.58841Q319.14902 238.79153 318.86777 237.22903Z" fill-rule="nonzero" fill="#000000"></path><path d="M172.44882 226.50597L172.44882 316.36423" fill-rule="evenodd" stroke="#073763" stroke-width="2.0" stroke-linejoin="round" stroke-linecap="butt"></path><path d="M169.14536 316.36423L172.44882 325.44043L175.75229 316.36423Z" fill-rule="evenodd" fill="#073763" stroke="#073763" stroke-width="2.0" stroke-linecap="butt"></path><path d="M191.32939 218.91592L191.32939 209.60342L192.56377 209.60342L192.56377 214.22842L197.18877 209.60342L198.84502 209.60342L194.95439 213.38467L199.01689 218.91592L197.39189 218.91592L194.07939 214.2128L192.56377 215.69717L192.56377 218.91592L191.32939 218.91592ZM204.73564 216.74405L205.92314 216.88467Q205.64189 217.93155 204.88408 218.50186Q204.12627 219.07217 202.95439 219.07217Q201.47002 219.07217 200.60283 218.15811Q199.73564 217.24405 199.73564 215.60342Q199.73564 213.9003 200.61845 212.9628Q201.50127 212.0253 202.89189 212.0253Q204.25127 212.0253 205.10283 212.94717Q205.95439 213.86905 205.95439 215.5253Q205.95439 215.63467 205.95439 215.8378L200.92314 215.8378Q200.98564 216.94717 201.54814 217.54092Q202.11064 218.13467 202.95439 218.13467Q203.59502 218.13467 204.04033 217.79874Q204.48564 217.4628 204.73564 216.74405ZM200.98564 214.9003L204.75127 214.9003Q204.67314 214.04092 204.31377 213.61905Q203.76689 212.9628 202.90752 212.9628Q202.11064 212.9628 201.57939 213.48624Q201.04814 214.00967 200.98564 214.9003ZM207.48564 221.50967L207.34502 220.44717Q207.72002 220.54092 208.00127 220.54092Q208.39189 220.54092 208.61845 220.41592Q208.84502 220.29092 208.98564 220.05655Q209.09502 219.88467 209.34502 219.2128Q209.37627 219.11905 209.43877 218.93155L206.87627 212.18155L208.11064 212.18155L209.51689 216.07217Q209.78252 216.82217 210.00127 217.63467Q210.20439 216.85342 210.47002 216.10342L211.92314 212.18155L213.06377 212.18155L210.50127 219.0253Q210.07939 220.13467 209.86064 220.55655Q209.54814 221.11905 209.15752 221.38467Q208.76689 221.6503 208.22002 221.6503Q207.89189 221.6503 207.48564 221.50967ZM213.75127 216.9003L214.87627 216.72842Q214.97002 217.4003 215.40752 217.76749Q215.84502 218.13467 216.62627 218.13467Q217.40752 218.13467 217.79033 217.81436Q218.17314 217.49405 218.17314 217.05655Q218.17314 216.66592 217.82939 216.44717Q217.59502 216.29092 216.65752 216.05655Q215.40752 215.74405 214.92314 215.50967Q214.43877 215.2753 214.18877 214.86905Q213.93877 214.4628 213.93877 213.9628Q213.93877 213.50967 214.14189 213.12686Q214.34502 212.74405 214.70439 212.49405Q214.97002 212.29092 215.43095 212.15811Q215.89189 212.0253 216.42314 212.0253Q217.20439 212.0253 217.80595 212.25186Q218.40752 212.47842 218.69658 212.86905Q218.98564 213.25967 219.09502 213.91592L217.97002 214.07217Q217.89189 213.54092 217.53252 213.25186Q217.17314 212.9628 216.50127 212.9628Q215.72002 212.9628 215.37627 213.22061Q215.03252 213.47842 215.03252 213.8378Q215.03252 214.05655 215.17314 214.22842Q215.31377 214.41592 215.61064 214.54092Q215.78252 214.60342 216.62627 214.82217Q217.84502 215.1503 218.32158 215.35342Q218.79814 215.55655 219.07158 215.95499Q219.34502 216.35342 219.34502 216.93155Q219.34502 217.50967 219.00908 218.00967Q218.67314 218.50967 218.04814 218.79092Q217.42314 219.07217 216.62627 219.07217Q215.31377 219.07217 214.62627 218.5253Q213.93877 217.97842 213.75127 216.9003Z" fill-rule="nonzero" fill="#000000"></path></svg>

