<?xml version="1.0" standalone="yes"?>

<svg version="1.1" viewBox="0.0 0.0 960.0 720.0" fill="none" stroke="none" stroke-linecap="square" stroke-miterlimit="10" clip-path="url(#clip0)" xmlns="http://www.w3.org/2000/svg" xmlns:xlink="http://www.w3.org/1999/xlink"><clipPath id="clip0"><path d="M0 0L960.0 0L960.0 720.0L0 720.0L0 0Z" clip-rule="nonzero"></path></clipPath><path d="M52.48692 63.14116Q52.48692 59.750534 54.30723 57.83647Q56.127544 55.92241 59.002544 55.92241Q60.877544 55.92241 62.39317 56.820847Q63.908794 57.719284 64.69785 59.32866Q65.486916 60.938034 65.486916 62.98491Q65.486916 65.04741 64.65098 66.68022Q63.815044 68.313034 62.283794 69.156784Q60.752544 70.000534 58.98692 70.000534Q57.065044 70.000534 55.55723 69.07085Q54.04942 68.14116 53.26817 66.5396Q52.48692 64.938034 52.48692 63.14116ZM54.346294 63.17241Q54.346294 65.625534 55.666607 67.0396Q56.98692 68.45366 58.971294 68.45366Q61.002544 68.45366 62.315044 67.02397Q63.627544 65.594284 63.627544 62.969284Q63.627544 61.313034 63.072857 60.07866Q62.51817 58.844284 61.43223 58.156784Q60.346294 57.469284 59.002544 57.469284Q57.096294 57.469284 55.721294 58.781784Q54.346294 60.094284 54.346294 63.17241ZM68.87754 69.76616L67.330666 69.76616L67.330666 56.17241L68.986916 56.17241L68.986916 61.01616Q70.049416 59.688034 71.69004 59.688034Q72.59629 59.688034 73.40879 60.05522Q74.22129 60.42241 74.74473 61.08647Q75.268166 61.750534 75.56504 62.688034Q75.861916 63.625534 75.861916 64.688034Q75.861916 67.219284 74.611916 68.6021Q73.361916 69.98491 71.611916 69.98491Q69.861916 69.98491 68.87754 68.531784L68.87754 69.76616ZM68.861916 64.76616Q68.861916 66.531784 69.330666 67.32866Q70.12754 68.60991 71.47129 68.60991Q72.56504 68.60991 73.361916 67.6646Q74.15879 66.719284 74.15879 64.82866Q74.15879 62.906784 73.393166 61.98491Q72.62754 61.063034 71.549416 61.063034Q70.455666 61.063034 69.65879 62.01616Q68.861916 62.969284 68.861916 64.76616ZM77.705666 58.10991L77.705666 56.17241L79.361916 56.17241L79.361916 58.10991L77.705666 58.10991ZM75.580666 73.594284L75.893166 72.17241Q76.393166 72.29741 76.69004 72.29741Q77.205666 72.29741 77.455666 71.96147Q77.705666 71.625534 77.705666 70.26616L77.705666 59.906784L79.361916 59.906784L79.361916 70.29741Q79.361916 72.125534 78.893166 72.844284Q78.299416 73.76616 76.893166 73.76616Q76.22129 73.76616 75.580666 73.594284ZM88.59629 66.594284L90.31504 66.813034Q89.90879 68.313034 88.80723 69.14897Q87.705666 69.98491 85.986916 69.98491Q83.830666 69.98491 82.56504 68.656784Q81.299416 67.32866 81.299416 64.92241Q81.299416 62.438034 82.57285 61.063034Q83.84629 59.688034 85.893166 59.688034Q87.87754 59.688034 89.12754 61.031784Q90.37754 62.375534 90.37754 64.82866Q90.37754 64.969284 90.361916 65.26616L83.018166 65.26616Q83.111916 66.89116 83.94004 67.750534Q84.768166 68.60991 86.00254 68.60991Q86.90879 68.60991 87.55723 68.13335Q88.205666 67.656784 88.59629 66.594284ZM83.111916 63.89116L88.611916 63.89116Q88.50254 62.656784 87.986916 62.031784Q87.19004 61.063034 85.90879 61.063034Q84.768166 61.063034 83.9791 61.83647Q83.19004 62.60991 83.111916 63.89116ZM98.65879 66.156784L100.299416 66.375534Q100.03379 68.063034 98.924416 69.02397Q97.81504 69.98491 96.19004 69.98491Q94.174416 69.98491 92.94785 68.6646Q91.72129 67.344284 91.72129 64.875534Q91.72129 63.281784 92.24473 62.08647Q92.768166 60.89116 93.8541 60.289597Q94.94004 59.688034 96.205666 59.688034Q97.81504 59.688034 98.830666 60.500534Q99.84629 61.313034 100.143166 62.813034L98.518166 63.063034Q98.28379 62.063034 97.69004 61.563034Q97.09629 61.063034 96.268166 61.063034Q95.00254 61.063034 94.21348 61.969284Q93.424416 62.875534 93.424416 64.82866Q93.424416 66.813034 94.19004 67.71147Q94.955666 68.60991 96.174416 68.60991Q97.15879 68.60991 97.81504 68.00835Q98.47129 67.406784 98.65879 66.156784ZM105.205666 68.26616L105.44004 69.750534Q104.736916 69.89116 104.174416 69.89116Q103.268166 69.89116 102.768166 69.6021Q102.268166 69.313034 102.06504 68.8521Q101.861916 68.39116 101.861916 66.875534L101.861916 61.219284L100.62754 61.219284L100.62754 59.906784L101.861916 59.906784L101.861916 57.469284L103.518166 56.469284L103.518166 59.906784L105.205666 59.906784L105.205666 61.219284L103.518166 61.219284L103.518166 66.969284Q103.518166 67.688034 103.6041 67.89116Q103.69004 68.094284 103.893166 68.219284Q104.09629 68.344284 104.47129 68.344284Q104.736916 68.344284 105.205666 68.26616ZM115.59629 69.76616L115.59629 57.76616L111.12754 57.76616L111.12754 56.17241L121.893166 56.17241L121.893166 57.76616L117.393166 57.76616L117.393166 69.76616L115.59629 69.76616ZM123.236916 73.563034L123.06504 72.000534Q123.611916 72.14116 124.018166 72.14116Q124.56504 72.14116 124.90098 71.95366Q125.236916 71.76616 125.455666 71.438034Q125.611916 71.188034 125.955666 70.188034Q126.00254 70.04741 126.111916 69.781784L122.37754 59.906784L124.174416 59.906784L126.22129 65.625534Q126.62754 66.70366 126.94004 67.906784Q127.22129 66.750534 127.62754 65.656784L129.7213 59.906784L131.39317 59.906784L127.643166 69.938034Q127.049416 71.563034 126.705666 72.17241Q126.268166 73.000534 125.69004 73.38335Q125.111916 73.76616 124.31504 73.76616Q123.830666 73.76616 123.236916 73.563034ZM132.64317 73.54741L132.64317 59.906784L134.17442 59.906784L134.17442 61.188034Q134.70567 60.438034 135.38536 60.063034Q136.06505 59.688034 137.01817 59.688034Q138.2838 59.688034 139.25255 60.33647Q140.2213 60.98491 140.71349 62.17241Q141.20567 63.35991 141.20567 64.76616Q141.20567 66.281784 140.6588 67.49272Q140.11192 68.70366 139.08067 69.344284Q138.04942 69.98491 136.9088 69.98491Q136.06505 69.98491 135.40099 69.63335Q134.73692 69.281784 134.31505 68.750534L134.31505 73.54741L132.64317 73.54741ZM134.1588 64.89116Q134.1588 66.79741 134.93224 67.70366Q135.70567 68.60991 136.79942 68.60991Q137.9088 68.60991 138.69786 67.67241Q139.48692 66.73491 139.48692 64.750534Q139.48692 62.875534 138.71349 61.938034Q137.94005 61.000534 136.86192 61.000534Q135.79942 61.000534 134.97911 62.000534Q134.1588 63.000534 134.1588 64.89116ZM149.76817 66.594284L151.48692 66.813034Q151.08067 68.313034 149.97911 69.14897Q148.87755 69.98491 147.1588 69.98491Q145.00255 69.98491 143.73692 68.656784Q142.4713 67.32866 142.4713 64.92241Q142.4713 62.438034 143.74474 61.063034Q145.01817 59.688034 147.06505 59.688034Q149.04942 59.688034 150.29942 61.031784Q151.54942 62.375534 151.54942 64.82866Q151.54942 64.969284 151.5338 65.26616L144.19005 65.26616Q144.2838 66.89116 145.11192 67.750534Q145.94005 68.60991 147.17442 68.60991Q148.08067 68.60991 148.72911 68.13335Q149.37755 67.656784 149.76817 66.594284ZM144.2838 63.89116L149.7838 63.89116Q149.67442 62.656784 149.1588 62.031784Q148.36192 61.063034 147.08067 61.063034Q145.94005 61.063034 145.15099 61.83647Q144.36192 62.60991 144.2838 63.89116Z" fill-rule="nonzero" fill="#000000"></path><path d="M162.06824 63.27034L162.06824 63.27034" fill-rule="nonzero" stroke="#073763" stroke-width="2.0" stroke-linejoin="round" stroke-linecap="butt"></path><path d="M177.14928 69.76407L177.14928 56.170315L178.94615 56.170315L178.94615 62.90469L185.71178 56.170315L188.14928 56.170315L182.44615 61.670315L188.39928 69.76407L186.02428 69.76407L181.18053 62.87344L178.94615 65.04532L178.94615 69.76407L177.14928 69.76407ZM196.21178 66.59219L197.93053 66.81094Q197.52428 68.31094 196.42271 69.14688Q195.32115 69.98282 193.6024 69.98282Q191.44615 69.98282 190.18053 68.65469Q188.9149 67.32657 188.9149 64.92032Q188.9149 62.43594 190.18834 61.06094Q191.46178 59.68594 193.50865 59.68594Q195.49303 59.68594 196.74303 61.02969Q197.99303 62.37344 197.99303 64.82657Q197.99303 64.96719 197.9774 65.26407L190.63365 65.26407Q190.7274 66.88907 191.55553 67.74844Q192.38365 68.60782 193.61803 68.60782Q194.52428 68.60782 195.17271 68.131256Q195.82115 67.65469 196.21178 66.59219ZM190.7274 63.889065L196.2274 63.889065Q196.11803 62.65469 195.6024 62.02969Q194.80553 61.06094 193.52428 61.06094Q192.38365 61.06094 191.59459 61.834377Q190.80553 62.607815 190.7274 63.889065ZM199.75865 73.56094L199.58678 71.99844Q200.13365 72.13907 200.5399 72.13907Q201.08678 72.13907 201.42271 71.95157Q201.75865 71.76407 201.9774 71.43594Q202.13365 71.18594 202.4774 70.18594Q202.52428 70.04532 202.63365 69.77969L198.89928 59.90469L200.69615 59.90469L202.74303 65.62344Q203.14928 66.70157 203.46178 67.90469Q203.74303 66.74844 204.14928 65.65469L206.24303 59.90469L207.9149 59.90469L204.1649 69.93594Q203.57115 71.56094 203.2274 72.17032Q202.7899 72.99844 202.21178 73.381256Q201.63365 73.76407 200.83678 73.76407Q200.3524 73.76407 199.75865 73.56094ZM218.02428 69.76407L218.02428 57.764065L213.55553 57.764065L213.55553 56.170315L224.32115 56.170315L224.32115 57.764065L219.82115 57.764065L219.82115 69.76407L218.02428 69.76407ZM225.6649 73.56094L225.49303 71.99844Q226.0399 72.13907 226.44615 72.13907Q226.99303 72.13907 227.32896 71.95157Q227.6649 71.76407 227.88365 71.43594Q228.0399 71.18594 228.38365 70.18594Q228.43053 70.04532 228.5399 69.77969L224.80553 59.90469L226.6024 59.90469L228.64928 65.62344Q229.05553 66.70157 229.36803 67.90469Q229.64928 66.74844 230.05553 65.65469L232.14928 59.90469L233.82115 59.90469L230.07115 69.93594Q229.4774 71.56094 229.13365 72.17032Q228.69615 72.99844 228.11803 73.381256Q227.5399 73.76407 226.74303 73.76407Q226.25865 73.76407 225.6649 73.56094ZM235.07115 73.54532L235.07115 59.90469L236.6024 59.90469L236.6024 61.18594Q237.13365 60.43594 237.81334 60.06094Q238.49303 59.68594 239.44615 59.68594Q240.71178 59.68594 241.68053 60.334377Q242.64928 60.982815 243.14146 62.170315Q243.63365 63.357815 243.63365 64.76407Q243.63365 66.27969 243.08678 67.49063Q242.5399 68.70157 241.50865 69.34219Q240.4774 69.98282 239.33678 69.98282Q238.49303 69.98282 237.82896 69.631256Q237.1649 69.27969 236.74303 68.74844L236.74303 73.54532L235.07115 73.54532ZM236.58678 64.88907Q236.58678 66.79532 237.36021 67.70157Q238.13365 68.60782 239.2274 68.60782Q240.33678 68.60782 241.12584 67.67032Q241.9149 66.73282 241.9149 64.74844Q241.9149 62.87344 241.14146 61.93594Q240.36803 60.99844 239.2899 60.99844Q238.2274 60.99844 237.40709 61.99844Q236.58678 62.99844 236.58678 64.88907ZM252.19615 66.59219L253.9149 66.81094Q253.50865 68.31094 252.40709 69.14688Q251.30553 69.98282 249.58678 69.98282Q247.43053 69.98282 246.1649 68.65469Q244.89928 67.32657 244.89928 64.92032Q244.89928 62.43594 246.17271 61.06094Q247.44615 59.68594 249.49303 59.68594Q251.4774 59.68594 252.7274 61.02969Q253.9774 62.37344 253.9774 64.82657Q253.9774 64.96719 253.96178 65.26407L246.61803 65.26407Q246.71178 66.88907 247.5399 67.74844Q248.36803 68.60782 249.6024 68.60782Q250.50865 68.60782 251.15709 68.131256Q251.80553 67.65469 252.19615 66.59219ZM246.71178 63.889065L252.21178 63.889065Q252.1024 62.65469 251.58678 62.02969Q250.7899 61.06094 249.50865 61.06094Q248.36803 61.06094 247.57896 61.834377Q246.7899 62.607815 246.71178 63.889065Z" fill-rule="nonzero" fill="#000000"></path><path d="M268.1617 69.76899L268.1617 56.17524L273.2711 56.17524Q274.81796 56.17524 275.76328 56.58149Q276.7086 56.98774 277.23984 57.847115Q277.7711 58.70649 277.7711 59.64399Q277.7711 60.51899 277.30234 61.292427Q276.8336 62.065865 275.86484 62.534615Q277.0992 62.89399 277.76328 63.76899Q278.42734 64.64399 278.42734 65.83149Q278.42734 66.784615 278.0289 67.60493Q277.63046 68.42524 277.0367 68.87055Q276.44296 69.315865 275.54453 69.54243Q274.6461 69.76899 273.3492 69.76899L268.1617 69.76899ZM269.9586 61.878365L272.8961 61.878365Q274.0992 61.878365 274.61484 61.722115Q275.30234 61.51899 275.6539 61.05024Q276.00546 60.58149 276.00546 59.86274Q276.00546 59.190865 275.67734 58.67524Q275.3492 58.159615 274.74765 57.964302Q274.1461 57.76899 272.67734 57.76899L269.9586 57.76899L269.9586 61.878365ZM269.9586 68.159615L273.3492 68.159615Q274.2242 68.159615 274.56796 68.097115Q275.19296 67.98774 275.61484 67.72993Q276.0367 67.472115 276.30234 66.972115Q276.56796 66.472115 276.56796 65.83149Q276.56796 65.065865 276.17734 64.503365Q275.7867 63.940865 275.0992 63.714302Q274.4117 63.48774 273.11484 63.48774L269.9586 63.48774L269.9586 68.159615ZM286.8961 68.55024Q285.9586 69.347115 285.0992 69.66743Q284.23984 69.98774 283.25546 69.98774Q281.6461 69.98774 280.7711 69.19868Q279.8961 68.409615 279.8961 67.17524Q279.8961 66.440865 280.2242 65.847115Q280.55234 65.253365 281.0836 64.89399Q281.61484 64.534615 282.2867 64.347115Q282.7867 64.20649 283.7711 64.097115Q285.80234 63.847115 286.75546 63.51899Q286.75546 63.17524 286.75546 63.08149Q286.75546 62.065865 286.2867 61.64399Q285.6461 61.08149 284.38046 61.08149Q283.2086 61.08149 282.6461 61.48774Q282.0836 61.89399 281.81796 62.95649L280.17734 62.722115Q280.4117 61.67524 280.91953 61.034615Q281.42734 60.39399 282.38828 60.042427Q283.3492 59.690865 284.63046 59.690865Q285.8961 59.690865 286.67734 59.98774Q287.4586 60.284615 287.8336 60.73774Q288.2086 61.190865 288.3492 61.878365Q288.44296 62.30024 288.44296 63.409615L288.44296 65.64399Q288.44296 67.972115 288.54453 68.5893Q288.6461 69.20649 288.9742 69.76899L287.2242 69.76899Q286.9586 69.253365 286.8961 68.55024ZM286.75546 64.83149Q285.8492 65.190865 284.0211 65.45649Q282.98984 65.597115 282.56796 65.784615Q282.1461 65.972115 281.9117 66.33149Q281.67734 66.690865 281.67734 67.128365Q281.67734 67.80024 282.18515 68.24555Q282.69296 68.690865 283.6617 68.690865Q284.63046 68.690865 285.38046 68.26118Q286.13046 67.83149 286.48984 67.11274Q286.75546 66.534615 286.75546 65.440865L286.75546 64.83149ZM290.1617 66.83149L291.81796 66.565865Q291.9586 67.565865 292.5914 68.0893Q293.2242 68.61274 294.36484 68.61274Q295.5211 68.61274 296.07578 68.14399Q296.63046 67.67524 296.63046 67.05024Q296.63046 66.48774 296.1461 66.159615Q295.80234 65.940865 294.44296 65.597115Q292.5992 65.128365 291.88828 64.79243Q291.17734 64.45649 290.81015 63.854927Q290.44296 63.253365 290.44296 62.534615Q290.44296 61.878365 290.74765 61.315865Q291.05234 60.753365 291.56796 60.378365Q291.9586 60.097115 292.63046 59.89399Q293.30234 59.690865 294.06796 59.690865Q295.23984 59.690865 296.11484 60.026802Q296.98984 60.36274 297.4039 60.933052Q297.81796 61.503365 297.9742 62.45649L296.3492 62.67524Q296.23984 61.92524 295.70078 61.495552Q295.1617 61.065865 294.19296 61.065865Q293.0367 61.065865 292.55234 61.448677Q292.06796 61.83149 292.06796 62.33149Q292.06796 62.659615 292.2711 62.92524Q292.4742 63.190865 292.9117 63.36274Q293.1617 63.45649 294.38046 63.80024Q296.1461 64.26899 296.8492 64.565865Q297.55234 64.86274 297.95078 65.440865Q298.3492 66.01899 298.3492 66.878365Q298.3492 67.70649 297.86484 68.44868Q297.38046 69.190865 296.4586 69.5893Q295.5367 69.98774 294.38046 69.98774Q292.4586 69.98774 291.45078 69.190865Q290.44296 68.39399 290.1617 66.83149ZM306.9117 66.597115L308.63046 66.815865Q308.2242 68.315865 307.12265 69.1518Q306.0211 69.98774 304.30234 69.98774Q302.1461 69.98774 300.88046 68.659615Q299.61484 67.33149 299.61484 64.92524Q299.61484 62.440865 300.88828 61.065865Q302.1617 59.690865 304.2086 59.690865Q306.19296 59.690865 307.44296 61.034615Q308.69296 62.378365 308.69296 64.83149Q308.69296 64.972115 308.67734 65.26899L301.3336 65.26899Q301.42734 66.89399 302.25546 67.753365Q303.0836 68.61274 304.31796 68.61274Q305.2242 68.61274 305.87265 68.13618Q306.5211 67.659615 306.9117 66.597115ZM301.42734 63.89399L306.92734 63.89399Q306.81796 62.659615 306.30234 62.034615Q305.50546 61.065865 304.2242 61.065865Q303.0836 61.065865 302.29453 61.839302Q301.50546 62.61274 301.42734 63.89399ZM310.0836 66.17524L311.75546 65.95649Q312.0367 67.378365 312.73203 68.003365Q313.42734 68.628365 314.4117 68.628365Q315.5992 68.628365 316.4117 67.80805Q317.2242 66.98774 317.2242 65.784615Q317.2242 64.64399 316.4664 63.89399Q315.7086 63.14399 314.55234 63.14399Q314.0836 63.14399 313.38046 63.33149L313.56796 61.86274Q313.7242 61.878365 313.8336 61.878365Q314.8961 61.878365 315.74765 61.323677Q316.5992 60.76899 316.5992 59.61274Q316.5992 58.690865 315.98203 58.089302Q315.36484 57.48774 314.38046 57.48774Q313.4117 57.48774 312.76328 58.097115Q312.11484 58.70649 311.92734 59.940865L310.25546 59.64399Q310.55234 57.95649 311.63828 57.034615Q312.7242 56.11274 314.3492 56.11274Q315.4586 56.11274 316.3961 56.589302Q317.3336 57.065865 317.82578 57.89399Q318.31796 58.722115 318.31796 59.64399Q318.31796 60.534615 317.8492 61.253365Q317.38046 61.972115 316.44296 62.409615Q317.6617 62.67524 318.32578 63.558052Q318.98984 64.440865 318.98984 65.753365Q318.98984 67.534615 317.69296 68.76899Q316.3961 70.003365 314.4117 70.003365Q312.61484 70.003365 311.43515 68.940865Q310.25546 67.878365 310.0836 66.17524ZM329.2242 68.159615L329.2242 69.76899L320.23984 69.76899Q320.2242 69.159615 320.42734 68.61274Q320.7711 67.690865 321.5289 66.80024Q322.2867 65.909615 323.7086 64.73774Q325.92734 62.92524 326.7086 61.86274Q327.48984 60.80024 327.48984 59.847115Q327.48984 58.86274 326.7789 58.17524Q326.06796 57.48774 324.92734 57.48774Q323.7242 57.48774 322.99765 58.214302Q322.2711 58.940865 322.2711 60.222115L320.55234 60.05024Q320.7242 58.128365 321.88046 57.120552Q323.0367 56.11274 324.9742 56.11274Q326.92734 56.11274 328.06796 57.198677Q329.2086 58.284615 329.2086 59.89399Q329.2086 60.70649 328.87265 61.495552Q328.5367 62.284615 327.76328 63.151802Q326.98984 64.01899 325.19296 65.55024Q323.69296 66.815865 323.26328 67.26118Q322.8336 67.70649 322.55234 68.159615L329.2242 68.159615ZM334.4742 73.76899Q333.0992 72.01899 332.1461 69.68305Q331.19296 67.347115 331.19296 64.847115Q331.19296 62.628365 331.8961 60.61274Q332.73984 58.26899 334.4742 55.940865L335.67734 55.940865Q334.55234 57.86274 334.19296 58.690865Q333.63046 59.972115 333.30234 61.36274Q332.8961 63.097115 332.8961 64.847115Q332.8961 69.315865 335.67734 73.76899L334.4742 73.76899ZM337.6461 69.76899L337.6461 56.17524L339.44296 56.17524L339.44296 62.909615L346.2086 56.17524L348.6461 56.17524L342.94296 61.67524L348.8961 69.76899L346.5211 69.76899L341.67734 62.878365L339.44296 65.05024L339.44296 69.76899L337.6461 69.76899ZM356.69296 66.597115L358.4117 66.815865Q358.00546 68.315865 356.9039 69.1518Q355.80234 69.98774 354.0836 69.98774Q351.92734 69.98774 350.6617 68.659615Q349.3961 67.33149 349.3961 64.92524Q349.3961 62.440865 350.66953 61.065865Q351.94296 59.690865 353.98984 59.690865Q355.9742 59.690865 357.2242 61.034615Q358.4742 62.378365 358.4742 64.83149Q358.4742 64.972115 358.4586 65.26899L351.11484 65.26899Q351.2086 66.89399 352.0367 67.753365Q352.86484 68.61274 354.0992 68.61274Q355.00546 68.61274 355.6539 68.13618Q356.30234 67.659615 356.69296 66.597115ZM351.2086 63.89399L356.7086 63.89399Q356.5992 62.659615 356.0836 62.034615Q355.2867 61.065865 354.00546 61.065865Q352.86484 61.065865 352.07578 61.839302Q351.2867 62.61274 351.2086 63.89399ZM360.23984 73.565865L360.06796 72.003365Q360.61484 72.14399 361.0211 72.14399Q361.56796 72.14399 361.9039 71.95649Q362.23984 71.76899 362.4586 71.440865Q362.61484 71.190865 362.9586 70.190865Q363.00546 70.05024 363.11484 69.784615L359.38046 59.909615L361.17734 59.909615L363.2242 65.628365Q363.63046 66.70649 363.94296 67.909615Q364.2242 66.753365 364.63046 65.659615L366.7242 59.909615L368.3961 59.909615L364.6461 69.940865Q364.05234 71.565865 363.7086 72.17524Q363.2711 73.003365 362.69296 73.38618Q362.11484 73.76899 361.31796 73.76899Q360.8336 73.76899 360.23984 73.565865ZM370.73984 73.76899L369.55234 73.76899Q372.31796 69.315865 372.31796 64.847115Q372.31796 63.11274 371.92734 61.39399Q371.5992 60.003365 371.0367 58.722115Q370.67734 57.878365 369.55234 55.940865L370.73984 55.940865Q372.48984 58.26899 373.31796 60.61274Q374.0367 62.628365 374.0367 64.847115Q374.0367 67.347115 373.07578 69.68305Q372.11484 72.01899 370.73984 73.76899Z" fill-rule="nonzero" fill="#000000"></path><path d="M41.658794 47.160107L511.32806 47.160107L511.32806 79.38058L41.658794 79.38058Z" fill-rule="nonzero" stroke="#073763" stroke-width="2.0" stroke-linejoin="round" stroke-linecap="butt"></path><path d="M162.94226 46.372704L162.94226 80.16798" fill-rule="nonzero" stroke="#073763" stroke-width="2.0" stroke-linejoin="round" stroke-linecap="butt"></path><path d="M258.72177 46.372704L258.72177 80.16798" fill-rule="nonzero" stroke="#073763" stroke-width="2.0" stroke-linejoin="round" stroke-linecap="butt"></path><path d="M379.37796 46.372704L379.37796 80.16798" fill-rule="nonzero" stroke="#073763" stroke-width="2.0" stroke-linejoin="round" stroke-linecap="butt"></path><path d="M385.57315 69.76899L385.57315 56.17524L390.68253 56.17524Q392.2294 56.17524 393.1747 56.58149Q394.12003 56.98774 394.65128 57.847115Q395.18253 58.70649 395.18253 59.64399Q395.18253 60.51899 394.71378 61.292427Q394.24503 62.065865 393.27628 62.534615Q394.51065 62.89399 395.1747 63.76899Q395.83878 64.64399 395.83878 65.83149Q395.83878 66.784615 395.44034 67.60493Q395.0419 68.42524 394.44815 68.87055Q393.8544 69.315865 392.95596 69.54243Q392.05753 69.76899 390.76065 69.76899L385.57315 69.76899ZM387.37003 61.878365L390.30753 61.878365Q391.51065 61.878365 392.02628 61.722115Q392.71378 61.51899 393.06534 61.05024Q393.4169 60.58149 393.4169 59.86274Q393.4169 59.190865 393.08878 58.67524Q392.76065 58.159615 392.1591 57.964302Q391.55753 57.76899 390.08878 57.76899L387.37003 57.76899L387.37003 61.878365ZM387.37003 68.159615L390.76065 68.159615Q391.63565 68.159615 391.9794 68.097115Q392.6044 67.98774 393.02628 67.72993Q393.44815 67.472115 393.71378 66.972115Q393.9794 66.472115 393.9794 65.83149Q393.9794 65.065865 393.58878 64.503365Q393.19815 63.940865 392.51065 63.714302Q391.82315 63.48774 390.52628 63.48774L387.37003 63.48774L387.37003 68.159615ZM404.30753 68.55024Q403.37003 69.347115 402.51065 69.66743Q401.65128 69.98774 400.6669 69.98774Q399.05753 69.98774 398.18253 69.19868Q397.30753 68.409615 397.30753 67.17524Q397.30753 66.440865 397.63565 65.847115Q397.96378 65.253365 398.49503 64.89399Q399.02628 64.534615 399.69815 64.347115Q400.19815 64.20649 401.18253 64.097115Q403.21378 63.847115 404.1669 63.51899Q404.1669 63.17524 404.1669 63.08149Q404.1669 62.065865 403.69815 61.64399Q403.05753 61.08149 401.7919 61.08149Q400.62003 61.08149 400.05753 61.48774Q399.49503 61.89399 399.2294 62.95649L397.58878 62.722115Q397.82315 61.67524 398.33096 61.034615Q398.83878 60.39399 399.7997 60.042427Q400.76065 59.690865 402.0419 59.690865Q403.30753 59.690865 404.08878 59.98774Q404.87003 60.284615 405.24503 60.73774Q405.62003 61.190865 405.76065 61.878365Q405.8544 62.30024 405.8544 63.409615L405.8544 65.64399Q405.8544 67.972115 405.95596 68.5893Q406.05753 69.20649 406.38565 69.76899L404.63565 69.76899Q404.37003 69.253365 404.30753 68.55024ZM404.1669 64.83149Q403.26065 65.190865 401.43253 65.45649Q400.40128 65.597115 399.9794 65.784615Q399.55753 65.972115 399.32315 66.33149Q399.08878 66.690865 399.08878 67.128365Q399.08878 67.80024 399.5966 68.24555Q400.1044 68.690865 401.07315 68.690865Q402.0419 68.690865 402.7919 68.26118Q403.5419 67.83149 403.90128 67.11274Q404.1669 66.534615 404.1669 65.440865L404.1669 64.83149ZM407.57315 66.83149L409.2294 66.565865Q409.37003 67.565865 410.00284 68.0893Q410.63565 68.61274 411.77628 68.61274Q412.93253 68.61274 413.4872 68.14399Q414.0419 67.67524 414.0419 67.05024Q414.0419 66.48774 413.55753 66.159615Q413.21378 65.940865 411.8544 65.597115Q410.01065 65.128365 409.2997 64.79243Q408.58878 64.45649 408.2216 63.854927Q407.8544 63.253365 407.8544 62.534615Q407.8544 61.878365 408.1591 61.315865Q408.46378 60.753365 408.9794 60.378365Q409.37003 60.097115 410.0419 59.89399Q410.71378 59.690865 411.4794 59.690865Q412.65128 59.690865 413.52628 60.026802Q414.40128 60.36274 414.81534 60.933052Q415.2294 61.503365 415.38565 62.45649L413.76065 62.67524Q413.65128 61.92524 413.1122 61.495552Q412.57315 61.065865 411.6044 61.065865Q410.44815 61.065865 409.96378 61.448677Q409.4794 61.83149 409.4794 62.33149Q409.4794 62.659615 409.68253 62.92524Q409.88565 63.190865 410.32315 63.36274Q410.57315 63.45649 411.7919 63.80024Q413.55753 64.26899 414.26065 64.565865Q414.96378 64.86274 415.3622 65.440865Q415.76065 66.01899 415.76065 66.878365Q415.76065 67.70649 415.27628 68.44868Q414.7919 69.190865 413.87003 69.5893Q412.94815 69.98774 411.7919 69.98774Q409.87003 69.98774 408.8622 69.190865Q407.8544 68.39399 407.57315 66.83149ZM424.32315 66.597115L426.0419 66.815865Q425.63565 68.315865 424.5341 69.1518Q423.43253 69.98774 421.71378 69.98774Q419.55753 69.98774 418.2919 68.659615Q417.02628 67.33149 417.02628 64.92524Q417.02628 62.440865 418.2997 61.065865Q419.57315 59.690865 421.62003 59.690865Q423.6044 59.690865 424.8544 61.034615Q426.1044 62.378365 426.1044 64.83149Q426.1044 64.972115 426.08878 65.26899L418.74503 65.26899Q418.83878 66.89399 419.6669 67.753365Q420.49503 68.61274 421.7294 68.61274Q422.63565 68.61274 423.2841 68.13618Q423.93253 67.659615 424.32315 66.597115ZM418.83878 63.89399L424.33878 63.89399Q424.2294 62.659615 423.71378 62.034615Q422.9169 61.065865 421.63565 61.065865Q420.49503 61.065865 419.70596 61.839302Q418.9169 62.61274 418.83878 63.89399ZM427.49503 66.17524L429.1669 65.95649Q429.44815 67.378365 430.14346 68.003365Q430.83878 68.628365 431.82315 68.628365Q433.01065 68.628365 433.82315 67.80805Q434.63565 66.98774 434.63565 65.784615Q434.63565 64.64399 433.87784 63.89399Q433.12003 63.14399 431.96378 63.14399Q431.49503 63.14399 430.7919 63.33149L430.9794 61.86274Q431.13565 61.878365 431.24503 61.878365Q432.30753 61.878365 433.1591 61.323677Q434.01065 60.76899 434.01065 59.61274Q434.01065 58.690865 433.39346 58.089302Q432.77628 57.48774 431.7919 57.48774Q430.82315 57.48774 430.1747 58.097115Q429.52628 58.70649 429.33878 59.940865L427.6669 59.64399Q427.96378 57.95649 429.0497 57.034615Q430.13565 56.11274 431.76065 56.11274Q432.87003 56.11274 433.80753 56.589302Q434.74503 57.065865 435.2372 57.89399Q435.7294 58.722115 435.7294 59.64399Q435.7294 60.534615 435.26065 61.253365Q434.7919 61.972115 433.8544 62.409615Q435.07315 62.67524 435.7372 63.558052Q436.40128 64.440865 436.40128 65.753365Q436.40128 67.534615 435.1044 68.76899Q433.80753 70.003365 431.82315 70.003365Q430.02628 70.003365 428.8466 68.940865Q427.6669 67.878365 427.49503 66.17524ZM446.63565 68.159615L446.63565 69.76899L437.65128 69.76899Q437.63565 69.159615 437.83878 68.61274Q438.18253 67.690865 438.94034 66.80024Q439.69815 65.909615 441.12003 64.73774Q443.33878 62.92524 444.12003 61.86274Q444.90128 60.80024 444.90128 59.847115Q444.90128 58.86274 444.19034 58.17524Q443.4794 57.48774 442.33878 57.48774Q441.13565 57.48774 440.4091 58.214302Q439.68253 58.940865 439.68253 60.222115L437.96378 60.05024Q438.13565 58.128365 439.2919 57.120552Q440.44815 56.11274 442.38565 56.11274Q444.33878 56.11274 445.4794 57.198677Q446.62003 58.284615 446.62003 59.89399Q446.62003 60.70649 446.2841 61.495552Q445.94815 62.284615 445.1747 63.151802Q444.40128 64.01899 442.6044 65.55024Q441.1044 66.815865 440.6747 67.26118Q440.24503 67.70649 439.96378 68.159615L446.63565 68.159615ZM451.88565 73.76899Q450.51065 72.01899 449.55753 69.68305Q448.6044 67.347115 448.6044 64.847115Q448.6044 62.628365 449.30753 60.61274Q450.15128 58.26899 451.88565 55.940865L453.08878 55.940865Q451.96378 57.86274 451.6044 58.690865Q451.0419 59.972115 450.71378 61.36274Q450.30753 63.097115 450.30753 64.847115Q450.30753 69.315865 453.08878 73.76899L451.88565 73.76899ZM459.02628 69.76899L453.74503 56.17524L455.69815 56.17524L459.2294 66.05024Q459.6669 67.23774 459.94815 68.26899Q460.26065 67.159615 460.68253 66.05024L464.3544 56.17524L466.19815 56.17524L460.87003 69.76899L459.02628 69.76899ZM474.1044 66.597115L475.82315 66.815865Q475.4169 68.315865 474.31534 69.1518Q473.21378 69.98774 471.49503 69.98774Q469.33878 69.98774 468.07315 68.659615Q466.80753 67.33149 466.80753 64.92524Q466.80753 62.440865 468.08096 61.065865Q469.3544 59.690865 471.40128 59.690865Q473.38565 59.690865 474.63565 61.034615Q475.88565 62.378365 475.88565 64.83149Q475.88565 64.972115 475.87003 65.26899L468.52628 65.26899Q468.62003 66.89399 469.44815 67.753365Q470.27628 68.61274 471.51065 68.61274Q472.4169 68.61274 473.06534 68.13618Q473.71378 67.659615 474.1044 66.597115ZM468.62003 63.89399L474.12003 63.89399Q474.01065 62.659615 473.49503 62.034615Q472.69815 61.065865 471.4169 61.065865Q470.27628 61.065865 469.4872 61.839302Q468.69815 62.61274 468.62003 63.89399ZM477.71378 69.76899L477.71378 59.909615L479.21378 59.909615L479.21378 61.409615Q479.7919 60.36274 480.27628 60.026802Q480.76065 59.690865 481.3544 59.690865Q482.19815 59.690865 483.07315 60.23774L482.49503 61.784615Q481.88565 61.42524 481.26065 61.42524Q480.71378 61.42524 480.2841 61.753365Q479.8544 62.08149 479.6669 62.659615Q479.38565 63.55024 479.38565 64.61274L479.38565 69.76899L477.71378 69.76899ZM483.96378 58.08149L483.96378 56.17524L485.63565 56.17524L485.63565 58.08149L483.96378 58.08149ZM483.96378 69.76899L483.96378 59.909615L485.63565 59.909615L485.63565 69.76899L483.96378 69.76899ZM488.49503 69.76899L488.49503 61.222115L487.01065 61.222115L487.01065 59.909615L488.49503 59.909615L488.49503 58.86274Q488.49503 57.878365 488.6669 57.39399Q488.90128 56.73774 489.51065 56.339302Q490.12003 55.940865 491.21378 55.940865Q491.9169 55.940865 492.77628 56.097115L492.52628 57.565865Q492.01065 57.472115 491.5419 57.472115Q490.77628 57.472115 490.46378 57.792427Q490.15128 58.11274 490.15128 59.003365L490.15128 59.909615L492.07315 59.909615L492.07315 61.222115L490.15128 61.222115L490.15128 69.76899L488.49503 69.76899ZM493.19815 73.565865L493.02628 72.003365Q493.57315 72.14399 493.9794 72.14399Q494.52628 72.14399 494.8622 71.95649Q495.19815 71.76899 495.4169 71.440865Q495.57315 71.190865 495.9169 70.190865Q495.96378 70.05024 496.07315 69.784615L492.33878 59.909615L494.13565 59.909615L496.18253 65.628365Q496.58878 66.70649 496.90128 67.909615Q497.18253 66.753365 497.58878 65.659615L499.68253 59.909615L501.3544 59.909615L497.6044 69.940865Q497.01065 71.565865 496.6669 72.17524Q496.2294 73.003365 495.65128 73.38618Q495.07315 73.76899 494.27628 73.76899Q493.7919 73.76899 493.19815 73.565865ZM503.69815 73.76899L502.51065 73.76899Q505.27628 69.315865 505.27628 64.847115Q505.27628 63.11274 504.88565 61.39399Q504.55753 60.003365 503.99503 58.722115Q503.63565 57.878365 502.51065 55.940865L503.69815 55.940865Q505.44815 58.26899 506.27628 60.61274Q506.99503 62.628365 506.99503 64.847115Q506.99503 67.347115 506.0341 69.68305Q505.07315 72.01899 503.69815 73.76899Z" fill-rule="nonzero" fill="#000000"></path></svg>

