<?xml version="1.0" standalone="yes"?>

<svg version="1.1" viewBox="0.0 0.0 960.0 720.0" fill="none" stroke="none" stroke-linecap="square" stroke-miterlimit="10" xmlns="http://www.w3.org/2000/svg" xmlns:xlink="http://www.w3.org/1999/xlink"><path d="M540.4665 250.40643L701.4347 250.40643L701.4347 513.8281C620.95056 513.8281 620.95056 614.19666 540.4665 557.16907Z" fill-rule="nonzero" fill="#d9d2e9" stroke="#073763" stroke-width="2.0" stroke-linejoin="round" stroke-linecap="butt"></path><path d="M551.2946 274.00018L551.2946 263.2658L558.529 263.2658L558.529 264.53143L552.7165 264.53143L552.7165 267.85956L557.74774 267.85956L557.74774 269.12518L552.7165 269.12518L552.7165 274.00018L551.2946 274.00018ZM560.01337 264.78143L560.01337 263.2658L561.32587 263.2658L561.32587 264.78143L560.01337 264.78143ZM560.01337 274.00018L560.01337 266.21893L561.32587 266.21893L561.32587 274.00018L560.01337 274.00018ZM563.2165 274.00018L563.2165 263.2658L564.5446 263.2658L564.5446 274.00018L563.2165 274.00018ZM571.8415 271.50018L573.20087 271.65643Q572.88837 272.85956 572.01337 273.5158Q571.13837 274.17206 569.779 274.17206Q568.07587 274.17206 567.07587 273.12518Q566.07587 272.0783 566.07587 270.17206Q566.07587 268.21893 567.0915 267.133Q568.1071 266.04706 569.7165 266.04706Q571.279 266.04706 572.26337 267.10956Q573.24774 268.17206 573.24774 270.09393Q573.24774 270.21893 573.24774 270.4533L567.43524 270.4533Q567.51337 271.73456 568.1618 272.41425Q568.81024 273.09393 569.7946 273.09393Q570.51337 273.09393 571.029 272.71112Q571.5446 272.3283 571.8415 271.50018ZM567.51337 269.35956L571.8571 269.35956Q571.76337 268.37518 571.3571 267.8908Q570.7321 267.12518 569.7321 267.12518Q568.81024 267.12518 568.19305 267.73456Q567.57587 268.34393 567.51337 269.35956Z" fill-rule="nonzero" fill="#000000"></path><path d="M562.19617 355.94812L683.14105 355.94812L683.14105 438.5308L562.19617 438.5308Z" fill-rule="nonzero" fill="#f4cccc" stroke="#073763" stroke-width="2.0" stroke-linejoin="round" stroke-linecap="butt"></path><path d="M593.6696 430.30713C627.16437 438.17496 627.16437 422.43933 660.6555 422.43933L660.6555 381.54095L593.6696 381.54095ZM599.1884 381.54095L599.1884 376.23874L665.71686 376.23874L665.71686 417.39365C663.188 417.39365 660.6555 417.6787 660.6555 417.6787L660.6555 381.54095ZM604.37585 376.23874L604.37585 371.0648L671.48065 371.0648L671.48065 412.09143C668.59875 412.09143 665.71686 412.30524 665.71686 412.30524L665.71686 376.23874Z" fill-rule="nonzero" fill="#cfe2f3"></path><path d="M593.6696 381.54095L660.6555 381.54095L660.6555 422.43933C627.16437 422.43933 627.16437 438.17496 593.6696 430.30713ZM599.1884 381.54095L599.1884 376.23874L665.71686 376.23874L665.71686 417.39365C663.188 417.39365 660.6555 417.6787 660.6555 417.6787M604.37585 376.23874L604.37585 371.0648L671.48065 371.0648L671.48065 412.09143C668.59875 412.09143 665.71686 412.30524 665.71686 412.30524" fill-rule="nonzero" stroke="#073763" stroke-width="2.0" stroke-linejoin="round" stroke-linecap="butt"></path><path d="M611.45087 408.15033L612.68524 408.46283Q612.2946 409.97845 611.2868 410.77533Q610.279 411.5722 608.82587 411.5722Q607.32587 411.5722 606.38055 410.96283Q605.43524 410.35345 604.94305 409.1894Q604.45087 408.02533 604.45087 406.6972Q604.45087 405.24408 605.01337 404.15814Q605.57587 403.0722 606.5993 402.5097Q607.62274 401.9472 608.8571 401.9472Q610.24774 401.9472 611.20087 402.65814Q612.154 403.36908 612.529 404.66595L611.31024 404.9472Q610.9821 403.93158 610.37274 403.47064Q609.76337 403.0097 608.82587 403.0097Q607.74774 403.0097 607.029 403.52533Q606.31024 404.04095 606.0212 404.90033Q605.7321 405.7597 605.7321 406.68158Q605.7321 407.86908 606.07587 408.7597Q606.4196 409.65033 607.1462 410.08783Q607.87274 410.52533 608.7321 410.52533Q609.76337 410.52533 610.4821 409.92377Q611.20087 409.3222 611.45087 408.15033ZM613.87274 408.04095Q613.87274 406.16595 614.904 405.27533Q615.779 404.52533 617.029 404.52533Q618.4196 404.52533 619.3024 405.43158Q620.18524 406.33783 620.18524 407.9472Q620.18524 409.24408 619.7946 409.99408Q619.404 410.74408 618.654 411.15814Q617.904 411.5722 617.029 411.5722Q615.6071 411.5722 614.7399 410.66595Q613.87274 409.7597 613.87274 408.04095ZM615.0446 408.04095Q615.0446 409.33783 615.6071 409.98627Q616.1696 410.6347 617.029 410.6347Q617.87274 410.6347 618.44305 409.98627Q619.01337 409.33783 619.01337 408.0097Q619.01337 406.7597 618.44305 406.11127Q617.87274 405.46283 617.029 405.46283Q616.1696 405.46283 615.6071 406.10345Q615.0446 406.74408 615.0446 408.04095ZM621.7165 411.41595L621.7165 404.68158L622.74774 404.68158L622.74774 405.6347Q623.4821 404.52533 624.88837 404.52533Q625.49774 404.52533 626.00555 404.74408Q626.51337 404.96283 626.7712 405.3144Q627.029 405.66595 627.12274 406.16595Q627.18524 406.47845 627.18524 407.27533L627.18524 411.41595L626.0446 411.41595L626.0446 407.3222Q626.0446 406.61908 625.9118 406.27533Q625.779 405.93158 625.44305 405.72064Q625.1071 405.5097 624.654 405.5097Q623.9196 405.5097 623.38837 405.97064Q622.8571 406.43158 622.8571 407.72845L622.8571 411.41595L621.7165 411.41595ZM631.62274 410.40033L631.779 411.40033Q631.2946 411.5097 630.9196 411.5097Q630.2946 411.5097 629.95087 411.30658Q629.6071 411.10345 629.4665 410.78314Q629.32587 410.46283 629.32587 409.4472L629.32587 405.55658L628.49774 405.55658L628.49774 404.68158L629.32587 404.68158L629.32587 403.0097L630.4665 402.3222L630.4665 404.68158L631.62274 404.68158L631.62274 405.55658L630.4665 405.55658L630.4665 409.5097Q630.4665 409.99408 630.529 410.1347Q630.5915 410.27533 630.7243 410.35345Q630.8571 410.43158 631.1071 410.43158Q631.31024 410.43158 631.62274 410.40033ZM637.43524 409.24408L638.62274 409.3847Q638.3415 410.43158 637.5837 411.0019Q636.82587 411.5722 635.654 411.5722Q634.1696 411.5722 633.3024 410.65814Q632.43524 409.74408 632.43524 408.10345Q632.43524 406.40033 633.31805 405.46283Q634.20087 404.52533 635.5915 404.52533Q636.95087 404.52533 637.8024 405.4472Q638.654 406.36908 638.654 408.02533Q638.654 408.1347 638.654 408.33783L633.62274 408.33783Q633.68524 409.4472 634.24774 410.04095Q634.81024 410.6347 635.654 410.6347Q636.2946 410.6347 636.7399 410.29877Q637.18524 409.96283 637.43524 409.24408ZM633.68524 407.40033L637.45087 407.40033Q637.37274 406.54095 637.01337 406.11908Q636.4665 405.46283 635.6071 405.46283Q634.81024 405.46283 634.279 405.98627Q633.74774 406.5097 633.68524 407.40033ZM640.2321 411.41595L640.2321 404.68158L641.26337 404.68158L641.26337 405.6347Q641.99774 404.52533 643.404 404.52533Q644.01337 404.52533 644.5212 404.74408Q645.029 404.96283 645.2868 405.3144Q645.5446 405.66595 645.63837 406.16595Q645.70087 406.47845 645.70087 407.27533L645.70087 411.41595L644.56024 411.41595L644.56024 407.3222Q644.56024 406.61908 644.4274 406.27533Q644.2946 405.93158 643.9587 405.72064Q643.62274 405.5097 643.1696 405.5097Q642.43524 405.5097 641.904 405.97064Q641.37274 406.43158 641.37274 407.72845L641.37274 411.41595L640.2321 411.41595ZM650.154 410.40033L650.31024 411.40033Q649.82587 411.5097 649.45087 411.5097Q648.82587 411.5097 648.4821 411.30658Q648.13837 411.10345 647.99774 410.78314Q647.8571 410.46283 647.8571 409.4472L647.8571 405.55658L647.029 405.55658L647.029 404.68158L647.8571 404.68158L647.8571 403.0097L648.99774 402.3222L648.99774 404.68158L650.154 404.68158L650.154 405.55658L648.99774 405.55658L648.99774 409.5097Q648.99774 409.99408 649.06024 410.1347Q649.12274 410.27533 649.25555 410.35345Q649.38837 410.43158 649.63837 410.43158Q649.8415 410.43158 650.154 410.40033Z" fill-rule="nonzero" fill="#000000"></path><path d="M567.22705 372.49304L570.8052 363.18054L572.1177 363.18054L575.9302 372.49304L574.5239 372.49304L573.4458 369.68054L569.5552 369.68054L568.5239 372.49304L567.22705 372.49304ZM569.91455 368.66492L573.0708 368.66492L572.0864 366.0868Q571.6489 364.91492 571.4302 364.16492Q571.2583 365.05554 570.9302 365.94617L569.91455 368.66492ZM577.16455 372.49304L577.16455 363.18054L583.8833 363.18054L583.8833 364.28992L578.3989 364.28992L578.3989 367.13367L583.53955 367.13367L583.53955 368.22742L578.3989 368.22742L578.3989 371.3993L584.10205 371.3993L584.10205 372.49304L577.16455 372.49304ZM585.60205 369.50867L586.7739 369.3993Q586.85205 370.10242 587.15674 370.54773Q587.4614 370.99304 588.09424 371.26648Q588.72705 371.53992 589.5239 371.53992Q590.22705 371.53992 590.7661 371.3368Q591.3052 371.13367 591.5708 370.76648Q591.8364 370.3993 591.8364 369.9618Q591.8364 369.5243 591.5786 369.19617Q591.3208 368.86804 590.7427 368.6493Q590.3677 368.50867 589.0864 368.19617Q587.8052 367.88367 587.28955 367.61804Q586.6177 367.2743 586.28955 366.75085Q585.9614 366.22742 585.9614 365.5868Q585.9614 364.88367 586.35986 364.2743Q586.7583 363.66492 587.53174 363.3446Q588.3052 363.0243 589.2427 363.0243Q590.2739 363.0243 591.063 363.36023Q591.85205 363.69617 592.28174 364.3446Q592.7114 364.99304 592.7427 365.80554L591.5552 365.8993Q591.4614 365.00867 590.91455 364.56335Q590.3677 364.11804 589.28955 364.11804Q588.1802 364.11804 587.66455 364.5243Q587.1489 364.93054 587.1489 365.50867Q587.1489 366.00867 587.5083 366.3368Q587.8677 366.66492 589.3677 367.00085Q590.8677 367.3368 591.4302 367.5868Q592.2427 367.9618 592.6255 368.53992Q593.0083 369.11804 593.0083 369.86804Q593.0083 370.60242 592.5864 371.25867Q592.16455 371.91492 591.3677 372.2821Q590.5708 372.6493 589.5708 372.6493Q588.3052 372.6493 587.4536 372.2821Q586.60205 371.91492 586.1177 371.17273Q585.6333 370.43054 585.60205 369.50867Z" fill-rule="nonzero" fill="#ff0000"></path><path d="M562.29034 438.5915L683.20374 438.5915L683.20374 495.75684L562.29034 495.75684Z" fill-rule="nonzero" fill="#f4cccc" stroke="#073763" stroke-width="2.0" stroke-linejoin="round" stroke-linecap="butt"></path><path d="M569.2862 452.22913L572.8643 442.91663L574.1768 442.91663L577.9893 452.22913L576.58307 452.22913L575.50494 449.41663L571.6143 449.41663L570.58307 452.22913L569.2862 452.22913ZM571.9737 448.401L575.12994 448.401L574.14557 445.82288Q573.70807 444.651 573.4893 443.901Q573.31744 444.79163 572.9893 445.68225L571.9737 448.401ZM579.2237 452.22913L579.2237 442.91663L585.94244 442.91663L585.94244 444.026L580.45807 444.026L580.45807 446.86975L585.5987 446.86975L585.5987 447.9635L580.45807 447.9635L580.45807 451.13538L586.1612 451.13538L586.1612 452.22913L579.2237 452.22913ZM587.6612 449.24475L588.83307 449.13538Q588.9112 449.8385 589.2159 450.2838Q589.52057 450.72913 590.1534 451.00256Q590.7862 451.276 591.58307 451.276Q592.2862 451.276 592.82526 451.07288Q593.3643 450.86975 593.62994 450.50256Q593.89557 450.13538 593.89557 449.69788Q593.89557 449.26038 593.63776 448.93225Q593.37994 448.60413 592.8018 448.38538Q592.4268 448.24475 591.14557 447.93225Q589.8643 447.61975 589.3487 447.35413Q588.6768 447.01038 588.3487 446.48694Q588.02057 445.9635 588.02057 445.32288Q588.02057 444.61975 588.419 444.01038Q588.81744 443.401 589.5909 443.0807Q590.3643 442.76038 591.3018 442.76038Q592.33307 442.76038 593.12213 443.0963Q593.9112 443.43225 594.3409 444.0807Q594.77057 444.72913 594.8018 445.54163L593.6143 445.63538Q593.52057 444.74475 592.9737 444.29944Q592.4268 443.85413 591.3487 443.85413Q590.2393 443.85413 589.7237 444.26038Q589.20807 444.66663 589.20807 445.24475Q589.20807 445.74475 589.56744 446.07288Q589.9268 446.401 591.4268 446.73694Q592.9268 447.07288 593.4893 447.32288Q594.3018 447.69788 594.68463 448.276Q595.06744 448.85413 595.06744 449.60413Q595.06744 450.3385 594.64557 450.99475Q594.2237 451.651 593.4268 452.0182Q592.62994 452.38538 591.62994 452.38538Q590.3643 452.38538 589.51276 452.0182Q588.6612 451.651 588.1768 450.9088Q587.69244 450.16663 587.6612 449.24475Z" fill-rule="nonzero" fill="#ff0000"></path><path d="M578.2274 487.95798L595.31665 459.10886L663.67377 459.10886L646.58453 487.95798Z" fill-rule="nonzero" fill="#cfe2f3" stroke="#073763" stroke-width="2.0" stroke-linejoin="round" stroke-linecap="butt"></path><path d="M606.426 479.03073L606.426 469.71823L607.6448 469.71823L607.6448 473.54636L612.4885 473.54636L612.4885 469.71823L613.7229 469.71823L613.7229 479.03073L612.4885 479.03073L612.4885 474.6401L607.6448 474.6401L607.6448 479.03073L606.426 479.03073ZM620.25415 478.2026Q619.62915 478.73386 619.0432 478.96042Q618.4573 479.18698 617.7854 479.18698Q616.6604 479.18698 616.06665 478.6401Q615.4729 478.09323 615.4729 477.24948Q615.4729 476.7651 615.69946 476.35104Q615.926 475.93698 616.2932 475.68698Q616.6604 475.43698 617.1135 475.31198Q617.44165 475.23386 618.12915 475.1401Q619.50415 474.98386 620.1604 474.74948Q620.176 474.5151 620.176 474.4526Q620.176 473.74948 619.8479 473.46823Q619.4104 473.0776 618.551 473.0776Q617.7385 473.0776 617.3557 473.35886Q616.9729 473.6401 616.7854 474.35886L615.676 474.21823Q615.81665 473.49948 616.1682 473.05417Q616.5198 472.60886 617.18384 472.37448Q617.8479 472.1401 618.7073 472.1401Q619.5823 472.1401 620.12134 472.34323Q620.6604 472.54636 620.9104 472.85104Q621.1604 473.15573 621.2698 473.62448Q621.31665 473.92136 621.31665 474.68698L621.31665 476.2026Q621.31665 477.79636 621.3948 478.21823Q621.4729 478.6401 621.676 479.03073L620.4885 479.03073Q620.31665 478.67136 620.25415 478.2026ZM620.1604 475.6401Q619.5354 475.90573 618.301 476.0776Q617.5979 476.18698 617.301 476.31198Q617.00415 476.43698 616.8479 476.67917Q616.69165 476.92136 616.69165 477.21823Q616.69165 477.67136 617.0354 477.97604Q617.37915 478.28073 618.051 478.28073Q618.7073 478.28073 619.2229 477.99167Q619.7385 477.7026 619.9885 477.2026Q620.1604 476.8276 620.1604 476.06198L620.1604 475.6401ZM622.8323 477.0151L623.9573 476.84323Q624.051 477.5151 624.4885 477.8823Q624.926 478.24948 625.7073 478.24948Q626.4885 478.24948 626.87134 477.92917Q627.25415 477.60886 627.25415 477.17136Q627.25415 476.78073 626.9104 476.56198Q626.676 476.40573 625.7385 476.17136Q624.4885 475.85886 624.00415 475.62448Q623.5198 475.3901 623.2698 474.98386Q623.0198 474.5776 623.0198 474.0776Q623.0198 473.62448 623.2229 473.24167Q623.426 472.85886 623.7854 472.60886Q624.051 472.40573 624.51196 472.27292Q624.9729 472.1401 625.50415 472.1401Q626.2854 472.1401 626.88696 472.36667Q627.4885 472.59323 627.7776 472.98386Q628.06665 473.37448 628.176 474.03073L627.051 474.18698Q626.9729 473.65573 626.6135 473.36667Q626.25415 473.0776 625.5823 473.0776Q624.801 473.0776 624.4573 473.33542Q624.1135 473.59323 624.1135 473.9526Q624.1135 474.17136 624.25415 474.34323Q624.3948 474.53073 624.69165 474.65573Q624.8635 474.71823 625.7073 474.93698Q626.926 475.2651 627.4026 475.46823Q627.87915 475.67136 628.1526 476.0698Q628.426 476.46823 628.426 477.04636Q628.426 477.62448 628.0901 478.12448Q627.75415 478.62448 627.12915 478.90573Q626.50415 479.18698 625.7073 479.18698Q624.3948 479.18698 623.7073 478.6401Q623.0198 478.09323 622.8323 477.0151ZM629.94165 479.03073L629.94165 469.71823L631.0823 469.71823L631.0823 473.06198Q631.87915 472.1401 633.0979 472.1401Q633.8479 472.1401 634.4026 472.43698Q634.9573 472.73386 635.19165 473.24948Q635.426 473.7651 635.426 474.7651L635.426 479.03073L634.2854 479.03073L634.2854 474.7651Q634.2854 473.90573 633.9182 473.5151Q633.551 473.12448 632.8635 473.12448Q632.3635 473.12448 631.9104 473.3823Q631.4573 473.6401 631.2698 474.09323Q631.0823 474.54636 631.0823 475.34323L631.0823 479.03073L629.94165 479.03073Z" fill-rule="nonzero" fill="#000000"></path><path d="M565.34033 284.71106L686.56866 284.71106L686.56866 341.30554L565.34033 341.30554Z" fill-rule="nonzero" fill="#ffffff" stroke="#073763" stroke-width="2.0" stroke-linejoin="round" stroke-linecap="butt"></path><path d="M570.82745 322.34918Q570.82745 320.47418 571.8587 319.58356Q572.7337 318.83356 573.9837 318.83356Q575.3743 318.83356 576.25714 319.7398Q577.13995 320.64606 577.13995 322.25543Q577.13995 323.5523 576.7493 324.3023Q576.3587 325.0523 575.6087 325.46637Q574.8587 325.88043 573.9837 325.88043Q572.5618 325.88043 571.69464 324.97418Q570.82745 324.06793 570.82745 322.34918ZM571.9993 322.34918Q571.9993 323.64606 572.5618 324.2945Q573.1243 324.94293 573.9837 324.94293Q574.82745 324.94293 575.39777 324.2945Q575.9681 323.64606 575.9681 322.31793Q575.9681 321.06793 575.39777 320.4195Q574.82745 319.77106 573.9837 319.77106Q573.1243 319.77106 572.5618 320.41168Q571.9993 321.0523 571.9993 322.34918ZM582.7181 325.72418L582.7181 316.41168L583.9368 316.41168L583.9368 325.72418L582.7181 325.72418ZM588.8587 325.72418L585.26495 316.41168L586.5931 316.41168L589.01495 323.1773Q589.2962 323.9898 589.4993 324.70856Q589.7181 323.94293 589.9993 323.1773L592.51495 316.41168L593.76495 316.41168L590.1243 325.72418L588.8587 325.72418Z" fill-rule="nonzero" fill="#000000"></path><path d="M569.7393 307.39886Q569.7393 305.52386 570.77057 304.63324Q571.64557 303.88324 572.89557 303.88324Q574.2862 303.88324 575.169 304.7895Q576.0518 305.69574 576.0518 307.3051Q576.0518 308.602 575.6612 309.352Q575.27057 310.102 574.52057 310.51605Q573.77057 310.9301 572.89557 310.9301Q571.4737 310.9301 570.6065 310.02386Q569.7393 309.1176 569.7393 307.39886ZM570.9112 307.39886Q570.9112 308.69574 571.4737 309.34418Q572.0362 309.9926 572.89557 309.9926Q573.7393 309.9926 574.30963 309.34418Q574.87994 308.69574 574.87994 307.3676Q574.87994 306.1176 574.30963 305.46918Q573.7393 304.82074 572.89557 304.82074Q572.0362 304.82074 571.4737 305.46136Q570.9112 306.102 570.9112 307.39886ZM580.9893 307.7895L582.1612 307.6801Q582.2393 308.38324 582.544 308.82855Q582.8487 309.27386 583.4815 309.5473Q584.1143 309.82074 584.9112 309.82074Q585.6143 309.82074 586.1534 309.6176Q586.69244 309.4145 586.95807 309.0473Q587.2237 308.6801 587.2237 308.2426Q587.2237 307.8051 586.9659 307.477Q586.70807 307.14886 586.12994 306.9301Q585.75494 306.7895 584.4737 306.477Q583.19244 306.1645 582.6768 305.89886Q582.00494 305.5551 581.6768 305.03168Q581.3487 304.50824 581.3487 303.8676Q581.3487 303.1645 581.74713 302.5551Q582.14557 301.94574 582.919 301.62543Q583.69244 301.3051 584.62994 301.3051Q585.6612 301.3051 586.45026 301.64105Q587.2393 301.977 587.669 302.62543Q588.0987 303.27386 588.12994 304.08636L586.94244 304.1801Q586.8487 303.2895 586.3018 302.84418Q585.75494 302.39886 584.6768 302.39886Q583.56744 302.39886 583.0518 302.8051Q582.5362 303.21136 582.5362 303.7895Q582.5362 304.2895 582.89557 304.6176Q583.25494 304.94574 584.75494 305.28168Q586.25494 305.6176 586.81744 305.8676Q587.62994 306.2426 588.01276 306.82074Q588.39557 307.39886 588.39557 308.14886Q588.39557 308.88324 587.9737 309.5395Q587.5518 310.19574 586.75494 310.56293Q585.95807 310.9301 584.95807 310.9301Q583.69244 310.9301 582.8409 310.56293Q581.9893 310.19574 581.50494 309.45355Q581.02057 308.71136 580.9893 307.7895ZM592.6612 309.75824L592.81744 310.75824Q592.33307 310.8676 591.95807 310.8676Q591.33307 310.8676 590.9893 310.6645Q590.64557 310.46136 590.50494 310.14105Q590.3643 309.82074 590.3643 308.8051L590.3643 304.9145L589.5362 304.9145L589.5362 304.0395L590.3643 304.0395L590.3643 302.3676L591.50494 301.6801L591.50494 304.0395L592.6612 304.0395L592.6612 304.9145L591.50494 304.9145L591.50494 308.8676Q591.50494 309.352 591.56744 309.4926Q591.62994 309.63324 591.76276 309.71136Q591.89557 309.7895 592.14557 309.7895Q592.3487 309.7895 592.6612 309.75824ZM593.44244 307.39886Q593.44244 305.52386 594.4737 304.63324Q595.3487 303.88324 596.5987 303.88324Q597.9893 303.88324 598.87213 304.7895Q599.75494 305.69574 599.75494 307.3051Q599.75494 308.602 599.3643 309.352Q598.9737 310.102 598.2237 310.51605Q597.4737 310.9301 596.5987 310.9301Q595.1768 310.9301 594.30963 310.02386Q593.44244 309.1176 593.44244 307.39886ZM594.6143 307.39886Q594.6143 308.69574 595.1768 309.34418Q595.7393 309.9926 596.5987 309.9926Q597.44244 309.9926 598.01276 309.34418Q598.58307 308.69574 598.58307 307.3676Q598.58307 306.1176 598.01276 305.46918Q597.44244 304.82074 596.5987 304.82074Q595.7393 304.82074 595.1768 305.46136Q594.6143 306.102 594.6143 307.39886ZM601.27057 310.77386L601.27057 304.0395L602.3018 304.0395L602.3018 305.0551Q602.69244 304.33636 603.0284 304.1098Q603.3643 303.88324 603.75494 303.88324Q604.33307 303.88324 604.9268 304.2426L604.5362 305.3051Q604.1143 305.0551 603.70807 305.0551Q603.33307 305.0551 603.0284 305.28168Q602.7237 305.50824 602.5987 305.9145Q602.4112 306.52386 602.4112 307.2426L602.4112 310.77386L601.27057 310.77386ZM610.1143 309.94574Q609.4893 310.477 608.9034 310.70355Q608.31744 310.9301 607.64557 310.9301Q606.52057 310.9301 605.9268 310.38324Q605.33307 309.83636 605.33307 308.9926Q605.33307 308.50824 605.55963 308.09418Q605.7862 307.6801 606.1534 307.4301Q606.52057 307.1801 606.9737 307.0551Q607.3018 306.977 607.9893 306.88324Q609.3643 306.727 610.02057 306.4926Q610.0362 306.25824 610.0362 306.19574Q610.0362 305.4926 609.70807 305.21136Q609.27057 304.82074 608.4112 304.82074Q607.5987 304.82074 607.2159 305.102Q606.83307 305.38324 606.64557 306.102L605.5362 305.96136Q605.6768 305.2426 606.0284 304.7973Q606.37994 304.352 607.044 304.1176Q607.70807 303.88324 608.56744 303.88324Q609.44244 303.88324 609.9815 304.08636Q610.52057 304.2895 610.77057 304.59418Q611.02057 304.89886 611.12994 305.3676Q611.1768 305.6645 611.1768 306.4301L611.1768 307.94574Q611.1768 309.5395 611.25494 309.96136Q611.33307 310.38324 611.5362 310.77386L610.3487 310.77386Q610.1768 310.4145 610.1143 309.94574ZM610.02057 307.38324Q609.39557 307.64886 608.1612 307.82074Q607.45807 307.9301 607.1612 308.0551Q606.8643 308.1801 606.70807 308.4223Q606.5518 308.6645 606.5518 308.96136Q606.5518 309.4145 606.89557 309.71918Q607.2393 310.02386 607.9112 310.02386Q608.56744 310.02386 609.08307 309.7348Q609.5987 309.44574 609.8487 308.94574Q610.02057 308.57074 610.02057 307.8051L610.02057 307.38324ZM612.9112 311.33636L614.0362 311.4926Q614.0987 312.00824 614.4112 312.2426Q614.8487 312.57074 615.58307 312.57074Q616.3643 312.57074 616.8018 312.25043Q617.2393 311.9301 617.37994 311.352Q617.4737 311.00824 617.4737 309.89886Q616.7237 310.77386 615.5987 310.77386Q614.20807 310.77386 613.45026 309.77386Q612.69244 308.77386 612.69244 307.3676Q612.69244 306.39886 613.044 305.58636Q613.39557 304.77386 614.0518 304.32855Q614.70807 303.88324 615.6143 303.88324Q616.8018 303.88324 617.58307 304.852L617.58307 304.0395L618.62994 304.0395L618.62994 309.852Q618.62994 311.4301 618.30963 312.08636Q617.9893 312.7426 617.294 313.12543Q616.5987 313.50824 615.58307 313.50824Q614.37994 313.50824 613.63776 312.96918Q612.89557 312.4301 612.9112 311.33636ZM613.8643 307.2895Q613.8643 308.602 614.38776 309.21136Q614.9112 309.82074 615.70807 309.82074Q616.50494 309.82074 617.0362 309.21918Q617.56744 308.6176 617.56744 307.32074Q617.56744 306.08636 617.02057 305.45355Q616.4737 304.82074 615.69244 304.82074Q614.9268 304.82074 614.39557 305.44574Q613.8643 306.07074 613.8643 307.2895ZM625.14557 308.602L626.33307 308.7426Q626.0518 309.7895 625.294 310.3598Q624.5362 310.9301 623.3643 310.9301Q621.87994 310.9301 621.01276 310.01605Q620.14557 309.102 620.14557 307.46136Q620.14557 305.75824 621.0284 304.82074Q621.9112 303.88324 623.3018 303.88324Q624.6612 303.88324 625.51276 304.8051Q626.3643 305.727 626.3643 307.38324Q626.3643 307.4926 626.3643 307.69574L621.33307 307.69574Q621.39557 308.8051 621.95807 309.39886Q622.52057 309.9926 623.3643 309.9926Q624.00494 309.9926 624.45026 309.65668Q624.89557 309.32074 625.14557 308.602ZM621.39557 306.75824L625.1612 306.75824Q625.08307 305.89886 624.7237 305.477Q624.1768 304.82074 623.31744 304.82074Q622.52057 304.82074 621.9893 305.34418Q621.45807 305.8676 621.39557 306.75824ZM632.02057 310.77386L632.02057 301.46136L633.2393 301.46136L633.2393 310.77386L632.02057 310.77386ZM635.3643 310.77386L635.3643 304.0395L636.39557 304.0395L636.39557 304.9926Q637.12994 303.88324 638.5362 303.88324Q639.14557 303.88324 639.6534 304.102Q640.1612 304.32074 640.419 304.6723Q640.6768 305.02386 640.77057 305.52386Q640.83307 305.83636 640.83307 306.63324L640.83307 310.77386L639.69244 310.77386L639.69244 306.6801Q639.69244 305.977 639.55963 305.63324Q639.4268 305.2895 639.0909 305.07855Q638.75494 304.8676 638.3018 304.8676Q637.56744 304.8676 637.0362 305.32855Q636.50494 305.7895 636.50494 307.08636L636.50494 310.77386L635.3643 310.77386ZM647.14557 310.77386L647.14557 309.9301Q646.50494 310.9301 645.25494 310.9301Q644.45807 310.9301 643.7784 310.4848Q643.0987 310.0395 642.7237 309.2426Q642.3487 308.44574 642.3487 307.4145Q642.3487 306.39886 642.69244 305.57855Q643.0362 304.75824 643.70807 304.32074Q644.37994 303.88324 645.20807 303.88324Q645.81744 303.88324 646.294 304.14105Q646.77057 304.39886 647.06744 304.8051L647.06744 301.46136L648.20807 301.46136L648.20807 310.77386L647.14557 310.77386ZM643.5362 307.4145Q643.5362 308.71136 644.07526 309.352Q644.6143 309.9926 645.3643 309.9926Q646.1143 309.9926 646.63776 309.37543Q647.1612 308.75824 647.1612 307.50824Q647.1612 306.1176 646.62994 305.46918Q646.0987 304.82074 645.31744 304.82074Q644.5518 304.82074 644.044 305.44574Q643.5362 306.07074 643.5362 307.4145ZM654.8018 308.602L655.9893 308.7426Q655.70807 309.7895 654.95026 310.3598Q654.19244 310.9301 653.02057 310.9301Q651.5362 310.9301 650.669 310.01605Q649.8018 309.102 649.8018 307.46136Q649.8018 305.75824 650.68463 304.82074Q651.56744 303.88324 652.95807 303.88324Q654.31744 303.88324 655.169 304.8051Q656.02057 305.727 656.02057 307.38324Q656.02057 307.4926 656.02057 307.69574L650.9893 307.69574Q651.0518 308.8051 651.6143 309.39886Q652.1768 309.9926 653.02057 309.9926Q653.6612 309.9926 654.1065 309.65668Q654.5518 309.32074 654.8018 308.602ZM651.0518 306.75824L654.81744 306.75824Q654.7393 305.89886 654.37994 305.477Q653.83307 304.82074 652.9737 304.82074Q652.1768 304.82074 651.64557 305.34418Q651.1143 305.8676 651.0518 306.75824ZM656.83307 310.77386L659.3018 307.27386L657.02057 304.0395L658.44244 304.0395L659.4893 305.6176Q659.77057 306.07074 659.95807 306.3676Q660.2237 305.94574 660.45807 305.63324L661.5987 304.0395L662.9737 304.0395L660.62994 307.21136L663.14557 310.77386L661.7393 310.77386L660.3643 308.6801L659.9893 308.1176L658.2237 310.77386L656.83307 310.77386Z" fill-rule="nonzero" fill="#000000"></path><path d="M348.3518 297.61517L345.88306 288.30267L347.14868 288.30267L348.57056 294.41205Q348.7893 295.36517 348.96118 296.3183Q349.32056 294.8183 349.38306 294.59955L351.14868 288.30267L352.63306 288.30267L353.96118 293.02142Q354.46118 294.77142 354.69556 296.3183Q354.86743 295.42767 355.14868 294.28705L356.61743 288.30267L357.8518 288.30267L355.30493 297.61517L354.11743 297.61517L352.14868 290.52142Q351.89868 289.6308 351.8518 289.42767Q351.71118 290.0683 351.58618 290.52142L349.61743 297.61517L348.3518 297.61517ZM359.14868 297.61517L359.14868 290.8808L360.17993 290.8808L360.17993 291.89642Q360.57056 291.17767 360.9065 290.9511Q361.24243 290.72455 361.63306 290.72455Q362.21118 290.72455 362.80493 291.08392L362.4143 292.14642Q361.99243 291.89642 361.58618 291.89642Q361.21118 291.89642 360.9065 292.123Q360.6018 292.34955 360.4768 292.7558Q360.2893 293.36517 360.2893 294.08392L360.2893 297.61517L359.14868 297.61517ZM363.6018 289.6308L363.6018 288.30267L364.74243 288.30267L364.74243 289.6308L363.6018 289.6308ZM363.6018 297.61517L363.6018 290.8808L364.74243 290.8808L364.74243 297.61517L363.6018 297.61517ZM369.07056 296.59955L369.2268 297.59955Q368.74243 297.70892 368.36743 297.70892Q367.74243 297.70892 367.39868 297.5058Q367.05493 297.30267 366.9143 296.98236Q366.77368 296.66205 366.77368 295.64642L366.77368 291.7558L365.94556 291.7558L365.94556 290.8808L366.77368 290.8808L366.77368 289.20892L367.9143 288.52142L367.9143 290.8808L369.07056 290.8808L369.07056 291.7558L367.9143 291.7558L367.9143 295.70892Q367.9143 296.1933 367.9768 296.33392Q368.0393 296.47455 368.17212 296.55267Q368.30493 296.6308 368.55493 296.6308Q368.75806 296.6308 369.07056 296.59955ZM374.88306 295.4433L376.07056 295.58392Q375.7893 296.6308 375.0315 297.2011Q374.27368 297.77142 373.1018 297.77142Q371.61743 297.77142 370.75024 296.85736Q369.88306 295.9433 369.88306 294.30267Q369.88306 292.59955 370.76587 291.66205Q371.64868 290.72455 373.0393 290.72455Q374.39868 290.72455 375.25024 291.64642Q376.1018 292.5683 376.1018 294.22455Q376.1018 294.33392 376.1018 294.53705L371.07056 294.53705Q371.13306 295.64642 371.69556 296.24017Q372.25806 296.83392 373.1018 296.83392Q373.74243 296.83392 374.18774 296.498Q374.63306 296.16205 374.88306 295.4433ZM371.13306 293.59955L374.89868 293.59955Q374.82056 292.74017 374.46118 292.3183Q373.9143 291.66205 373.05493 291.66205Q372.25806 291.66205 371.7268 292.1855Q371.19556 292.70892 371.13306 293.59955ZM381.4768 297.61517L381.4768 288.30267L382.71118 288.30267L382.71118 292.92767L387.33618 288.30267L388.99243 288.30267L385.1018 292.08392L389.1643 297.61517L387.5393 297.61517L384.2268 292.91205L382.71118 294.39642L382.71118 297.61517L381.4768 297.61517ZM394.88306 295.4433L396.07056 295.58392Q395.7893 296.6308 395.0315 297.2011Q394.27368 297.77142 393.1018 297.77142Q391.61743 297.77142 390.75024 296.85736Q389.88306 295.9433 389.88306 294.30267Q389.88306 292.59955 390.76587 291.66205Q391.64868 290.72455 393.0393 290.72455Q394.39868 290.72455 395.25024 291.64642Q396.1018 292.5683 396.1018 294.22455Q396.1018 294.33392 396.1018 294.53705L391.07056 294.53705Q391.13306 295.64642 391.69556 296.24017Q392.25806 296.83392 393.1018 296.83392Q393.74243 296.83392 394.18774 296.498Q394.63306 296.16205 394.88306 295.4433ZM391.13306 293.59955L394.89868 293.59955Q394.82056 292.74017 394.46118 292.3183Q393.9143 291.66205 393.05493 291.66205Q392.25806 291.66205 391.7268 292.1855Q391.19556 292.70892 391.13306 293.59955ZM397.63306 300.20892L397.49243 299.14642Q397.86743 299.24017 398.14868 299.24017Q398.5393 299.24017 398.76587 299.11517Q398.99243 298.99017 399.13306 298.7558Q399.24243 298.58392 399.49243 297.91205Q399.52368 297.8183 399.58618 297.6308L397.02368 290.8808L398.25806 290.8808L399.6643 294.77142Q399.92993 295.52142 400.14868 296.33392Q400.3518 295.55267 400.61743 294.80267L402.07056 290.8808L403.21118 290.8808L400.64868 297.72455Q400.2268 298.83392 400.00806 299.2558Q399.69556 299.8183 399.30493 300.08392Q398.9143 300.34955 398.36743 300.34955Q398.0393 300.34955 397.63306 300.20892Z" fill-rule="nonzero" fill="#000000"></path><path d="M356.41528 306.3237L356.41528 306.3237C356.41528 302.83664 359.30624 300.00983 362.8724 300.00983L362.8724 300.00983C364.58493 300.00983 366.22733 300.67505 367.43826 301.85913C368.6492 303.0432 369.3295 304.64914 369.3295 306.3237L369.3295 306.3237C369.3295 309.81073 366.43857 312.63754 362.8724 312.63754L362.8724 312.63754C359.30624 312.63754 356.41528 309.81073 356.41528 306.3237Z" fill-rule="nonzero" stroke="#073763" stroke-width="2.0" stroke-linejoin="round" stroke-linecap="butt"></path><path d="M367.05466 301.8596L392.82056 301.8596" fill-rule="nonzero" stroke="#073763" stroke-width="2.0" stroke-linejoin="round" stroke-linecap="butt"></path><path d="M392.3618 301.7975C392.3618 303.1176 392.10687 306.08167 390.89957 305.49078C390.12988 305.1141 390.8953 302.96982 390.04623 303.1078C388.941 303.28735 388.73355 305.98074 387.73145 305.49078C386.9515 305.10947 387.34015 302.95764 386.51294 303.2273C385.58105 303.53104 386.02704 305.62338 385.05072 305.7291C383.40683 305.9071 382.1691 303.9933 380.54184 303.7039C379.7104 303.55603 379.76755 305.2491 379.07962 305.7291C377.89816 306.55347 376.23486 303.7841 374.93668 304.4188C373.16208 305.28644 371.4371 306.6823 369.453 306.6823" fill-rule="evenodd" stroke="#073763" stroke-width="2.0" stroke-linejoin="round" stroke-linecap="butt"></path><path d="M371.15894 302.98898L385.7773 302.98898" fill-rule="nonzero" stroke="#cccccc" stroke-width="1.0" stroke-linejoin="round" stroke-linecap="butt"></path><path d="M360.8638 306.32892L360.8638 306.32892C360.8638 305.24136 361.76328 304.35974 362.87283 304.35974L362.87283 304.35974C363.40567 304.35974 363.9167 304.56723 364.29346 304.9365C364.67023 305.3058 364.8819 305.80667 364.8819 306.32892L364.8819 306.32892C364.8819 307.41647 363.9824 308.2981 362.87283 308.2981L362.87283 308.2981C361.76328 308.2981 360.8638 307.41647 360.8638 306.32892Z" fill-rule="nonzero" stroke="#073763" stroke-width="2.0" stroke-linejoin="round" stroke-linecap="butt"></path><path d="M435.63028 319.4608L494.8744 319.4608L494.8744 345.79147L435.63028 345.79147Z" fill-rule="nonzero" fill="#cfe2f3" stroke="#073763" stroke-width="2.0" stroke-linejoin="round" stroke-linecap="butt"></path><path d="M459.8334 338.11703L459.8334 328.80453L461.7084 328.80453L461.7084 338.11703L459.8334 338.11703ZM465.9584 338.11703L462.6459 328.80453L464.67715 328.80453L467.03653 335.69516L469.31778 328.80453L471.30215 328.80453L467.97403 338.11703L465.9584 338.11703Z" fill-rule="nonzero" fill="#000000"></path><path d="M494.8744 332.62613L553.58307 332.62613" fill-rule="evenodd" stroke="#073763" stroke-width="2.0" stroke-linejoin="round" stroke-linecap="butt"></path><path d="M553.58307 335.9296L562.65924 332.62613L553.58307 329.32266Z" fill-rule="evenodd" fill="#073763" stroke="#073763" stroke-width="2.0" stroke-linecap="butt"></path><path d="M423.33865 379.52258L511.18118 379.52258L511.18118 416.62494L423.33865 416.62494Z" fill-rule="nonzero" fill="#cfe2f3" stroke="#073763" stroke-width="2.0" stroke-linejoin="round" stroke-linecap="butt"></path><path d="M443.40115 403.56946L443.40115 394.25696L450.29178 394.25696L450.29178 395.83508L445.27615 395.83508L445.27615 397.89758L449.94803 397.89758L449.94803 399.4757L445.27615 399.4757L445.27615 402.00696L450.47928 402.00696L450.47928 403.56946L443.40115 403.56946ZM458.38553 403.56946L456.60428 403.56946L456.60428 400.13196Q456.60428 399.0382 456.4871 398.7179Q456.3699 398.39758 456.1121 398.2179Q455.85428 398.0382 455.4949 398.0382Q455.04178 398.0382 454.6746 398.29602Q454.3074 398.55383 454.16678 398.9679Q454.02615 399.38196 454.02615 400.52258L454.02615 403.56946L452.2449 403.56946L452.2449 396.83508L453.90115 396.83508L453.90115 397.81946Q454.77615 396.67883 456.1199 396.67883Q456.71365 396.67883 457.19803 396.88977Q457.6824 397.1007 457.94022 397.42883Q458.19803 397.75696 458.29178 398.17883Q458.38553 398.6007 458.38553 399.38196L458.38553 403.56946ZM466.29178 398.81946L464.52615 399.13196Q464.44803 398.61633 464.12772 398.3507Q463.8074 398.08508 463.3074 398.08508Q462.65115 398.08508 462.25272 398.5382Q461.85428 398.99133 461.85428 400.08508Q461.85428 401.27258 462.26053 401.77258Q462.66678 402.27258 463.33865 402.27258Q463.85428 402.27258 464.1746 401.98352Q464.4949 401.69446 464.6199 400.99133L466.38553 401.2882Q466.10428 402.49133 465.33084 403.10852Q464.5574 403.7257 463.26053 403.7257Q461.77615 403.7257 460.90115 402.7882Q460.02615 401.8507 460.02615 400.21008Q460.02615 398.5382 460.90115 397.60852Q461.77615 396.67883 463.29178 396.67883Q464.52615 396.67883 465.25272 397.21008Q465.97928 397.74133 466.29178 398.81946ZM469.52615 403.56946L467.7449 403.56946L467.7449 396.83508L469.40115 396.83508L469.40115 397.7882Q469.82303 397.1007 470.16678 396.88977Q470.51053 396.67883 470.9324 396.67883Q471.54178 396.67883 472.10428 397.00696L471.5574 398.56946Q471.10428 398.27258 470.71365 398.27258Q470.33865 398.27258 470.08084 398.48352Q469.82303 398.69446 469.6746 399.23352Q469.52615 399.77258 469.52615 401.49133L469.52615 403.56946ZM472.16678 396.83508L474.0574 396.83508L475.66678 401.61633L477.2449 396.83508L479.08865 396.83508L476.71365 403.31946L476.29178 404.49133Q476.0574 405.08508 475.84647 405.39758Q475.63553 405.71008 475.35428 405.89758Q475.07303 406.08508 474.6746 406.19446Q474.27615 406.30383 473.76053 406.30383Q473.2449 406.30383 472.7449 406.19446L472.58865 404.80383Q473.01053 404.88196 473.35428 404.88196Q473.96365 404.88196 474.26834 404.51477Q474.57303 404.14758 474.72928 403.58508L472.16678 396.83508ZM480.35428 396.83508L482.02615 396.83508L482.02615 397.81946Q482.35428 397.30383 482.90115 396.99133Q483.44803 396.67883 484.1199 396.67883Q485.3074 396.67883 486.1199 397.6007Q486.9324 398.52258 486.9324 400.1632Q486.9324 401.8507 486.1121 402.7882Q485.29178 403.7257 484.1199 403.7257Q483.5574 403.7257 483.10428 403.49915Q482.65115 403.27258 482.15115 402.74133L482.15115 406.13196L480.35428 406.13196L480.35428 396.83508ZM482.1199 400.08508Q482.1199 401.2257 482.57303 401.76477Q483.02615 402.30383 483.6824 402.30383Q484.29178 402.30383 484.70584 401.80383Q485.1199 401.30383 485.1199 400.17883Q485.1199 399.11633 484.69803 398.6007Q484.27615 398.08508 483.65115 398.08508Q482.9949 398.08508 482.5574 398.5929Q482.1199 399.1007 482.1199 400.08508ZM491.65115 396.83508L491.65115 398.25696L490.4324 398.25696L490.4324 400.96008Q490.4324 401.7882 490.46365 401.92883Q490.4949 402.06946 490.6199 402.1554Q490.7449 402.24133 490.91678 402.24133Q491.16678 402.24133 491.63553 402.06946L491.79178 403.46008Q491.16678 403.7257 490.38553 403.7257Q489.90115 403.7257 489.51053 403.56165Q489.1199 403.39758 488.94022 403.13977Q488.76053 402.88196 488.69803 402.44446Q488.63553 402.13196 488.63553 401.19446L488.63553 398.25696L487.82303 398.25696L487.82303 396.83508L488.63553 396.83508L488.63553 395.49133L490.4324 394.44446L490.4324 396.83508L491.65115 396.83508Z" fill-rule="nonzero" fill="#000000"></path><path d="M428.78406 391.54178L431.8153 383.66678L432.92468 383.66678L436.15906 391.54178L434.97156 391.54178L434.04968 389.15115L430.7528 389.15115L429.89343 391.54178L428.78406 391.54178ZM431.04968 388.3074L433.72156 388.3074L432.90906 386.1199Q432.53406 385.13553 432.34656 384.4949Q432.1903 385.2449 431.92468 385.9949L431.04968 388.3074ZM436.78406 391.54178L436.78406 383.66678L442.47156 383.66678L442.47156 384.60428L437.8153 384.60428L437.8153 387.01053L442.17468 387.01053L442.17468 387.9324L437.8153 387.9324L437.8153 390.6199L442.65906 390.6199L442.65906 391.54178L436.78406 391.54178ZM443.5028 389.01053L444.48718 388.9324Q444.54968 389.51053 444.8075 389.89334Q445.0653 390.27615 445.59656 390.51053Q446.1278 390.7449 446.79968 390.7449Q447.40906 390.7449 447.86218 390.56522Q448.3153 390.38553 448.54187 390.08084Q448.76843 389.77615 448.76843 389.40115Q448.76843 389.02615 448.54968 388.75272Q448.33093 388.47928 447.83093 388.29178Q447.51843 388.16678 446.4325 387.90897Q445.34656 387.65115 444.90906 387.41678Q444.34656 387.1199 444.07312 386.6824Q443.79968 386.2449 443.79968 385.69803Q443.79968 385.10428 444.13562 384.58865Q444.47156 384.07303 445.12 383.7996Q445.76843 383.52615 446.5653 383.52615Q447.4403 383.52615 448.11218 383.81522Q448.78406 384.10428 449.14343 384.65115Q449.5028 385.19803 449.53406 385.88553L448.53406 385.96365Q448.45593 385.21365 447.98718 384.83084Q447.51843 384.44803 446.61218 384.44803Q445.67468 384.44803 445.23718 384.7996Q444.79968 385.15115 444.79968 385.63553Q444.79968 386.0574 445.11218 386.33865Q445.40906 386.60428 446.6825 386.89334Q447.95593 387.1824 448.42468 387.40115Q449.11218 387.71365 449.4403 388.19803Q449.76843 388.6824 449.76843 389.32303Q449.76843 389.94803 449.40906 390.50272Q449.04968 391.0574 448.37 391.3699Q447.6903 391.6824 446.84656 391.6824Q445.78406 391.6824 445.0653 391.3699Q444.34656 391.0574 443.9325 390.4324Q443.51843 389.8074 443.5028 389.01053Z" fill-rule="nonzero" fill="#ff0000"></path><path d="M258.68906 445.36533C292.18384 453.23312 292.18384 437.4975 325.675 437.4975L325.675 396.59915L258.68906 396.59915ZM264.2079 396.59915L264.2079 391.29694L330.7363 391.29694L330.7363 432.45184C328.20746 432.45184 325.675 432.7369 325.675 432.7369L325.675 396.59915ZM269.3953 391.29694L269.3953 386.123L336.5001 386.123L336.5001 427.14963C333.6182 427.14963 330.7363 427.36343 330.7363 427.36343L330.7363 391.29694Z" fill-rule="nonzero" fill="#cfe2f3"></path><path d="M258.68906 396.59915L325.675 396.59915L325.675 437.4975C292.18384 437.4975 292.18384 453.23312 258.68906 445.36533ZM264.2079 396.59915L264.2079 391.29694L330.7363 391.29694L330.7363 432.45184C328.20746 432.45184 325.675 432.7369 325.675 432.7369M269.3953 391.29694L269.3953 386.123L336.5001 386.123L336.5001 427.14963C333.6182 427.14963 330.7363 427.36343 330.7363 427.36343" fill-rule="nonzero" stroke="#073763" stroke-width="2.0" stroke-linejoin="round" stroke-linecap="butt"></path><path d="M276.4703 423.20853L277.70468 423.52103Q277.31406 425.03665 276.30624 425.83353Q275.29843 426.6304 273.8453 426.6304Q272.3453 426.6304 271.4 426.02103Q270.45468 425.41165 269.9625 424.2476Q269.4703 423.08353 269.4703 421.7554Q269.4703 420.30228 270.0328 419.21634Q270.5953 418.1304 271.61874 417.5679Q272.64218 417.0054 273.87656 417.0054Q275.26718 417.0054 276.2203 417.71634Q277.17343 418.42728 277.54843 419.72415L276.32968 420.0054Q276.00156 418.98978 275.39218 418.52884Q274.7828 418.0679 273.8453 418.0679Q272.76718 418.0679 272.04843 418.58353Q271.32968 419.09915 271.04062 419.95853Q270.75156 420.8179 270.75156 421.73978Q270.75156 422.92728 271.0953 423.8179Q271.43906 424.70853 272.16562 425.14603Q272.89218 425.58353 273.75156 425.58353Q274.7828 425.58353 275.50156 424.98196Q276.2203 424.3804 276.4703 423.20853ZM278.89218 423.09915Q278.89218 421.22415 279.92343 420.33353Q280.79843 419.58353 282.04843 419.58353Q283.43906 419.58353 284.32187 420.48978Q285.20468 421.39603 285.20468 423.0054Q285.20468 424.30228 284.81406 425.05228Q284.42343 425.80228 283.67343 426.21634Q282.92343 426.6304 282.04843 426.6304Q280.62656 426.6304 279.75937 425.72415Q278.89218 424.8179 278.89218 423.09915ZM280.06406 423.09915Q280.06406 424.39603 280.62656 425.04446Q281.18906 425.6929 282.04843 425.6929Q282.89218 425.6929 283.4625 425.04446Q284.0328 424.39603 284.0328 423.0679Q284.0328 421.8179 283.4625 421.16946Q282.89218 420.52103 282.04843 420.52103Q281.18906 420.52103 280.62656 421.16165Q280.06406 421.80228 280.06406 423.09915ZM286.73593 426.47415L286.73593 419.73978L287.76718 419.73978L287.76718 420.6929Q288.50156 419.58353 289.9078 419.58353Q290.51718 419.58353 291.025 419.80228Q291.5328 420.02103 291.79062 420.3726Q292.04843 420.72415 292.14218 421.22415Q292.20468 421.53665 292.20468 422.33353L292.20468 426.47415L291.06406 426.47415L291.06406 422.3804Q291.06406 421.67728 290.93124 421.33353Q290.79843 420.98978 290.4625 420.77884Q290.12656 420.5679 289.67343 420.5679Q288.93906 420.5679 288.4078 421.02884Q287.87656 421.48978 287.87656 422.78665L287.87656 426.47415L286.73593 426.47415ZM296.64218 425.45853L296.79843 426.45853Q296.31406 426.5679 295.93906 426.5679Q295.31406 426.5679 294.9703 426.36478Q294.62656 426.16165 294.48593 425.84134Q294.3453 425.52103 294.3453 424.5054L294.3453 420.61478L293.51718 420.61478L293.51718 419.73978L294.3453 419.73978L294.3453 418.0679L295.48593 417.3804L295.48593 419.73978L296.64218 419.73978L296.64218 420.61478L295.48593 420.61478L295.48593 424.5679Q295.48593 425.05228 295.54843 425.1929Q295.61093 425.33353 295.74374 425.41165Q295.87656 425.48978 296.12656 425.48978Q296.32968 425.48978 296.64218 425.45853ZM302.45468 424.30228L303.64218 424.4429Q303.36093 425.48978 302.60312 426.0601Q301.8453 426.6304 300.67343 426.6304Q299.18906 426.6304 298.32187 425.71634Q297.45468 424.80228 297.45468 423.16165Q297.45468 421.45853 298.3375 420.52103Q299.2203 419.58353 300.61093 419.58353Q301.9703 419.58353 302.82187 420.5054Q303.67343 421.42728 303.67343 423.08353Q303.67343 423.1929 303.67343 423.39603L298.64218 423.39603Q298.70468 424.5054 299.26718 425.09915Q299.82968 425.6929 300.67343 425.6929Q301.31406 425.6929 301.75937 425.35696Q302.20468 425.02103 302.45468 424.30228ZM298.70468 422.45853L302.4703 422.45853Q302.39218 421.59915 302.0328 421.17728Q301.48593 420.52103 300.62656 420.52103Q299.82968 420.52103 299.29843 421.04446Q298.76718 421.5679 298.70468 422.45853ZM305.25156 426.47415L305.25156 419.73978L306.2828 419.73978L306.2828 420.6929Q307.01718 419.58353 308.42343 419.58353Q309.0328 419.58353 309.54062 419.80228Q310.04843 420.02103 310.30624 420.3726Q310.56406 420.72415 310.6578 421.22415Q310.7203 421.53665 310.7203 422.33353L310.7203 426.47415L309.57968 426.47415L309.57968 422.3804Q309.57968 421.67728 309.44687 421.33353Q309.31406 420.98978 308.97812 420.77884Q308.64218 420.5679 308.18906 420.5679Q307.45468 420.5679 306.92343 421.02884Q306.39218 421.48978 306.39218 422.78665L306.39218 426.47415L305.25156 426.47415ZM315.17343 425.45853L315.32968 426.45853Q314.8453 426.5679 314.4703 426.5679Q313.8453 426.5679 313.50156 426.36478Q313.1578 426.16165 313.01718 425.84134Q312.87656 425.52103 312.87656 424.5054L312.87656 420.61478L312.04843 420.61478L312.04843 419.73978L312.87656 419.73978L312.87656 418.0679L314.01718 417.3804L314.01718 419.73978L315.17343 419.73978L315.17343 420.61478L314.01718 420.61478L314.01718 424.5679Q314.01718 425.05228 314.07968 425.1929Q314.14218 425.33353 314.275 425.41165Q314.4078 425.48978 314.6578 425.48978Q314.86093 425.48978 315.17343 425.45853Z" fill-rule="nonzero" fill="#000000"></path><path d="M336.65903 408.82953L410.4543 408.82953" fill-rule="evenodd" stroke="#073763" stroke-width="2.0" stroke-linejoin="round" stroke-linecap="butt"></path><path d="M410.4543 412.133L419.53052 408.82953L410.4543 405.52606Z" fill-rule="evenodd" fill="#073763" stroke="#073763" stroke-width="2.0" stroke-linecap="butt"></path><path d="M424.91464 453.00174L512.7572 453.00174L512.7572 490.1041L424.91464 490.1041Z" fill-rule="nonzero" fill="#cfe2f3" stroke="#073763" stroke-width="2.0" stroke-linejoin="round" stroke-linecap="butt"></path><path d="M444.97714 477.0486L444.97714 467.7361L451.86777 467.7361L451.86777 469.31424L446.85214 469.31424L446.85214 471.37674L451.52402 471.37674L451.52402 472.95486L446.85214 472.95486L446.85214 475.4861L452.05527 475.4861L452.05527 477.0486L444.97714 477.0486ZM459.96152 477.0486L458.18027 477.0486L458.18027 473.6111Q458.18027 472.51736 458.06308 472.19705Q457.9459 471.87674 457.68808 471.69705Q457.43027 471.51736 457.0709 471.51736Q456.61777 471.51736 456.25058 471.77518Q455.8834 472.033 455.74277 472.44705Q455.60214 472.8611 455.60214 474.00174L455.60214 477.0486L453.8209 477.0486L453.8209 470.31424L455.47714 470.31424L455.47714 471.2986Q456.35214 470.158 457.6959 470.158Q458.28964 470.158 458.77402 470.36893Q459.2584 470.57986 459.5162 470.908Q459.77402 471.2361 459.86777 471.658Q459.96152 472.07986 459.96152 472.8611L459.96152 477.0486ZM467.86777 472.2986L466.10214 472.6111Q466.02402 472.0955 465.7037 471.82986Q465.3834 471.56424 464.8834 471.56424Q464.22714 471.56424 463.8287 472.01736Q463.43027 472.4705 463.43027 473.56424Q463.43027 474.75174 463.83652 475.25174Q464.24277 475.75174 464.91464 475.75174Q465.43027 475.75174 465.75058 475.46268Q466.0709 475.1736 466.1959 474.4705L467.96152 474.76736Q467.68027 475.9705 466.90683 476.58768Q466.1334 477.20486 464.83652 477.20486Q463.35214 477.20486 462.47714 476.26736Q461.60214 475.32986 461.60214 473.68924Q461.60214 472.01736 462.47714 471.08768Q463.35214 470.158 464.86777 470.158Q466.10214 470.158 466.8287 470.68924Q467.55527 471.2205 467.86777 472.2986ZM471.10214 477.0486L469.3209 477.0486L469.3209 470.31424L470.97714 470.31424L470.97714 471.26736Q471.39902 470.57986 471.74277 470.36893Q472.08652 470.158 472.5084 470.158Q473.11777 470.158 473.68027 470.4861L473.1334 472.0486Q472.68027 471.75174 472.28964 471.75174Q471.91464 471.75174 471.65683 471.96268Q471.39902 472.1736 471.25058 472.71268Q471.10214 473.25174 471.10214 474.9705L471.10214 477.0486ZM473.74277 470.31424L475.6334 470.31424L477.24277 475.0955L478.8209 470.31424L480.66464 470.31424L478.28964 476.7986L477.86777 477.9705Q477.6334 478.56424 477.42245 478.87674Q477.21152 479.18924 476.93027 479.37674Q476.64902 479.56424 476.25058 479.6736Q475.85214 479.783 475.33652 479.783Q474.8209 479.783 474.3209 479.6736L474.16464 478.283Q474.58652 478.3611 474.93027 478.3611Q475.53964 478.3611 475.84433 477.99393Q476.14902 477.62674 476.30527 477.06424L473.74277 470.31424ZM481.93027 470.31424L483.60214 470.31424L483.60214 471.2986Q483.93027 470.783 484.47714 470.4705Q485.02402 470.158 485.6959 470.158Q486.8834 470.158 487.6959 471.07986Q488.5084 472.00174 488.5084 473.64236Q488.5084 475.32986 487.68808 476.26736Q486.86777 477.20486 485.6959 477.20486Q485.1334 477.20486 484.68027 476.9783Q484.22714 476.75174 483.72714 476.2205L483.72714 479.6111L481.93027 479.6111L481.93027 470.31424ZM483.6959 473.56424Q483.6959 474.70486 484.14902 475.24393Q484.60214 475.783 485.2584 475.783Q485.86777 475.783 486.28183 475.283Q486.6959 474.783 486.6959 473.658Q486.6959 472.5955 486.27402 472.07986Q485.85214 471.56424 485.22714 471.56424Q484.5709 471.56424 484.1334 472.07205Q483.6959 472.57986 483.6959 473.56424ZM493.22714 470.31424L493.22714 471.7361L492.0084 471.7361L492.0084 474.43924Q492.0084 475.26736 492.03964 475.408Q492.0709 475.5486 492.1959 475.63455Q492.3209 475.7205 492.49277 475.7205Q492.74277 475.7205 493.21152 475.5486L493.36777 476.93924Q492.74277 477.20486 491.96152 477.20486Q491.47714 477.20486 491.08652 477.0408Q490.6959 476.87674 490.5162 476.61893Q490.33652 476.3611 490.27402 475.9236Q490.21152 475.6111 490.21152 474.6736L490.21152 471.7361L489.39902 471.7361L489.39902 470.31424L490.21152 470.31424L490.21152 468.9705L492.0084 467.9236L492.0084 470.31424L493.22714 470.31424Z" fill-rule="nonzero" fill="#000000"></path><path d="M430.36008 465.02094L433.39133 457.14594L434.5007 457.14594L437.73508 465.02094L436.54758 465.02094L435.6257 462.6303L432.32883 462.6303L431.46945 465.02094L430.36008 465.02094ZM432.6257 461.78656L435.29758 461.78656L434.48508 459.59906Q434.11008 458.6147 433.92258 457.97406Q433.76633 458.72406 433.5007 459.47406L432.6257 461.78656ZM438.36008 465.02094L438.36008 457.14594L444.04758 457.14594L444.04758 458.08344L439.39133 458.08344L439.39133 460.4897L443.7507 460.4897L443.7507 461.41156L439.39133 461.41156L439.39133 464.09906L444.23508 464.09906L444.23508 465.02094L438.36008 465.02094ZM445.07883 462.4897L446.0632 462.41156Q446.1257 462.9897 446.3835 463.3725Q446.64133 463.7553 447.17258 463.9897Q447.70383 464.22406 448.3757 464.22406Q448.98508 464.22406 449.4382 464.04437Q449.89133 463.8647 450.1179 463.56Q450.34445 463.2553 450.34445 462.8803Q450.34445 462.5053 450.1257 462.23187Q449.90695 461.95844 449.40695 461.77094Q449.09445 461.64594 448.0085 461.38812Q446.92258 461.1303 446.48508 460.89594Q445.92258 460.59906 445.64914 460.16156Q445.3757 459.72406 445.3757 459.1772Q445.3757 458.58344 445.71164 458.0678Q446.04758 457.5522 446.696 457.27875Q447.34445 457.0053 448.14133 457.0053Q449.01633 457.0053 449.6882 457.29437Q450.36008 457.58344 450.71945 458.1303Q451.07883 458.6772 451.11008 459.3647L450.11008 459.4428Q450.03195 458.6928 449.5632 458.31Q449.09445 457.9272 448.1882 457.9272Q447.2507 457.9272 446.8132 458.27875Q446.3757 458.6303 446.3757 459.1147Q446.3757 459.53656 446.6882 459.8178Q446.98508 460.08344 448.2585 460.3725Q449.53195 460.66156 450.0007 460.8803Q450.6882 461.1928 451.01633 461.6772Q451.34445 462.16156 451.34445 462.8022Q451.34445 463.4272 450.98508 463.98187Q450.6257 464.53656 449.946 464.84906Q449.26633 465.16156 448.42258 465.16156Q447.36008 465.16156 446.64133 464.84906Q445.92258 464.53656 445.5085 463.91156Q445.09445 463.28656 445.07883 462.4897Z" fill-rule="nonzero" fill="#ff0000"></path><path d="M465.37775 416.62494L465.37775 441.75882" fill-rule="evenodd" stroke="#ff0000" stroke-width="2.0" stroke-linejoin="round" stroke-linecap="butt"></path><path d="M462.07428 441.75882L465.37775 450.83502L468.6812 441.75882Z" fill-rule="evenodd" fill="#ff0000" stroke="#ff0000" stroke-width="2.0" stroke-linecap="butt"></path><path d="M511.18118 398.07376L550.8977 398.07376" fill-rule="evenodd" stroke="#073763" stroke-width="2.0" stroke-linejoin="round" stroke-linecap="butt"></path><path d="M550.8977 401.37723L559.9739 398.07376L550.8977 394.7703Z" fill-rule="evenodd" fill="#073763" stroke="#073763" stroke-width="2.0" stroke-linecap="butt"></path><path d="M513.29865 473.1576L550.90497 473.1576" fill-rule="evenodd" stroke="#073763" stroke-width="2.0" stroke-linejoin="round" stroke-linecap="butt"></path><path d="M550.90497 476.46106L559.98114 473.1576L550.90497 469.85413Z" fill-rule="evenodd" fill="#073763" stroke="#073763" stroke-width="2.0" stroke-linecap="butt"></path><path d="M404.88715 305.45407L553.5801 305.45407" fill-rule="evenodd" stroke="#ff0000" stroke-width="2.0" stroke-linejoin="round" stroke-linecap="butt"></path><path d="M553.5801 308.75754L562.65625 305.45407L553.5801 302.1506Z" fill-rule="evenodd" fill="#ff0000" stroke="#ff0000" stroke-width="2.0" stroke-linecap="butt"></path><path d="M464.47507 368.6483L464.47507 345.53018" fill-rule="evenodd" stroke="#073763" stroke-width="2.0" stroke-linejoin="round" stroke-linecap="butt"></path><path d="M461.1716 368.6483L464.47507 377.7245L467.77853 368.6483Z" fill-rule="evenodd" fill="#073763" stroke="#073763" stroke-width="2.0" stroke-linecap="butt"></path><path d="M375.04462 474.01575L375.04462 319.59055" fill-rule="nonzero" stroke="#073763" stroke-width="2.0" stroke-linejoin="round" stroke-linecap="butt"></path><path d="M375.2627 473.9135L412.64853 473.9135" fill-rule="evenodd" stroke="#073763" stroke-width="2.0" stroke-linejoin="round" stroke-linecap="butt"></path><path d="M412.64853 477.21698L421.72473 473.9135L412.64853 470.61005Z" fill-rule="evenodd" fill="#073763" stroke="#073763" stroke-width="2.0" stroke-linecap="butt"></path><path d="M376.16034 389.52505L410.64853 389.52505" fill-rule="evenodd" stroke="#073763" stroke-width="2.0" stroke-linejoin="round" stroke-linecap="butt"></path><path d="M410.64853 392.82852L419.72473 389.52505L410.64853 386.2216Z" fill-rule="evenodd" fill="#073763" stroke="#073763" stroke-width="2.0" stroke-linecap="butt"></path><path d="M556.38074 122.0016L556.38074 122.0016C555.2526 114.342514 558.9565 106.76048 565.92065 102.47284C572.8848 98.1852 581.888 97.94391 589.1097 101.85136L589.1097 101.85136C591.66785 97.39805 596.35 94.32334 601.7399 93.55729C607.1298 92.79123 612.5944 94.42379 616.4808 97.96116L616.4808 97.96116C618.66 93.9235 622.9389 91.21071 627.79913 90.78542C632.6594 90.36014 637.41315 92.282555 640.3735 95.87048L640.3735 95.87048C644.31055 91.59058 650.5745 89.78856 656.45496 91.24417C662.3354 92.69979 666.7761 97.15159 667.8556 102.67326L667.8556 102.67326C672.67914 103.88878 676.6971 106.97877 678.8713 111.14489C681.0455 115.311005 681.16266 120.14456 679.1925 124.39672L679.1925 124.39672C683.9423 130.10783 685.0534 137.71782 682.11115 144.38676C679.1689 151.05573 672.61536 155.78171 664.8961 156.80107C664.8417 163.06012 661.1261 168.80334 655.1814 171.81706C649.2367 174.83078 641.9912 174.64438 636.23773 171.32971C633.78705 178.826 626.88916 184.3417 618.52423 185.49384C610.1593 186.64595 601.8269 183.22795 597.12695 176.71654C591.3657 179.92604 584.4528 180.85059 577.9476 179.28165C571.44226 177.71269 565.89264 173.7824 562.55054 168.37735L562.55054 168.37735C556.6633 169.01381 550.97125 166.19594 548.2992 161.32222C545.62714 156.44852 546.544 150.55646 550.59467 146.57028L550.59467 146.57028C545.34314 143.71477 542.6635 138.04848 543.95306 132.52617C545.2426 127.00387 550.20917 122.87691 556.2629 122.29734Z" fill-rule="nonzero" fill="#cfe2f3" stroke="#073763" stroke-width="2.0" stroke-linejoin="round" stroke-linecap="butt"></path><path d="M550.5961 146.56973L550.5961 146.56973C553.07434 147.91725 555.9373 148.52852 558.80054 148.32147M562.5507 168.3773C563.78204 168.24419 564.98895 167.9623 566.1403 167.53891M597.1254 176.71613C596.2594 175.51634 595.5343 174.23427 594.9625 172.89174M636.2377 171.32907L636.2377 171.32907C636.6845 169.96239 636.974 168.55577 637.1013 167.13269M664.895 156.80096C664.95294 150.13724 660.8561 144.03586 654.36414 141.11755M679.1913 124.397316C678.1399 126.666435 676.5349 128.67935 674.50214 130.27821M667.8553 102.67326L667.8553 102.67326C668.0344 103.58959 668.1174 104.519684 668.10284 105.45066M640.3737 95.870766L640.3737 95.870766C639.3916 96.93839 638.58246 98.13145 637.9715 99.41279M616.4807 97.96097L616.4807 97.96097C615.95734 98.93068 615.5665 99.95681 615.31726 101.0157M589.10925 101.85125L589.10925 101.85125C590.6374 102.67806 592.0511 103.673225 593.31934 104.814865M556.38074 122.0016L556.38074 122.0016C556.5362 123.05722 556.7819 124.09983 557.1155 125.11966" fill-rule="nonzero" stroke="#073763" stroke-width="2.0" stroke-linejoin="round" stroke-linecap="butt"></path><path d="M594.4015 109.57641L633.0151 109.57641L633.0151 155.63657C613.70825 155.63657 613.70825 173.18633 594.4015 163.21487Z" fill-rule="nonzero" fill="#d9d2e9" stroke="#073763" stroke-width="2.0" stroke-linejoin="round" stroke-linecap="butt"></path><path d="M613.7083 249.92738L613.7083 197.26596" fill-rule="evenodd" stroke="#073763" stroke-width="2.0" stroke-linejoin="round" stroke-linecap="butt"></path><path d="M617.0118 197.26596L613.7083 188.18976L610.40485 197.26596Z" fill-rule="evenodd" fill="#073763" stroke="#073763" stroke-width="2.0" stroke-linecap="butt"></path><path d="M641.26215 220.49736L642.4965 220.49736L642.4965 225.88799Q642.4965 227.27861 642.1762 228.10674Q641.8559 228.93486 641.0278 229.45049Q640.19965 229.96611 638.8559 229.96611Q637.5434 229.96611 636.7153 229.51299Q635.88715 229.05986 635.5278 228.2083Q635.1684 227.35674 635.1684 225.88799L635.1684 220.49736L636.4028 220.49736L636.4028 225.87236Q636.4028 227.09111 636.62933 227.66142Q636.8559 228.23174 637.4028 228.54424Q637.94965 228.85674 638.7465 228.85674Q640.1059 228.85674 640.684 228.23955Q641.26215 227.62236 641.26215 225.87236L641.26215 220.49736ZM644.63715 232.38799L644.63715 223.07549L645.6684 223.07549L645.6684 223.95049Q646.0434 223.43486 646.50433 223.17705Q646.9653 222.91924 647.63715 222.91924Q648.4965 222.91924 649.1528 223.36455Q649.809 223.80986 650.14496 224.61455Q650.4809 225.41924 650.4809 226.38799Q650.4809 227.41924 650.1137 228.24736Q649.7465 229.07549 649.0356 229.5208Q648.32465 229.96611 647.5434 229.96611Q646.9809 229.96611 646.5278 229.72392Q646.07465 229.48174 645.7778 229.10674L645.7778 232.38799L644.63715 232.38799ZM645.6684 226.48174Q645.6684 227.77861 646.19965 228.40361Q646.7309 229.02861 647.4653 229.02861Q648.2309 229.02861 648.7778 228.38017Q649.32465 227.73174 649.32465 226.38799Q649.32465 225.09111 648.7934 224.45049Q648.26215 223.80986 647.5278 223.80986Q646.7934 223.80986 646.2309 224.48955Q645.6684 225.16924 645.6684 226.48174ZM652.01215 229.80986L652.01215 220.49736L653.1528 220.49736L653.1528 229.80986L652.01215 229.80986ZM654.5903 226.43486Q654.5903 224.55986 655.6215 223.66924Q656.4965 222.91924 657.7465 222.91924Q659.13715 222.91924 660.01996 223.82549Q660.9028 224.73174 660.9028 226.34111Q660.9028 227.63799 660.51215 228.38799Q660.1215 229.13799 659.3715 229.55205Q658.6215 229.96611 657.7465 229.96611Q656.32465 229.96611 655.45746 229.05986Q654.5903 228.15361 654.5903 226.43486ZM655.76215 226.43486Q655.76215 227.73174 656.32465 228.38017Q656.88715 229.02861 657.7465 229.02861Q658.5903 229.02861 659.1606 228.38017Q659.7309 227.73174 659.7309 226.40361Q659.7309 225.15361 659.1606 224.50517Q658.5903 223.85674 657.7465 223.85674Q656.88715 223.85674 656.32465 224.49736Q655.76215 225.13799 655.76215 226.43486ZM666.809 228.98174Q666.184 229.51299 665.5981 229.73955Q665.01215 229.96611 664.3403 229.96611Q663.2153 229.96611 662.6215 229.41924Q662.0278 228.87236 662.0278 228.02861Q662.0278 227.54424 662.25433 227.13017Q662.4809 226.71611 662.8481 226.46611Q663.2153 226.21611 663.6684 226.09111Q663.9965 226.01299 664.684 225.91924Q666.059 225.76299 666.7153 225.52861Q666.7309 225.29424 666.7309 225.23174Q666.7309 224.52861 666.4028 224.24736Q665.9653 223.85674 665.1059 223.85674Q664.2934 223.85674 663.9106 224.13799Q663.5278 224.41924 663.3403 225.13799L662.2309 224.99736Q662.3715 224.27861 662.7231 223.8333Q663.07465 223.38799 663.7387 223.15361Q664.4028 222.91924 665.26215 222.91924Q666.13715 222.91924 666.6762 223.12236Q667.2153 223.32549 667.4653 223.63017Q667.7153 223.93486 667.82465 224.40361Q667.8715 224.70049 667.8715 225.46611L667.8715 226.98174Q667.8715 228.57549 667.94965 228.99736Q668.0278 229.41924 668.2309 229.80986L667.0434 229.80986Q666.8715 229.45049 666.809 228.98174ZM666.7153 226.41924Q666.0903 226.68486 664.8559 226.85674Q664.1528 226.96611 663.8559 227.09111Q663.559 227.21611 663.4028 227.4583Q663.2465 227.70049 663.2465 227.99736Q663.2465 228.45049 663.5903 228.75517Q663.934 229.05986 664.6059 229.05986Q665.26215 229.05986 665.7778 228.7708Q666.2934 228.48174 666.5434 227.98174Q666.7153 227.60674 666.7153 226.84111L666.7153 226.41924ZM674.2153 229.80986L674.2153 228.96611Q673.57465 229.96611 672.32465 229.96611Q671.5278 229.96611 670.8481 229.5208Q670.1684 229.07549 669.7934 228.27861Q669.4184 227.48174 669.4184 226.45049Q669.4184 225.43486 669.76215 224.61455Q670.1059 223.79424 670.7778 223.35674Q671.44965 222.91924 672.2778 222.91924Q672.88715 222.91924 673.3637 223.17705Q673.8403 223.43486 674.13715 223.84111L674.13715 220.49736L675.2778 220.49736L675.2778 229.80986L674.2153 229.80986ZM670.6059 226.45049Q670.6059 227.74736 671.14496 228.38799Q671.684 229.02861 672.434 229.02861Q673.184 229.02861 673.70746 228.41142Q674.2309 227.79424 674.2309 226.54424Q674.2309 225.15361 673.69965 224.50517Q673.1684 223.85674 672.38715 223.85674Q671.6215 223.85674 671.1137 224.48174Q670.6059 225.10674 670.6059 226.45049Z" fill-rule="nonzero" fill="#000000"></path></svg>

