<?xml version="1.0" standalone="yes"?>

<svg version="1.1" viewBox="0.0 0.0 960.0 720.0" fill="none" stroke="none" stroke-linecap="square" stroke-miterlimit="10" clip-path="url(#clip0)" xmlns="http://www.w3.org/2000/svg" xmlns:xlink="http://www.w3.org/1999/xlink"><clipPath id="clip0"><path d="M0 0L960.0 0L960.0 720.0L0 720.0L0 0Z" clip-rule="nonzero"></path></clipPath><path d="M540.4665 250.40643L701.4347 250.40643L701.4347 513.8281C620.95056 513.8281 620.95056 614.19666 540.4665 557.16907Z" fill-rule="nonzero" fill="#d9d2e9" stroke="#073763" stroke-width="2.0" stroke-linejoin="round" stroke-linecap="butt"></path><path d="M558.279 269.6408L559.70087 270.00018Q559.26337 271.75018 558.0993 272.67206Q556.93524 273.59393 555.26337 273.59393Q553.529 273.59393 552.43524 272.883Q551.3415 272.17206 550.779 270.83612Q550.2165 269.50018 550.2165 267.9533Q550.2165 266.28143 550.8571 265.03143Q551.49774 263.78143 552.6774 263.133Q553.8571 262.48456 555.279 262.48456Q556.88837 262.48456 557.9899 263.30487Q559.0915 264.12518 559.529 265.60956L558.12274 265.93768Q557.74774 264.7658 557.0368 264.23456Q556.32587 263.7033 555.24774 263.7033Q554.01337 263.7033 553.18524 264.29706Q552.3571 264.8908 552.0212 265.8908Q551.68524 266.8908 551.68524 267.9533Q551.68524 269.31268 552.0837 270.33612Q552.4821 271.35956 553.31805 271.86737Q554.154 272.37518 555.13837 272.37518Q556.3415 272.37518 557.1696 271.68768Q557.99774 271.00018 558.279 269.6408ZM560.99774 273.40643L560.99774 262.67206L562.32587 262.67206L562.32587 273.40643L560.99774 273.40643ZM563.7946 269.5158Q563.7946 267.35956 564.99774 266.31268Q565.99774 265.4533 567.43524 265.4533Q569.0446 265.4533 570.06024 266.50018Q571.07587 267.54706 571.07587 269.40643Q571.07587 270.90643 570.63055 271.7658Q570.18524 272.62518 569.31805 273.10175Q568.45087 273.5783 567.43524 273.5783Q565.81024 273.5783 564.8024 272.53143Q563.7946 271.48456 563.7946 269.5158ZM565.154 269.5158Q565.154 271.0158 565.8024 271.758Q566.45087 272.50018 567.43524 272.50018Q568.4196 272.50018 569.07587 271.75018Q569.7321 271.00018 569.7321 269.46893Q569.7321 268.03143 569.07587 267.28925Q568.4196 266.54706 567.43524 266.54706Q566.45087 266.54706 565.8024 267.28143Q565.154 268.0158 565.154 269.5158ZM577.5446 273.40643L577.5446 272.2658Q576.62274 273.5783 575.07587 273.5783Q574.38837 273.5783 573.7868 273.31268Q573.18524 273.04706 572.8962 272.64862Q572.6071 272.25018 572.49774 271.67206Q572.404 271.29706 572.404 270.4533L572.404 265.62518L573.7321 265.62518L573.7321 269.93768Q573.7321 270.96893 573.81024 271.3283Q573.93524 271.85956 574.3337 272.15643Q574.7321 272.4533 575.32587 272.4533Q575.9196 272.4533 576.44305 272.14862Q576.9665 271.84393 577.18524 271.3205Q577.404 270.79706 577.404 269.79706L577.404 265.62518L578.7165 265.62518L578.7165 273.40643L577.5446 273.40643ZM585.63837 273.40643L585.63837 272.42206Q584.904 273.5783 583.4665 273.5783Q582.5446 273.5783 581.76337 273.0705Q580.9821 272.56268 580.5524 271.6408Q580.12274 270.71893 580.12274 269.53143Q580.12274 268.35956 580.51337 267.41425Q580.904 266.46893 581.6774 265.96112Q582.45087 265.4533 583.404 265.4533Q584.1071 265.4533 584.6618 265.75018Q585.2165 266.04706 585.56024 266.5158L585.56024 262.67206L586.87274 262.67206L586.87274 273.40643L585.63837 273.40643ZM581.4821 269.53143Q581.4821 271.0158 582.1071 271.758Q582.7321 272.50018 583.5915 272.50018Q584.45087 272.50018 585.06024 271.78925Q585.6696 271.0783 585.6696 269.6408Q585.6696 268.03143 585.0524 267.28925Q584.43524 266.54706 583.529 266.54706Q582.654 266.54706 582.06805 267.2658Q581.4821 267.98456 581.4821 269.53143ZM593.06024 273.40643L593.06024 262.67206L600.2946 262.67206L600.2946 263.93768L594.4821 263.93768L594.4821 267.2658L599.51337 267.2658L599.51337 268.53143L594.4821 268.53143L594.4821 273.40643L593.06024 273.40643ZM601.779 264.18768L601.779 262.67206L603.0915 262.67206L603.0915 264.18768L601.779 264.18768ZM601.779 273.40643L601.779 265.62518L603.0915 265.62518L603.0915 273.40643L601.779 273.40643ZM604.9821 273.40643L604.9821 262.67206L606.31024 262.67206L606.31024 273.40643L604.9821 273.40643ZM613.6071 270.90643L614.9665 271.06268Q614.654 272.2658 613.779 272.92206Q612.904 273.5783 611.5446 273.5783Q609.8415 273.5783 608.8415 272.53143Q607.8415 271.48456 607.8415 269.5783Q607.8415 267.62518 608.8571 266.53925Q609.87274 265.4533 611.4821 265.4533Q613.0446 265.4533 614.029 266.5158Q615.01337 267.5783 615.01337 269.50018Q615.01337 269.62518 615.01337 269.85956L609.20087 269.85956Q609.279 271.1408 609.9274 271.8205Q610.57587 272.50018 611.56024 272.50018Q612.279 272.50018 612.7946 272.11737Q613.31024 271.73456 613.6071 270.90643ZM609.279 268.7658L613.62274 268.7658Q613.529 267.78143 613.12274 267.29706Q612.49774 266.53143 611.49774 266.53143Q610.57587 266.53143 609.9587 267.1408Q609.3415 267.75018 609.279 268.7658Z" fill-rule="nonzero" fill="#000000"></path><path d="M562.8977 389.52505L683.8426 389.52505L683.8426 472.10773L562.8977 472.10773Z" fill-rule="nonzero" fill="#f4cccc" stroke="#073763" stroke-width="2.0" stroke-linejoin="round" stroke-linecap="butt"></path><path d="M592.67487 457.3161C626.1696 465.18393 626.1696 449.4483 659.66077 449.4483L659.66077 408.54993L592.67487 408.54993ZM598.19366 408.54993L598.19366 403.2477L664.7221 403.2477L664.7221 444.40265C662.19324 444.40265 659.66077 444.6877 659.66077 444.6877L659.66077 408.54993ZM603.3811 403.2477L603.3811 398.0738L670.4859 398.0738L670.4859 439.10043C667.604 439.10043 664.7221 439.3142 664.7221 439.3142L664.7221 403.2477Z" fill-rule="nonzero" fill="#cfe2f3"></path><path d="M592.67487 408.54993L659.66077 408.54993L659.66077 449.4483C626.1696 449.4483 626.1696 465.18393 592.67487 457.3161ZM598.19366 408.54993L598.19366 403.2477L664.7221 403.2477L664.7221 444.40265C662.19324 444.40265 659.66077 444.6877 659.66077 444.6877M603.3811 403.2477L603.3811 398.0738L670.4859 398.0738L670.4859 439.10043C667.604 439.10043 664.7221 439.3142 664.7221 439.3142" fill-rule="nonzero" stroke="#073763" stroke-width="2.0" stroke-linejoin="round" stroke-linecap="butt"></path><path d="M610.4561 435.1593L611.6905 435.4718Q611.29987 436.98743 610.29205 437.7843Q609.28424 438.58118 607.8311 438.58118Q606.3311 438.58118 605.3858 437.9718Q604.4405 437.36243 603.9483 436.19836Q603.4561 435.0343 603.4561 433.70618Q603.4561 432.25305 604.0186 431.1671Q604.5811 430.08118 605.60455 429.51868Q606.628 428.95618 607.86237 428.95618Q609.253 428.95618 610.2061 429.6671Q611.15924 430.37805 611.53424 431.67493L610.3155 431.95618Q609.98737 430.94055 609.378 430.4796Q608.7686 430.01868 607.8311 430.01868Q606.753 430.01868 606.03424 430.5343Q605.3155 431.04993 605.0264 431.9093Q604.73737 432.76868 604.73737 433.69055Q604.73737 434.87805 605.0811 435.76868Q605.42487 436.6593 606.1514 437.0968Q606.878 437.5343 607.73737 437.5343Q608.7686 437.5343 609.48737 436.93274Q610.2061 436.33118 610.4561 435.1593ZM612.878 435.04993Q612.878 433.17493 613.90924 432.2843Q614.78424 431.5343 616.03424 431.5343Q617.42487 431.5343 618.3077 432.44055Q619.1905 433.3468 619.1905 434.95618Q619.1905 436.25305 618.79987 437.00305Q618.40924 437.75305 617.65924 438.1671Q616.90924 438.58118 616.03424 438.58118Q614.61237 438.58118 613.7452 437.67493Q612.878 436.76868 612.878 435.04993ZM614.04987 435.04993Q614.04987 436.3468 614.61237 436.99524Q615.17487 437.64368 616.03424 437.64368Q616.878 437.64368 617.4483 436.99524Q618.0186 436.3468 618.0186 435.01868Q618.0186 433.76868 617.4483 433.12024Q616.878 432.4718 616.03424 432.4718Q615.17487 432.4718 614.61237 433.11243Q614.04987 433.75305 614.04987 435.04993ZM620.72174 438.42493L620.72174 431.69055L621.753 431.69055L621.753 432.64368Q622.48737 431.5343 623.8936 431.5343Q624.503 431.5343 625.0108 431.75305Q625.5186 431.9718 625.7764 432.32336Q626.03424 432.67493 626.128 433.17493Q626.1905 433.48743 626.1905 434.2843L626.1905 438.42493L625.04987 438.42493L625.04987 434.33118Q625.04987 433.62805 624.91705 433.2843Q624.78424 432.94055 624.4483 432.7296Q624.11237 432.51868 623.65924 432.51868Q622.92487 432.51868 622.3936 432.9796Q621.86237 433.44055 621.86237 434.73743L621.86237 438.42493L620.72174 438.42493ZM630.628 437.4093L630.78424 438.4093Q630.29987 438.51868 629.92487 438.51868Q629.29987 438.51868 628.9561 438.31555Q628.61237 438.11243 628.47174 437.7921Q628.3311 437.4718 628.3311 436.45618L628.3311 432.56555L627.503 432.56555L627.503 431.69055L628.3311 431.69055L628.3311 430.01868L629.47174 429.33118L629.47174 431.69055L630.628 431.69055L630.628 432.56555L629.47174 432.56555L629.47174 436.51868Q629.47174 437.00305 629.53424 437.14368Q629.59674 437.2843 629.72955 437.36243Q629.86237 437.44055 630.11237 437.44055Q630.3155 437.44055 630.628 437.4093ZM636.4405 436.25305L637.628 436.39368Q637.34674 437.44055 636.5889 438.01086Q635.8311 438.58118 634.65924 438.58118Q633.17487 438.58118 632.3077 437.6671Q631.4405 436.75305 631.4405 435.11243Q631.4405 433.4093 632.3233 432.4718Q633.2061 431.5343 634.59674 431.5343Q635.9561 431.5343 636.8077 432.45618Q637.65924 433.37805 637.65924 435.0343Q637.65924 435.14368 637.65924 435.3468L632.628 435.3468Q632.6905 436.45618 633.253 437.04993Q633.8155 437.64368 634.65924 437.64368Q635.29987 437.64368 635.7452 437.30774Q636.1905 436.9718 636.4405 436.25305ZM632.6905 434.4093L636.4561 434.4093Q636.378 433.54993 636.0186 433.12805Q635.47174 432.4718 634.61237 432.4718Q633.8155 432.4718 633.28424 432.99524Q632.753 433.51868 632.6905 434.4093ZM639.23737 438.42493L639.23737 431.69055L640.2686 431.69055L640.2686 432.64368Q641.003 431.5343 642.40924 431.5343Q643.0186 431.5343 643.5264 431.75305Q644.03424 431.9718 644.29205 432.32336Q644.54987 432.67493 644.6436 433.17493Q644.7061 433.48743 644.7061 434.2843L644.7061 438.42493L643.5655 438.42493L643.5655 434.33118Q643.5655 433.62805 643.4327 433.2843Q643.29987 432.94055 642.9639 432.7296Q642.628 432.51868 642.17487 432.51868Q641.4405 432.51868 640.90924 432.9796Q640.378 433.44055 640.378 434.73743L640.378 438.42493L639.23737 438.42493ZM649.15924 437.4093L649.3155 438.4093Q648.8311 438.51868 648.4561 438.51868Q647.8311 438.51868 647.48737 438.31555Q647.1436 438.11243 647.003 437.7921Q646.86237 437.4718 646.86237 436.45618L646.86237 432.56555L646.03424 432.56555L646.03424 431.69055L646.86237 431.69055L646.86237 430.01868L648.003 429.33118L648.003 431.69055L649.15924 431.69055L649.15924 432.56555L648.003 432.56555L648.003 436.51868Q648.003 437.00305 648.0655 437.14368Q648.128 437.2843 648.2608 437.36243Q648.3936 437.44055 648.6436 437.44055Q648.84674 437.44055 649.15924 437.4093Z" fill-rule="nonzero" fill="#000000"></path><path d="M564.6438 403.5605L568.2219 394.248L569.5344 394.248L573.3469 403.5605L571.9407 403.5605L570.86255 400.748L566.9719 400.748L565.9407 403.5605L564.6438 403.5605ZM567.3313 399.73236L570.48755 399.73236L569.5032 397.15424Q569.0657 395.98236 568.8469 395.23236Q568.67505 396.123 568.3469 397.0136L567.3313 399.73236ZM574.5657 403.5605L574.5657 394.248L581.2844 394.248L581.2844 395.35736L575.80005 395.35736L575.80005 398.2011L580.9407 398.2011L580.9407 399.29486L575.80005 399.29486L575.80005 402.46674L581.5032 402.46674L581.5032 403.5605L574.5657 403.5605ZM583.0032 400.5761L584.17505 400.46674Q584.2532 401.16986 584.55786 401.61517Q584.86255 402.0605 585.49536 402.33392Q586.1282 402.60736 586.92505 402.60736Q587.6282 402.60736 588.16724 402.40424Q588.7063 402.2011 588.9719 401.83392Q589.23755 401.46674 589.23755 401.02924Q589.23755 400.59174 588.97974 400.2636Q588.7219 399.9355 588.1438 399.71674Q587.7688 399.5761 586.48755 399.2636Q585.2063 398.9511 584.6907 398.6855Q584.0188 398.34174 583.6907 397.8183Q583.36255 397.29486 583.36255 396.65424Q583.36255 395.9511 583.761 395.34174Q584.1594 394.73236 584.93286 394.41205Q585.7063 394.09174 586.6438 394.09174Q587.67505 394.09174 588.4641 394.42767Q589.2532 394.7636 589.68286 395.41205Q590.11255 396.0605 590.1438 396.873L588.9563 396.96674Q588.86255 396.0761 588.3157 395.6308Q587.7688 395.1855 586.6907 395.1855Q585.5813 395.1855 585.0657 395.59174Q584.55005 395.998 584.55005 396.5761Q584.55005 397.0761 584.9094 397.40424Q585.2688 397.73236 586.7688 398.0683Q588.2688 398.40424 588.8313 398.65424Q589.6438 399.02924 590.0266 399.60736Q590.4094 400.1855 590.4094 400.9355Q590.4094 401.66986 589.98755 402.3261Q589.5657 402.98236 588.7688 403.34955Q587.9719 403.71674 586.9719 403.71674Q585.7063 403.71674 584.85474 403.34955Q584.0032 402.98236 583.5188 402.24017Q583.0344 401.498 583.0032 400.5761Z" fill-rule="nonzero" fill="#ff0000"></path><path d="M565.34033 284.71106L686.56866 284.71106L686.56866 320.80527L565.34033 320.80527Z" fill-rule="nonzero" fill="#ffffff" stroke="#073763" stroke-width="2.0" stroke-linejoin="round" stroke-linecap="butt"></path><path d="M569.14557 302.5368Q569.14557 300.6618 570.1768 299.77118Q571.0518 299.02118 572.3018 299.02118Q573.69244 299.02118 574.57526 299.92743Q575.45807 300.83368 575.45807 302.44305Q575.45807 303.73993 575.06744 304.48993Q574.6768 305.23993 573.9268 305.654Q573.1768 306.06805 572.3018 306.06805Q570.87994 306.06805 570.01276 305.1618Q569.14557 304.25555 569.14557 302.5368ZM570.31744 302.5368Q570.31744 303.83368 570.87994 304.48212Q571.44244 305.13055 572.3018 305.13055Q573.14557 305.13055 573.7159 304.48212Q574.2862 303.83368 574.2862 302.50555Q574.2862 301.25555 573.7159 300.60712Q573.14557 299.95868 572.3018 299.95868Q571.44244 299.95868 570.87994 300.5993Q570.31744 301.23993 570.31744 302.5368ZM580.39557 302.92743L581.56744 302.81805Q581.64557 303.52118 581.95026 303.9665Q582.25494 304.4118 582.88776 304.68524Q583.52057 304.95868 584.31744 304.95868Q585.02057 304.95868 585.55963 304.75555Q586.0987 304.55243 586.3643 304.18524Q586.62994 303.81805 586.62994 303.38055Q586.62994 302.94305 586.37213 302.61493Q586.1143 302.2868 585.5362 302.06805Q585.1612 301.92743 583.87994 301.61493Q582.5987 301.30243 582.08307 301.0368Q581.4112 300.69305 581.08307 300.16962Q580.75494 299.64618 580.75494 299.00555Q580.75494 298.30243 581.1534 297.69305Q581.5518 297.08368 582.32526 296.76337Q583.0987 296.44305 584.0362 296.44305Q585.06744 296.44305 585.8565 296.779Q586.64557 297.11493 587.07526 297.76337Q587.50494 298.4118 587.5362 299.2243L586.3487 299.31805Q586.25494 298.42743 585.70807 297.98212Q585.1612 297.5368 584.08307 297.5368Q582.9737 297.5368 582.45807 297.94305Q581.94244 298.3493 581.94244 298.92743Q581.94244 299.42743 582.3018 299.75555Q582.6612 300.08368 584.1612 300.41962Q585.6612 300.75555 586.2237 301.00555Q587.0362 301.38055 587.419 301.95868Q587.8018 302.5368 587.8018 303.2868Q587.8018 304.02118 587.37994 304.67743Q586.95807 305.33368 586.1612 305.70087Q585.3643 306.06805 584.3643 306.06805Q583.0987 306.06805 582.24713 305.70087Q581.39557 305.33368 580.9112 304.5915Q580.4268 303.8493 580.39557 302.92743ZM592.06744 304.89618L592.2237 305.89618Q591.7393 306.00555 591.3643 306.00555Q590.7393 306.00555 590.39557 305.80243Q590.0518 305.5993 589.9112 305.279Q589.77057 304.95868 589.77057 303.94305L589.77057 300.05243L588.94244 300.05243L588.94244 299.17743L589.77057 299.17743L589.77057 297.50555L590.9112 296.81805L590.9112 299.17743L592.06744 299.17743L592.06744 300.05243L590.9112 300.05243L590.9112 304.00555Q590.9112 304.48993 590.9737 304.63055Q591.0362 304.77118 591.169 304.8493Q591.3018 304.92743 591.5518 304.92743Q591.75494 304.92743 592.06744 304.89618ZM592.8487 302.5368Q592.8487 300.6618 593.87994 299.77118Q594.75494 299.02118 596.00494 299.02118Q597.39557 299.02118 598.2784 299.92743Q599.1612 300.83368 599.1612 302.44305Q599.1612 303.73993 598.77057 304.48993Q598.37994 305.23993 597.62994 305.654Q596.87994 306.06805 596.00494 306.06805Q594.58307 306.06805 593.7159 305.1618Q592.8487 304.25555 592.8487 302.5368ZM594.02057 302.5368Q594.02057 303.83368 594.58307 304.48212Q595.14557 305.13055 596.00494 305.13055Q596.8487 305.13055 597.419 304.48212Q597.9893 303.83368 597.9893 302.50555Q597.9893 301.25555 597.419 300.60712Q596.8487 299.95868 596.00494 299.95868Q595.14557 299.95868 594.58307 300.5993Q594.02057 301.23993 594.02057 302.5368ZM600.6612 305.9118L600.6612 299.17743L601.69244 299.17743L601.69244 300.19305Q602.08307 299.4743 602.419 299.24774Q602.75494 299.02118 603.14557 299.02118Q603.7237 299.02118 604.31744 299.38055L603.9268 300.44305Q603.50494 300.19305 603.0987 300.19305Q602.7237 300.19305 602.419 300.41962Q602.1143 300.64618 601.9893 301.05243Q601.8018 301.6618 601.8018 302.38055L601.8018 305.9118L600.6612 305.9118ZM609.50494 305.08368Q608.87994 305.61493 608.294 305.8415Q607.70807 306.06805 607.0362 306.06805Q605.9112 306.06805 605.31744 305.52118Q604.7237 304.9743 604.7237 304.13055Q604.7237 303.64618 604.95026 303.23212Q605.1768 302.81805 605.544 302.56805Q605.9112 302.31805 606.3643 302.19305Q606.69244 302.11493 607.37994 302.02118Q608.75494 301.86493 609.4112 301.63055Q609.4268 301.39618 609.4268 301.33368Q609.4268 300.63055 609.0987 300.3493Q608.6612 299.95868 607.8018 299.95868Q606.9893 299.95868 606.6065 300.23993Q606.2237 300.52118 606.0362 301.23993L604.9268 301.0993Q605.06744 300.38055 605.419 299.93524Q605.77057 299.48993 606.43463 299.25555Q607.0987 299.02118 607.95807 299.02118Q608.83307 299.02118 609.37213 299.2243Q609.9112 299.42743 610.1612 299.73212Q610.4112 300.0368 610.52057 300.50555Q610.56744 300.80243 610.56744 301.56805L610.56744 303.08368Q610.56744 304.67743 610.64557 305.0993Q610.7237 305.52118 610.9268 305.9118L609.7393 305.9118Q609.56744 305.55243 609.50494 305.08368ZM609.4112 302.52118Q608.7862 302.7868 607.5518 302.95868Q606.8487 303.06805 606.5518 303.19305Q606.25494 303.31805 606.0987 303.56024Q605.94244 303.80243 605.94244 304.0993Q605.94244 304.55243 606.2862 304.85712Q606.62994 305.1618 607.3018 305.1618Q607.95807 305.1618 608.4737 304.87274Q608.9893 304.58368 609.2393 304.08368Q609.4112 303.70868 609.4112 302.94305L609.4112 302.52118ZM612.31744 306.4743L613.44244 306.63055Q613.50494 307.14618 613.81744 307.38055Q614.25494 307.70868 614.9893 307.70868Q615.77057 307.70868 616.20807 307.38837Q616.64557 307.06805 616.7862 306.48993Q616.87994 306.14618 616.87994 305.0368Q616.12994 305.9118 615.00494 305.9118Q613.6143 305.9118 612.8565 304.9118Q612.0987 303.9118 612.0987 302.50555Q612.0987 301.5368 612.45026 300.7243Q612.8018 299.9118 613.45807 299.4665Q614.1143 299.02118 615.02057 299.02118Q616.20807 299.02118 616.9893 299.98993L616.9893 299.17743L618.0362 299.17743L618.0362 304.98993Q618.0362 306.56805 617.7159 307.2243Q617.39557 307.88055 616.70026 308.26337Q616.00494 308.64618 614.9893 308.64618Q613.7862 308.64618 613.044 308.10712Q612.3018 307.56805 612.31744 306.4743ZM613.27057 302.42743Q613.27057 303.73993 613.794 304.3493Q614.31744 304.95868 615.1143 304.95868Q615.9112 304.95868 616.44244 304.35712Q616.9737 303.75555 616.9737 302.45868Q616.9737 301.2243 616.4268 300.5915Q615.87994 299.95868 615.0987 299.95868Q614.33307 299.95868 613.8018 300.58368Q613.27057 301.20868 613.27057 302.42743ZM624.5518 303.73993L625.7393 303.88055Q625.45807 304.92743 624.70026 305.49774Q623.94244 306.06805 622.77057 306.06805Q621.2862 306.06805 620.419 305.154Q619.5518 304.23993 619.5518 302.5993Q619.5518 300.89618 620.43463 299.95868Q621.31744 299.02118 622.70807 299.02118Q624.06744 299.02118 624.919 299.94305Q625.77057 300.86493 625.77057 302.52118Q625.77057 302.63055 625.77057 302.83368L620.7393 302.83368Q620.8018 303.94305 621.3643 304.5368Q621.9268 305.13055 622.77057 305.13055Q623.4112 305.13055 623.8565 304.79462Q624.3018 304.45868 624.5518 303.73993ZM620.8018 301.89618L624.56744 301.89618Q624.4893 301.0368 624.12994 300.61493Q623.58307 299.95868 622.7237 299.95868Q621.9268 299.95868 621.39557 300.48212Q620.8643 301.00555 620.8018 301.89618ZM631.4112 305.9118L631.4112 296.5993L632.62994 296.5993L632.62994 305.9118L631.4112 305.9118ZM634.75494 305.9118L634.75494 299.17743L635.7862 299.17743L635.7862 300.13055Q636.52057 299.02118 637.9268 299.02118Q638.5362 299.02118 639.044 299.23993Q639.5518 299.45868 639.80963 299.81024Q640.06744 300.1618 640.1612 300.6618Q640.2237 300.9743 640.2237 301.77118L640.2237 305.9118L639.08307 305.9118L639.08307 301.81805Q639.08307 301.11493 638.95026 300.77118Q638.81744 300.42743 638.4815 300.2165Q638.14557 300.00555 637.69244 300.00555Q636.95807 300.00555 636.4268 300.4665Q635.89557 300.92743 635.89557 302.2243L635.89557 305.9118L634.75494 305.9118ZM646.5518 305.9118L646.5518 305.06805Q645.9112 306.06805 644.6612 306.06805Q643.8643 306.06805 643.18463 305.62274Q642.50494 305.17743 642.12994 304.38055Q641.75494 303.58368 641.75494 302.55243Q641.75494 301.5368 642.0987 300.7165Q642.44244 299.89618 643.1143 299.45868Q643.7862 299.02118 644.6143 299.02118Q645.2237 299.02118 645.70026 299.279Q646.1768 299.5368 646.4737 299.94305L646.4737 296.5993L647.6143 296.5993L647.6143 305.9118L646.5518 305.9118ZM642.94244 302.55243Q642.94244 303.8493 643.4815 304.48993Q644.02057 305.13055 644.77057 305.13055Q645.52057 305.13055 646.044 304.51337Q646.56744 303.89618 646.56744 302.64618Q646.56744 301.25555 646.0362 300.60712Q645.50494 299.95868 644.7237 299.95868Q643.95807 299.95868 643.45026 300.58368Q642.94244 301.20868 642.94244 302.55243ZM654.19244 303.73993L655.37994 303.88055Q655.0987 304.92743 654.3409 305.49774Q653.58307 306.06805 652.4112 306.06805Q650.9268 306.06805 650.05963 305.154Q649.19244 304.23993 649.19244 302.5993Q649.19244 300.89618 650.07526 299.95868Q650.95807 299.02118 652.3487 299.02118Q653.70807 299.02118 654.55963 299.94305Q655.4112 300.86493 655.4112 302.52118Q655.4112 302.63055 655.4112 302.83368L650.37994 302.83368Q650.44244 303.94305 651.00494 304.5368Q651.56744 305.13055 652.4112 305.13055Q653.0518 305.13055 653.49713 304.79462Q653.94244 304.45868 654.19244 303.73993ZM650.44244 301.89618L654.20807 301.89618Q654.12994 301.0368 653.77057 300.61493Q653.2237 299.95868 652.3643 299.95868Q651.56744 299.95868 651.0362 300.48212Q650.50494 301.00555 650.44244 301.89618ZM656.2393 305.9118L658.70807 302.4118L656.4268 299.17743L657.8487 299.17743L658.89557 300.75555Q659.1768 301.20868 659.3643 301.50555Q659.62994 301.08368 659.8643 300.77118L661.00494 299.17743L662.37994 299.17743L660.0362 302.3493L662.5518 305.9118L661.14557 305.9118L659.77057 303.81805L659.39557 303.25555L657.62994 305.9118L656.2393 305.9118Z" fill-rule="nonzero" fill="#000000"></path><path d="M327.24777 297.05695L327.24777 287.74445L328.48215 287.74445L328.48215 292.36945L333.10715 287.74445L334.7634 287.74445L330.87277 291.5257L334.93527 297.05695L333.31027 297.05695L329.99777 292.35382L328.48215 293.8382L328.48215 297.05695L327.24777 297.05695ZM340.65402 294.88507L341.84152 295.0257Q341.56027 296.07257 340.80246 296.64288Q340.04465 297.2132 338.87277 297.2132Q337.3884 297.2132 336.5212 296.29913Q335.65402 295.38507 335.65402 293.74445Q335.65402 292.04132 336.53683 291.10382Q337.41965 290.16632 338.81027 290.16632Q340.16965 290.16632 341.0212 291.0882Q341.87277 292.01007 341.87277 293.66632Q341.87277 293.7757 341.87277 293.97882L336.84152 293.97882Q336.90402 295.0882 337.46652 295.68195Q338.02902 296.2757 338.87277 296.2757Q339.5134 296.2757 339.9587 295.93976Q340.40402 295.60382 340.65402 294.88507ZM336.90402 293.04132L340.66965 293.04132Q340.59152 292.18195 340.23215 291.76007Q339.68527 291.10382 338.8259 291.10382Q338.02902 291.10382 337.49777 291.62726Q336.96652 292.1507 336.90402 293.04132ZM343.40402 299.6507L343.2634 298.5882Q343.6384 298.68195 343.91965 298.68195Q344.31027 298.68195 344.53683 298.55695Q344.7634 298.43195 344.90402 298.19757Q345.0134 298.0257 345.2634 297.35382Q345.29465 297.26007 345.35715 297.07257L342.79465 290.32257L344.02902 290.32257L345.43527 294.2132Q345.7009 294.9632 345.91965 295.7757Q346.12277 294.99445 346.3884 294.24445L347.84152 290.32257L348.98215 290.32257L346.41965 297.16632Q345.99777 298.2757 345.77902 298.69757Q345.46652 299.26007 345.0759 299.5257Q344.68527 299.79132 344.1384 299.79132Q343.81027 299.79132 343.40402 299.6507Z" fill-rule="nonzero" fill="#000000"></path><path d="M319.5769 305.76547L319.5769 305.76547C319.5769 302.2784 322.46783 299.45163 326.03403 299.45163L326.03403 299.45163C327.74655 299.45163 329.38895 300.11682 330.59988 301.3009C331.81082 302.485 332.49112 304.09094 332.49112 305.76547L332.49112 305.76547C332.49112 309.2525 329.6002 312.0793 326.03403 312.0793L326.03403 312.0793C322.46783 312.0793 319.5769 309.2525 319.5769 305.76547Z" fill-rule="nonzero" stroke="#073763" stroke-width="2.0" stroke-linejoin="round" stroke-linecap="butt"></path><path d="M330.21625 301.30136L355.98215 301.30136" fill-rule="nonzero" stroke="#073763" stroke-width="2.0" stroke-linejoin="round" stroke-linecap="butt"></path><path d="M355.5234 301.23926C355.5234 302.5594 355.26846 305.52344 354.0612 304.9326C353.2915 304.55588 354.05692 302.4116 353.20786 302.54956C352.10263 302.72913 351.89517 305.42252 350.89307 304.9326C350.11313 304.55124 350.50177 302.39944 349.67453 302.66907C348.74265 302.9728 349.18866 305.06516 348.2123 305.17087C346.56845 305.34888 345.3307 303.43506 343.70346 303.14566C342.872 302.9978 342.92917 304.6909 342.24124 305.17087C341.05975 305.99524 339.39648 303.22586 338.0983 303.86057C336.3237 304.7282 334.5987 306.12408 332.61462 306.12408" fill-rule="evenodd" stroke="#073763" stroke-width="2.0" stroke-linejoin="round" stroke-linecap="butt"></path><path d="M334.32053 302.43076L348.93893 302.43076" fill-rule="nonzero" stroke="#cccccc" stroke-width="1.0" stroke-linejoin="round" stroke-linecap="butt"></path><path d="M324.0254 305.7707L324.0254 305.7707C324.0254 304.68317 324.92487 303.8015 326.03445 303.8015L326.03445 303.8015C326.5673 303.8015 327.07828 304.009 327.45505 304.3783C327.83182 304.7476 328.0435 305.24844 328.0435 305.7707L328.0435 305.7707C328.0435 306.85825 327.144 307.73987 326.03445 307.73987L326.03445 307.73987C324.92487 307.73987 324.0254 306.85825 324.0254 305.7707Z" fill-rule="nonzero" stroke="#073763" stroke-width="2.0" stroke-linejoin="round" stroke-linecap="butt"></path><path d="M462.80295 315.5615L462.80295 339.0576" fill-rule="evenodd" stroke="#ff0000" stroke-width="2.0" stroke-linejoin="round" stroke-linecap="butt"></path><path d="M459.49948 339.0576L462.80295 348.1338L466.1064 339.0576Z" fill-rule="evenodd" fill="#ff0000" stroke="#ff0000" stroke-width="2.0" stroke-linecap="butt"></path><path d="M244.76517 469.11792C278.25995 476.98572 278.25995 461.2501 311.7511 461.2501L311.7511 420.35175L244.76517 420.35175ZM250.284 420.35175L250.284 415.04953L316.8124 415.04953L316.8124 456.20444C314.28357 456.20444 311.7511 456.4895 311.7511 456.4895L311.7511 420.35175ZM255.47139 415.04953L255.47139 409.87558L322.5762 409.87558L322.5762 450.90222C319.6943 450.90222 316.8124 451.11603 316.8124 451.11603L316.8124 415.04953Z" fill-rule="nonzero" fill="#cfe2f3"></path><path d="M244.76517 420.35175L311.7511 420.35175L311.7511 461.2501C278.25995 461.2501 278.25995 476.98572 244.76517 469.11792ZM250.284 420.35175L250.284 415.04953L316.8124 415.04953L316.8124 456.20444C314.28357 456.20444 311.7511 456.4895 311.7511 456.4895M255.47139 415.04953L255.47139 409.87558L322.5762 409.87558L322.5762 450.90222C319.6943 450.90222 316.8124 451.11603 316.8124 451.11603" fill-rule="nonzero" stroke="#073763" stroke-width="2.0" stroke-linejoin="round" stroke-linecap="butt"></path><path d="M262.54642 446.96112L263.7808 447.27362Q263.39017 448.78925 262.38235 449.58612Q261.37454 450.383 259.92142 450.383Q258.42142 450.383 257.4761 449.77362Q256.5308 449.16425 256.0386 448.00018Q255.54642 446.83612 255.54642 445.508Q255.54642 444.05487 256.10892 442.96893Q256.67142 441.883 257.69485 441.3205Q258.7183 440.758 259.95267 440.758Q261.3433 440.758 262.29642 441.46893Q263.24954 442.17987 263.62454 443.47675L262.4058 443.758Q262.07767 442.74237 261.4683 442.28143Q260.85892 441.8205 259.92142 441.8205Q258.8433 441.8205 258.12454 442.33612Q257.4058 442.85175 257.11673 443.71112Q256.82767 444.5705 256.82767 445.49237Q256.82767 446.67987 257.17142 447.5705Q257.51517 448.46112 258.24173 448.89862Q258.9683 449.33612 259.82767 449.33612Q260.85892 449.33612 261.57767 448.73456Q262.29642 448.133 262.54642 446.96112ZM264.9683 446.85175Q264.9683 444.97675 265.99954 444.08612Q266.87454 443.33612 268.12454 443.33612Q269.51517 443.33612 270.39798 444.24237Q271.2808 445.14862 271.2808 446.758Q271.2808 448.05487 270.89017 448.80487Q270.49954 449.55487 269.74954 449.96893Q268.99954 450.383 268.12454 450.383Q266.70267 450.383 265.83548 449.47675Q264.9683 448.5705 264.9683 446.85175ZM266.14017 446.85175Q266.14017 448.14862 266.70267 448.79706Q267.26517 449.4455 268.12454 449.4455Q268.9683 449.4455 269.5386 448.79706Q270.10892 448.14862 270.10892 446.8205Q270.10892 445.5705 269.5386 444.92206Q268.9683 444.27362 268.12454 444.27362Q267.26517 444.27362 266.70267 444.91425Q266.14017 445.55487 266.14017 446.85175ZM272.81204 450.22675L272.81204 443.49237L273.8433 443.49237L273.8433 444.4455Q274.57767 443.33612 275.98392 443.33612Q276.5933 443.33612 277.1011 443.55487Q277.60892 443.77362 277.86673 444.12518Q278.12454 444.47675 278.2183 444.97675Q278.2808 445.28925 278.2808 446.08612L278.2808 450.22675L277.14017 450.22675L277.14017 446.133Q277.14017 445.42987 277.00735 445.08612Q276.87454 444.74237 276.5386 444.53143Q276.20267 444.3205 275.74954 444.3205Q275.01517 444.3205 274.48392 444.78143Q273.95267 445.24237 273.95267 446.53925L273.95267 450.22675L272.81204 450.22675ZM282.7183 449.21112L282.87454 450.21112Q282.39017 450.3205 282.01517 450.3205Q281.39017 450.3205 281.04642 450.11737Q280.70267 449.91425 280.56204 449.59393Q280.42142 449.27362 280.42142 448.258L280.42142 444.36737L279.5933 444.36737L279.5933 443.49237L280.42142 443.49237L280.42142 441.8205L281.56204 441.133L281.56204 443.49237L282.7183 443.49237L282.7183 444.36737L281.56204 444.36737L281.56204 448.3205Q281.56204 448.80487 281.62454 448.9455Q281.68704 449.08612 281.81985 449.16425Q281.95267 449.24237 282.20267 449.24237Q282.4058 449.24237 282.7183 449.21112ZM288.5308 448.05487L289.7183 448.1955Q289.43704 449.24237 288.67923 449.81268Q287.92142 450.383 286.74954 450.383Q285.26517 450.383 284.39798 449.46893Q283.5308 448.55487 283.5308 446.91425Q283.5308 445.21112 284.4136 444.27362Q285.29642 443.33612 286.68704 443.33612Q288.04642 443.33612 288.89798 444.258Q289.74954 445.17987 289.74954 446.83612Q289.74954 446.9455 289.74954 447.14862L284.7183 447.14862Q284.7808 448.258 285.3433 448.85175Q285.9058 449.4455 286.74954 449.4455Q287.39017 449.4455 287.83548 449.10956Q288.2808 448.77362 288.5308 448.05487ZM284.7808 446.21112L288.54642 446.21112Q288.4683 445.35175 288.10892 444.92987Q287.56204 444.27362 286.70267 444.27362Q285.9058 444.27362 285.37454 444.79706Q284.8433 445.3205 284.7808 446.21112ZM291.32767 450.22675L291.32767 443.49237L292.35892 443.49237L292.35892 444.4455Q293.0933 443.33612 294.49954 443.33612Q295.10892 443.33612 295.61673 443.55487Q296.12454 443.77362 296.38235 444.12518Q296.64017 444.47675 296.73392 444.97675Q296.79642 445.28925 296.79642 446.08612L296.79642 450.22675L295.6558 450.22675L295.6558 446.133Q295.6558 445.42987 295.52298 445.08612Q295.39017 444.74237 295.05423 444.53143Q294.7183 444.3205 294.26517 444.3205Q293.5308 444.3205 292.99954 444.78143Q292.4683 445.24237 292.4683 446.53925L292.4683 450.22675L291.32767 450.22675ZM301.24954 449.21112L301.4058 450.21112Q300.92142 450.3205 300.54642 450.3205Q299.92142 450.3205 299.57767 450.11737Q299.23392 449.91425 299.0933 449.59393Q298.95267 449.27362 298.95267 448.258L298.95267 444.36737L298.12454 444.36737L298.12454 443.49237L298.95267 443.49237L298.95267 441.8205L300.0933 441.133L300.0933 443.49237L301.24954 443.49237L301.24954 444.36737L300.0933 444.36737L300.0933 448.3205Q300.0933 448.80487 300.1558 448.9455Q300.2183 449.08612 300.3511 449.16425Q300.48392 449.24237 300.73392 449.24237Q300.93704 449.24237 301.24954 449.21112Z" fill-rule="nonzero" fill="#000000"></path><path d="M325.69028 438.07874L405.65878 438.07874" fill-rule="evenodd" stroke="#073763" stroke-width="2.0" stroke-linejoin="round" stroke-linecap="butt"></path><path d="M405.65878 441.3822L414.735 438.07874L405.65878 434.77527Z" fill-rule="evenodd" fill="#073763" stroke="#073763" stroke-width="2.0" stroke-linecap="butt"></path><path d="M510.18643 429.71402L549.90295 429.71402" fill-rule="evenodd" stroke="#073763" stroke-width="2.0" stroke-linejoin="round" stroke-linecap="butt"></path><path d="M549.90295 433.0175L558.9792 429.71402L549.90295 426.41058Z" fill-rule="evenodd" fill="#073763" stroke="#073763" stroke-width="2.0" stroke-linecap="butt"></path><path d="M362.1131 300.4119L410.64853 300.4119" fill-rule="evenodd" stroke="#ff0000" stroke-width="2.0" stroke-linejoin="round" stroke-linecap="butt"></path><path d="M410.64853 303.71536L419.72473 300.4119L410.64853 297.10843Z" fill-rule="evenodd" fill="#ff0000" stroke="#ff0000" stroke-width="2.0" stroke-linecap="butt"></path><path d="M462.80295 399.18353L462.80295 376.0654" fill-rule="evenodd" stroke="#073763" stroke-width="2.0" stroke-linejoin="round" stroke-linecap="butt"></path><path d="M459.49948 399.18353L462.80295 408.2597L466.1064 399.18353Z" fill-rule="evenodd" fill="#073763" stroke="#073763" stroke-width="2.0" stroke-linecap="butt"></path><path d="M336.6299 422.34384L403.62204 422.34384" fill-rule="evenodd" stroke="#073763" stroke-width="2.0" stroke-linejoin="round" stroke-linecap="butt"></path><path d="M403.62204 425.6473L412.69824 422.34384L403.62204 419.04037Z" fill-rule="evenodd" fill="#073763" stroke="#073763" stroke-width="2.0" stroke-linecap="butt"></path><path d="M501.36987 300.4119L548.58246 300.4119" fill-rule="evenodd" stroke="#073763" stroke-width="2.0" stroke-linejoin="round" stroke-linecap="butt"></path><path d="M548.58246 303.71536L557.6587 300.4119L548.58246 297.10843Z" fill-rule="evenodd" fill="#073763" stroke="#073763" stroke-width="2.0" stroke-linecap="butt"></path><path d="M337.77954 315.0L337.77954 422.1181" fill-rule="nonzero" stroke="#073763" stroke-width="2.0" stroke-linejoin="round" stroke-linecap="butt"></path><path d="M566.47504 458.9402L582.4381 458.9402L582.4381 469.0787L566.47504 469.0787Z" fill-rule="nonzero" fill="#bf9000" stroke="#073763" stroke-width="2.0" stroke-linejoin="round" stroke-linecap="butt"></path><path d="M573.3403 462.53543L573.3403 462.53543C573.3403 461.8184 573.9186 461.2371 574.6319 461.2371L574.6319 461.2371C574.9744 461.2371 575.3029 461.37387 575.54517 461.61737C575.78735 461.86087 575.92346 462.1911 575.92346 462.53543L575.92346 462.53543C575.92346 463.2525 575.3452 463.83377 574.6319 463.83377L574.6319 463.83377C573.9186 463.83377 573.3403 463.2525 573.3403 462.53543Z" fill-rule="nonzero" fill="#000000" stroke="#000000" stroke-width="2.0" stroke-linejoin="round" stroke-linecap="butt"></path><path d="M573.5474 466.48685L574.5744 461.76965L575.6014 466.48685Z" fill-rule="nonzero" fill="#000000" stroke="#000000" stroke-width="2.0" stroke-linejoin="round" stroke-linecap="butt"></path><path d="M567.6645 458.91852L567.6645 458.91852C567.6645 453.74582 570.6853 449.5525 574.4117 449.5525C578.13806 449.5525 581.15894 453.74582 581.15894 458.91852L577.7853 458.91852C577.7853 455.609 576.2749 452.92612 574.4117 452.92612C572.5485 452.92612 571.0381 455.609 571.0381 458.91852Z" fill-rule="nonzero" fill="#bf9000" stroke="#073763" stroke-width="2.0" stroke-linejoin="round" stroke-linecap="butt"></path><path d="M325.69028 454.97113L385.84778 454.97113" fill-rule="nonzero" stroke="#ff0000" stroke-width="2.0" stroke-linejoin="round" stroke-linecap="butt"></path><path d="M385.3596 453.937L385.3596 493.71652" fill-rule="evenodd" stroke="#ff0000" stroke-width="2.0" stroke-linejoin="round" stroke-linecap="butt"></path><path d="M382.05612 493.71652L385.3596 502.79272L388.66306 493.71652Z" fill-rule="evenodd" fill="#ff0000" stroke="#ff0000" stroke-width="2.0" stroke-linecap="butt"></path><path d="M244.76517 558.55646L270.59195 558.55646" fill-rule="evenodd" stroke="#ff0000" stroke-width="2.0" stroke-linejoin="round" stroke-linecap="butt"></path><path d="M270.59195 561.8599L279.66815 558.55646L270.59195 555.253Z" fill-rule="evenodd" fill="#ff0000" stroke="#ff0000" stroke-width="2.0" stroke-linecap="butt"></path><path d="M292.21603 562.5503L292.21603 554.6753L293.2629 554.6753L293.2629 557.90967L297.35666 557.90967L297.35666 554.6753L298.40353 554.6753L298.40353 562.5503L297.35666 562.5503L297.35666 558.83154L293.2629 558.83154L293.2629 562.5503L292.21603 562.5503ZM303.49728 561.84717Q302.9504 562.3003 302.45822 562.4878Q301.96603 562.6753 301.3879 562.6753Q300.4504 562.6753 299.9426 562.21436Q299.43478 561.7534 299.43478 561.0503Q299.43478 560.6284 299.6301 560.28467Q299.8254 559.9409 300.1301 559.73Q300.43478 559.51904 300.8254 559.40967Q301.10666 559.33154 301.68478 559.26904Q302.85666 559.1284 303.40353 558.9253Q303.41916 558.7378 303.41916 558.6753Q303.41916 558.08154 303.1379 557.84717Q302.77853 557.51904 302.04416 557.51904Q301.35666 557.51904 301.03635 557.7534Q300.71603 557.9878 300.55978 558.59717L299.60666 558.47217Q299.73166 557.8628 300.02853 557.4878Q300.3254 557.1128 300.8879 556.9175Q301.4504 556.72217 302.18478 556.72217Q302.91916 556.72217 303.37228 556.89404Q303.8254 557.0659 304.03635 557.3237Q304.24728 557.58154 304.34103 557.97217Q304.3879 558.22217 304.3879 558.8784L304.3879 560.15967Q304.3879 561.5034 304.4504 561.8628Q304.5129 562.22217 304.7004 562.5503L303.68478 562.5503Q303.52853 562.2534 303.49728 561.84717ZM303.40353 559.6909Q302.8879 559.90967 301.8254 560.0503Q301.23166 560.14404 300.98947 560.2456Q300.74728 560.34717 300.60666 560.5581Q300.46603 560.76904 300.46603 561.01904Q300.46603 561.40967 300.7629 561.6675Q301.05978 561.9253 301.62228 561.9253Q302.18478 561.9253 302.61447 561.6753Q303.04416 561.4253 303.2629 561.0034Q303.40353 560.6753 303.40353 560.03467L303.40353 559.6909ZM305.30978 560.84717L306.2629 560.6909Q306.34103 561.26904 306.70822 561.5737Q307.0754 561.8784 307.73166 561.8784Q308.40353 561.8784 308.72385 561.6128Q309.04416 561.34717 309.04416 560.97217Q309.04416 560.64404 308.7629 560.45654Q308.55978 560.33154 307.77853 560.1284Q306.71603 559.8628 306.30197 559.6675Q305.8879 559.47217 305.67697 559.1284Q305.46603 558.78467 305.46603 558.3628Q305.46603 557.97217 305.6379 557.65186Q305.80978 557.33154 306.12228 557.1128Q306.34103 556.9409 306.73166 556.83154Q307.12228 556.72217 307.55978 556.72217Q308.23166 556.72217 308.73947 556.90967Q309.24728 557.09717 309.48947 557.4331Q309.73166 557.76904 309.8254 558.3159L308.8879 558.4409Q308.80978 558.0034 308.5051 557.7612Q308.2004 557.51904 307.6379 557.51904Q306.96603 557.51904 306.68478 557.7378Q306.40353 557.95654 306.40353 558.2534Q306.40353 558.4409 306.5129 558.58154Q306.6379 558.7378 306.8879 558.84717Q307.02853 558.89404 307.74728 559.09717Q308.7629 559.3628 309.16916 559.53467Q309.5754 559.70654 309.80978 560.0425Q310.04416 560.3784 310.04416 560.8784Q310.04416 561.3628 309.7629 561.78467Q309.48166 562.20654 308.9504 562.4409Q308.41916 562.6753 307.74728 562.6753Q306.6379 562.6753 306.05197 562.21436Q305.46603 561.7534 305.30978 560.84717ZM311.0129 562.5503L311.0129 554.6753L311.98166 554.6753L311.98166 557.5034Q312.66916 556.72217 313.7004 556.72217Q314.3254 556.72217 314.79416 556.97217Q315.2629 557.22217 315.46603 557.65967Q315.66916 558.09717 315.66916 558.9409L315.66916 562.5503L314.7004 562.5503L314.7004 558.9409Q314.7004 558.20654 314.3879 557.8784Q314.0754 557.5503 313.49728 557.5503Q313.05978 557.5503 312.68478 557.76904Q312.30978 557.9878 312.14572 558.3706Q311.98166 558.7534 311.98166 559.4253L311.98166 562.5503L311.0129 562.5503ZM322.02853 561.6909L322.15353 562.53467Q321.74728 562.6284 321.43478 562.6284Q320.90353 562.6284 320.61447 562.45654Q320.3254 562.28467 320.20822 562.01904Q320.09103 561.7534 320.09103 560.8784L320.09103 557.59717L319.37228 557.59717L319.37228 556.84717L320.09103 556.84717L320.09103 555.4409L321.04416 554.84717L321.04416 556.84717L322.02853 556.84717L322.02853 557.59717L321.04416 557.59717L321.04416 560.9409Q321.04416 561.34717 321.09885 561.46436Q321.15353 561.58154 321.27072 561.65186Q321.3879 561.72217 321.59103 561.72217Q321.7629 561.72217 322.02853 561.6909ZM322.85666 562.5503L322.85666 554.6753L323.8254 554.6753L323.8254 557.5034Q324.5129 556.72217 325.54416 556.72217Q326.16916 556.72217 326.6379 556.97217Q327.10666 557.22217 327.30978 557.65967Q327.5129 558.09717 327.5129 558.9409L327.5129 562.5503L326.54416 562.5503L326.54416 558.9409Q326.54416 558.20654 326.23166 557.8784Q325.91916 557.5503 325.34103 557.5503Q324.90353 557.5503 324.52853 557.76904Q324.15353 557.9878 323.98947 558.3706Q323.8254 558.7534 323.8254 559.4253L323.8254 562.5503L322.85666 562.5503ZM332.7004 560.70654L333.7004 560.83154Q333.46603 561.70654 332.8254 562.1909Q332.18478 562.6753 331.2004 562.6753Q329.9504 562.6753 329.21603 561.90967Q328.48166 561.14404 328.48166 559.7534Q328.48166 558.3003 329.22385 557.5112Q329.96603 556.72217 331.1379 556.72217Q332.29416 556.72217 333.0129 557.4956Q333.73166 558.26904 333.73166 559.6909Q333.73166 559.76904 333.73166 559.9409L329.48166 559.9409Q329.52853 560.8784 330.0051 561.3784Q330.48166 561.8784 331.2004 561.8784Q331.73166 561.8784 332.10666 561.605Q332.48166 561.33154 332.7004 560.70654ZM329.52853 559.14404L332.71603 559.14404Q332.65353 558.4253 332.35666 558.0659Q331.8879 557.51904 331.15353 557.51904Q330.48166 557.51904 330.02853 557.96436Q329.5754 558.40967 329.52853 559.14404ZM337.7004 555.78467L337.7004 554.6753L338.66916 554.6753L338.66916 555.78467L337.7004 555.78467ZM337.7004 562.5503L337.7004 556.84717L338.66916 556.84717L338.66916 562.5503L337.7004 562.5503ZM340.04416 562.5503L340.04416 556.84717L340.91916 556.84717L340.91916 557.65967Q341.54416 556.72217 342.73166 556.72217Q343.24728 556.72217 343.68478 556.90186Q344.12228 557.08154 344.33322 557.3862Q344.54416 557.6909 344.6379 558.09717Q344.68478 558.3784 344.68478 559.0503L344.68478 562.5503L343.71603 562.5503L343.71603 559.08154Q343.71603 558.4878 343.60666 558.1987Q343.49728 557.90967 343.20822 557.73Q342.91916 557.5503 342.52853 557.5503Q341.91916 557.5503 341.46603 557.9409Q341.0129 558.33154 341.0129 559.4409L341.0129 562.5503L340.04416 562.5503ZM345.96603 564.7378L345.96603 556.84717L346.85666 556.84717L346.85666 557.58154Q347.16916 557.15967 347.55978 556.9409Q347.9504 556.72217 348.5129 556.72217Q349.23166 556.72217 349.79416 557.09717Q350.35666 557.47217 350.6379 558.15186Q350.91916 558.83154 350.91916 559.65967Q350.91916 560.53467 350.60666 561.23Q350.29416 561.9253 349.6926 562.3003Q349.09103 562.6753 348.43478 562.6753Q347.9504 562.6753 347.5676 562.47217Q347.18478 562.26904 346.93478 561.95654L346.93478 564.7378L345.96603 564.7378ZM346.84103 559.7378Q346.84103 560.83154 347.29416 561.355Q347.74728 561.8784 348.37228 561.8784Q349.0129 561.8784 349.47385 561.33936Q349.93478 560.8003 349.93478 559.64404Q349.93478 558.5659 349.48947 558.01904Q349.04416 557.47217 348.41916 557.47217Q347.79416 557.47217 347.3176 558.0503Q346.84103 558.6284 346.84103 559.7378ZM355.65353 562.5503L355.65353 561.70654Q354.98166 562.6753 353.84103 562.6753Q353.34103 562.6753 352.89572 562.48Q352.4504 562.28467 352.23947 561.9956Q352.02853 561.70654 351.9504 561.28467Q351.8879 561.0034 351.8879 560.3784L351.8879 556.84717L352.85666 556.84717L352.85666 560.0034Q352.85666 560.76904 352.91916 561.03467Q353.0129 561.40967 353.30197 561.6284Q353.59103 561.84717 354.02853 561.84717Q354.46603 561.84717 354.84885 561.6206Q355.23166 561.39404 355.3879 561.0112Q355.54416 560.6284 355.54416 559.90967L355.54416 556.84717L356.5129 556.84717L356.5129 562.5503L355.65353 562.5503ZM359.9504 561.6909L360.0754 562.53467Q359.66916 562.6284 359.35666 562.6284Q358.8254 562.6284 358.53635 562.45654Q358.24728 562.28467 358.1301 562.01904Q358.0129 561.7534 358.0129 560.8784L358.0129 557.59717L357.29416 557.59717L357.29416 556.84717L358.0129 556.84717L358.0129 555.4409L358.96603 554.84717L358.96603 556.84717L359.9504 556.84717L359.9504 557.59717L358.96603 557.59717L358.96603 560.9409Q358.96603 561.34717 359.02072 561.46436Q359.0754 561.58154 359.1926 561.65186Q359.30978 561.72217 359.5129 561.72217Q359.68478 561.72217 359.9504 561.6909Z" fill-rule="nonzero" fill="#000000"></path><path d="M457.72284 369.05753L457.72284 359.74503L458.9416 359.74503L458.9416 369.05753L457.72284 369.05753ZM463.86346 369.05753L460.2697 359.74503L461.59784 359.74503L464.0197 366.51065Q464.30096 367.32315 464.5041 368.0419Q464.72284 367.27628 465.0041 366.51065L467.5197 359.74503L468.7697 359.74503L465.1291 369.05753L463.86346 369.05753Z" fill-rule="nonzero" fill="#000000"></path><path d="M422.3439 412.45013L510.18643 412.45013L510.18643 449.5525L422.3439 449.5525Z" fill-rule="nonzero" fill="#cfe2f3" stroke="#073763" stroke-width="2.0" stroke-linejoin="round" stroke-linecap="butt"></path><path d="M442.4064 436.497L442.4064 427.1845L449.29703 427.1845L449.29703 428.76263L444.2814 428.76263L444.2814 430.82513L448.95328 430.82513L448.95328 432.40326L444.2814 432.40326L444.2814 434.9345L449.48453 434.9345L449.48453 436.497L442.4064 436.497ZM457.39078 436.497L455.60953 436.497L455.60953 433.0595Q455.60953 431.96576 455.49234 431.64545Q455.37515 431.32513 455.11734 431.14545Q454.85953 430.96576 454.50015 430.96576Q454.04703 430.96576 453.67984 431.22357Q453.31265 431.48138 453.17203 431.89545Q453.0314 432.3095 453.0314 433.45013L453.0314 436.497L451.25015 436.497L451.25015 429.76263L452.9064 429.76263L452.9064 430.747Q453.7814 429.60638 455.12515 429.60638Q455.7189 429.60638 456.20328 429.81732Q456.68765 430.02826 456.94547 430.35638Q457.20328 430.6845 457.29703 431.10638Q457.39078 431.52826 457.39078 432.3095L457.39078 436.497ZM465.29703 431.747L463.5314 432.0595Q463.45328 431.54388 463.13297 431.27826Q462.81265 431.01263 462.31265 431.01263Q461.6564 431.01263 461.25797 431.46576Q460.85953 431.91888 460.85953 433.01263Q460.85953 434.20013 461.26578 434.70013Q461.67203 435.20013 462.3439 435.20013Q462.85953 435.20013 463.17984 434.91107Q463.50015 434.622 463.62515 433.91888L465.39078 434.21576Q465.10953 435.41888 464.3361 436.03607Q463.56265 436.65326 462.26578 436.65326Q460.7814 436.65326 459.9064 435.71576Q459.0314 434.77826 459.0314 433.13763Q459.0314 431.46576 459.9064 430.53607Q460.7814 429.60638 462.29703 429.60638Q463.5314 429.60638 464.25797 430.13763Q464.98453 430.66888 465.29703 431.747ZM468.5314 436.497L466.75015 436.497L466.75015 429.76263L468.4064 429.76263L468.4064 430.71576Q468.82828 430.02826 469.17203 429.81732Q469.51578 429.60638 469.93765 429.60638Q470.54703 429.60638 471.10953 429.9345L470.56265 431.497Q470.10953 431.20013 469.7189 431.20013Q469.3439 431.20013 469.0861 431.41107Q468.82828 431.622 468.67984 432.16107Q468.5314 432.70013 468.5314 434.41888L468.5314 436.497ZM471.17203 429.76263L473.06265 429.76263L474.67203 434.54388L476.25015 429.76263L478.0939 429.76263L475.7189 436.247L475.29703 437.41888Q475.06265 438.01263 474.8517 438.32513Q474.64078 438.63763 474.35953 438.82513Q474.07828 439.01263 473.67984 439.122Q473.2814 439.23138 472.76578 439.23138Q472.25015 439.23138 471.75015 439.122L471.5939 437.73138Q472.01578 437.8095 472.35953 437.8095Q472.9689 437.8095 473.2736 437.44232Q473.57828 437.07513 473.73453 436.51263L471.17203 429.76263ZM479.35953 429.76263L481.0314 429.76263L481.0314 430.747Q481.35953 430.23138 481.9064 429.91888Q482.45328 429.60638 483.12515 429.60638Q484.31265 429.60638 485.12515 430.52826Q485.93765 431.45013 485.93765 433.09076Q485.93765 434.77826 485.11734 435.71576Q484.29703 436.65326 483.12515 436.65326Q482.56265 436.65326 482.10953 436.4267Q481.6564 436.20013 481.1564 435.66888L481.1564 439.0595L479.35953 439.0595L479.35953 429.76263ZM481.12515 433.01263Q481.12515 434.15326 481.57828 434.69232Q482.0314 435.23138 482.68765 435.23138Q483.29703 435.23138 483.7111 434.73138Q484.12515 434.23138 484.12515 433.10638Q484.12515 432.04388 483.70328 431.52826Q483.2814 431.01263 482.6564 431.01263Q482.00015 431.01263 481.56265 431.52045Q481.12515 432.02826 481.12515 433.01263ZM490.6564 429.76263L490.6564 431.1845L489.43765 431.1845L489.43765 433.88763Q489.43765 434.71576 489.4689 434.85638Q489.50015 434.997 489.62515 435.08295Q489.75015 435.16888 489.92203 435.16888Q490.17203 435.16888 490.64078 434.997L490.79703 436.38763Q490.17203 436.65326 489.39078 436.65326Q488.9064 436.65326 488.51578 436.4892Q488.12515 436.32513 487.94547 436.06732Q487.76578 435.8095 487.70328 435.372Q487.64078 435.0595 487.64078 434.122L487.64078 431.1845L486.82828 431.1845L486.82828 429.76263L487.64078 429.76263L487.64078 428.41888L489.43765 427.372L489.43765 429.76263L490.6564 429.76263Z" fill-rule="nonzero" fill="#000000"></path><path d="M427.78934 424.46933L430.8206 416.59433L431.92996 416.59433L435.16434 424.46933L433.97684 424.46933L433.05496 422.0787L429.7581 422.0787L428.8987 424.46933L427.78934 424.46933ZM430.05496 421.23495L432.72684 421.23495L431.91434 419.04745Q431.53934 418.06308 431.35184 417.42245Q431.1956 418.17245 430.92996 418.92245L430.05496 421.23495ZM435.78934 424.46933L435.78934 416.59433L441.47684 416.59433L441.47684 417.53183L436.8206 417.53183L436.8206 419.93808L441.17996 419.93808L441.17996 420.85995L436.8206 420.85995L436.8206 423.54745L441.66434 423.54745L441.66434 424.46933L435.78934 424.46933ZM442.5081 421.93808L443.49246 421.85995Q443.55496 422.43808 443.81277 422.8209Q444.0706 423.2037 444.60184 423.43808Q445.1331 423.67245 445.80496 423.67245Q446.41434 423.67245 446.86746 423.49277Q447.3206 423.31308 447.54715 423.0084Q447.7737 422.7037 447.7737 422.3287Q447.7737 421.9537 447.55496 421.68027Q447.3362 421.40683 446.8362 421.21933Q446.5237 421.09433 445.43777 420.83652Q444.35184 420.5787 443.91434 420.34433Q443.35184 420.04745 443.0784 419.60995Q442.80496 419.17245 442.80496 418.62558Q442.80496 418.03183 443.1409 417.5162Q443.47684 417.00058 444.12527 416.72714Q444.7737 416.4537 445.5706 416.4537Q446.4456 416.4537 447.11746 416.74277Q447.78934 417.03183 448.1487 417.5787Q448.5081 418.12558 448.53934 418.81308L447.53934 418.8912Q447.4612 418.1412 446.99246 417.7584Q446.5237 417.37558 445.61746 417.37558Q444.67996 417.37558 444.24246 417.72714Q443.80496 418.0787 443.80496 418.56308Q443.80496 418.98495 444.11746 419.2662Q444.41434 419.53183 445.68777 419.8209Q446.9612 420.10995 447.42996 420.3287Q448.11746 420.6412 448.4456 421.12558Q448.7737 421.60995 448.7737 422.25058Q448.7737 422.87558 448.41434 423.43027Q448.05496 423.98495 447.37527 424.29745Q446.6956 424.60995 445.85184 424.60995Q444.78934 424.60995 444.0706 424.29745Q443.35184 423.98495 442.93777 423.35995Q442.5237 422.73495 442.5081 421.93808Z" fill-rule="nonzero" fill="#ff0000"></path><path d="M436.54364 294.58707L437.7155 294.4777Q437.79364 295.18082 438.09833 295.62613Q438.403 296.07144 439.03583 296.34488Q439.66864 296.61832 440.4655 296.61832Q441.16864 296.61832 441.7077 296.4152Q442.24677 296.21207 442.5124 295.84488Q442.778 295.4777 442.778 295.0402Q442.778 294.6027 442.5202 294.27457Q442.2624 293.94644 441.68427 293.7277Q441.30927 293.58707 440.028 293.27457Q438.74677 292.96207 438.23114 292.69644Q437.55927 292.3527 437.23114 291.82925Q436.903 291.30582 436.903 290.6652Q436.903 289.96207 437.30145 289.3527Q437.6999 288.74332 438.47333 288.423Q439.24677 288.1027 440.18427 288.1027Q441.2155 288.1027 442.00458 288.43863Q442.79364 288.77457 443.22333 289.423Q443.653 290.07144 443.68427 290.88394L442.49677 290.9777Q442.403 290.08707 441.85614 289.64175Q441.30927 289.19644 440.23114 289.19644Q439.12177 289.19644 438.60614 289.6027Q438.0905 290.00894 438.0905 290.58707Q438.0905 291.08707 438.4499 291.4152Q438.80927 291.74332 440.30927 292.07925Q441.80927 292.4152 442.37177 292.6652Q443.18427 293.0402 443.56708 293.61832Q443.9499 294.19644 443.9499 294.94644Q443.9499 295.68082 443.528 296.33707Q443.10614 296.99332 442.30927 297.3605Q441.5124 297.7277 440.5124 297.7277Q439.24677 297.7277 438.3952 297.3605Q437.54364 296.99332 437.05927 296.25113Q436.5749 295.50894 436.54364 294.58707ZM448.2155 296.55582L448.37177 297.55582Q447.8874 297.6652 447.5124 297.6652Q446.8874 297.6652 446.54364 297.46207Q446.1999 297.25894 446.05927 296.93863Q445.91864 296.61832 445.91864 295.6027L445.91864 291.71207L445.0905 291.71207L445.0905 290.83707L445.91864 290.83707L445.91864 289.1652L447.05927 288.4777L447.05927 290.83707L448.2155 290.83707L448.2155 291.71207L447.05927 291.71207L447.05927 295.6652Q447.05927 296.14957 447.12177 296.2902Q447.18427 296.43082 447.31708 296.50894Q447.4499 296.58707 447.6999 296.58707Q447.903 296.58707 448.2155 296.55582ZM448.99677 294.19644Q448.99677 292.32144 450.028 291.43082Q450.903 290.68082 452.153 290.68082Q453.54364 290.68082 454.42645 291.58707Q455.30927 292.49332 455.30927 294.1027Q455.30927 295.39957 454.91864 296.14957Q454.528 296.89957 453.778 297.31363Q453.028 297.7277 452.153 297.7277Q450.73114 297.7277 449.86395 296.82144Q448.99677 295.9152 448.99677 294.19644ZM450.16864 294.19644Q450.16864 295.49332 450.73114 296.14175Q451.29364 296.7902 452.153 296.7902Q452.99677 296.7902 453.56708 296.14175Q454.1374 295.49332 454.1374 294.1652Q454.1374 292.9152 453.56708 292.26675Q452.99677 291.61832 452.153 291.61832Q451.29364 291.61832 450.73114 292.25894Q450.16864 292.89957 450.16864 294.19644ZM456.80927 297.57144L456.80927 290.83707L457.8405 290.83707L457.8405 291.8527Q458.23114 291.13394 458.56708 290.90738Q458.903 290.68082 459.29364 290.68082Q459.87177 290.68082 460.4655 291.0402L460.0749 292.1027Q459.653 291.8527 459.24677 291.8527Q458.87177 291.8527 458.56708 292.07925Q458.2624 292.30582 458.1374 292.71207Q457.9499 293.32144 457.9499 294.0402L457.9499 297.57144L456.80927 297.57144ZM465.653 296.74332Q465.028 297.27457 464.44208 297.50113Q463.85614 297.7277 463.18427 297.7277Q462.05927 297.7277 461.4655 297.18082Q460.87177 296.63394 460.87177 295.7902Q460.87177 295.30582 461.09833 294.89175Q461.3249 294.4777 461.69208 294.2277Q462.05927 293.9777 462.5124 293.8527Q462.8405 293.77457 463.528 293.68082Q464.903 293.52457 465.55927 293.2902Q465.5749 293.05582 465.5749 292.99332Q465.5749 292.2902 465.24677 292.00894Q464.80927 291.61832 463.9499 291.61832Q463.1374 291.61832 462.75458 291.89957Q462.37177 292.18082 462.18427 292.89957L461.0749 292.75894Q461.2155 292.0402 461.56708 291.59488Q461.91864 291.14957 462.5827 290.9152Q463.24677 290.68082 464.10614 290.68082Q464.98114 290.68082 465.5202 290.88394Q466.05927 291.08707 466.30927 291.39175Q466.55927 291.69644 466.66864 292.1652Q466.7155 292.46207 466.7155 293.2277L466.7155 294.74332Q466.7155 296.33707 466.79364 296.75894Q466.87177 297.18082 467.0749 297.57144L465.8874 297.57144Q465.7155 297.21207 465.653 296.74332ZM465.55927 294.18082Q464.93427 294.44644 463.6999 294.61832Q462.99677 294.7277 462.6999 294.8527Q462.403 294.9777 462.24677 295.21988Q462.0905 295.46207 462.0905 295.75894Q462.0905 296.21207 462.43427 296.51675Q462.778 296.82144 463.4499 296.82144Q464.10614 296.82144 464.62177 296.53238Q465.1374 296.24332 465.3874 295.74332Q465.55927 295.36832 465.55927 294.6027L465.55927 294.18082ZM468.4655 298.13394L469.5905 298.2902Q469.653 298.80582 469.9655 299.0402Q470.403 299.36832 471.1374 299.36832Q471.91864 299.36832 472.35614 299.048Q472.79364 298.7277 472.93427 298.14957Q473.028 297.80582 473.028 296.69644Q472.278 297.57144 471.153 297.57144Q469.7624 297.57144 469.00458 296.57144Q468.24677 295.57144 468.24677 294.1652Q468.24677 293.19644 468.59833 292.38394Q468.9499 291.57144 469.60614 291.12613Q470.2624 290.68082 471.16864 290.68082Q472.35614 290.68082 473.1374 291.64957L473.1374 290.83707L474.18427 290.83707L474.18427 296.64957Q474.18427 298.2277 473.86395 298.88394Q473.54364 299.5402 472.84833 299.923Q472.153 300.30582 471.1374 300.30582Q469.93427 300.30582 469.19208 299.76675Q468.4499 299.2277 468.4655 298.13394ZM469.41864 294.08707Q469.41864 295.39957 469.94208 296.00894Q470.4655 296.61832 471.2624 296.61832Q472.05927 296.61832 472.5905 296.01675Q473.12177 295.4152 473.12177 294.11832Q473.12177 292.88394 472.5749 292.25113Q472.028 291.61832 471.24677 291.61832Q470.48114 291.61832 469.9499 292.24332Q469.41864 292.86832 469.41864 294.08707ZM480.6999 295.39957L481.8874 295.5402Q481.60614 296.58707 480.84833 297.15738Q480.0905 297.7277 478.91864 297.7277Q477.43427 297.7277 476.56708 296.81363Q475.6999 295.89957 475.6999 294.25894Q475.6999 292.55582 476.5827 291.61832Q477.4655 290.68082 478.85614 290.68082Q480.2155 290.68082 481.06708 291.6027Q481.91864 292.52457 481.91864 294.18082Q481.91864 294.2902 481.91864 294.49332L476.8874 294.49332Q476.9499 295.6027 477.5124 296.19644Q478.0749 296.7902 478.91864 296.7902Q479.55927 296.7902 480.00458 296.45425Q480.4499 296.11832 480.6999 295.39957ZM476.9499 293.55582L480.7155 293.55582Q480.6374 292.69644 480.278 292.27457Q479.73114 291.61832 478.87177 291.61832Q478.0749 291.61832 477.54364 292.14175Q477.0124 292.6652 476.9499 293.55582Z" fill-rule="nonzero" fill="#000000"></path><path d="M444.2155 312.57144L444.2155 303.25894L445.43427 303.25894L445.43427 312.57144L444.2155 312.57144ZM447.55927 312.57144L447.55927 305.83707L448.5905 305.83707L448.5905 306.7902Q449.3249 305.68082 450.73114 305.68082Q451.3405 305.68082 451.84833 305.89957Q452.35614 306.11832 452.61395 306.46988Q452.87177 306.82144 452.9655 307.32144Q453.028 307.63394 453.028 308.43082L453.028 312.57144L451.8874 312.57144L451.8874 308.4777Q451.8874 307.77457 451.75458 307.43082Q451.62177 307.08707 451.28583 306.87613Q450.9499 306.6652 450.49677 306.6652Q449.7624 306.6652 449.23114 307.12613Q448.6999 307.58707 448.6999 308.88394L448.6999 312.57144L447.55927 312.57144ZM459.35614 312.57144L459.35614 311.7277Q458.7155 312.7277 457.4655 312.7277Q456.66864 312.7277 455.98895 312.28238Q455.30927 311.83707 454.93427 311.0402Q454.55927 310.24332 454.55927 309.21207Q454.55927 308.19644 454.903 307.37613Q455.24677 306.55582 455.91864 306.11832Q456.5905 305.68082 457.41864 305.68082Q458.028 305.68082 458.50458 305.93863Q458.98114 306.19644 459.278 306.6027L459.278 303.25894L460.41864 303.25894L460.41864 312.57144L459.35614 312.57144ZM455.74677 309.21207Q455.74677 310.50894 456.28583 311.14957Q456.8249 311.7902 457.5749 311.7902Q458.3249 311.7902 458.84833 311.173Q459.37177 310.55582 459.37177 309.30582Q459.37177 307.9152 458.8405 307.26675Q458.30927 306.61832 457.528 306.61832Q456.7624 306.61832 456.25458 307.24332Q455.74677 307.86832 455.74677 309.21207ZM466.99677 310.39957L468.18427 310.5402Q467.903 311.58707 467.1452 312.15738Q466.3874 312.7277 465.2155 312.7277Q463.73114 312.7277 462.86395 311.81363Q461.99677 310.89957 461.99677 309.25894Q461.99677 307.55582 462.87958 306.61832Q463.7624 305.68082 465.153 305.68082Q466.5124 305.68082 467.36395 306.6027Q468.2155 307.52457 468.2155 309.18082Q468.2155 309.2902 468.2155 309.49332L463.18427 309.49332Q463.24677 310.6027 463.80927 311.19644Q464.37177 311.7902 465.2155 311.7902Q465.85614 311.7902 466.30145 311.45425Q466.74677 311.11832 466.99677 310.39957ZM463.24677 308.55582L467.0124 308.55582Q466.93427 307.69644 466.5749 307.27457Q466.028 306.61832 465.16864 306.61832Q464.37177 306.61832 463.8405 307.14175Q463.30927 307.6652 463.24677 308.55582ZM469.028 312.57144L471.49677 309.07144L469.2155 305.83707L470.6374 305.83707L471.68427 307.4152Q471.9655 307.86832 472.153 308.1652Q472.41864 307.74332 472.653 307.43082L473.79364 305.83707L475.16864 305.83707L472.8249 309.00894L475.3405 312.57144L473.93427 312.57144L472.55927 310.4777L472.18427 309.9152L470.41864 312.57144L469.028 312.57144Z" fill-rule="nonzero" fill="#000000"></path><path d="M367.46896 526.55884L367.46896 517.24634L370.6721 517.24634Q371.76584 517.24634 372.32834 517.38696Q373.14084 517.57446 373.70334 518.05884Q374.4377 518.6682 374.8049 519.63696Q375.1721 520.6057 375.1721 521.8557Q375.1721 522.9182 374.9221 523.7385Q374.6721 524.55884 374.28146 525.0901Q373.89084 525.62134 373.4299 525.93384Q372.96896 526.24634 372.32053 526.4026Q371.6721 526.55884 370.82834 526.55884L367.46896 526.55884ZM368.70334 525.4651L370.6877 525.4651Q371.6096 525.4651 372.13303 525.2932Q372.65646 525.12134 372.96896 524.80884Q373.40646 524.37134 373.64865 523.62915Q373.89084 522.88696 373.89084 521.8401Q373.89084 520.37134 373.41428 519.5901Q372.9377 518.80884 372.2502 518.5432Q371.7502 518.3557 370.65646 518.3557L368.70334 518.3557L368.70334 525.4651ZM376.95334 518.57446L376.95334 517.24634L378.09396 517.24634L378.09396 518.57446L376.95334 518.57446ZM376.95334 526.55884L376.95334 519.82446L378.09396 519.82446L378.09396 526.55884L376.95334 526.55884ZM379.6877 527.12134L380.8127 527.2776Q380.8752 527.7932 381.1877 528.0276Q381.6252 528.3557 382.3596 528.3557Q383.14084 528.3557 383.57834 528.0354Q384.01584 527.7151 384.15646 527.13696Q384.2502 526.7932 384.2502 525.68384Q383.5002 526.55884 382.3752 526.55884Q380.9846 526.55884 380.22678 525.55884Q379.46896 524.55884 379.46896 523.1526Q379.46896 522.18384 379.82053 521.37134Q380.1721 520.55884 380.82834 520.1135Q381.4846 519.6682 382.39084 519.6682Q383.57834 519.6682 384.3596 520.63696L384.3596 519.82446L385.40646 519.82446L385.40646 525.63696Q385.40646 527.2151 385.08615 527.87134Q384.76584 528.5276 384.07053 528.9104Q383.3752 529.2932 382.3596 529.2932Q381.15646 529.2932 380.41428 528.75415Q379.6721 528.2151 379.6877 527.12134ZM380.64084 523.07446Q380.64084 524.38696 381.16428 524.99634Q381.6877 525.6057 382.4846 525.6057Q383.28146 525.6057 383.8127 525.00415Q384.34396 524.4026 384.34396 523.1057Q384.34396 521.87134 383.7971 521.2385Q383.2502 520.6057 382.46896 520.6057Q381.70334 520.6057 381.1721 521.2307Q380.64084 521.8557 380.64084 523.07446ZM391.9377 524.38696L393.1252 524.5276Q392.84396 525.57446 392.08615 526.1448Q391.32834 526.7151 390.15646 526.7151Q388.6721 526.7151 387.8049 525.801Q386.9377 524.88696 386.9377 523.24634Q386.9377 521.5432 387.82053 520.6057Q388.70334 519.6682 390.09396 519.6682Q391.45334 519.6682 392.3049 520.5901Q393.15646 521.51196 393.15646 523.1682Q393.15646 523.2776 393.15646 523.4807L388.1252 523.4807Q388.1877 524.5901 388.7502 525.18384Q389.3127 525.7776 390.15646 525.7776Q390.7971 525.7776 391.2424 525.44165Q391.6877 525.1057 391.9377 524.38696ZM388.1877 522.5432L391.95334 522.5432Q391.8752 521.68384 391.51584 521.26196Q390.96896 520.6057 390.1096 520.6057Q389.3127 520.6057 388.78146 521.12915Q388.2502 521.6526 388.1877 522.5432ZM394.28146 524.5432L395.40646 524.37134Q395.5002 525.0432 395.9377 525.4104Q396.3752 525.7776 397.15646 525.7776Q397.9377 525.7776 398.32053 525.4573Q398.70334 525.13696 398.70334 524.69946Q398.70334 524.30884 398.3596 524.0901Q398.1252 523.93384 397.1877 523.69946Q395.9377 523.38696 395.45334 523.1526Q394.96896 522.9182 394.71896 522.51196Q394.46896 522.1057 394.46896 521.6057Q394.46896 521.1526 394.6721 520.7698Q394.8752 520.38696 395.2346 520.13696Q395.5002 519.93384 395.96115 519.801Q396.4221 519.6682 396.95334 519.6682Q397.7346 519.6682 398.33615 519.8948Q398.9377 520.12134 399.22678 520.51196Q399.51584 520.9026 399.6252 521.55884L398.5002 521.7151Q398.4221 521.18384 398.0627 520.8948Q397.70334 520.6057 397.03146 520.6057Q396.2502 520.6057 395.90646 520.8635Q395.5627 521.12134 395.5627 521.4807Q395.5627 521.69946 395.70334 521.87134Q395.84396 522.05884 396.14084 522.18384Q396.3127 522.24634 397.15646 522.4651Q398.3752 522.7932 398.85178 522.99634Q399.32834 523.19946 399.60178 523.5979Q399.8752 523.99634 399.8752 524.57446Q399.8752 525.1526 399.53928 525.6526Q399.20334 526.1526 398.57834 526.43384Q397.95334 526.7151 397.15646 526.7151Q395.84396 526.7151 395.15646 526.1682Q394.46896 525.62134 394.28146 524.5432ZM403.89084 525.5432L404.0471 526.5432Q403.5627 526.6526 403.1877 526.6526Q402.5627 526.6526 402.21896 526.44946Q401.8752 526.24634 401.7346 525.926Q401.59396 525.6057 401.59396 524.5901L401.59396 520.69946L400.76584 520.69946L400.76584 519.82446L401.59396 519.82446L401.59396 518.1526L402.7346 517.4651L402.7346 519.82446L403.89084 519.82446L403.89084 520.69946L402.7346 520.69946L402.7346 524.6526Q402.7346 525.13696 402.7971 525.2776Q402.8596 525.4182 402.9924 525.49634Q403.1252 525.57446 403.3752 525.57446Q403.57834 525.57446 403.89084 525.5432Z" fill-rule="nonzero" fill="#000000"></path></svg>

