<?xml version="1.0" standalone="yes"?>

<svg version="1.1" viewBox="0.0 0.0 960.0 720.0" fill="none" stroke="none" stroke-linecap="square" stroke-miterlimit="10" xmlns="http://www.w3.org/2000/svg" xmlns:xlink="http://www.w3.org/1999/xlink"><path d="M556.4665 338.40643L717.4347 338.40643L717.4347 601.8281C636.9506 601.8281 636.9506 702.19666 556.4665 645.16907Z" fill-rule="nonzero" fill="#d9d2e9" stroke="#073763" stroke-width="2.0" stroke-linejoin="round" stroke-linecap="butt"></path><path d="M567.2946 362.00018L567.2946 351.2658L574.529 351.2658L574.529 352.53143L568.7165 352.53143L568.7165 355.85956L573.74774 355.85956L573.74774 357.12518L568.7165 357.12518L568.7165 362.00018L567.2946 362.00018ZM576.01337 352.78143L576.01337 351.2658L577.32587 351.2658L577.32587 352.78143L576.01337 352.78143ZM576.01337 362.00018L576.01337 354.21893L577.32587 354.21893L577.32587 362.00018L576.01337 362.00018ZM579.2165 362.00018L579.2165 351.2658L580.5446 351.2658L580.5446 362.00018L579.2165 362.00018ZM587.8415 359.50018L589.20087 359.65643Q588.88837 360.85956 588.01337 361.5158Q587.13837 362.17206 585.779 362.17206Q584.07587 362.17206 583.07587 361.12518Q582.07587 360.0783 582.07587 358.17206Q582.07587 356.21893 583.0915 355.133Q584.1071 354.04706 585.7165 354.04706Q587.279 354.04706 588.26337 355.10956Q589.24774 356.17206 589.24774 358.09393Q589.24774 358.21893 589.24774 358.4533L583.43524 358.4533Q583.51337 359.73456 584.1618 360.41425Q584.81024 361.09393 585.7946 361.09393Q586.51337 361.09393 587.029 360.71112Q587.5446 360.3283 587.8415 359.50018ZM583.51337 357.35956L587.8571 357.35956Q587.76337 356.37518 587.3571 355.8908Q586.7321 355.12518 585.7321 355.12518Q584.81024 355.12518 584.19305 355.73456Q583.57587 356.34393 583.51337 357.35956Z" fill-rule="nonzero" fill="#000000"></path><path d="M578.19617 443.94812L699.14105 443.94812L699.14105 526.5308L578.19617 526.5308Z" fill-rule="nonzero" fill="#f4cccc" stroke="#073763" stroke-width="2.0" stroke-linejoin="round" stroke-linecap="butt"></path><path d="M609.6696 518.3071C643.16437 526.1749 643.16437 510.43933 676.6555 510.43933L676.6555 469.54095L609.6696 469.54095ZM615.1884 469.54095L615.1884 464.23874L681.71686 464.23874L681.71686 505.39365C679.188 505.39365 676.6555 505.6787 676.6555 505.6787L676.6555 469.54095ZM620.37585 464.23874L620.37585 459.0648L687.48065 459.0648L687.48065 500.09143C684.59875 500.09143 681.71686 500.30524 681.71686 500.30524L681.71686 464.23874Z" fill-rule="nonzero" fill="#cfe2f3"></path><path d="M609.6696 469.54095L676.6555 469.54095L676.6555 510.43933C643.16437 510.43933 643.16437 526.1749 609.6696 518.3071ZM615.1884 469.54095L615.1884 464.23874L681.71686 464.23874L681.71686 505.39365C679.188 505.39365 676.6555 505.6787 676.6555 505.6787M620.37585 464.23874L620.37585 459.0648L687.48065 459.0648L687.48065 500.09143C684.59875 500.09143 681.71686 500.30524 681.71686 500.30524" fill-rule="nonzero" stroke="#073763" stroke-width="2.0" stroke-linejoin="round" stroke-linecap="butt"></path><path d="M627.45087 496.15033L628.68524 496.46283Q628.2946 497.97845 627.2868 498.77533Q626.279 499.5722 624.82587 499.5722Q623.32587 499.5722 622.38055 498.96283Q621.43524 498.35345 620.94305 497.1894Q620.45087 496.02533 620.45087 494.6972Q620.45087 493.24408 621.01337 492.15814Q621.57587 491.0722 622.5993 490.5097Q623.62274 489.9472 624.8571 489.9472Q626.24774 489.9472 627.20087 490.65814Q628.154 491.36908 628.529 492.66595L627.31024 492.9472Q626.9821 491.93158 626.37274 491.47064Q625.76337 491.0097 624.82587 491.0097Q623.74774 491.0097 623.029 491.52533Q622.31024 492.04095 622.0212 492.90033Q621.7321 493.7597 621.7321 494.68158Q621.7321 495.86908 622.07587 496.7597Q622.4196 497.65033 623.1462 498.08783Q623.87274 498.52533 624.7321 498.52533Q625.76337 498.52533 626.4821 497.92377Q627.20087 497.3222 627.45087 496.15033ZM629.87274 496.04095Q629.87274 494.16595 630.904 493.27533Q631.779 492.52533 633.029 492.52533Q634.4196 492.52533 635.3024 493.43158Q636.18524 494.33783 636.18524 495.9472Q636.18524 497.24408 635.7946 497.99408Q635.404 498.74408 634.654 499.15814Q633.904 499.5722 633.029 499.5722Q631.6071 499.5722 630.7399 498.66595Q629.87274 497.7597 629.87274 496.04095ZM631.0446 496.04095Q631.0446 497.33783 631.6071 497.98627Q632.1696 498.6347 633.029 498.6347Q633.87274 498.6347 634.44305 497.98627Q635.01337 497.33783 635.01337 496.0097Q635.01337 494.7597 634.44305 494.11127Q633.87274 493.46283 633.029 493.46283Q632.1696 493.46283 631.6071 494.10345Q631.0446 494.74408 631.0446 496.04095ZM637.7165 499.41595L637.7165 492.68158L638.74774 492.68158L638.74774 493.6347Q639.4821 492.52533 640.88837 492.52533Q641.49774 492.52533 642.00555 492.74408Q642.51337 492.96283 642.7712 493.3144Q643.029 493.66595 643.12274 494.16595Q643.18524 494.47845 643.18524 495.27533L643.18524 499.41595L642.0446 499.41595L642.0446 495.3222Q642.0446 494.61908 641.9118 494.27533Q641.779 493.93158 641.44305 493.72064Q641.1071 493.5097 640.654 493.5097Q639.9196 493.5097 639.38837 493.97064Q638.8571 494.43158 638.8571 495.72845L638.8571 499.41595L637.7165 499.41595ZM647.62274 498.40033L647.779 499.40033Q647.2946 499.5097 646.9196 499.5097Q646.2946 499.5097 645.95087 499.30658Q645.6071 499.10345 645.4665 498.78314Q645.32587 498.46283 645.32587 497.4472L645.32587 493.55658L644.49774 493.55658L644.49774 492.68158L645.32587 492.68158L645.32587 491.0097L646.4665 490.3222L646.4665 492.68158L647.62274 492.68158L647.62274 493.55658L646.4665 493.55658L646.4665 497.5097Q646.4665 497.99408 646.529 498.1347Q646.5915 498.27533 646.7243 498.35345Q646.8571 498.43158 647.1071 498.43158Q647.31024 498.43158 647.62274 498.40033ZM653.43524 497.24408L654.62274 497.3847Q654.3415 498.43158 653.5837 499.0019Q652.82587 499.5722 651.654 499.5722Q650.1696 499.5722 649.3024 498.65814Q648.43524 497.74408 648.43524 496.10345Q648.43524 494.40033 649.31805 493.46283Q650.20087 492.52533 651.5915 492.52533Q652.95087 492.52533 653.8024 493.4472Q654.654 494.36908 654.654 496.02533Q654.654 496.1347 654.654 496.33783L649.62274 496.33783Q649.68524 497.4472 650.24774 498.04095Q650.81024 498.6347 651.654 498.6347Q652.2946 498.6347 652.7399 498.29877Q653.18524 497.96283 653.43524 497.24408ZM649.68524 495.40033L653.45087 495.40033Q653.37274 494.54095 653.01337 494.11908Q652.4665 493.46283 651.6071 493.46283Q650.81024 493.46283 650.279 493.98627Q649.74774 494.5097 649.68524 495.40033ZM656.2321 499.41595L656.2321 492.68158L657.26337 492.68158L657.26337 493.6347Q657.99774 492.52533 659.404 492.52533Q660.01337 492.52533 660.5212 492.74408Q661.029 492.96283 661.2868 493.3144Q661.5446 493.66595 661.63837 494.16595Q661.70087 494.47845 661.70087 495.27533L661.70087 499.41595L660.56024 499.41595L660.56024 495.3222Q660.56024 494.61908 660.4274 494.27533Q660.2946 493.93158 659.9587 493.72064Q659.62274 493.5097 659.1696 493.5097Q658.43524 493.5097 657.904 493.97064Q657.37274 494.43158 657.37274 495.72845L657.37274 499.41595L656.2321 499.41595ZM666.154 498.40033L666.31024 499.40033Q665.82587 499.5097 665.45087 499.5097Q664.82587 499.5097 664.4821 499.30658Q664.13837 499.10345 663.99774 498.78314Q663.8571 498.46283 663.8571 497.4472L663.8571 493.55658L663.029 493.55658L663.029 492.68158L663.8571 492.68158L663.8571 491.0097L664.99774 490.3222L664.99774 492.68158L666.154 492.68158L666.154 493.55658L664.99774 493.55658L664.99774 497.5097Q664.99774 497.99408 665.06024 498.1347Q665.12274 498.27533 665.25555 498.35345Q665.38837 498.43158 665.63837 498.43158Q665.8415 498.43158 666.154 498.40033Z" fill-rule="nonzero" fill="#000000"></path><path d="M583.22705 460.49304L586.8052 451.18054L588.1177 451.18054L591.9302 460.49304L590.5239 460.49304L589.4458 457.68054L585.5552 457.68054L584.5239 460.49304L583.22705 460.49304ZM585.91455 456.66492L589.0708 456.66492L588.0864 454.0868Q587.6489 452.91492 587.4302 452.16492Q587.2583 453.05554 586.9302 453.94617L585.91455 456.66492ZM593.16455 460.49304L593.16455 451.18054L599.8833 451.18054L599.8833 452.28992L594.3989 452.28992L594.3989 455.13367L599.53955 455.13367L599.53955 456.22742L594.3989 456.22742L594.3989 459.3993L600.10205 459.3993L600.10205 460.49304L593.16455 460.49304ZM601.60205 457.50867L602.7739 457.3993Q602.85205 458.10242 603.15674 458.54773Q603.4614 458.99304 604.09424 459.26648Q604.72705 459.53992 605.5239 459.53992Q606.22705 459.53992 606.7661 459.3368Q607.3052 459.13367 607.5708 458.76648Q607.8364 458.3993 607.8364 457.9618Q607.8364 457.5243 607.5786 457.19617Q607.3208 456.86804 606.7427 456.6493Q606.3677 456.50867 605.0864 456.19617Q603.8052 455.88367 603.28955 455.61804Q602.6177 455.2743 602.28955 454.75085Q601.9614 454.22742 601.9614 453.5868Q601.9614 452.88367 602.35986 452.2743Q602.7583 451.66492 603.53174 451.3446Q604.3052 451.0243 605.2427 451.0243Q606.2739 451.0243 607.063 451.36023Q607.85205 451.69617 608.28174 452.3446Q608.7114 452.99304 608.7427 453.80554L607.5552 453.8993Q607.4614 453.00867 606.91455 452.56335Q606.3677 452.11804 605.28955 452.11804Q604.1802 452.11804 603.66455 452.5243Q603.1489 452.93054 603.1489 453.50867Q603.1489 454.00867 603.5083 454.3368Q603.8677 454.66492 605.3677 455.00085Q606.8677 455.3368 607.4302 455.5868Q608.2427 455.9618 608.6255 456.53992Q609.0083 457.11804 609.0083 457.86804Q609.0083 458.60242 608.5864 459.25867Q608.16455 459.91492 607.3677 460.2821Q606.5708 460.6493 605.5708 460.6493Q604.3052 460.6493 603.4536 460.2821Q602.60205 459.91492 602.1177 459.17273Q601.6333 458.43054 601.60205 457.50867Z" fill-rule="nonzero" fill="#ff0000"></path><path d="M578.29034 526.5915L699.20374 526.5915L699.20374 583.75684L578.29034 583.75684Z" fill-rule="nonzero" fill="#f4cccc" stroke="#073763" stroke-width="2.0" stroke-linejoin="round" stroke-linecap="butt"></path><path d="M585.2862 540.2291L588.8643 530.9166L590.1768 530.9166L593.9893 540.2291L592.58307 540.2291L591.50494 537.4166L587.6143 537.4166L586.58307 540.2291L585.2862 540.2291ZM587.9737 536.401L591.12994 536.401L590.14557 533.8229Q589.70807 532.651 589.4893 531.901Q589.31744 532.7916 588.9893 533.68225L587.9737 536.401ZM595.2237 540.2291L595.2237 530.9166L601.94244 530.9166L601.94244 532.026L596.45807 532.026L596.45807 534.86975L601.5987 534.86975L601.5987 535.9635L596.45807 535.9635L596.45807 539.1354L602.1612 539.1354L602.1612 540.2291L595.2237 540.2291ZM603.6612 537.24475L604.83307 537.1354Q604.9112 537.8385 605.2159 538.2838Q605.52057 538.7291 606.1534 539.00256Q606.7862 539.276 607.58307 539.276Q608.2862 539.276 608.82526 539.0729Q609.3643 538.86975 609.62994 538.50256Q609.89557 538.1354 609.89557 537.6979Q609.89557 537.2604 609.63776 536.93225Q609.37994 536.6041 608.8018 536.3854Q608.4268 536.24475 607.14557 535.93225Q605.8643 535.61975 605.3487 535.3541Q604.6768 535.0104 604.3487 534.48694Q604.02057 533.9635 604.02057 533.3229Q604.02057 532.61975 604.419 532.0104Q604.81744 531.401 605.5909 531.0807Q606.3643 530.7604 607.3018 530.7604Q608.33307 530.7604 609.12213 531.0963Q609.9112 531.43225 610.3409 532.0807Q610.77057 532.7291 610.8018 533.5416L609.6143 533.6354Q609.52057 532.74475 608.9737 532.29944Q608.4268 531.8541 607.3487 531.8541Q606.2393 531.8541 605.7237 532.2604Q605.20807 532.6666 605.20807 533.24475Q605.20807 533.74475 605.56744 534.0729Q605.9268 534.401 607.4268 534.73694Q608.9268 535.0729 609.4893 535.3229Q610.3018 535.6979 610.68463 536.276Q611.06744 536.8541 611.06744 537.6041Q611.06744 538.3385 610.64557 538.99475Q610.2237 539.651 609.4268 540.0182Q608.62994 540.3854 607.62994 540.3854Q606.3643 540.3854 605.51276 540.0182Q604.6612 539.651 604.1768 538.9088Q603.69244 538.1666 603.6612 537.24475Z" fill-rule="nonzero" fill="#ff0000"></path><path d="M594.2274 575.95795L611.31665 547.1088L679.67377 547.1088L662.58453 575.95795Z" fill-rule="nonzero" fill="#cfe2f3" stroke="#073763" stroke-width="2.0" stroke-linejoin="round" stroke-linecap="butt"></path><path d="M622.426 567.0307L622.426 557.7182L623.6448 557.7182L623.6448 561.5463L628.4885 561.5463L628.4885 557.7182L629.7229 557.7182L629.7229 567.0307L628.4885 567.0307L628.4885 562.6401L623.6448 562.6401L623.6448 567.0307L622.426 567.0307ZM636.25415 566.2026Q635.62915 566.7338 635.0432 566.9604Q634.4573 567.18695 633.7854 567.18695Q632.6604 567.18695 632.06665 566.6401Q631.4729 566.0932 631.4729 565.24945Q631.4729 564.7651 631.69946 564.351Q631.926 563.93695 632.2932 563.68695Q632.6604 563.43695 633.1135 563.31195Q633.44165 563.2338 634.12915 563.1401Q635.50415 562.9838 636.1604 562.74945Q636.176 562.5151 636.176 562.4526Q636.176 561.74945 635.8479 561.4682Q635.4104 561.0776 634.551 561.0776Q633.7385 561.0776 633.3557 561.3588Q632.9729 561.6401 632.7854 562.3588L631.676 562.2182Q631.81665 561.49945 632.1682 561.05414Q632.5198 560.6088 633.18384 560.37445Q633.8479 560.1401 634.7073 560.1401Q635.5823 560.1401 636.12134 560.3432Q636.6604 560.5463 636.9104 560.851Q637.1604 561.1557 637.2698 561.62445Q637.31665 561.9213 637.31665 562.68695L637.31665 564.2026Q637.31665 565.7963 637.3948 566.2182Q637.4729 566.6401 637.676 567.0307L636.4885 567.0307Q636.31665 566.6713 636.25415 566.2026ZM636.1604 563.6401Q635.5354 563.9057 634.301 564.0776Q633.5979 564.18695 633.301 564.31195Q633.00415 564.43695 632.8479 564.67914Q632.69165 564.9213 632.69165 565.2182Q632.69165 565.6713 633.0354 565.976Q633.37915 566.2807 634.051 566.2807Q634.7073 566.2807 635.2229 565.99164Q635.7385 565.7026 635.9885 565.2026Q636.1604 564.8276 636.1604 564.06195L636.1604 563.6401ZM638.8323 565.0151L639.9573 564.8432Q640.051 565.5151 640.4885 565.88226Q640.926 566.24945 641.7073 566.24945Q642.4885 566.24945 642.87134 565.92914Q643.25415 565.6088 643.25415 565.1713Q643.25415 564.7807 642.9104 564.56195Q642.676 564.4057 641.7385 564.1713Q640.4885 563.8588 640.00415 563.62445Q639.5198 563.3901 639.2698 562.9838Q639.0198 562.5776 639.0198 562.0776Q639.0198 561.62445 639.2229 561.24164Q639.426 560.8588 639.7854 560.6088Q640.051 560.4057 640.51196 560.2729Q640.9729 560.1401 641.50415 560.1401Q642.2854 560.1401 642.88696 560.36664Q643.4885 560.5932 643.7776 560.9838Q644.06665 561.37445 644.176 562.0307L643.051 562.18695Q642.9729 561.6557 642.6135 561.36664Q642.25415 561.0776 641.5823 561.0776Q640.801 561.0776 640.4573 561.3354Q640.1135 561.5932 640.1135 561.9526Q640.1135 562.1713 640.25415 562.3432Q640.3948 562.5307 640.69165 562.6557Q640.8635 562.7182 641.7073 562.93695Q642.926 563.2651 643.4026 563.4682Q643.87915 563.6713 644.1526 564.06976Q644.426 564.4682 644.426 565.0463Q644.426 565.62445 644.0901 566.12445Q643.75415 566.62445 643.12915 566.9057Q642.50415 567.18695 641.7073 567.18695Q640.3948 567.18695 639.7073 566.6401Q639.0198 566.0932 638.8323 565.0151ZM645.94165 567.0307L645.94165 557.7182L647.0823 557.7182L647.0823 561.06195Q647.87915 560.1401 649.0979 560.1401Q649.8479 560.1401 650.4026 560.43695Q650.9573 560.7338 651.19165 561.24945Q651.426 561.7651 651.426 562.7651L651.426 567.0307L650.2854 567.0307L650.2854 562.7651Q650.2854 561.9057 649.9182 561.5151Q649.551 561.12445 648.8635 561.12445Q648.3635 561.12445 647.9104 561.38226Q647.4573 561.6401 647.2698 562.0932Q647.0823 562.5463 647.0823 563.3432L647.0823 567.0307L645.94165 567.0307Z" fill-rule="nonzero" fill="#000000"></path><path d="M581.34033 372.71106L702.56866 372.71106L702.56866 429.30554L581.34033 429.30554Z" fill-rule="nonzero" fill="#ffffff" stroke="#073763" stroke-width="2.0" stroke-linejoin="round" stroke-linecap="butt"></path><path d="M586.82745 410.34915Q586.82745 408.47415 587.8587 407.58353Q588.7337 406.83353 589.9837 406.83353Q591.3743 406.83353 592.25714 407.73978Q593.13995 408.64603 593.13995 410.2554Q593.13995 411.55228 592.7493 412.30228Q592.3587 413.05228 591.6087 413.46634Q590.8587 413.8804 589.9837 413.8804Q588.5618 413.8804 587.69464 412.97415Q586.82745 412.0679 586.82745 410.34915ZM587.9993 410.34915Q587.9993 411.64603 588.5618 412.29446Q589.1243 412.9429 589.9837 412.9429Q590.82745 412.9429 591.39777 412.29446Q591.9681 411.64603 591.9681 410.3179Q591.9681 409.0679 591.39777 408.41946Q590.82745 407.77103 589.9837 407.77103Q589.1243 407.77103 588.5618 408.41165Q587.9993 409.05228 587.9993 410.34915ZM598.7181 413.72415L598.7181 404.41165L599.9368 404.41165L599.9368 413.72415L598.7181 413.72415ZM604.8587 413.72415L601.26495 404.41165L602.5931 404.41165L605.01495 411.17728Q605.2962 411.98978 605.4993 412.70853Q605.7181 411.9429 605.9993 411.17728L608.51495 404.41165L609.76495 404.41165L606.1243 413.72415L604.8587 413.72415Z" fill-rule="nonzero" fill="#000000"></path><path d="M585.7393 395.39886Q585.7393 393.52386 586.77057 392.63324Q587.64557 391.88324 588.89557 391.88324Q590.2862 391.88324 591.169 392.7895Q592.0518 393.69574 592.0518 395.3051Q592.0518 396.602 591.6612 397.352Q591.27057 398.102 590.52057 398.51605Q589.77057 398.9301 588.89557 398.9301Q587.4737 398.9301 586.6065 398.02386Q585.7393 397.1176 585.7393 395.39886ZM586.9112 395.39886Q586.9112 396.69574 587.4737 397.34418Q588.0362 397.9926 588.89557 397.9926Q589.7393 397.9926 590.30963 397.34418Q590.87994 396.69574 590.87994 395.3676Q590.87994 394.1176 590.30963 393.46918Q589.7393 392.82074 588.89557 392.82074Q588.0362 392.82074 587.4737 393.46136Q586.9112 394.102 586.9112 395.39886ZM596.9893 395.7895L598.1612 395.6801Q598.2393 396.38324 598.544 396.82855Q598.8487 397.27386 599.4815 397.5473Q600.1143 397.82074 600.9112 397.82074Q601.6143 397.82074 602.1534 397.6176Q602.69244 397.4145 602.95807 397.0473Q603.2237 396.6801 603.2237 396.2426Q603.2237 395.8051 602.9659 395.477Q602.70807 395.14886 602.12994 394.9301Q601.75494 394.7895 600.4737 394.477Q599.19244 394.1645 598.6768 393.89886Q598.00494 393.5551 597.6768 393.03168Q597.3487 392.50824 597.3487 391.8676Q597.3487 391.1645 597.74713 390.5551Q598.14557 389.94574 598.919 389.62543Q599.69244 389.3051 600.62994 389.3051Q601.6612 389.3051 602.45026 389.64105Q603.2393 389.977 603.669 390.62543Q604.0987 391.27386 604.12994 392.08636L602.94244 392.1801Q602.8487 391.2895 602.3018 390.84418Q601.75494 390.39886 600.6768 390.39886Q599.56744 390.39886 599.0518 390.8051Q598.5362 391.21136 598.5362 391.7895Q598.5362 392.2895 598.89557 392.6176Q599.25494 392.94574 600.75494 393.28168Q602.25494 393.6176 602.81744 393.8676Q603.62994 394.2426 604.01276 394.82074Q604.39557 395.39886 604.39557 396.14886Q604.39557 396.88324 603.9737 397.5395Q603.5518 398.19574 602.75494 398.56293Q601.95807 398.9301 600.95807 398.9301Q599.69244 398.9301 598.8409 398.56293Q597.9893 398.19574 597.50494 397.45355Q597.02057 396.71136 596.9893 395.7895ZM608.6612 397.75824L608.81744 398.75824Q608.33307 398.8676 607.95807 398.8676Q607.33307 398.8676 606.9893 398.6645Q606.64557 398.46136 606.50494 398.14105Q606.3643 397.82074 606.3643 396.8051L606.3643 392.9145L605.5362 392.9145L605.5362 392.0395L606.3643 392.0395L606.3643 390.3676L607.50494 389.6801L607.50494 392.0395L608.6612 392.0395L608.6612 392.9145L607.50494 392.9145L607.50494 396.8676Q607.50494 397.352 607.56744 397.4926Q607.62994 397.63324 607.76276 397.71136Q607.89557 397.7895 608.14557 397.7895Q608.3487 397.7895 608.6612 397.75824ZM609.44244 395.39886Q609.44244 393.52386 610.4737 392.63324Q611.3487 391.88324 612.5987 391.88324Q613.9893 391.88324 614.87213 392.7895Q615.75494 393.69574 615.75494 395.3051Q615.75494 396.602 615.3643 397.352Q614.9737 398.102 614.2237 398.51605Q613.4737 398.9301 612.5987 398.9301Q611.1768 398.9301 610.30963 398.02386Q609.44244 397.1176 609.44244 395.39886ZM610.6143 395.39886Q610.6143 396.69574 611.1768 397.34418Q611.7393 397.9926 612.5987 397.9926Q613.44244 397.9926 614.01276 397.34418Q614.58307 396.69574 614.58307 395.3676Q614.58307 394.1176 614.01276 393.46918Q613.44244 392.82074 612.5987 392.82074Q611.7393 392.82074 611.1768 393.46136Q610.6143 394.102 610.6143 395.39886ZM617.27057 398.77386L617.27057 392.0395L618.3018 392.0395L618.3018 393.0551Q618.69244 392.33636 619.0284 392.1098Q619.3643 391.88324 619.75494 391.88324Q620.33307 391.88324 620.9268 392.2426L620.5362 393.3051Q620.1143 393.0551 619.70807 393.0551Q619.33307 393.0551 619.0284 393.28168Q618.7237 393.50824 618.5987 393.9145Q618.4112 394.52386 618.4112 395.2426L618.4112 398.77386L617.27057 398.77386ZM626.1143 397.94574Q625.4893 398.477 624.9034 398.70355Q624.31744 398.9301 623.64557 398.9301Q622.52057 398.9301 621.9268 398.38324Q621.33307 397.83636 621.33307 396.9926Q621.33307 396.50824 621.55963 396.09418Q621.7862 395.6801 622.1534 395.4301Q622.52057 395.1801 622.9737 395.0551Q623.3018 394.977 623.9893 394.88324Q625.3643 394.727 626.02057 394.4926Q626.0362 394.25824 626.0362 394.19574Q626.0362 393.4926 625.70807 393.21136Q625.27057 392.82074 624.4112 392.82074Q623.5987 392.82074 623.2159 393.102Q622.83307 393.38324 622.64557 394.102L621.5362 393.96136Q621.6768 393.2426 622.0284 392.7973Q622.37994 392.352 623.044 392.1176Q623.70807 391.88324 624.56744 391.88324Q625.44244 391.88324 625.9815 392.08636Q626.52057 392.2895 626.77057 392.59418Q627.02057 392.89886 627.12994 393.3676Q627.1768 393.6645 627.1768 394.4301L627.1768 395.94574Q627.1768 397.5395 627.25494 397.96136Q627.33307 398.38324 627.5362 398.77386L626.3487 398.77386Q626.1768 398.4145 626.1143 397.94574ZM626.02057 395.38324Q625.39557 395.64886 624.1612 395.82074Q623.45807 395.9301 623.1612 396.0551Q622.8643 396.1801 622.70807 396.4223Q622.5518 396.6645 622.5518 396.96136Q622.5518 397.4145 622.89557 397.71918Q623.2393 398.02386 623.9112 398.02386Q624.56744 398.02386 625.08307 397.7348Q625.5987 397.44574 625.8487 396.94574Q626.02057 396.57074 626.02057 395.8051L626.02057 395.38324ZM628.9112 399.33636L630.0362 399.4926Q630.0987 400.00824 630.4112 400.2426Q630.8487 400.57074 631.58307 400.57074Q632.3643 400.57074 632.8018 400.25043Q633.2393 399.9301 633.37994 399.352Q633.4737 399.00824 633.4737 397.89886Q632.7237 398.77386 631.5987 398.77386Q630.20807 398.77386 629.45026 397.77386Q628.69244 396.77386 628.69244 395.3676Q628.69244 394.39886 629.044 393.58636Q629.39557 392.77386 630.0518 392.32855Q630.70807 391.88324 631.6143 391.88324Q632.8018 391.88324 633.58307 392.852L633.58307 392.0395L634.62994 392.0395L634.62994 397.852Q634.62994 399.4301 634.30963 400.08636Q633.9893 400.7426 633.294 401.12543Q632.5987 401.50824 631.58307 401.50824Q630.37994 401.50824 629.63776 400.96918Q628.89557 400.4301 628.9112 399.33636ZM629.8643 395.2895Q629.8643 396.602 630.38776 397.21136Q630.9112 397.82074 631.70807 397.82074Q632.50494 397.82074 633.0362 397.21918Q633.56744 396.6176 633.56744 395.32074Q633.56744 394.08636 633.02057 393.45355Q632.4737 392.82074 631.69244 392.82074Q630.9268 392.82074 630.39557 393.44574Q629.8643 394.07074 629.8643 395.2895ZM641.14557 396.602L642.33307 396.7426Q642.0518 397.7895 641.294 398.3598Q640.5362 398.9301 639.3643 398.9301Q637.87994 398.9301 637.01276 398.01605Q636.14557 397.102 636.14557 395.46136Q636.14557 393.75824 637.0284 392.82074Q637.9112 391.88324 639.3018 391.88324Q640.6612 391.88324 641.51276 392.8051Q642.3643 393.727 642.3643 395.38324Q642.3643 395.4926 642.3643 395.69574L637.33307 395.69574Q637.39557 396.8051 637.95807 397.39886Q638.52057 397.9926 639.3643 397.9926Q640.00494 397.9926 640.45026 397.65668Q640.89557 397.32074 641.14557 396.602ZM637.39557 394.75824L641.1612 394.75824Q641.08307 393.89886 640.7237 393.477Q640.1768 392.82074 639.31744 392.82074Q638.52057 392.82074 637.9893 393.34418Q637.45807 393.8676 637.39557 394.75824ZM648.02057 398.77386L648.02057 389.46136L649.2393 389.46136L649.2393 398.77386L648.02057 398.77386ZM651.3643 398.77386L651.3643 392.0395L652.39557 392.0395L652.39557 392.9926Q653.12994 391.88324 654.5362 391.88324Q655.14557 391.88324 655.6534 392.102Q656.1612 392.32074 656.419 392.6723Q656.6768 393.02386 656.77057 393.52386Q656.83307 393.83636 656.83307 394.63324L656.83307 398.77386L655.69244 398.77386L655.69244 394.6801Q655.69244 393.977 655.55963 393.63324Q655.4268 393.2895 655.0909 393.07855Q654.75494 392.8676 654.3018 392.8676Q653.56744 392.8676 653.0362 393.32855Q652.50494 393.7895 652.50494 395.08636L652.50494 398.77386L651.3643 398.77386ZM663.14557 398.77386L663.14557 397.9301Q662.50494 398.9301 661.25494 398.9301Q660.45807 398.9301 659.7784 398.4848Q659.0987 398.0395 658.7237 397.2426Q658.3487 396.44574 658.3487 395.4145Q658.3487 394.39886 658.69244 393.57855Q659.0362 392.75824 659.70807 392.32074Q660.37994 391.88324 661.20807 391.88324Q661.81744 391.88324 662.294 392.14105Q662.77057 392.39886 663.06744 392.8051L663.06744 389.46136L664.20807 389.46136L664.20807 398.77386L663.14557 398.77386ZM659.5362 395.4145Q659.5362 396.71136 660.07526 397.352Q660.6143 397.9926 661.3643 397.9926Q662.1143 397.9926 662.63776 397.37543Q663.1612 396.75824 663.1612 395.50824Q663.1612 394.1176 662.62994 393.46918Q662.0987 392.82074 661.31744 392.82074Q660.5518 392.82074 660.044 393.44574Q659.5362 394.07074 659.5362 395.4145ZM670.8018 396.602L671.9893 396.7426Q671.70807 397.7895 670.95026 398.3598Q670.19244 398.9301 669.02057 398.9301Q667.5362 398.9301 666.669 398.01605Q665.8018 397.102 665.8018 395.46136Q665.8018 393.75824 666.68463 392.82074Q667.56744 391.88324 668.95807 391.88324Q670.31744 391.88324 671.169 392.8051Q672.02057 393.727 672.02057 395.38324Q672.02057 395.4926 672.02057 395.69574L666.9893 395.69574Q667.0518 396.8051 667.6143 397.39886Q668.1768 397.9926 669.02057 397.9926Q669.6612 397.9926 670.1065 397.65668Q670.5518 397.32074 670.8018 396.602ZM667.0518 394.75824L670.81744 394.75824Q670.7393 393.89886 670.37994 393.477Q669.83307 392.82074 668.9737 392.82074Q668.1768 392.82074 667.64557 393.34418Q667.1143 393.8676 667.0518 394.75824ZM672.83307 398.77386L675.3018 395.27386L673.02057 392.0395L674.44244 392.0395L675.4893 393.6176Q675.77057 394.07074 675.95807 394.3676Q676.2237 393.94574 676.45807 393.63324L677.5987 392.0395L678.9737 392.0395L676.62994 395.21136L679.14557 398.77386L677.7393 398.77386L676.3643 396.6801L675.9893 396.1176L674.2237 398.77386L672.83307 398.77386Z" fill-rule="nonzero" fill="#000000"></path><path d="M578.5852 205.59262L578.5852 205.59262C577.4571 197.93353 581.16095 190.3515 588.1251 186.06386C595.0893 181.77623 604.09247 181.53493 611.31415 185.44238L611.31415 185.44238C613.8723 180.98907 618.5545 177.91437 623.9444 177.1483C629.3343 176.38225 634.7989 178.01482 638.68524 181.55219L638.68524 181.55219C640.86444 177.51453 645.1434 174.80173 650.00366 174.37645C654.8639 173.95116 659.6176 175.87358 662.578 179.4615L662.578 179.4615C666.5151 175.1816 672.77905 173.37958 678.6595 174.83519C684.5399 176.2908 688.9806 180.74261 690.06006 186.26428L690.06006 186.26428C694.8836 187.4798 698.90155 190.5698 701.07574 194.7359C703.24994 198.90202 703.3671 203.73558 701.397 207.98773L701.397 207.98773C706.1468 213.69885 707.25793 221.30884 704.3157 227.9778C701.3734 234.64674 694.8198 239.37273 687.1006 240.39209C687.0462 246.65114 683.33057 252.39436 677.38586 255.40808C671.44116 258.42178 664.19574 258.2354 658.4422 254.92073C655.9915 262.41702 649.0936 267.93274 640.7287 269.08484C632.3638 270.23697 624.0314 266.81897 619.3314 260.30756C613.57025 263.51706 606.6573 264.44162 600.15204 262.87265C593.6468 261.3037 588.0971 257.3734 584.755 251.96837L584.755 251.96837C578.8678 252.60483 573.1757 249.78696 570.50366 244.91324C567.8316 240.03954 568.7485 234.14748 572.79913 230.1613L572.79913 230.1613C567.5476 227.30579 564.868 221.63951 566.15753 216.11719C567.4471 210.59488 572.41364 206.46793 578.46735 205.88837Z" fill-rule="nonzero" fill="#cfe2f3" stroke="#073763" stroke-width="2.0" stroke-linejoin="round" stroke-linecap="butt"></path><path d="M572.80066 230.16075L572.80066 230.16075C575.2789 231.50827 578.1418 232.11954 581.005 231.91249M584.7552 251.96832C585.9865 251.8352 587.1934 251.55331 588.3448 251.12993M619.3299 260.30716C618.46387 259.10736 617.7388 257.8253 617.16705 256.48276M658.4422 254.9201L658.4422 254.9201C658.889 253.5534 659.17847 252.14679 659.3058 250.72372M687.0995 240.39198C687.1574 233.72826 683.06055 227.62688 676.56866 224.70857M701.39575 207.98833C700.3444 210.25746 698.7394 212.27037 696.7066 213.86923M690.05975 186.26428L690.05975 186.26428C690.2389 187.18062 690.32184 188.1107 690.3074 189.04169M662.5782 179.46179L662.5782 179.46179C661.59607 180.5294 660.7869 181.72247 660.176 183.0038M638.68524 181.55199L638.68524 181.55199C638.16187 182.5217 637.771 183.54784 637.5217 184.60672M611.3137 185.44228L611.3137 185.44228C612.84186 186.26909 614.25555 187.26425 615.5238 188.40588M578.5852 205.59262L578.5852 205.59262C578.7407 206.64824 578.9864 207.69086 579.31995 208.71068" fill-rule="nonzero" stroke="#073763" stroke-width="2.0" stroke-linejoin="round" stroke-linecap="butt"></path><path d="M616.606 193.16743L655.21954 193.16743L655.21954 239.22758C635.9128 239.22758 635.9128 256.77734 616.606 246.8059Z" fill-rule="nonzero" fill="#d9d2e9" stroke="#073763" stroke-width="2.0" stroke-linejoin="round" stroke-linecap="butt"></path><path d="M635.9128 268.857L635.9128 321.5184" fill-rule="evenodd" stroke="#073763" stroke-width="2.0" stroke-linejoin="round" stroke-linecap="butt"></path><path d="M632.6093 321.5184L635.9128 330.5946L639.21625 321.5184Z" fill-rule="evenodd" fill="#073763" stroke="#073763" stroke-width="2.0" stroke-linecap="butt"></path><path d="M648.8417 313.40088L648.8417 304.08838L652.0448 304.08838Q653.13855 304.08838 653.70105 304.229Q654.51355 304.4165 655.07605 304.90088Q655.8104 305.51025 656.1776 306.479Q656.5448 307.44775 656.5448 308.69775Q656.5448 309.76025 656.2948 310.58057Q656.0448 311.40088 655.6542 311.93213Q655.26355 312.46338 654.8026 312.77588Q654.3417 313.08838 653.69324 313.24463Q653.0448 313.40088 652.20105 313.40088L648.8417 313.40088ZM650.07605 312.30713L652.0604 312.30713Q652.9823 312.30713 653.50574 312.13525Q654.0292 311.96338 654.3417 311.65088Q654.7792 311.21338 655.02136 310.4712Q655.26355 309.729 655.26355 308.68213Q655.26355 307.21338 654.787 306.43213Q654.3104 305.65088 653.6229 305.38525Q653.1229 305.19775 652.0292 305.19775L650.07605 305.19775L650.07605 312.30713ZM657.9042 310.02588Q657.9042 308.15088 658.9354 307.26025Q659.8104 306.51025 661.0604 306.51025Q662.45105 306.51025 663.33386 307.4165Q664.2167 308.32275 664.2167 309.93213Q664.2167 311.229 663.82605 311.979Q663.4354 312.729 662.6854 313.14307Q661.9354 313.55713 661.0604 313.55713Q659.63855 313.55713 658.77136 312.65088Q657.9042 311.74463 657.9042 310.02588ZM659.07605 310.02588Q659.07605 311.32275 659.63855 311.9712Q660.20105 312.61963 661.0604 312.61963Q661.9042 312.61963 662.4745 311.9712Q663.0448 311.32275 663.0448 309.99463Q663.0448 308.74463 662.4745 308.0962Q661.9042 307.44775 661.0604 307.44775Q660.20105 307.44775 659.63855 308.08838Q659.07605 308.729 659.07605 310.02588ZM666.9667 313.40088L664.9042 306.6665L666.0917 306.6665L667.1698 310.55713L667.5604 311.99463Q667.5917 311.88525 667.9198 310.604L668.9823 306.6665L670.1542 306.6665L671.1698 310.57275L671.51355 311.854L671.88855 310.55713L673.0448 306.6665L674.1542 306.6665L672.0448 313.40088L670.8729 313.40088L669.7948 309.36963L669.5292 308.21338L668.1698 313.40088L666.9667 313.40088ZM675.3573 313.40088L675.3573 306.6665L676.38855 306.6665L676.38855 307.61963Q677.1229 306.51025 678.5292 306.51025Q679.13855 306.51025 679.64636 306.729Q680.1542 306.94775 680.412 307.29932Q680.6698 307.65088 680.76355 308.15088Q680.82605 308.46338 680.82605 309.26025L680.82605 313.40088L679.6854 313.40088L679.6854 309.30713Q679.6854 308.604 679.5526 308.26025Q679.4198 307.9165 679.08386 307.70557Q678.7479 307.49463 678.2948 307.49463Q677.5604 307.49463 677.0292 307.95557Q676.4979 308.4165 676.4979 309.71338L676.4979 313.40088L675.3573 313.40088ZM682.7479 313.40088L682.7479 304.08838L683.88855 304.08838L683.88855 313.40088L682.7479 313.40088ZM685.3104 310.02588Q685.3104 308.15088 686.3417 307.26025Q687.2167 306.51025 688.4667 306.51025Q689.8573 306.51025 690.7401 307.4165Q691.6229 308.32275 691.6229 309.93213Q691.6229 311.229 691.2323 311.979Q690.8417 312.729 690.0917 313.14307Q689.3417 313.55713 688.4667 313.55713Q687.0448 313.55713 686.1776 312.65088Q685.3104 311.74463 685.3104 310.02588ZM686.4823 310.02588Q686.4823 311.32275 687.0448 311.9712Q687.6073 312.61963 688.4667 312.61963Q689.3104 312.61963 689.88074 311.9712Q690.45105 311.32275 690.45105 309.99463Q690.45105 308.74463 689.88074 308.0962Q689.3104 307.44775 688.4667 307.44775Q687.6073 307.44775 687.0448 308.08838Q686.4823 308.729 686.4823 310.02588ZM697.5292 312.57275Q696.9042 313.104 696.31824 313.33057Q695.7323 313.55713 695.0604 313.55713Q693.9354 313.55713 693.3417 313.01025Q692.7479 312.46338 692.7479 311.61963Q692.7479 311.13525 692.9745 310.7212Q693.20105 310.30713 693.56824 310.05713Q693.9354 309.80713 694.38855 309.68213Q694.7167 309.604 695.4042 309.51025Q696.7792 309.354 697.4354 309.11963Q697.45105 308.88525 697.45105 308.82275Q697.45105 308.11963 697.1229 307.83838Q696.6854 307.44775 695.82605 307.44775Q695.01355 307.44775 694.63074 307.729Q694.2479 308.01025 694.0604 308.729L692.95105 308.58838Q693.0917 307.86963 693.44324 307.42432Q693.7948 306.979 694.45886 306.74463Q695.1229 306.51025 695.9823 306.51025Q696.8573 306.51025 697.39636 306.71338Q697.9354 306.9165 698.1854 307.2212Q698.4354 307.52588 698.5448 307.99463Q698.5917 308.2915 698.5917 309.05713L698.5917 310.57275Q698.5917 312.1665 698.6698 312.58838Q698.7479 313.01025 698.95105 313.40088L697.76355 313.40088Q697.5917 313.0415 697.5292 312.57275ZM697.4354 310.01025Q696.8104 310.27588 695.57605 310.44775Q694.8729 310.55713 694.57605 310.68213Q694.2792 310.80713 694.1229 311.04932Q693.9667 311.2915 693.9667 311.58838Q693.9667 312.0415 694.3104 312.3462Q694.6542 312.65088 695.32605 312.65088Q695.9823 312.65088 696.4979 312.36182Q697.01355 312.07275 697.26355 311.57275Q697.4354 311.19775 697.4354 310.43213L697.4354 310.01025ZM704.9354 313.40088L704.9354 312.55713Q704.2948 313.55713 703.0448 313.55713Q702.2479 313.55713 701.56824 313.11182Q700.88855 312.6665 700.51355 311.86963Q700.13855 311.07275 700.13855 310.0415Q700.13855 309.02588 700.4823 308.20557Q700.82605 307.38525 701.4979 306.94775Q702.1698 306.51025 702.9979 306.51025Q703.6073 306.51025 704.08386 306.76807Q704.5604 307.02588 704.8573 307.43213L704.8573 304.08838L705.9979 304.08838L705.9979 313.40088L704.9354 313.40088ZM701.32605 310.0415Q701.32605 311.33838 701.8651 311.979Q702.4042 312.61963 703.1542 312.61963Q703.9042 312.61963 704.4276 312.00244Q704.95105 311.38525 704.95105 310.13525Q704.95105 308.74463 704.4198 308.0962Q703.88855 307.44775 703.1073 307.44775Q702.3417 307.44775 701.83386 308.07275Q701.32605 308.69775 701.32605 310.0415Z" fill-rule="nonzero" fill="#000000"></path><path d="M449.65616 221.48344L554.3877 221.48344" fill-rule="evenodd" stroke="#000000" stroke-width="2.0" stroke-linejoin="round" stroke-linecap="butt"></path><path d="M554.3877 224.78691L563.46387 221.48344L554.3877 218.17998Z" fill-rule="evenodd" fill="#000000" stroke="#000000" stroke-width="2.0" stroke-linecap="butt"></path><path d="M373.24933 364.7874L373.24933 247.46457" fill-rule="evenodd" stroke="#ff0000" stroke-width="2.0" stroke-linejoin="round" stroke-linecap="butt"></path><path d="M376.5528 247.46457L373.24933 238.38837L369.94586 247.46457Z" fill-rule="evenodd" fill="#ff0000" stroke="#ff0000" stroke-width="2.0" stroke-linecap="butt"></path><path d="M356.68668 223.99574L357.85855 223.88637Q357.93668 224.5895 358.24136 225.0348Q358.54605 225.48012 359.17886 225.75356Q359.81168 226.027 360.60855 226.027Q361.31168 226.027 361.85074 225.82387Q362.3898 225.62074 362.65543 225.25356Q362.92105 224.88637 362.92105 224.44887Q362.92105 224.01137 362.66324 223.68324Q362.40543 223.35512 361.8273 223.13637Q361.4523 222.99574 360.17105 222.68324Q358.8898 222.37074 358.37418 222.10512Q357.7023 221.76137 357.37418 221.23793Q357.04605 220.7145 357.04605 220.07387Q357.04605 219.37074 357.4445 218.76137Q357.84293 218.152 358.61636 217.83168Q359.3898 217.51137 360.3273 217.51137Q361.35855 217.51137 362.1476 217.8473Q362.93668 218.18324 363.36636 218.83168Q363.79605 219.48012 363.8273 220.29262L362.6398 220.38637Q362.54605 219.49574 361.99918 219.05043Q361.4523 218.60512 360.37418 218.60512Q359.2648 218.60512 358.74918 219.01137Q358.23355 219.41762 358.23355 219.99574Q358.23355 220.49574 358.59293 220.82387Q358.9523 221.152 360.4523 221.48793Q361.9523 221.82387 362.5148 222.07387Q363.3273 222.44887 363.7101 223.027Q364.09293 223.60512 364.09293 224.35512Q364.09293 225.0895 363.67105 225.74574Q363.24918 226.402 362.4523 226.76918Q361.65543 227.13637 360.65543 227.13637Q359.3898 227.13637 358.53824 226.76918Q357.68668 226.402 357.2023 225.6598Q356.71793 224.91762 356.68668 223.99574ZM368.35855 225.9645L368.5148 226.9645Q368.03043 227.07387 367.65543 227.07387Q367.03043 227.07387 366.68668 226.87074Q366.34293 226.66762 366.2023 226.3473Q366.06168 226.027 366.06168 225.01137L366.06168 221.12074L365.23355 221.12074L365.23355 220.24574L366.06168 220.24574L366.06168 218.57387L367.2023 217.88637L367.2023 220.24574L368.35855 220.24574L368.35855 221.12074L367.2023 221.12074L367.2023 225.07387Q367.2023 225.55824 367.2648 225.69887Q367.3273 225.8395 367.4601 225.91762Q367.59293 225.99574 367.84293 225.99574Q368.04605 225.99574 368.35855 225.9645ZM369.1398 223.60512Q369.1398 221.73012 370.17105 220.8395Q371.04605 220.0895 372.29605 220.0895Q373.68668 220.0895 374.5695 220.99574Q375.4523 221.902 375.4523 223.51137Q375.4523 224.80824 375.06168 225.55824Q374.67105 226.30824 373.92105 226.7223Q373.17105 227.13637 372.29605 227.13637Q370.87418 227.13637 370.007 226.23012Q369.1398 225.32387 369.1398 223.60512ZM370.31168 223.60512Q370.31168 224.902 370.87418 225.55043Q371.43668 226.19887 372.29605 226.19887Q373.1398 226.19887 373.7101 225.55043Q374.28043 224.902 374.28043 223.57387Q374.28043 222.32387 373.7101 221.67543Q373.1398 221.027 372.29605 221.027Q371.43668 221.027 370.87418 221.66762Q370.31168 222.30824 370.31168 223.60512ZM376.9523 226.98012L376.9523 220.24574L377.98355 220.24574L377.98355 221.26137Q378.37418 220.54262 378.7101 220.31606Q379.04605 220.0895 379.43668 220.0895Q380.0148 220.0895 380.60855 220.44887L380.21793 221.51137Q379.79605 221.26137 379.3898 221.26137Q379.0148 221.26137 378.7101 221.48793Q378.40543 221.7145 378.28043 222.12074Q378.09293 222.73012 378.09293 223.44887L378.09293 226.98012L376.9523 226.98012ZM385.79605 226.152Q385.17105 226.68324 384.5851 226.9098Q383.99918 227.13637 383.3273 227.13637Q382.2023 227.13637 381.60855 226.5895Q381.0148 226.04262 381.0148 225.19887Q381.0148 224.7145 381.24136 224.30043Q381.46793 223.88637 381.8351 223.63637Q382.2023 223.38637 382.65543 223.26137Q382.98355 223.18324 383.67105 223.0895Q385.04605 222.93324 385.7023 222.69887Q385.71793 222.4645 385.71793 222.402Q385.71793 221.69887 385.3898 221.41762Q384.9523 221.027 384.09293 221.027Q383.28043 221.027 382.8976 221.30824Q382.5148 221.5895 382.3273 222.30824L381.21793 222.16762Q381.35855 221.44887 381.7101 221.00356Q382.06168 220.55824 382.72574 220.32387Q383.3898 220.0895 384.24918 220.0895Q385.12418 220.0895 385.66324 220.29262Q386.2023 220.49574 386.4523 220.80043Q386.7023 221.10512 386.81168 221.57387Q386.85855 221.87074 386.85855 222.63637L386.85855 224.152Q386.85855 225.74574 386.93668 226.16762Q387.0148 226.5895 387.21793 226.98012L386.03043 226.98012Q385.85855 226.62074 385.79605 226.152ZM385.7023 223.5895Q385.0773 223.85512 383.84293 224.027Q383.1398 224.13637 382.84293 224.26137Q382.54605 224.38637 382.3898 224.62856Q382.23355 224.87074 382.23355 225.16762Q382.23355 225.62074 382.5773 225.92543Q382.92105 226.23012 383.59293 226.23012Q384.24918 226.23012 384.7648 225.94106Q385.28043 225.652 385.53043 225.152Q385.7023 224.777 385.7023 224.01137L385.7023 223.5895ZM388.60855 227.54262L389.73355 227.69887Q389.79605 228.2145 390.10855 228.44887Q390.54605 228.777 391.28043 228.777Q392.06168 228.777 392.49918 228.45668Q392.93668 228.13637 393.0773 227.55824Q393.17105 227.2145 393.17105 226.10512Q392.42105 226.98012 391.29605 226.98012Q389.90543 226.98012 389.1476 225.98012Q388.3898 224.98012 388.3898 223.57387Q388.3898 222.60512 388.74136 221.79262Q389.09293 220.98012 389.74918 220.5348Q390.40543 220.0895 391.31168 220.0895Q392.49918 220.0895 393.28043 221.05824L393.28043 220.24574L394.3273 220.24574L394.3273 226.05824Q394.3273 227.63637 394.007 228.29262Q393.68668 228.94887 392.99136 229.33168Q392.29605 229.7145 391.28043 229.7145Q390.0773 229.7145 389.3351 229.17543Q388.59293 228.63637 388.60855 227.54262ZM389.56168 223.49574Q389.56168 224.80824 390.0851 225.41762Q390.60855 226.027 391.40543 226.027Q392.2023 226.027 392.73355 225.42543Q393.2648 224.82387 393.2648 223.527Q393.2648 222.29262 392.71793 221.6598Q392.17105 221.027 391.3898 221.027Q390.62418 221.027 390.09293 221.652Q389.56168 222.277 389.56168 223.49574ZM400.84293 224.80824L402.03043 224.94887Q401.74918 225.99574 400.99136 226.56606Q400.23355 227.13637 399.06168 227.13637Q397.5773 227.13637 396.7101 226.2223Q395.84293 225.30824 395.84293 223.66762Q395.84293 221.9645 396.72574 221.027Q397.60855 220.0895 398.99918 220.0895Q400.35855 220.0895 401.2101 221.01137Q402.06168 221.93324 402.06168 223.5895Q402.06168 223.69887 402.06168 223.902L397.03043 223.902Q397.09293 225.01137 397.65543 225.60512Q398.21793 226.19887 399.06168 226.19887Q399.7023 226.19887 400.1476 225.86293Q400.59293 225.527 400.84293 224.80824ZM397.09293 222.9645L400.85855 222.9645Q400.78043 222.10512 400.42105 221.68324Q399.87418 221.027 399.0148 221.027Q398.21793 221.027 397.68668 221.55043Q397.15543 222.07387 397.09293 222.9645ZM407.7023 226.98012L407.7023 217.66762L408.92105 217.66762L408.92105 226.98012L407.7023 226.98012ZM411.04605 226.98012L411.04605 220.24574L412.0773 220.24574L412.0773 221.19887Q412.81168 220.0895 414.21793 220.0895Q414.8273 220.0895 415.3351 220.30824Q415.84293 220.527 416.10074 220.87856Q416.35855 221.23012 416.4523 221.73012Q416.5148 222.04262 416.5148 222.8395L416.5148 226.98012L415.37418 226.98012L415.37418 222.88637Q415.37418 222.18324 415.24136 221.8395Q415.10855 221.49574 414.7726 221.2848Q414.43668 221.07387 413.98355 221.07387Q413.24918 221.07387 412.71793 221.5348Q412.18668 221.99574 412.18668 223.29262L412.18668 226.98012L411.04605 226.98012ZM422.84293 226.98012L422.84293 226.13637Q422.2023 227.13637 420.9523 227.13637Q420.15543 227.13637 419.47574 226.69106Q418.79605 226.24574 418.42105 225.44887Q418.04605 224.652 418.04605 223.62074Q418.04605 222.60512 418.3898 221.7848Q418.73355 220.9645 419.40543 220.527Q420.0773 220.0895 420.90543 220.0895Q421.5148 220.0895 421.99136 220.3473Q422.46793 220.60512 422.7648 221.01137L422.7648 217.66762L423.90543 217.66762L423.90543 226.98012L422.84293 226.98012ZM419.23355 223.62074Q419.23355 224.91762 419.7726 225.55824Q420.31168 226.19887 421.06168 226.19887Q421.81168 226.19887 422.3351 225.58168Q422.85855 224.9645 422.85855 223.7145Q422.85855 222.32387 422.3273 221.67543Q421.79605 221.027 421.0148 221.027Q420.24918 221.027 419.74136 221.652Q419.23355 222.277 419.23355 223.62074ZM430.48355 224.80824L431.67105 224.94887Q431.3898 225.99574 430.632 226.56606Q429.87418 227.13637 428.7023 227.13637Q427.21793 227.13637 426.35074 226.2223Q425.48355 225.30824 425.48355 223.66762Q425.48355 221.9645 426.36636 221.027Q427.24918 220.0895 428.6398 220.0895Q429.99918 220.0895 430.85074 221.01137Q431.7023 221.93324 431.7023 223.5895Q431.7023 223.69887 431.7023 223.902L426.67105 223.902Q426.73355 225.01137 427.29605 225.60512Q427.85855 226.19887 428.7023 226.19887Q429.34293 226.19887 429.78824 225.86293Q430.23355 225.527 430.48355 224.80824ZM426.73355 222.9645L430.49918 222.9645Q430.42105 222.10512 430.06168 221.68324Q429.5148 221.027 428.65543 221.027Q427.85855 221.027 427.3273 221.55043Q426.79605 222.07387 426.73355 222.9645ZM432.53043 226.98012L434.99918 223.48012L432.71793 220.24574L434.1398 220.24574L435.18668 221.82387Q435.46793 222.277 435.65543 222.57387Q435.92105 222.152 436.15543 221.8395L437.29605 220.24574L438.67105 220.24574L436.3273 223.41762L438.84293 226.98012L437.43668 226.98012L436.06168 224.88637L435.68668 224.32387L433.92105 226.98012L432.53043 226.98012Z" fill-rule="nonzero" fill="#000000"></path><path d="M422.2263 459.9121L510.06882 459.9121L510.06882 497.01447L422.2263 497.01447Z" fill-rule="nonzero" fill="#cfe2f3" stroke="#073763" stroke-width="2.0" stroke-linejoin="round" stroke-linecap="butt"></path><path d="M442.25754 474.64648L445.69504 474.64648Q446.8513 474.64648 447.46066 474.83398Q448.2888 475.06836 448.8669 475.68555Q449.44504 476.30273 449.74973 477.19336Q450.0544 478.08398 450.0544 479.39648Q450.0544 480.5371 449.77316 481.38086Q449.4294 482.39648 448.77316 483.02148Q448.2888 483.49023 447.46066 483.75586Q446.83566 483.95898 445.7888 483.95898L442.25754 483.95898L442.25754 474.64648ZM444.13254 476.2246L444.13254 482.39648L445.5388 482.39648Q446.33566 482.39648 446.6794 482.30273Q447.13254 482.19336 447.43723 481.91992Q447.7419 481.64648 447.9294 481.02148Q448.1169 480.39648 448.1169 479.31836Q448.1169 478.24023 447.9294 477.6621Q447.7419 477.08398 447.39816 476.75586Q447.0544 476.42773 446.52316 476.31836Q446.13254 476.2246 444.9763 476.2246L444.13254 476.2246ZM455.7888 481.81836L457.5544 482.11523Q457.21066 483.08398 456.4763 483.5996Q455.7419 484.11523 454.63254 484.11523Q452.8669 484.11523 452.02316 482.95898Q451.3513 482.0371 451.3513 480.64648Q451.3513 478.95898 452.2341 478.01367Q453.1169 477.06836 454.44504 477.06836Q455.96066 477.06836 456.82785 478.06055Q457.69504 479.05273 457.64816 481.0996L453.1794 481.0996Q453.21066 481.89648 453.6169 482.33398Q454.02316 482.77148 454.64816 482.77148Q455.07004 482.77148 455.3513 482.54492Q455.63254 482.31836 455.7888 481.81836ZM455.88254 480.00586Q455.8669 479.24023 455.4841 478.83398Q455.1013 478.42773 454.5544 478.42773Q453.9763 478.42773 453.58566 478.8496Q453.21066 479.2871 453.21066 480.00586L455.88254 480.00586ZM465.1794 479.20898L463.4138 479.52148Q463.33566 479.00586 463.01535 478.74023Q462.69504 478.4746 462.19504 478.4746Q461.5388 478.4746 461.14035 478.92773Q460.7419 479.38086 460.7419 480.4746Q460.7419 481.6621 461.14816 482.1621Q461.5544 482.6621 462.2263 482.6621Q462.7419 482.6621 463.06223 482.37305Q463.38254 482.08398 463.50754 481.38086L465.27316 481.67773Q464.9919 482.88086 464.21848 483.49805Q463.44504 484.11523 462.14816 484.11523Q460.6638 484.11523 459.7888 483.17773Q458.9138 482.24023 458.9138 480.5996Q458.9138 478.92773 459.7888 477.99805Q460.6638 477.06836 462.1794 477.06836Q463.4138 477.06836 464.14035 477.5996Q464.8669 478.13086 465.1794 479.20898ZM468.4138 483.95898L466.63254 483.95898L466.63254 477.2246L468.2888 477.2246L468.2888 478.17773Q468.71066 477.49023 469.0544 477.2793Q469.39816 477.06836 469.82004 477.06836Q470.4294 477.06836 470.9919 477.39648L470.44504 478.95898Q469.9919 478.6621 469.6013 478.6621Q469.2263 478.6621 468.96848 478.87305Q468.71066 479.08398 468.56223 479.62305Q468.4138 480.1621 468.4138 481.88086L468.4138 483.95898ZM471.0544 477.2246L472.94504 477.2246L474.5544 482.00586L476.13254 477.2246L477.9763 477.2246L475.6013 483.70898L475.1794 484.88086Q474.94504 485.4746 474.7341 485.7871Q474.52316 486.0996 474.2419 486.2871Q473.96066 486.4746 473.56223 486.58398Q473.1638 486.69336 472.64816 486.69336Q472.13254 486.69336 471.63254 486.58398L471.4763 485.19336Q471.89816 485.27148 472.2419 485.27148Q472.8513 485.27148 473.15598 484.9043Q473.46066 484.5371 473.6169 483.9746L471.0544 477.2246ZM479.2419 477.2246L480.9138 477.2246L480.9138 478.20898Q481.2419 477.69336 481.7888 477.38086Q482.33566 477.06836 483.00754 477.06836Q484.19504 477.06836 485.00754 477.99023Q485.82004 478.9121 485.82004 480.55273Q485.82004 482.24023 484.99973 483.17773Q484.1794 484.11523 483.00754 484.11523Q482.44504 484.11523 481.9919 483.88867Q481.5388 483.6621 481.0388 483.13086L481.0388 486.52148L479.2419 486.52148L479.2419 477.2246ZM481.00754 480.4746Q481.00754 481.61523 481.46066 482.1543Q481.9138 482.69336 482.57004 482.69336Q483.1794 482.69336 483.59348 482.19336Q484.00754 481.69336 484.00754 480.56836Q484.00754 479.50586 483.58566 478.99023Q483.1638 478.4746 482.5388 478.4746Q481.88254 478.4746 481.44504 478.98242Q481.00754 479.49023 481.00754 480.4746ZM490.5544 477.2246L490.5544 478.64648L489.33566 478.64648L489.33566 481.3496Q489.33566 482.17773 489.3669 482.31836Q489.39816 482.45898 489.52316 482.54492Q489.64816 482.63086 489.82004 482.63086Q490.07004 482.63086 490.5388 482.45898L490.69504 483.8496Q490.07004 484.11523 489.2888 484.11523Q488.8044 484.11523 488.4138 483.95117Q488.02316 483.7871 487.84348 483.5293Q487.6638 483.27148 487.6013 482.83398Q487.5388 482.52148 487.5388 481.58398L487.5388 478.64648L486.7263 478.64648L486.7263 477.2246L487.5388 477.2246L487.5388 475.88086L489.33566 474.83398L489.33566 477.2246L490.5544 477.2246Z" fill-rule="nonzero" fill="#000000"></path><path d="M427.67172 471.9313L430.70297 464.0563L431.81235 464.0563L435.04672 471.9313L433.85922 471.9313L432.93735 469.54068L429.64047 469.54068L428.7811 471.9313L427.67172 471.9313ZM429.93735 468.69693L432.60922 468.69693L431.79672 466.50943Q431.42172 465.52505 431.23422 464.88443Q431.07797 465.63443 430.81235 466.38443L429.93735 468.69693ZM435.67172 471.9313L435.67172 464.0563L441.35922 464.0563L441.35922 464.9938L436.70297 464.9938L436.70297 467.40005L441.06235 467.40005L441.06235 468.32193L436.70297 468.32193L436.70297 471.00943L441.54672 471.00943L441.54672 471.9313L435.67172 471.9313ZM442.39047 469.40005L443.37485 469.32193Q443.43735 469.90005 443.69516 470.28287Q443.95297 470.66568 444.48422 470.90005Q445.01547 471.13443 445.68735 471.13443Q446.29672 471.13443 446.74985 470.95474Q447.20297 470.77505 447.42953 470.47037Q447.6561 470.16568 447.6561 469.79068Q447.6561 469.41568 447.43735 469.14224Q447.2186 468.8688 446.7186 468.6813Q446.4061 468.5563 445.32016 468.2985Q444.23422 468.04068 443.79672 467.8063Q443.23422 467.50943 442.9608 467.07193Q442.68735 466.63443 442.68735 466.08755Q442.68735 465.4938 443.0233 464.97818Q443.35922 464.46255 444.00766 464.18912Q444.6561 463.91568 445.45297 463.91568Q446.32797 463.91568 446.99985 464.20474Q447.67172 464.4938 448.0311 465.04068Q448.39047 465.58755 448.42172 466.27505L447.42172 466.35318Q447.3436 465.60318 446.87485 465.22037Q446.4061 464.83755 445.49985 464.83755Q444.56235 464.83755 444.12485 465.18912Q443.68735 465.54068 443.68735 466.02505Q443.68735 466.44693 443.99985 466.72818Q444.29672 466.9938 445.57016 467.28287Q446.8436 467.57193 447.31235 467.79068Q447.99985 468.10318 448.32797 468.58755Q448.6561 469.07193 448.6561 469.71255Q448.6561 470.33755 448.29672 470.89224Q447.93735 471.44693 447.25766 471.75943Q446.57797 472.07193 445.73422 472.07193Q444.67172 472.07193 443.95297 471.75943Q443.23422 471.44693 442.82016 470.82193Q442.4061 470.19693 442.39047 469.40005Z" fill-rule="nonzero" fill="#ff0000"></path><path d="M422.2263 537.9103L510.06882 537.9103L510.06882 575.01263L422.2263 575.01263Z" fill-rule="nonzero" fill="#cfe2f3" stroke="#073763" stroke-width="2.0" stroke-linejoin="round" stroke-linecap="butt"></path><path d="M442.25754 552.64465L445.69504 552.64465Q446.8513 552.64465 447.46066 552.83215Q448.2888 553.0665 448.8669 553.6837Q449.44504 554.3009 449.74973 555.1915Q450.0544 556.08215 450.0544 557.39465Q450.0544 558.5353 449.77316 559.379Q449.4294 560.39465 448.77316 561.01965Q448.2888 561.4884 447.46066 561.754Q446.83566 561.95715 445.7888 561.95715L442.25754 561.95715L442.25754 552.64465ZM444.13254 554.2228L444.13254 560.39465L445.5388 560.39465Q446.33566 560.39465 446.6794 560.3009Q447.13254 560.1915 447.43723 559.9181Q447.7419 559.64465 447.9294 559.01965Q448.1169 558.39465 448.1169 557.3165Q448.1169 556.2384 447.9294 555.6603Q447.7419 555.08215 447.39816 554.754Q447.0544 554.4259 446.52316 554.3165Q446.13254 554.2228 444.9763 554.2228L444.13254 554.2228ZM455.7888 559.8165L457.5544 560.1134Q457.21066 561.08215 456.4763 561.5978Q455.7419 562.1134 454.63254 562.1134Q452.8669 562.1134 452.02316 560.95715Q451.3513 560.0353 451.3513 558.64465Q451.3513 556.95715 452.2341 556.01184Q453.1169 555.0665 454.44504 555.0665Q455.96066 555.0665 456.82785 556.0587Q457.69504 557.0509 457.64816 559.0978L453.1794 559.0978Q453.21066 559.89465 453.6169 560.33215Q454.02316 560.76965 454.64816 560.76965Q455.07004 560.76965 455.3513 560.5431Q455.63254 560.3165 455.7888 559.8165ZM455.88254 558.004Q455.8669 557.2384 455.4841 556.83215Q455.1013 556.4259 454.5544 556.4259Q453.9763 556.4259 453.58566 556.8478Q453.21066 557.2853 453.21066 558.004L455.88254 558.004ZM465.1794 557.20715L463.4138 557.51965Q463.33566 557.004 463.01535 556.7384Q462.69504 556.4728 462.19504 556.4728Q461.5388 556.4728 461.14035 556.9259Q460.7419 557.379 460.7419 558.4728Q460.7419 559.6603 461.14816 560.1603Q461.5544 560.6603 462.2263 560.6603Q462.7419 560.6603 463.06223 560.3712Q463.38254 560.08215 463.50754 559.379L465.27316 559.6759Q464.9919 560.879 464.21848 561.4962Q463.44504 562.1134 462.14816 562.1134Q460.6638 562.1134 459.7888 561.1759Q458.9138 560.2384 458.9138 558.5978Q458.9138 556.9259 459.7888 555.9962Q460.6638 555.0665 462.1794 555.0665Q463.4138 555.0665 464.14035 555.5978Q464.8669 556.129 465.1794 557.20715ZM468.4138 561.95715L466.63254 561.95715L466.63254 555.2228L468.2888 555.2228L468.2888 556.1759Q468.71066 555.4884 469.0544 555.27747Q469.39816 555.0665 469.82004 555.0665Q470.4294 555.0665 470.9919 555.39465L470.44504 556.95715Q469.9919 556.6603 469.6013 556.6603Q469.2263 556.6603 468.96848 556.8712Q468.71066 557.08215 468.56223 557.6212Q468.4138 558.1603 468.4138 559.879L468.4138 561.95715ZM471.0544 555.2228L472.94504 555.2228L474.5544 560.004L476.13254 555.2228L477.9763 555.2228L475.6013 561.70715L475.1794 562.879Q474.94504 563.4728 474.7341 563.7853Q474.52316 564.0978 474.2419 564.2853Q473.96066 564.4728 473.56223 564.58215Q473.1638 564.6915 472.64816 564.6915Q472.13254 564.6915 471.63254 564.58215L471.4763 563.1915Q471.89816 563.26965 472.2419 563.26965Q472.8513 563.26965 473.15598 562.90247Q473.46066 562.5353 473.6169 561.9728L471.0544 555.2228ZM479.2419 555.2228L480.9138 555.2228L480.9138 556.20715Q481.2419 555.6915 481.7888 555.379Q482.33566 555.0665 483.00754 555.0665Q484.19504 555.0665 485.00754 555.9884Q485.82004 556.9103 485.82004 558.5509Q485.82004 560.2384 484.99973 561.1759Q484.1794 562.1134 483.00754 562.1134Q482.44504 562.1134 481.9919 561.88684Q481.5388 561.6603 481.0388 561.129L481.0388 564.51965L479.2419 564.51965L479.2419 555.2228ZM481.00754 558.4728Q481.00754 559.6134 481.46066 560.15247Q481.9138 560.6915 482.57004 560.6915Q483.1794 560.6915 483.59348 560.1915Q484.00754 559.6915 484.00754 558.5665Q484.00754 557.504 483.58566 556.9884Q483.1638 556.4728 482.5388 556.4728Q481.88254 556.4728 481.44504 556.9806Q481.00754 557.4884 481.00754 558.4728ZM490.5544 555.2228L490.5544 556.64465L489.33566 556.64465L489.33566 559.3478Q489.33566 560.1759 489.3669 560.3165Q489.39816 560.45715 489.52316 560.5431Q489.64816 560.629 489.82004 560.629Q490.07004 560.629 490.5388 560.45715L490.69504 561.8478Q490.07004 562.1134 489.2888 562.1134Q488.8044 562.1134 488.4138 561.94934Q488.02316 561.7853 487.84348 561.52747Q487.6638 561.26965 487.6013 560.83215Q487.5388 560.51965 487.5388 559.58215L487.5388 556.64465L486.7263 556.64465L486.7263 555.2228L487.5388 555.2228L487.5388 553.879L489.33566 552.83215L489.33566 555.2228L490.5544 555.2228Z" fill-rule="nonzero" fill="#000000"></path><path d="M427.67172 549.92944L430.70297 542.05444L431.81235 542.05444L435.04672 549.92944L433.85922 549.92944L432.93735 547.5388L429.64047 547.5388L428.7811 549.92944L427.67172 549.92944ZM429.93735 546.69507L432.60922 546.69507L431.79672 544.50757Q431.42172 543.5232 431.23422 542.88257Q431.07797 543.63257 430.81235 544.38257L429.93735 546.69507ZM435.67172 549.92944L435.67172 542.05444L441.35922 542.05444L441.35922 542.99194L436.70297 542.99194L436.70297 545.3982L441.06235 545.3982L441.06235 546.32007L436.70297 546.32007L436.70297 549.00757L441.54672 549.00757L441.54672 549.92944L435.67172 549.92944ZM442.39047 547.3982L443.37485 547.32007Q443.43735 547.8982 443.69516 548.281Q443.95297 548.6638 444.48422 548.8982Q445.01547 549.13257 445.68735 549.13257Q446.29672 549.13257 446.74985 548.9529Q447.20297 548.7732 447.42953 548.4685Q447.6561 548.1638 447.6561 547.7888Q447.6561 547.4138 447.43735 547.1404Q447.2186 546.86694 446.7186 546.67944Q446.4061 546.55444 445.32016 546.29663Q444.23422 546.0388 443.79672 545.80444Q443.23422 545.50757 442.9608 545.07007Q442.68735 544.63257 442.68735 544.0857Q442.68735 543.49194 443.0233 542.9763Q443.35922 542.4607 444.00766 542.18726Q444.6561 541.9138 445.45297 541.9138Q446.32797 541.9138 446.99985 542.2029Q447.67172 542.49194 448.0311 543.0388Q448.39047 543.5857 448.42172 544.2732L447.42172 544.3513Q447.3436 543.6013 446.87485 543.2185Q446.4061 542.8357 445.49985 542.8357Q444.56235 542.8357 444.12485 543.18726Q443.68735 543.5388 443.68735 544.0232Q443.68735 544.44507 443.99985 544.7263Q444.29672 544.99194 445.57016 545.281Q446.8436 545.57007 447.31235 545.7888Q447.99985 546.1013 448.32797 546.5857Q448.6561 547.07007 448.6561 547.7107Q448.6561 548.3357 448.29672 548.8904Q447.93735 549.44507 447.25766 549.75757Q446.57797 550.07007 445.73422 550.07007Q444.67172 550.07007 443.95297 549.75757Q443.23422 549.44507 442.82016 548.82007Q442.4061 548.19507 442.39047 547.3982Z" fill-rule="nonzero" fill="#ff0000"></path><path d="M346.98322 381.4288L344.51447 372.1163L345.7801 372.1163L347.20197 378.22568Q347.42072 379.1788 347.5926 380.13193Q347.95197 378.63193 348.01447 378.41318L349.7801 372.1163L351.26447 372.1163L352.5926 376.83505Q353.0926 378.58505 353.32697 380.13193Q353.49884 379.2413 353.7801 378.10068L355.24884 372.1163L356.48322 372.1163L353.93634 381.4288L352.74884 381.4288L350.7801 374.33505Q350.5301 373.44443 350.48322 373.2413Q350.3426 373.88193 350.2176 374.33505L348.24884 381.4288L346.98322 381.4288ZM357.7801 381.4288L357.7801 374.69443L358.81134 374.69443L358.81134 375.71005Q359.20197 374.9913 359.5379 374.76474Q359.87384 374.53818 360.26447 374.53818Q360.8426 374.53818 361.43634 374.89755L361.04572 375.96005Q360.62384 375.71005 360.2176 375.71005Q359.8426 375.71005 359.5379 375.9366Q359.23322 376.16318 359.10822 376.56943Q358.92072 377.1788 358.92072 377.89755L358.92072 381.4288L357.7801 381.4288ZM362.23322 373.44443L362.23322 372.1163L363.37384 372.1163L363.37384 373.44443L362.23322 373.44443ZM362.23322 381.4288L362.23322 374.69443L363.37384 374.69443L363.37384 381.4288L362.23322 381.4288ZM367.70197 380.41318L367.85822 381.41318Q367.37384 381.52255 366.99884 381.52255Q366.37384 381.52255 366.0301 381.31943Q365.68634 381.1163 365.54572 380.796Q365.4051 380.47568 365.4051 379.46005L365.4051 375.56943L364.57697 375.56943L364.57697 374.69443L365.4051 374.69443L365.4051 373.02255L366.54572 372.33505L366.54572 374.69443L367.70197 374.69443L367.70197 375.56943L366.54572 375.56943L366.54572 379.52255Q366.54572 380.00693 366.60822 380.14755Q366.67072 380.28818 366.80353 380.3663Q366.93634 380.44443 367.18634 380.44443Q367.38947 380.44443 367.70197 380.41318ZM373.51447 379.25693L374.70197 379.39755Q374.42072 380.44443 373.6629 381.01474Q372.9051 381.58505 371.73322 381.58505Q370.24884 381.58505 369.38165 380.671Q368.51447 379.75693 368.51447 378.1163Q368.51447 376.41318 369.39728 375.47568Q370.2801 374.53818 371.67072 374.53818Q373.0301 374.53818 373.88165 375.46005Q374.73322 376.38193 374.73322 378.03818Q374.73322 378.14755 374.73322 378.35068L369.70197 378.35068Q369.76447 379.46005 370.32697 380.0538Q370.88947 380.64755 371.73322 380.64755Q372.37384 380.64755 372.81915 380.3116Q373.26447 379.97568 373.51447 379.25693ZM369.76447 377.41318L373.5301 377.41318Q373.45197 376.5538 373.0926 376.13193Q372.54572 375.47568 371.68634 375.47568Q370.88947 375.47568 370.35822 375.9991Q369.82697 376.52255 369.76447 377.41318ZM380.10822 381.4288L380.10822 372.1163L381.3426 372.1163L381.3426 376.7413L385.9676 372.1163L387.62384 372.1163L383.73322 375.89755L387.79572 381.4288L386.17072 381.4288L382.85822 376.72568L381.3426 378.21005L381.3426 381.4288L380.10822 381.4288ZM393.51447 379.25693L394.70197 379.39755Q394.42072 380.44443 393.6629 381.01474Q392.9051 381.58505 391.73322 381.58505Q390.24884 381.58505 389.38165 380.671Q388.51447 379.75693 388.51447 378.1163Q388.51447 376.41318 389.39728 375.47568Q390.2801 374.53818 391.67072 374.53818Q393.0301 374.53818 393.88165 375.46005Q394.73322 376.38193 394.73322 378.03818Q394.73322 378.14755 394.73322 378.35068L389.70197 378.35068Q389.76447 379.46005 390.32697 380.0538Q390.88947 380.64755 391.73322 380.64755Q392.37384 380.64755 392.81915 380.3116Q393.26447 379.97568 393.51447 379.25693ZM389.76447 377.41318L393.5301 377.41318Q393.45197 376.5538 393.0926 376.13193Q392.54572 375.47568 391.68634 375.47568Q390.88947 375.47568 390.35822 375.9991Q389.82697 376.52255 389.76447 377.41318ZM396.26447 384.02255L396.12384 382.96005Q396.49884 383.0538 396.7801 383.0538Q397.17072 383.0538 397.39728 382.9288Q397.62384 382.8038 397.76447 382.56943Q397.87384 382.39755 398.12384 381.72568Q398.1551 381.63193 398.2176 381.44443L395.6551 374.69443L396.88947 374.69443L398.29572 378.58505Q398.56134 379.33505 398.7801 380.14755Q398.98322 379.3663 399.24884 378.6163L400.70197 374.69443L401.8426 374.69443L399.2801 381.53818Q398.85822 382.64755 398.63947 383.06943Q398.32697 383.63193 397.93634 383.89755Q397.54572 384.16318 396.99884 384.16318Q396.67072 384.16318 396.26447 384.02255Z" fill-rule="nonzero" fill="#000000"></path><path d="M355.04672 390.13733L355.04672 390.13733C355.04672 386.6503 357.93765 383.8235 361.5038 383.8235L361.5038 383.8235C363.21637 383.8235 364.85876 384.4887 366.0697 385.67276C367.28064 386.85684 367.96094 388.4628 367.96094 390.13733L367.96094 390.13733C367.96094 393.6244 365.06998 396.4512 361.5038 396.4512L361.5038 396.4512C357.93765 396.4512 355.04672 393.6244 355.04672 390.13733Z" fill-rule="nonzero" stroke="#073763" stroke-width="2.0" stroke-linejoin="round" stroke-linecap="butt"></path><path d="M365.68607 385.67322L391.45197 385.67322" fill-rule="nonzero" stroke="#073763" stroke-width="2.0" stroke-linejoin="round" stroke-linecap="butt"></path><path d="M390.99323 385.6111C390.99323 386.93127 390.73828 389.8953 389.531 389.30444C388.76132 388.92776 389.52673 386.78348 388.67767 386.92142C387.57245 387.101 387.36496 389.7944 386.36285 389.30444C385.58295 388.92313 385.9716 386.7713 385.14435 387.04092C384.21246 387.34467 384.65845 389.437 383.68213 389.54276C382.03827 389.72076 380.8005 387.80692 379.17328 387.51755C378.34183 387.3697 378.399 389.06277 377.71106 389.54276C376.52957 390.3671 374.8663 387.59775 373.5681 388.23245C371.79352 389.1001 370.0685 390.49594 368.08444 390.49594" fill-rule="evenodd" stroke="#073763" stroke-width="2.0" stroke-linejoin="round" stroke-linecap="butt"></path><path d="M369.79034 386.8026L384.40875 386.8026" fill-rule="nonzero" stroke="#cccccc" stroke-width="1.0" stroke-linejoin="round" stroke-linecap="butt"></path><path d="M359.4952 390.14258L359.4952 390.14258C359.4952 389.05502 360.39468 388.1734 361.50427 388.1734L361.50427 388.1734C362.0371 388.1734 362.5481 388.38086 362.92487 388.75015C363.30164 389.11945 363.5133 389.6203 363.5133 390.14258L363.5133 390.14258C363.5133 391.2301 362.61383 392.11176 361.50427 392.11176L361.50427 392.11176C360.39468 392.11176 359.4952 391.2301 359.4952 390.14258Z" fill-rule="nonzero" stroke="#073763" stroke-width="2.0" stroke-linejoin="round" stroke-linecap="butt"></path><path d="M256.8924 503.19046C290.38715 511.05826 290.38715 495.32266 323.87833 495.32266L323.87833 454.4243L256.8924 454.4243ZM262.4112 454.4243L262.4112 449.12207L328.93964 449.12207L328.93964 490.27698C326.41077 490.27698 323.87833 490.56204 323.87833 490.56204L323.87833 454.4243ZM267.5986 449.12207L267.5986 443.94812L334.7034 443.94812L334.7034 484.97476C331.82153 484.97476 328.93964 485.18857 328.93964 485.18857L328.93964 449.12207Z" fill-rule="nonzero" fill="#cfe2f3"></path><path d="M256.8924 454.4243L323.87833 454.4243L323.87833 495.32266C290.38715 495.32266 290.38715 511.05826 256.8924 503.19046ZM262.4112 454.4243L262.4112 449.12207L328.93964 449.12207L328.93964 490.27698C326.41077 490.27698 323.87833 490.56204 323.87833 490.56204M267.5986 449.12207L267.5986 443.94812L334.7034 443.94812L334.7034 484.97476C331.82153 484.97476 328.93964 485.18857 328.93964 485.18857" fill-rule="nonzero" stroke="#073763" stroke-width="2.0" stroke-linejoin="round" stroke-linecap="butt"></path><path d="M274.67365 481.03366L275.90802 481.34616Q275.5174 482.8618 274.50958 483.65866Q273.50177 484.45554 272.04865 484.45554Q270.54865 484.45554 269.60333 483.84616Q268.65802 483.2368 268.16583 482.07272Q267.67365 480.90866 267.67365 479.58054Q267.67365 478.1274 268.23615 477.04147Q268.79865 475.95554 269.82208 475.39304Q270.84552 474.83054 272.0799 474.83054Q273.47052 474.83054 274.42365 475.54147Q275.37677 476.2524 275.75177 477.5493L274.53302 477.83054Q274.2049 476.8149 273.59552 476.35397Q272.98615 475.89304 272.04865 475.89304Q270.97052 475.89304 270.25177 476.40866Q269.53302 476.9243 269.24396 477.78366Q268.9549 478.64304 268.9549 479.5649Q268.9549 480.7524 269.29865 481.64304Q269.6424 482.53366 270.36896 482.97116Q271.09552 483.40866 271.9549 483.40866Q272.98615 483.40866 273.7049 482.8071Q274.42365 482.20554 274.67365 481.03366ZM277.09552 480.9243Q277.09552 479.0493 278.12677 478.15866Q279.00177 477.40866 280.25177 477.40866Q281.6424 477.40866 282.5252 478.3149Q283.40802 479.22116 283.40802 480.83054Q283.40802 482.1274 283.0174 482.8774Q282.62677 483.6274 281.87677 484.04147Q281.12677 484.45554 280.25177 484.45554Q278.8299 484.45554 277.9627 483.5493Q277.09552 482.64304 277.09552 480.9243ZM278.2674 480.9243Q278.2674 482.22116 278.8299 482.8696Q279.3924 483.51804 280.25177 483.51804Q281.09552 483.51804 281.66583 482.8696Q282.23615 482.22116 282.23615 480.89304Q282.23615 479.64304 281.66583 478.9946Q281.09552 478.34616 280.25177 478.34616Q279.3924 478.34616 278.8299 478.9868Q278.2674 479.6274 278.2674 480.9243ZM284.93927 484.2993L284.93927 477.5649L285.97052 477.5649L285.97052 478.51804Q286.7049 477.40866 288.11115 477.40866Q288.72052 477.40866 289.22833 477.6274Q289.73615 477.84616 289.99396 478.19772Q290.25177 478.5493 290.34552 479.0493Q290.40802 479.3618 290.40802 480.15866L290.40802 484.2993L289.2674 484.2993L289.2674 480.20554Q289.2674 479.5024 289.13458 479.15866Q289.00177 478.8149 288.66583 478.60397Q288.3299 478.39304 287.87677 478.39304Q287.1424 478.39304 286.61115 478.85397Q286.0799 479.3149 286.0799 480.6118L286.0799 484.2993L284.93927 484.2993ZM294.84552 483.28366L295.00177 484.28366Q294.5174 484.39304 294.1424 484.39304Q293.5174 484.39304 293.17365 484.1899Q292.8299 483.9868 292.68927 483.66647Q292.54865 483.34616 292.54865 482.33054L292.54865 478.4399L291.72052 478.4399L291.72052 477.5649L292.54865 477.5649L292.54865 475.89304L293.68927 475.20554L293.68927 477.5649L294.84552 477.5649L294.84552 478.4399L293.68927 478.4399L293.68927 482.39304Q293.68927 482.8774 293.75177 483.01804Q293.81427 483.15866 293.94708 483.2368Q294.0799 483.3149 294.3299 483.3149Q294.53302 483.3149 294.84552 483.28366ZM300.65802 482.1274L301.84552 482.26804Q301.56427 483.3149 300.80646 483.88522Q300.04865 484.45554 298.87677 484.45554Q297.3924 484.45554 296.5252 483.54147Q295.65802 482.6274 295.65802 480.9868Q295.65802 479.28366 296.54083 478.34616Q297.42365 477.40866 298.81427 477.40866Q300.17365 477.40866 301.0252 478.33054Q301.87677 479.2524 301.87677 480.90866Q301.87677 481.01804 301.87677 481.22116L296.84552 481.22116Q296.90802 482.33054 297.47052 482.9243Q298.03302 483.51804 298.87677 483.51804Q299.5174 483.51804 299.9627 483.1821Q300.40802 482.84616 300.65802 482.1274ZM296.90802 480.28366L300.67365 480.28366Q300.59552 479.4243 300.23615 479.0024Q299.68927 478.34616 298.8299 478.34616Q298.03302 478.34616 297.50177 478.8696Q296.97052 479.39304 296.90802 480.28366ZM303.4549 484.2993L303.4549 477.5649L304.48615 477.5649L304.48615 478.51804Q305.22052 477.40866 306.62677 477.40866Q307.23615 477.40866 307.74396 477.6274Q308.25177 477.84616 308.50958 478.19772Q308.7674 478.5493 308.86115 479.0493Q308.92365 479.3618 308.92365 480.15866L308.92365 484.2993L307.78302 484.2993L307.78302 480.20554Q307.78302 479.5024 307.6502 479.15866Q307.5174 478.8149 307.18146 478.60397Q306.84552 478.39304 306.3924 478.39304Q305.65802 478.39304 305.12677 478.85397Q304.59552 479.3149 304.59552 480.6118L304.59552 484.2993L303.4549 484.2993ZM313.37677 483.28366L313.53302 484.28366Q313.04865 484.39304 312.67365 484.39304Q312.04865 484.39304 311.7049 484.1899Q311.36115 483.9868 311.22052 483.66647Q311.0799 483.34616 311.0799 482.33054L311.0799 478.4399L310.25177 478.4399L310.25177 477.5649L311.0799 477.5649L311.0799 475.89304L312.22052 475.20554L312.22052 477.5649L313.37677 477.5649L313.37677 478.4399L312.22052 478.4399L312.22052 482.39304Q312.22052 482.8774 312.28302 483.01804Q312.34552 483.15866 312.47833 483.2368Q312.61115 483.3149 312.86115 483.3149Q313.06427 483.3149 313.37677 483.28366Z" fill-rule="nonzero" fill="#000000"></path><path d="M420.65878 487.93176L346.86353 487.93176" fill-rule="evenodd" stroke="#073763" stroke-width="2.0" stroke-linejoin="round" stroke-linecap="butt"></path><path d="M346.86353 484.6283L337.78732 487.93176L346.86353 491.23523Z" fill-rule="evenodd" fill="#073763" stroke="#073763" stroke-width="2.0" stroke-linecap="butt"></path><path d="M578.99194 477.17603L521.3856 477.17603" fill-rule="evenodd" stroke="#073763" stroke-width="2.0" stroke-linejoin="round" stroke-linecap="butt"></path><path d="M521.3856 473.87256L512.30945 477.17603L521.3856 480.4795Z" fill-rule="evenodd" fill="#073763" stroke="#073763" stroke-width="2.0" stroke-linecap="butt"></path><path d="M581.1409 552.2598L523.5031 552.2598" fill-rule="evenodd" stroke="#073763" stroke-width="2.0" stroke-linejoin="round" stroke-linecap="butt"></path><path d="M523.5031 548.95636L514.42694 552.2598L523.5031 555.5633Z" fill-rule="evenodd" fill="#073763" stroke="#073763" stroke-width="2.0" stroke-linecap="butt"></path><path d="M464.4752 446.4357L464.4752 409.4908" fill-rule="evenodd" stroke="#073763" stroke-width="2.0" stroke-linejoin="round" stroke-linecap="butt"></path><path d="M461.17172 446.4357L464.4752 455.5119L467.77866 446.4357Z" fill-rule="evenodd" fill="#073763" stroke="#073763" stroke-width="2.0" stroke-linecap="butt"></path><path d="M373.24878 553.0152L373.24878 400.70023" fill-rule="nonzero" stroke="#073763" stroke-width="2.0" stroke-linejoin="round" stroke-linecap="butt"></path><path d="M373.4672 553.01575L410.85303 553.01575" fill-rule="evenodd" stroke="#073763" stroke-width="2.0" stroke-linejoin="round" stroke-linecap="butt"></path><path d="M410.85303 556.3192L419.92923 553.01575L410.85303 549.7123Z" fill-rule="evenodd" fill="#073763" stroke="#073763" stroke-width="2.0" stroke-linecap="butt"></path><path d="M374.36484 468.6273L408.85303 468.6273" fill-rule="evenodd" stroke="#073763" stroke-width="2.0" stroke-linejoin="round" stroke-linecap="butt"></path><path d="M408.85303 471.93076L417.92923 468.6273L408.85303 465.32382Z" fill-rule="evenodd" fill="#073763" stroke="#073763" stroke-width="2.0" stroke-linecap="butt"></path><path d="M251.42111 598.2782L340.17703 598.2782L340.17703 639.79004L251.42111 639.79004Z" fill-rule="nonzero" fill="#cfe2f3" stroke="#073763" stroke-width="2.0" stroke-linejoin="round" stroke-linecap="butt"></path><path d="M270.74924 625.0282L270.74924 613.5751L273.0305 613.5751L275.74924 621.68445Q276.12424 622.80945 276.2961 623.37195Q276.4836 622.74695 276.9055 621.5438L279.63986 613.5751L281.68674 613.5751L281.68674 625.0282L280.218 625.0282L280.218 615.43445L276.88986 625.0282L275.5305 625.0282L272.218 615.2782L272.218 625.0282L270.74924 625.0282ZM289.3586 623.99695Q288.57736 624.6688 287.8586 624.94226Q287.13986 625.2157 286.31174 625.2157Q284.93674 625.2157 284.20236 624.5438Q283.468 623.87195 283.468 622.8407Q283.468 622.2313 283.74924 621.7235Q284.0305 621.2157 284.4758 620.911Q284.9211 620.6063 285.4836 620.4501Q285.9055 620.3407 286.7336 620.24695Q288.43674 620.0438 289.24924 619.7626Q289.24924 619.4657 289.24924 619.3876Q289.24924 618.5282 288.8586 618.18445Q288.31174 617.7001 287.24924 617.7001Q286.26486 617.7001 285.7883 618.05164Q285.31174 618.4032 285.093 619.2782L283.718 619.0907Q283.9055 618.2157 284.33517 617.6688Q284.76486 617.12195 285.57736 616.8329Q286.38986 616.5438 287.45236 616.5438Q288.51486 616.5438 289.17892 616.7938Q289.843 617.0438 290.1555 617.4188Q290.468 617.7938 290.593 618.37195Q290.6711 618.7313 290.6711 619.6688L290.6711 621.5438Q290.6711 623.5126 290.75705 624.0282Q290.843 624.5438 291.1086 625.0282L289.63986 625.0282Q289.4211 624.5907 289.3586 623.99695ZM289.24924 620.8563Q288.4836 621.1688 286.95236 621.3876Q286.07736 621.5126 285.718 621.6688Q285.3586 621.8251 285.1633 622.12976Q284.968 622.43445 284.968 622.7938Q284.968 623.3563 285.39767 623.7313Q285.82736 624.1063 286.63986 624.1063Q287.45236 624.1063 288.08517 623.75476Q288.718 623.4032 289.01486 622.7782Q289.24924 622.30945 289.24924 621.37195L289.24924 620.8563ZM295.9055 623.7626L296.1086 625.0126Q295.51486 625.1376 295.0461 625.1376Q294.2805 625.1376 293.8586 624.8954Q293.43674 624.6532 293.26486 624.25476Q293.093 623.8563 293.093 622.5907L293.093 617.8251L292.06174 617.8251L292.06174 616.7313L293.093 616.7313L293.093 614.6688L294.49924 613.8251L294.49924 616.7313L295.9055 616.7313L295.9055 617.8251L294.49924 617.8251L294.49924 622.6688Q294.49924 623.2782 294.56955 623.4501Q294.63986 623.62195 294.81174 623.7235Q294.9836 623.8251 295.2961 623.8251Q295.5305 623.8251 295.9055 623.7626ZM302.70236 621.9813L304.093 622.1688Q303.8586 623.5907 302.92892 624.4032Q301.99924 625.2157 300.63986 625.2157Q298.93674 625.2157 297.89767 624.0985Q296.8586 622.9813 296.8586 620.9032Q296.8586 619.55945 297.30392 618.55164Q297.74924 617.5438 298.6633 617.0438Q299.57736 616.5438 300.63986 616.5438Q301.99924 616.5438 302.8586 617.2235Q303.718 617.9032 303.95236 619.1688L302.593 619.37195Q302.38986 618.5438 301.89767 618.12195Q301.4055 617.7001 300.70236 617.7001Q299.63986 617.7001 298.9758 618.4579Q298.31174 619.2157 298.31174 620.87195Q298.31174 622.5438 298.95236 623.30164Q299.593 624.05945 300.62424 624.05945Q301.45236 624.05945 302.00705 623.55164Q302.56174 623.0438 302.70236 621.9813ZM305.2961 625.0282L305.2961 613.5751L306.70236 613.5751L306.70236 617.68445Q307.68674 616.5438 309.18674 616.5438Q310.1086 616.5438 310.7883 616.9032Q311.468 617.2626 311.75705 617.9032Q312.0461 618.5438 312.0461 619.7626L312.0461 625.0282L310.63986 625.0282L310.63986 619.7626Q310.63986 618.7157 310.18674 618.2313Q309.7336 617.74695 308.88986 617.74695Q308.26486 617.74695 307.718 618.0751Q307.1711 618.4032 306.93674 618.9579Q306.70236 619.5126 306.70236 620.4813L306.70236 625.0282L305.2961 625.0282ZM316.81174 622.2001Q316.81174 621.9188 316.81174 621.7782Q316.81174 620.9501 317.0461 620.3563Q317.218 619.9032 317.593 619.43445Q317.87424 619.1063 318.6086 618.4579Q319.343 617.80945 319.56174 617.42664Q319.7805 617.0438 319.7805 616.5907Q319.7805 615.7782 319.13986 615.1532Q318.49924 614.5282 317.56174 614.5282Q316.6711 614.5282 316.06955 615.0907Q315.468 615.6532 315.2805 616.8563L313.82736 616.68445Q314.0305 615.0751 314.99142 614.2235Q315.95236 613.37195 317.5461 613.37195Q319.218 613.37195 320.218 614.286Q321.218 615.2001 321.218 616.49695Q321.218 617.24695 320.86642 617.87976Q320.51486 618.5126 319.49924 619.4188Q318.81174 620.0282 318.6008 620.31726Q318.38986 620.6063 318.2883 620.9813Q318.18674 621.3563 318.1711 622.2001L316.81174 622.2001ZM316.7336 625.0282L316.7336 623.4188L318.32736 623.4188L318.32736 625.0282L316.7336 625.0282Z" fill-rule="nonzero" fill="#000000"></path><path d="M466.14755 575.01263L466.14755 625.8158" fill-rule="nonzero" stroke="#000000" stroke-width="2.0" stroke-linejoin="round" stroke-linecap="butt"></path><path d="M466.14755 625.8158L359.2184 625.8158" fill-rule="evenodd" stroke="#000000" stroke-width="2.0" stroke-linejoin="round" stroke-linecap="butt"></path><path d="M359.2184 622.5123L350.1422 625.8158L359.2184 629.11926Z" fill-rule="evenodd" fill="#000000" stroke="#000000" stroke-width="2.0" stroke-linecap="butt"></path><path d="M581.1076 409.97638L463.7848 409.97638" fill-rule="nonzero" stroke="#073763" stroke-width="2.0" stroke-linejoin="round" stroke-linecap="butt"></path><path d="M295.7979 512.4619L295.7979 575.45404" fill-rule="evenodd" stroke="#ff0000" stroke-width="2.0" stroke-linejoin="round" stroke-linecap="butt"></path><path d="M292.49445 575.45404L295.7979 584.5302L299.10138 575.45404Z" fill-rule="evenodd" fill="#ff0000" stroke="#ff0000" stroke-width="2.0" stroke-linecap="butt"></path><path d="M578.31494 512.6011L294.8189 512.6011" fill-rule="nonzero" stroke="#ff0000" stroke-width="2.0" stroke-linejoin="round" stroke-linecap="butt"></path></svg>

