<?xml version="1.0" standalone="yes"?>

<svg version="1.1" viewBox="0.0 0.0 960.0 720.0" fill="none" stroke="none" stroke-linecap="square" stroke-miterlimit="10" clip-path="url(#clip0)" xmlns="http://www.w3.org/2000/svg" xmlns:xlink="http://www.w3.org/1999/xlink"><clipPath id="clip0"><path d="M0 0L960.0 0L960.0 720.0L0 720.0L0 0Z" clip-rule="nonzero"></path></clipPath><path d="M556.4665 338.40643L717.4347 338.40643L717.4347 601.8281C636.95056 601.8281 636.95056 702.19666 556.4665 645.16907Z" fill-rule="nonzero" fill="#d9d2e9" stroke="#073763" stroke-width="2.0" stroke-linejoin="round" stroke-linecap="butt"></path><path d="M574.279 357.6408L575.70087 358.00018Q575.26337 359.75018 574.0993 360.67206Q572.93524 361.59393 571.26337 361.59393Q569.529 361.59393 568.43524 360.883Q567.3415 360.17206 566.779 358.83612Q566.2165 357.50018 566.2165 355.9533Q566.2165 354.28143 566.8571 353.03143Q567.49774 351.78143 568.6774 351.133Q569.8571 350.48456 571.279 350.48456Q572.88837 350.48456 573.9899 351.30487Q575.0915 352.12518 575.529 353.60956L574.12274 353.93768Q573.74774 352.7658 573.0368 352.23456Q572.32587 351.7033 571.24774 351.7033Q570.01337 351.7033 569.18524 352.29706Q568.3571 352.8908 568.0212 353.8908Q567.68524 354.8908 567.68524 355.9533Q567.68524 357.31268 568.0837 358.33612Q568.4821 359.35956 569.31805 359.86737Q570.154 360.37518 571.13837 360.37518Q572.3415 360.37518 573.1696 359.68768Q573.99774 359.00018 574.279 357.6408ZM576.99774 361.40643L576.99774 350.67206L578.32587 350.67206L578.32587 361.40643L576.99774 361.40643ZM579.7946 357.5158Q579.7946 355.35956 580.99774 354.31268Q581.99774 353.4533 583.43524 353.4533Q585.0446 353.4533 586.06024 354.50018Q587.07587 355.54706 587.07587 357.40643Q587.07587 358.90643 586.63055 359.7658Q586.18524 360.62518 585.31805 361.10175Q584.45087 361.5783 583.43524 361.5783Q581.81024 361.5783 580.8024 360.53143Q579.7946 359.48456 579.7946 357.5158ZM581.154 357.5158Q581.154 359.0158 581.8024 359.758Q582.45087 360.50018 583.43524 360.50018Q584.4196 360.50018 585.07587 359.75018Q585.7321 359.00018 585.7321 357.46893Q585.7321 356.03143 585.07587 355.28925Q584.4196 354.54706 583.43524 354.54706Q582.45087 354.54706 581.8024 355.28143Q581.154 356.0158 581.154 357.5158ZM593.5446 361.40643L593.5446 360.2658Q592.62274 361.5783 591.07587 361.5783Q590.38837 361.5783 589.7868 361.31268Q589.18524 361.04706 588.8962 360.64862Q588.6071 360.25018 588.49774 359.67206Q588.404 359.29706 588.404 358.4533L588.404 353.62518L589.7321 353.62518L589.7321 357.93768Q589.7321 358.96893 589.81024 359.3283Q589.93524 359.85956 590.3337 360.15643Q590.7321 360.4533 591.32587 360.4533Q591.9196 360.4533 592.44305 360.14862Q592.9665 359.84393 593.18524 359.3205Q593.404 358.79706 593.404 357.79706L593.404 353.62518L594.7165 353.62518L594.7165 361.40643L593.5446 361.40643ZM601.63837 361.40643L601.63837 360.42206Q600.904 361.5783 599.4665 361.5783Q598.5446 361.5783 597.76337 361.0705Q596.9821 360.56268 596.5524 359.6408Q596.12274 358.71893 596.12274 357.53143Q596.12274 356.35956 596.51337 355.41425Q596.904 354.46893 597.6774 353.96112Q598.45087 353.4533 599.404 353.4533Q600.1071 353.4533 600.6618 353.75018Q601.2165 354.04706 601.56024 354.5158L601.56024 350.67206L602.87274 350.67206L602.87274 361.40643L601.63837 361.40643ZM597.4821 357.53143Q597.4821 359.0158 598.1071 359.758Q598.7321 360.50018 599.5915 360.50018Q600.45087 360.50018 601.06024 359.78925Q601.6696 359.0783 601.6696 357.6408Q601.6696 356.03143 601.0524 355.28925Q600.43524 354.54706 599.529 354.54706Q598.654 354.54706 598.06805 355.2658Q597.4821 355.98456 597.4821 357.53143ZM609.06024 361.40643L609.06024 350.67206L616.2946 350.67206L616.2946 351.93768L610.4821 351.93768L610.4821 355.2658L615.51337 355.2658L615.51337 356.53143L610.4821 356.53143L610.4821 361.40643L609.06024 361.40643ZM617.779 352.18768L617.779 350.67206L619.0915 350.67206L619.0915 352.18768L617.779 352.18768ZM617.779 361.40643L617.779 353.62518L619.0915 353.62518L619.0915 361.40643L617.779 361.40643ZM620.9821 361.40643L620.9821 350.67206L622.31024 350.67206L622.31024 361.40643L620.9821 361.40643ZM629.6071 358.90643L630.9665 359.06268Q630.654 360.2658 629.779 360.92206Q628.904 361.5783 627.5446 361.5783Q625.8415 361.5783 624.8415 360.53143Q623.8415 359.48456 623.8415 357.5783Q623.8415 355.62518 624.8571 354.53925Q625.87274 353.4533 627.4821 353.4533Q629.0446 353.4533 630.029 354.5158Q631.01337 355.5783 631.01337 357.50018Q631.01337 357.62518 631.01337 357.85956L625.20087 357.85956Q625.279 359.1408 625.9274 359.8205Q626.57587 360.50018 627.56024 360.50018Q628.279 360.50018 628.7946 360.11737Q629.31024 359.73456 629.6071 358.90643ZM625.279 356.7658L629.62274 356.7658Q629.529 355.78143 629.12274 355.29706Q628.49774 354.53143 627.49774 354.53143Q626.57587 354.53143 625.9587 355.1408Q625.3415 355.75018 625.279 356.7658Z" fill-rule="nonzero" fill="#000000"></path><path d="M578.19617 443.94812L699.14105 443.94812L699.14105 526.5308L578.19617 526.5308Z" fill-rule="nonzero" fill="#f4cccc" stroke="#073763" stroke-width="2.0" stroke-linejoin="round" stroke-linecap="butt"></path><path d="M609.6696 518.3071C643.16437 526.1749 643.16437 510.43933 676.6555 510.43933L676.6555 469.54095L609.6696 469.54095ZM615.1884 469.54095L615.1884 464.23874L681.71686 464.23874L681.71686 505.39365C679.188 505.39365 676.6555 505.6787 676.6555 505.6787L676.6555 469.54095ZM620.37585 464.23874L620.37585 459.0648L687.48065 459.0648L687.48065 500.09143C684.59875 500.09143 681.71686 500.30524 681.71686 500.30524L681.71686 464.23874Z" fill-rule="nonzero" fill="#cfe2f3"></path><path d="M609.6696 469.54095L676.6555 469.54095L676.6555 510.43933C643.16437 510.43933 643.16437 526.1749 609.6696 518.3071ZM615.1884 469.54095L615.1884 464.23874L681.71686 464.23874L681.71686 505.39365C679.188 505.39365 676.6555 505.6787 676.6555 505.6787M620.37585 464.23874L620.37585 459.0648L687.48065 459.0648L687.48065 500.09143C684.59875 500.09143 681.71686 500.30524 681.71686 500.30524" fill-rule="nonzero" stroke="#073763" stroke-width="2.0" stroke-linejoin="round" stroke-linecap="butt"></path><path d="M627.45087 496.15033L628.68524 496.46283Q628.2946 497.97845 627.2868 498.77533Q626.279 499.5722 624.82587 499.5722Q623.32587 499.5722 622.38055 498.96283Q621.43524 498.35345 620.94305 497.1894Q620.45087 496.02533 620.45087 494.6972Q620.45087 493.24408 621.01337 492.15814Q621.57587 491.0722 622.5993 490.5097Q623.62274 489.9472 624.8571 489.9472Q626.24774 489.9472 627.20087 490.65814Q628.154 491.36908 628.529 492.66595L627.31024 492.9472Q626.9821 491.93158 626.37274 491.47064Q625.76337 491.0097 624.82587 491.0097Q623.74774 491.0097 623.029 491.52533Q622.31024 492.04095 622.0212 492.90033Q621.7321 493.7597 621.7321 494.68158Q621.7321 495.86908 622.07587 496.7597Q622.4196 497.65033 623.1462 498.08783Q623.87274 498.52533 624.7321 498.52533Q625.76337 498.52533 626.4821 497.92377Q627.20087 497.3222 627.45087 496.15033ZM629.87274 496.04095Q629.87274 494.16595 630.904 493.27533Q631.779 492.52533 633.029 492.52533Q634.4196 492.52533 635.3024 493.43158Q636.18524 494.33783 636.18524 495.9472Q636.18524 497.24408 635.7946 497.99408Q635.404 498.74408 634.654 499.15814Q633.904 499.5722 633.029 499.5722Q631.6071 499.5722 630.7399 498.66595Q629.87274 497.7597 629.87274 496.04095ZM631.0446 496.04095Q631.0446 497.33783 631.6071 497.98627Q632.1696 498.6347 633.029 498.6347Q633.87274 498.6347 634.44305 497.98627Q635.01337 497.33783 635.01337 496.0097Q635.01337 494.7597 634.44305 494.11127Q633.87274 493.46283 633.029 493.46283Q632.1696 493.46283 631.6071 494.10345Q631.0446 494.74408 631.0446 496.04095ZM637.7165 499.41595L637.7165 492.68158L638.74774 492.68158L638.74774 493.6347Q639.4821 492.52533 640.88837 492.52533Q641.49774 492.52533 642.00555 492.74408Q642.51337 492.96283 642.7712 493.3144Q643.029 493.66595 643.12274 494.16595Q643.18524 494.47845 643.18524 495.27533L643.18524 499.41595L642.0446 499.41595L642.0446 495.3222Q642.0446 494.61908 641.9118 494.27533Q641.779 493.93158 641.44305 493.72064Q641.1071 493.5097 640.654 493.5097Q639.9196 493.5097 639.38837 493.97064Q638.8571 494.43158 638.8571 495.72845L638.8571 499.41595L637.7165 499.41595ZM647.62274 498.40033L647.779 499.40033Q647.2946 499.5097 646.9196 499.5097Q646.2946 499.5097 645.95087 499.30658Q645.6071 499.10345 645.4665 498.78314Q645.32587 498.46283 645.32587 497.4472L645.32587 493.55658L644.49774 493.55658L644.49774 492.68158L645.32587 492.68158L645.32587 491.0097L646.4665 490.3222L646.4665 492.68158L647.62274 492.68158L647.62274 493.55658L646.4665 493.55658L646.4665 497.5097Q646.4665 497.99408 646.529 498.1347Q646.5915 498.27533 646.7243 498.35345Q646.8571 498.43158 647.1071 498.43158Q647.31024 498.43158 647.62274 498.40033ZM653.43524 497.24408L654.62274 497.3847Q654.3415 498.43158 653.5837 499.0019Q652.82587 499.5722 651.654 499.5722Q650.1696 499.5722 649.3024 498.65814Q648.43524 497.74408 648.43524 496.10345Q648.43524 494.40033 649.31805 493.46283Q650.20087 492.52533 651.5915 492.52533Q652.95087 492.52533 653.8024 493.4472Q654.654 494.36908 654.654 496.02533Q654.654 496.1347 654.654 496.33783L649.62274 496.33783Q649.68524 497.4472 650.24774 498.04095Q650.81024 498.6347 651.654 498.6347Q652.2946 498.6347 652.7399 498.29877Q653.18524 497.96283 653.43524 497.24408ZM649.68524 495.40033L653.45087 495.40033Q653.37274 494.54095 653.01337 494.11908Q652.4665 493.46283 651.6071 493.46283Q650.81024 493.46283 650.279 493.98627Q649.74774 494.5097 649.68524 495.40033ZM656.2321 499.41595L656.2321 492.68158L657.26337 492.68158L657.26337 493.6347Q657.99774 492.52533 659.404 492.52533Q660.01337 492.52533 660.5212 492.74408Q661.029 492.96283 661.2868 493.3144Q661.5446 493.66595 661.63837 494.16595Q661.70087 494.47845 661.70087 495.27533L661.70087 499.41595L660.56024 499.41595L660.56024 495.3222Q660.56024 494.61908 660.4274 494.27533Q660.2946 493.93158 659.9587 493.72064Q659.62274 493.5097 659.1696 493.5097Q658.43524 493.5097 657.904 493.97064Q657.37274 494.43158 657.37274 495.72845L657.37274 499.41595L656.2321 499.41595ZM666.154 498.40033L666.31024 499.40033Q665.82587 499.5097 665.45087 499.5097Q664.82587 499.5097 664.4821 499.30658Q664.13837 499.10345 663.99774 498.78314Q663.8571 498.46283 663.8571 497.4472L663.8571 493.55658L663.029 493.55658L663.029 492.68158L663.8571 492.68158L663.8571 491.0097L664.99774 490.3222L664.99774 492.68158L666.154 492.68158L666.154 493.55658L664.99774 493.55658L664.99774 497.5097Q664.99774 497.99408 665.06024 498.1347Q665.12274 498.27533 665.25555 498.35345Q665.38837 498.43158 665.63837 498.43158Q665.8415 498.43158 666.154 498.40033Z" fill-rule="nonzero" fill="#000000"></path><path d="M582.6333 460.49304L586.2114 451.18054L587.5239 451.18054L591.3364 460.49304L589.9302 460.49304L588.85205 457.68054L584.9614 457.68054L583.9302 460.49304L582.6333 460.49304ZM585.3208 456.66492L588.47705 456.66492L587.4927 454.0868Q587.0552 452.91492 586.8364 452.16492Q586.66455 453.05554 586.3364 453.94617L585.3208 456.66492ZM592.5552 460.49304L592.5552 451.18054L599.2739 451.18054L599.2739 452.28992L593.78955 452.28992L593.78955 455.13367L598.9302 455.13367L598.9302 456.22742L593.78955 456.22742L593.78955 459.3993L599.4927 459.3993L599.4927 460.49304L592.5552 460.49304ZM600.9927 457.50867L602.16455 457.3993Q602.2427 458.10242 602.54736 458.54773Q602.85205 458.99304 603.48486 459.26648Q604.1177 459.53992 604.91455 459.53992Q605.6177 459.53992 606.15674 459.3368Q606.6958 459.13367 606.9614 458.76648Q607.22705 458.3993 607.22705 457.9618Q607.22705 457.5243 606.96924 457.19617Q606.7114 456.86804 606.1333 456.6493Q605.7583 456.50867 604.47705 456.19617Q603.1958 455.88367 602.6802 455.61804Q602.0083 455.2743 601.6802 454.75085Q601.35205 454.22742 601.35205 453.5868Q601.35205 452.88367 601.7505 452.2743Q602.1489 451.66492 602.92236 451.3446Q603.6958 451.0243 604.6333 451.0243Q605.66455 451.0243 606.4536 451.36023Q607.2427 451.69617 607.67236 452.3446Q608.10205 452.99304 608.1333 453.80554L606.9458 453.8993Q606.85205 453.00867 606.3052 452.56335Q605.7583 452.11804 604.6802 452.11804Q603.5708 452.11804 603.0552 452.5243Q602.53955 452.93054 602.53955 453.50867Q602.53955 454.00867 602.8989 454.3368Q603.2583 454.66492 604.7583 455.00085Q606.2583 455.3368 606.8208 455.5868Q607.6333 455.9618 608.0161 456.53992Q608.3989 457.11804 608.3989 457.86804Q608.3989 458.60242 607.97705 459.25867Q607.5552 459.91492 606.7583 460.2821Q605.9614 460.6493 604.9614 460.6493Q603.6958 460.6493 602.84424 460.2821Q601.9927 459.91492 601.5083 459.17273Q601.0239 458.43054 600.9927 457.50867Z" fill-rule="nonzero" fill="#ff0000"></path><path d="M581.34033 372.71106L702.56866 372.71106L702.56866 429.30554L581.34033 429.30554Z" fill-rule="nonzero" fill="#ffffff" stroke="#073763" stroke-width="2.0" stroke-linejoin="round" stroke-linecap="butt"></path><path d="M585.14557 395.39886Q585.14557 393.52386 586.1768 392.63324Q587.0518 391.88324 588.3018 391.88324Q589.69244 391.88324 590.57526 392.7895Q591.45807 393.69574 591.45807 395.3051Q591.45807 396.602 591.06744 397.352Q590.6768 398.102 589.9268 398.51605Q589.1768 398.9301 588.3018 398.9301Q586.87994 398.9301 586.01276 398.02386Q585.14557 397.1176 585.14557 395.39886ZM586.31744 395.39886Q586.31744 396.69574 586.87994 397.34418Q587.44244 397.9926 588.3018 397.9926Q589.14557 397.9926 589.7159 397.34418Q590.2862 396.69574 590.2862 395.3676Q590.2862 394.1176 589.7159 393.46918Q589.14557 392.82074 588.3018 392.82074Q587.44244 392.82074 586.87994 393.46136Q586.31744 394.102 586.31744 395.39886ZM596.39557 395.7895L597.56744 395.6801Q597.64557 396.38324 597.95026 396.82855Q598.25494 397.27386 598.88776 397.5473Q599.52057 397.82074 600.31744 397.82074Q601.02057 397.82074 601.55963 397.6176Q602.0987 397.4145 602.3643 397.0473Q602.62994 396.6801 602.62994 396.2426Q602.62994 395.8051 602.37213 395.477Q602.1143 395.14886 601.5362 394.9301Q601.1612 394.7895 599.87994 394.477Q598.5987 394.1645 598.08307 393.89886Q597.4112 393.5551 597.08307 393.03168Q596.75494 392.50824 596.75494 391.8676Q596.75494 391.1645 597.1534 390.5551Q597.5518 389.94574 598.32526 389.62543Q599.0987 389.3051 600.0362 389.3051Q601.06744 389.3051 601.8565 389.64105Q602.64557 389.977 603.07526 390.62543Q603.50494 391.27386 603.5362 392.08636L602.3487 392.1801Q602.25494 391.2895 601.70807 390.84418Q601.1612 390.39886 600.08307 390.39886Q598.9737 390.39886 598.45807 390.8051Q597.94244 391.21136 597.94244 391.7895Q597.94244 392.2895 598.3018 392.6176Q598.6612 392.94574 600.1612 393.28168Q601.6612 393.6176 602.2237 393.8676Q603.0362 394.2426 603.419 394.82074Q603.8018 395.39886 603.8018 396.14886Q603.8018 396.88324 603.37994 397.5395Q602.95807 398.19574 602.1612 398.56293Q601.3643 398.9301 600.3643 398.9301Q599.0987 398.9301 598.24713 398.56293Q597.39557 398.19574 596.9112 397.45355Q596.4268 396.71136 596.39557 395.7895ZM608.06744 397.75824L608.2237 398.75824Q607.7393 398.8676 607.3643 398.8676Q606.7393 398.8676 606.39557 398.6645Q606.0518 398.46136 605.9112 398.14105Q605.77057 397.82074 605.77057 396.8051L605.77057 392.9145L604.94244 392.9145L604.94244 392.0395L605.77057 392.0395L605.77057 390.3676L606.9112 389.6801L606.9112 392.0395L608.06744 392.0395L608.06744 392.9145L606.9112 392.9145L606.9112 396.8676Q606.9112 397.352 606.9737 397.4926Q607.0362 397.63324 607.169 397.71136Q607.3018 397.7895 607.5518 397.7895Q607.75494 397.7895 608.06744 397.75824ZM608.8487 395.39886Q608.8487 393.52386 609.87994 392.63324Q610.75494 391.88324 612.00494 391.88324Q613.39557 391.88324 614.2784 392.7895Q615.1612 393.69574 615.1612 395.3051Q615.1612 396.602 614.77057 397.352Q614.37994 398.102 613.62994 398.51605Q612.87994 398.9301 612.00494 398.9301Q610.58307 398.9301 609.7159 398.02386Q608.8487 397.1176 608.8487 395.39886ZM610.02057 395.39886Q610.02057 396.69574 610.58307 397.34418Q611.14557 397.9926 612.00494 397.9926Q612.8487 397.9926 613.419 397.34418Q613.9893 396.69574 613.9893 395.3676Q613.9893 394.1176 613.419 393.46918Q612.8487 392.82074 612.00494 392.82074Q611.14557 392.82074 610.58307 393.46136Q610.02057 394.102 610.02057 395.39886ZM616.6612 398.77386L616.6612 392.0395L617.69244 392.0395L617.69244 393.0551Q618.08307 392.33636 618.419 392.1098Q618.75494 391.88324 619.14557 391.88324Q619.7237 391.88324 620.31744 392.2426L619.9268 393.3051Q619.50494 393.0551 619.0987 393.0551Q618.7237 393.0551 618.419 393.28168Q618.1143 393.50824 617.9893 393.9145Q617.8018 394.52386 617.8018 395.2426L617.8018 398.77386L616.6612 398.77386ZM625.50494 397.94574Q624.87994 398.477 624.294 398.70355Q623.70807 398.9301 623.0362 398.9301Q621.9112 398.9301 621.31744 398.38324Q620.7237 397.83636 620.7237 396.9926Q620.7237 396.50824 620.95026 396.09418Q621.1768 395.6801 621.544 395.4301Q621.9112 395.1801 622.3643 395.0551Q622.69244 394.977 623.37994 394.88324Q624.75494 394.727 625.4112 394.4926Q625.4268 394.25824 625.4268 394.19574Q625.4268 393.4926 625.0987 393.21136Q624.6612 392.82074 623.8018 392.82074Q622.9893 392.82074 622.6065 393.102Q622.2237 393.38324 622.0362 394.102L620.9268 393.96136Q621.06744 393.2426 621.419 392.7973Q621.77057 392.352 622.43463 392.1176Q623.0987 391.88324 623.95807 391.88324Q624.83307 391.88324 625.37213 392.08636Q625.9112 392.2895 626.1612 392.59418Q626.4112 392.89886 626.52057 393.3676Q626.56744 393.6645 626.56744 394.4301L626.56744 395.94574Q626.56744 397.5395 626.64557 397.96136Q626.7237 398.38324 626.9268 398.77386L625.7393 398.77386Q625.56744 398.4145 625.50494 397.94574ZM625.4112 395.38324Q624.7862 395.64886 623.5518 395.82074Q622.8487 395.9301 622.5518 396.0551Q622.25494 396.1801 622.0987 396.4223Q621.94244 396.6645 621.94244 396.96136Q621.94244 397.4145 622.2862 397.71918Q622.62994 398.02386 623.3018 398.02386Q623.95807 398.02386 624.4737 397.7348Q624.9893 397.44574 625.2393 396.94574Q625.4112 396.57074 625.4112 395.8051L625.4112 395.38324ZM628.31744 399.33636L629.44244 399.4926Q629.50494 400.00824 629.81744 400.2426Q630.25494 400.57074 630.9893 400.57074Q631.77057 400.57074 632.20807 400.25043Q632.64557 399.9301 632.7862 399.352Q632.87994 399.00824 632.87994 397.89886Q632.12994 398.77386 631.00494 398.77386Q629.6143 398.77386 628.8565 397.77386Q628.0987 396.77386 628.0987 395.3676Q628.0987 394.39886 628.45026 393.58636Q628.8018 392.77386 629.45807 392.32855Q630.1143 391.88324 631.02057 391.88324Q632.20807 391.88324 632.9893 392.852L632.9893 392.0395L634.0362 392.0395L634.0362 397.852Q634.0362 399.4301 633.7159 400.08636Q633.39557 400.7426 632.70026 401.12543Q632.00494 401.50824 630.9893 401.50824Q629.7862 401.50824 629.044 400.96918Q628.3018 400.4301 628.31744 399.33636ZM629.27057 395.2895Q629.27057 396.602 629.794 397.21136Q630.31744 397.82074 631.1143 397.82074Q631.9112 397.82074 632.44244 397.21918Q632.9737 396.6176 632.9737 395.32074Q632.9737 394.08636 632.4268 393.45355Q631.87994 392.82074 631.0987 392.82074Q630.33307 392.82074 629.8018 393.44574Q629.27057 394.07074 629.27057 395.2895ZM640.5518 396.602L641.7393 396.7426Q641.45807 397.7895 640.70026 398.3598Q639.94244 398.9301 638.77057 398.9301Q637.2862 398.9301 636.419 398.01605Q635.5518 397.102 635.5518 395.46136Q635.5518 393.75824 636.43463 392.82074Q637.31744 391.88324 638.70807 391.88324Q640.06744 391.88324 640.919 392.8051Q641.77057 393.727 641.77057 395.38324Q641.77057 395.4926 641.77057 395.69574L636.7393 395.69574Q636.8018 396.8051 637.3643 397.39886Q637.9268 397.9926 638.77057 397.9926Q639.4112 397.9926 639.8565 397.65668Q640.3018 397.32074 640.5518 396.602ZM636.8018 394.75824L640.56744 394.75824Q640.4893 393.89886 640.12994 393.477Q639.58307 392.82074 638.7237 392.82074Q637.9268 392.82074 637.39557 393.34418Q636.8643 393.8676 636.8018 394.75824ZM647.4112 398.77386L647.4112 389.46136L648.62994 389.46136L648.62994 398.77386L647.4112 398.77386ZM650.75494 398.77386L650.75494 392.0395L651.7862 392.0395L651.7862 392.9926Q652.52057 391.88324 653.9268 391.88324Q654.5362 391.88324 655.044 392.102Q655.5518 392.32074 655.80963 392.6723Q656.06744 393.02386 656.1612 393.52386Q656.2237 393.83636 656.2237 394.63324L656.2237 398.77386L655.08307 398.77386L655.08307 394.6801Q655.08307 393.977 654.95026 393.63324Q654.81744 393.2895 654.4815 393.07855Q654.14557 392.8676 653.69244 392.8676Q652.95807 392.8676 652.4268 393.32855Q651.89557 393.7895 651.89557 395.08636L651.89557 398.77386L650.75494 398.77386ZM662.5518 398.77386L662.5518 397.9301Q661.9112 398.9301 660.6612 398.9301Q659.8643 398.9301 659.18463 398.4848Q658.50494 398.0395 658.12994 397.2426Q657.75494 396.44574 657.75494 395.4145Q657.75494 394.39886 658.0987 393.57855Q658.44244 392.75824 659.1143 392.32074Q659.7862 391.88324 660.6143 391.88324Q661.2237 391.88324 661.70026 392.14105Q662.1768 392.39886 662.4737 392.8051L662.4737 389.46136L663.6143 389.46136L663.6143 398.77386L662.5518 398.77386ZM658.94244 395.4145Q658.94244 396.71136 659.4815 397.352Q660.02057 397.9926 660.77057 397.9926Q661.52057 397.9926 662.044 397.37543Q662.56744 396.75824 662.56744 395.50824Q662.56744 394.1176 662.0362 393.46918Q661.50494 392.82074 660.7237 392.82074Q659.95807 392.82074 659.45026 393.44574Q658.94244 394.07074 658.94244 395.4145ZM670.19244 396.602L671.37994 396.7426Q671.0987 397.7895 670.3409 398.3598Q669.58307 398.9301 668.4112 398.9301Q666.9268 398.9301 666.05963 398.01605Q665.19244 397.102 665.19244 395.46136Q665.19244 393.75824 666.07526 392.82074Q666.95807 391.88324 668.3487 391.88324Q669.70807 391.88324 670.55963 392.8051Q671.4112 393.727 671.4112 395.38324Q671.4112 395.4926 671.4112 395.69574L666.37994 395.69574Q666.44244 396.8051 667.00494 397.39886Q667.56744 397.9926 668.4112 397.9926Q669.0518 397.9926 669.49713 397.65668Q669.94244 397.32074 670.19244 396.602ZM666.44244 394.75824L670.20807 394.75824Q670.12994 393.89886 669.77057 393.477Q669.2237 392.82074 668.3643 392.82074Q667.56744 392.82074 667.0362 393.34418Q666.50494 393.8676 666.44244 394.75824ZM672.2393 398.77386L674.70807 395.27386L672.4268 392.0395L673.8487 392.0395L674.89557 393.6176Q675.1768 394.07074 675.3643 394.3676Q675.62994 393.94574 675.8643 393.63324L677.00494 392.0395L678.37994 392.0395L676.0362 395.21136L678.5518 398.77386L677.14557 398.77386L675.77057 396.6801L675.39557 396.1176L673.62994 398.77386L672.2393 398.77386Z" fill-rule="nonzero" fill="#000000"></path><path d="M373.24933 364.7874L373.24933 303.3701" fill-rule="evenodd" stroke="#ff0000" stroke-width="2.0" stroke-linejoin="round" stroke-linecap="butt"></path><path d="M376.5528 303.3701L373.24933 294.29388L369.9459 303.3701Z" fill-rule="evenodd" fill="#ff0000" stroke="#ff0000" stroke-width="2.0" stroke-linecap="butt"></path><path d="M359.4426 280.47293L360.61447 280.36356Q360.6926 281.06668 360.99728 281.512Q361.30197 281.9573 361.93478 282.23074Q362.5676 282.50418 363.36447 282.50418Q364.0676 282.50418 364.60666 282.30106Q365.14572 282.09793 365.41135 281.73074Q365.67697 281.36356 365.67697 280.92606Q365.67697 280.48856 365.41916 280.16043Q365.16135 279.8323 364.58322 279.61356Q364.20822 279.47293 362.92697 279.16043Q361.64572 278.84793 361.1301 278.5823Q360.45822 278.23856 360.1301 277.71512Q359.80197 277.19168 359.80197 276.55106Q359.80197 275.84793 360.2004 275.23856Q360.59885 274.62918 361.37228 274.30887Q362.14572 273.98856 363.08322 273.98856Q364.11447 273.98856 364.90353 274.3245Q365.6926 274.66043 366.12228 275.30887Q366.55197 275.9573 366.58322 276.7698L365.39572 276.86356Q365.30197 275.97293 364.7551 275.52762Q364.20822 275.0823 363.1301 275.0823Q362.02072 275.0823 361.5051 275.48856Q360.98947 275.8948 360.98947 276.47293Q360.98947 276.97293 361.34885 277.30106Q361.70822 277.62918 363.20822 277.96512Q364.70822 278.30106 365.27072 278.55106Q366.08322 278.92606 366.46603 279.50418Q366.84885 280.0823 366.84885 280.8323Q366.84885 281.56668 366.42697 282.22293Q366.0051 282.87918 365.20822 283.24637Q364.41135 283.61356 363.41135 283.61356Q362.14572 283.61356 361.29416 283.24637Q360.4426 282.87918 359.95822 282.137Q359.47385 281.3948 359.4426 280.47293ZM371.11447 282.44168L371.27072 283.44168Q370.78635 283.55106 370.41135 283.55106Q369.78635 283.55106 369.4426 283.34793Q369.09885 283.1448 368.95822 282.8245Q368.8176 282.50418 368.8176 281.48856L368.8176 277.59793L367.98947 277.59793L367.98947 276.72293L368.8176 276.72293L368.8176 275.05106L369.95822 274.36356L369.95822 276.72293L371.11447 276.72293L371.11447 277.59793L369.95822 277.59793L369.95822 281.55106Q369.95822 282.03543 370.02072 282.17606Q370.08322 282.31668 370.21603 282.3948Q370.34885 282.47293 370.59885 282.47293Q370.80197 282.47293 371.11447 282.44168ZM371.89572 280.0823Q371.89572 278.2073 372.92697 277.31668Q373.80197 276.56668 375.05197 276.56668Q376.4426 276.56668 377.3254 277.47293Q378.20822 278.37918 378.20822 279.98856Q378.20822 281.28543 377.8176 282.03543Q377.42697 282.78543 376.67697 283.1995Q375.92697 283.61356 375.05197 283.61356Q373.6301 283.61356 372.7629 282.7073Q371.89572 281.80106 371.89572 280.0823ZM373.0676 280.0823Q373.0676 281.37918 373.6301 282.02762Q374.1926 282.67606 375.05197 282.67606Q375.89572 282.67606 376.46603 282.02762Q377.03635 281.37918 377.03635 280.05106Q377.03635 278.80106 376.46603 278.15262Q375.89572 277.50418 375.05197 277.50418Q374.1926 277.50418 373.6301 278.1448Q373.0676 278.78543 373.0676 280.0823ZM379.70822 283.4573L379.70822 276.72293L380.73947 276.72293L380.73947 277.73856Q381.1301 277.0198 381.46603 276.79324Q381.80197 276.56668 382.1926 276.56668Q382.77072 276.56668 383.36447 276.92606L382.97385 277.98856Q382.55197 277.73856 382.14572 277.73856Q381.77072 277.73856 381.46603 277.96512Q381.16135 278.19168 381.03635 278.59793Q380.84885 279.2073 380.84885 279.92606L380.84885 283.4573L379.70822 283.4573ZM388.55197 282.62918Q387.92697 283.16043 387.34103 283.387Q386.7551 283.61356 386.08322 283.61356Q384.95822 283.61356 384.36447 283.06668Q383.77072 282.5198 383.77072 281.67606Q383.77072 281.19168 383.99728 280.77762Q384.22385 280.36356 384.59103 280.11356Q384.95822 279.86356 385.41135 279.73856Q385.73947 279.66043 386.42697 279.56668Q387.80197 279.41043 388.45822 279.17606Q388.47385 278.94168 388.47385 278.87918Q388.47385 278.17606 388.14572 277.8948Q387.70822 277.50418 386.84885 277.50418Q386.03635 277.50418 385.65353 277.78543Q385.27072 278.06668 385.08322 278.78543L383.97385 278.6448Q384.11447 277.92606 384.46603 277.48074Q384.8176 277.03543 385.48166 276.80106Q386.14572 276.56668 387.0051 276.56668Q387.8801 276.56668 388.41916 276.7698Q388.95822 276.97293 389.20822 277.27762Q389.45822 277.5823 389.5676 278.05106Q389.61447 278.34793 389.61447 279.11356L389.61447 280.62918Q389.61447 282.22293 389.6926 282.6448Q389.77072 283.06668 389.97385 283.4573L388.78635 283.4573Q388.61447 283.09793 388.55197 282.62918ZM388.45822 280.06668Q387.83322 280.3323 386.59885 280.50418Q385.89572 280.61356 385.59885 280.73856Q385.30197 280.86356 385.14572 281.10574Q384.98947 281.34793 384.98947 281.6448Q384.98947 282.09793 385.33322 282.40262Q385.67697 282.7073 386.34885 282.7073Q387.0051 282.7073 387.52072 282.41824Q388.03635 282.12918 388.28635 281.62918Q388.45822 281.25418 388.45822 280.48856L388.45822 280.06668ZM391.36447 284.0198L392.48947 284.17606Q392.55197 284.69168 392.86447 284.92606Q393.30197 285.25418 394.03635 285.25418Q394.8176 285.25418 395.2551 284.93387Q395.6926 284.61356 395.83322 284.03543Q395.92697 283.69168 395.92697 282.5823Q395.17697 283.4573 394.05197 283.4573Q392.66135 283.4573 391.90353 282.4573Q391.14572 281.4573 391.14572 280.05106Q391.14572 279.0823 391.49728 278.2698Q391.84885 277.4573 392.5051 277.012Q393.16135 276.56668 394.0676 276.56668Q395.2551 276.56668 396.03635 277.53543L396.03635 276.72293L397.08322 276.72293L397.08322 282.53543Q397.08322 284.11356 396.7629 284.7698Q396.4426 285.42606 395.74728 285.80887Q395.05197 286.19168 394.03635 286.19168Q392.83322 286.19168 392.09103 285.65262Q391.34885 285.11356 391.36447 284.0198ZM392.3176 279.97293Q392.3176 281.28543 392.84103 281.8948Q393.36447 282.50418 394.16135 282.50418Q394.95822 282.50418 395.48947 281.90262Q396.02072 281.30106 396.02072 280.00418Q396.02072 278.7698 395.47385 278.137Q394.92697 277.50418 394.14572 277.50418Q393.3801 277.50418 392.84885 278.12918Q392.3176 278.75418 392.3176 279.97293ZM403.59885 281.28543L404.78635 281.42606Q404.5051 282.47293 403.74728 283.04324Q402.98947 283.61356 401.8176 283.61356Q400.33322 283.61356 399.46603 282.6995Q398.59885 281.78543 398.59885 280.1448Q398.59885 278.44168 399.48166 277.50418Q400.36447 276.56668 401.7551 276.56668Q403.11447 276.56668 403.96603 277.48856Q404.8176 278.41043 404.8176 280.06668Q404.8176 280.17606 404.8176 280.37918L399.78635 280.37918Q399.84885 281.48856 400.41135 282.0823Q400.97385 282.67606 401.8176 282.67606Q402.45822 282.67606 402.90353 282.34012Q403.34885 282.00418 403.59885 281.28543ZM399.84885 279.44168L403.61447 279.44168Q403.53635 278.5823 403.17697 278.16043Q402.6301 277.50418 401.77072 277.50418Q400.97385 277.50418 400.4426 278.02762Q399.91135 278.55106 399.84885 279.44168ZM410.45822 283.4573L410.45822 274.1448L411.67697 274.1448L411.67697 283.4573L410.45822 283.4573ZM413.80197 283.4573L413.80197 276.72293L414.83322 276.72293L414.83322 277.67606Q415.5676 276.56668 416.97385 276.56668Q417.58322 276.56668 418.09103 276.78543Q418.59885 277.00418 418.85666 277.35574Q419.11447 277.7073 419.20822 278.2073Q419.27072 278.5198 419.27072 279.31668L419.27072 283.4573L418.1301 283.4573L418.1301 279.36356Q418.1301 278.66043 417.99728 278.31668Q417.86447 277.97293 417.52853 277.762Q417.1926 277.55106 416.73947 277.55106Q416.0051 277.55106 415.47385 278.012Q414.9426 278.47293 414.9426 279.7698L414.9426 283.4573L413.80197 283.4573ZM425.59885 283.4573L425.59885 282.61356Q424.95822 283.61356 423.70822 283.61356Q422.91135 283.61356 422.23166 283.16824Q421.55197 282.72293 421.17697 281.92606Q420.80197 281.12918 420.80197 280.09793Q420.80197 279.0823 421.14572 278.262Q421.48947 277.44168 422.16135 277.00418Q422.83322 276.56668 423.66135 276.56668Q424.27072 276.56668 424.74728 276.8245Q425.22385 277.0823 425.52072 277.48856L425.52072 274.1448L426.66135 274.1448L426.66135 283.4573L425.59885 283.4573ZM421.98947 280.09793Q421.98947 281.3948 422.52853 282.03543Q423.0676 282.67606 423.8176 282.67606Q424.5676 282.67606 425.09103 282.05887Q425.61447 281.44168 425.61447 280.19168Q425.61447 278.80106 425.08322 278.15262Q424.55197 277.50418 423.77072 277.50418Q423.0051 277.50418 422.49728 278.12918Q421.98947 278.75418 421.98947 280.09793ZM433.23947 281.28543L434.42697 281.42606Q434.14572 282.47293 433.3879 283.04324Q432.6301 283.61356 431.45822 283.61356Q429.97385 283.61356 429.10666 282.6995Q428.23947 281.78543 428.23947 280.1448Q428.23947 278.44168 429.12228 277.50418Q430.0051 276.56668 431.39572 276.56668Q432.7551 276.56668 433.60666 277.48856Q434.45822 278.41043 434.45822 280.06668Q434.45822 280.17606 434.45822 280.37918L429.42697 280.37918Q429.48947 281.48856 430.05197 282.0823Q430.61447 282.67606 431.45822 282.67606Q432.09885 282.67606 432.54416 282.34012Q432.98947 282.00418 433.23947 281.28543ZM429.48947 279.44168L433.2551 279.44168Q433.17697 278.5823 432.8176 278.16043Q432.27072 277.50418 431.41135 277.50418Q430.61447 277.50418 430.08322 278.02762Q429.55197 278.55106 429.48947 279.44168ZM435.28635 283.4573L437.7551 279.9573L435.47385 276.72293L436.89572 276.72293L437.9426 278.30106Q438.22385 278.75418 438.41135 279.05106Q438.67697 278.62918 438.91135 278.31668L440.05197 276.72293L441.42697 276.72293L439.08322 279.8948L441.59885 283.4573L440.1926 283.4573L438.8176 281.36356L438.4426 280.80106L436.67697 283.4573L435.28635 283.4573Z" fill-rule="nonzero" fill="#000000"></path><path d="M362.7176 381.4288L362.7176 372.1163L363.95197 372.1163L363.95197 376.7413L368.57697 372.1163L370.23322 372.1163L366.3426 375.89755L370.4051 381.4288L368.7801 381.4288L365.4676 376.72568L363.95197 378.21005L363.95197 381.4288L362.7176 381.4288ZM376.12384 379.25693L377.31134 379.39755Q377.0301 380.44443 376.27228 381.01474Q375.51447 381.58505 374.3426 381.58505Q372.85822 381.58505 371.99103 380.671Q371.12384 379.75693 371.12384 378.1163Q371.12384 376.41318 372.00665 375.47568Q372.88947 374.53818 374.2801 374.53818Q375.63947 374.53818 376.49103 375.46005Q377.3426 376.38193 377.3426 378.03818Q377.3426 378.14755 377.3426 378.35068L372.31134 378.35068Q372.37384 379.46005 372.93634 380.0538Q373.49884 380.64755 374.3426 380.64755Q374.98322 380.64755 375.42853 380.3116Q375.87384 379.97568 376.12384 379.25693ZM372.37384 377.41318L376.13947 377.41318Q376.06134 376.5538 375.70197 376.13193Q375.1551 375.47568 374.29572 375.47568Q373.49884 375.47568 372.9676 375.9991Q372.43634 376.52255 372.37384 377.41318ZM378.87384 384.02255L378.73322 382.96005Q379.10822 383.0538 379.38947 383.0538Q379.7801 383.0538 380.00665 382.9288Q380.23322 382.8038 380.37384 382.56943Q380.48322 382.39755 380.73322 381.72568Q380.76447 381.63193 380.82697 381.44443L378.26447 374.69443L379.49884 374.69443L380.9051 378.58505Q381.17072 379.33505 381.38947 380.14755Q381.5926 379.3663 381.85822 378.6163L383.31134 374.69443L384.45197 374.69443L381.88947 381.53818Q381.4676 382.64755 381.24884 383.06943Q380.93634 383.63193 380.54572 383.89755Q380.1551 384.16318 379.60822 384.16318Q379.2801 384.16318 378.87384 384.02255Z" fill-rule="nonzero" fill="#000000"></path><path d="M355.04672 390.13733L355.04672 390.13733C355.04672 386.6503 357.93765 383.8235 361.5038 383.8235L361.5038 383.8235C363.21634 383.8235 364.85873 384.4887 366.06967 385.67276C367.28064 386.85684 367.96094 388.4628 367.96094 390.13733L367.96094 390.13733C367.96094 393.6244 365.06998 396.4512 361.5038 396.4512L361.5038 396.4512C357.93765 396.4512 355.04672 393.6244 355.04672 390.13733Z" fill-rule="nonzero" stroke="#073763" stroke-width="2.0" stroke-linejoin="round" stroke-linecap="butt"></path><path d="M365.68607 385.67322L391.45197 385.67322" fill-rule="nonzero" stroke="#073763" stroke-width="2.0" stroke-linejoin="round" stroke-linecap="butt"></path><path d="M390.9932 385.6111C390.9932 386.93127 390.73828 389.8953 389.531 389.30444C388.76132 388.92776 389.52673 386.78348 388.67767 386.92142C387.57242 387.101 387.36496 389.7944 386.36285 389.30444C385.58295 388.92313 385.9716 386.7713 385.14435 387.04092C384.21246 387.34467 384.65845 389.437 383.68213 389.54276C382.03824 389.72076 380.8005 387.80692 379.17328 387.51755C378.34183 387.3697 378.39896 389.06277 377.71106 389.54276C376.52957 390.3671 374.8663 387.59775 373.5681 388.23245C371.7935 389.1001 370.0685 390.49594 368.08444 390.49594" fill-rule="evenodd" stroke="#073763" stroke-width="2.0" stroke-linejoin="round" stroke-linecap="butt"></path><path d="M369.79034 386.8026L384.40875 386.8026" fill-rule="nonzero" stroke="#cccccc" stroke-width="1.0" stroke-linejoin="round" stroke-linecap="butt"></path><path d="M359.4952 390.14258L359.4952 390.14258C359.4952 389.05502 360.39468 388.1734 361.50424 388.1734L361.50424 388.1734C362.03708 388.1734 362.5481 388.38086 362.92487 388.75015C363.30164 389.11945 363.5133 389.6203 363.5133 390.14258L363.5133 390.14258C363.5133 391.2301 362.61383 392.11176 361.50424 392.11176L361.50424 392.11176C360.39468 392.11176 359.4952 391.2301 359.4952 390.14258Z" fill-rule="nonzero" stroke="#073763" stroke-width="2.0" stroke-linejoin="round" stroke-linecap="butt"></path><path d="M256.8924 503.19046C290.38715 511.05826 290.38715 495.32263 323.8783 495.32263L323.8783 454.4243L256.8924 454.4243ZM262.4112 454.4243L262.4112 449.12207L328.93964 449.12207L328.93964 490.27698C326.41077 490.27698 323.8783 490.56204 323.8783 490.56204L323.8783 454.4243ZM267.5986 449.12207L267.5986 443.94812L334.7034 443.94812L334.7034 484.97476C331.82153 484.97476 328.93964 485.18857 328.93964 485.18857L328.93964 449.12207Z" fill-rule="nonzero" fill="#cfe2f3"></path><path d="M256.8924 454.4243L323.8783 454.4243L323.8783 495.32263C290.38715 495.32263 290.38715 511.05826 256.8924 503.19046ZM262.4112 454.4243L262.4112 449.12207L328.93964 449.12207L328.93964 490.27698C326.41077 490.27698 323.8783 490.56204 323.8783 490.56204M267.5986 449.12207L267.5986 443.94812L334.7034 443.94812L334.7034 484.97476C331.82153 484.97476 328.93964 485.18857 328.93964 485.18857" fill-rule="nonzero" stroke="#073763" stroke-width="2.0" stroke-linejoin="round" stroke-linecap="butt"></path><path d="M274.67365 481.03366L275.90802 481.34616Q275.5174 482.8618 274.50958 483.65866Q273.50177 484.45554 272.04865 484.45554Q270.54865 484.45554 269.60333 483.84616Q268.65802 483.2368 268.16583 482.07272Q267.67365 480.90866 267.67365 479.58054Q267.67365 478.1274 268.23615 477.04147Q268.79865 475.95554 269.82208 475.39304Q270.84552 474.83054 272.0799 474.83054Q273.47052 474.83054 274.42365 475.54147Q275.37677 476.2524 275.75177 477.5493L274.53302 477.83054Q274.2049 476.8149 273.59552 476.35397Q272.98615 475.89304 272.04865 475.89304Q270.97052 475.89304 270.25177 476.40866Q269.53302 476.9243 269.24396 477.78366Q268.9549 478.64304 268.9549 479.5649Q268.9549 480.7524 269.29865 481.64304Q269.6424 482.53366 270.36896 482.97116Q271.09552 483.40866 271.9549 483.40866Q272.98615 483.40866 273.7049 482.8071Q274.42365 482.20554 274.67365 481.03366ZM277.09552 480.9243Q277.09552 479.0493 278.12677 478.15866Q279.00177 477.40866 280.25177 477.40866Q281.6424 477.40866 282.5252 478.3149Q283.40802 479.22116 283.40802 480.83054Q283.40802 482.1274 283.0174 482.8774Q282.62677 483.6274 281.87677 484.04147Q281.12677 484.45554 280.25177 484.45554Q278.8299 484.45554 277.9627 483.5493Q277.09552 482.64304 277.09552 480.9243ZM278.2674 480.9243Q278.2674 482.22116 278.8299 482.8696Q279.3924 483.51804 280.25177 483.51804Q281.09552 483.51804 281.66583 482.8696Q282.23615 482.22116 282.23615 480.89304Q282.23615 479.64304 281.66583 478.9946Q281.09552 478.34616 280.25177 478.34616Q279.3924 478.34616 278.8299 478.9868Q278.2674 479.6274 278.2674 480.9243ZM284.93927 484.2993L284.93927 477.5649L285.97052 477.5649L285.97052 478.51804Q286.7049 477.40866 288.11115 477.40866Q288.72052 477.40866 289.22833 477.6274Q289.73615 477.84616 289.99396 478.19772Q290.25177 478.5493 290.34552 479.0493Q290.40802 479.3618 290.40802 480.15866L290.40802 484.2993L289.2674 484.2993L289.2674 480.20554Q289.2674 479.5024 289.13458 479.15866Q289.00177 478.8149 288.66583 478.60397Q288.3299 478.39304 287.87677 478.39304Q287.1424 478.39304 286.61115 478.85397Q286.0799 479.3149 286.0799 480.6118L286.0799 484.2993L284.93927 484.2993ZM294.84552 483.28366L295.00177 484.28366Q294.5174 484.39304 294.1424 484.39304Q293.5174 484.39304 293.17365 484.1899Q292.8299 483.9868 292.68927 483.66647Q292.54865 483.34616 292.54865 482.33054L292.54865 478.4399L291.72052 478.4399L291.72052 477.5649L292.54865 477.5649L292.54865 475.89304L293.68927 475.20554L293.68927 477.5649L294.84552 477.5649L294.84552 478.4399L293.68927 478.4399L293.68927 482.39304Q293.68927 482.8774 293.75177 483.01804Q293.81427 483.15866 293.94708 483.2368Q294.0799 483.3149 294.3299 483.3149Q294.53302 483.3149 294.84552 483.28366ZM300.65802 482.1274L301.84552 482.26804Q301.56427 483.3149 300.80646 483.88522Q300.04865 484.45554 298.87677 484.45554Q297.3924 484.45554 296.5252 483.54147Q295.65802 482.6274 295.65802 480.9868Q295.65802 479.28366 296.54083 478.34616Q297.42365 477.40866 298.81427 477.40866Q300.17365 477.40866 301.0252 478.33054Q301.87677 479.2524 301.87677 480.90866Q301.87677 481.01804 301.87677 481.22116L296.84552 481.22116Q296.90802 482.33054 297.47052 482.9243Q298.03302 483.51804 298.87677 483.51804Q299.5174 483.51804 299.9627 483.1821Q300.40802 482.84616 300.65802 482.1274ZM296.90802 480.28366L300.67365 480.28366Q300.59552 479.4243 300.23615 479.0024Q299.68927 478.34616 298.8299 478.34616Q298.03302 478.34616 297.50177 478.8696Q296.97052 479.39304 296.90802 480.28366ZM303.4549 484.2993L303.4549 477.5649L304.48615 477.5649L304.48615 478.51804Q305.22052 477.40866 306.62677 477.40866Q307.23615 477.40866 307.74396 477.6274Q308.25177 477.84616 308.50958 478.19772Q308.7674 478.5493 308.86115 479.0493Q308.92365 479.3618 308.92365 480.15866L308.92365 484.2993L307.78302 484.2993L307.78302 480.20554Q307.78302 479.5024 307.6502 479.15866Q307.5174 478.8149 307.18146 478.60397Q306.84552 478.39304 306.3924 478.39304Q305.65802 478.39304 305.12677 478.85397Q304.59552 479.3149 304.59552 480.6118L304.59552 484.2993L303.4549 484.2993ZM313.37677 483.28366L313.53302 484.28366Q313.04865 484.39304 312.67365 484.39304Q312.04865 484.39304 311.7049 484.1899Q311.36115 483.9868 311.22052 483.66647Q311.0799 483.34616 311.0799 482.33054L311.0799 478.4399L310.25177 478.4399L310.25177 477.5649L311.0799 477.5649L311.0799 475.89304L312.22052 475.20554L312.22052 477.5649L313.37677 477.5649L313.37677 478.4399L312.22052 478.4399L312.22052 482.39304Q312.22052 482.8774 312.28302 483.01804Q312.34552 483.15866 312.47833 483.2368Q312.61115 483.3149 312.86115 483.3149Q313.06427 483.3149 313.37677 483.28366Z" fill-rule="nonzero" fill="#000000"></path><path d="M420.65878 487.93176L346.86353 487.93176" fill-rule="evenodd" stroke="#073763" stroke-width="2.0" stroke-linejoin="round" stroke-linecap="butt"></path><path d="M346.86353 484.6283L337.78732 487.93176L346.86353 491.23523Z" fill-rule="evenodd" fill="#073763" stroke="#073763" stroke-width="2.0" stroke-linecap="butt"></path><path d="M578.99194 477.17603L544.0313 477.17603" fill-rule="evenodd" stroke="#073763" stroke-width="2.0" stroke-linejoin="round" stroke-linecap="butt"></path><path d="M544.0313 473.87256L534.95514 477.17603L544.0313 480.4795Z" fill-rule="evenodd" fill="#073763" stroke="#073763" stroke-width="2.0" stroke-linecap="butt"></path><path d="M373.24933 469.88977L373.24933 400.6614" fill-rule="nonzero" stroke="#073763" stroke-width="2.0" stroke-linejoin="round" stroke-linecap="butt"></path><path d="M373.9239 468.6273L414.8058 468.6273" fill-rule="evenodd" stroke="#073763" stroke-width="2.0" stroke-linejoin="round" stroke-linecap="butt"></path><path d="M414.8058 471.93076L423.88196 468.6273L414.8058 465.32382Z" fill-rule="evenodd" fill="#073763" stroke="#073763" stroke-width="2.0" stroke-linecap="butt"></path><path d="M439.2047 290.38583L439.2047 338.5433" fill-rule="evenodd" stroke="#ff0000" stroke-width="2.0" stroke-linejoin="round" stroke-linecap="butt"></path><path d="M435.90125 338.5433L439.2047 347.6195L442.50818 338.5433Z" fill-rule="evenodd" fill="#ff0000" stroke="#ff0000" stroke-width="2.0" stroke-linecap="butt"></path><path d="M439.20483 446.4357L439.20483 372.41995" fill-rule="evenodd" stroke="#073763" stroke-width="2.0" stroke-linejoin="round" stroke-linecap="butt"></path><path d="M435.9014 446.4357L439.20483 455.5119L442.5083 446.4357Z" fill-rule="evenodd" fill="#073763" stroke="#073763" stroke-width="2.0" stroke-linecap="butt"></path><path d="M373.24933 566.3989L445.91077 566.3989L445.91077 592.7297L373.24933 592.7297Z" fill-rule="nonzero" fill="#cfe2f3" stroke="#073763" stroke-width="2.0" stroke-linejoin="round" stroke-linecap="butt"></path><path d="M387.1712 585.0552L387.1712 575.7427L389.9837 575.7427L391.6712 582.10205L393.34308 575.7427L396.15558 575.7427L396.15558 585.0552L394.40558 585.0552L394.40558 577.72705L392.56183 585.0552L390.74933 585.0552L388.9212 577.72705L388.9212 585.0552L387.1712 585.0552ZM399.6087 580.3677L397.9837 580.0708Q398.26495 579.10205 398.92902 578.6333Q399.59308 578.16455 400.90558 578.16455Q402.1087 578.16455 402.68683 578.4458Q403.26495 578.72705 403.50714 579.16455Q403.74933 579.60205 403.74933 580.7583L403.7337 582.8364Q403.7337 583.72705 403.81964 584.1489Q403.90558 584.5708 404.13995 585.0552L402.37433 585.0552Q402.2962 584.8833 402.20245 584.5239Q402.15558 584.3677 402.13995 584.3208Q401.6712 584.7583 401.15558 584.98486Q400.63995 585.2114 400.0462 585.2114Q398.99933 585.2114 398.40558 584.6411Q397.81183 584.0708 397.81183 583.2114Q397.81183 582.6489 398.08527 582.1958Q398.3587 581.7427 398.8509 581.5083Q399.34308 581.2739 400.26495 581.0864Q401.51495 580.85205 401.99933 580.6489L401.99933 580.47705Q401.99933 579.9614 401.74152 579.7427Q401.4837 579.5239 400.78058 579.5239Q400.31183 579.5239 400.0462 579.7114Q399.78058 579.8989 399.6087 580.3677ZM401.99933 581.8208Q401.65558 581.9302 400.9134 582.0864Q400.1712 582.2427 399.93683 582.3989Q399.59308 582.6489 399.59308 583.0239Q399.59308 583.3989 399.87433 583.67236Q400.15558 583.9458 400.57745 583.9458Q401.06183 583.9458 401.49933 583.6333Q401.82745 583.3989 401.9212 583.03955Q401.99933 582.8208 401.99933 582.1802L401.99933 581.8208ZM408.7962 578.3208L408.7962 579.7427L407.57745 579.7427L407.57745 582.4458Q407.57745 583.2739 407.6087 583.41455Q407.63995 583.5552 407.76495 583.6411Q407.88995 583.72705 408.06183 583.72705Q408.31183 583.72705 408.78058 583.5552L408.93683 584.9458Q408.31183 585.2114 407.53058 585.2114Q407.0462 585.2114 406.65558 585.04736Q406.26495 584.8833 406.08527 584.6255Q405.90558 584.3677 405.84308 583.9302Q405.78058 583.6177 405.78058 582.6802L405.78058 579.7427L404.96808 579.7427L404.96808 578.3208L405.78058 578.3208L405.78058 576.97705L407.57745 575.9302L407.57745 578.3208L408.7962 578.3208ZM416.01495 580.3052L414.24933 580.6177Q414.1712 580.10205 413.8509 579.8364Q413.53058 579.5708 413.03058 579.5708Q412.37433 579.5708 411.9759 580.0239Q411.57745 580.47705 411.57745 581.5708Q411.57745 582.7583 411.9837 583.2583Q412.38995 583.7583 413.06183 583.7583Q413.57745 583.7583 413.89777 583.46924Q414.21808 583.1802 414.34308 582.47705L416.1087 582.7739Q415.82745 583.97705 415.05402 584.59424Q414.28058 585.2114 412.9837 585.2114Q411.49933 585.2114 410.62433 584.2739Q409.74933 583.3364 409.74933 581.6958Q409.74933 580.0239 410.62433 579.09424Q411.49933 578.16455 413.01495 578.16455Q414.24933 578.16455 414.9759 578.6958Q415.70245 579.22705 416.01495 580.3052ZM419.31183 575.7427L419.31183 579.16455Q420.18683 578.16455 421.38995 578.16455Q421.99933 578.16455 422.49152 578.3911Q422.9837 578.6177 423.2337 578.97705Q423.4837 579.3364 423.57745 579.7661Q423.6712 580.1958 423.6712 581.10205L423.6712 585.0552L421.88995 585.0552L421.88995 581.4927Q421.88995 580.4302 421.7884 580.1489Q421.68683 579.8677 421.42902 579.6958Q421.1712 579.5239 420.78058 579.5239Q420.34308 579.5239 419.99152 579.7427Q419.63995 579.9614 419.4759 580.3911Q419.31183 580.8208 419.31183 581.6802L419.31183 585.0552L417.53058 585.0552L417.53058 575.7427L419.31183 575.7427ZM429.51495 582.6489L427.90558 582.6489Q427.88995 582.3052 427.88995 582.22705Q427.88995 581.4458 428.14777 580.938Q428.40558 580.4302 429.18683 579.79736Q429.96808 579.16455 430.12433 578.9614Q430.3587 578.6489 430.3587 578.2739Q430.3587 577.7583 429.94464 577.3833Q429.53058 577.0083 428.82745 577.0083Q428.13995 577.0083 427.68683 577.3989Q427.2337 577.78955 427.06183 578.5864L425.4212 578.3833Q425.49933 577.2427 426.39777 576.4458Q427.2962 575.6489 428.74933 575.6489Q430.28058 575.6489 431.18683 576.4536Q432.09308 577.2583 432.09308 578.3208Q432.09308 578.91455 431.76495 579.4458Q431.43683 579.97705 430.34308 580.8833Q429.78058 581.35205 429.63995 581.6333Q429.49933 581.91455 429.51495 582.6489ZM427.90558 585.0552L427.90558 583.2739L429.68683 583.2739L429.68683 585.0552L427.90558 585.0552Z" fill-rule="nonzero" fill="#000000"></path><path d="M317.1496 577.3832L317.1496 508.15485" fill-rule="nonzero" stroke="#ff0000" stroke-width="2.0" stroke-linejoin="round" stroke-linecap="butt"></path><path d="M317.1496 577.3832L358.0315 577.3832" fill-rule="evenodd" stroke="#ff0000" stroke-width="2.0" stroke-linejoin="round" stroke-linecap="butt"></path><path d="M358.0315 580.68665L367.1077 577.3832L358.0315 574.0797Z" fill-rule="evenodd" fill="#ff0000" stroke="#ff0000" stroke-width="2.0" stroke-linecap="butt"></path><path d="M409.58005 551.69293L409.58005 534.0236" fill-rule="evenodd" stroke="#073763" stroke-width="2.0" stroke-linejoin="round" stroke-linecap="butt"></path><path d="M406.27658 551.69293L409.58005 560.7691L412.8835 551.69293Z" fill-rule="evenodd" fill="#073763" stroke="#073763" stroke-width="2.0" stroke-linecap="butt"></path><path d="M256.8924 616.2362L282.71915 616.2362" fill-rule="evenodd" stroke="#ff0000" stroke-width="2.0" stroke-linejoin="round" stroke-linecap="butt"></path><path d="M282.71915 619.5397L291.79535 616.2362L282.71915 612.93274Z" fill-rule="evenodd" fill="#ff0000" stroke="#ff0000" stroke-width="2.0" stroke-linecap="butt"></path><path d="M304.34326 620.23004L304.34326 612.35504L305.39014 612.35504L305.39014 615.5894L309.4839 615.5894L309.4839 612.35504L310.53076 612.35504L310.53076 620.23004L309.4839 620.23004L309.4839 616.5113L305.39014 616.5113L305.39014 620.23004L304.34326 620.23004ZM315.6245 619.5269Q315.07764 619.98004 314.58545 620.16754Q314.09326 620.35504 313.51514 620.35504Q312.57764 620.35504 312.06982 619.8941Q311.562 619.43317 311.562 618.73004Q311.562 618.30817 311.75732 617.9644Q311.95264 617.62067 312.25732 617.4097Q312.562 617.1988 312.95264 617.0894Q313.2339 617.0113 313.812 616.9488Q314.9839 616.80817 315.53076 616.60504Q315.5464 616.41754 315.5464 616.35504Q315.5464 615.7613 315.26514 615.5269Q314.90576 615.1988 314.1714 615.1988Q313.4839 615.1988 313.16357 615.43317Q312.84326 615.66754 312.687 616.2769L311.7339 616.1519Q311.8589 615.54254 312.15576 615.16754Q312.45264 614.79254 313.01514 614.5972Q313.57764 614.4019 314.312 614.4019Q315.0464 614.4019 315.4995 614.5738Q315.95264 614.74567 316.16357 615.0035Q316.3745 615.2613 316.46826 615.6519Q316.51514 615.9019 316.51514 616.55817L316.51514 617.8394Q316.51514 619.18317 316.57764 619.54254Q316.64014 619.9019 316.82764 620.23004L315.812 620.23004Q315.65576 619.93317 315.6245 619.5269ZM315.53076 617.37067Q315.01514 617.5894 313.95264 617.73004Q313.3589 617.8238 313.1167 617.92535Q312.8745 618.0269 312.7339 618.23785Q312.59326 618.4488 312.59326 618.6988Q312.59326 619.0894 312.89014 619.3472Q313.187 619.60504 313.7495 619.60504Q314.312 619.60504 314.7417 619.35504Q315.1714 619.10504 315.39014 618.68317Q315.53076 618.35504 315.53076 617.7144L315.53076 617.37067ZM317.437 618.5269L318.39014 618.37067Q318.46826 618.9488 318.83545 619.2535Q319.20264 619.55817 319.8589 619.55817Q320.53076 619.55817 320.85107 619.29254Q321.1714 619.0269 321.1714 618.6519Q321.1714 618.3238 320.89014 618.1363Q320.687 618.0113 319.90576 617.80817Q318.84326 617.54254 318.4292 617.3472Q318.01514 617.1519 317.8042 616.80817Q317.59326 616.4644 317.59326 616.04254Q317.59326 615.6519 317.76514 615.3316Q317.937 615.0113 318.2495 614.79254Q318.46826 614.62067 318.8589 614.5113Q319.2495 614.4019 319.687 614.4019Q320.3589 614.4019 320.8667 614.5894Q321.3745 614.7769 321.6167 615.11285Q321.8589 615.4488 321.95264 615.99567L321.01514 616.12067Q320.937 615.68317 320.63232 615.441Q320.32764 615.1988 319.76514 615.1988Q319.09326 615.1988 318.812 615.41754Q318.53076 615.6363 318.53076 615.93317Q318.53076 616.12067 318.64014 616.2613Q318.76514 616.41754 319.01514 616.5269Q319.15576 616.5738 319.8745 616.7769Q320.89014 617.04254 321.2964 617.2144Q321.70264 617.3863 321.937 617.7222Q322.1714 618.05817 322.1714 618.55817Q322.1714 619.04254 321.89014 619.4644Q321.6089 619.8863 321.07764 620.12067Q320.5464 620.35504 319.8745 620.35504Q318.76514 620.35504 318.1792 619.8941Q317.59326 619.43317 317.437 618.5269ZM323.14014 620.23004L323.14014 612.35504L324.1089 612.35504L324.1089 615.18317Q324.7964 614.4019 325.82764 614.4019Q326.45264 614.4019 326.9214 614.6519Q327.39014 614.9019 327.59326 615.3394Q327.7964 615.7769 327.7964 616.62067L327.7964 620.23004L326.82764 620.23004L326.82764 616.62067Q326.82764 615.8863 326.51514 615.55817Q326.20264 615.23004 325.6245 615.23004Q325.187 615.23004 324.812 615.4488Q324.437 615.66754 324.27295 616.05035Q324.1089 616.43317 324.1089 617.10504L324.1089 620.23004L323.14014 620.23004ZM334.15576 619.37067L334.28076 620.2144Q333.8745 620.30817 333.562 620.30817Q333.03076 620.30817 332.7417 620.1363Q332.45264 619.9644 332.33545 619.6988Q332.21826 619.43317 332.21826 618.55817L332.21826 615.2769L331.4995 615.2769L331.4995 614.5269L332.21826 614.5269L332.21826 613.12067L333.1714 612.5269L333.1714 614.5269L334.15576 614.5269L334.15576 615.2769L333.1714 615.2769L333.1714 618.62067Q333.1714 619.0269 333.22607 619.1441Q333.28076 619.2613 333.39795 619.3316Q333.51514 619.4019 333.71826 619.4019Q333.89014 619.4019 334.15576 619.37067ZM334.9839 620.23004L334.9839 612.35504L335.95264 612.35504L335.95264 615.18317Q336.64014 614.4019 337.6714 614.4019Q338.2964 614.4019 338.76514 614.6519Q339.2339 614.9019 339.437 615.3394Q339.64014 615.7769 339.64014 616.62067L339.64014 620.23004L338.6714 620.23004L338.6714 616.62067Q338.6714 615.8863 338.3589 615.55817Q338.0464 615.23004 337.46826 615.23004Q337.03076 615.23004 336.65576 615.4488Q336.28076 615.66754 336.1167 616.05035Q335.95264 616.43317 335.95264 617.10504L335.95264 620.23004L334.9839 620.23004ZM344.82764 618.3863L345.82764 618.5113Q345.59326 619.3863 344.95264 619.87067Q344.312 620.35504 343.32764 620.35504Q342.07764 620.35504 341.34326 619.5894Q340.6089 618.8238 340.6089 617.43317Q340.6089 615.98004 341.35107 615.191Q342.09326 614.4019 343.26514 614.4019Q344.4214 614.4019 345.14014 615.17535Q345.8589 615.9488 345.8589 617.37067Q345.8589 617.4488 345.8589 617.62067L341.6089 617.62067Q341.65576 618.55817 342.13232 619.05817Q342.6089 619.55817 343.32764 619.55817Q343.8589 619.55817 344.2339 619.2847Q344.6089 619.0113 344.82764 618.3863ZM341.65576 616.8238L344.84326 616.8238Q344.78076 616.10504 344.4839 615.74567Q344.01514 615.1988 343.28076 615.1988Q342.6089 615.1988 342.15576 615.6441Q341.70264 616.0894 341.65576 616.8238ZM349.82764 613.4644L349.82764 612.35504L350.7964 612.35504L350.7964 613.4644L349.82764 613.4644ZM349.82764 620.23004L349.82764 614.5269L350.7964 614.5269L350.7964 620.23004L349.82764 620.23004ZM352.1714 620.23004L352.1714 614.5269L353.0464 614.5269L353.0464 615.3394Q353.6714 614.4019 354.8589 614.4019Q355.3745 614.4019 355.812 614.5816Q356.2495 614.7613 356.46045 615.066Q356.6714 615.37067 356.76514 615.7769Q356.812 616.05817 356.812 616.73004L356.812 620.23004L355.84326 620.23004L355.84326 616.7613Q355.84326 616.16754 355.7339 615.8785Q355.6245 615.5894 355.33545 615.4097Q355.0464 615.23004 354.65576 615.23004Q354.0464 615.23004 353.59326 615.62067Q353.14014 616.0113 353.14014 617.12067L353.14014 620.23004L352.1714 620.23004ZM358.09326 622.41754L358.09326 614.5269L358.9839 614.5269L358.9839 615.2613Q359.2964 614.8394 359.687 614.62067Q360.07764 614.4019 360.64014 614.4019Q361.3589 614.4019 361.9214 614.7769Q362.4839 615.1519 362.76514 615.8316Q363.0464 616.5113 363.0464 617.3394Q363.0464 618.2144 362.7339 618.9097Q362.4214 619.60504 361.81982 619.98004Q361.21826 620.35504 360.562 620.35504Q360.07764 620.35504 359.69482 620.1519Q359.312 619.9488 359.062 619.6363L359.062 622.41754L358.09326 622.41754ZM358.96826 617.41754Q358.96826 618.5113 359.4214 619.0347Q359.8745 619.55817 360.4995 619.55817Q361.14014 619.55817 361.60107 619.0191Q362.062 618.48004 362.062 617.3238Q362.062 616.24567 361.6167 615.6988Q361.1714 615.1519 360.5464 615.1519Q359.9214 615.1519 359.44482 615.73004Q358.96826 616.30817 358.96826 617.41754ZM367.78076 620.23004L367.78076 619.3863Q367.1089 620.35504 365.96826 620.35504Q365.46826 620.35504 365.02295 620.1597Q364.57764 619.9644 364.3667 619.67535Q364.15576 619.3863 364.07764 618.9644Q364.01514 618.68317 364.01514 618.05817L364.01514 614.5269L364.9839 614.5269L364.9839 617.68317Q364.9839 618.4488 365.0464 618.7144Q365.14014 619.0894 365.4292 619.30817Q365.71826 619.5269 366.15576 619.5269Q366.59326 619.5269 366.97607 619.30035Q367.3589 619.0738 367.51514 618.691Q367.6714 618.30817 367.6714 617.5894L367.6714 614.5269L368.64014 614.5269L368.64014 620.23004L367.78076 620.23004ZM372.07764 619.37067L372.20264 620.2144Q371.7964 620.30817 371.4839 620.30817Q370.95264 620.30817 370.66357 620.1363Q370.3745 619.9644 370.25732 619.6988Q370.14014 619.43317 370.14014 618.55817L370.14014 615.2769L369.4214 615.2769L369.4214 614.5269L370.14014 614.5269L370.14014 613.12067L371.09326 612.5269L371.09326 614.5269L372.07764 614.5269L372.07764 615.2769L371.09326 615.2769L371.09326 618.62067Q371.09326 619.0269 371.14795 619.1441Q371.20264 619.2613 371.31982 619.3316Q371.437 619.4019 371.64014 619.4019Q371.812 619.4019 372.07764 619.37067Z" fill-rule="nonzero" fill="#000000"></path><path d="M583.38055 512.4019L599.3436 512.4019L599.3436 522.54047L583.38055 522.54047Z" fill-rule="nonzero" fill="#bf9000" stroke="#073763" stroke-width="2.0" stroke-linejoin="round" stroke-linecap="butt"></path><path d="M590.2458 515.9972L590.2458 515.9972C590.2458 515.28015 590.82404 514.69885 591.53735 514.69885L591.53735 514.69885C591.87994 514.69885 592.20844 514.83563 592.4507 515.07916C592.6929 515.32263 592.829 515.6529 592.829 515.9972L592.829 515.9972C592.829 516.71423 592.2507 517.29553 591.53735 517.29553L591.53735 517.29553C590.82404 517.29553 590.2458 516.71423 590.2458 515.9972Z" fill-rule="nonzero" fill="#000000" stroke="#000000" stroke-width="2.0" stroke-linejoin="round" stroke-linecap="butt"></path><path d="M590.45294 519.9486L591.4799 515.23145L592.50684 519.9486Z" fill-rule="nonzero" fill="#000000" stroke="#000000" stroke-width="2.0" stroke-linejoin="round" stroke-linecap="butt"></path><path d="M584.57 512.3803L584.57 512.3803C584.57 507.20758 587.5908 503.01425 591.3172 503.01425C595.0436 503.01425 598.06445 507.20758 598.06445 512.3803L594.6908 512.3803C594.6908 509.07077 593.1804 506.38788 591.3172 506.38788C589.45404 506.38788 587.9436 509.07077 587.9436 512.3803Z" fill-rule="nonzero" fill="#bf9000" stroke="#073763" stroke-width="2.0" stroke-linejoin="round" stroke-linecap="butt"></path><path d="M434.11737 365.49667L434.11737 356.18417L435.33612 356.18417L435.33612 365.49667L434.11737 365.49667ZM440.258 365.49667L436.66425 356.18417L437.99237 356.18417L440.41425 362.9498Q440.6955 363.7623 440.89862 364.48105Q441.11737 363.71542 441.39862 362.9498L443.91425 356.18417L445.16425 356.18417L441.52362 365.49667L440.258 365.49667Z" fill-rule="nonzero" fill="#000000"></path><path d="M391.67664 526.0767L391.67664 516.7642L394.87976 516.7642Q395.9735 516.7642 396.536 516.90485Q397.3485 517.09235 397.911 517.5767Q398.6454 518.1861 399.01257 519.15485Q399.37976 520.1236 399.37976 521.3736Q399.37976 522.4361 399.12976 523.2564Q398.87976 524.0767 398.48914 524.608Q398.0985 525.1392 397.63757 525.4517Q397.17664 525.7642 396.5282 525.9205Q395.87976 526.0767 395.036 526.0767L391.67664 526.0767ZM392.911 524.983L394.8954 524.983Q395.81726 524.983 396.3407 524.8111Q396.86414 524.6392 397.17664 524.3267Q397.61414 523.8892 397.85632 523.14703Q398.0985 522.40485 398.0985 521.358Q398.0985 519.8892 397.62195 519.108Q397.1454 518.3267 396.4579 518.0611Q395.9579 517.8736 394.86414 517.8736L392.911 517.8736L392.911 524.983ZM401.161 518.09235L401.161 516.7642L402.30164 516.7642L402.30164 518.09235L401.161 518.09235ZM401.161 526.0767L401.161 519.34235L402.30164 519.34235L402.30164 526.0767L401.161 526.0767ZM403.911 526.6392L405.036 526.7955Q405.0985 527.3111 405.411 527.5455Q405.8485 527.8736 406.5829 527.8736Q407.36414 527.8736 407.80164 527.5533Q408.23914 527.233 408.37976 526.65485Q408.4735 526.3111 408.4735 525.2017Q407.7235 526.0767 406.5985 526.0767Q405.2079 526.0767 404.45007 525.0767Q403.69226 524.0767 403.69226 522.6705Q403.69226 521.7017 404.04382 520.8892Q404.3954 520.0767 405.05164 519.6314Q405.7079 519.1861 406.61414 519.1861Q407.80164 519.1861 408.5829 520.15485L408.5829 519.34235L409.62976 519.34235L409.62976 525.15485Q409.62976 526.733 409.30945 527.3892Q408.98914 528.0455 408.29382 528.4283Q407.5985 528.8111 406.5829 528.8111Q405.37976 528.8111 404.63757 528.27203Q403.8954 527.733 403.911 526.6392ZM404.86414 522.59235Q404.86414 523.90485 405.38757 524.5142Q405.911 525.1236 406.7079 525.1236Q407.50476 525.1236 408.036 524.52203Q408.56726 523.9205 408.56726 522.6236Q408.56726 521.3892 408.0204 520.7564Q407.4735 520.1236 406.69226 520.1236Q405.92664 520.1236 405.3954 520.7486Q404.86414 521.3736 404.86414 522.59235ZM416.1454 523.90485L417.3329 524.0455Q417.05164 525.09235 416.29382 525.66266Q415.536 526.233 414.36414 526.233Q412.87976 526.233 412.01257 525.3189Q411.1454 524.40485 411.1454 522.7642Q411.1454 521.0611 412.0282 520.1236Q412.911 519.1861 414.30164 519.1861Q415.661 519.1861 416.51257 520.108Q417.36414 521.02985 417.36414 522.6861Q417.36414 522.7955 417.36414 522.9986L412.3329 522.9986Q412.3954 524.108 412.9579 524.7017Q413.5204 525.2955 414.36414 525.2955Q415.00476 525.2955 415.45007 524.95953Q415.8954 524.6236 416.1454 523.90485ZM412.3954 522.0611L416.161 522.0611Q416.0829 521.2017 415.7235 520.77985Q415.17664 520.1236 414.31726 520.1236Q413.5204 520.1236 412.98914 520.64703Q412.4579 521.1705 412.3954 522.0611ZM418.50476 524.0611L419.62976 523.8892Q419.7235 524.5611 420.161 524.9283Q420.5985 525.2955 421.37976 525.2955Q422.161 525.2955 422.54382 524.97516Q422.92664 524.65485 422.92664 524.21735Q422.92664 523.8267 422.5829 523.608Q422.3485 523.4517 421.411 523.21735Q420.161 522.90485 419.67664 522.6705Q419.19226 522.4361 418.94226 522.02985Q418.69226 521.6236 418.69226 521.1236Q418.69226 520.6705 418.8954 520.28766Q419.0985 519.90485 419.4579 519.65485Q419.7235 519.4517 420.18445 519.3189Q420.6454 519.1861 421.17664 519.1861Q421.9579 519.1861 422.55945 519.41266Q423.161 519.6392 423.45007 520.02985Q423.73914 520.4205 423.8485 521.0767L422.7235 521.233Q422.6454 520.7017 422.286 520.41266Q421.92664 520.1236 421.25476 520.1236Q420.4735 520.1236 420.12976 520.3814Q419.786 520.6392 419.786 520.9986Q419.786 521.21735 419.92664 521.3892Q420.06726 521.5767 420.36414 521.7017Q420.536 521.7642 421.37976 521.983Q422.5985 522.3111 423.07507 522.5142Q423.55164 522.71735 423.82507 523.1158Q424.0985 523.5142 424.0985 524.09235Q424.0985 524.6705 423.76257 525.1705Q423.42664 525.6705 422.80164 525.9517Q422.17664 526.233 421.37976 526.233Q420.06726 526.233 419.37976 525.6861Q418.69226 525.1392 418.50476 524.0611ZM428.11414 525.0611L428.2704 526.0611Q427.786 526.1705 427.411 526.1705Q426.786 526.1705 426.44226 525.96735Q426.0985 525.7642 425.9579 525.4439Q425.81726 525.1236 425.81726 524.108L425.81726 520.21735L424.98914 520.21735L424.98914 519.34235L425.81726 519.34235L425.81726 517.6705L426.9579 516.983L426.9579 519.34235L428.11414 519.34235L428.11414 520.21735L426.9579 520.21735L426.9579 524.1705Q426.9579 524.65485 427.0204 524.7955Q427.0829 524.9361 427.2157 525.0142Q427.3485 525.09235 427.5985 525.09235Q427.80164 525.09235 428.11414 525.0611Z" fill-rule="nonzero" fill="#000000"></path><path d="M435.71973 465.9119L523.56226 465.9119L523.56226 503.01425L435.71973 503.01425Z" fill-rule="nonzero" fill="#cfe2f3" stroke="#073763" stroke-width="2.0" stroke-linejoin="round" stroke-linecap="butt"></path><path d="M455.75098 480.64627L459.18848 480.64627Q460.34473 480.64627 460.9541 480.83377Q461.78223 481.06815 462.36035 481.68533Q462.93848 482.30252 463.24316 483.19315Q463.54785 484.08377 463.54785 485.39627Q463.54785 486.5369 463.2666 487.38065Q462.92285 488.39627 462.2666 489.02127Q461.78223 489.49002 460.9541 489.75565Q460.3291 489.95877 459.28223 489.95877L455.75098 489.95877L455.75098 480.64627ZM457.62598 482.2244L457.62598 488.39627L459.03223 488.39627Q459.8291 488.39627 460.17285 488.30252Q460.62598 488.19315 460.93066 487.9197Q461.23535 487.64627 461.42285 487.02127Q461.61035 486.39627 461.61035 485.31815Q461.61035 484.24002 461.42285 483.6619Q461.23535 483.08377 460.8916 482.75565Q460.54785 482.42752 460.0166 482.31815Q459.62598 482.2244 458.46973 482.2244L457.62598 482.2244ZM469.28223 487.81815L471.04785 488.11502Q470.7041 489.08377 469.96973 489.5994Q469.23535 490.11502 468.12598 490.11502Q466.36035 490.11502 465.5166 488.95877Q464.84473 488.0369 464.84473 486.64627Q464.84473 484.95877 465.72754 484.01346Q466.61035 483.06815 467.93848 483.06815Q469.4541 483.06815 470.3213 484.06033Q471.18848 485.05252 471.1416 487.0994L466.67285 487.0994Q466.7041 487.89627 467.11035 488.33377Q467.5166 488.77127 468.1416 488.77127Q468.56348 488.77127 468.84473 488.5447Q469.12598 488.31815 469.28223 487.81815ZM469.37598 486.00565Q469.36035 485.24002 468.97754 484.83377Q468.59473 484.42752 468.04785 484.42752Q467.46973 484.42752 467.0791 484.8494Q466.7041 485.2869 466.7041 486.00565L469.37598 486.00565ZM478.67285 485.20877L476.90723 485.52127Q476.8291 485.00565 476.5088 484.74002Q476.18848 484.4744 475.68848 484.4744Q475.03223 484.4744 474.6338 484.92752Q474.23535 485.38065 474.23535 486.4744Q474.23535 487.6619 474.6416 488.1619Q475.04785 488.6619 475.71973 488.6619Q476.23535 488.6619 476.55566 488.37283Q476.87598 488.08377 477.00098 487.38065L478.7666 487.67752Q478.48535 488.88065 477.7119 489.49783Q476.93848 490.11502 475.6416 490.11502Q474.15723 490.11502 473.28223 489.17752Q472.40723 488.24002 472.40723 486.5994Q472.40723 484.92752 473.28223 483.99783Q474.15723 483.06815 475.67285 483.06815Q476.90723 483.06815 477.6338 483.5994Q478.36035 484.13065 478.67285 485.20877ZM481.90723 489.95877L480.12598 489.95877L480.12598 483.2244L481.78223 483.2244L481.78223 484.17752Q482.2041 483.49002 482.54785 483.27908Q482.8916 483.06815 483.31348 483.06815Q483.92285 483.06815 484.48535 483.39627L483.93848 484.95877Q483.48535 484.6619 483.09473 484.6619Q482.71973 484.6619 482.4619 484.87283Q482.2041 485.08377 482.05566 485.62283Q481.90723 486.1619 481.90723 487.88065L481.90723 489.95877ZM484.54785 483.2244L486.43848 483.2244L488.04785 488.00565L489.62598 483.2244L491.46973 483.2244L489.09473 489.70877L488.67285 490.88065Q488.43848 491.4744 488.22754 491.7869Q488.0166 492.0994 487.73535 492.2869Q487.4541 492.4744 487.05566 492.58377Q486.65723 492.69315 486.1416 492.69315Q485.62598 492.69315 485.12598 492.58377L484.96973 491.19315Q485.3916 491.27127 485.73535 491.27127Q486.34473 491.27127 486.6494 490.90408Q486.9541 490.5369 487.11035 489.9744L484.54785 483.2244ZM492.73535 483.2244L494.40723 483.2244L494.40723 484.20877Q494.73535 483.69315 495.28223 483.38065Q495.8291 483.06815 496.50098 483.06815Q497.68848 483.06815 498.50098 483.99002Q499.31348 484.9119 499.31348 486.55252Q499.31348 488.24002 498.49316 489.17752Q497.67285 490.11502 496.50098 490.11502Q495.93848 490.11502 495.48535 489.88846Q495.03223 489.6619 494.53223 489.13065L494.53223 492.52127L492.73535 492.52127L492.73535 483.2244ZM494.50098 486.4744Q494.50098 487.61502 494.9541 488.15408Q495.40723 488.69315 496.06348 488.69315Q496.67285 488.69315 497.0869 488.19315Q497.50098 487.69315 497.50098 486.56815Q497.50098 485.50565 497.0791 484.99002Q496.65723 484.4744 496.03223 484.4744Q495.37598 484.4744 494.93848 484.9822Q494.50098 485.49002 494.50098 486.4744ZM504.04785 483.2244L504.04785 484.64627L502.8291 484.64627L502.8291 487.3494Q502.8291 488.17752 502.86035 488.31815Q502.8916 488.45877 503.0166 488.5447Q503.1416 488.63065 503.31348 488.63065Q503.56348 488.63065 504.03223 488.45877L504.18848 489.8494Q503.56348 490.11502 502.78223 490.11502Q502.29785 490.11502 501.90723 489.95096Q501.5166 489.7869 501.3369 489.52908Q501.15723 489.27127 501.09473 488.83377Q501.03223 488.52127 501.03223 487.58377L501.03223 484.64627L500.21973 484.64627L500.21973 483.2244L501.03223 483.2244L501.03223 481.88065L502.8291 480.83377L502.8291 483.2244L504.04785 483.2244Z" fill-rule="nonzero" fill="#000000"></path><path d="M441.16516 477.9311L444.1964 470.0561L445.3058 470.0561L448.54016 477.9311L447.35266 477.9311L446.4308 475.54047L443.1339 475.54047L442.27454 477.9311L441.16516 477.9311ZM443.4308 474.69672L446.10266 474.69672L445.29016 472.50922Q444.91516 471.52484 444.72766 470.88422Q444.5714 471.63422 444.3058 472.38422L443.4308 474.69672ZM449.16516 477.9311L449.16516 470.0561L454.85266 470.0561L454.85266 470.9936L450.1964 470.9936L450.1964 473.39984L454.5558 473.39984L454.5558 474.32172L450.1964 474.32172L450.1964 477.00922L455.04016 477.00922L455.04016 477.9311L449.16516 477.9311ZM455.8839 475.39984L456.8683 475.32172Q456.9308 475.89984 457.1886 476.28265Q457.4464 476.66547 457.97766 476.89984Q458.5089 477.13422 459.1808 477.13422Q459.79016 477.13422 460.2433 476.95453Q460.6964 476.77484 460.92297 476.47015Q461.14954 476.16547 461.14954 475.79047Q461.14954 475.41547 460.9308 475.14203Q460.71204 474.8686 460.21204 474.6811Q459.89954 474.5561 458.8136 474.29828Q457.72766 474.04047 457.29016 473.8061Q456.72766 473.50922 456.45422 473.07172Q456.1808 472.63422 456.1808 472.08734Q456.1808 471.4936 456.51672 470.97797Q456.85266 470.46234 457.5011 470.1889Q458.14954 469.91547 458.9464 469.91547Q459.8214 469.91547 460.4933 470.20453Q461.16516 470.4936 461.52454 471.04047Q461.8839 471.58734 461.91516 472.27484L460.91516 472.35297Q460.83704 471.60297 460.3683 471.22015Q459.89954 470.83734 458.9933 470.83734Q458.0558 470.83734 457.6183 471.1889Q457.1808 471.54047 457.1808 472.02484Q457.1808 472.44672 457.4933 472.72797Q457.79016 472.9936 459.0636 473.28265Q460.33704 473.57172 460.8058 473.79047Q461.4933 474.10297 461.8214 474.58734Q462.14954 475.07172 462.14954 475.71234Q462.14954 476.33734 461.79016 476.89203Q461.4308 477.44672 460.7511 477.75922Q460.0714 478.07172 459.22766 478.07172Q458.16516 478.07172 457.4464 477.75922Q456.72766 477.44672 456.3136 476.82172Q455.89954 476.19672 455.8839 475.39984Z" fill-rule="nonzero" fill="#ff0000"></path></svg>

