<?xml version="1.0" standalone="yes"?>

<svg version="1.1" viewBox="0.0 0.0 960.0 720.0" fill="none" stroke="none" stroke-linecap="square" stroke-miterlimit="10" xmlns="http://www.w3.org/2000/svg" xmlns:xlink="http://www.w3.org/1999/xlink"><path d="M557.6003 225.85573L718.5685 225.85573L718.5685 585.93964C638.08435 585.93964 638.08435 723.13824 557.6003 645.1845Z" fill-rule="nonzero" fill="#d9d2e9" stroke="#073763" stroke-width="2.0" stroke-linejoin="round" stroke-linecap="butt"></path><path d="M568.4284 249.44948L568.4284 238.7151L575.6628 238.7151L575.6628 239.98073L569.8503 239.98073L569.8503 243.30885L574.88153 243.30885L574.88153 244.57448L569.8503 244.57448L569.8503 249.44948L568.4284 249.44948ZM577.14716 240.23073L577.14716 238.7151L578.45966 238.7151L578.45966 240.23073L577.14716 240.23073ZM577.14716 249.44948L577.14716 241.66823L578.45966 241.66823L578.45966 249.44948L577.14716 249.44948ZM580.3503 249.44948L580.3503 238.7151L581.6784 238.7151L581.6784 249.44948L580.3503 249.44948ZM588.9753 246.94948L590.33466 247.10573Q590.02216 248.30885 589.14716 248.9651Q588.27216 249.62135 586.9128 249.62135Q585.20966 249.62135 584.20966 248.57448Q583.20966 247.5276 583.20966 245.62135Q583.20966 243.66823 584.2253 242.58229Q585.2409 241.49635 586.8503 241.49635Q588.4128 241.49635 589.39716 242.55885Q590.38153 243.62135 590.38153 245.54323Q590.38153 245.66823 590.38153 245.9026L584.56903 245.9026Q584.64716 247.18385 585.2956 247.86354Q585.94403 248.54323 586.9284 248.54323Q587.64716 248.54323 588.1628 248.16042Q588.6784 247.7776 588.9753 246.94948ZM584.64716 244.80885L588.9909 244.80885Q588.89716 243.82448 588.4909 243.3401Q587.8659 242.57448 586.8659 242.57448Q585.94403 242.57448 585.32684 243.18385Q584.70966 243.79323 584.64716 244.80885Z" fill-rule="nonzero" fill="#000000"></path><path d="M578.00604 259.3681L699.2344 259.3681L699.2344 373.44684L578.00604 373.44684Z" fill-rule="nonzero" fill="#ffffff" stroke="#073763" stroke-width="2.0" stroke-linejoin="round" stroke-linecap="butt"></path><path d="M578.19617 443.94812L699.14105 443.94812L699.14105 526.5308L578.19617 526.5308Z" fill-rule="nonzero" fill="#f4cccc" stroke="#073763" stroke-width="2.0" stroke-linejoin="round" stroke-linecap="butt"></path><path d="M609.6696 518.3071C643.16437 526.1749 643.16437 510.43933 676.6555 510.43933L676.6555 469.54095L609.6696 469.54095ZM615.1884 469.54095L615.1884 464.23874L681.71686 464.23874L681.71686 505.39365C679.188 505.39365 676.6555 505.6787 676.6555 505.6787L676.6555 469.54095ZM620.37585 464.23874L620.37585 459.0648L687.48065 459.0648L687.48065 500.09143C684.59875 500.09143 681.71686 500.30524 681.71686 500.30524L681.71686 464.23874Z" fill-rule="nonzero" fill="#cfe2f3"></path><path d="M609.6696 469.54095L676.6555 469.54095L676.6555 510.43933C643.16437 510.43933 643.16437 526.1749 609.6696 518.3071ZM615.1884 469.54095L615.1884 464.23874L681.71686 464.23874L681.71686 505.39365C679.188 505.39365 676.6555 505.6787 676.6555 505.6787M620.37585 464.23874L620.37585 459.0648L687.48065 459.0648L687.48065 500.09143C684.59875 500.09143 681.71686 500.30524 681.71686 500.30524" fill-rule="nonzero" stroke="#073763" stroke-width="2.0" stroke-linejoin="round" stroke-linecap="butt"></path><path d="M627.45087 496.15033L628.68524 496.46283Q628.2946 497.97845 627.2868 498.77533Q626.279 499.5722 624.82587 499.5722Q623.32587 499.5722 622.38055 498.96283Q621.43524 498.35345 620.94305 497.1894Q620.45087 496.02533 620.45087 494.6972Q620.45087 493.24408 621.01337 492.15814Q621.57587 491.0722 622.5993 490.5097Q623.62274 489.9472 624.8571 489.9472Q626.24774 489.9472 627.20087 490.65814Q628.154 491.36908 628.529 492.66595L627.31024 492.9472Q626.9821 491.93158 626.37274 491.47064Q625.76337 491.0097 624.82587 491.0097Q623.74774 491.0097 623.029 491.52533Q622.31024 492.04095 622.0212 492.90033Q621.7321 493.7597 621.7321 494.68158Q621.7321 495.86908 622.07587 496.7597Q622.4196 497.65033 623.1462 498.08783Q623.87274 498.52533 624.7321 498.52533Q625.76337 498.52533 626.4821 497.92377Q627.20087 497.3222 627.45087 496.15033ZM629.87274 496.04095Q629.87274 494.16595 630.904 493.27533Q631.779 492.52533 633.029 492.52533Q634.4196 492.52533 635.3024 493.43158Q636.18524 494.33783 636.18524 495.9472Q636.18524 497.24408 635.7946 497.99408Q635.404 498.74408 634.654 499.15814Q633.904 499.5722 633.029 499.5722Q631.6071 499.5722 630.7399 498.66595Q629.87274 497.7597 629.87274 496.04095ZM631.0446 496.04095Q631.0446 497.33783 631.6071 497.98627Q632.1696 498.6347 633.029 498.6347Q633.87274 498.6347 634.44305 497.98627Q635.01337 497.33783 635.01337 496.0097Q635.01337 494.7597 634.44305 494.11127Q633.87274 493.46283 633.029 493.46283Q632.1696 493.46283 631.6071 494.10345Q631.0446 494.74408 631.0446 496.04095ZM637.7165 499.41595L637.7165 492.68158L638.74774 492.68158L638.74774 493.6347Q639.4821 492.52533 640.88837 492.52533Q641.49774 492.52533 642.00555 492.74408Q642.51337 492.96283 642.7712 493.3144Q643.029 493.66595 643.12274 494.16595Q643.18524 494.47845 643.18524 495.27533L643.18524 499.41595L642.0446 499.41595L642.0446 495.3222Q642.0446 494.61908 641.9118 494.27533Q641.779 493.93158 641.44305 493.72064Q641.1071 493.5097 640.654 493.5097Q639.9196 493.5097 639.38837 493.97064Q638.8571 494.43158 638.8571 495.72845L638.8571 499.41595L637.7165 499.41595ZM647.62274 498.40033L647.779 499.40033Q647.2946 499.5097 646.9196 499.5097Q646.2946 499.5097 645.95087 499.30658Q645.6071 499.10345 645.4665 498.78314Q645.32587 498.46283 645.32587 497.4472L645.32587 493.55658L644.49774 493.55658L644.49774 492.68158L645.32587 492.68158L645.32587 491.0097L646.4665 490.3222L646.4665 492.68158L647.62274 492.68158L647.62274 493.55658L646.4665 493.55658L646.4665 497.5097Q646.4665 497.99408 646.529 498.1347Q646.5915 498.27533 646.7243 498.35345Q646.8571 498.43158 647.1071 498.43158Q647.31024 498.43158 647.62274 498.40033ZM653.43524 497.24408L654.62274 497.3847Q654.3415 498.43158 653.5837 499.0019Q652.82587 499.5722 651.654 499.5722Q650.1696 499.5722 649.3024 498.65814Q648.43524 497.74408 648.43524 496.10345Q648.43524 494.40033 649.31805 493.46283Q650.20087 492.52533 651.5915 492.52533Q652.95087 492.52533 653.8024 493.4472Q654.654 494.36908 654.654 496.02533Q654.654 496.1347 654.654 496.33783L649.62274 496.33783Q649.68524 497.4472 650.24774 498.04095Q650.81024 498.6347 651.654 498.6347Q652.2946 498.6347 652.7399 498.29877Q653.18524 497.96283 653.43524 497.24408ZM649.68524 495.40033L653.45087 495.40033Q653.37274 494.54095 653.01337 494.11908Q652.4665 493.46283 651.6071 493.46283Q650.81024 493.46283 650.279 493.98627Q649.74774 494.5097 649.68524 495.40033ZM656.2321 499.41595L656.2321 492.68158L657.26337 492.68158L657.26337 493.6347Q657.99774 492.52533 659.404 492.52533Q660.01337 492.52533 660.5212 492.74408Q661.029 492.96283 661.2868 493.3144Q661.5446 493.66595 661.63837 494.16595Q661.70087 494.47845 661.70087 495.27533L661.70087 499.41595L660.56024 499.41595L660.56024 495.3222Q660.56024 494.61908 660.4274 494.27533Q660.2946 493.93158 659.9587 493.72064Q659.62274 493.5097 659.1696 493.5097Q658.43524 493.5097 657.904 493.97064Q657.37274 494.43158 657.37274 495.72845L657.37274 499.41595L656.2321 499.41595ZM666.154 498.40033L666.31024 499.40033Q665.82587 499.5097 665.45087 499.5097Q664.82587 499.5097 664.4821 499.30658Q664.13837 499.10345 663.99774 498.78314Q663.8571 498.46283 663.8571 497.4472L663.8571 493.55658L663.029 493.55658L663.029 492.68158L663.8571 492.68158L663.8571 491.0097L664.99774 490.3222L664.99774 492.68158L666.154 492.68158L666.154 493.55658L664.99774 493.55658L664.99774 497.5097Q664.99774 497.99408 665.06024 498.1347Q665.12274 498.27533 665.25555 498.35345Q665.38837 498.43158 665.63837 498.43158Q665.8415 498.43158 666.154 498.40033Z" fill-rule="nonzero" fill="#000000"></path><path d="M583.22705 460.49304L586.8052 451.18054L588.1177 451.18054L591.9302 460.49304L590.5239 460.49304L589.4458 457.68054L585.5552 457.68054L584.5239 460.49304L583.22705 460.49304ZM585.91455 456.66492L589.0708 456.66492L588.0864 454.0868Q587.6489 452.91492 587.4302 452.16492Q587.2583 453.05554 586.9302 453.94617L585.91455 456.66492ZM593.16455 460.49304L593.16455 451.18054L599.8833 451.18054L599.8833 452.28992L594.3989 452.28992L594.3989 455.13367L599.53955 455.13367L599.53955 456.22742L594.3989 456.22742L594.3989 459.3993L600.10205 459.3993L600.10205 460.49304L593.16455 460.49304ZM601.60205 457.50867L602.7739 457.3993Q602.85205 458.10242 603.15674 458.54773Q603.4614 458.99304 604.09424 459.26648Q604.72705 459.53992 605.5239 459.53992Q606.22705 459.53992 606.7661 459.3368Q607.3052 459.13367 607.5708 458.76648Q607.8364 458.3993 607.8364 457.9618Q607.8364 457.5243 607.5786 457.19617Q607.3208 456.86804 606.7427 456.6493Q606.3677 456.50867 605.0864 456.19617Q603.8052 455.88367 603.28955 455.61804Q602.6177 455.2743 602.28955 454.75085Q601.9614 454.22742 601.9614 453.5868Q601.9614 452.88367 602.35986 452.2743Q602.7583 451.66492 603.53174 451.3446Q604.3052 451.0243 605.2427 451.0243Q606.2739 451.0243 607.063 451.36023Q607.85205 451.69617 608.28174 452.3446Q608.7114 452.99304 608.7427 453.80554L607.5552 453.8993Q607.4614 453.00867 606.91455 452.56335Q606.3677 452.11804 605.28955 452.11804Q604.1802 452.11804 603.66455 452.5243Q603.1489 452.93054 603.1489 453.50867Q603.1489 454.00867 603.5083 454.3368Q603.8677 454.66492 605.3677 455.00085Q606.8677 455.3368 607.4302 455.5868Q608.2427 455.9618 608.6255 456.53992Q609.0083 457.11804 609.0083 457.86804Q609.0083 458.60242 608.5864 459.25867Q608.16455 459.91492 607.3677 460.2821Q606.5708 460.6493 605.5708 460.6493Q604.3052 460.6493 603.4536 460.2821Q602.60205 459.91492 602.1177 459.17273Q601.6333 458.43054 601.60205 457.50867Z" fill-rule="nonzero" fill="#ff0000"></path><path d="M578.29034 526.5915L699.20374 526.5915L699.20374 583.75684L578.29034 583.75684Z" fill-rule="nonzero" fill="#f4cccc" stroke="#073763" stroke-width="2.0" stroke-linejoin="round" stroke-linecap="butt"></path><path d="M585.2862 540.2291L588.8643 530.9166L590.1768 530.9166L593.9893 540.2291L592.58307 540.2291L591.50494 537.4166L587.6143 537.4166L586.58307 540.2291L585.2862 540.2291ZM587.9737 536.401L591.12994 536.401L590.14557 533.8229Q589.70807 532.651 589.4893 531.901Q589.31744 532.7916 588.9893 533.68225L587.9737 536.401ZM595.2237 540.2291L595.2237 530.9166L601.94244 530.9166L601.94244 532.026L596.45807 532.026L596.45807 534.86975L601.5987 534.86975L601.5987 535.9635L596.45807 535.9635L596.45807 539.1354L602.1612 539.1354L602.1612 540.2291L595.2237 540.2291ZM603.6612 537.24475L604.83307 537.1354Q604.9112 537.8385 605.2159 538.2838Q605.52057 538.7291 606.1534 539.00256Q606.7862 539.276 607.58307 539.276Q608.2862 539.276 608.82526 539.0729Q609.3643 538.86975 609.62994 538.50256Q609.89557 538.1354 609.89557 537.6979Q609.89557 537.2604 609.63776 536.93225Q609.37994 536.6041 608.8018 536.3854Q608.4268 536.24475 607.14557 535.93225Q605.8643 535.61975 605.3487 535.3541Q604.6768 535.0104 604.3487 534.48694Q604.02057 533.9635 604.02057 533.3229Q604.02057 532.61975 604.419 532.0104Q604.81744 531.401 605.5909 531.0807Q606.3643 530.7604 607.3018 530.7604Q608.33307 530.7604 609.12213 531.0963Q609.9112 531.43225 610.3409 532.0807Q610.77057 532.7291 610.8018 533.5416L609.6143 533.6354Q609.52057 532.74475 608.9737 532.29944Q608.4268 531.8541 607.3487 531.8541Q606.2393 531.8541 605.7237 532.2604Q605.20807 532.6666 605.20807 533.24475Q605.20807 533.74475 605.56744 534.0729Q605.9268 534.401 607.4268 534.73694Q608.9268 535.0729 609.4893 535.3229Q610.3018 535.6979 610.68463 536.276Q611.06744 536.8541 611.06744 537.6041Q611.06744 538.3385 610.64557 538.99475Q610.2237 539.651 609.4268 540.0182Q608.62994 540.3854 607.62994 540.3854Q606.3643 540.3854 605.51276 540.0182Q604.6612 539.651 604.1768 538.9088Q603.69244 538.1666 603.6612 537.24475Z" fill-rule="nonzero" fill="#ff0000"></path><path d="M594.2274 575.95795L611.31665 547.1088L679.67377 547.1088L662.58453 575.95795Z" fill-rule="nonzero" fill="#cfe2f3" stroke="#073763" stroke-width="2.0" stroke-linejoin="round" stroke-linecap="butt"></path><path d="M622.426 567.0307L622.426 557.7182L623.6448 557.7182L623.6448 561.5463L628.4885 561.5463L628.4885 557.7182L629.7229 557.7182L629.7229 567.0307L628.4885 567.0307L628.4885 562.6401L623.6448 562.6401L623.6448 567.0307L622.426 567.0307ZM636.25415 566.2026Q635.62915 566.7338 635.0432 566.9604Q634.4573 567.18695 633.7854 567.18695Q632.6604 567.18695 632.06665 566.6401Q631.4729 566.0932 631.4729 565.24945Q631.4729 564.7651 631.69946 564.351Q631.926 563.93695 632.2932 563.68695Q632.6604 563.43695 633.1135 563.31195Q633.44165 563.2338 634.12915 563.1401Q635.50415 562.9838 636.1604 562.74945Q636.176 562.5151 636.176 562.4526Q636.176 561.74945 635.8479 561.4682Q635.4104 561.0776 634.551 561.0776Q633.7385 561.0776 633.3557 561.3588Q632.9729 561.6401 632.7854 562.3588L631.676 562.2182Q631.81665 561.49945 632.1682 561.05414Q632.5198 560.6088 633.18384 560.37445Q633.8479 560.1401 634.7073 560.1401Q635.5823 560.1401 636.12134 560.3432Q636.6604 560.5463 636.9104 560.851Q637.1604 561.1557 637.2698 561.62445Q637.31665 561.9213 637.31665 562.68695L637.31665 564.2026Q637.31665 565.7963 637.3948 566.2182Q637.4729 566.6401 637.676 567.0307L636.4885 567.0307Q636.31665 566.6713 636.25415 566.2026ZM636.1604 563.6401Q635.5354 563.9057 634.301 564.0776Q633.5979 564.18695 633.301 564.31195Q633.00415 564.43695 632.8479 564.67914Q632.69165 564.9213 632.69165 565.2182Q632.69165 565.6713 633.0354 565.976Q633.37915 566.2807 634.051 566.2807Q634.7073 566.2807 635.2229 565.99164Q635.7385 565.7026 635.9885 565.2026Q636.1604 564.8276 636.1604 564.06195L636.1604 563.6401ZM638.8323 565.0151L639.9573 564.8432Q640.051 565.5151 640.4885 565.88226Q640.926 566.24945 641.7073 566.24945Q642.4885 566.24945 642.87134 565.92914Q643.25415 565.6088 643.25415 565.1713Q643.25415 564.7807 642.9104 564.56195Q642.676 564.4057 641.7385 564.1713Q640.4885 563.8588 640.00415 563.62445Q639.5198 563.3901 639.2698 562.9838Q639.0198 562.5776 639.0198 562.0776Q639.0198 561.62445 639.2229 561.24164Q639.426 560.8588 639.7854 560.6088Q640.051 560.4057 640.51196 560.2729Q640.9729 560.1401 641.50415 560.1401Q642.2854 560.1401 642.88696 560.36664Q643.4885 560.5932 643.7776 560.9838Q644.06665 561.37445 644.176 562.0307L643.051 562.18695Q642.9729 561.6557 642.6135 561.36664Q642.25415 561.0776 641.5823 561.0776Q640.801 561.0776 640.4573 561.3354Q640.1135 561.5932 640.1135 561.9526Q640.1135 562.1713 640.25415 562.3432Q640.3948 562.5307 640.69165 562.6557Q640.8635 562.7182 641.7073 562.93695Q642.926 563.2651 643.4026 563.4682Q643.87915 563.6713 644.1526 564.06976Q644.426 564.4682 644.426 565.0463Q644.426 565.62445 644.0901 566.12445Q643.75415 566.62445 643.12915 566.9057Q642.50415 567.18695 641.7073 567.18695Q640.3948 567.18695 639.7073 566.6401Q639.0198 566.0932 638.8323 565.0151ZM645.94165 567.0307L645.94165 557.7182L647.0823 557.7182L647.0823 561.06195Q647.87915 560.1401 649.0979 560.1401Q649.8479 560.1401 650.4026 560.43695Q650.9573 560.7338 651.19165 561.24945Q651.426 561.7651 651.426 562.7651L651.426 567.0307L650.2854 567.0307L650.2854 562.7651Q650.2854 561.9057 649.9182 561.5151Q649.551 561.12445 648.8635 561.12445Q648.3635 561.12445 647.9104 561.38226Q647.4573 561.6401 647.2698 562.0932Q647.0823 562.5463 647.0823 563.3432L647.0823 567.0307L645.94165 567.0307Z" fill-rule="nonzero" fill="#000000"></path><path d="M583.4931 333.0756Q583.4931 331.2006 584.52435 330.30997Q585.39935 329.55997 586.64935 329.55997Q588.04 329.55997 588.9228 330.46622Q589.8056 331.37247 589.8056 332.98184Q589.8056 334.27872 589.415 335.02872Q589.02435 335.77872 588.27435 336.19278Q587.52435 336.60684 586.64935 336.60684Q585.2275 336.60684 584.3603 335.7006Q583.4931 334.79434 583.4931 333.0756ZM584.665 333.0756Q584.665 334.37247 585.2275 335.0209Q585.79 335.66934 586.64935 335.66934Q587.4931 335.66934 588.0634 335.0209Q588.6337 334.37247 588.6337 333.04434Q588.6337 331.79434 588.0634 331.1459Q587.4931 330.49747 586.64935 330.49747Q585.79 330.49747 585.2275 331.1381Q584.665 331.77872 584.665 333.0756ZM595.3837 336.4506L595.3837 327.1381L596.6025 327.1381L596.6025 336.4506L595.3837 336.4506ZM601.52435 336.4506L597.9306 327.1381L599.2587 327.1381L601.6806 333.90372Q601.96185 334.71622 602.165 335.43497Q602.3837 334.66934 602.665 333.90372L605.1806 327.1381L606.4306 327.1381L602.79 336.4506L601.52435 336.4506Z" fill-rule="nonzero" fill="#000000"></path><path d="M582.40497 302.9399Q582.40497 301.0649 583.4362 300.1743Q584.3112 299.4243 585.5612 299.4243Q586.95184 299.4243 587.83466 300.33054Q588.71747 301.2368 588.71747 302.84616Q588.71747 304.14304 588.32684 304.89304Q587.9362 305.64304 587.1862 306.0571Q586.4362 306.47116 585.5612 306.47116Q584.13934 306.47116 583.27216 305.5649Q582.40497 304.65866 582.40497 302.9399ZM583.57684 302.9399Q583.57684 304.2368 584.13934 304.88522Q584.70184 305.53366 585.5612 305.53366Q586.40497 305.53366 586.9753 304.88522Q587.5456 304.2368 587.5456 302.90866Q587.5456 301.65866 586.9753 301.01022Q586.40497 300.3618 585.5612 300.3618Q584.70184 300.3618 584.13934 301.0024Q583.57684 301.64304 583.57684 302.9399ZM593.65497 303.33054L594.82684 303.22116Q594.90497 303.9243 595.20966 304.3696Q595.51434 304.8149 596.14716 305.08835Q596.77997 305.3618 597.57684 305.3618Q598.27997 305.3618 598.81903 305.15866Q599.3581 304.95554 599.6237 304.58835Q599.88934 304.22116 599.88934 303.78366Q599.88934 303.34616 599.63153 303.01804Q599.3737 302.6899 598.7956 302.47116Q598.4206 302.33054 597.13934 302.01804Q595.8581 301.70554 595.34247 301.4399Q594.6706 301.09616 594.34247 300.57272Q594.01434 300.0493 594.01434 299.40866Q594.01434 298.70554 594.4128 298.09616Q594.8112 297.4868 595.58466 297.16647Q596.3581 296.84616 597.2956 296.84616Q598.32684 296.84616 599.1159 297.1821Q599.90497 297.51804 600.33466 298.16647Q600.76434 298.8149 600.7956 299.6274L599.6081 299.72116Q599.51434 298.83054 598.96747 298.38522Q598.4206 297.9399 597.34247 297.9399Q596.2331 297.9399 595.71747 298.34616Q595.20184 298.7524 595.20184 299.33054Q595.20184 299.83054 595.5612 300.15866Q595.9206 300.4868 597.4206 300.82272Q598.9206 301.15866 599.4831 301.40866Q600.2956 301.78366 600.6784 302.3618Q601.0612 302.9399 601.0612 303.6899Q601.0612 304.4243 600.63934 305.08054Q600.21747 305.7368 599.4206 306.10397Q598.6237 306.47116 597.6237 306.47116Q596.3581 306.47116 595.50653 306.10397Q594.65497 305.7368 594.1706 304.9946Q593.6862 304.2524 593.65497 303.33054ZM605.32684 305.2993L605.4831 306.2993Q604.9987 306.40866 604.6237 306.40866Q603.9987 306.40866 603.65497 306.20554Q603.3112 306.0024 603.1706 305.6821Q603.02997 305.3618 603.02997 304.34616L603.02997 300.45554L602.20184 300.45554L602.20184 299.58054L603.02997 299.58054L603.02997 297.90866L604.1706 297.22116L604.1706 299.58054L605.32684 299.58054L605.32684 300.45554L604.1706 300.45554L604.1706 304.40866Q604.1706 304.89304 604.2331 305.03366Q604.2956 305.1743 604.4284 305.2524Q604.5612 305.33054 604.8112 305.33054Q605.01434 305.33054 605.32684 305.2993ZM606.1081 302.9399Q606.1081 301.0649 607.13934 300.1743Q608.01434 299.4243 609.26434 299.4243Q610.65497 299.4243 611.5378 300.33054Q612.4206 301.2368 612.4206 302.84616Q612.4206 304.14304 612.02997 304.89304Q611.63934 305.64304 610.88934 306.0571Q610.13934 306.47116 609.26434 306.47116Q607.84247 306.47116 606.9753 305.5649Q606.1081 304.65866 606.1081 302.9399ZM607.27997 302.9399Q607.27997 304.2368 607.84247 304.88522Q608.40497 305.53366 609.26434 305.53366Q610.1081 305.53366 610.6784 304.88522Q611.2487 304.2368 611.2487 302.90866Q611.2487 301.65866 610.6784 301.01022Q610.1081 300.3618 609.26434 300.3618Q608.40497 300.3618 607.84247 301.0024Q607.27997 301.64304 607.27997 302.9399ZM613.9362 306.3149L613.9362 299.58054L614.96747 299.58054L614.96747 300.59616Q615.3581 299.8774 615.69403 299.65085Q616.02997 299.4243 616.4206 299.4243Q616.9987 299.4243 617.59247 299.78366L617.20184 300.84616Q616.77997 300.59616 616.3737 300.59616Q615.9987 300.59616 615.69403 300.82272Q615.38934 301.0493 615.26434 301.45554Q615.07684 302.0649 615.07684 302.78366L615.07684 306.3149L613.9362 306.3149ZM622.77997 305.4868Q622.15497 306.01804 621.56903 306.2446Q620.9831 306.47116 620.3112 306.47116Q619.1862 306.47116 618.59247 305.9243Q617.9987 305.3774 617.9987 304.53366Q617.9987 304.0493 618.2253 303.63522Q618.45184 303.22116 618.81903 302.97116Q619.1862 302.72116 619.63934 302.59616Q619.96747 302.51804 620.65497 302.4243Q622.02997 302.26804 622.6862 302.03366Q622.70184 301.7993 622.70184 301.7368Q622.70184 301.03366 622.3737 300.7524Q621.9362 300.3618 621.07684 300.3618Q620.26434 300.3618 619.88153 300.64304Q619.4987 300.9243 619.3112 301.64304L618.20184 301.5024Q618.34247 300.78366 618.69403 300.33835Q619.0456 299.89304 619.70966 299.65866Q620.3737 299.4243 621.2331 299.4243Q622.1081 299.4243 622.64716 299.6274Q623.1862 299.83054 623.4362 300.13522Q623.6862 300.4399 623.7956 300.90866Q623.84247 301.20554 623.84247 301.97116L623.84247 303.4868Q623.84247 305.08054 623.9206 305.5024Q623.9987 305.9243 624.20184 306.3149L623.01434 306.3149Q622.84247 305.95554 622.77997 305.4868ZM622.6862 302.9243Q622.0612 303.1899 620.82684 303.3618Q620.1237 303.47116 619.82684 303.59616Q619.52997 303.72116 619.3737 303.96335Q619.21747 304.20554 619.21747 304.5024Q619.21747 304.95554 619.5612 305.26022Q619.90497 305.5649 620.57684 305.5649Q621.2331 305.5649 621.7487 305.27585Q622.26434 304.9868 622.51434 304.4868Q622.6862 304.1118 622.6862 303.34616L622.6862 302.9243ZM625.57684 306.8774L626.70184 307.03366Q626.76434 307.5493 627.07684 307.78366Q627.51434 308.1118 628.2487 308.1118Q629.02997 308.1118 629.46747 307.79147Q629.90497 307.47116 630.0456 306.89304Q630.13934 306.5493 630.13934 305.4399Q629.38934 306.3149 628.26434 306.3149Q626.8737 306.3149 626.1159 305.3149Q625.3581 304.3149 625.3581 302.90866Q625.3581 301.9399 625.70966 301.1274Q626.0612 300.3149 626.71747 299.8696Q627.3737 299.4243 628.27997 299.4243Q629.46747 299.4243 630.2487 300.39304L630.2487 299.58054L631.2956 299.58054L631.2956 305.39304Q631.2956 306.97116 630.9753 307.6274Q630.65497 308.28366 629.95966 308.66647Q629.26434 309.0493 628.2487 309.0493Q627.0456 309.0493 626.3034 308.51022Q625.5612 307.97116 625.57684 306.8774ZM626.52997 302.83054Q626.52997 304.14304 627.0534 304.7524Q627.57684 305.3618 628.3737 305.3618Q629.1706 305.3618 629.70184 304.76022Q630.2331 304.15866 630.2331 302.8618Q630.2331 301.6274 629.6862 300.9946Q629.13934 300.3618 628.3581 300.3618Q627.59247 300.3618 627.0612 300.9868Q626.52997 301.6118 626.52997 302.83054ZM637.8112 304.14304L638.9987 304.28366Q638.71747 305.33054 637.95966 305.90085Q637.20184 306.47116 636.02997 306.47116Q634.5456 306.47116 633.6784 305.5571Q632.8112 304.64304 632.8112 303.0024Q632.8112 301.2993 633.69403 300.3618Q634.57684 299.4243 635.96747 299.4243Q637.32684 299.4243 638.1784 300.34616Q639.02997 301.26804 639.02997 302.9243Q639.02997 303.03366 639.02997 303.2368L633.9987 303.2368Q634.0612 304.34616 634.6237 304.9399Q635.1862 305.53366 636.02997 305.53366Q636.6706 305.53366 637.1159 305.19772Q637.5612 304.8618 637.8112 304.14304ZM634.0612 302.2993L637.82684 302.2993Q637.7487 301.4399 637.38934 301.01804Q636.84247 300.3618 635.9831 300.3618Q635.1862 300.3618 634.65497 300.88522Q634.1237 301.40866 634.0612 302.2993ZM644.6862 306.3149L644.6862 297.0024L645.90497 297.0024L645.90497 306.3149L644.6862 306.3149ZM648.02997 306.3149L648.02997 299.58054L649.0612 299.58054L649.0612 300.53366Q649.7956 299.4243 651.20184 299.4243Q651.8112 299.4243 652.31903 299.64304Q652.82684 299.8618 653.08466 300.21335Q653.34247 300.5649 653.4362 301.0649Q653.4987 301.3774 653.4987 302.1743L653.4987 306.3149L652.3581 306.3149L652.3581 302.22116Q652.3581 301.51804 652.2253 301.1743Q652.09247 300.83054 651.75653 300.6196Q651.4206 300.40866 650.96747 300.40866Q650.2331 300.40866 649.70184 300.8696Q649.1706 301.33054 649.1706 302.6274L649.1706 306.3149L648.02997 306.3149ZM659.8112 306.3149L659.8112 305.47116Q659.1706 306.47116 657.9206 306.47116Q657.1237 306.47116 656.44403 306.02585Q655.76434 305.58054 655.38934 304.78366Q655.01434 303.9868 655.01434 302.95554Q655.01434 301.9399 655.3581 301.1196Q655.70184 300.2993 656.3737 299.8618Q657.0456 299.4243 657.8737 299.4243Q658.4831 299.4243 658.95966 299.6821Q659.4362 299.9399 659.7331 300.34616L659.7331 297.0024L660.8737 297.0024L660.8737 306.3149L659.8112 306.3149ZM656.20184 302.95554Q656.20184 304.2524 656.7409 304.89304Q657.27997 305.53366 658.02997 305.53366Q658.77997 305.53366 659.3034 304.91647Q659.82684 304.2993 659.82684 303.0493Q659.82684 301.65866 659.2956 301.01022Q658.76434 300.3618 657.9831 300.3618Q657.21747 300.3618 656.70966 300.9868Q656.20184 301.6118 656.20184 302.95554ZM667.46747 304.14304L668.65497 304.28366Q668.3737 305.33054 667.6159 305.90085Q666.8581 306.47116 665.6862 306.47116Q664.20184 306.47116 663.33466 305.5571Q662.46747 304.64304 662.46747 303.0024Q662.46747 301.2993 663.3503 300.3618Q664.2331 299.4243 665.6237 299.4243Q666.9831 299.4243 667.83466 300.34616Q668.6862 301.26804 668.6862 302.9243Q668.6862 303.03366 668.6862 303.2368L663.65497 303.2368Q663.71747 304.34616 664.27997 304.9399Q664.84247 305.53366 665.6862 305.53366Q666.32684 305.53366 666.77216 305.19772Q667.21747 304.8618 667.46747 304.14304ZM663.71747 302.2993L667.4831 302.2993Q667.40497 301.4399 667.0456 301.01804Q666.4987 300.3618 665.63934 300.3618Q664.84247 300.3618 664.3112 300.88522Q663.77997 301.40866 663.71747 302.2993ZM669.4987 306.3149L671.96747 302.8149L669.6862 299.58054L671.1081 299.58054L672.15497 301.15866Q672.4362 301.6118 672.6237 301.90866Q672.88934 301.4868 673.1237 301.1743L674.26434 299.58054L675.63934 299.58054L673.2956 302.7524L675.8112 306.3149L674.40497 306.3149L673.02997 304.22116L672.65497 303.65866L670.88934 306.3149L669.4987 306.3149Z" fill-rule="nonzero" fill="#000000"></path><path d="M348.3518 297.61517L345.88306 288.30267L347.14868 288.30267L348.57056 294.41205Q348.7893 295.36517 348.96118 296.3183Q349.32056 294.8183 349.38306 294.59955L351.14868 288.30267L352.63306 288.30267L353.96118 293.02142Q354.46118 294.77142 354.69556 296.3183Q354.86743 295.42767 355.14868 294.28705L356.61743 288.30267L357.8518 288.30267L355.30493 297.61517L354.11743 297.61517L352.14868 290.52142Q351.89868 289.6308 351.8518 289.42767Q351.71118 290.0683 351.58618 290.52142L349.61743 297.61517L348.3518 297.61517ZM359.14868 297.61517L359.14868 290.8808L360.17993 290.8808L360.17993 291.89642Q360.57056 291.17767 360.9065 290.9511Q361.24243 290.72455 361.63306 290.72455Q362.21118 290.72455 362.80493 291.08392L362.4143 292.14642Q361.99243 291.89642 361.58618 291.89642Q361.21118 291.89642 360.9065 292.123Q360.6018 292.34955 360.4768 292.7558Q360.2893 293.36517 360.2893 294.08392L360.2893 297.61517L359.14868 297.61517ZM363.6018 289.6308L363.6018 288.30267L364.74243 288.30267L364.74243 289.6308L363.6018 289.6308ZM363.6018 297.61517L363.6018 290.8808L364.74243 290.8808L364.74243 297.61517L363.6018 297.61517ZM369.07056 296.59955L369.2268 297.59955Q368.74243 297.70892 368.36743 297.70892Q367.74243 297.70892 367.39868 297.5058Q367.05493 297.30267 366.9143 296.98236Q366.77368 296.66205 366.77368 295.64642L366.77368 291.7558L365.94556 291.7558L365.94556 290.8808L366.77368 290.8808L366.77368 289.20892L367.9143 288.52142L367.9143 290.8808L369.07056 290.8808L369.07056 291.7558L367.9143 291.7558L367.9143 295.70892Q367.9143 296.1933 367.9768 296.33392Q368.0393 296.47455 368.17212 296.55267Q368.30493 296.6308 368.55493 296.6308Q368.75806 296.6308 369.07056 296.59955ZM374.88306 295.4433L376.07056 295.58392Q375.7893 296.6308 375.0315 297.2011Q374.27368 297.77142 373.1018 297.77142Q371.61743 297.77142 370.75024 296.85736Q369.88306 295.9433 369.88306 294.30267Q369.88306 292.59955 370.76587 291.66205Q371.64868 290.72455 373.0393 290.72455Q374.39868 290.72455 375.25024 291.64642Q376.1018 292.5683 376.1018 294.22455Q376.1018 294.33392 376.1018 294.53705L371.07056 294.53705Q371.13306 295.64642 371.69556 296.24017Q372.25806 296.83392 373.1018 296.83392Q373.74243 296.83392 374.18774 296.498Q374.63306 296.16205 374.88306 295.4433ZM371.13306 293.59955L374.89868 293.59955Q374.82056 292.74017 374.46118 292.3183Q373.9143 291.66205 373.05493 291.66205Q372.25806 291.66205 371.7268 292.1855Q371.19556 292.70892 371.13306 293.59955ZM381.4768 297.61517L381.4768 288.30267L382.71118 288.30267L382.71118 292.92767L387.33618 288.30267L388.99243 288.30267L385.1018 292.08392L389.1643 297.61517L387.5393 297.61517L384.2268 292.91205L382.71118 294.39642L382.71118 297.61517L381.4768 297.61517ZM394.88306 295.4433L396.07056 295.58392Q395.7893 296.6308 395.0315 297.2011Q394.27368 297.77142 393.1018 297.77142Q391.61743 297.77142 390.75024 296.85736Q389.88306 295.9433 389.88306 294.30267Q389.88306 292.59955 390.76587 291.66205Q391.64868 290.72455 393.0393 290.72455Q394.39868 290.72455 395.25024 291.64642Q396.1018 292.5683 396.1018 294.22455Q396.1018 294.33392 396.1018 294.53705L391.07056 294.53705Q391.13306 295.64642 391.69556 296.24017Q392.25806 296.83392 393.1018 296.83392Q393.74243 296.83392 394.18774 296.498Q394.63306 296.16205 394.88306 295.4433ZM391.13306 293.59955L394.89868 293.59955Q394.82056 292.74017 394.46118 292.3183Q393.9143 291.66205 393.05493 291.66205Q392.25806 291.66205 391.7268 292.1855Q391.19556 292.70892 391.13306 293.59955ZM397.63306 300.20892L397.49243 299.14642Q397.86743 299.24017 398.14868 299.24017Q398.5393 299.24017 398.76587 299.11517Q398.99243 298.99017 399.13306 298.7558Q399.24243 298.58392 399.49243 297.91205Q399.52368 297.8183 399.58618 297.6308L397.02368 290.8808L398.25806 290.8808L399.6643 294.77142Q399.92993 295.52142 400.14868 296.33392Q400.3518 295.55267 400.61743 294.80267L402.07056 290.8808L403.21118 290.8808L400.64868 297.72455Q400.2268 298.83392 400.00806 299.2558Q399.69556 299.8183 399.30493 300.08392Q398.9143 300.34955 398.36743 300.34955Q398.0393 300.34955 397.63306 300.20892Z" fill-rule="nonzero" fill="#000000"></path><path d="M356.41528 306.3237L356.41528 306.3237C356.41528 302.83664 359.30624 300.00983 362.8724 300.00983L362.8724 300.00983C364.58493 300.00983 366.22733 300.67505 367.43826 301.85913C368.6492 303.0432 369.3295 304.64914 369.3295 306.3237L369.3295 306.3237C369.3295 309.81073 366.43857 312.63754 362.8724 312.63754L362.8724 312.63754C359.30624 312.63754 356.41528 309.81073 356.41528 306.3237Z" fill-rule="nonzero" stroke="#073763" stroke-width="2.0" stroke-linejoin="round" stroke-linecap="butt"></path><path d="M367.05466 301.8596L392.82056 301.8596" fill-rule="nonzero" stroke="#073763" stroke-width="2.0" stroke-linejoin="round" stroke-linecap="butt"></path><path d="M392.3618 301.7975C392.3618 303.1176 392.10687 306.08167 390.89957 305.49078C390.12988 305.1141 390.8953 302.96982 390.04623 303.1078C388.941 303.28735 388.73355 305.98074 387.73145 305.49078C386.9515 305.10947 387.34015 302.95764 386.51294 303.2273C385.58105 303.53104 386.02704 305.62338 385.05072 305.7291C383.40683 305.9071 382.1691 303.9933 380.54184 303.7039C379.7104 303.55603 379.76755 305.2491 379.07962 305.7291C377.89816 306.55347 376.23486 303.7841 374.93668 304.4188C373.16208 305.28644 371.4371 306.6823 369.453 306.6823" fill-rule="evenodd" stroke="#073763" stroke-width="2.0" stroke-linejoin="round" stroke-linecap="butt"></path><path d="M371.15894 302.98898L385.7773 302.98898" fill-rule="nonzero" stroke="#cccccc" stroke-width="1.0" stroke-linejoin="round" stroke-linecap="butt"></path><path d="M360.8638 306.32892L360.8638 306.32892C360.8638 305.24136 361.76328 304.35974 362.87283 304.35974L362.87283 304.35974C363.40567 304.35974 363.9167 304.56723 364.29346 304.9365C364.67023 305.3058 364.8819 305.80667 364.8819 306.32892L364.8819 306.32892C364.8819 307.41647 363.9824 308.2981 362.87283 308.2981L362.87283 308.2981C361.76328 308.2981 360.8638 307.41647 360.8638 306.32892Z" fill-rule="nonzero" stroke="#073763" stroke-width="2.0" stroke-linejoin="round" stroke-linecap="butt"></path><path d="M435.63028 319.4608L494.8744 319.4608L494.8744 345.79147L435.63028 345.79147Z" fill-rule="nonzero" fill="#cfe2f3" stroke="#073763" stroke-width="2.0" stroke-linejoin="round" stroke-linecap="butt"></path><path d="M459.8334 338.11703L459.8334 328.80453L461.7084 328.80453L461.7084 338.11703L459.8334 338.11703ZM465.9584 338.11703L462.6459 328.80453L464.67715 328.80453L467.03653 335.69516L469.31778 328.80453L471.30215 328.80453L467.97403 338.11703L465.9584 338.11703Z" fill-rule="nonzero" fill="#000000"></path><path d="M494.8744 332.62613L566.14996 332.62613" fill-rule="evenodd" stroke="#073763" stroke-width="2.0" stroke-linejoin="round" stroke-linecap="butt"></path><path d="M566.14996 335.9296L575.22614 332.62613L566.14996 329.32266Z" fill-rule="evenodd" fill="#073763" stroke="#073763" stroke-width="2.0" stroke-linecap="butt"></path><path d="M421.54315 458.62482L509.38565 458.62482L509.38565 495.72717L421.54315 495.72717Z" fill-rule="nonzero" fill="#cfe2f3" stroke="#073763" stroke-width="2.0" stroke-linejoin="round" stroke-linecap="butt"></path><path d="M441.60565 482.6717L441.60565 473.3592L448.49628 473.3592L448.49628 474.93732L443.48065 474.93732L443.48065 476.99982L448.15253 476.99982L448.15253 478.57794L443.48065 478.57794L443.48065 481.1092L448.68378 481.1092L448.68378 482.6717L441.60565 482.6717ZM456.59003 482.6717L454.80878 482.6717L454.80878 479.2342Q454.80878 478.14044 454.6916 477.82013Q454.5744 477.49982 454.3166 477.32013Q454.05878 477.14044 453.6994 477.14044Q453.24628 477.14044 452.8791 477.39825Q452.5119 477.65607 452.37128 478.07013Q452.23065 478.4842 452.23065 479.62482L452.23065 482.6717L450.4494 482.6717L450.4494 475.93732L452.10565 475.93732L452.10565 476.9217Q452.98065 475.78107 454.3244 475.78107Q454.91815 475.78107 455.40253 475.992Q455.8869 476.20294 456.1447 476.53107Q456.40253 476.8592 456.49628 477.28107Q456.59003 477.70294 456.59003 478.4842L456.59003 482.6717ZM464.49628 477.9217L462.73065 478.2342Q462.65253 477.71857 462.3322 477.45294Q462.0119 477.18732 461.5119 477.18732Q460.85565 477.18732 460.4572 477.64044Q460.05878 478.09357 460.05878 479.18732Q460.05878 480.37482 460.46503 480.87482Q460.87128 481.37482 461.54315 481.37482Q462.05878 481.37482 462.3791 481.08575Q462.6994 480.7967 462.8244 480.09357L464.59003 480.39044Q464.30878 481.59357 463.53534 482.21075Q462.7619 482.82794 461.46503 482.82794Q459.98065 482.82794 459.10565 481.89044Q458.23065 480.95294 458.23065 479.31232Q458.23065 477.64044 459.10565 476.71075Q459.98065 475.78107 461.49628 475.78107Q462.73065 475.78107 463.4572 476.31232Q464.18378 476.84357 464.49628 477.9217ZM467.73065 482.6717L465.9494 482.6717L465.9494 475.93732L467.60565 475.93732L467.60565 476.89044Q468.02753 476.20294 468.37128 475.992Q468.71503 475.78107 469.1369 475.78107Q469.74628 475.78107 470.30878 476.1092L469.7619 477.6717Q469.30878 477.37482 468.91815 477.37482Q468.54315 477.37482 468.28534 477.58575Q468.02753 477.7967 467.8791 478.33575Q467.73065 478.87482 467.73065 480.59357L467.73065 482.6717ZM470.37128 475.93732L472.2619 475.93732L473.87128 480.71857L475.4494 475.93732L477.29315 475.93732L474.91815 482.4217L474.49628 483.59357Q474.2619 484.18732 474.05096 484.49982Q473.84003 484.81232 473.55878 484.99982Q473.27753 485.18732 472.8791 485.2967Q472.48065 485.40607 471.96503 485.40607Q471.4494 485.40607 470.9494 485.2967L470.79315 483.90607Q471.21503 483.9842 471.55878 483.9842Q472.16815 483.9842 472.47284 483.617Q472.77753 483.24982 472.93378 482.68732L470.37128 475.93732ZM478.55878 475.93732L480.23065 475.93732L480.23065 476.9217Q480.55878 476.40607 481.10565 476.09357Q481.65253 475.78107 482.3244 475.78107Q483.5119 475.78107 484.3244 476.70294Q485.1369 477.62482 485.1369 479.26544Q485.1369 480.95294 484.3166 481.89044Q483.49628 482.82794 482.3244 482.82794Q481.7619 482.82794 481.30878 482.60138Q480.85565 482.37482 480.35565 481.84357L480.35565 485.2342L478.55878 485.2342L478.55878 475.93732ZM480.3244 479.18732Q480.3244 480.32794 480.77753 480.867Q481.23065 481.40607 481.8869 481.40607Q482.49628 481.40607 482.91034 480.90607Q483.3244 480.40607 483.3244 479.28107Q483.3244 478.21857 482.90253 477.70294Q482.48065 477.18732 481.85565 477.18732Q481.1994 477.18732 480.7619 477.69513Q480.3244 478.20294 480.3244 479.18732ZM489.85565 475.93732L489.85565 477.3592L488.6369 477.3592L488.6369 480.06232Q488.6369 480.89044 488.66815 481.03107Q488.6994 481.1717 488.8244 481.25763Q488.9494 481.34357 489.12128 481.34357Q489.37128 481.34357 489.84003 481.1717L489.99628 482.56232Q489.37128 482.82794 488.59003 482.82794Q488.10565 482.82794 487.71503 482.66388Q487.3244 482.49982 487.1447 482.242Q486.96503 481.9842 486.90253 481.5467Q486.84003 481.2342 486.84003 480.2967L486.84003 477.3592L486.02753 477.3592L486.02753 475.93732L486.84003 475.93732L486.84003 474.59357L488.6369 473.5467L488.6369 475.93732L489.85565 475.93732Z" fill-rule="nonzero" fill="#000000"></path><path d="M426.98856 470.644L430.0198 462.769L431.12918 462.769L434.36356 470.644L433.17606 470.644L432.25418 468.2534L428.9573 468.2534L428.09793 470.644L426.98856 470.644ZM429.25418 467.40964L431.92606 467.40964L431.11356 465.22214Q430.73856 464.23776 430.55106 463.59714Q430.3948 464.34714 430.12918 465.09714L429.25418 467.40964ZM434.98856 470.644L434.98856 462.769L440.67606 462.769L440.67606 463.7065L436.0198 463.7065L436.0198 466.11276L440.37918 466.11276L440.37918 467.03464L436.0198 467.03464L436.0198 469.72214L440.86356 469.72214L440.86356 470.644L434.98856 470.644ZM441.7073 468.11276L442.69168 468.03464Q442.75418 468.61276 443.012 468.99557Q443.2698 469.3784 443.80106 469.61276Q444.3323 469.84714 445.00418 469.84714Q445.61356 469.84714 446.06668 469.66745Q446.5198 469.48776 446.74637 469.18307Q446.97293 468.8784 446.97293 468.5034Q446.97293 468.1284 446.75418 467.85495Q446.53543 467.5815 446.03543 467.394Q445.72293 467.269 444.637 467.0112Q443.55106 466.7534 443.11356 466.519Q442.55106 466.22214 442.27762 465.78464Q442.00418 465.34714 442.00418 464.80026Q442.00418 464.2065 442.34012 463.6909Q442.67606 463.17526 443.3245 462.90182Q443.97293 462.6284 444.7698 462.6284Q445.6448 462.6284 446.31668 462.91745Q446.98856 463.2065 447.34793 463.7534Q447.7073 464.30026 447.73856 464.98776L446.73856 465.0659Q446.66043 464.3159 446.19168 463.93307Q445.72293 463.55026 444.81668 463.55026Q443.87918 463.55026 443.44168 463.90182Q443.00418 464.2534 443.00418 464.73776Q443.00418 465.15964 443.31668 465.4409Q443.61356 465.7065 444.887 465.99557Q446.16043 466.28464 446.62918 466.5034Q447.31668 466.8159 447.6448 467.30026Q447.97293 467.78464 447.97293 468.42526Q447.97293 469.05026 447.61356 469.60495Q447.25418 470.15964 446.5745 470.47214Q445.8948 470.78464 445.05106 470.78464Q443.98856 470.78464 443.2698 470.47214Q442.55106 470.15964 442.137 469.53464Q441.72293 468.90964 441.7073 468.11276Z" fill-rule="nonzero" fill="#ff0000"></path><path d="M256.89355 524.4676C290.3883 532.3354 290.3883 516.59973 323.8795 516.59973L323.8795 475.7014L256.89355 475.7014ZM262.41238 475.7014L262.41238 470.39917L328.9408 470.39917L328.9408 511.5541C326.41193 511.5541 323.8795 511.83917 323.8795 511.83917L323.8795 475.7014ZM267.5998 470.39917L267.5998 465.22522L334.7046 465.22522L334.7046 506.25186C331.8227 506.25186 328.9408 506.46567 328.9408 506.46567L328.9408 470.39917Z" fill-rule="nonzero" fill="#cfe2f3"></path><path d="M256.89355 475.7014L323.8795 475.7014L323.8795 516.59973C290.3883 516.59973 290.3883 532.3354 256.89355 524.4676ZM262.41238 475.7014L262.41238 470.39917L328.9408 470.39917L328.9408 511.5541C326.41193 511.5541 323.8795 511.83917 323.8795 511.83917M267.5998 470.39917L267.5998 465.22522L334.7046 465.22522L334.7046 506.25186C331.8227 506.25186 328.9408 506.46567 328.9408 506.46567" fill-rule="nonzero" stroke="#073763" stroke-width="2.0" stroke-linejoin="round" stroke-linecap="butt"></path><path d="M274.6748 502.31076L275.90918 502.62326Q275.51855 504.1389 274.51074 504.93576Q273.50293 505.73264 272.0498 505.73264Q270.5498 505.73264 269.6045 505.12326Q268.65918 504.5139 268.167 503.34982Q267.6748 502.18576 267.6748 500.85764Q267.6748 499.4045 268.2373 498.31857Q268.7998 497.23264 269.82324 496.67014Q270.84668 496.10764 272.08105 496.10764Q273.47168 496.10764 274.4248 496.81857Q275.37793 497.5295 275.75293 498.8264L274.53418 499.10764Q274.20605 498.092 273.59668 497.63107Q272.9873 497.17014 272.0498 497.17014Q270.97168 497.17014 270.25293 497.68576Q269.53418 498.2014 269.24512 499.06076Q268.95605 499.92014 268.95605 500.842Q268.95605 502.0295 269.2998 502.92014Q269.64355 503.81076 270.37012 504.24826Q271.09668 504.68576 271.95605 504.68576Q272.9873 504.68576 273.70605 504.0842Q274.4248 503.48264 274.6748 502.31076ZM277.09668 502.2014Q277.09668 500.3264 278.12793 499.43576Q279.00293 498.68576 280.25293 498.68576Q281.64355 498.68576 282.52637 499.592Q283.40918 500.49826 283.40918 502.10764Q283.40918 503.4045 283.01855 504.1545Q282.62793 504.9045 281.87793 505.31857Q281.12793 505.73264 280.25293 505.73264Q278.83105 505.73264 277.96387 504.8264Q277.09668 503.92014 277.09668 502.2014ZM278.26855 502.2014Q278.26855 503.49826 278.83105 504.1467Q279.39355 504.79514 280.25293 504.79514Q281.09668 504.79514 281.667 504.1467Q282.2373 503.49826 282.2373 502.17014Q282.2373 500.92014 281.667 500.2717Q281.09668 499.62326 280.25293 499.62326Q279.39355 499.62326 278.83105 500.2639Q278.26855 500.9045 278.26855 502.2014ZM284.94043 505.5764L284.94043 498.842L285.97168 498.842L285.97168 499.79514Q286.70605 498.68576 288.1123 498.68576Q288.72168 498.68576 289.2295 498.9045Q289.7373 499.12326 289.99512 499.47482Q290.25293 499.8264 290.34668 500.3264Q290.40918 500.6389 290.40918 501.43576L290.40918 505.5764L289.26855 505.5764L289.26855 501.48264Q289.26855 500.7795 289.13574 500.43576Q289.00293 500.092 288.667 499.88107Q288.33105 499.67014 287.87793 499.67014Q287.14355 499.67014 286.6123 500.13107Q286.08105 500.592 286.08105 501.8889L286.08105 505.5764L284.94043 505.5764ZM294.84668 504.56076L295.00293 505.56076Q294.51855 505.67014 294.14355 505.67014Q293.51855 505.67014 293.1748 505.467Q292.83105 505.2639 292.69043 504.94357Q292.5498 504.62326 292.5498 503.60764L292.5498 499.717L291.72168 499.717L291.72168 498.842L292.5498 498.842L292.5498 497.17014L293.69043 496.48264L293.69043 498.842L294.84668 498.842L294.84668 499.717L293.69043 499.717L293.69043 503.67014Q293.69043 504.1545 293.75293 504.29514Q293.81543 504.43576 293.94824 504.5139Q294.08105 504.592 294.33105 504.592Q294.53418 504.592 294.84668 504.56076ZM300.65918 503.4045L301.84668 503.54514Q301.56543 504.592 300.80762 505.16232Q300.0498 505.73264 298.87793 505.73264Q297.39355 505.73264 296.52637 504.81857Q295.65918 503.9045 295.65918 502.2639Q295.65918 500.56076 296.542 499.62326Q297.4248 498.68576 298.81543 498.68576Q300.1748 498.68576 301.02637 499.60764Q301.87793 500.5295 301.87793 502.18576Q301.87793 502.29514 301.87793 502.49826L296.84668 502.49826Q296.90918 503.60764 297.47168 504.2014Q298.03418 504.79514 298.87793 504.79514Q299.51855 504.79514 299.96387 504.4592Q300.40918 504.12326 300.65918 503.4045ZM296.90918 501.56076L300.6748 501.56076Q300.59668 500.7014 300.2373 500.2795Q299.69043 499.62326 298.83105 499.62326Q298.03418 499.62326 297.50293 500.1467Q296.97168 500.67014 296.90918 501.56076ZM303.45605 505.5764L303.45605 498.842L304.4873 498.842L304.4873 499.79514Q305.22168 498.68576 306.62793 498.68576Q307.2373 498.68576 307.74512 498.9045Q308.25293 499.12326 308.51074 499.47482Q308.76855 499.8264 308.8623 500.3264Q308.9248 500.6389 308.9248 501.43576L308.9248 505.5764L307.78418 505.5764L307.78418 501.48264Q307.78418 500.7795 307.65137 500.43576Q307.51855 500.092 307.18262 499.88107Q306.84668 499.67014 306.39355 499.67014Q305.65918 499.67014 305.12793 500.13107Q304.59668 500.592 304.59668 501.8889L304.59668 505.5764L303.45605 505.5764ZM313.37793 504.56076L313.53418 505.56076Q313.0498 505.67014 312.6748 505.67014Q312.0498 505.67014 311.70605 505.467Q311.3623 505.2639 311.22168 504.94357Q311.08105 504.62326 311.08105 503.60764L311.08105 499.717L310.25293 499.717L310.25293 498.842L311.08105 498.842L311.08105 497.17014L312.22168 496.48264L312.22168 498.842L313.37793 498.842L313.37793 499.717L312.22168 499.717L312.22168 503.67014Q312.22168 504.1545 312.28418 504.29514Q312.34668 504.43576 312.4795 504.5139Q312.6123 504.592 312.8623 504.592Q313.06543 504.592 313.37793 504.56076Z" fill-rule="nonzero" fill="#000000"></path><path d="M334.86353 487.93176L408.65878 487.93176" fill-rule="evenodd" stroke="#073763" stroke-width="2.0" stroke-linejoin="round" stroke-linecap="butt"></path><path d="M408.65878 491.23523L417.735 487.93176L408.65878 484.6283Z" fill-rule="evenodd" fill="#073763" stroke="#073763" stroke-width="2.0" stroke-linecap="butt"></path><path d="M423.11914 532.10394L510.96164 532.10394L510.96164 569.2063L423.11914 569.2063Z" fill-rule="nonzero" fill="#cfe2f3" stroke="#073763" stroke-width="2.0" stroke-linejoin="round" stroke-linecap="butt"></path><path d="M443.18164 556.1508L443.18164 546.8383L450.07227 546.8383L450.07227 548.41644L445.05664 548.41644L445.05664 550.47894L449.72852 550.47894L449.72852 552.05707L445.05664 552.05707L445.05664 554.5883L450.25977 554.5883L450.25977 556.1508L443.18164 556.1508ZM458.16602 556.1508L456.38477 556.1508L456.38477 552.7133Q456.38477 551.61957 456.26758 551.29926Q456.1504 550.97894 455.89258 550.79926Q455.63477 550.61957 455.2754 550.61957Q454.82227 550.61957 454.45508 550.8774Q454.0879 551.1352 453.94727 551.54926Q453.80664 551.9633 453.80664 553.10394L453.80664 556.1508L452.0254 556.1508L452.0254 549.41644L453.68164 549.41644L453.68164 550.4008Q454.55664 549.2602 455.9004 549.2602Q456.49414 549.2602 456.97852 549.4711Q457.4629 549.68207 457.7207 550.0102Q457.97852 550.3383 458.07227 550.7602Q458.16602 551.18207 458.16602 551.9633L458.16602 556.1508ZM466.07227 551.4008L464.30664 551.7133Q464.22852 551.1977 463.9082 550.93207Q463.5879 550.66644 463.0879 550.66644Q462.43164 550.66644 462.0332 551.11957Q461.63477 551.5727 461.63477 552.66644Q461.63477 553.85394 462.04102 554.35394Q462.44727 554.85394 463.11914 554.85394Q463.63477 554.85394 463.95508 554.5649Q464.2754 554.2758 464.4004 553.5727L466.16602 553.86957Q465.88477 555.0727 465.11133 555.6899Q464.3379 556.30707 463.04102 556.30707Q461.55664 556.30707 460.68164 555.36957Q459.80664 554.43207 459.80664 552.79144Q459.80664 551.11957 460.68164 550.1899Q461.55664 549.2602 463.07227 549.2602Q464.30664 549.2602 465.0332 549.79144Q465.75977 550.3227 466.07227 551.4008ZM469.30664 556.1508L467.5254 556.1508L467.5254 549.41644L469.18164 549.41644L469.18164 550.36957Q469.60352 549.68207 469.94727 549.4711Q470.29102 549.2602 470.7129 549.2602Q471.32227 549.2602 471.88477 549.5883L471.3379 551.1508Q470.88477 550.85394 470.49414 550.85394Q470.11914 550.85394 469.86133 551.0649Q469.60352 551.2758 469.45508 551.8149Q469.30664 552.35394 469.30664 554.0727L469.30664 556.1508ZM471.94727 549.41644L473.8379 549.41644L475.44727 554.1977L477.0254 549.41644L478.86914 549.41644L476.49414 555.9008L476.07227 557.0727Q475.8379 557.66644 475.62695 557.97894Q475.41602 558.29144 475.13477 558.47894Q474.85352 558.66644 474.45508 558.7758Q474.05664 558.8852 473.54102 558.8852Q473.0254 558.8852 472.5254 558.7758L472.36914 557.3852Q472.79102 557.4633 473.13477 557.4633Q473.74414 557.4633 474.04883 557.0961Q474.35352 556.72894 474.50977 556.16644L471.94727 549.41644ZM480.13477 549.41644L481.80664 549.41644L481.80664 550.4008Q482.13477 549.8852 482.68164 549.5727Q483.22852 549.2602 483.9004 549.2602Q485.0879 549.2602 485.9004 550.18207Q486.7129 551.10394 486.7129 552.74457Q486.7129 554.43207 485.89258 555.36957Q485.07227 556.30707 483.9004 556.30707Q483.3379 556.30707 482.88477 556.0805Q482.43164 555.85394 481.93164 555.3227L481.93164 558.7133L480.13477 558.7133L480.13477 549.41644ZM481.9004 552.66644Q481.9004 553.80707 482.35352 554.3461Q482.80664 554.8852 483.4629 554.8852Q484.07227 554.8852 484.48633 554.3852Q484.9004 553.8852 484.9004 552.7602Q484.9004 551.6977 484.47852 551.18207Q484.05664 550.66644 483.43164 550.66644Q482.7754 550.66644 482.3379 551.17426Q481.9004 551.68207 481.9004 552.66644ZM491.43164 549.41644L491.43164 550.8383L490.2129 550.8383L490.2129 553.54144Q490.2129 554.36957 490.24414 554.5102Q490.2754 554.6508 490.4004 554.73676Q490.5254 554.8227 490.69727 554.8227Q490.94727 554.8227 491.41602 554.6508L491.57227 556.04144Q490.94727 556.30707 490.16602 556.30707Q489.68164 556.30707 489.29102 556.143Q488.9004 555.97894 488.7207 555.7211Q488.54102 555.4633 488.47852 555.0258Q488.41602 554.7133 488.41602 553.7758L488.41602 550.8383L487.60352 550.8383L487.60352 549.41644L488.41602 549.41644L488.41602 548.0727L490.2129 547.0258L490.2129 549.41644L491.43164 549.41644Z" fill-rule="nonzero" fill="#000000"></path><path d="M428.56454 544.12317L431.5958 536.24817L432.70517 536.24817L435.93954 544.12317L434.75204 544.12317L433.83017 541.73254L430.5333 541.73254L429.67392 544.12317L428.56454 544.12317ZM430.83017 540.8888L433.50204 540.8888L432.68954 538.7013Q432.31454 537.7169 432.12704 537.0763Q431.9708 537.8263 431.70517 538.5763L430.83017 540.8888ZM436.56454 544.12317L436.56454 536.24817L442.25204 536.24817L442.25204 537.18567L437.5958 537.18567L437.5958 539.5919L441.95517 539.5919L441.95517 540.5138L437.5958 540.5138L437.5958 543.2013L442.43954 543.2013L442.43954 544.12317L436.56454 544.12317ZM443.2833 541.5919L444.26767 541.5138Q444.33017 542.0919 444.58798 542.47473Q444.8458 542.85754 445.37704 543.0919Q445.9083 543.3263 446.58017 543.3263Q447.18954 543.3263 447.64267 543.1466Q448.0958 542.9669 448.32236 542.66223Q448.54892 542.35754 448.54892 541.98254Q448.54892 541.60754 448.33017 541.3341Q448.11142 541.06067 447.61142 540.87317Q447.29892 540.74817 446.21298 540.49036Q445.12704 540.23254 444.68954 539.99817Q444.12704 539.7013 443.8536 539.2638Q443.58017 538.8263 443.58017 538.2794Q443.58017 537.68567 443.9161 537.17004Q444.25204 536.6544 444.90048 536.381Q445.54892 536.10754 446.3458 536.10754Q447.2208 536.10754 447.89267 536.3966Q448.56454 536.68567 448.92392 537.23254Q449.2833 537.7794 449.31454 538.4669L448.31454 538.54504Q448.23642 537.79504 447.76767 537.41223Q447.29892 537.0294 446.39267 537.0294Q445.45517 537.0294 445.01767 537.381Q444.58017 537.73254 444.58017 538.2169Q444.58017 538.6388 444.89267 538.92004Q445.18954 539.18567 446.46298 539.47473Q447.73642 539.7638 448.20517 539.98254Q448.89267 540.29504 449.2208 540.7794Q449.54892 541.2638 449.54892 541.9044Q449.54892 542.5294 449.18954 543.0841Q448.83017 543.6388 448.15048 543.9513Q447.4708 544.2638 446.62704 544.2638Q445.56454 544.2638 444.8458 543.9513Q444.12704 543.6388 443.71298 543.0138Q443.29892 542.3888 443.2833 541.5919Z" fill-rule="nonzero" fill="#ff0000"></path><path d="M464.47998 495.7272L464.47998 520.8611" fill-rule="evenodd" stroke="#ff0000" stroke-width="2.0" stroke-linejoin="round" stroke-linecap="butt"></path><path d="M461.1765 520.8611L464.47998 529.93726L467.78345 520.8611Z" fill-rule="evenodd" fill="#ff0000" stroke="#ff0000" stroke-width="2.0" stroke-linecap="butt"></path><path d="M509.38565 477.17603L566.99194 477.17603" fill-rule="evenodd" stroke="#073763" stroke-width="2.0" stroke-linejoin="round" stroke-linecap="butt"></path><path d="M566.99194 480.4795L576.0681 477.17603L566.99194 473.87256Z" fill-rule="evenodd" fill="#073763" stroke="#073763" stroke-width="2.0" stroke-linecap="butt"></path><path d="M511.50314 552.2598L569.1409 552.2598" fill-rule="evenodd" stroke="#073763" stroke-width="2.0" stroke-linejoin="round" stroke-linecap="butt"></path><path d="M569.1409 555.5633L578.2171 552.2598L569.1409 548.95636Z" fill-rule="evenodd" fill="#073763" stroke="#073763" stroke-width="2.0" stroke-linecap="butt"></path><path d="M551.8464 75.09417L551.8464 75.09417C550.3449 63.764683 555.2746 52.54918 564.5436 46.206806C573.8126 39.864437 585.7954 39.507515 595.40717 45.287495L595.40717 45.287495C598.81195 38.700066 605.0437 34.151897 612.21747 33.018726C619.3912 31.885555 626.6643 34.300476 631.8369 39.533024L631.8369 39.533024C634.7373 33.560436 640.4324 29.547617 646.9012 28.91853C653.37 28.28944 659.69696 31.133112 663.6371 36.44046L663.6371 36.44046C668.87714 30.109531 677.21423 27.443947 685.04083 29.59712C692.86743 31.750296 698.7778 38.3355 700.21454 46.503277L700.21454 46.503277C706.63446 48.30129 711.9822 52.87207 714.876 59.03468C717.7697 65.19729 717.92566 72.34719 715.30347 78.63707L715.30347 78.63707C721.6253 87.085075 723.1041 98.341934 719.1881 108.20679C715.2721 118.07165 706.54956 125.062416 696.2756 126.570274C696.2032 135.8288 691.2579 144.32431 683.3457 148.78226C675.4336 153.24022 665.7902 152.9645 658.13257 148.06136C654.8708 159.15004 645.69 167.30899 634.55664 169.01323C623.4233 170.71748 612.33325 165.6615 606.07776 156.02968C598.4099 160.77724 589.2091 162.14485 580.5509 159.82404C571.89264 157.5032 564.50635 151.68942 560.0581 143.69417L560.0581 143.69417C552.22253 144.63564 544.64655 140.46738 541.0902 133.25807C537.5338 126.04877 538.7541 117.33312 544.1454 111.436676L544.1454 111.436676C537.1558 107.212746 533.5893 98.831055 535.30566 90.66234C537.02203 82.49362 543.6323 76.38893 551.6895 75.53163Z" fill-rule="nonzero" fill="#cfe2f3" stroke="#073763" stroke-width="2.0" stroke-linejoin="round" stroke-linecap="butt"></path><path d="M544.14734 111.43587L544.14734 111.43587C547.44574 113.42915 551.25616 114.33336 555.067 114.02707M560.05835 143.69409C561.6972 143.49718 563.3035 143.08022 564.83594 142.45393M606.07574 156.02907C604.92316 154.25432 603.95807 152.35783 603.1971 150.37195M658.1325 148.06042L658.1325 148.06042C658.7272 146.03879 659.1125 143.9581 659.282 141.85304M696.2741 126.570114C696.3512 116.71299 690.8985 107.687706 682.25806 103.37089M715.3018 78.637955C713.9025 81.99449 711.76636 84.97203 709.0608 87.337105M700.2142 46.503277L700.2142 46.503277C700.4526 47.858723 700.5629 49.234543 700.54364 50.61166M663.6373 36.440872L663.6373 36.440872C662.3302 38.020126 661.2533 39.78492 660.4401 41.680305M631.83685 39.532745L631.83685 39.532745C631.14026 40.96717 630.6201 42.485035 630.2883 44.051376M595.4066 45.28734L595.4066 45.28734C597.4405 46.510376 599.322 47.982437 601.0101 49.67118M551.8464 75.09417L551.8464 75.09417C552.05334 76.65566 552.3803 78.19791 552.8243 79.70647" fill-rule="nonzero" stroke="#073763" stroke-width="2.0" stroke-linejoin="round" stroke-linecap="butt"></path><path d="M606.4592 69.88241L645.07275 69.88241L645.07275 115.94256C625.766 115.94256 625.766 133.49232 606.4592 123.52087Z" fill-rule="nonzero" fill="#d9d2e9" stroke="#073763" stroke-width="2.0" stroke-linejoin="round" stroke-linecap="butt"></path><path d="M625.96716 225.85573L625.96716 136.37541" fill-rule="evenodd" stroke="#073763" stroke-width="2.0" stroke-linejoin="round" stroke-linecap="butt"></path><path d="M629.2706 136.37541L625.96716 127.29922L622.6637 136.37541Z" fill-rule="evenodd" fill="#073763" stroke="#073763" stroke-width="2.0" stroke-linecap="butt"></path><path d="M638.17664 189.94139L639.411 189.94139L639.411 195.33202Q639.411 196.72264 639.0907 197.55077Q638.7704 198.37889 637.94226 198.89452Q637.11414 199.41014 635.7704 199.41014Q634.4579 199.41014 633.62976 198.95702Q632.80164 198.50389 632.44226 197.65233Q632.0829 196.80077 632.0829 195.33202L632.0829 189.94139L633.31726 189.94139L633.31726 195.31639Q633.31726 196.53514 633.5438 197.10545Q633.7704 197.67577 634.31726 197.98827Q634.86414 198.30077 635.661 198.30077Q637.0204 198.30077 637.5985 197.68358Q638.17664 197.06639 638.17664 195.31639L638.17664 189.94139ZM641.55164 201.83202L641.55164 192.51952L642.5829 192.51952L642.5829 193.39452Q642.9579 192.87889 643.4188 192.62108Q643.87976 192.36327 644.55164 192.36327Q645.411 192.36327 646.06726 192.80858Q646.7235 193.25389 647.05945 194.05858Q647.3954 194.86327 647.3954 195.83202Q647.3954 196.86327 647.0282 197.69139Q646.661 198.51952 645.9501 198.96483Q645.23914 199.41014 644.4579 199.41014Q643.8954 199.41014 643.44226 199.16795Q642.98914 198.92577 642.69226 198.55077L642.69226 201.83202L641.55164 201.83202ZM642.5829 195.92577Q642.5829 197.22264 643.11414 197.84764Q643.6454 198.47264 644.37976 198.47264Q645.1454 198.47264 645.69226 197.8242Q646.23914 197.17577 646.23914 195.83202Q646.23914 194.53514 645.7079 193.89452Q645.17664 193.25389 644.44226 193.25389Q643.7079 193.25389 643.1454 193.93358Q642.5829 194.61327 642.5829 195.92577ZM648.92664 199.25389L648.92664 189.94139L650.06726 189.94139L650.06726 199.25389L648.92664 199.25389ZM651.50476 195.87889Q651.50476 194.00389 652.536 193.11327Q653.411 192.36327 654.661 192.36327Q656.05164 192.36327 656.93445 193.26952Q657.81726 194.17577 657.81726 195.78514Q657.81726 197.08202 657.42664 197.83202Q657.036 198.58202 656.286 198.99608Q655.536 199.41014 654.661 199.41014Q653.23914 199.41014 652.37195 198.50389Q651.50476 197.59764 651.50476 195.87889ZM652.67664 195.87889Q652.67664 197.17577 653.23914 197.8242Q653.80164 198.47264 654.661 198.47264Q655.50476 198.47264 656.0751 197.8242Q656.6454 197.17577 656.6454 195.84764Q656.6454 194.59764 656.0751 193.9492Q655.50476 193.30077 654.661 193.30077Q653.80164 193.30077 653.23914 193.94139Q652.67664 194.58202 652.67664 195.87889ZM663.7235 198.42577Q663.0985 198.95702 662.5126 199.18358Q661.92664 199.41014 661.25476 199.41014Q660.12976 199.41014 659.536 198.86327Q658.94226 198.31639 658.94226 197.47264Q658.94226 196.98827 659.1688 196.5742Q659.3954 196.16014 659.7626 195.91014Q660.12976 195.66014 660.5829 195.53514Q660.911 195.45702 661.5985 195.36327Q662.9735 195.20702 663.62976 194.97264Q663.6454 194.73827 663.6454 194.67577Q663.6454 193.97264 663.31726 193.69139Q662.87976 193.30077 662.0204 193.30077Q661.2079 193.30077 660.8251 193.58202Q660.44226 193.86327 660.25476 194.58202L659.1454 194.44139Q659.286 193.72264 659.6376 193.27733Q659.98914 192.83202 660.6532 192.59764Q661.31726 192.36327 662.17664 192.36327Q663.05164 192.36327 663.5907 192.56639Q664.12976 192.76952 664.37976 193.0742Q664.62976 193.37889 664.73914 193.84764Q664.786 194.14452 664.786 194.91014L664.786 196.42577Q664.786 198.01952 664.86414 198.44139Q664.94226 198.86327 665.1454 199.25389L663.9579 199.25389Q663.786 198.89452 663.7235 198.42577ZM663.62976 195.86327Q663.00476 196.12889 661.7704 196.30077Q661.06726 196.41014 660.7704 196.53514Q660.4735 196.66014 660.31726 196.90233Q660.161 197.14452 660.161 197.44139Q660.161 197.89452 660.50476 198.1992Q660.8485 198.50389 661.5204 198.50389Q662.17664 198.50389 662.69226 198.21483Q663.2079 197.92577 663.4579 197.42577Q663.62976 197.05077 663.62976 196.28514L663.62976 195.86327ZM671.12976 199.25389L671.12976 198.41014Q670.48914 199.41014 669.23914 199.41014Q668.44226 199.41014 667.7626 198.96483Q667.0829 198.51952 666.7079 197.72264Q666.3329 196.92577 666.3329 195.89452Q666.3329 194.87889 666.67664 194.05858Q667.0204 193.23827 667.69226 192.80077Q668.36414 192.36327 669.19226 192.36327Q669.80164 192.36327 670.2782 192.62108Q670.75476 192.87889 671.05164 193.28514L671.05164 189.94139L672.19226 189.94139L672.19226 199.25389L671.12976 199.25389ZM667.5204 195.89452Q667.5204 197.19139 668.05945 197.83202Q668.5985 198.47264 669.3485 198.47264Q670.0985 198.47264 670.62195 197.85545Q671.1454 197.23827 671.1454 195.98827Q671.1454 194.59764 670.61414 193.9492Q670.0829 193.30077 669.30164 193.30077Q668.536 193.30077 668.0282 193.92577Q667.5204 194.55077 667.5204 195.89452Z" fill-rule="nonzero" fill="#000000"></path><path d="M404.88715 305.45407L565.958 305.45407" fill-rule="evenodd" stroke="#ff0000" stroke-width="2.0" stroke-linejoin="round" stroke-linecap="butt"></path><path d="M565.958 308.75754L575.0342 305.45407L565.958 302.1506Z" fill-rule="evenodd" fill="#ff0000" stroke="#ff0000" stroke-width="2.0" stroke-linecap="butt"></path><path d="M464.4752 446.4357L464.4752 345.5223" fill-rule="evenodd" stroke="#073763" stroke-width="2.0" stroke-linejoin="round" stroke-linecap="butt"></path><path d="M461.17172 446.4357L464.4752 455.5119L467.77866 446.4357Z" fill-rule="evenodd" fill="#073763" stroke="#073763" stroke-width="2.0" stroke-linecap="butt"></path><path d="M373.24878 553.0152L373.24878 319.59784" fill-rule="nonzero" stroke="#073763" stroke-width="2.0" stroke-linejoin="round" stroke-linecap="butt"></path><path d="M373.4672 553.01575L410.85303 553.01575" fill-rule="evenodd" stroke="#073763" stroke-width="2.0" stroke-linejoin="round" stroke-linecap="butt"></path><path d="M410.85303 556.3192L419.92923 553.01575L410.85303 549.7123Z" fill-rule="evenodd" fill="#073763" stroke="#073763" stroke-width="2.0" stroke-linecap="butt"></path><path d="M374.36484 468.6273L408.85303 468.6273" fill-rule="evenodd" stroke="#073763" stroke-width="2.0" stroke-linejoin="round" stroke-linecap="butt"></path><path d="M408.85303 471.93076L417.92923 468.6273L408.85303 465.32382Z" fill-rule="evenodd" fill="#073763" stroke="#073763" stroke-width="2.0" stroke-linecap="butt"></path></svg>

