<?xml version="1.0" standalone="yes"?>

<svg version="1.1" viewBox="0.0 0.0 960.0 720.0" fill="none" stroke="none" stroke-linecap="square" stroke-miterlimit="10" clip-path="url(#clip0)" xmlns="http://www.w3.org/2000/svg" xmlns:xlink="http://www.w3.org/1999/xlink"><clipPath id="clip0"><path d="M0 0L960.0 0L960.0 720.0L0 720.0L0 0Z" clip-rule="nonzero"></path></clipPath><path d="M433.1942 137.42783L433.1942 158.30971" fill-rule="evenodd" stroke="#073763" stroke-width="2.0" stroke-linejoin="round" stroke-linecap="butt" stroke-dasharray="2.0,6.0"></path><path d="M429.89075 158.30971L433.1942 167.38591L436.49768 158.30971Z" fill-rule="evenodd" fill="#073763" stroke="#073763" stroke-width="2.0" stroke-linecap="butt"></path><path d="M417.6824 185.7454L417.6824 185.7454C417.6824 177.21326 424.6273 170.29659 433.1942 170.29659L433.1942 170.29659C437.30823 170.29659 441.2537 171.92422 444.16272 174.82144C447.07175 177.71866 448.70602 181.64813 448.70602 185.7454L448.70602 185.7454C448.70602 194.27756 441.76117 201.19423 433.1942 201.19423L433.1942 201.19423C424.6273 201.19423 417.6824 194.27756 417.6824 185.7454Z" fill-rule="nonzero" fill="#cfe2f3" stroke="#073763" stroke-width="2.0" stroke-linejoin="round" stroke-linecap="butt"></path><path d="M426.92883 192.24332L432.1632 178.64957L434.1007 178.64957L439.6632 192.24332L437.61633 192.24332L436.02258 188.11832L430.33508 188.11832L428.8507 192.24332L426.92883 192.24332ZM430.8507 186.66519L435.46008 186.66519L434.05383 182.88394Q433.39758 181.18082 433.08508 180.07144Q432.81946 181.38394 432.3507 182.66519L430.8507 186.66519Z" fill-rule="nonzero" fill="#000000"></path><path d="M472.8399 237.00008L472.8399 237.00008C472.8399 228.46794 479.78476 221.55127 488.3517 221.55127L488.3517 221.55127C492.4657 221.55127 496.4112 223.17891 499.32022 226.07611C502.22925 228.97333 503.86353 232.9028 503.86353 237.00008L503.86353 237.00008C503.86353 245.53223 496.91864 252.4489 488.3517 252.4489L488.3517 252.4489C479.78476 252.4489 472.8399 245.53223 472.8399 237.00008Z" fill-rule="nonzero" fill="#cfe2f3" stroke="#073763" stroke-width="2.0" stroke-linejoin="round" stroke-linecap="butt"></path><path d="M487.41446 243.49799L487.41446 237.73236L482.18008 229.90424L484.36758 229.90424L487.03946 233.99799Q487.78946 235.15424 488.43008 236.29486Q489.03946 235.23236 489.91446 233.88861L492.53946 229.90424L494.64883 229.90424L489.21133 237.73236L489.21133 243.49799L487.41446 243.49799Z" fill-rule="nonzero" fill="#000000"></path><path d="M444.16272 196.66937L468.39786 218.1223" fill-rule="evenodd" stroke="#073763" stroke-width="2.0" stroke-linejoin="round" stroke-linecap="butt"></path><path d="M466.20825 220.59586L475.1939 224.13817L470.58746 215.64871Z" fill-rule="evenodd" fill="#073763" stroke="#073763" stroke-width="2.0" stroke-linecap="butt"></path><path d="M417.6824 237.00008L417.6824 237.00008C417.6824 228.46794 424.6273 221.55127 433.1942 221.55127L433.1942 221.55127C437.30823 221.55127 441.2537 223.17891 444.16272 226.07611C447.07175 228.97333 448.70602 232.9028 448.70602 237.00008L448.70602 237.00008C448.70602 245.53223 441.76117 252.4489 433.1942 252.4489L433.1942 252.4489C424.6273 252.4489 417.6824 245.53223 417.6824 237.00008Z" fill-rule="nonzero" fill="#cfe2f3" stroke="#073763" stroke-width="2.0" stroke-linejoin="round" stroke-linecap="butt"></path><path d="M427.0382 243.49799L432.30383 236.40424L427.6632 229.90424L429.80383 229.90424L432.27258 233.38861Q433.05383 234.46674 433.36633 235.06049Q433.81946 234.31049 434.44446 233.51361L437.17883 229.90424L439.14758 229.90424L434.36633 236.31049L439.50696 243.49799L437.2882 243.49799L433.86633 238.63861Q433.56946 238.23236 433.27258 237.73236Q432.81946 238.48236 432.61633 238.76361L429.21008 243.49799L427.0382 243.49799Z" fill-rule="nonzero" fill="#000000"></path><path d="M433.1942 201.19423L433.1942 209.55127" fill-rule="evenodd" stroke="#073763" stroke-width="2.0" stroke-linejoin="round" stroke-linecap="butt"></path><path d="M429.89075 209.55127L433.1942 218.62746L436.49768 209.55127Z" fill-rule="evenodd" fill="#073763" stroke="#073763" stroke-width="2.0" stroke-linecap="butt"></path><path d="M433.1942 252.4489L433.1942 276.27567" fill-rule="evenodd" stroke="#073763" stroke-width="2.0" stroke-linejoin="round" stroke-linecap="butt"></path><path d="M429.89075 276.27567L433.1942 285.35187L436.49768 276.27567Z" fill-rule="evenodd" fill="#073763" stroke="#073763" stroke-width="2.0" stroke-linecap="butt"></path><path d="M417.6824 305.21826L417.6824 305.21826C417.6824 296.6861 424.6273 289.76944 433.1942 289.76944L433.1942 289.76944C437.30823 289.76944 441.2537 291.39706 444.16272 294.29428C447.07175 297.1915 448.70602 301.12097 448.70602 305.21826L448.70602 305.21826C448.70602 313.7504 441.76117 320.66708 433.1942 320.66708L433.1942 320.66708C424.6273 320.66708 417.6824 313.7504 417.6824 305.21826Z" fill-rule="nonzero" fill="#cfe2f3" stroke="#073763" stroke-width="2.0" stroke-linejoin="round" stroke-linecap="butt"></path><path d="M428.3507 311.71616L428.3507 298.1224L433.46008 298.1224Q435.00696 298.1224 435.95227 298.52866Q436.89758 298.9349 437.42883 299.79428Q437.96008 300.65366 437.96008 301.59116Q437.96008 302.46616 437.49133 303.2396Q437.02258 304.01303 436.05383 304.48178Q437.2882 304.84116 437.95227 305.71616Q438.61633 306.59116 438.61633 307.77866Q438.61633 308.73178 438.2179 309.5521Q437.81946 310.3724 437.2257 310.81772Q436.63196 311.26303 435.73352 311.4896Q434.83508 311.71616 433.5382 311.71616L428.3507 311.71616ZM430.14758 303.82553L433.08508 303.82553Q434.2882 303.82553 434.80383 303.66928Q435.49133 303.46616 435.8429 302.9974Q436.19446 302.52866 436.19446 301.8099Q436.19446 301.13803 435.86633 300.6224Q435.5382 300.10678 434.93665 299.91147Q434.33508 299.71616 432.86633 299.71616L430.14758 299.71616L430.14758 303.82553ZM430.14758 310.10678L433.5382 310.10678Q434.4132 310.10678 434.75696 310.04428Q435.38196 309.9349 435.80383 309.6771Q436.2257 309.41928 436.49133 308.91928Q436.75696 308.41928 436.75696 307.77866Q436.75696 307.01303 436.36633 306.45053Q435.9757 305.88803 435.2882 305.66147Q434.6007 305.4349 433.30383 305.4349L430.14758 305.4349L430.14758 310.10678Z" fill-rule="nonzero" fill="#000000"></path><path d="M374.53622 349.5332L374.53622 349.5332C374.53622 341.00107 381.48108 334.0844 390.04803 334.0844L390.04803 334.0844C394.16202 334.0844 398.1075 335.71204 401.01654 338.60925C403.92557 341.50647 405.55984 345.43594 405.55984 349.5332L405.55984 349.5332C405.55984 358.06537 398.61496 364.98203 390.04803 364.98203L390.04803 364.98203C381.48108 364.98203 374.53622 358.06537 374.53622 349.5332Z" fill-rule="nonzero" fill="#cfe2f3" stroke="#073763" stroke-width="2.0" stroke-linejoin="round" stroke-linecap="butt"></path><path d="M383.78265 356.03113L389.01703 342.43738L390.95453 342.43738L396.51703 356.03113L394.47015 356.03113L392.8764 351.90613L387.1889 351.90613L385.70453 356.03113L383.78265 356.03113ZM387.70453 350.453L392.3139 350.453L390.90765 346.67175Q390.2514 344.96863 389.9389 343.85925Q389.67328 345.17175 389.20453 346.453L387.70453 350.453Z" fill-rule="nonzero" fill="#000000"></path><path d="M422.2257 316.1422L409.25403 329.8832" fill-rule="evenodd" stroke="#073763" stroke-width="2.0" stroke-linejoin="round" stroke-linecap="butt"></path><path d="M406.85184 327.61554L403.0236 336.48315L411.6562 332.1509Z" fill-rule="evenodd" fill="#073763" stroke="#073763" stroke-width="2.0" stroke-linecap="butt"></path><path d="M415.76654 297.75854C408.04868 289.12817 369.62524 262.4908 369.45944 245.97638C369.29364 229.46194 407.21973 206.556 414.7718 198.67192" fill-rule="nonzero" stroke="#073763" stroke-width="2.0" stroke-linejoin="round" stroke-linecap="butt" stroke-dasharray="16.0,6.0"></path><path d="M407.96753 204.36508L410.95456 202.19336" fill-rule="evenodd" stroke="#073763" stroke-width="2.0" stroke-linejoin="round" stroke-linecap="butt"></path><path d="M412.89716 204.86528L418.2956 196.85608L409.01196 199.52144Z" fill-rule="evenodd" fill="#073763" stroke="#073763" stroke-width="2.0" stroke-linecap="butt"></path></svg>

