<?xml version="1.0" standalone="yes"?>

<svg version="1.1" viewBox="0.0 0.0 960.0 720.0" fill="none" stroke="none" stroke-linecap="square" stroke-miterlimit="10" clip-path="url(#clip0)" xmlns="http://www.w3.org/2000/svg" xmlns:xlink="http://www.w3.org/1999/xlink"><clipPath id="clip0"><path d="M0 0L960.0 0L960.0 720.0L0 720.0L0 0Z" clip-rule="nonzero"></path></clipPath><path d="M433.1942 137.42783L433.1942 158.30971" fill-rule="evenodd" stroke="#073763" stroke-width="2.0" stroke-linejoin="round" stroke-linecap="butt" stroke-dasharray="2.0,6.0"></path><path d="M429.89075 158.30971L433.1942 167.38591L436.49768 158.30971Z" fill-rule="evenodd" fill="#073763" stroke="#073763" stroke-width="2.0" stroke-linecap="butt"></path><path d="M417.6824 185.7454L417.6824 185.7454C417.6824 177.21326 424.6273 170.29659 433.1942 170.29659L433.1942 170.29659C437.30823 170.29659 441.2537 171.92422 444.16272 174.82144C447.07175 177.71866 448.70602 181.64813 448.70602 185.7454L448.70602 185.7454C448.70602 194.27756 441.76117 201.19423 433.1942 201.19423L433.1942 201.19423C424.6273 201.19423 417.6824 194.27756 417.6824 185.7454Z" fill-rule="nonzero" fill="#cfe2f3" stroke="#073763" stroke-width="2.0" stroke-linejoin="round" stroke-linecap="butt"></path><path d="M426.92883 192.24332L432.1632 178.64957L434.1007 178.64957L439.6632 192.24332L437.61633 192.24332L436.02258 188.11832L430.33508 188.11832L428.8507 192.24332L426.92883 192.24332ZM430.8507 186.66519L435.46008 186.66519L434.05383 182.88394Q433.39758 181.18082 433.08508 180.07144Q432.81946 181.38394 432.3507 182.66519L430.8507 186.66519Z" fill-rule="nonzero" fill="#000000"></path><path d="M472.8399 237.00008L472.8399 237.00008C472.8399 228.46793 479.78476 221.55125 488.3517 221.55125L488.3517 221.55125C492.4657 221.55125 496.4112 223.1789 499.32022 226.07611C502.22925 228.97333 503.86353 232.9028 503.86353 237.00008L503.86353 237.00008C503.86353 245.53223 496.91864 252.4489 488.3517 252.4489L488.3517 252.4489C479.78476 252.4489 472.8399 245.53223 472.8399 237.00008Z" fill-rule="nonzero" fill="#cfe2f3" stroke="#073763" stroke-width="2.0" stroke-linejoin="round" stroke-linecap="butt"></path><path d="M487.41446 243.49799L487.41446 237.73236L482.18008 229.90424L484.36758 229.90424L487.03946 233.99799Q487.78946 235.15424 488.43008 236.29486Q489.03946 235.23236 489.91446 233.88861L492.53946 229.90424L494.64883 229.90424L489.21133 237.73236L489.21133 243.49799L487.41446 243.49799Z" fill-rule="nonzero" fill="#000000"></path><path d="M444.16272 196.66937L468.39786 218.1223" fill-rule="evenodd" stroke="#073763" stroke-width="2.0" stroke-linejoin="round" stroke-linecap="butt"></path><path d="M466.20825 220.59586L475.1939 224.13817L470.58746 215.64871Z" fill-rule="evenodd" fill="#073763" stroke="#073763" stroke-width="2.0" stroke-linecap="butt"></path><path d="M417.6824 237.00008L417.6824 237.00008C417.6824 228.46794 424.6273 221.55127 433.1942 221.55127L433.1942 221.55127C437.30823 221.55127 441.2537 223.17891 444.16272 226.07611C447.07175 228.97333 448.70602 232.9028 448.70602 237.00008L448.70602 237.00008C448.70602 245.53223 441.76117 252.4489 433.1942 252.4489L433.1942 252.4489C424.6273 252.4489 417.6824 245.53223 417.6824 237.00008Z" fill-rule="nonzero" fill="#cfe2f3" stroke="#073763" stroke-width="2.0" stroke-linejoin="round" stroke-linecap="butt"></path><path d="M427.0382 243.49799L432.30383 236.40424L427.6632 229.90424L429.80383 229.90424L432.27258 233.38861Q433.05383 234.46674 433.36633 235.06049Q433.81946 234.31049 434.44446 233.51361L437.17883 229.90424L439.14758 229.90424L434.36633 236.31049L439.50696 243.49799L437.2882 243.49799L433.86633 238.63861Q433.56946 238.23236 433.27258 237.73236Q432.81946 238.48236 432.61633 238.76361L429.21008 243.49799L427.0382 243.49799Z" fill-rule="nonzero" fill="#000000"></path><path d="M433.1942 201.19423L433.1942 209.55127" fill-rule="evenodd" stroke="#073763" stroke-width="2.0" stroke-linejoin="round" stroke-linecap="butt"></path><path d="M429.89075 209.55127L433.1942 218.62746L436.49768 209.55127Z" fill-rule="evenodd" fill="#073763" stroke="#073763" stroke-width="2.0" stroke-linecap="butt"></path><path d="M433.1942 252.4489L433.1942 276.27567" fill-rule="evenodd" stroke="#073763" stroke-width="2.0" stroke-linejoin="round" stroke-linecap="butt" stroke-dasharray="2.0,6.0"></path><path d="M429.89075 276.27567L433.1942 285.35187L436.49768 276.27567Z" fill-rule="evenodd" fill="#073763" stroke="#073763" stroke-width="2.0" stroke-linecap="butt"></path><path d="M417.6824 305.21826L417.6824 305.21826C417.6824 296.68613 424.6273 289.76944 433.1942 289.76944L433.1942 289.76944C437.30823 289.76944 441.2537 291.3971 444.16272 294.2943C447.07175 297.19153 448.70602 301.12097 448.70602 305.21826L448.70602 305.21826C448.70602 313.75043 441.76117 320.66708 433.1942 320.66708L433.1942 320.66708C424.6273 320.66708 417.6824 313.75043 417.6824 305.21826Z" fill-rule="nonzero" fill="#cfe2f3" stroke="#073763" stroke-width="2.0" stroke-linejoin="round" stroke-linecap="butt"></path><path d="M428.3507 311.7162L428.3507 298.12244L433.46008 298.12244Q435.00696 298.12244 435.95227 298.5287Q436.89758 298.93494 437.42883 299.7943Q437.96008 300.6537 437.96008 301.5912Q437.96008 302.4662 437.49133 303.23962Q437.02258 304.01306 436.05383 304.4818Q437.2882 304.8412 437.95227 305.7162Q438.61633 306.5912 438.61633 307.7787Q438.61633 308.7318 438.2179 309.55212Q437.81946 310.37244 437.2257 310.81775Q436.63196 311.26306 435.73352 311.48962Q434.83508 311.7162 433.5382 311.7162L428.3507 311.7162ZM430.14758 303.82556L433.08508 303.82556Q434.2882 303.82556 434.80383 303.6693Q435.49133 303.4662 435.8429 302.99744Q436.19446 302.5287 436.19446 301.80994Q436.19446 301.13806 435.86633 300.62244Q435.5382 300.1068 434.93665 299.9115Q434.33508 299.7162 432.86633 299.7162L430.14758 299.7162L430.14758 303.82556ZM430.14758 310.1068L433.5382 310.1068Q434.4132 310.1068 434.75696 310.0443Q435.38196 309.93494 435.80383 309.67712Q436.2257 309.4193 436.49133 308.9193Q436.75696 308.4193 436.75696 307.7787Q436.75696 307.01306 436.36633 306.45056Q435.9757 305.88806 435.2882 305.6615Q434.6007 305.43494 433.30383 305.43494L430.14758 305.43494L430.14758 310.1068Z" fill-rule="nonzero" fill="#000000"></path><path d="M374.5362 349.53323L374.5362 349.53323C374.5362 341.00107 381.48108 334.0844 390.048 334.0844L390.048 334.0844C394.162 334.0844 398.10748 335.71204 401.0165 338.60925C403.92554 341.50647 405.5598 345.43594 405.5598 349.53323L405.5598 349.53323C405.5598 358.06537 398.61493 364.98206 390.048 364.98206L390.048 364.98206C381.48108 364.98206 374.5362 358.06537 374.5362 349.53323Z" fill-rule="nonzero" fill="#cfe2f3" stroke="#073763" stroke-width="2.0" stroke-linejoin="round" stroke-linecap="butt"></path><path d="M383.78262 356.03113L389.017 342.43738L390.9545 342.43738L396.517 356.03113L394.47012 356.03113L392.87637 351.90613L387.18887 351.90613L385.7045 356.03113L383.78262 356.03113ZM387.7045 350.453L392.31387 350.453L390.90762 346.67175Q390.25137 344.96863 389.93887 343.85925Q389.67325 345.17175 389.2045 346.453L387.7045 350.453Z" fill-rule="nonzero" fill="#000000"></path><path d="M422.2257 316.1422L409.25403 329.8832" fill-rule="evenodd" stroke="#073763" stroke-width="2.0" stroke-linejoin="round" stroke-linecap="butt"></path><path d="M406.85184 327.61554L403.0236 336.48315L411.6562 332.1509Z" fill-rule="evenodd" fill="#073763" stroke="#073763" stroke-width="2.0" stroke-linecap="butt"></path><path d="M415.76654 297.75854C408.0487 289.12817 369.62524 262.4908 369.45944 245.97638C369.29367 229.46194 407.21973 206.556 414.7718 198.67192" fill-rule="nonzero" stroke="#073763" stroke-width="2.0" stroke-linejoin="round" stroke-linecap="butt" stroke-dasharray="8.0,6.0"></path><path d="M407.96753 204.36508L410.95456 202.19336" fill-rule="evenodd" stroke="#073763" stroke-width="2.0" stroke-linejoin="round" stroke-linecap="butt"></path><path d="M412.89716 204.86528L418.2956 196.85608L409.01196 199.52144Z" fill-rule="evenodd" fill="#073763" stroke="#073763" stroke-width="2.0" stroke-linecap="butt"></path></svg>

