<?xml version="1.0" standalone="yes"?>

<svg version="1.1" viewBox="0.0 0.0 960.0 720.0" fill="none" stroke="none" stroke-linecap="square" stroke-miterlimit="10" clip-path="url(#clip0)" xmlns="http://www.w3.org/2000/svg" xmlns:xlink="http://www.w3.org/1999/xlink"><clipPath id="clip0"><path d="M0 0L960.0 0L960.0 720.0L0 720.0L0 0Z" clip-rule="nonzero"></path></clipPath><path d="M31.811981 391.85574L106.426155 391.85574L106.426155 451.50928L31.811981 451.50928Z" fill-rule="nonzero" fill="#cfe2f3" stroke="#073763" stroke-width="2.0" stroke-linejoin="round" stroke-linecap="butt"></path><path d="M50.87448 407.16824L50.87448 393.5745L55.56198 393.5745Q57.140106 393.5745 57.983856 393.762Q59.140106 394.02762 59.96823 394.73074Q61.046356 395.65262 61.577606 397.06668Q62.108856 398.48074 62.108856 400.29324Q62.108856 401.84012 61.74948 403.03543Q61.390106 404.23074 60.827606 405.0198Q60.265106 405.80887 59.59323 406.25418Q58.921356 406.6995 57.96823 406.93387Q57.015106 407.16824 55.78073 407.16824L50.87448 407.16824ZM52.671356 405.55887L55.577606 405.55887Q56.921356 405.55887 57.68698 405.30887Q58.452606 405.05887 58.90573 404.60574Q59.546356 403.96512 59.90573 402.887Q60.265106 401.80887 60.265106 400.262Q60.265106 398.137 59.56198 396.98856Q58.858856 395.84012 57.858856 395.4495Q57.140106 395.16824 55.53073 395.16824L52.671356 395.16824L52.671356 405.55887ZM70.56198 405.9495Q69.62448 406.74637 68.76511 407.06668Q67.90573 407.387 66.92136 407.387Q65.31198 407.387 64.43698 406.59793Q63.56198 405.80887 63.56198 404.5745Q63.56198 403.84012 63.890106 403.24637Q64.21823 402.65262 64.74948 402.29324Q65.28073 401.93387 65.95261 401.74637Q66.45261 401.60574 67.43698 401.49637Q69.46823 401.24637 70.42136 400.91824Q70.42136 400.5745 70.42136 400.48074Q70.42136 399.46512 69.95261 399.04324Q69.31198 398.48074 68.04636 398.48074Q66.87448 398.48074 66.31198 398.887Q65.74948 399.29324 65.48386 400.35574L63.84323 400.12137Q64.07761 399.0745 64.58542 398.43387Q65.09323 397.79324 66.05417 397.44168Q67.01511 397.09012 68.29636 397.09012Q69.56198 397.09012 70.34323 397.387Q71.12448 397.68387 71.49948 398.137Q71.87448 398.59012 72.01511 399.27762Q72.10886 399.6995 72.10886 400.80887L72.10886 403.04324Q72.10886 405.37137 72.21042 405.98856Q72.31198 406.60574 72.64011 407.16824L70.89011 407.16824Q70.62448 406.65262 70.56198 405.9495ZM70.42136 402.23074Q69.51511 402.59012 67.68698 402.85574Q66.65573 402.99637 66.23386 403.18387Q65.81198 403.37137 65.57761 403.73074Q65.34323 404.09012 65.34323 404.52762Q65.34323 405.1995 65.85104 405.6448Q66.35886 406.09012 67.32761 406.09012Q68.29636 406.09012 69.04636 405.66043Q69.79636 405.23074 70.15573 404.512Q70.42136 403.93387 70.42136 402.84012L70.42136 402.23074ZM78.15573 405.66824L78.39011 407.15262Q77.68698 407.29324 77.12448 407.29324Q76.21823 407.29324 75.71823 407.00418Q75.21823 406.71512 75.01511 406.25418Q74.81198 405.79324 74.81198 404.27762L74.81198 398.62137L73.57761 398.62137L73.57761 397.30887L74.81198 397.30887L74.81198 394.87137L76.46823 393.87137L76.46823 397.30887L78.15573 397.30887L78.15573 398.62137L76.46823 398.62137L76.46823 404.37137Q76.46823 405.09012 76.55417 405.29324Q76.64011 405.49637 76.84323 405.62137Q77.04636 405.74637 77.42136 405.74637Q77.68698 405.74637 78.15573 405.66824ZM86.12448 405.9495Q85.18698 406.74637 84.32761 407.06668Q83.46823 407.387 82.48386 407.387Q80.87448 407.387 79.99948 406.59793Q79.12448 405.80887 79.12448 404.5745Q79.12448 403.84012 79.45261 403.24637Q79.78073 402.65262 80.31198 402.29324Q80.84323 401.93387 81.51511 401.74637Q82.01511 401.60574 82.99948 401.49637Q85.03073 401.24637 85.98386 400.91824Q85.98386 400.5745 85.98386 400.48074Q85.98386 399.46512 85.51511 399.04324Q84.87448 398.48074 83.60886 398.48074Q82.43698 398.48074 81.87448 398.887Q81.31198 399.29324 81.04636 400.35574L79.40573 400.12137Q79.64011 399.0745 80.14792 398.43387Q80.65573 397.79324 81.61667 397.44168Q82.57761 397.09012 83.85886 397.09012Q85.12448 397.09012 85.90573 397.387Q86.68698 397.68387 87.06198 398.137Q87.43698 398.59012 87.57761 399.27762Q87.67136 399.6995 87.67136 400.80887L87.67136 403.04324Q87.67136 405.37137 87.77292 405.98856Q87.87448 406.60574 88.20261 407.16824L86.45261 407.16824Q86.18698 406.65262 86.12448 405.9495ZM85.98386 402.23074Q85.07761 402.59012 83.24948 402.85574Q82.21823 402.99637 81.79636 403.18387Q81.37448 403.37137 81.14011 403.73074Q80.90573 404.09012 80.90573 404.52762Q80.90573 405.1995 81.41354 405.6448Q81.92136 406.09012 82.89011 406.09012Q83.85886 406.09012 84.60886 405.66043Q85.35886 405.23074 85.71823 404.512Q85.98386 403.93387 85.98386 402.84012L85.98386 402.23074Z" fill-rule="nonzero" fill="#000000"></path><path d="M47.68698 428.16824L47.68698 414.5745L52.796356 414.5745Q54.34323 414.5745 55.288544 414.98074Q56.233856 415.387 56.765106 416.24637Q57.296356 417.10574 57.296356 418.04324Q57.296356 418.91824 56.827606 419.69168Q56.358856 420.46512 55.390106 420.93387Q56.62448 421.29324 57.288544 422.16824Q57.952606 423.04324 57.952606 424.23074Q57.952606 425.18387 57.55417 426.00418Q57.15573 426.8245 56.56198 427.2698Q55.96823 427.71512 55.069794 427.94168Q54.171356 428.16824 52.87448 428.16824L47.68698 428.16824ZM49.483856 420.27762L52.421356 420.27762Q53.62448 420.27762 54.140106 420.12137Q54.827606 419.91824 55.17917 419.4495Q55.53073 418.98074 55.53073 418.262Q55.53073 417.59012 55.202606 417.0745Q54.87448 416.55887 54.27292 416.36356Q53.671356 416.16824 52.202606 416.16824L49.483856 416.16824L49.483856 420.27762ZM49.483856 426.55887L52.87448 426.55887Q53.74948 426.55887 54.09323 426.49637Q54.71823 426.387 55.140106 426.12918Q55.56198 425.87137 55.827606 425.37137Q56.09323 424.87137 56.09323 424.23074Q56.09323 423.46512 55.702606 422.90262Q55.31198 422.34012 54.62448 422.11356Q53.93698 421.887 52.640106 421.887L49.483856 421.887L49.483856 426.55887ZM59.96823 428.16824L59.96823 414.5745L61.640106 414.5745L61.640106 428.16824L59.96823 428.16824ZM63.515106 423.24637Q63.515106 420.512 65.04636 419.18387Q66.31198 418.09012 68.14011 418.09012Q70.17136 418.09012 71.46042 419.42606Q72.74948 420.762 72.74948 423.10574Q72.74948 425.012 72.17917 426.09793Q71.60886 427.18387 70.52292 427.78543Q69.43698 428.387 68.14011 428.387Q66.07761 428.387 64.79636 427.05887Q63.515106 425.73074 63.515106 423.24637ZM65.23386 423.24637Q65.23386 425.137 66.06198 426.0745Q66.89011 427.012 68.14011 427.012Q69.39011 427.012 70.21042 426.06668Q71.03073 425.12137 71.03073 423.18387Q71.03073 421.35574 70.20261 420.41824Q69.37448 419.48074 68.14011 419.48074Q66.89011 419.48074 66.06198 420.41824Q65.23386 421.35574 65.23386 423.24637ZM80.95261 424.55887L82.59323 424.77762Q82.32761 426.46512 81.21823 427.42606Q80.10886 428.387 78.48386 428.387Q76.46823 428.387 75.24167 427.06668Q74.01511 425.74637 74.01511 423.27762Q74.01511 421.68387 74.53854 420.48856Q75.06198 419.29324 76.14792 418.69168Q77.23386 418.09012 78.49948 418.09012Q80.10886 418.09012 81.12448 418.90262Q82.14011 419.71512 82.43698 421.21512L80.81198 421.46512Q80.57761 420.46512 79.98386 419.96512Q79.39011 419.46512 78.56198 419.46512Q77.29636 419.46512 76.50729 420.37137Q75.71823 421.27762 75.71823 423.23074Q75.71823 425.21512 76.48386 426.11356Q77.24948 427.012 78.46823 427.012Q79.45261 427.012 80.10886 426.41043Q80.76511 425.80887 80.95261 424.55887ZM83.85886 428.16824L83.85886 414.5745L85.53073 414.5745L85.53073 422.3245L89.48386 418.30887L91.64011 418.30887L87.87448 421.96512L92.01511 428.16824L89.95261 428.16824L86.70261 423.137L85.53073 424.262L85.53073 428.16824L83.85886 428.16824Z" fill-rule="nonzero" fill="#000000"></path><path d="M64.70261 442.46512Q64.70261 440.04324 65.20261 438.5745Q65.70261 437.10574 66.67917 436.30887Q67.65573 435.512 69.14011 435.512Q70.23386 435.512 71.06198 435.9495Q71.89011 436.387 72.42917 437.22293Q72.96823 438.05887 73.27292 439.24637Q73.57761 440.43387 73.57761 442.46512Q73.57761 444.85574 73.08542 446.3245Q72.59323 447.79324 71.61667 448.59793Q70.64011 449.40262 69.14011 449.40262Q67.17136 449.40262 66.06198 447.99637Q64.70261 446.29324 64.70261 442.46512ZM66.42136 442.46512Q66.42136 445.80887 67.21042 446.91824Q67.99948 448.02762 69.14011 448.02762Q70.29636 448.02762 71.07761 446.91043Q71.85886 445.79324 71.85886 442.46512Q71.85886 439.10574 71.07761 437.99637Q70.29636 436.887 69.12448 436.887Q67.96823 436.887 67.29636 437.87137Q66.42136 439.10574 66.42136 442.46512Z" fill-rule="nonzero" fill="#000000"></path><path d="M31.933527 296.15408L106.5477 296.15408L106.5477 355.80762L31.933527 355.80762Z" fill-rule="nonzero" fill="#cfe2f3" stroke="#073763" stroke-width="2.0" stroke-linejoin="round" stroke-linecap="butt"></path><path d="M48.96478 321.96658L48.96478 308.37283L50.77728 308.37283L50.77728 313.95096L57.83978 313.95096L57.83978 308.37283L59.636654 308.37283L59.636654 321.96658L57.83978 321.96658L57.83978 315.56033L50.77728 315.56033L50.77728 321.96658L48.96478 321.96658ZM68.621025 320.74783Q67.683525 321.5447 66.82415 321.86502Q65.964775 322.18533 64.9804 322.18533Q63.37103 322.18533 62.49603 321.39627Q61.62103 320.6072 61.62103 319.37283Q61.62103 318.63846 61.949154 318.0447Q62.27728 317.45096 62.80853 317.09158Q63.33978 316.7322 64.01165 316.5447Q64.51165 316.40408 65.496025 316.2947Q67.527275 316.0447 68.4804 315.71658Q68.4804 315.37283 68.4804 315.27908Q68.4804 314.26346 68.01165 313.84158Q67.371025 313.27908 66.1054 313.27908Q64.933525 313.27908 64.371025 313.68533Q63.80853 314.09158 63.542904 315.15408L61.90228 314.9197Q62.136654 313.87283 62.644466 313.2322Q63.15228 312.59158 64.11321 312.24002Q65.07415 311.88846 66.3554 311.88846Q67.621025 311.88846 68.402275 312.18533Q69.183525 312.4822 69.558525 312.93533Q69.933525 313.38846 70.07415 314.07596Q70.1679 314.49783 70.1679 315.6072L70.1679 317.84158Q70.1679 320.1697 70.26946 320.7869Q70.371025 321.40408 70.69915 321.96658L68.94915 321.96658Q68.683525 321.45096 68.621025 320.74783ZM68.4804 317.02908Q67.57415 317.38846 65.746025 317.65408Q64.714775 317.7947 64.2929 317.9822Q63.87103 318.1697 63.636654 318.52908Q63.40228 318.88846 63.40228 319.32596Q63.40228 319.99783 63.91009 320.44315Q64.4179 320.88846 65.38665 320.88846Q66.3554 320.88846 67.1054 320.45877Q67.8554 320.02908 68.214775 319.31033Q68.4804 318.7322 68.4804 317.63846L68.4804 317.02908ZM71.88665 319.02908L73.5429 318.76346Q73.683525 319.76346 74.31634 320.2869Q74.94915 320.81033 76.089775 320.81033Q77.246025 320.81033 77.80071 320.34158Q78.3554 319.87283 78.3554 319.24783Q78.3554 318.68533 77.871025 318.3572Q77.527275 318.13846 76.1679 317.7947Q74.32415 317.32596 73.61321 316.99002Q72.902275 316.65408 72.53509 316.05252Q72.1679 315.45096 72.1679 314.7322Q72.1679 314.07596 72.47259 313.51346Q72.777275 312.95096 73.2929 312.57596Q73.683525 312.2947 74.3554 312.09158Q75.027275 311.88846 75.7929 311.88846Q76.964775 311.88846 77.839775 312.2244Q78.714775 312.56033 79.12884 313.13065Q79.5429 313.70096 79.69915 314.65408L78.07415 314.87283Q77.964775 314.12283 77.42571 313.69315Q76.88665 313.26346 75.9179 313.26346Q74.76165 313.26346 74.277275 313.64627Q73.7929 314.02908 73.7929 314.52908Q73.7929 314.8572 73.996025 315.12283Q74.19915 315.38846 74.63665 315.56033Q74.88665 315.65408 76.1054 315.99783Q77.871025 316.46658 78.57415 316.76346Q79.277275 317.06033 79.67571 317.63846Q80.07415 318.21658 80.07415 319.07596Q80.07415 319.90408 79.589775 320.64627Q79.1054 321.38846 78.183525 321.7869Q77.26165 322.18533 76.1054 322.18533Q74.183525 322.18533 73.17571 321.38846Q72.1679 320.59158 71.88665 319.02908ZM81.88665 321.96658L81.88665 308.37283L83.558525 308.37283L83.558525 313.24783Q84.7304 311.88846 86.51165 311.88846Q87.6054 311.88846 88.41009 312.31815Q89.214775 312.74783 89.56634 313.51346Q89.9179 314.27908 89.9179 315.71658L89.9179 321.96658L88.246025 321.96658L88.246025 315.71658Q88.246025 314.46658 87.69915 313.89627Q87.152275 313.32596 86.1679 313.32596Q85.4179 313.32596 84.76946 313.70877Q84.121025 314.09158 83.839775 314.75565Q83.558525 315.4197 83.558525 316.57596L83.558525 321.96658L81.88665 321.96658Z" fill-rule="nonzero" fill="#000000"></path><path d="M56.52728 336.26346Q56.52728 333.84158 57.02728 332.37283Q57.52728 330.90408 58.50384 330.1072Q59.480404 329.31033 60.96478 329.31033Q62.05853 329.31033 62.886654 329.74783Q63.71478 330.18533 64.25384 331.02127Q64.7929 331.8572 65.09759 333.0447Q65.402275 334.2322 65.402275 336.26346Q65.402275 338.65408 64.91009 340.12283Q64.4179 341.59158 63.44134 342.39627Q62.46478 343.20096 60.96478 343.20096Q58.99603 343.20096 57.886654 341.7947Q56.52728 340.09158 56.52728 336.26346ZM58.24603 336.26346Q58.24603 339.6072 59.03509 340.71658Q59.824154 341.82596 60.96478 341.82596Q62.12103 341.82596 62.90228 340.70877Q63.68353 339.59158 63.68353 336.26346Q63.68353 332.90408 62.90228 331.7947Q62.12103 330.68533 60.949154 330.68533Q59.792904 330.68533 59.12103 331.6697Q58.24603 332.90408 58.24603 336.26346ZM66.7304 338.88846L66.7304 337.20096L71.8554 337.20096L71.8554 338.88846L66.7304 338.88846ZM73.121025 336.26346Q73.121025 333.84158 73.621025 332.37283Q74.121025 330.90408 75.09759 330.1072Q76.07415 329.31033 77.558525 329.31033Q78.652275 329.31033 79.4804 329.74783Q80.308525 330.18533 80.84759 331.02127Q81.38665 331.8572 81.69134 333.0447Q81.996025 334.2322 81.996025 336.26346Q81.996025 338.65408 81.50384 340.12283Q81.01165 341.59158 80.03509 342.39627Q79.058525 343.20096 77.558525 343.20096Q75.589775 343.20096 74.4804 341.7947Q73.121025 340.09158 73.121025 336.26346ZM74.839775 336.26346Q74.839775 339.6072 75.62884 340.71658Q76.4179 341.82596 77.558525 341.82596Q78.714775 341.82596 79.496025 340.70877Q80.277275 339.59158 80.277275 336.26346Q80.277275 332.90408 79.496025 331.7947Q78.714775 330.68533 77.5429 330.68533Q76.38665 330.68533 75.714775 331.6697Q74.839775 332.90408 74.839775 336.26346Z" fill-rule="nonzero" fill="#000000"></path><path d="M69.11907 391.8557L69.20015 367.80753" fill-rule="evenodd" stroke="#073763" stroke-width="2.0" stroke-linejoin="round" stroke-linecap="butt"></path><path d="M72.5036 367.8187L69.23076 358.7314L65.896706 367.79642Z" fill-rule="evenodd" fill="#073763" stroke="#073763" stroke-width="2.0" stroke-linecap="butt"></path><path d="M120.07717 391.59055L194.69135 391.59055L194.69135 451.24408L120.07717 451.24408Z" fill-rule="nonzero" fill="#cfe2f3" stroke="#073763" stroke-width="2.0" stroke-linejoin="round" stroke-linecap="butt"></path><path d="M139.13968 406.90305L139.13968 393.3093L143.82718 393.3093Q145.4053 393.3093 146.24905 393.4968Q147.4053 393.76242 148.23343 394.46555Q149.31155 395.38742 149.8428 396.80148Q150.37405 398.21555 150.37405 400.02805Q150.37405 401.57492 150.01468 402.77023Q149.6553 403.96555 149.0928 404.7546Q148.5303 405.54367 147.85843 405.98898Q147.18655 406.4343 146.23343 406.66867Q145.2803 406.90305 144.04593 406.90305L139.13968 406.90305ZM140.93655 405.29367L143.8428 405.29367Q145.18655 405.29367 145.95218 405.04367Q146.7178 404.79367 147.17093 404.34055Q147.81155 403.69992 148.17093 402.6218Q148.5303 401.54367 148.5303 399.9968Q148.5303 397.8718 147.82718 396.72336Q147.12405 395.57492 146.12405 395.1843Q145.4053 394.90305 143.79593 394.90305L140.93655 394.90305L140.93655 405.29367ZM158.82718 405.6843Q157.88968 406.48117 157.0303 406.80148Q156.17093 407.1218 155.18655 407.1218Q153.57718 407.1218 152.70218 406.33273Q151.82718 405.54367 151.82718 404.3093Q151.82718 403.57492 152.1553 402.98117Q152.48343 402.38742 153.01468 402.02805Q153.54593 401.66867 154.2178 401.48117Q154.7178 401.34055 155.70218 401.23117Q157.73343 400.98117 158.68655 400.65305Q158.68655 400.3093 158.68655 400.21555Q158.68655 399.19992 158.2178 398.77805Q157.57718 398.21555 156.31155 398.21555Q155.13968 398.21555 154.57718 398.6218Q154.01468 399.02805 153.74905 400.09055L152.10843 399.85617Q152.3428 398.8093 152.85062 398.16867Q153.35843 397.52805 154.31937 397.17648Q155.2803 396.82492 156.56155 396.82492Q157.82718 396.82492 158.60843 397.1218Q159.38968 397.41867 159.76468 397.8718Q160.13968 398.32492 160.2803 399.01242Q160.37405 399.4343 160.37405 400.54367L160.37405 402.77805Q160.37405 405.10617 160.47562 405.72336Q160.57718 406.34055 160.9053 406.90305L159.1553 406.90305Q158.88968 406.38742 158.82718 405.6843ZM158.68655 401.96555Q157.7803 402.32492 155.95218 402.59055Q154.92093 402.73117 154.49905 402.91867Q154.07718 403.10617 153.8428 403.46555Q153.60843 403.82492 153.60843 404.26242Q153.60843 404.9343 154.11624 405.3796Q154.62405 405.82492 155.5928 405.82492Q156.56155 405.82492 157.31155 405.39523Q158.06155 404.96555 158.42093 404.2468Q158.68655 403.66867 158.68655 402.57492L158.68655 401.96555ZM166.42093 405.40305L166.6553 406.88742Q165.95218 407.02805 165.38968 407.02805Q164.48343 407.02805 163.98343 406.73898Q163.48343 406.44992 163.2803 405.98898Q163.07718 405.52805 163.07718 404.01242L163.07718 398.35617L161.8428 398.35617L161.8428 397.04367L163.07718 397.04367L163.07718 394.60617L164.73343 393.60617L164.73343 397.04367L166.42093 397.04367L166.42093 398.35617L164.73343 398.35617L164.73343 404.10617Q164.73343 404.82492 164.81937 405.02805Q164.9053 405.23117 165.10843 405.35617Q165.31155 405.48117 165.68655 405.48117Q165.95218 405.48117 166.42093 405.40305ZM174.38968 405.6843Q173.45218 406.48117 172.5928 406.80148Q171.73343 407.1218 170.74905 407.1218Q169.13968 407.1218 168.26468 406.33273Q167.38968 405.54367 167.38968 404.3093Q167.38968 403.57492 167.7178 402.98117Q168.04593 402.38742 168.57718 402.02805Q169.10843 401.66867 169.7803 401.48117Q170.2803 401.34055 171.26468 401.23117Q173.29593 400.98117 174.24905 400.65305Q174.24905 400.3093 174.24905 400.21555Q174.24905 399.19992 173.7803 398.77805Q173.13968 398.21555 171.87405 398.21555Q170.70218 398.21555 170.13968 398.6218Q169.57718 399.02805 169.31155 400.09055L167.67093 399.85617Q167.9053 398.8093 168.41312 398.16867Q168.92093 397.52805 169.88187 397.17648Q170.8428 396.82492 172.12405 396.82492Q173.38968 396.82492 174.17093 397.1218Q174.95218 397.41867 175.32718 397.8718Q175.70218 398.32492 175.8428 399.01242Q175.93655 399.4343 175.93655 400.54367L175.93655 402.77805Q175.93655 405.10617 176.03812 405.72336Q176.13968 406.34055 176.4678 406.90305L174.7178 406.90305Q174.45218 406.38742 174.38968 405.6843ZM174.24905 401.96555Q173.3428 402.32492 171.51468 402.59055Q170.48343 402.73117 170.06155 402.91867Q169.63968 403.10617 169.4053 403.46555Q169.17093 403.82492 169.17093 404.26242Q169.17093 404.9343 169.67874 405.3796Q170.18655 405.82492 171.1553 405.82492Q172.12405 405.82492 172.87405 405.39523Q173.62405 404.96555 173.98343 404.2468Q174.24905 403.66867 174.24905 402.57492L174.24905 401.96555Z" fill-rule="nonzero" fill="#000000"></path><path d="M135.95218 427.90305L135.95218 414.3093L141.06155 414.3093Q142.60843 414.3093 143.55374 414.71555Q144.49905 415.1218 145.0303 415.98117Q145.56155 416.84055 145.56155 417.77805Q145.56155 418.65305 145.0928 419.42648Q144.62405 420.19992 143.6553 420.66867Q144.88968 421.02805 145.55374 421.90305Q146.2178 422.77805 146.2178 423.96555Q146.2178 424.91867 145.81937 425.73898Q145.42093 426.5593 144.82718 427.0046Q144.23343 427.44992 143.33499 427.67648Q142.43655 427.90305 141.13968 427.90305L135.95218 427.90305ZM137.74905 420.01242L140.68655 420.01242Q141.88968 420.01242 142.4053 419.85617Q143.0928 419.65305 143.44437 419.1843Q143.79593 418.71555 143.79593 417.9968Q143.79593 417.32492 143.4678 416.8093Q143.13968 416.29367 142.53812 416.09836Q141.93655 415.90305 140.4678 415.90305L137.74905 415.90305L137.74905 420.01242ZM137.74905 426.29367L141.13968 426.29367Q142.01468 426.29367 142.35843 426.23117Q142.98343 426.1218 143.4053 425.86398Q143.82718 425.60617 144.0928 425.10617Q144.35843 424.60617 144.35843 423.96555Q144.35843 423.19992 143.9678 422.63742Q143.57718 422.07492 142.88968 421.84836Q142.20218 421.6218 140.9053 421.6218L137.74905 421.6218L137.74905 426.29367ZM148.23343 427.90305L148.23343 414.3093L149.9053 414.3093L149.9053 427.90305L148.23343 427.90305ZM151.7803 422.98117Q151.7803 420.2468 153.31155 418.91867Q154.57718 417.82492 156.4053 417.82492Q158.43655 417.82492 159.72562 419.16086Q161.01468 420.4968 161.01468 422.84055Q161.01468 424.7468 160.44437 425.83273Q159.87405 426.91867 158.78812 427.52023Q157.70218 428.1218 156.4053 428.1218Q154.3428 428.1218 153.06155 426.79367Q151.7803 425.46555 151.7803 422.98117ZM153.49905 422.98117Q153.49905 424.8718 154.32718 425.8093Q155.1553 426.7468 156.4053 426.7468Q157.6553 426.7468 158.47562 425.80148Q159.29593 424.85617 159.29593 422.91867Q159.29593 421.09055 158.4678 420.15305Q157.63968 419.21555 156.4053 419.21555Q155.1553 419.21555 154.32718 420.15305Q153.49905 421.09055 153.49905 422.98117ZM169.2178 424.29367L170.85843 424.51242Q170.5928 426.19992 169.48343 427.16086Q168.37405 428.1218 166.74905 428.1218Q164.73343 428.1218 163.50687 426.80148Q162.2803 425.48117 162.2803 423.01242Q162.2803 421.41867 162.80374 420.22336Q163.32718 419.02805 164.41312 418.42648Q165.49905 417.82492 166.76468 417.82492Q168.37405 417.82492 169.38968 418.63742Q170.4053 419.44992 170.70218 420.94992L169.07718 421.19992Q168.8428 420.19992 168.24905 419.69992Q167.6553 419.19992 166.82718 419.19992Q165.56155 419.19992 164.77249 420.10617Q163.98343 421.01242 163.98343 422.96555Q163.98343 424.94992 164.74905 425.84836Q165.51468 426.7468 166.73343 426.7468Q167.7178 426.7468 168.37405 426.14523Q169.0303 425.54367 169.2178 424.29367ZM172.12405 427.90305L172.12405 414.3093L173.79593 414.3093L173.79593 422.0593L177.74905 418.04367L179.9053 418.04367L176.13968 421.69992L180.2803 427.90305L178.2178 427.90305L174.9678 422.8718L173.79593 423.9968L173.79593 427.90305L172.12405 427.90305Z" fill-rule="nonzero" fill="#000000"></path><path d="M159.26468 448.90305L157.5928 448.90305L157.5928 438.26242Q156.99905 438.84055 156.01468 439.41086Q155.0303 439.98117 154.24905 440.27805L154.24905 438.65305Q155.6553 437.9968 156.70218 437.0593Q157.74905 436.1218 158.18655 435.2468L159.26468 435.2468L159.26468 448.90305Z" fill-rule="nonzero" fill="#000000"></path><path d="M120.19872 295.8889L194.8129 295.8889L194.8129 355.54242L120.19872 355.54242Z" fill-rule="nonzero" fill="#cfe2f3" stroke="#073763" stroke-width="2.0" stroke-linejoin="round" stroke-linecap="butt"></path><path d="M137.22997 321.7014L137.22997 308.10764L139.04247 308.10764L139.04247 313.68576L146.10497 313.68576L146.10497 308.10764L147.90184 308.10764L147.90184 321.7014L146.10497 321.7014L146.10497 315.29514L139.04247 315.29514L139.04247 321.7014L137.22997 321.7014ZM156.88622 320.48264Q155.94872 321.2795 155.08934 321.59982Q154.22997 321.92014 153.24559 321.92014Q151.63622 321.92014 150.76122 321.13107Q149.88622 320.342 149.88622 319.10764Q149.88622 318.37326 150.21434 317.7795Q150.54247 317.18576 151.07372 316.8264Q151.60497 316.467 152.27684 316.2795Q152.77684 316.1389 153.76122 316.0295Q155.79247 315.7795 156.74559 315.4514Q156.74559 315.10764 156.74559 315.0139Q156.74559 313.99826 156.27684 313.5764Q155.63622 313.0139 154.37059 313.0139Q153.19872 313.0139 152.63622 313.42014Q152.07372 313.8264 151.80809 314.8889L150.16747 314.6545Q150.40184 313.60764 150.90965 312.967Q151.41747 312.3264 152.3784 311.97482Q153.33934 311.62326 154.62059 311.62326Q155.88622 311.62326 156.66747 311.92014Q157.44872 312.217 157.82372 312.67014Q158.19872 313.12326 158.33934 313.81076Q158.43309 314.23264 158.43309 315.342L158.43309 317.5764Q158.43309 319.9045 158.53465 320.5217Q158.63622 321.1389 158.96434 321.7014L157.21434 321.7014Q156.94872 321.18576 156.88622 320.48264ZM156.74559 316.7639Q155.83934 317.12326 154.01122 317.3889Q152.97997 317.5295 152.55809 317.717Q152.13622 317.9045 151.90184 318.2639Q151.66747 318.62326 151.66747 319.06076Q151.66747 319.73264 152.17528 320.17795Q152.68309 320.62326 153.65184 320.62326Q154.62059 320.62326 155.37059 320.19357Q156.12059 319.7639 156.47997 319.04514Q156.74559 318.467 156.74559 317.37326L156.74559 316.7639ZM160.15184 318.7639L161.80809 318.49826Q161.94872 319.49826 162.58153 320.0217Q163.21434 320.54514 164.35497 320.54514Q165.51122 320.54514 166.0659 320.0764Q166.62059 319.60764 166.62059 318.98264Q166.62059 318.42014 166.13622 318.092Q165.79247 317.87326 164.43309 317.5295Q162.58934 317.06076 161.8784 316.72482Q161.16747 316.3889 160.80028 315.78732Q160.43309 315.18576 160.43309 314.467Q160.43309 313.81076 160.73778 313.24826Q161.04247 312.68576 161.55809 312.31076Q161.94872 312.0295 162.62059 311.8264Q163.29247 311.62326 164.05809 311.62326Q165.22997 311.62326 166.10497 311.9592Q166.97997 312.29514 167.39403 312.86545Q167.80809 313.43576 167.96434 314.3889L166.33934 314.60764Q166.22997 313.85764 165.6909 313.42795Q165.15184 312.99826 164.18309 312.99826Q163.02684 312.99826 162.54247 313.38107Q162.05809 313.7639 162.05809 314.2639Q162.05809 314.592 162.26122 314.85764Q162.46434 315.12326 162.90184 315.29514Q163.15184 315.3889 164.37059 315.73264Q166.13622 316.2014 166.83934 316.49826Q167.54247 316.79514 167.9409 317.37326Q168.33934 317.9514 168.33934 318.81076Q168.33934 319.6389 167.85497 320.38107Q167.37059 321.12326 166.44872 321.5217Q165.52684 321.92014 164.37059 321.92014Q162.44872 321.92014 161.4409 321.12326Q160.43309 320.3264 160.15184 318.7639ZM170.15184 321.7014L170.15184 308.10764L171.82372 308.10764L171.82372 312.98264Q172.99559 311.62326 174.77684 311.62326Q175.87059 311.62326 176.67528 312.05295Q177.47997 312.48264 177.83153 313.24826Q178.18309 314.0139 178.18309 315.4514L178.18309 321.7014L176.51122 321.7014L176.51122 315.4514Q176.51122 314.2014 175.96434 313.63107Q175.41747 313.06076 174.43309 313.06076Q173.68309 313.06076 173.03465 313.44357Q172.38622 313.8264 172.10497 314.49045Q171.82372 315.1545 171.82372 316.31076L171.82372 321.7014L170.15184 321.7014Z" fill-rule="nonzero" fill="#000000"></path><path d="M144.79247 335.99826Q144.79247 333.5764 145.29247 332.10764Q145.79247 330.6389 146.76903 329.842Q147.74559 329.04514 149.22997 329.04514Q150.32372 329.04514 151.15184 329.48264Q151.97997 329.92014 152.51903 330.75607Q153.05809 331.592 153.36278 332.7795Q153.66747 333.967 153.66747 335.99826Q153.66747 338.3889 153.17528 339.85764Q152.68309 341.3264 151.70653 342.13107Q150.72997 342.93576 149.22997 342.93576Q147.26122 342.93576 146.15184 341.5295Q144.79247 339.8264 144.79247 335.99826ZM146.51122 335.99826Q146.51122 339.342 147.30028 340.4514Q148.08934 341.56076 149.22997 341.56076Q150.38622 341.56076 151.16747 340.44357Q151.94872 339.3264 151.94872 335.99826Q151.94872 332.6389 151.16747 331.5295Q150.38622 330.42014 149.21434 330.42014Q148.05809 330.42014 147.38622 331.4045Q146.51122 332.6389 146.51122 335.99826ZM154.99559 338.62326L154.99559 336.93576L160.12059 336.93576L160.12059 338.62326L154.99559 338.62326ZM167.68309 342.7014L166.01122 342.7014L166.01122 332.06076Q165.41747 332.6389 164.43309 333.2092Q163.44872 333.7795 162.66747 334.0764L162.66747 332.4514Q164.07372 331.79514 165.12059 330.85764Q166.16747 329.92014 166.60497 329.04514L167.68309 329.04514L167.68309 342.7014Z" fill-rule="nonzero" fill="#000000"></path><path d="M157.38426 391.59055L157.46535 367.54233" fill-rule="evenodd" stroke="#073763" stroke-width="2.0" stroke-linejoin="round" stroke-linecap="butt"></path><path d="M160.76878 367.55347L157.49594 358.4662L154.1619 367.5312Z" fill-rule="evenodd" fill="#073763" stroke="#073763" stroke-width="2.0" stroke-linecap="butt"></path><path d="M208.16557 391.67892L282.77975 391.67892L282.77975 451.3325L208.16557 451.3325Z" fill-rule="nonzero" fill="#cfe2f3" stroke="#073763" stroke-width="2.0" stroke-linejoin="round" stroke-linecap="butt"></path><path d="M227.22807 406.99142L227.22807 393.39767L231.91557 393.39767Q233.4937 393.39767 234.33745 393.58517Q235.4937 393.8508 236.32182 394.55392Q237.39995 395.4758 237.9312 396.88986Q238.46245 398.30392 238.46245 400.11642Q238.46245 401.6633 238.10307 402.8586Q237.7437 404.05392 237.1812 404.843Q236.6187 405.63205 235.94682 406.07736Q235.27495 406.52267 234.32182 406.75705Q233.3687 406.99142 232.13432 406.99142L227.22807 406.99142ZM229.02495 405.38205L231.9312 405.38205Q233.27495 405.38205 234.04057 405.13205Q234.8062 404.88205 235.25932 404.42892Q235.89995 403.7883 236.25932 402.71017Q236.6187 401.63205 236.6187 400.08517Q236.6187 397.96017 235.91557 396.81174Q235.21245 395.6633 234.21245 395.27267Q233.4937 394.99142 231.88432 394.99142L229.02495 394.99142L229.02495 405.38205ZM246.91557 405.77267Q245.97807 406.56955 245.1187 406.88986Q244.25932 407.21017 243.27495 407.21017Q241.66557 407.21017 240.79057 406.4211Q239.91557 405.63205 239.91557 404.39767Q239.91557 403.6633 240.2437 403.06955Q240.57182 402.4758 241.10307 402.11642Q241.63432 401.75705 242.3062 401.56955Q242.8062 401.42892 243.79057 401.31955Q245.82182 401.06955 246.77495 400.74142Q246.77495 400.39767 246.77495 400.30392Q246.77495 399.2883 246.3062 398.86642Q245.66557 398.30392 244.39995 398.30392Q243.22807 398.30392 242.66557 398.71017Q242.10307 399.11642 241.83745 400.17892L240.19682 399.94455Q240.4312 398.89767 240.93901 398.25705Q241.44682 397.61642 242.40776 397.26486Q243.3687 396.9133 244.64995 396.9133Q245.91557 396.9133 246.69682 397.21017Q247.47807 397.50705 247.85307 397.96017Q248.22807 398.4133 248.3687 399.1008Q248.46245 399.52267 248.46245 400.63205L248.46245 402.86642Q248.46245 405.19455 248.56401 405.81174Q248.66557 406.42892 248.9937 406.99142L247.2437 406.99142Q246.97807 406.4758 246.91557 405.77267ZM246.77495 402.05392Q245.8687 402.4133 244.04057 402.67892Q243.00932 402.81955 242.58745 403.00705Q242.16557 403.19455 241.9312 403.55392Q241.69682 403.9133 241.69682 404.3508Q241.69682 405.02267 242.20464 405.468Q242.71245 405.9133 243.6812 405.9133Q244.64995 405.9133 245.39995 405.4836Q246.14995 405.05392 246.50932 404.33517Q246.77495 403.75705 246.77495 402.6633L246.77495 402.05392ZM254.50932 405.49142L254.7437 406.9758Q254.04057 407.11642 253.47807 407.11642Q252.57182 407.11642 252.07182 406.82736Q251.57182 406.5383 251.3687 406.07736Q251.16557 405.61642 251.16557 404.1008L251.16557 398.44455L249.9312 398.44455L249.9312 397.13205L251.16557 397.13205L251.16557 394.69455L252.82182 393.69455L252.82182 397.13205L254.50932 397.13205L254.50932 398.44455L252.82182 398.44455L252.82182 404.19455Q252.82182 404.9133 252.90776 405.11642Q252.9937 405.31955 253.19682 405.44455Q253.39995 405.56955 253.77495 405.56955Q254.04057 405.56955 254.50932 405.49142ZM262.47806 405.77267Q261.54056 406.56955 260.68118 406.88986Q259.8218 407.21017 258.83743 407.21017Q257.22806 407.21017 256.35306 406.4211Q255.47807 405.63205 255.47807 404.39767Q255.47807 403.6633 255.8062 403.06955Q256.1343 402.4758 256.66556 402.11642Q257.1968 401.75705 257.86868 401.56955Q258.36868 401.42892 259.35306 401.31955Q261.3843 401.06955 262.33743 400.74142Q262.33743 400.39767 262.33743 400.30392Q262.33743 399.2883 261.86868 398.86642Q261.22806 398.30392 259.96243 398.30392Q258.79056 398.30392 258.22806 398.71017Q257.66556 399.11642 257.39993 400.17892L255.75932 399.94455Q255.9937 398.89767 256.5015 398.25705Q257.0093 397.61642 257.97025 397.26486Q258.93118 396.9133 260.21243 396.9133Q261.47806 396.9133 262.2593 397.21017Q263.04056 397.50705 263.41556 397.96017Q263.79056 398.4133 263.93118 399.1008Q264.02493 399.52267 264.02493 400.63205L264.02493 402.86642Q264.02493 405.19455 264.1265 405.81174Q264.22806 406.42892 264.55618 406.99142L262.80618 406.99142Q262.54056 406.4758 262.47806 405.77267ZM262.33743 402.05392Q261.43118 402.4133 259.60306 402.67892Q258.5718 402.81955 258.14993 403.00705Q257.72806 403.19455 257.49368 403.55392Q257.2593 403.9133 257.2593 404.3508Q257.2593 405.02267 257.76712 405.468Q258.27493 405.9133 259.24368 405.9133Q260.21243 405.9133 260.96243 405.4836Q261.71243 405.05392 262.0718 404.33517Q262.33743 403.75705 262.33743 402.6633L262.33743 402.05392Z" fill-rule="nonzero" fill="#000000"></path><path d="M224.04057 427.99142L224.04057 414.39767L229.14995 414.39767Q230.69682 414.39767 231.64214 414.80392Q232.58745 415.21017 233.1187 416.06955Q233.64995 416.92892 233.64995 417.86642Q233.64995 418.74142 233.1812 419.51486Q232.71245 420.2883 231.7437 420.75705Q232.97807 421.11642 233.64214 421.99142Q234.3062 422.86642 234.3062 424.05392Q234.3062 425.00705 233.90776 425.82736Q233.50932 426.64767 232.91557 427.093Q232.32182 427.5383 231.42339 427.76486Q230.52495 427.99142 229.22807 427.99142L224.04057 427.99142ZM225.83745 420.1008L228.77495 420.1008Q229.97807 420.1008 230.4937 419.94455Q231.1812 419.74142 231.53276 419.27267Q231.88432 418.80392 231.88432 418.08517Q231.88432 417.4133 231.5562 416.89767Q231.22807 416.38205 230.62651 416.18674Q230.02495 415.99142 228.5562 415.99142L225.83745 415.99142L225.83745 420.1008ZM225.83745 426.38205L229.22807 426.38205Q230.10307 426.38205 230.44682 426.31955Q231.07182 426.21017 231.4937 425.95236Q231.91557 425.69455 232.1812 425.19455Q232.44682 424.69455 232.44682 424.05392Q232.44682 423.2883 232.0562 422.7258Q231.66557 422.1633 230.97807 421.93674Q230.29057 421.71017 228.9937 421.71017L225.83745 421.71017L225.83745 426.38205ZM236.32182 427.99142L236.32182 414.39767L237.9937 414.39767L237.9937 427.99142L236.32182 427.99142ZM239.8687 423.06955Q239.8687 420.33517 241.39995 419.00705Q242.66557 417.9133 244.4937 417.9133Q246.52495 417.9133 247.81401 419.24924Q249.10307 420.58517 249.10307 422.92892Q249.10307 424.83517 248.53276 425.9211Q247.96245 427.00705 246.87651 427.6086Q245.79057 428.21017 244.4937 428.21017Q242.4312 428.21017 241.14995 426.88205Q239.8687 425.55392 239.8687 423.06955ZM241.58745 423.06955Q241.58745 424.96017 242.41557 425.89767Q243.2437 426.83517 244.4937 426.83517Q245.7437 426.83517 246.56401 425.88986Q247.38432 424.94455 247.38432 423.00705Q247.38432 421.17892 246.5562 420.24142Q245.72807 419.30392 244.4937 419.30392Q243.2437 419.30392 242.41557 420.24142Q241.58745 421.17892 241.58745 423.06955ZM257.30618 424.38205L258.9468 424.6008Q258.68118 426.2883 257.5718 427.24924Q256.46243 428.21017 254.83745 428.21017Q252.82182 428.21017 251.59526 426.88986Q250.3687 425.56955 250.3687 423.1008Q250.3687 421.50705 250.89214 420.31174Q251.41557 419.11642 252.50151 418.51486Q253.58745 417.9133 254.85307 417.9133Q256.46243 417.9133 257.47806 418.7258Q258.49368 419.5383 258.79056 421.0383L257.16556 421.2883Q256.93118 420.2883 256.33743 419.7883Q255.7437 419.2883 254.91557 419.2883Q253.64995 419.2883 252.86089 420.19455Q252.07182 421.1008 252.07182 423.05392Q252.07182 425.0383 252.83745 425.93674Q253.60307 426.83517 254.82182 426.83517Q255.8062 426.83517 256.46243 426.2336Q257.11868 425.63205 257.30618 424.38205ZM260.21243 427.99142L260.21243 414.39767L261.8843 414.39767L261.8843 422.14767L265.83743 418.13205L267.99368 418.13205L264.22806 421.7883L268.36868 427.99142L266.30618 427.99142L263.05618 422.96017L261.8843 424.08517L261.8843 427.99142L260.21243 427.99142Z" fill-rule="nonzero" fill="#000000"></path><path d="M249.83745 447.38205L249.83745 448.99142L240.85307 448.99142Q240.83745 448.38205 241.04057 447.83517Q241.38432 446.9133 242.14214 446.02267Q242.89995 445.13205 244.32182 443.96017Q246.54057 442.14767 247.32182 441.08517Q248.10307 440.02267 248.10307 439.06955Q248.10307 438.08517 247.39214 437.39767Q246.6812 436.71017 245.54057 436.71017Q244.33745 436.71017 243.61089 437.43674Q242.88432 438.1633 242.88432 439.44455L241.16557 439.27267Q241.33745 437.3508 242.4937 436.343Q243.64995 435.33517 245.58745 435.33517Q247.54057 435.33517 248.6812 436.4211Q249.82182 437.50705 249.82182 439.11642Q249.82182 439.92892 249.48589 440.718Q249.14995 441.50705 248.37651 442.37424Q247.60307 443.24142 245.8062 444.77267Q244.3062 446.0383 243.87651 446.4836Q243.44682 446.92892 243.16557 447.38205L249.83745 447.38205Z" fill-rule="nonzero" fill="#000000"></path><path d="M208.28712 295.97726L282.9013 295.97726L282.9013 355.63083L208.28712 355.63083Z" fill-rule="nonzero" fill="#cfe2f3" stroke="#073763" stroke-width="2.0" stroke-linejoin="round" stroke-linecap="butt"></path><path d="M225.31837 321.78976L225.31837 308.196L227.13087 308.196L227.13087 313.77414L234.19337 313.77414L234.19337 308.196L235.99025 308.196L235.99025 321.78976L234.19337 321.78976L234.19337 315.3835L227.13087 315.3835L227.13087 321.78976L225.31837 321.78976ZM244.97462 320.571Q244.03712 321.3679 243.17775 321.6882Q242.31837 322.0085 241.334 322.0085Q239.72462 322.0085 238.84962 321.21945Q237.97462 320.4304 237.97462 319.196Q237.97462 318.46164 238.30275 317.8679Q238.63087 317.27414 239.16212 316.91476Q239.69337 316.5554 240.36525 316.3679Q240.86525 316.22726 241.84962 316.1179Q243.88087 315.8679 244.834 315.53976Q244.834 315.196 244.834 315.10226Q244.834 314.08664 244.36525 313.66476Q243.72462 313.10226 242.459 313.10226Q241.28712 313.10226 240.72462 313.5085Q240.16212 313.91476 239.8965 314.97726L238.25587 314.7429Q238.49025 313.696 238.99806 313.0554Q239.50587 312.41476 240.46681 312.0632Q241.42775 311.71164 242.709 311.71164Q243.97462 311.71164 244.75587 312.0085Q245.53712 312.3054 245.91212 312.7585Q246.28712 313.21164 246.42775 313.89914Q246.5215 314.321 246.5215 315.4304L246.5215 317.66476Q246.5215 319.9929 246.62306 320.61008Q246.72462 321.22726 247.05275 321.78976L245.30275 321.78976Q245.03712 321.27414 244.97462 320.571ZM244.834 316.85226Q243.92775 317.21164 242.09962 317.47726Q241.06837 317.6179 240.6465 317.8054Q240.22462 317.9929 239.99025 318.35226Q239.75587 318.71164 239.75587 319.14914Q239.75587 319.821 240.26369 320.26633Q240.7715 320.71164 241.74025 320.71164Q242.709 320.71164 243.459 320.28195Q244.209 319.85226 244.56837 319.1335Q244.834 318.5554 244.834 317.46164L244.834 316.85226ZM248.24025 318.85226L249.8965 318.58664Q250.03712 319.58664 250.66994 320.11008Q251.30275 320.6335 252.44337 320.6335Q253.59962 320.6335 254.15431 320.16476Q254.709 319.696 254.709 319.071Q254.709 318.5085 254.22462 318.1804Q253.88087 317.96164 252.5215 317.6179Q250.67775 317.14914 249.96681 316.8132Q249.25587 316.47726 248.88869 315.8757Q248.5215 315.27414 248.5215 314.5554Q248.5215 313.89914 248.82619 313.33664Q249.13087 312.77414 249.6465 312.39914Q250.03712 312.1179 250.709 311.91476Q251.38087 311.71164 252.1465 311.71164Q253.31837 311.71164 254.19337 312.04758Q255.06837 312.3835 255.48244 312.95383Q255.8965 313.52414 256.05273 314.47726L254.42775 314.696Q254.31837 313.946 253.77931 313.51633Q253.24025 313.08664 252.2715 313.08664Q251.11525 313.08664 250.63087 313.46945Q250.1465 313.85226 250.1465 314.35226Q250.1465 314.6804 250.34962 314.946Q250.55275 315.21164 250.99025 315.3835Q251.24025 315.47726 252.459 315.821Q254.22462 316.28976 254.92775 316.58664Q255.63087 316.8835 256.0293 317.46164Q256.42773 318.03976 256.42773 318.89914Q256.42773 319.72726 255.94337 320.46945Q255.459 321.21164 254.53712 321.61008Q253.61525 322.0085 252.459 322.0085Q250.53712 322.0085 249.52931 321.21164Q248.5215 320.41476 248.24025 318.85226ZM258.24023 321.78976L258.24023 308.196L259.9121 308.196L259.9121 313.071Q261.08398 311.71164 262.86523 311.71164Q263.95898 311.71164 264.76367 312.14133Q265.56836 312.571 265.91992 313.33664Q266.27148 314.10226 266.27148 315.53976L266.27148 321.78976L264.5996 321.78976L264.5996 315.53976Q264.5996 314.28976 264.05273 313.71945Q263.50586 313.14914 262.52148 313.14914Q261.77148 313.14914 261.12305 313.53195Q260.4746 313.91476 260.19336 314.57883Q259.9121 315.2429 259.9121 316.39914L259.9121 321.78976L258.24023 321.78976Z" fill-rule="nonzero" fill="#000000"></path><path d="M232.88087 336.08664Q232.88087 333.66476 233.38087 332.196Q233.88087 330.72726 234.85744 329.9304Q235.834 329.1335 237.31837 329.1335Q238.41212 329.1335 239.24025 329.571Q240.06837 330.0085 240.60744 330.84445Q241.1465 331.6804 241.45119 332.8679Q241.75587 334.0554 241.75587 336.08664Q241.75587 338.47726 241.26369 339.946Q240.7715 341.41476 239.79494 342.21945Q238.81837 343.02414 237.31837 343.02414Q235.34962 343.02414 234.24025 341.6179Q232.88087 339.91476 232.88087 336.08664ZM234.59962 336.08664Q234.59962 339.4304 235.38869 340.53976Q236.17775 341.64914 237.31837 341.64914Q238.47462 341.64914 239.25587 340.53195Q240.03712 339.41476 240.03712 336.08664Q240.03712 332.72726 239.25587 331.6179Q238.47462 330.5085 237.30275 330.5085Q236.1465 330.5085 235.47462 331.4929Q234.59962 332.72726 234.59962 336.08664ZM243.084 338.71164L243.084 337.02414L248.209 337.02414L248.209 338.71164L243.084 338.71164ZM258.25586 341.1804L258.25586 342.78976L249.2715 342.78976Q249.25587 342.1804 249.459 341.6335Q249.80275 340.71164 250.56056 339.821Q251.31837 338.9304 252.74025 337.7585Q254.959 335.946 255.74025 334.8835Q256.52148 333.821 256.52148 332.8679Q256.52148 331.8835 255.81056 331.196Q255.09962 330.5085 253.959 330.5085Q252.75587 330.5085 252.02931 331.23508Q251.30275 331.96164 251.30275 333.2429L249.584 333.071Q249.75587 331.14914 250.91212 330.14133Q252.06837 329.1335 254.00587 329.1335Q255.959 329.1335 257.0996 330.21945Q258.24023 331.3054 258.24023 332.91476Q258.24023 333.72726 257.9043 334.51633Q257.56836 335.3054 256.79492 336.17258Q256.02148 337.03976 254.22462 338.571Q252.72462 339.83664 252.29494 340.28195Q251.86525 340.72726 251.584 341.1804L258.25586 341.1804Z" fill-rule="nonzero" fill="#000000"></path><path d="M245.47267 391.67892L245.55374 367.63074" fill-rule="evenodd" stroke="#073763" stroke-width="2.0" stroke-linejoin="round" stroke-linecap="butt"></path><path d="M248.8572 367.6419L245.58435 358.55463L242.2503 367.61963Z" fill-rule="evenodd" fill="#073763" stroke="#073763" stroke-width="2.0" stroke-linecap="butt"></path><path d="M295.75674 391.76733L370.3709 391.76733L370.3709 451.42087L295.75674 451.42087Z" fill-rule="nonzero" fill="#cfe2f3" stroke="#073763" stroke-width="2.0" stroke-linejoin="round" stroke-linecap="butt"></path><path d="M314.81924 407.07983L314.81924 393.48608L319.50674 393.48608Q321.08487 393.48608 321.92862 393.67358Q323.08487 393.9392 323.913 394.64233Q324.99112 395.5642 325.52237 396.97827Q326.05362 398.39233 326.05362 400.20483Q326.05362 401.7517 325.69424 402.94702Q325.33487 404.14233 324.77237 404.9314Q324.20987 405.72046 323.538 406.16577Q322.86612 406.61108 321.913 406.84546Q320.95987 407.07983 319.7255 407.07983L314.81924 407.07983ZM316.61612 405.47046L319.52237 405.47046Q320.86612 405.47046 321.63174 405.22046Q322.39737 404.97046 322.8505 404.51733Q323.49112 403.8767 323.8505 402.79858Q324.20987 401.72046 324.20987 400.17358Q324.20987 398.04858 323.50674 396.90015Q322.80362 395.7517 321.80362 395.36108Q321.08487 395.07983 319.4755 395.07983L316.61612 395.07983L316.61612 405.47046ZM334.50674 405.86108Q333.56924 406.65796 332.70987 406.97827Q331.8505 407.29858 330.86612 407.29858Q329.25674 407.29858 328.38174 406.50952Q327.50674 405.72046 327.50674 404.48608Q327.50674 403.7517 327.83487 403.15796Q328.163 402.5642 328.69424 402.20483Q329.2255 401.84546 329.89737 401.65796Q330.39737 401.51733 331.38174 401.40796Q333.413 401.15796 334.36612 400.82983Q334.36612 400.48608 334.36612 400.39233Q334.36612 399.3767 333.89737 398.95483Q333.25674 398.39233 331.99112 398.39233Q330.81924 398.39233 330.25674 398.79858Q329.69424 399.20483 329.42862 400.26733L327.788 400.03296Q328.02237 398.98608 328.53018 398.34546Q329.038 397.70483 329.99893 397.35327Q330.95987 397.0017 332.24112 397.0017Q333.50674 397.0017 334.288 397.29858Q335.06924 397.59546 335.44424 398.04858Q335.81924 398.5017 335.95987 399.1892Q336.05362 399.61108 336.05362 400.72046L336.05362 402.95483Q336.05362 405.28296 336.15518 405.90015Q336.25674 406.51733 336.58487 407.07983L334.83487 407.07983Q334.56924 406.5642 334.50674 405.86108ZM334.36612 402.14233Q333.45987 402.5017 331.63174 402.76733Q330.6005 402.90796 330.17862 403.09546Q329.75674 403.28296 329.52237 403.64233Q329.288 404.0017 329.288 404.4392Q329.288 405.11108 329.7958 405.5564Q330.30362 406.0017 331.27237 406.0017Q332.24112 406.0017 332.99112 405.57202Q333.74112 405.14233 334.1005 404.42358Q334.36612 403.84546 334.36612 402.7517L334.36612 402.14233ZM342.1005 405.57983L342.33487 407.0642Q341.63174 407.20483 341.06924 407.20483Q340.163 407.20483 339.663 406.91577Q339.163 406.6267 338.95987 406.16577Q338.75674 405.70483 338.75674 404.1892L338.75674 398.53296L337.52237 398.53296L337.52237 397.22046L338.75674 397.22046L338.75674 394.78296L340.413 393.78296L340.413 397.22046L342.1005 397.22046L342.1005 398.53296L340.413 398.53296L340.413 404.28296Q340.413 405.0017 340.49893 405.20483Q340.58487 405.40796 340.788 405.53296Q340.99112 405.65796 341.36612 405.65796Q341.63174 405.65796 342.1005 405.57983ZM350.06924 405.86108Q349.13174 406.65796 348.27237 406.97827Q347.413 407.29858 346.42862 407.29858Q344.81924 407.29858 343.94424 406.50952Q343.06924 405.72046 343.06924 404.48608Q343.06924 403.7517 343.39737 403.15796Q343.7255 402.5642 344.25674 402.20483Q344.788 401.84546 345.45987 401.65796Q345.95987 401.51733 346.94424 401.40796Q348.9755 401.15796 349.92862 400.82983Q349.92862 400.48608 349.92862 400.39233Q349.92862 399.3767 349.45987 398.95483Q348.81924 398.39233 347.55362 398.39233Q346.38174 398.39233 345.81924 398.79858Q345.25674 399.20483 344.99112 400.26733L343.3505 400.03296Q343.58487 398.98608 344.09268 398.34546Q344.6005 397.70483 345.56143 397.35327Q346.52237 397.0017 347.80362 397.0017Q349.06924 397.0017 349.8505 397.29858Q350.63174 397.59546 351.00674 398.04858Q351.38174 398.5017 351.52237 399.1892Q351.61612 399.61108 351.61612 400.72046L351.61612 402.95483Q351.61612 405.28296 351.71768 405.90015Q351.81924 406.51733 352.14737 407.07983L350.39737 407.07983Q350.13174 406.5642 350.06924 405.86108ZM349.92862 402.14233Q349.02237 402.5017 347.19424 402.76733Q346.163 402.90796 345.74112 403.09546Q345.31924 403.28296 345.08487 403.64233Q344.8505 404.0017 344.8505 404.4392Q344.8505 405.11108 345.3583 405.5564Q345.86612 406.0017 346.83487 406.0017Q347.80362 406.0017 348.55362 405.57202Q349.30362 405.14233 349.663 404.42358Q349.92862 403.84546 349.92862 402.7517L349.92862 402.14233Z" fill-rule="nonzero" fill="#000000"></path><path d="M311.63174 428.07983L311.63174 414.48608L316.74112 414.48608Q318.288 414.48608 319.2333 414.89233Q320.17862 415.29858 320.70987 416.15796Q321.24112 417.01733 321.24112 417.95483Q321.24112 418.82983 320.77237 419.60327Q320.30362 420.3767 319.33487 420.84546Q320.56924 421.20483 321.2333 422.07983Q321.89737 422.95483 321.89737 424.14233Q321.89737 425.09546 321.49893 425.91577Q321.1005 426.73608 320.50674 427.1814Q319.913 427.6267 319.01456 427.85327Q318.11612 428.07983 316.81924 428.07983L311.63174 428.07983ZM313.42862 420.1892L316.36612 420.1892Q317.56924 420.1892 318.08487 420.03296Q318.77237 419.82983 319.12393 419.36108Q319.4755 418.89233 319.4755 418.17358Q319.4755 417.5017 319.14737 416.98608Q318.81924 416.47046 318.21768 416.27515Q317.61612 416.07983 316.14737 416.07983L313.42862 416.07983L313.42862 420.1892ZM313.42862 426.47046L316.81924 426.47046Q317.69424 426.47046 318.038 426.40796Q318.663 426.29858 319.08487 426.04077Q319.50674 425.78296 319.77237 425.28296Q320.038 424.78296 320.038 424.14233Q320.038 423.3767 319.64737 422.8142Q319.25674 422.2517 318.56924 422.02515Q317.88174 421.79858 316.58487 421.79858L313.42862 421.79858L313.42862 426.47046ZM323.913 428.07983L323.913 414.48608L325.58487 414.48608L325.58487 428.07983L323.913 428.07983ZM327.45987 423.15796Q327.45987 420.42358 328.99112 419.09546Q330.25674 418.0017 332.08487 418.0017Q334.11612 418.0017 335.40518 419.33765Q336.69424 420.67358 336.69424 423.01733Q336.69424 424.92358 336.12393 426.00952Q335.55362 427.09546 334.46768 427.69702Q333.38174 428.29858 332.08487 428.29858Q330.02237 428.29858 328.74112 426.97046Q327.45987 425.64233 327.45987 423.15796ZM329.17862 423.15796Q329.17862 425.04858 330.00674 425.98608Q330.83487 426.92358 332.08487 426.92358Q333.33487 426.92358 334.15518 425.97827Q334.9755 425.03296 334.9755 423.09546Q334.9755 421.26733 334.14737 420.32983Q333.31924 419.39233 332.08487 419.39233Q330.83487 419.39233 330.00674 420.32983Q329.17862 421.26733 329.17862 423.15796ZM344.89737 424.47046L346.538 424.6892Q346.27237 426.3767 345.163 427.33765Q344.05362 428.29858 342.42862 428.29858Q340.413 428.29858 339.18643 426.97827Q337.95987 425.65796 337.95987 423.1892Q337.95987 421.59546 338.4833 420.40015Q339.00674 419.20483 340.09268 418.60327Q341.17862 418.0017 342.44424 418.0017Q344.05362 418.0017 345.06924 418.8142Q346.08487 419.6267 346.38174 421.1267L344.75674 421.3767Q344.52237 420.3767 343.92862 419.8767Q343.33487 419.3767 342.50674 419.3767Q341.24112 419.3767 340.45206 420.28296Q339.663 421.1892 339.663 423.14233Q339.663 425.1267 340.42862 426.02515Q341.19424 426.92358 342.413 426.92358Q343.39737 426.92358 344.05362 426.32202Q344.70987 425.72046 344.89737 424.47046ZM347.80362 428.07983L347.80362 414.48608L349.4755 414.48608L349.4755 422.23608L353.42862 418.22046L355.58487 418.22046L351.81924 421.8767L355.95987 428.07983L353.89737 428.07983L350.64737 423.04858L349.4755 424.17358L349.4755 428.07983L347.80362 428.07983Z" fill-rule="nonzero" fill="#000000"></path><path d="M328.663 445.48608L330.33487 445.26733Q330.61612 446.6892 331.31143 447.3142Q332.00674 447.9392 332.99112 447.9392Q334.17862 447.9392 334.99112 447.1189Q335.80362 446.29858 335.80362 445.09546Q335.80362 443.95483 335.0458 443.20483Q334.288 442.45483 333.13174 442.45483Q332.663 442.45483 331.95987 442.64233L332.14737 441.17358Q332.30362 441.1892 332.413 441.1892Q333.4755 441.1892 334.32706 440.63452Q335.17862 440.07983 335.17862 438.92358Q335.17862 438.0017 334.56143 437.40015Q333.94424 436.79858 332.95987 436.79858Q331.99112 436.79858 331.34268 437.40796Q330.69424 438.01733 330.50674 439.2517L328.83487 438.95483Q329.13174 437.26733 330.21768 436.34546Q331.30362 435.42358 332.92862 435.42358Q334.038 435.42358 334.9755 435.90015Q335.913 436.3767 336.40518 437.20483Q336.89737 438.03296 336.89737 438.95483Q336.89737 439.84546 336.42862 440.5642Q335.95987 441.28296 335.02237 441.72046Q336.24112 441.98608 336.90518 442.8689Q337.56924 443.7517 337.56924 445.0642Q337.56924 446.84546 336.27237 448.07983Q334.9755 449.3142 332.99112 449.3142Q331.19424 449.3142 330.01456 448.2517Q328.83487 447.1892 328.663 445.48608Z" fill-rule="nonzero" fill="#000000"></path><path d="M295.87827 296.06567L370.49246 296.06567L370.49246 355.7192L295.87827 355.7192Z" fill-rule="nonzero" fill="#cfe2f3" stroke="#073763" stroke-width="2.0" stroke-linejoin="round" stroke-linecap="butt"></path><path d="M312.90952 321.87817L312.90952 308.28442L314.72202 308.28442L314.72202 313.86255L321.78452 313.86255L321.78452 308.28442L323.5814 308.28442L323.5814 321.87817L321.78452 321.87817L321.78452 315.47192L314.72202 315.47192L314.72202 321.87817L312.90952 321.87817ZM332.56577 320.65942Q331.62827 321.4563 330.7689 321.7766Q329.90952 322.09692 328.92514 322.09692Q327.31577 322.09692 326.44077 321.30786Q325.56577 320.5188 325.56577 319.28442Q325.56577 318.55005 325.8939 317.9563Q326.22202 317.36255 326.75327 317.00317Q327.28452 316.6438 327.9564 316.4563Q328.4564 316.31567 329.44077 316.2063Q331.47202 315.9563 332.42514 315.62817Q332.42514 315.28442 332.42514 315.19067Q332.42514 314.17505 331.9564 313.75317Q331.31577 313.19067 330.05014 313.19067Q328.87827 313.19067 328.31577 313.59692Q327.75327 314.00317 327.48764 315.06567L325.84702 314.8313Q326.0814 313.78442 326.5892 313.1438Q327.09702 312.50317 328.05795 312.1516Q329.0189 311.80005 330.30014 311.80005Q331.56577 311.80005 332.34702 312.09692Q333.12827 312.3938 333.50327 312.84692Q333.87827 313.30005 334.0189 313.98755Q334.11264 314.40942 334.11264 315.5188L334.11264 317.75317Q334.11264 320.0813 334.2142 320.6985Q334.31577 321.31567 334.6439 321.87817L332.8939 321.87817Q332.62827 321.36255 332.56577 320.65942ZM332.42514 316.94067Q331.5189 317.30005 329.69077 317.56567Q328.65952 317.7063 328.23764 317.8938Q327.81577 318.0813 327.5814 318.44067Q327.34702 318.80005 327.34702 319.23755Q327.34702 319.90942 327.85483 320.35474Q328.36264 320.80005 329.3314 320.80005Q330.30014 320.80005 331.05014 320.37036Q331.80014 319.94067 332.15952 319.22192Q332.42514 318.6438 332.42514 317.55005L332.42514 316.94067ZM335.8314 318.94067L337.48764 318.67505Q337.62827 319.67505 338.26108 320.1985Q338.8939 320.72192 340.03452 320.72192Q341.19077 320.72192 341.74545 320.25317Q342.30014 319.78442 342.30014 319.15942Q342.30014 318.59692 341.81577 318.2688Q341.47202 318.05005 340.11264 317.7063Q338.2689 317.23755 337.55795 316.9016Q336.84702 316.56567 336.47983 315.9641Q336.11264 315.36255 336.11264 314.6438Q336.11264 313.98755 336.41733 313.42505Q336.72202 312.86255 337.23764 312.48755Q337.62827 312.2063 338.30014 312.00317Q338.97202 311.80005 339.73764 311.80005Q340.90952 311.80005 341.78452 312.136Q342.65952 312.47192 343.07358 313.04224Q343.48764 313.61255 343.6439 314.56567L342.0189 314.78442Q341.90952 314.03442 341.37045 313.60474Q340.8314 313.17505 339.86264 313.17505Q338.7064 313.17505 338.22202 313.55786Q337.73764 313.94067 337.73764 314.44067Q337.73764 314.7688 337.94077 315.03442Q338.1439 315.30005 338.5814 315.47192Q338.8314 315.56567 340.05014 315.90942Q341.81577 316.37817 342.5189 316.67505Q343.22202 316.97192 343.62045 317.55005Q344.0189 318.12817 344.0189 318.98755Q344.0189 319.81567 343.53452 320.55786Q343.05014 321.30005 342.12827 321.6985Q341.2064 322.09692 340.05014 322.09692Q338.12827 322.09692 337.12045 321.30005Q336.11264 320.50317 335.8314 318.94067ZM345.8314 321.87817L345.8314 308.28442L347.50327 308.28442L347.50327 313.15942Q348.67514 311.80005 350.4564 311.80005Q351.55014 311.80005 352.35483 312.22974Q353.15952 312.65942 353.51108 313.42505Q353.86264 314.19067 353.86264 315.62817L353.86264 321.87817L352.19077 321.87817L352.19077 315.62817Q352.19077 314.37817 351.6439 313.80786Q351.09702 313.23755 350.11264 313.23755Q349.36264 313.23755 348.7142 313.62036Q348.06577 314.00317 347.78452 314.66724Q347.50327 315.3313 347.50327 316.48755L347.50327 321.87817L345.8314 321.87817Z" fill-rule="nonzero" fill="#000000"></path><path d="M320.47202 336.17505Q320.47202 333.75317 320.97202 332.28442Q321.47202 330.81567 322.44858 330.0188Q323.42514 329.22192 324.90952 329.22192Q326.00327 329.22192 326.8314 329.65942Q327.65952 330.09692 328.19858 330.93286Q328.73764 331.7688 329.04233 332.9563Q329.34702 334.1438 329.34702 336.17505Q329.34702 338.56567 328.85483 340.03442Q328.36264 341.50317 327.38608 342.30786Q326.40952 343.11255 324.90952 343.11255Q322.94077 343.11255 321.8314 341.7063Q320.47202 340.00317 320.47202 336.17505ZM322.19077 336.17505Q322.19077 339.5188 322.97983 340.62817Q323.7689 341.73755 324.90952 341.73755Q326.06577 341.73755 326.84702 340.62036Q327.62827 339.50317 327.62827 336.17505Q327.62827 332.81567 326.84702 331.7063Q326.06577 330.59692 324.8939 330.59692Q323.73764 330.59692 323.06577 331.5813Q322.19077 332.81567 322.19077 336.17505ZM330.67514 338.80005L330.67514 337.11255L335.80014 337.11255L335.80014 338.80005L330.67514 338.80005ZM337.0814 339.28442L338.75327 339.06567Q339.03452 340.48755 339.72983 341.11255Q340.42514 341.73755 341.40952 341.73755Q342.59702 341.73755 343.40952 340.91724Q344.22202 340.09692 344.22202 338.8938Q344.22202 337.75317 343.4642 337.00317Q342.7064 336.25317 341.55014 336.25317Q341.0814 336.25317 340.37827 336.44067L340.56577 334.97192Q340.72202 334.98755 340.8314 334.98755Q341.8939 334.98755 342.74545 334.43286Q343.59702 333.87817 343.59702 332.72192Q343.59702 331.80005 342.97983 331.1985Q342.36264 330.59692 341.37827 330.59692Q340.40952 330.59692 339.76108 331.2063Q339.11264 331.81567 338.92514 333.05005L337.25327 332.75317Q337.55014 331.06567 338.63608 330.1438Q339.72202 329.22192 341.34702 329.22192Q342.4564 329.22192 343.3939 329.6985Q344.3314 330.17505 344.82358 331.00317Q345.31577 331.8313 345.31577 332.75317Q345.31577 333.6438 344.84702 334.36255Q344.37827 335.0813 343.44077 335.5188Q344.65952 335.78442 345.32358 336.66724Q345.98764 337.55005 345.98764 338.86255Q345.98764 340.6438 344.69077 341.87817Q343.3939 343.11255 341.40952 343.11255Q339.61264 343.11255 338.43295 342.05005Q337.25327 340.98755 337.0814 339.28442Z" fill-rule="nonzero" fill="#000000"></path><path d="M333.0638 391.76733L333.1449 367.71912" fill-rule="evenodd" stroke="#073763" stroke-width="2.0" stroke-linejoin="round" stroke-linecap="butt"></path><path d="M336.44836 367.7303L333.1755 358.64297L329.84146 367.708Z" fill-rule="evenodd" fill="#073763" stroke="#073763" stroke-width="2.0" stroke-linecap="butt"></path><path d="M80.14347 200.04358L154.75764 200.04358L154.75764 259.6971L80.14347 259.6971Z" fill-rule="nonzero" fill="#cfe2f3" stroke="#073763" stroke-width="2.0" stroke-linejoin="round" stroke-linecap="butt"></path><path d="M97.17472 225.85608L97.17472 212.26233L98.98722 212.26233L98.98722 217.84045L106.04972 217.84045L106.04972 212.26233L107.846596 212.26233L107.846596 225.85608L106.04972 225.85608L106.04972 219.44983L98.98722 219.44983L98.98722 225.85608L97.17472 225.85608ZM116.83097 224.63733Q115.89347 225.4342 115.034096 225.75452Q114.17472 226.07483 113.190346 226.07483Q111.58097 226.07483 110.70597 225.28577Q109.83097 224.4967 109.83097 223.26233Q109.83097 222.52795 110.159096 221.9342Q110.48722 221.34045 111.01847 220.98108Q111.54972 220.6217 112.221596 220.4342Q112.721596 220.29358 113.70597 220.1842Q115.73722 219.9342 116.690346 219.60608Q116.690346 219.26233 116.690346 219.16858Q116.690346 218.15295 116.221596 217.73108Q115.58097 217.16858 114.315346 217.16858Q113.14347 217.16858 112.58097 217.57483Q112.01847 217.98108 111.752846 219.04358L110.11222 218.8092Q110.346596 217.76233 110.85441 217.1217Q111.36222 216.48108 112.32316 216.12952Q113.284096 215.77795 114.565346 215.77795Q115.83097 215.77795 116.61222 216.07483Q117.39347 216.3717 117.76847 216.82483Q118.14347 217.27795 118.284096 217.96545Q118.377846 218.38733 118.377846 219.4967L118.377846 221.73108Q118.377846 224.0592 118.47941 224.67639Q118.58097 225.29358 118.909096 225.85608L117.159096 225.85608Q116.89347 225.34045 116.83097 224.63733ZM116.690346 220.91858Q115.784096 221.27795 113.95597 221.54358Q112.92472 221.6842 112.502846 221.8717Q112.08097 222.0592 111.846596 222.41858Q111.61222 222.77795 111.61222 223.21545Q111.61222 223.88733 112.12003 224.33264Q112.627846 224.77795 113.596596 224.77795Q114.565346 224.77795 115.315346 224.34827Q116.065346 223.91858 116.42472 223.19983Q116.690346 222.6217 116.690346 221.52795L116.690346 220.91858ZM120.096596 222.91858L121.752846 222.65295Q121.89347 223.65295 122.52628 224.17639Q123.159096 224.69983 124.29972 224.69983Q125.45597 224.69983 126.01066 224.23108Q126.565346 223.76233 126.565346 223.13733Q126.565346 222.57483 126.08097 222.2467Q125.73722 222.02795 124.377846 221.6842Q122.534096 221.21545 121.82316 220.87952Q121.11222 220.54358 120.74503 219.94202Q120.377846 219.34045 120.377846 218.6217Q120.377846 217.96545 120.68253 217.40295Q120.98722 216.84045 121.502846 216.46545Q121.89347 216.1842 122.565346 215.98108Q123.23722 215.77795 124.002846 215.77795Q125.17472 215.77795 126.04972 216.11389Q126.92472 216.44983 127.33878 217.02014Q127.752846 217.59045 127.909096 218.54358L126.284096 218.76233Q126.17472 218.01233 125.63566 217.58264Q125.096596 217.15295 124.127846 217.15295Q122.971596 217.15295 122.48722 217.53577Q122.002846 217.91858 122.002846 218.41858Q122.002846 218.7467 122.20597 219.01233Q122.409096 219.27795 122.846596 219.44983Q123.096596 219.54358 124.315346 219.88733Q126.08097 220.35608 126.784096 220.65295Q127.48722 220.94983 127.88566 221.52795Q128.2841 222.10608 128.2841 222.96545Q128.2841 223.79358 127.79972 224.53577Q127.315346 225.27795 126.39347 225.67639Q125.471596 226.07483 124.315346 226.07483Q122.39347 226.07483 121.38566 225.27795Q120.377846 224.48108 120.096596 222.91858ZM130.0966 225.85608L130.0966 212.26233L131.76848 212.26233L131.76848 217.13733Q132.94035 215.77795 134.7216 215.77795Q135.81535 215.77795 136.62004 216.20764Q137.42473 216.63733 137.77629 217.40295Q138.12785 218.16858 138.12785 219.60608L138.12785 225.85608L136.45598 225.85608L136.45598 219.60608Q136.45598 218.35608 135.9091 217.78577Q135.36223 217.21545 134.37785 217.21545Q133.62785 217.21545 132.97942 217.59827Q132.33098 217.98108 132.04973 218.64514Q131.76848 219.3092 131.76848 220.46545L131.76848 225.85608L130.0966 225.85608Z" fill-rule="nonzero" fill="#000000"></path><path d="M113.034096 240.15295Q113.034096 237.73108 113.534096 236.26233Q114.034096 234.79358 115.01066 233.9967Q115.98722 233.19983 117.471596 233.19983Q118.565346 233.19983 119.39347 233.63733Q120.221596 234.07483 120.76066 234.91077Q121.29972 235.7467 121.60441 236.9342Q121.909096 238.1217 121.909096 240.15295Q121.909096 242.54358 121.41691 244.01233Q120.92472 245.48108 119.94816 246.28577Q118.971596 247.09045 117.471596 247.09045Q115.502846 247.09045 114.39347 245.6842Q113.034096 243.98108 113.034096 240.15295ZM114.752846 240.15295Q114.752846 243.4967 115.54191 244.60608Q116.33097 245.71545 117.471596 245.71545Q118.627846 245.71545 119.409096 244.59827Q120.190346 243.48108 120.190346 240.15295Q120.190346 236.79358 119.409096 235.6842Q118.627846 234.57483 117.45597 234.57483Q116.29972 234.57483 115.627846 235.5592Q114.752846 236.79358 114.752846 240.15295Z" fill-rule="nonzero" fill="#000000"></path><path d="M248.17662 200.24248L322.7908 200.24248L322.7908 259.89603L248.17662 259.89603Z" fill-rule="nonzero" fill="#cfe2f3" stroke="#073763" stroke-width="2.0" stroke-linejoin="round" stroke-linecap="butt"></path><path d="M265.2079 226.05498L265.2079 212.46123L267.0204 212.46123L267.0204 218.03935L274.0829 218.03935L274.0829 212.46123L275.87976 212.46123L275.87976 226.05498L274.0829 226.05498L274.0829 219.64873L267.0204 219.64873L267.0204 226.05498L265.2079 226.05498ZM284.86414 224.83623Q283.92664 225.6331 283.06726 225.95341Q282.2079 226.27373 281.2235 226.27373Q279.61414 226.27373 278.73914 225.48466Q277.86414 224.6956 277.86414 223.46123Q277.86414 222.72685 278.19226 222.1331Q278.5204 221.53935 279.05164 221.17998Q279.5829 220.8206 280.25476 220.6331Q280.75476 220.49248 281.73914 220.3831Q283.7704 220.1331 284.7235 219.80498Q284.7235 219.46123 284.7235 219.36748Q284.7235 218.35185 284.25476 217.92998Q283.61414 217.36748 282.3485 217.36748Q281.17664 217.36748 280.61414 217.77373Q280.05164 218.17998 279.786 219.24248L278.1454 219.0081Q278.37976 217.96123 278.88757 217.3206Q279.3954 216.67998 280.35632 216.32841Q281.31726 215.97685 282.5985 215.97685Q283.86414 215.97685 284.6454 216.27373Q285.42664 216.5706 285.80164 217.02373Q286.17664 217.47685 286.31726 218.16435Q286.411 218.58623 286.411 219.6956L286.411 221.92998Q286.411 224.2581 286.51257 224.87529Q286.61414 225.49248 286.94226 226.05498L285.19226 226.05498Q284.92664 225.53935 284.86414 224.83623ZM284.7235 221.11748Q283.81726 221.47685 281.98914 221.74248Q280.9579 221.8831 280.536 222.0706Q280.11414 222.2581 279.87976 222.61748Q279.6454 222.97685 279.6454 223.41435Q279.6454 224.08623 280.1532 224.53154Q280.661 224.97685 281.62976 224.97685Q282.5985 224.97685 283.3485 224.54716Q284.0985 224.11748 284.4579 223.39873Q284.7235 222.8206 284.7235 221.72685L284.7235 221.11748ZM288.12976 223.11748L289.786 222.85185Q289.92664 223.85185 290.55945 224.37529Q291.19226 224.89873 292.3329 224.89873Q293.48914 224.89873 294.04382 224.42998Q294.5985 223.96123 294.5985 223.33623Q294.5985 222.77373 294.11414 222.4456Q293.7704 222.22685 292.411 221.8831Q290.56726 221.41435 289.85632 221.07841Q289.1454 220.74248 288.7782 220.14091Q288.411 219.53935 288.411 218.8206Q288.411 218.16435 288.7157 217.60185Q289.0204 217.03935 289.536 216.66435Q289.92664 216.3831 290.5985 216.17998Q291.2704 215.97685 292.036 215.97685Q293.2079 215.97685 294.0829 216.31279Q294.9579 216.64873 295.37195 217.21904Q295.786 217.78935 295.94226 218.74248L294.31726 218.96123Q294.2079 218.21123 293.66882 217.78154Q293.12976 217.35185 292.161 217.35185Q291.00476 217.35185 290.5204 217.73466Q290.036 218.11748 290.036 218.61748Q290.036 218.9456 290.23914 219.21123Q290.44226 219.47685 290.87976 219.64873Q291.12976 219.74248 292.3485 220.08623Q294.11414 220.55498 294.81726 220.85185Q295.5204 221.14873 295.91882 221.72685Q296.31726 222.30498 296.31726 223.16435Q296.31726 223.99248 295.8329 224.73466Q295.3485 225.47685 294.42664 225.87529Q293.50476 226.27373 292.3485 226.27373Q290.42664 226.27373 289.41882 225.47685Q288.411 224.67998 288.12976 223.11748ZM298.12976 226.05498L298.12976 212.46123L299.80164 212.46123L299.80164 217.33623Q300.9735 215.97685 302.75476 215.97685Q303.8485 215.97685 304.6532 216.40654Q305.4579 216.83623 305.80945 217.60185Q306.161 218.36748 306.161 219.80498L306.161 226.05498L304.48914 226.05498L304.48914 219.80498Q304.48914 218.55498 303.94226 217.98466Q303.3954 217.41435 302.411 217.41435Q301.661 217.41435 301.01257 217.79716Q300.36414 218.17998 300.0829 218.84404Q299.80164 219.5081 299.80164 220.66435L299.80164 226.05498L298.12976 226.05498Z" fill-rule="nonzero" fill="#000000"></path><path d="M287.36414 247.05498L285.69226 247.05498L285.69226 236.41435Q285.0985 236.99248 284.11414 237.56279Q283.12976 238.1331 282.3485 238.42998L282.3485 236.80498Q283.75476 236.14873 284.80164 235.21123Q285.8485 234.27373 286.286 233.39873L287.36414 233.39873L287.36414 247.05498Z" fill-rule="nonzero" fill="#000000"></path><path d="M71.944756 295.96686L88.79112 273.58585" fill-rule="evenodd" stroke="#073763" stroke-width="2.0" stroke-linejoin="round" stroke-linecap="butt"></path><path d="M91.430466 275.5725L94.24941 266.33435L86.151794 271.5992Z" fill-rule="evenodd" fill="#073763" stroke="#073763" stroke-width="2.0" stroke-linecap="butt"></path><path d="M160.20995 295.96686L149.4192 274.69965" fill-rule="evenodd" stroke="#073763" stroke-width="2.0" stroke-linejoin="round" stroke-linecap="butt"></path><path d="M152.36514 273.2049L145.31242 266.6057L146.47325 276.1944Z" fill-rule="evenodd" fill="#073763" stroke="#073763" stroke-width="2.0" stroke-linecap="butt"></path><path d="M231.9337 296.0221L248.78008 273.6411" fill-rule="evenodd" stroke="#073763" stroke-width="2.0" stroke-linejoin="round" stroke-linecap="butt"></path><path d="M251.41942 275.62778L254.23837 266.38962L246.14075 271.65448Z" fill-rule="evenodd" fill="#073763" stroke="#073763" stroke-width="2.0" stroke-linecap="butt"></path><path d="M320.09946 296.0221L309.30872 274.7549" fill-rule="evenodd" stroke="#073763" stroke-width="2.0" stroke-linejoin="round" stroke-linecap="butt"></path><path d="M312.25467 273.26016L305.20193 266.66098L306.36276 276.24966Z" fill-rule="evenodd" fill="#073763" stroke="#073763" stroke-width="2.0" stroke-linecap="butt"></path><path d="M144.23187 136.05463L264.0429 136.05463L264.0429 167.67667L144.23187 167.67667Z" fill-rule="nonzero" fill="#cfe2f3" stroke="#073763" stroke-width="2.0" stroke-linejoin="round" stroke-linecap="butt"></path><path d="M168.60687 158.3515L168.60687 146.3515L164.13812 146.3515L164.13812 144.75775L174.90375 144.75775L174.90375 146.3515L170.40375 146.3515L170.40375 158.3515L168.60687 158.3515ZM175.71625 153.42963Q175.71625 150.69525 177.2475 149.36713Q178.51312 148.27338 180.34125 148.27338Q182.3725 148.27338 183.66156 149.60931Q184.95062 150.94525 184.95062 153.289Q184.95062 155.19525 184.38031 156.28119Q183.81 157.36713 182.72406 157.96869Q181.63812 158.57025 180.34125 158.57025Q178.27875 158.57025 176.9975 157.24213Q175.71625 155.914 175.71625 153.42963ZM177.435 153.42963Q177.435 155.32025 178.26312 156.25775Q179.09125 157.19525 180.34125 157.19525Q181.59125 157.19525 182.41156 156.24994Q183.23187 155.30463 183.23187 153.36713Q183.23187 151.539 182.40375 150.6015Q181.57562 149.664 180.34125 149.664Q179.09125 149.664 178.26312 150.6015Q177.435 151.539 177.435 153.42963ZM186.71625 162.13275L186.71625 148.49213L188.2475 148.49213L188.2475 149.77338Q188.77875 149.02338 189.45844 148.64838Q190.13812 148.27338 191.09125 148.27338Q192.35687 148.27338 193.32562 148.92181Q194.29437 149.57025 194.78656 150.75775Q195.27875 151.94525 195.27875 153.3515Q195.27875 154.86713 194.73187 156.07806Q194.185 157.289 193.15375 157.92963Q192.1225 158.57025 190.98187 158.57025Q190.13812 158.57025 189.47406 158.21869Q188.81 157.86713 188.38812 157.33588L188.38812 162.13275L186.71625 162.13275ZM188.23187 153.4765Q188.23187 155.38275 189.00531 156.289Q189.77875 157.19525 190.8725 157.19525Q191.98187 157.19525 192.77094 156.25775Q193.56 155.32025 193.56 153.33588Q193.56 151.46088 192.78656 150.52338Q192.01312 149.58588 190.935 149.58588Q189.8725 149.58588 189.05219 150.58588Q188.23187 151.58588 188.23187 153.4765ZM202.52875 158.3515L202.52875 144.75775L204.34125 144.75775L204.34125 150.33588L211.40375 150.33588L211.40375 144.75775L213.20062 144.75775L213.20062 158.3515L211.40375 158.3515L211.40375 151.94525L204.34125 151.94525L204.34125 158.3515L202.52875 158.3515ZM222.185 157.13275Q221.2475 157.92963 220.38812 158.24994Q219.52875 158.57025 218.54437 158.57025Q216.935 158.57025 216.06 157.78119Q215.185 156.99213 215.185 155.75775Q215.185 155.02338 215.51312 154.42963Q215.84125 153.83588 216.3725 153.4765Q216.90375 153.11713 217.57562 152.92963Q218.07562 152.789 219.06 152.67963Q221.09125 152.42963 222.04437 152.1015Q222.04437 151.75775 222.04437 151.664Q222.04437 150.64838 221.57562 150.2265Q220.935 149.664 219.66937 149.664Q218.4975 149.664 217.935 150.07025Q217.3725 150.4765 217.10687 151.539L215.46625 151.30463Q215.70062 150.25775 216.20844 149.61713Q216.71625 148.9765 217.67719 148.62494Q218.63812 148.27338 219.91937 148.27338Q221.185 148.27338 221.96625 148.57025Q222.7475 148.86713 223.1225 149.32025Q223.4975 149.77338 223.63812 150.46088Q223.73187 150.88275 223.73187 151.99213L223.73187 154.2265Q223.73187 156.55463 223.83344 157.17181Q223.935 157.789 224.26312 158.3515L222.51312 158.3515Q222.2475 157.83588 222.185 157.13275ZM222.04437 153.414Q221.13812 153.77338 219.31 154.039Q218.27875 154.17963 217.85687 154.36713Q217.435 154.55463 217.20062 154.914Q216.96625 155.27338 216.96625 155.71088Q216.96625 156.38275 217.47406 156.82806Q217.98187 157.27338 218.95062 157.27338Q219.91937 157.27338 220.66937 156.84369Q221.41937 156.414 221.77875 155.69525Q222.04437 155.11713 222.04437 154.02338L222.04437 153.414ZM225.45062 155.414L227.10687 155.14838Q227.2475 156.14838 227.88031 156.67181Q228.51312 157.19525 229.65375 157.19525Q230.81 157.19525 231.36469 156.7265Q231.91937 156.25775 231.91937 155.63275Q231.91937 155.07025 231.435 154.74213Q231.09125 154.52338 229.73187 154.17963Q227.88812 153.71088 227.17719 153.37494Q226.46625 153.039 226.09906 152.43744Q225.73187 151.83588 225.73187 151.11713Q225.73187 150.46088 226.03656 149.89838Q226.34125 149.33588 226.85687 148.96088Q227.2475 148.67963 227.91937 148.4765Q228.59125 148.27338 229.35687 148.27338Q230.52875 148.27338 231.40375 148.60931Q232.27875 148.94525 232.69281 149.51556Q233.10687 150.08588 233.26312 151.039L231.63812 151.25775Q231.52875 150.50775 230.98969 150.07806Q230.45062 149.64838 229.48187 149.64838Q228.32562 149.64838 227.84125 150.03119Q227.35687 150.414 227.35687 150.914Q227.35687 151.24213 227.56 151.50775Q227.76312 151.77338 228.20062 151.94525Q228.45062 152.039 229.66937 152.38275Q231.435 152.8515 232.13812 153.14838Q232.84125 153.44525 233.23969 154.02338Q233.63812 154.6015 233.63812 155.46088Q233.63812 156.289 233.15375 157.03119Q232.66937 157.77338 231.7475 158.17181Q230.82562 158.57025 229.66937 158.57025Q227.7475 158.57025 226.73969 157.77338Q225.73187 156.9765 225.45062 155.414ZM235.45062 158.3515L235.45062 144.75775L237.1225 144.75775L237.1225 149.63275Q238.29437 148.27338 240.07562 148.27338Q241.16937 148.27338 241.97406 148.70306Q242.77875 149.13275 243.13031 149.89838Q243.48187 150.664 243.48187 152.1015L243.48187 158.3515L241.81 158.3515L241.81 152.1015Q241.81 150.8515 241.26312 150.28119Q240.71625 149.71088 239.73187 149.71088Q238.98187 149.71088 238.33344 150.09369Q237.685 150.4765 237.40375 151.14056Q237.1225 151.80463 237.1225 152.96088L237.1225 158.3515L235.45062 158.3515Z" fill-rule="nonzero" fill="#000000"></path><path d="M135.9337 200.02211L159.50725 176.47171" fill-rule="evenodd" stroke="#073763" stroke-width="2.0" stroke-linejoin="round" stroke-linecap="butt"></path><path d="M161.84201 178.80876L165.92824 170.05702L157.1725 174.13466Z" fill-rule="evenodd" fill="#073763" stroke="#073763" stroke-width="2.0" stroke-linecap="butt"></path><path d="M264.3757 200.07735L247.26064 177.56685" fill-rule="evenodd" stroke="#073763" stroke-width="2.0" stroke-linejoin="round" stroke-linecap="butt"></path><path d="M249.89034 175.56746L241.76735 170.34183L244.63095 179.56625Z" fill-rule="evenodd" fill="#073763" stroke="#073763" stroke-width="2.0" stroke-linecap="butt"></path></svg>

