<?xml version="1.0" standalone="yes"?>

<svg version="1.1" viewBox="0.0 0.0 960.0 720.0" fill="none" stroke="none" stroke-linecap="square" stroke-miterlimit="10" clip-path="url(#clip0)" xmlns="http://www.w3.org/2000/svg" xmlns:xlink="http://www.w3.org/1999/xlink"><clipPath id="clip0"><path d="M0 0L960.0 0L960.0 720.0L0 720.0L0 0Z" clip-rule="nonzero"></path></clipPath><path d="M263.35434 90.750656L441.3071 90.750656L441.3071 121.90026L263.35434 121.90026Z" fill-rule="nonzero" fill="#cfe2f3" stroke="#073763" stroke-width="2.0" stroke-linejoin="round" stroke-linecap="butt"></path><path d="M293.55746 108.438156L295.24496 108.29753Q295.36996 109.313156 295.80746 109.969406Q296.24496 110.625656 297.17465 111.031906Q298.10434 111.438156 299.2606 111.438156Q300.29184 111.438156 301.0809 111.125656Q301.86996 110.813156 302.2606 110.281906Q302.6512 109.750656 302.6512 109.125656Q302.6512 108.48503 302.2762 108.00847Q301.9012 107.531906 301.04184 107.20378Q300.49496 106.98503 298.61996 106.53972Q296.74496 106.094406 295.99496 105.688156Q295.0262 105.17253 294.54965 104.42253Q294.0731 103.67253 294.0731 102.73503Q294.0731 101.70378 294.65903 100.80534Q295.24496 99.906906 296.36215 99.44597Q297.47934 98.98503 298.85434 98.98503Q300.36996 98.98503 301.5262 99.469406Q302.68246 99.95378 303.29965 100.89909Q303.91684 101.844406 303.9637 103.04753L302.24496 103.17253Q302.10434 101.89128 301.29965 101.22722Q300.49496 100.563156 298.93246 100.563156Q297.30746 100.563156 296.55746 101.16472Q295.80746 101.76628 295.80746 102.61003Q295.80746 103.344406 296.3387 103.813156Q296.85434 104.281906 299.04965 104.781906Q301.24496 105.281906 302.05746 105.656906Q303.24496 106.20378 303.81528 107.03972Q304.3856 107.875656 304.3856 108.969406Q304.3856 110.063156 303.7606 111.02409Q303.1356 111.98503 301.97153 112.51628Q300.80746 113.04753 299.35434 113.04753Q297.5106 113.04753 296.2606 112.50847Q295.0106 111.969406 294.29965 110.89128Q293.5887 109.813156 293.55746 108.438156ZM313.1512 109.64128L314.86996 109.86003Q314.4637 111.36003 313.36215 112.19597Q312.2606 113.031906 310.54184 113.031906Q308.3856 113.031906 307.11996 111.70378Q305.85434 110.375656 305.85434 107.969406Q305.85434 105.48503 307.12778 104.11003Q308.4012 102.73503 310.4481 102.73503Q312.43246 102.73503 313.68246 104.07878Q314.93246 105.42253 314.93246 107.875656Q314.93246 108.01628 314.91684 108.313156L307.5731 108.313156Q307.66684 109.938156 308.49496 110.79753Q309.3231 111.656906 310.55746 111.656906Q311.4637 111.656906 312.11215 111.18034Q312.7606 110.70378 313.1512 109.64128ZM307.66684 106.938156L313.16684 106.938156Q313.05746 105.70378 312.54184 105.07878Q311.74496 104.11003 310.4637 104.11003Q309.3231 104.11003 308.53403 104.88347Q307.74496 105.656906 307.66684 106.938156ZM323.2137 109.20378L324.85434 109.42253Q324.5887 111.11003 323.47934 112.07097Q322.36996 113.031906 320.74496 113.031906Q318.72934 113.031906 317.50278 111.71159Q316.2762 110.39128 316.2762 107.92253Q316.2762 106.32878 316.79965 105.13347Q317.3231 103.938156 318.40903 103.33659Q319.49496 102.73503 320.7606 102.73503Q322.36996 102.73503 323.3856 103.54753Q324.4012 104.36003 324.6981 105.86003L323.0731 106.11003Q322.8387 105.11003 322.24496 104.61003Q321.6512 104.11003 320.8231 104.11003Q319.55746 104.11003 318.7684 105.01628Q317.97934 105.92253 317.97934 107.875656Q317.97934 109.86003 318.74496 110.75847Q319.5106 111.656906 320.72934 111.656906Q321.7137 111.656906 322.36996 111.05534Q323.0262 110.45378 323.2137 109.20378ZM332.55746 112.813156L332.55746 111.36003Q331.41684 113.031906 329.43246 113.031906Q328.5731 113.031906 327.81528 112.69597Q327.05746 112.36003 326.69028 111.86003Q326.3231 111.36003 326.16684 110.625656Q326.0731 110.125656 326.0731 109.063156L326.0731 102.95378L327.74496 102.95378L327.74496 108.42253Q327.74496 109.73503 327.8387 110.188156Q327.99496 110.844406 328.5106 111.219406Q329.0262 111.594406 329.7762 111.594406Q330.5262 111.594406 331.18246 111.21159Q331.8387 110.82878 332.11215 110.16472Q332.3856 109.500656 332.3856 108.23503L332.3856 102.95378L334.05746 102.95378L334.05746 112.813156L332.55746 112.813156ZM336.4637 112.813156L336.4637 102.95378L337.9637 102.95378L337.9637 104.45378Q338.54184 103.406906 339.0262 103.07097Q339.5106 102.73503 340.10434 102.73503Q340.9481 102.73503 341.8231 103.281906L341.24496 104.82878Q340.6356 104.469406 340.0106 104.469406Q339.4637 104.469406 339.03403 104.79753Q338.60434 105.125656 338.41684 105.70378Q338.1356 106.594406 338.1356 107.656906L338.1356 112.813156L336.4637 112.813156ZM342.6981 101.125656L342.6981 99.219406L344.36996 99.219406L344.36996 101.125656L342.6981 101.125656ZM342.6981 112.813156L342.6981 102.95378L344.36996 102.95378L344.36996 112.813156L342.6981 112.813156ZM350.49496 111.313156L350.72934 112.79753Q350.0262 112.938156 349.4637 112.938156Q348.55746 112.938156 348.05746 112.64909Q347.55746 112.36003 347.35434 111.89909Q347.1512 111.438156 347.1512 109.92253L347.1512 104.26628L345.91684 104.26628L345.91684 102.95378L347.1512 102.95378L347.1512 100.51628L348.80746 99.51628L348.80746 102.95378L350.49496 102.95378L350.49496 104.26628L348.80746 104.26628L348.80746 110.01628Q348.80746 110.73503 348.8934 110.938156Q348.97934 111.14128 349.18246 111.26628Q349.3856 111.39128 349.7606 111.39128Q350.0262 111.39128 350.49496 111.313156ZM351.93246 116.61003L351.7606 115.04753Q352.30746 115.188156 352.7137 115.188156Q353.2606 115.188156 353.59653 115.000656Q353.93246 114.813156 354.1512 114.48503Q354.30746 114.23503 354.6512 113.23503Q354.6981 113.094406 354.80746 112.82878L351.0731 102.95378L352.86996 102.95378L354.91684 108.67253Q355.3231 109.750656 355.6356 110.95378Q355.91684 109.79753 356.3231 108.70378L358.41684 102.95378L360.0887 102.95378L356.3387 112.98503Q355.74496 114.61003 355.4012 115.219406Q354.9637 116.04753 354.3856 116.43034Q353.80746 116.813156 353.0106 116.813156Q352.5262 116.813156 351.93246 116.61003ZM366.66684 112.813156L366.66684 99.219406L368.4637 99.219406L368.4637 111.20378L375.16684 111.20378L375.16684 112.813156L366.66684 112.813156ZM383.3387 111.594406Q382.4012 112.39128 381.54184 112.71159Q380.68246 113.031906 379.6981 113.031906Q378.0887 113.031906 377.2137 112.24284Q376.3387 111.45378 376.3387 110.219406Q376.3387 109.48503 376.66684 108.89128Q376.99496 108.29753 377.5262 107.938156Q378.05746 107.57878 378.72934 107.39128Q379.22934 107.250656 380.2137 107.14128Q382.24496 106.89128 383.1981 106.563156Q383.1981 106.219406 383.1981 106.125656Q383.1981 105.11003 382.72934 104.688156Q382.0887 104.125656 380.8231 104.125656Q379.6512 104.125656 379.0887 104.531906Q378.5262 104.938156 378.2606 106.000656L376.61996 105.76628Q376.85434 104.719406 377.36215 104.07878Q377.86996 103.438156 378.8309 103.08659Q379.79184 102.73503 381.0731 102.73503Q382.3387 102.73503 383.11996 103.031906Q383.9012 103.32878 384.2762 103.781906Q384.6512 104.23503 384.79184 104.92253Q384.8856 105.344406 384.8856 106.45378L384.8856 108.688156Q384.8856 111.01628 384.98715 111.63347Q385.0887 112.250656 385.41684 112.813156L383.66684 112.813156Q383.4012 112.29753 383.3387 111.594406ZM383.1981 107.875656Q382.29184 108.23503 380.4637 108.500656Q379.43246 108.64128 379.0106 108.82878Q378.5887 109.01628 378.35434 109.375656Q378.11996 109.73503 378.11996 110.17253Q378.11996 110.844406 378.62778 111.28972Q379.1356 111.73503 380.10434 111.73503Q381.0731 111.73503 381.8231 111.30534Q382.5731 110.875656 382.93246 110.156906Q383.1981 109.57878 383.1981 108.48503L383.1981 107.875656ZM387.1981 116.61003L387.0262 115.04753Q387.5731 115.188156 387.97934 115.188156Q388.5262 115.188156 388.86215 115.000656Q389.1981 114.813156 389.41684 114.48503Q389.5731 114.23503 389.91684 113.23503Q389.9637 113.094406 390.0731 112.82878L386.3387 102.95378L388.1356 102.95378L390.18246 108.67253Q390.5887 109.750656 390.9012 110.95378Q391.18246 109.79753 391.5887 108.70378L393.68246 102.95378L395.35434 102.95378L391.60434 112.98503Q391.0106 114.61003 390.66684 115.219406Q390.22934 116.04753 389.6512 116.43034Q389.0731 116.813156 388.2762 116.813156Q387.79184 116.813156 387.1981 116.61003ZM403.35434 109.64128L405.0731 109.86003Q404.66684 111.36003 403.56528 112.19597Q402.4637 113.031906 400.74496 113.031906Q398.5887 113.031906 397.3231 111.70378Q396.05746 110.375656 396.05746 107.969406Q396.05746 105.48503 397.3309 104.11003Q398.60434 102.73503 400.6512 102.73503Q402.6356 102.73503 403.8856 104.07878Q405.1356 105.42253 405.1356 107.875656Q405.1356 108.01628 405.11996 108.313156L397.7762 108.313156Q397.86996 109.938156 398.6981 110.79753Q399.5262 111.656906 400.7606 111.656906Q401.66684 111.656906 402.31528 111.18034Q402.9637 110.70378 403.35434 109.64128ZM397.86996 106.938156L403.36996 106.938156Q403.2606 105.70378 402.74496 105.07878Q401.9481 104.11003 400.66684 104.11003Q399.5262 104.11003 398.73715 104.88347Q397.9481 105.656906 397.86996 106.938156ZM406.9637 112.813156L406.9637 102.95378L408.4637 102.95378L408.4637 104.45378Q409.04184 103.406906 409.5262 103.07097Q410.0106 102.73503 410.60434 102.73503Q411.4481 102.73503 412.3231 103.281906L411.74496 104.82878Q411.1356 104.469406 410.5106 104.469406Q409.9637 104.469406 409.53403 104.79753Q409.10434 105.125656 408.91684 105.70378Q408.6356 106.594406 408.6356 107.656906L408.6356 112.813156L406.9637 112.813156Z" fill-rule="nonzero" fill="#000000"></path><path d="M263.35434 122.750656L441.3071 122.750656L441.3071 153.90027L263.35434 153.90027Z" fill-rule="nonzero" fill="#cfe2f3" stroke="#073763" stroke-width="2.0" stroke-linejoin="round" stroke-linecap="butt"></path><path d="M290.05746 144.81316L290.05746 131.2194L296.0887 131.2194Q297.9012 131.2194 298.84653 131.57878Q299.79184 131.93816 300.35434 132.86784Q300.91684 133.79753 300.91684 134.92253Q300.91684 136.37566 299.98715 137.36784Q299.05746 138.36003 297.0887 138.62566Q297.80746 138.9694 298.18246 139.29753Q298.9637 140.0319 299.66684 141.11003L302.04184 144.81316L299.7762 144.81316L297.97934 141.98503Q297.18246 140.76628 296.67465 140.11003Q296.16684 139.45378 295.7606 139.19597Q295.35434 138.93816 294.9481 138.8444Q294.6356 138.76628 293.93246 138.76628L291.85434 138.76628L291.85434 144.81316L290.05746 144.81316ZM291.85434 137.2194L295.7137 137.2194Q296.9481 137.2194 297.6434 136.9616Q298.3387 136.70378 298.7059 136.14128Q299.0731 135.57878 299.0731 134.92253Q299.0731 133.95378 298.36996 133.3366Q297.66684 132.7194 296.1512 132.7194L291.85434 132.7194L291.85434 137.2194ZM303.5262 144.81316L303.5262 131.2194L313.36996 131.2194L313.36996 132.81316L305.3231 132.81316L305.3231 136.98503L312.85434 136.98503L312.85434 138.57878L305.3231 138.57878L305.3231 143.20378L313.68246 143.20378L313.68246 144.81316L303.5262 144.81316ZM315.3387 140.43816L317.0262 140.29753Q317.1512 141.31316 317.5887 141.9694Q318.0262 142.62566 318.9559 143.0319Q319.8856 143.43816 321.04184 143.43816Q322.0731 143.43816 322.86215 143.12566Q323.6512 142.81316 324.04184 142.2819Q324.43246 141.75066 324.43246 141.12566Q324.43246 140.48503 324.05746 140.00847Q323.68246 139.5319 322.8231 139.20378Q322.2762 138.98503 320.4012 138.53972Q318.5262 138.0944 317.7762 137.68816Q316.80746 137.17253 316.3309 136.42253Q315.85434 135.67253 315.85434 134.73503Q315.85434 133.70378 316.44028 132.80534Q317.0262 131.9069 318.1434 131.44597Q319.2606 130.98503 320.6356 130.98503Q322.1512 130.98503 323.30746 131.4694Q324.4637 131.95378 325.0809 132.8991Q325.6981 133.8444 325.74496 135.04753L324.0262 135.17253Q323.8856 133.89128 323.0809 133.22722Q322.2762 132.56316 320.7137 132.56316Q319.0887 132.56316 318.3387 133.16472Q317.5887 133.76628 317.5887 134.61003Q317.5887 135.3444 318.11996 135.81316Q318.6356 136.2819 320.8309 136.7819Q323.0262 137.2819 323.8387 137.6569Q325.0262 138.20378 325.59653 139.03972Q326.16684 139.87566 326.16684 140.9694Q326.16684 142.06316 325.54184 143.0241Q324.91684 143.98503 323.75278 144.51628Q322.5887 145.04753 321.1356 145.04753Q319.29184 145.04753 318.04184 144.50847Q316.79184 143.9694 316.0809 142.89128Q315.36996 141.81316 315.3387 140.43816ZM331.8387 144.81316L331.8387 132.81316L327.36996 132.81316L327.36996 131.2194L338.1356 131.2194L338.1356 132.81316L333.6356 132.81316L333.6356 144.81316L331.8387 144.81316ZM345.2606 144.81316L345.2606 131.2194L347.0731 131.2194L347.0731 144.81316L345.2606 144.81316ZM349.93246 144.81316L349.93246 134.95378L351.43246 134.95378L351.43246 136.36003Q352.5262 134.73503 354.5731 134.73503Q355.4637 134.73503 356.2137 135.05534Q356.9637 135.37566 357.3309 135.8991Q357.6981 136.42253 357.85434 137.12566Q357.9481 137.5944 357.9481 138.75066L357.9481 144.81316L356.2762 144.81316L356.2762 138.81316Q356.2762 137.79753 356.0809 137.28972Q355.8856 136.7819 355.3856 136.48503Q354.8856 136.18816 354.2137 136.18816Q353.1512 136.18816 352.37778 136.86003Q351.60434 137.5319 351.60434 139.43816L351.60434 144.81316L349.93246 144.81316ZM363.9637 143.31316L364.1981 144.79753Q363.49496 144.93816 362.93246 144.93816Q362.0262 144.93816 361.5262 144.6491Q361.0262 144.36003 360.8231 143.8991Q360.61996 143.43816 360.61996 141.92253L360.61996 136.26628L359.3856 136.26628L359.3856 134.95378L360.61996 134.95378L360.61996 132.51628L362.2762 131.51628L362.2762 134.95378L363.9637 134.95378L363.9637 136.26628L362.2762 136.26628L362.2762 142.01628Q362.2762 142.73503 362.36215 142.93816Q362.4481 143.14128 362.6512 143.26628Q362.85434 143.39128 363.22934 143.39128Q363.49496 143.39128 363.9637 143.31316ZM372.24496 141.64128L373.9637 141.86003Q373.55746 143.36003 372.4559 144.19597Q371.35434 145.0319 369.6356 145.0319Q367.47934 145.0319 366.2137 143.70378Q364.9481 142.37566 364.9481 139.9694Q364.9481 137.48503 366.22153 136.11003Q367.49496 134.73503 369.54184 134.73503Q371.5262 134.73503 372.7762 136.07878Q374.0262 137.42253 374.0262 139.87566Q374.0262 140.01628 374.0106 140.31316L366.66684 140.31316Q366.7606 141.93816 367.5887 142.79753Q368.41684 143.6569 369.6512 143.6569Q370.55746 143.6569 371.2059 143.18034Q371.85434 142.70378 372.24496 141.64128ZM366.7606 138.93816L372.2606 138.93816Q372.1512 137.70378 371.6356 137.07878Q370.8387 136.11003 369.55746 136.11003Q368.41684 136.11003 367.62778 136.88347Q366.8387 137.6569 366.7606 138.93816ZM375.85434 144.81316L375.85434 134.95378L377.35434 134.95378L377.35434 136.45378Q377.93246 135.4069 378.41684 135.07097Q378.9012 134.73503 379.49496 134.73503Q380.3387 134.73503 381.2137 135.2819L380.6356 136.82878Q380.0262 136.4694 379.4012 136.4694Q378.85434 136.4694 378.42465 136.79753Q377.99496 137.12566 377.80746 137.70378Q377.5262 138.5944 377.5262 139.6569L377.5262 144.81316L375.85434 144.81316ZM382.47934 144.81316L382.47934 136.26628L380.99496 136.26628L380.99496 134.95378L382.47934 134.95378L382.47934 133.9069Q382.47934 132.92253 382.6512 132.43816Q382.8856 131.7819 383.49496 131.38347Q384.10434 130.98503 385.1981 130.98503Q385.9012 130.98503 386.7606 131.14128L386.5106 132.61003Q385.99496 132.51628 385.5262 132.51628Q384.7606 132.51628 384.4481 132.8366Q384.1356 133.1569 384.1356 134.04753L384.1356 134.95378L386.05746 134.95378L386.05746 136.26628L384.1356 136.26628L384.1356 144.81316L382.47934 144.81316ZM393.6981 143.5944Q392.7606 144.39128 391.9012 144.7116Q391.04184 145.0319 390.05746 145.0319Q388.4481 145.0319 387.5731 144.24284Q386.6981 143.45378 386.6981 142.2194Q386.6981 141.48503 387.0262 140.89128Q387.35434 140.29753 387.8856 139.93816Q388.41684 139.57878 389.0887 139.39128Q389.5887 139.25066 390.5731 139.14128Q392.60434 138.89128 393.55746 138.56316Q393.55746 138.2194 393.55746 138.12566Q393.55746 137.11003 393.0887 136.68816Q392.4481 136.12566 391.18246 136.12566Q390.0106 136.12566 389.4481 136.5319Q388.8856 136.93816 388.61996 138.00066L386.97934 137.76628Q387.2137 136.7194 387.72153 136.07878Q388.22934 135.43816 389.19028 135.0866Q390.1512 134.73503 391.43246 134.73503Q392.6981 134.73503 393.47934 135.0319Q394.2606 135.32878 394.6356 135.7819Q395.0106 136.23503 395.1512 136.92253Q395.24496 137.3444 395.24496 138.45378L395.24496 140.68816Q395.24496 143.01628 395.34653 143.63347Q395.4481 144.25066 395.7762 144.81316L394.0262 144.81316Q393.7606 144.29753 393.6981 143.5944ZM393.55746 139.87566Q392.6512 140.23503 390.8231 140.50066Q389.79184 140.64128 389.36996 140.82878Q388.9481 141.01628 388.7137 141.37566Q388.47934 141.73503 388.47934 142.17253Q388.47934 142.8444 388.98715 143.28972Q389.49496 143.73503 390.4637 143.73503Q391.43246 143.73503 392.18246 143.30534Q392.93246 142.87566 393.29184 142.1569Q393.55746 141.57878 393.55746 140.48503L393.55746 139.87566ZM404.0731 141.20378L405.7137 141.42253Q405.4481 143.11003 404.3387 144.07097Q403.22934 145.0319 401.60434 145.0319Q399.5887 145.0319 398.36215 143.7116Q397.1356 142.39128 397.1356 139.92253Q397.1356 138.32878 397.65903 137.13347Q398.18246 135.93816 399.2684 135.3366Q400.35434 134.73503 401.61996 134.73503Q403.22934 134.73503 404.24496 135.54753Q405.2606 136.36003 405.55746 137.86003L403.93246 138.11003Q403.6981 137.11003 403.10434 136.61003Q402.5106 136.11003 401.68246 136.11003Q400.41684 136.11003 399.62778 137.01628Q398.8387 137.92253 398.8387 139.87566Q398.8387 141.86003 399.60434 142.75847Q400.36996 143.6569 401.5887 143.6569Q402.5731 143.6569 403.22934 143.05534Q403.8856 142.45378 404.0731 141.20378ZM413.7137 141.64128L415.43246 141.86003Q415.0262 143.36003 413.92465 144.19597Q412.8231 145.0319 411.10434 145.0319Q408.9481 145.0319 407.68246 143.70378Q406.41684 142.37566 406.41684 139.9694Q406.41684 137.48503 407.69028 136.11003Q408.9637 134.73503 411.0106 134.73503Q412.99496 134.73503 414.24496 136.07878Q415.49496 137.42253 415.49496 139.87566Q415.49496 140.01628 415.47934 140.31316L408.1356 140.31316Q408.22934 141.93816 409.05746 142.79753Q409.8856 143.6569 411.11996 143.6569Q412.0262 143.6569 412.67465 143.18034Q413.3231 142.70378 413.7137 141.64128ZM408.22934 138.93816L413.72934 138.93816Q413.61996 137.70378 413.10434 137.07878Q412.30746 136.11003 411.0262 136.11003Q409.8856 136.11003 409.09653 136.88347Q408.30746 137.6569 408.22934 138.93816Z" fill-rule="nonzero" fill="#000000"></path><path d="M263.35434 154.75066L441.3071 154.75066L441.3071 185.90027L263.35434 185.90027Z" fill-rule="nonzero" fill="#cfe2f3" stroke="#073763" stroke-width="2.0" stroke-linejoin="round" stroke-linecap="butt"></path><path d="M310.60434 172.04753L312.4012 172.50066Q311.8387 174.7194 310.36996 175.88347Q308.9012 177.04753 306.7762 177.04753Q304.5731 177.04753 303.1981 176.1491Q301.8231 175.25066 301.10434 173.55534Q300.3856 171.86003 300.3856 169.9069Q300.3856 167.7819 301.19028 166.20378Q301.99496 164.62566 303.49496 163.80534Q304.99496 162.98503 306.79184 162.98503Q308.8387 162.98503 310.22934 164.0241Q311.61996 165.06316 312.16684 166.93816L310.4012 167.36003Q309.93246 165.87566 309.0262 165.19597Q308.11996 164.51628 306.7606 164.51628Q305.1981 164.51628 304.1434 165.26628Q303.0887 166.01628 302.65903 167.28972Q302.22934 168.56316 302.22934 169.9069Q302.22934 171.64128 302.73715 172.93034Q303.24496 174.2194 304.31528 174.86003Q305.3856 175.50066 306.61996 175.50066Q308.1356 175.50066 309.18246 174.63347Q310.22934 173.76628 310.60434 172.04753ZM320.5887 175.5944Q319.6512 176.39128 318.79184 176.7116Q317.93246 177.0319 316.9481 177.0319Q315.3387 177.0319 314.4637 176.24284Q313.5887 175.45378 313.5887 174.2194Q313.5887 173.48503 313.91684 172.89128Q314.24496 172.29753 314.7762 171.93816Q315.30746 171.57878 315.97934 171.39128Q316.47934 171.25066 317.4637 171.14128Q319.49496 170.89128 320.4481 170.56316Q320.4481 170.2194 320.4481 170.12566Q320.4481 169.11003 319.97934 168.68816Q319.3387 168.12566 318.0731 168.12566Q316.9012 168.12566 316.3387 168.5319Q315.7762 168.93816 315.5106 170.00066L313.86996 169.76628Q314.10434 168.7194 314.61215 168.07878Q315.11996 167.43816 316.0809 167.0866Q317.04184 166.73503 318.3231 166.73503Q319.5887 166.73503 320.36996 167.0319Q321.1512 167.32878 321.5262 167.7819Q321.9012 168.23503 322.04184 168.92253Q322.1356 169.3444 322.1356 170.45378L322.1356 172.68816Q322.1356 175.01628 322.23715 175.63347Q322.3387 176.25066 322.66684 176.81316L320.91684 176.81316Q320.6512 176.29753 320.5887 175.5944ZM320.4481 171.87566Q319.54184 172.23503 317.7137 172.50066Q316.68246 172.64128 316.2606 172.82878Q315.8387 173.01628 315.60434 173.37566Q315.36996 173.73503 315.36996 174.17253Q315.36996 174.8444 315.87778 175.28972Q316.3856 175.73503 317.35434 175.73503Q318.3231 175.73503 319.0731 175.30534Q319.8231 174.87566 320.18246 174.1569Q320.4481 173.57878 320.4481 172.48503L320.4481 171.87566ZM330.9637 173.20378L332.60434 173.42253Q332.3387 175.11003 331.22934 176.07097Q330.11996 177.0319 328.49496 177.0319Q326.47934 177.0319 325.25278 175.7116Q324.0262 174.39128 324.0262 171.92253Q324.0262 170.32878 324.54965 169.13347Q325.0731 167.93816 326.15903 167.3366Q327.24496 166.73503 328.5106 166.73503Q330.11996 166.73503 331.1356 167.54753Q332.1512 168.36003 332.4481 169.86003L330.8231 170.11003Q330.5887 169.11003 329.99496 168.61003Q329.4012 168.11003 328.5731 168.11003Q327.30746 168.11003 326.5184 169.01628Q325.72934 169.92253 325.72934 171.87566Q325.72934 173.86003 326.49496 174.75847Q327.2606 175.6569 328.47934 175.6569Q329.4637 175.6569 330.11996 175.05534Q330.7762 174.45378 330.9637 173.20378ZM333.85434 176.81316L333.85434 163.2194L335.5262 163.2194L335.5262 168.0944Q336.6981 166.73503 338.47934 166.73503Q339.5731 166.73503 340.37778 167.16472Q341.18246 167.5944 341.53403 168.36003Q341.8856 169.12566 341.8856 170.56316L341.8856 176.81316L340.2137 176.81316L340.2137 170.56316Q340.2137 169.31316 339.66684 168.74284Q339.11996 168.17253 338.1356 168.17253Q337.3856 168.17253 336.73715 168.55534Q336.0887 168.93816 335.80746 169.60222Q335.5262 170.26628 335.5262 171.42253L335.5262 176.81316L333.85434 176.81316ZM350.97934 173.64128L352.6981 173.86003Q352.29184 175.36003 351.19028 176.19597Q350.0887 177.0319 348.36996 177.0319Q346.2137 177.0319 344.9481 175.70378Q343.68246 174.37566 343.68246 171.9694Q343.68246 169.48503 344.9559 168.11003Q346.22934 166.73503 348.2762 166.73503Q350.2606 166.73503 351.5106 168.07878Q352.7606 169.42253 352.7606 171.87566Q352.7606 172.01628 352.74496 172.31316L345.4012 172.31316Q345.49496 173.93816 346.3231 174.79753Q347.1512 175.6569 348.3856 175.6569Q349.29184 175.6569 349.94028 175.18034Q350.5887 174.70378 350.97934 173.64128ZM345.49496 170.93816L350.99496 170.93816Q350.8856 169.70378 350.36996 169.07878Q349.5731 168.11003 348.29184 168.11003Q347.1512 168.11003 346.36215 168.88347Q345.5731 169.6569 345.49496 170.93816ZM359.93246 176.81316L359.93246 163.2194L361.72934 163.2194L361.72934 175.20378L368.43246 175.20378L368.43246 176.81316L359.93246 176.81316ZM376.60434 175.5944Q375.66684 176.39128 374.80746 176.7116Q373.9481 177.0319 372.9637 177.0319Q371.35434 177.0319 370.47934 176.24284Q369.60434 175.45378 369.60434 174.2194Q369.60434 173.48503 369.93246 172.89128Q370.2606 172.29753 370.79184 171.93816Q371.3231 171.57878 371.99496 171.39128Q372.49496 171.25066 373.47934 171.14128Q375.5106 170.89128 376.4637 170.56316Q376.4637 170.2194 376.4637 170.12566Q376.4637 169.11003 375.99496 168.68816Q375.35434 168.12566 374.0887 168.12566Q372.91684 168.12566 372.35434 168.5319Q371.79184 168.93816 371.5262 170.00066L369.8856 169.76628Q370.11996 168.7194 370.62778 168.07878Q371.1356 167.43816 372.09653 167.0866Q373.05746 166.73503 374.3387 166.73503Q375.60434 166.73503 376.3856 167.0319Q377.16684 167.32878 377.54184 167.7819Q377.91684 168.23503 378.05746 168.92253Q378.1512 169.3444 378.1512 170.45378L378.1512 172.68816Q378.1512 175.01628 378.25278 175.63347Q378.35434 176.25066 378.68246 176.81316L376.93246 176.81316Q376.66684 176.29753 376.60434 175.5944ZM376.4637 171.87566Q375.55746 172.23503 373.72934 172.50066Q372.6981 172.64128 372.2762 172.82878Q371.85434 173.01628 371.61996 173.37566Q371.3856 173.73503 371.3856 174.17253Q371.3856 174.8444 371.8934 175.28972Q372.4012 175.73503 373.36996 175.73503Q374.3387 175.73503 375.0887 175.30534Q375.8387 174.87566 376.1981 174.1569Q376.4637 173.57878 376.4637 172.48503L376.4637 171.87566ZM380.4637 180.61003L380.29184 179.04753Q380.8387 179.18816 381.24496 179.18816Q381.79184 179.18816 382.12778 179.00066Q382.4637 178.81316 382.68246 178.48503Q382.8387 178.23503 383.18246 177.23503Q383.22934 177.0944 383.3387 176.82878L379.60434 166.95378L381.4012 166.95378L383.4481 172.67253Q383.85434 173.75066 384.16684 174.95378Q384.4481 173.79753 384.85434 172.70378L386.9481 166.95378L388.61996 166.95378L384.86996 176.98503Q384.2762 178.61003 383.93246 179.2194Q383.49496 180.04753 382.91684 180.43034Q382.3387 180.81316 381.54184 180.81316Q381.05746 180.81316 380.4637 180.61003ZM396.61996 173.64128L398.3387 173.86003Q397.93246 175.36003 396.8309 176.19597Q395.72934 177.0319 394.0106 177.0319Q391.85434 177.0319 390.5887 175.70378Q389.3231 174.37566 389.3231 171.9694Q389.3231 169.48503 390.59653 168.11003Q391.86996 166.73503 393.91684 166.73503Q395.9012 166.73503 397.1512 168.07878Q398.4012 169.42253 398.4012 171.87566Q398.4012 172.01628 398.3856 172.31316L391.04184 172.31316Q391.1356 173.93816 391.9637 174.79753Q392.79184 175.6569 394.0262 175.6569Q394.93246 175.6569 395.5809 175.18034Q396.22934 174.70378 396.61996 173.64128ZM391.1356 170.93816L396.6356 170.93816Q396.5262 169.70378 396.0106 169.07878Q395.2137 168.11003 393.93246 168.11003Q392.79184 168.11003 392.00278 168.88347Q391.2137 169.6569 391.1356 170.93816ZM400.22934 176.81316L400.22934 166.95378L401.72934 166.95378L401.72934 168.45378Q402.30746 167.4069 402.79184 167.07097Q403.2762 166.73503 403.86996 166.73503Q404.7137 166.73503 405.5887 167.2819L405.0106 168.82878Q404.4012 168.4694 403.7762 168.4694Q403.22934 168.4694 402.79965 168.79753Q402.36996 169.12566 402.18246 169.70378Q401.9012 170.5944 401.9012 171.6569L401.9012 176.81316L400.22934 176.81316Z" fill-rule="nonzero" fill="#000000"></path><path d="M263.35434 186.75066L441.3071 186.75066L441.3071 217.90027L263.35434 217.90027Z" fill-rule="nonzero" fill="#cfe2f3" stroke="#073763" stroke-width="2.0" stroke-linejoin="round" stroke-linecap="butt"></path><path d="M300.8231 204.43816L302.5106 204.29753Q302.6356 205.31316 303.0731 205.9694Q303.5106 206.62566 304.44028 207.0319Q305.36996 207.43816 306.5262 207.43816Q307.55746 207.43816 308.34653 207.12566Q309.1356 206.81316 309.5262 206.2819Q309.91684 205.75066 309.91684 205.12566Q309.91684 204.48503 309.54184 204.00847Q309.16684 203.5319 308.30746 203.20378Q307.7606 202.98503 305.8856 202.53972Q304.0106 202.0944 303.2606 201.68816Q302.29184 201.17253 301.81528 200.42253Q301.3387 199.67253 301.3387 198.73503Q301.3387 197.70378 301.92465 196.80534Q302.5106 195.9069 303.62778 195.44597Q304.74496 194.98503 306.11996 194.98503Q307.6356 194.98503 308.79184 195.4694Q309.9481 195.95378 310.56528 196.8991Q311.18246 197.8444 311.22934 199.04753L309.5106 199.17253Q309.36996 197.89128 308.56528 197.22722Q307.7606 196.56316 306.1981 196.56316Q304.5731 196.56316 303.8231 197.16472Q303.0731 197.76628 303.0731 198.61003Q303.0731 199.3444 303.60434 199.81316Q304.11996 200.2819 306.31528 200.7819Q308.5106 201.2819 309.3231 201.6569Q310.5106 202.20378 311.0809 203.03972Q311.6512 203.87566 311.6512 204.9694Q311.6512 206.06316 311.0262 207.0241Q310.4012 207.98503 309.23715 208.51628Q308.0731 209.04753 306.61996 209.04753Q304.7762 209.04753 303.5262 208.50847Q302.2762 207.9694 301.56528 206.89128Q300.85434 205.81316 300.8231 204.43816ZM320.4012 205.64128L322.11996 205.86003Q321.7137 207.36003 320.61215 208.19597Q319.5106 209.0319 317.79184 209.0319Q315.6356 209.0319 314.36996 207.70378Q313.10434 206.37566 313.10434 203.9694Q313.10434 201.48503 314.37778 200.11003Q315.6512 198.73503 317.6981 198.73503Q319.68246 198.73503 320.93246 200.07878Q322.18246 201.42253 322.18246 203.87566Q322.18246 204.01628 322.16684 204.31316L314.8231 204.31316Q314.91684 205.93816 315.74496 206.79753Q316.5731 207.6569 317.80746 207.6569Q318.7137 207.6569 319.36215 207.18034Q320.0106 206.70378 320.4012 205.64128ZM314.91684 202.93816L320.41684 202.93816Q320.30746 201.70378 319.79184 201.07878Q318.99496 200.11003 317.7137 200.11003Q316.5731 200.11003 315.78403 200.88347Q314.99496 201.6569 314.91684 202.93816ZM324.0106 208.81316L324.0106 198.95378L325.5106 198.95378L325.5106 200.45378Q326.0887 199.4069 326.5731 199.07097Q327.05746 198.73503 327.6512 198.73503Q328.49496 198.73503 329.36996 199.2819L328.79184 200.82878Q328.18246 200.4694 327.55746 200.4694Q327.0106 200.4694 326.5809 200.79753Q326.1512 201.12566 325.9637 201.70378Q325.68246 202.5944 325.68246 203.6569L325.68246 208.81316L324.0106 208.81316ZM332.97934 208.81316L329.22934 198.95378L330.99496 198.95378L333.11996 204.86003Q333.4637 205.81316 333.74496 206.8444Q333.9637 206.06316 334.36996 204.9694L336.55746 198.95378L338.2762 198.95378L334.54184 208.81316L332.97934 208.81316ZM346.3231 205.64128L348.04184 205.86003Q347.6356 207.36003 346.53403 208.19597Q345.43246 209.0319 343.7137 209.0319Q341.55746 209.0319 340.29184 207.70378Q339.0262 206.37566 339.0262 203.9694Q339.0262 201.48503 340.29965 200.11003Q341.5731 198.73503 343.61996 198.73503Q345.60434 198.73503 346.85434 200.07878Q348.10434 201.42253 348.10434 203.87566Q348.10434 204.01628 348.0887 204.31316L340.74496 204.31316Q340.8387 205.93816 341.66684 206.79753Q342.49496 207.6569 343.72934 207.6569Q344.6356 207.6569 345.28403 207.18034Q345.93246 206.70378 346.3231 205.64128ZM340.8387 202.93816L346.3387 202.93816Q346.22934 201.70378 345.7137 201.07878Q344.91684 200.11003 343.6356 200.11003Q342.49496 200.11003 341.7059 200.88347Q340.91684 201.6569 340.8387 202.93816ZM349.93246 208.81316L349.93246 198.95378L351.43246 198.95378L351.43246 200.45378Q352.0106 199.4069 352.49496 199.07097Q352.97934 198.73503 353.5731 198.73503Q354.41684 198.73503 355.29184 199.2819L354.7137 200.82878Q354.10434 200.4694 353.47934 200.4694Q352.93246 200.4694 352.50278 200.79753Q352.0731 201.12566 351.8856 201.70378Q351.60434 202.5944 351.60434 203.6569L351.60434 208.81316L349.93246 208.81316ZM361.47934 208.81316L361.47934 195.2194L363.2762 195.2194L363.2762 207.20378L369.97934 207.20378L369.97934 208.81316L361.47934 208.81316ZM371.0887 203.89128Q371.0887 201.1569 372.61996 199.82878Q373.8856 198.73503 375.7137 198.73503Q377.74496 198.73503 379.03403 200.07097Q380.3231 201.4069 380.3231 203.75066Q380.3231 205.6569 379.75278 206.74284Q379.18246 207.82878 378.09653 208.43034Q377.0106 209.0319 375.7137 209.0319Q373.6512 209.0319 372.36996 207.70378Q371.0887 206.37566 371.0887 203.89128ZM372.80746 203.89128Q372.80746 205.7819 373.6356 206.7194Q374.4637 207.6569 375.7137 207.6569Q376.9637 207.6569 377.78403 206.7116Q378.60434 205.76628 378.60434 203.82878Q378.60434 202.00066 377.7762 201.06316Q376.9481 200.12566 375.7137 200.12566Q374.4637 200.12566 373.6356 201.06316Q372.80746 202.00066 372.80746 203.89128ZM381.79184 209.62566L383.4012 209.87566Q383.5106 210.62566 383.97934 210.9694Q384.5887 211.42253 385.66684 211.42253Q386.8387 211.42253 387.4637 210.9616Q388.0887 210.50066 388.3231 209.67253Q388.4481 209.1569 388.43246 207.51628Q387.3387 208.81316 385.7137 208.81316Q383.68246 208.81316 382.56528 207.3444Q381.4481 205.87566 381.4481 203.82878Q381.4481 202.42253 381.9637 201.22722Q382.47934 200.0319 383.4481 199.38347Q384.41684 198.73503 385.7137 198.73503Q387.4637 198.73503 388.5887 200.14128L388.5887 198.95378L390.1356 198.95378L390.1356 207.4694Q390.1356 209.7819 389.66684 210.74284Q389.1981 211.70378 388.18246 212.25847Q387.16684 212.81316 385.68246 212.81316Q383.91684 212.81316 382.8309 212.01628Q381.74496 211.2194 381.79184 209.62566ZM383.16684 203.70378Q383.16684 205.6569 383.94028 206.54753Q384.7137 207.43816 385.86996 207.43816Q387.0106 207.43816 387.79184 206.54753Q388.5731 205.6569 388.5731 203.76628Q388.5731 201.95378 387.7684 201.03972Q386.9637 200.12566 385.8387 200.12566Q384.72934 200.12566 383.9481 201.0241Q383.16684 201.92253 383.16684 203.70378ZM392.47934 197.12566L392.47934 195.2194L394.1512 195.2194L394.1512 197.12566L392.47934 197.12566ZM392.47934 208.81316L392.47934 198.95378L394.1512 198.95378L394.1512 208.81316L392.47934 208.81316ZM403.04184 205.20378L404.68246 205.42253Q404.41684 207.11003 403.30746 208.07097Q402.1981 209.0319 400.5731 209.0319Q398.55746 209.0319 397.3309 207.7116Q396.10434 206.39128 396.10434 203.92253Q396.10434 202.32878 396.62778 201.13347Q397.1512 199.93816 398.23715 199.3366Q399.3231 198.73503 400.5887 198.73503Q402.1981 198.73503 403.2137 199.54753Q404.22934 200.36003 404.5262 201.86003L402.9012 202.11003Q402.66684 201.11003 402.0731 200.61003Q401.47934 200.11003 400.6512 200.11003Q399.3856 200.11003 398.59653 201.01628Q397.80746 201.92253 397.80746 203.87566Q397.80746 205.86003 398.5731 206.75847Q399.3387 207.6569 400.55746 207.6569Q401.54184 207.6569 402.1981 207.05534Q402.85434 206.45378 403.04184 205.20378Z" fill-rule="nonzero" fill="#000000"></path><path d="M229.54593 114.76753L239.32545 104.98801L249.10498 114.76753L244.21523 114.76753L244.21523 227.7754L249.10498 227.7754L239.32545 237.55493L229.54593 227.7754L234.4357 227.7754L234.4357 114.76753Z" fill-rule="nonzero" fill="#cfe2f3" stroke="#073763" stroke-width="2.0" stroke-linejoin="round" stroke-linecap="butt"></path><path d="M263.35434 218.75066L441.3071 218.75066L441.3071 249.90027L263.35434 249.90027Z" fill-rule="nonzero" fill="#cfe2f3" stroke="#073763" stroke-width="2.0" stroke-linejoin="round" stroke-linecap="butt"></path><path d="M287.93246 240.81316L287.93246 227.2194L292.61996 227.2194Q294.1981 227.2194 295.04184 227.4069Q296.1981 227.67253 297.0262 228.37566Q298.10434 229.29753 298.6356 230.7116Q299.16684 232.12566 299.16684 233.93816Q299.16684 235.48503 298.80746 236.68034Q298.4481 237.87566 297.8856 238.66472Q297.3231 239.45378 296.6512 239.8991Q295.97934 240.3444 295.0262 240.57878Q294.0731 240.81316 292.8387 240.81316L287.93246 240.81316ZM289.72934 239.20378L292.6356 239.20378Q293.97934 239.20378 294.74496 238.95378Q295.5106 238.70378 295.9637 238.25066Q296.60434 237.61003 296.9637 236.5319Q297.3231 235.45378 297.3231 233.9069Q297.3231 231.7819 296.61996 230.63347Q295.91684 229.48503 294.91684 229.0944Q294.1981 228.81316 292.5887 228.81316L289.72934 228.81316L289.72934 239.20378ZM307.61996 239.5944Q306.68246 240.39128 305.8231 240.7116Q304.9637 241.0319 303.97934 241.0319Q302.36996 241.0319 301.49496 240.24284Q300.61996 239.45378 300.61996 238.2194Q300.61996 237.48503 300.9481 236.89128Q301.2762 236.29753 301.80746 235.93816Q302.3387 235.57878 303.0106 235.39128Q303.5106 235.25066 304.49496 235.14128Q306.5262 234.89128 307.47934 234.56316Q307.47934 234.2194 307.47934 234.12566Q307.47934 233.11003 307.0106 232.68816Q306.36996 232.12566 305.10434 232.12566Q303.93246 232.12566 303.36996 232.5319Q302.80746 232.93816 302.54184 234.00066L300.9012 233.76628Q301.1356 232.7194 301.6434 232.07878Q302.1512 231.43816 303.11215 231.0866Q304.0731 230.73503 305.35434 230.73503Q306.61996 230.73503 307.4012 231.0319Q308.18246 231.32878 308.55746 231.7819Q308.93246 232.23503 309.0731 232.92253Q309.16684 233.3444 309.16684 234.45378L309.16684 236.68816Q309.16684 239.01628 309.2684 239.63347Q309.36996 240.25066 309.6981 240.81316L307.9481 240.81316Q307.68246 240.29753 307.61996 239.5944ZM307.47934 235.87566Q306.5731 236.23503 304.74496 236.50066Q303.7137 236.64128 303.29184 236.82878Q302.86996 237.01628 302.6356 237.37566Q302.4012 237.73503 302.4012 238.17253Q302.4012 238.8444 302.90903 239.28972Q303.41684 239.73503 304.3856 239.73503Q305.35434 239.73503 306.10434 239.30534Q306.85434 238.87566 307.2137 238.1569Q307.47934 237.57878 307.47934 236.48503L307.47934 235.87566ZM315.2137 239.31316L315.4481 240.79753Q314.74496 240.93816 314.18246 240.93816Q313.2762 240.93816 312.7762 240.6491Q312.2762 240.36003 312.0731 239.8991Q311.86996 239.43816 311.86996 237.92253L311.86996 232.26628L310.6356 232.26628L310.6356 230.95378L311.86996 230.95378L311.86996 228.51628L313.5262 227.51628L313.5262 230.95378L315.2137 230.95378L315.2137 232.26628L313.5262 232.26628L313.5262 238.01628Q313.5262 238.73503 313.61215 238.93816Q313.6981 239.14128 313.9012 239.26628Q314.10434 239.39128 314.47934 239.39128Q314.74496 239.39128 315.2137 239.31316ZM323.18246 239.5944Q322.24496 240.39128 321.3856 240.7116Q320.5262 241.0319 319.54184 241.0319Q317.93246 241.0319 317.05746 240.24284Q316.18246 239.45378 316.18246 238.2194Q316.18246 237.48503 316.5106 236.89128Q316.8387 236.29753 317.36996 235.93816Q317.9012 235.57878 318.5731 235.39128Q319.0731 235.25066 320.05746 235.14128Q322.0887 234.89128 323.04184 234.56316Q323.04184 234.2194 323.04184 234.12566Q323.04184 233.11003 322.5731 232.68816Q321.93246 232.12566 320.66684 232.12566Q319.49496 232.12566 318.93246 232.5319Q318.36996 232.93816 318.10434 234.00066L316.4637 233.76628Q316.6981 232.7194 317.2059 232.07878Q317.7137 231.43816 318.67465 231.0866Q319.6356 230.73503 320.91684 230.73503Q322.18246 230.73503 322.9637 231.0319Q323.74496 231.32878 324.11996 231.7819Q324.49496 232.23503 324.6356 232.92253Q324.72934 233.3444 324.72934 234.45378L324.72934 236.68816Q324.72934 239.01628 324.8309 239.63347Q324.93246 240.25066 325.2606 240.81316L323.5106 240.81316Q323.24496 240.29753 323.18246 239.5944ZM323.04184 235.87566Q322.1356 236.23503 320.30746 236.50066Q319.2762 236.64128 318.85434 236.82878Q318.43246 237.01628 318.1981 237.37566Q317.9637 237.73503 317.9637 238.17253Q317.9637 238.8444 318.47153 239.28972Q318.97934 239.73503 319.9481 239.73503Q320.91684 239.73503 321.66684 239.30534Q322.41684 238.87566 322.7762 238.1569Q323.04184 237.57878 323.04184 236.48503L323.04184 235.87566ZM328.66684 240.81316L327.11996 240.81316L327.11996 227.2194L328.7762 227.2194L328.7762 232.06316Q329.8387 230.73503 331.47934 230.73503Q332.3856 230.73503 333.1981 231.10222Q334.0106 231.4694 334.53403 232.13347Q335.05746 232.79753 335.35434 233.73503Q335.6512 234.67253 335.6512 235.73503Q335.6512 238.26628 334.4012 239.6491Q333.1512 241.0319 331.4012 241.0319Q329.6512 241.0319 328.66684 239.57878L328.66684 240.81316ZM328.6512 235.81316Q328.6512 237.57878 329.11996 238.37566Q329.91684 239.6569 331.2606 239.6569Q332.35434 239.6569 333.1512 238.7116Q333.9481 237.76628 333.9481 235.87566Q333.9481 233.95378 333.18246 233.0319Q332.41684 232.11003 331.3387 232.11003Q330.24496 232.11003 329.4481 233.06316Q328.6512 234.01628 328.6512 235.81316ZM343.93246 239.5944Q342.99496 240.39128 342.1356 240.7116Q341.2762 241.0319 340.29184 241.0319Q338.68246 241.0319 337.80746 240.24284Q336.93246 239.45378 336.93246 238.2194Q336.93246 237.48503 337.2606 236.89128Q337.5887 236.29753 338.11996 235.93816Q338.6512 235.57878 339.3231 235.39128Q339.8231 235.25066 340.80746 235.14128Q342.8387 234.89128 343.79184 234.56316Q343.79184 234.2194 343.79184 234.12566Q343.79184 233.11003 343.3231 232.68816Q342.68246 232.12566 341.41684 232.12566Q340.24496 232.12566 339.68246 232.5319Q339.11996 232.93816 338.85434 234.00066L337.2137 233.76628Q337.4481 232.7194 337.9559 232.07878Q338.4637 231.43816 339.42465 231.0866Q340.3856 230.73503 341.66684 230.73503Q342.93246 230.73503 343.7137 231.0319Q344.49496 231.32878 344.86996 231.7819Q345.24496 232.23503 345.3856 232.92253Q345.47934 233.3444 345.47934 234.45378L345.47934 236.68816Q345.47934 239.01628 345.5809 239.63347Q345.68246 240.25066 346.0106 240.81316L344.2606 240.81316Q343.99496 240.29753 343.93246 239.5944ZM343.79184 235.87566Q342.8856 236.23503 341.05746 236.50066Q340.0262 236.64128 339.60434 236.82878Q339.18246 237.01628 338.9481 237.37566Q338.7137 237.73503 338.7137 238.17253Q338.7137 238.8444 339.22153 239.28972Q339.72934 239.73503 340.6981 239.73503Q341.66684 239.73503 342.41684 239.30534Q343.16684 238.87566 343.5262 238.1569Q343.79184 237.57878 343.79184 236.48503L343.79184 235.87566ZM347.1981 237.87566L348.85434 237.61003Q348.99496 238.61003 349.62778 239.13347Q350.2606 239.6569 351.4012 239.6569Q352.55746 239.6569 353.11215 239.18816Q353.66684 238.7194 353.66684 238.0944Q353.66684 237.5319 353.18246 237.20378Q352.8387 236.98503 351.47934 236.64128Q349.6356 236.17253 348.92465 235.8366Q348.2137 235.50066 347.84653 234.8991Q347.47934 234.29753 347.47934 233.57878Q347.47934 232.92253 347.78403 232.36003Q348.0887 231.79753 348.60434 231.42253Q348.99496 231.14128 349.66684 230.93816Q350.3387 230.73503 351.10434 230.73503Q352.2762 230.73503 353.1512 231.07097Q354.0262 231.4069 354.44028 231.97722Q354.85434 232.54753 355.0106 233.50066L353.3856 233.7194Q353.2762 232.9694 352.73715 232.53972Q352.1981 232.11003 351.22934 232.11003Q350.0731 232.11003 349.5887 232.49284Q349.10434 232.87566 349.10434 233.37566Q349.10434 233.70378 349.30746 233.9694Q349.5106 234.23503 349.9481 234.4069Q350.1981 234.50066 351.41684 234.8444Q353.18246 235.31316 353.8856 235.61003Q354.5887 235.9069 354.98715 236.48503Q355.3856 237.06316 355.3856 237.92253Q355.3856 238.75066 354.9012 239.49284Q354.41684 240.23503 353.49496 240.63347Q352.5731 241.0319 351.41684 241.0319Q349.49496 241.0319 348.48715 240.23503Q347.47934 239.43816 347.1981 237.87566ZM363.9481 237.64128L365.66684 237.86003Q365.2606 239.36003 364.15903 240.19597Q363.05746 241.0319 361.3387 241.0319Q359.18246 241.0319 357.91684 239.70378Q356.6512 238.37566 356.6512 235.9694Q356.6512 233.48503 357.92465 232.11003Q359.1981 230.73503 361.24496 230.73503Q363.22934 230.73503 364.47934 232.07878Q365.72934 233.42253 365.72934 235.87566Q365.72934 236.01628 365.7137 236.31316L358.36996 236.31316Q358.4637 237.93816 359.29184 238.79753Q360.11996 239.6569 361.35434 239.6569Q362.2606 239.6569 362.90903 239.18034Q363.55746 238.70378 363.9481 237.64128ZM358.4637 234.93816L363.9637 234.93816Q363.85434 233.70378 363.3387 233.07878Q362.54184 232.11003 361.2606 232.11003Q360.11996 232.11003 359.3309 232.88347Q358.54184 233.6569 358.4637 234.93816ZM372.9012 240.81316L372.9012 227.2194L374.6981 227.2194L374.6981 239.20378L381.4012 239.20378L381.4012 240.81316L372.9012 240.81316ZM389.5731 239.5944Q388.6356 240.39128 387.7762 240.7116Q386.91684 241.0319 385.93246 241.0319Q384.3231 241.0319 383.4481 240.24284Q382.5731 239.45378 382.5731 238.2194Q382.5731 237.48503 382.9012 236.89128Q383.22934 236.29753 383.7606 235.93816Q384.29184 235.57878 384.9637 235.39128Q385.4637 235.25066 386.4481 235.14128Q388.47934 234.89128 389.43246 234.56316Q389.43246 234.2194 389.43246 234.12566Q389.43246 233.11003 388.9637 232.68816Q388.3231 232.12566 387.05746 232.12566Q385.8856 232.12566 385.3231 232.5319Q384.7606 232.93816 384.49496 234.00066L382.85434 233.76628Q383.0887 232.7194 383.59653 232.07878Q384.10434 231.43816 385.06528 231.0866Q386.0262 230.73503 387.30746 230.73503Q388.5731 230.73503 389.35434 231.0319Q390.1356 231.32878 390.5106 231.7819Q390.8856 232.23503 391.0262 232.92253Q391.11996 233.3444 391.11996 234.45378L391.11996 236.68816Q391.11996 239.01628 391.22153 239.63347Q391.3231 240.25066 391.6512 240.81316L389.9012 240.81316Q389.6356 240.29753 389.5731 239.5944ZM389.43246 235.87566Q388.5262 236.23503 386.6981 236.50066Q385.66684 236.64128 385.24496 236.82878Q384.8231 237.01628 384.5887 237.37566Q384.35434 237.73503 384.35434 238.17253Q384.35434 238.8444 384.86215 239.28972Q385.36996 239.73503 386.3387 239.73503Q387.30746 239.73503 388.05746 239.30534Q388.80746 238.87566 389.16684 238.1569Q389.43246 237.57878 389.43246 236.48503L389.43246 235.87566ZM393.43246 244.61003L393.2606 243.04753Q393.80746 243.18816 394.2137 243.18816Q394.7606 243.18816 395.09653 243.00066Q395.43246 242.81316 395.6512 242.48503Q395.80746 242.23503 396.1512 241.23503Q396.1981 241.0944 396.30746 240.82878L392.5731 230.95378L394.36996 230.95378L396.41684 236.67253Q396.8231 237.75066 397.1356 238.95378Q397.41684 237.79753 397.8231 236.70378L399.91684 230.95378L401.5887 230.95378L397.8387 240.98503Q397.24496 242.61003 396.9012 243.2194Q396.4637 244.04753 395.8856 244.43034Q395.30746 244.81316 394.5106 244.81316Q394.0262 244.81316 393.43246 244.61003ZM409.5887 237.64128L411.30746 237.86003Q410.9012 239.36003 409.79965 240.19597Q408.6981 241.0319 406.97934 241.0319Q404.8231 241.0319 403.55746 239.70378Q402.29184 238.37566 402.29184 235.9694Q402.29184 233.48503 403.56528 232.11003Q404.8387 230.73503 406.8856 230.73503Q408.86996 230.73503 410.11996 232.07878Q411.36996 233.42253 411.36996 235.87566Q411.36996 236.01628 411.35434 236.31316L404.0106 236.31316Q404.10434 237.93816 404.93246 238.79753Q405.7606 239.6569 406.99496 239.6569Q407.9012 239.6569 408.54965 239.18034Q409.1981 238.70378 409.5887 237.64128ZM404.10434 234.93816L409.60434 234.93816Q409.49496 233.70378 408.97934 233.07878Q408.18246 232.11003 406.9012 232.11003Q405.7606 232.11003 404.97153 232.88347Q404.18246 233.6569 404.10434 234.93816ZM413.1981 240.81316L413.1981 230.95378L414.6981 230.95378L414.6981 232.45378Q415.2762 231.4069 415.7606 231.07097Q416.24496 230.73503 416.8387 230.73503Q417.68246 230.73503 418.55746 231.2819L417.97934 232.82878Q417.36996 232.4694 416.74496 232.4694Q416.1981 232.4694 415.7684 232.79753Q415.3387 233.12566 415.1512 233.70378Q414.86996 234.5944 414.86996 235.6569L414.86996 240.81316L413.1981 240.81316Z" fill-rule="nonzero" fill="#000000"></path></svg>

