<?xml version="1.0" standalone="yes"?>

<svg version="1.1" viewBox="0.0 0.0 960.0 720.0" fill="none" stroke="none" stroke-linecap="square" stroke-miterlimit="10" clip-path="url(#clip0)" xmlns="http://www.w3.org/2000/svg" xmlns:xlink="http://www.w3.org/1999/xlink"><clipPath id="clip0"><path d="M0 0L960.0 0L960.0 720.0L0 720.0L0 0Z" clip-rule="nonzero"></path></clipPath><path d="M141.6705 338.9134L223.62326 338.9134L223.62326 381.0866L141.6705 381.0866Z" fill-rule="nonzero" stroke="#073763" stroke-width="2.0" stroke-linejoin="round" stroke-linecap="butt"></path><path d="M169.57675 353.30402L171.01425 353.17902Q171.108 354.0384 171.483 354.59308Q171.858 355.14777 172.63925 355.4837Q173.4205 355.81964 174.38925 355.81964Q175.26425 355.81964 175.92831 355.56183Q176.59238 355.30402 176.91269 354.8587Q177.233 354.4134 177.233 353.88214Q177.233 353.33527 176.9205 352.93683Q176.608 352.5384 175.88925 352.25714Q175.43613 352.08527 173.858 351.70245Q172.27988 351.31964 171.63925 350.99152Q170.82675 350.55402 170.4205 349.9212Q170.01425 349.2884 170.01425 348.49152Q170.01425 347.63214 170.50644 346.87433Q170.99863 346.11652 171.94394 345.7259Q172.88925 345.33527 174.0455 345.33527Q175.32675 345.33527 176.2955 345.74933Q177.26425 346.1634 177.78769 346.96027Q178.31113 347.75714 178.358 348.75714L176.90488 348.86652Q176.77988 347.7884 176.108 347.2337Q175.43613 346.67902 174.108 346.67902Q172.733 346.67902 172.108 347.17902Q171.483 347.67902 171.483 348.39777Q171.483 349.00714 171.9205 349.4134Q172.358 349.80402 174.20956 350.2259Q176.06113 350.64777 176.74863 350.96027Q177.74863 351.4134 178.22519 352.12433Q178.70175 352.83527 178.70175 353.75714Q178.70175 354.6634 178.17831 355.4759Q177.65488 356.2884 176.6705 356.74152Q175.68613 357.19464 174.46738 357.19464Q172.90488 357.19464 171.858 356.7337Q170.81113 356.27277 170.20956 355.36652Q169.608 354.46027 169.57675 353.30402ZM185.99863 355.96027Q185.21738 356.63214 184.49863 356.90558Q183.77988 357.17902 182.95175 357.17902Q181.57675 357.17902 180.84238 356.50714Q180.108 355.83527 180.108 354.80402Q180.108 354.19464 180.38925 353.68683Q180.6705 353.17902 181.11581 352.87433Q181.56113 352.56964 182.12363 352.4134Q182.5455 352.30402 183.37363 352.21027Q185.07675 352.00714 185.88925 351.7259Q185.88925 351.42902 185.88925 351.3509Q185.88925 350.49152 185.49863 350.14777Q184.95175 349.6634 183.88925 349.6634Q182.90488 349.6634 182.42831 350.01495Q181.95175 350.36652 181.733 351.24152L180.358 351.05402Q180.5455 350.17902 180.97519 349.63214Q181.40488 349.08527 182.21738 348.7962Q183.02988 348.50714 184.09238 348.50714Q185.15488 348.50714 185.81894 348.75714Q186.483 349.00714 186.7955 349.38214Q187.108 349.75714 187.233 350.33527Q187.31113 350.69464 187.31113 351.63214L187.31113 353.50714Q187.31113 355.4759 187.39706 355.99152Q187.483 356.50714 187.74863 356.99152L186.27988 356.99152Q186.06113 356.55402 185.99863 355.96027ZM185.88925 352.81964Q185.12363 353.13214 183.59238 353.3509Q182.71738 353.4759 182.358 353.63214Q181.99863 353.7884 181.80331 354.09308Q181.608 354.39777 181.608 354.75714Q181.608 355.31964 182.03769 355.69464Q182.46738 356.06964 183.27988 356.06964Q184.09238 356.06964 184.72519 355.71808Q185.358 355.36652 185.65488 354.74152Q185.88925 354.27277 185.88925 353.33527L185.88925 352.81964ZM189.45175 356.99152L189.45175 345.5384L190.858 345.5384L190.858 356.99152L189.45175 356.99152ZM196.108 355.7259L196.31113 356.9759Q195.71738 357.1009 195.24863 357.1009Q194.483 357.1009 194.06113 356.8587Q193.63925 356.61652 193.46738 356.21808Q193.2955 355.81964 193.2955 354.55402L193.2955 349.7884L192.26425 349.7884L192.26425 348.69464L193.2955 348.69464L193.2955 346.63214L194.70175 345.7884L194.70175 348.69464L196.108 348.69464L196.108 349.7884L194.70175 349.7884L194.70175 354.63214Q194.70175 355.24152 194.77206 355.4134Q194.84238 355.58527 195.01425 355.68683Q195.18613 355.7884 195.49863 355.7884Q195.733 355.7884 196.108 355.7259Z" fill-rule="nonzero" fill="#000000"></path><path d="M157.483 374.99152L156.07675 374.99152L156.07675 366.02277Q155.56113 366.50714 154.74081 366.99152Q153.9205 367.4759 153.26425 367.7259L153.26425 366.36652Q154.43613 365.80402 155.31894 365.01495Q156.20175 364.2259 156.57675 363.49152L157.483 363.49152L157.483 374.99152ZM168.37363 366.33527L166.96738 366.44464Q166.77988 365.61652 166.43613 365.24152Q165.87363 364.64777 165.02988 364.64777Q164.358 364.64777 163.858 365.02277Q163.18613 365.50714 162.80331 366.43683Q162.4205 367.36652 162.40488 369.08527Q162.9205 368.30402 163.65488 367.92902Q164.38925 367.55402 165.18613 367.55402Q166.59238 367.55402 167.58456 368.59308Q168.57675 369.63214 168.57675 371.27277Q168.57675 372.3509 168.108 373.27277Q167.63925 374.19464 166.82675 374.69464Q166.01425 375.19464 164.983 375.19464Q163.233 375.19464 162.12363 373.89777Q161.01425 372.6009 161.01425 369.63214Q161.01425 366.30402 162.233 364.80402Q163.31113 363.49152 165.12363 363.49152Q166.46738 363.49152 167.33456 364.24933Q168.20175 365.00714 168.37363 366.33527ZM162.62363 371.27277Q162.62363 372.00714 162.93613 372.6712Q163.24863 373.33527 163.80331 373.67902Q164.358 374.02277 164.96738 374.02277Q165.858 374.02277 166.49863 373.30402Q167.13925 372.58527 167.13925 371.3509Q167.13925 370.1634 166.50644 369.4837Q165.87363 368.80402 164.90488 368.80402Q163.95175 368.80402 163.28769 369.4837Q162.62363 370.1634 162.62363 371.27277ZM174.9205 374.99152L174.9205 363.5384L179.21738 363.5384Q180.52988 363.5384 181.32675 363.88214Q182.12363 364.2259 182.56894 364.95245Q183.01425 365.67902 183.01425 366.46027Q183.01425 367.19464 182.61581 367.84308Q182.21738 368.49152 181.4205 368.89777Q182.45175 369.19464 183.01425 369.92902Q183.57675 370.6634 183.57675 371.6634Q183.57675 372.4759 183.233 373.1634Q182.88925 373.8509 182.38925 374.2259Q181.88925 374.6009 181.13925 374.7962Q180.38925 374.99152 179.2955 374.99152L174.9205 374.99152ZM176.43613 368.3509L178.9205 368.3509Q179.9205 368.3509 180.358 368.21027Q180.93613 368.0384 181.233 367.63995Q181.52988 367.24152 181.52988 366.64777Q181.52988 366.06964 181.25644 365.63995Q180.983 365.21027 180.47519 365.0462Q179.96738 364.88214 178.733 364.88214L176.43613 364.88214L176.43613 368.3509ZM176.43613 373.63214L179.2955 373.63214Q180.02988 373.63214 180.32675 373.58527Q180.84238 373.49152 181.19394 373.27277Q181.5455 373.05402 181.77206 372.63214Q181.99863 372.21027 181.99863 371.6634Q181.99863 371.02277 181.6705 370.55402Q181.34238 370.08527 180.76425 369.88995Q180.18613 369.69464 179.09238 369.69464L176.43613 369.69464L176.43613 373.63214ZM185.4205 378.19464L185.26425 376.86652Q185.71738 376.99152 186.06113 376.99152Q186.52988 376.99152 186.81113 376.83527Q187.09238 376.67902 187.27988 376.39777Q187.40488 376.19464 187.70175 375.3509Q187.74863 375.24152 187.82675 375.00714L184.68613 366.69464L186.20175 366.69464L187.9205 371.49152Q188.26425 372.4134 188.52988 373.4134Q188.76425 372.44464 189.108 371.52277L190.87363 366.69464L192.27988 366.69464L189.12363 375.13214Q188.62363 376.50714 188.34238 377.02277Q187.96738 377.71027 187.483 378.0384Q186.99863 378.36652 186.32675 378.36652Q185.9205 378.36652 185.4205 378.19464ZM196.5455 373.7259L196.74863 374.9759Q196.15488 375.1009 195.68613 375.1009Q194.9205 375.1009 194.49863 374.8587Q194.07675 374.61652 193.90488 374.21808Q193.733 373.81964 193.733 372.55402L193.733 367.7884L192.70175 367.7884L192.70175 366.69464L193.733 366.69464L193.733 364.63214L195.13925 363.7884L195.13925 366.69464L196.5455 366.69464L196.5455 367.7884L195.13925 367.7884L195.13925 372.63214Q195.13925 373.24152 195.20956 373.4134Q195.27988 373.58527 195.45175 373.68683Q195.62363 373.7884 195.93613 373.7884Q196.1705 373.7884 196.5455 373.7259ZM203.608 372.31964L205.06113 372.49152Q204.71738 373.77277 203.78769 374.4759Q202.858 375.17902 201.4205 375.17902Q199.59238 375.17902 198.52988 374.05402Q197.46738 372.92902 197.46738 370.9134Q197.46738 368.81964 198.5455 367.6634Q199.62363 366.50714 201.34238 366.50714Q202.99863 366.50714 204.05331 367.63995Q205.108 368.77277 205.108 370.81964Q205.108 370.94464 205.108 371.19464L198.9205 371.19464Q198.99863 372.56964 199.69394 373.2962Q200.38925 374.02277 201.4205 374.02277Q202.20175 374.02277 202.74863 373.61652Q203.2955 373.21027 203.608 372.31964ZM198.99863 370.0384L203.62363 370.0384Q203.52988 368.99152 203.09238 368.4759Q202.4205 367.6634 201.358 367.6634Q200.38925 367.6634 199.72519 368.31183Q199.06113 368.96027 198.99863 370.0384ZM206.26425 372.50714L207.65488 372.2884Q207.76425 373.13214 208.30331 373.57745Q208.84238 374.02277 209.7955 374.02277Q210.76425 374.02277 211.233 373.62433Q211.70175 373.2259 211.70175 372.69464Q211.70175 372.2259 211.2955 371.94464Q210.99863 371.75714 209.858 371.4759Q208.31113 371.08527 207.70956 370.7962Q207.108 370.50714 206.80331 370.00714Q206.49863 369.50714 206.49863 368.89777Q206.49863 368.33527 206.74863 367.86652Q206.99863 367.39777 207.43613 367.08527Q207.76425 366.83527 208.33456 366.6712Q208.90488 366.50714 209.5455 366.50714Q210.52988 366.50714 211.26425 366.7884Q211.99863 367.06964 212.35019 367.5462Q212.70175 368.02277 212.84238 368.83527L211.46738 369.02277Q211.37363 368.38214 210.9205 368.02277Q210.46738 367.6634 209.65488 367.6634Q208.68613 367.6634 208.27206 367.9837Q207.858 368.30402 207.858 368.7259Q207.858 369.00714 208.02988 369.2259Q208.20175 369.44464 208.56113 369.6009Q208.77988 369.67902 209.81113 369.96027Q211.2955 370.3509 211.88925 370.6087Q212.483 370.86652 212.81894 371.3509Q213.15488 371.83527 213.15488 372.55402Q213.15488 373.25714 212.74081 373.87433Q212.32675 374.49152 211.55331 374.83527Q210.77988 375.17902 209.81113 375.17902Q208.18613 375.17902 207.34238 374.50714Q206.49863 373.83527 206.26425 372.50714Z" fill-rule="nonzero" fill="#000000"></path><path d="M223.2386 338.9134L383.3331 338.9134L383.3331 381.0866L223.2386 381.0866Z" fill-rule="nonzero" fill="#cfe2f3" stroke="#073763" stroke-width="2.0" stroke-linejoin="round" stroke-linecap="butt"></path><path d="M250.3011 356.99152L250.3011 345.5384L255.37923 345.5384Q256.9105 345.5384 257.70737 345.84308Q258.50424 346.14777 258.9808 346.92902Q259.45737 347.71027 259.45737 348.6634Q259.45737 349.88214 258.6683 350.71808Q257.87924 351.55402 256.223 351.77277Q256.83237 352.06964 257.14487 352.3509Q257.80112 352.96027 258.39487 353.86652L260.39487 356.99152L258.48862 356.99152L256.973 354.6009Q256.30112 353.56964 255.87141 353.02277Q255.44173 352.4759 255.10579 352.25714Q254.76985 352.0384 254.41048 351.96027Q254.16048 351.89777 253.56673 351.89777L251.81673 351.89777L251.81673 356.99152L250.3011 356.99152ZM251.81673 350.58527L255.06673 350.58527Q256.11362 350.58527 256.69955 350.37433Q257.2855 350.1634 257.59018 349.68683Q257.89487 349.21027 257.89487 348.6634Q257.89487 347.8509 257.30112 347.32745Q256.70737 346.80402 255.44173 346.80402L251.81673 346.80402L251.81673 350.58527ZM261.11362 352.83527Q261.11362 350.5384 262.39487 349.42902Q263.473 348.50714 265.00424 348.50714Q266.723 348.50714 267.80893 349.62433Q268.89487 350.74152 268.89487 352.7259Q268.89487 354.31964 268.4105 355.24152Q267.92612 356.1634 267.01205 356.6712Q266.098 357.17902 265.00424 357.17902Q263.26987 357.17902 262.19174 356.06183Q261.11362 354.94464 261.11362 352.83527ZM262.56674 352.83527Q262.56674 354.42902 263.26205 355.2259Q263.95737 356.02277 265.00424 356.02277Q266.05112 356.02277 266.74643 355.2259Q267.44174 354.42902 267.44174 352.7884Q267.44174 351.25714 266.74643 350.46027Q266.05112 349.6634 265.00424 349.6634Q263.95737 349.6634 263.26205 350.45245Q262.56674 351.24152 262.56674 352.83527ZM270.01987 352.83527Q270.01987 350.5384 271.30112 349.42902Q272.37924 348.50714 273.9105 348.50714Q275.62924 348.50714 276.71518 349.62433Q277.80112 350.74152 277.80112 352.7259Q277.80112 354.31964 277.31674 355.24152Q276.83237 356.1634 275.9183 356.6712Q275.00424 357.17902 273.9105 357.17902Q272.17612 357.17902 271.098 356.06183Q270.01987 354.94464 270.01987 352.83527ZM271.473 352.83527Q271.473 354.42902 272.1683 355.2259Q272.86362 356.02277 273.9105 356.02277Q274.95737 356.02277 275.65268 355.2259Q276.348 354.42902 276.348 352.7884Q276.348 351.25714 275.65268 350.46027Q274.95737 349.6634 273.9105 349.6634Q272.86362 349.6634 272.1683 350.45245Q271.473 351.24152 271.473 352.83527ZM282.50424 355.7259L282.70737 356.9759Q282.11362 357.1009 281.64487 357.1009Q280.87924 357.1009 280.45737 356.8587Q280.0355 356.61652 279.86362 356.21808Q279.69174 355.81964 279.69174 354.55402L279.69174 349.7884L278.6605 349.7884L278.6605 348.69464L279.69174 348.69464L279.69174 346.63214L281.098 345.7884L281.098 348.69464L282.50424 348.69464L282.50424 349.7884L281.098 349.7884L281.098 354.63214Q281.098 355.24152 281.1683 355.4134Q281.23862 355.58527 281.4105 355.68683Q281.58237 355.7884 281.89487 355.7884Q282.12924 355.7884 282.50424 355.7259ZM296.67612 352.9759L298.19174 353.3509Q297.723 355.2259 296.4808 356.21027Q295.23862 357.19464 293.45737 357.19464Q291.598 357.19464 290.44174 356.43683Q289.2855 355.67902 288.67612 354.24933Q288.06674 352.81964 288.06674 351.17902Q288.06674 349.38214 288.75424 348.05402Q289.44174 346.7259 290.69955 346.03058Q291.95737 345.33527 293.473 345.33527Q295.19174 345.33527 296.36362 346.21027Q297.5355 347.08527 298.00424 348.67902L296.50424 349.02277Q296.11362 347.77277 295.3558 347.20245Q294.598 346.63214 293.44174 346.63214Q292.12924 346.63214 291.23862 347.26495Q290.348 347.89777 289.98862 348.96808Q289.62924 350.0384 289.62924 351.1634Q289.62924 352.63214 290.05893 353.71808Q290.48862 354.80402 291.38705 355.34308Q292.2855 355.88214 293.33237 355.88214Q294.598 355.88214 295.4808 355.14777Q296.36362 354.4134 296.67612 352.9759ZM305.30112 355.96027Q304.51987 356.63214 303.80112 356.90558Q303.08237 357.17902 302.25424 357.17902Q300.87924 357.17902 300.14487 356.50714Q299.4105 355.83527 299.4105 354.80402Q299.4105 354.19464 299.69174 353.68683Q299.973 353.17902 300.4183 352.87433Q300.86362 352.56964 301.42612 352.4134Q301.848 352.30402 302.67612 352.21027Q304.37924 352.00714 305.19174 351.7259Q305.19174 351.42902 305.19174 351.3509Q305.19174 350.49152 304.80112 350.14777Q304.25424 349.6634 303.19174 349.6634Q302.20737 349.6634 301.7308 350.01495Q301.25424 350.36652 301.0355 351.24152L299.6605 351.05402Q299.848 350.17902 300.27768 349.63214Q300.70737 349.08527 301.51987 348.7962Q302.33237 348.50714 303.39487 348.50714Q304.45737 348.50714 305.12143 348.75714Q305.7855 349.00714 306.098 349.38214Q306.4105 349.75714 306.5355 350.33527Q306.61362 350.69464 306.61362 351.63214L306.61362 353.50714Q306.61362 355.4759 306.69955 355.99152Q306.7855 356.50714 307.05112 356.99152L305.58237 356.99152Q305.36362 356.55402 305.30112 355.96027ZM305.19174 352.81964Q304.42612 353.13214 302.89487 353.3509Q302.01987 353.4759 301.6605 353.63214Q301.30112 353.7884 301.1058 354.09308Q300.9105 354.39777 300.9105 354.75714Q300.9105 355.31964 301.34018 355.69464Q301.76987 356.06964 302.58237 356.06964Q303.39487 356.06964 304.02768 355.71808Q304.6605 355.36652 304.95737 354.74152Q305.19174 354.27277 305.19174 353.33527L305.19174 352.81964ZM308.7855 360.17902L308.7855 348.69464L310.06674 348.69464L310.06674 349.77277Q310.51987 349.13214 311.09018 348.81964Q311.6605 348.50714 312.473 348.50714Q313.5355 348.50714 314.348 349.05402Q315.1605 349.6009 315.57455 350.59308Q315.98862 351.58527 315.98862 352.77277Q315.98862 354.05402 315.52768 355.06964Q315.06674 356.08527 314.19955 356.63214Q313.33237 357.17902 312.36362 357.17902Q311.6605 357.17902 311.1058 356.88214Q310.55112 356.58527 310.19174 356.13214L310.19174 360.17902L308.7855 360.17902ZM310.05112 352.88214Q310.05112 354.49152 310.69955 355.25714Q311.348 356.02277 312.26987 356.02277Q313.20737 356.02277 313.87924 355.2259Q314.55112 354.42902 314.55112 352.77277Q314.55112 351.17902 313.89487 350.38995Q313.23862 349.6009 312.33237 349.6009Q311.44174 349.6009 310.74643 350.44464Q310.05112 351.2884 310.05112 352.88214ZM323.098 355.96027Q322.31674 356.63214 321.598 356.90558Q320.87924 357.17902 320.05112 357.17902Q318.67612 357.17902 317.94174 356.50714Q317.20737 355.83527 317.20737 354.80402Q317.20737 354.19464 317.48862 353.68683Q317.76987 353.17902 318.21518 352.87433Q318.6605 352.56964 319.223 352.4134Q319.64487 352.30402 320.473 352.21027Q322.17612 352.00714 322.98862 351.7259Q322.98862 351.42902 322.98862 351.3509Q322.98862 350.49152 322.598 350.14777Q322.05112 349.6634 320.98862 349.6634Q320.00424 349.6634 319.52768 350.01495Q319.05112 350.36652 318.83237 351.24152L317.45737 351.05402Q317.64487 350.17902 318.07455 349.63214Q318.50424 349.08527 319.31674 348.7962Q320.12924 348.50714 321.19174 348.50714Q322.25424 348.50714 322.9183 348.75714Q323.58237 349.00714 323.89487 349.38214Q324.20737 349.75714 324.33237 350.33527Q324.4105 350.69464 324.4105 351.63214L324.4105 353.50714Q324.4105 355.4759 324.49643 355.99152Q324.58237 356.50714 324.848 356.99152L323.37924 356.99152Q323.1605 356.55402 323.098 355.96027ZM322.98862 352.81964Q322.223 353.13214 320.69174 353.3509Q319.81674 353.4759 319.45737 353.63214Q319.098 353.7884 318.90268 354.09308Q318.70737 354.39777 318.70737 354.75714Q318.70737 355.31964 319.13705 355.69464Q319.56674 356.06964 320.37924 356.06964Q321.19174 356.06964 321.82455 355.71808Q322.45737 355.36652 322.75424 354.74152Q322.98862 354.27277 322.98862 353.33527L322.98862 352.81964ZM327.87924 356.99152L326.56674 356.99152L326.56674 345.5384L327.973 345.5384L327.973 349.61652Q328.86362 348.50714 330.25424 348.50714Q331.01987 348.50714 331.69955 348.81183Q332.37924 349.11652 332.82455 349.67902Q333.26987 350.24152 333.51987 351.03058Q333.76987 351.81964 333.76987 352.71027Q333.76987 354.8509 332.71518 356.01495Q331.6605 357.17902 330.17612 357.17902Q328.70737 357.17902 327.87924 355.94464L327.87924 356.99152ZM327.86362 352.77277Q327.86362 354.27277 328.26987 354.92902Q328.92612 356.02277 330.06674 356.02277Q330.98862 356.02277 331.6605 355.21808Q332.33237 354.4134 332.33237 352.83527Q332.33237 351.21027 331.68393 350.43683Q331.0355 349.6634 330.12924 349.6634Q329.20737 349.6634 328.5355 350.46027Q327.86362 351.25714 327.86362 352.77277ZM335.48862 347.14777L335.48862 345.5384L336.89487 345.5384L336.89487 347.14777L335.48862 347.14777ZM335.48862 356.99152L335.48862 348.69464L336.89487 348.69464L336.89487 356.99152L335.48862 356.99152ZM339.00424 356.99152L339.00424 345.5384L340.4105 345.5384L340.4105 356.99152L339.00424 356.99152ZM342.598 347.14777L342.598 345.5384L344.00424 345.5384L344.00424 347.14777L342.598 347.14777ZM342.598 356.99152L342.598 348.69464L344.00424 348.69464L344.00424 356.99152L342.598 356.99152ZM349.20737 355.7259L349.4105 356.9759Q348.81674 357.1009 348.348 357.1009Q347.58237 357.1009 347.1605 356.8587Q346.73862 356.61652 346.56674 356.21808Q346.39487 355.81964 346.39487 354.55402L346.39487 349.7884L345.36362 349.7884L345.36362 348.69464L346.39487 348.69464L346.39487 346.63214L347.80112 345.7884L347.80112 348.69464L349.20737 348.69464L349.20737 349.7884L347.80112 349.7884L347.80112 354.63214Q347.80112 355.24152 347.87143 355.4134Q347.94174 355.58527 348.11362 355.68683Q348.2855 355.7884 348.598 355.7884Q348.83237 355.7884 349.20737 355.7259ZM350.5355 360.19464L350.37924 358.86652Q350.83237 358.99152 351.17612 358.99152Q351.64487 358.99152 351.92612 358.83527Q352.20737 358.67902 352.39487 358.39777Q352.51987 358.19464 352.81674 357.3509Q352.86362 357.24152 352.94174 357.00714L349.80112 348.69464L351.31674 348.69464L353.0355 353.49152Q353.37924 354.4134 353.64487 355.4134Q353.87924 354.44464 354.223 353.52277L355.98862 348.69464L357.39487 348.69464L354.23862 357.13214Q353.73862 358.50714 353.45737 359.02277Q353.08237 359.71027 352.598 360.0384Q352.11362 360.36652 351.44174 360.36652Q351.0355 360.36652 350.5355 360.19464Z" fill-rule="nonzero" fill="#000000"></path><path d="M272.81674 371.99152L274.2855 371.86652Q274.45737 372.94464 275.05112 373.4837Q275.64487 374.02277 276.48862 374.02277Q277.50424 374.02277 278.20737 373.25714Q278.9105 372.49152 278.9105 371.2259Q278.9105 370.02277 278.23862 369.32745Q277.56674 368.63214 276.473 368.63214Q275.7855 368.63214 275.23862 368.94464Q274.69174 369.25714 274.37924 369.74152L273.06674 369.56964L274.17612 363.69464L279.86362 363.69464L279.86362 365.0384L275.30112 365.0384L274.67612 368.11652Q275.70737 367.39777 276.848 367.39777Q278.348 367.39777 279.37924 368.43683Q280.4105 369.4759 280.4105 371.1009Q280.4105 372.6634 279.50424 373.7884Q278.39487 375.19464 276.48862 375.19464Q274.92612 375.19464 273.94174 374.31183Q272.95737 373.42902 272.81674 371.99152ZM281.92612 372.33527L283.2855 372.21027Q283.45737 373.1634 283.94174 373.59308Q284.42612 374.02277 285.17612 374.02277Q285.83237 374.02277 286.31674 373.7259Q286.80112 373.42902 287.11362 372.93683Q287.42612 372.44464 287.63705 371.6009Q287.848 370.75714 287.848 369.88214Q287.848 369.7884 287.848 369.6009Q287.42612 370.27277 286.69174 370.68683Q285.95737 371.1009 285.11362 371.1009Q283.69174 371.1009 282.70737 370.06964Q281.723 369.0384 281.723 367.3509Q281.723 365.61652 282.74643 364.55402Q283.76987 363.49152 285.31674 363.49152Q286.44174 363.49152 287.36362 364.09308Q288.2855 364.69464 288.76987 365.80402Q289.25424 366.9134 289.25424 369.02277Q289.25424 371.2259 288.77768 372.52277Q288.30112 373.81964 287.3558 374.50714Q286.4105 375.19464 285.14487 375.19464Q283.80112 375.19464 282.94955 374.44464Q282.098 373.69464 281.92612 372.33527ZM287.69174 367.2884Q287.69174 366.06964 287.0433 365.3587Q286.39487 364.64777 285.48862 364.64777Q284.55112 364.64777 283.8558 365.4134Q283.1605 366.17902 283.1605 367.39777Q283.1605 368.49152 283.82455 369.17902Q284.48862 369.86652 285.45737 369.86652Q286.42612 369.86652 287.05893 369.17902Q287.69174 368.49152 287.69174 367.2884ZM295.56674 374.99152L295.56674 363.5384L299.86362 363.5384Q301.17612 363.5384 301.973 363.88214Q302.76987 364.2259 303.21518 364.95245Q303.6605 365.67902 303.6605 366.46027Q303.6605 367.19464 303.26205 367.84308Q302.86362 368.49152 302.06674 368.89777Q303.098 369.19464 303.6605 369.92902Q304.223 370.6634 304.223 371.6634Q304.223 372.4759 303.87924 373.1634Q303.5355 373.8509 303.0355 374.2259Q302.5355 374.6009 301.7855 374.7962Q301.0355 374.99152 299.94174 374.99152L295.56674 374.99152ZM297.08237 368.3509L299.56674 368.3509Q300.56674 368.3509 301.00424 368.21027Q301.58237 368.0384 301.87924 367.63995Q302.17612 367.24152 302.17612 366.64777Q302.17612 366.06964 301.90268 365.63995Q301.62924 365.21027 301.12143 365.0462Q300.61362 364.88214 299.37924 364.88214L297.08237 364.88214L297.08237 368.3509ZM297.08237 373.63214L299.94174 373.63214Q300.67612 373.63214 300.973 373.58527Q301.48862 373.49152 301.84018 373.27277Q302.19174 373.05402 302.4183 372.63214Q302.64487 372.21027 302.64487 371.6634Q302.64487 371.02277 302.31674 370.55402Q301.98862 370.08527 301.4105 369.88995Q300.83237 369.69464 299.73862 369.69464L297.08237 369.69464L297.08237 373.63214ZM306.06674 378.19464L305.9105 376.86652Q306.36362 376.99152 306.70737 376.99152Q307.17612 376.99152 307.45737 376.83527Q307.73862 376.67902 307.92612 376.39777Q308.05112 376.19464 308.348 375.3509Q308.39487 375.24152 308.473 375.00714L305.33237 366.69464L306.848 366.69464L308.56674 371.49152Q308.9105 372.4134 309.17612 373.4134Q309.4105 372.44464 309.75424 371.52277L311.51987 366.69464L312.92612 366.69464L309.76987 375.13214Q309.26987 376.50714 308.98862 377.02277Q308.61362 377.71027 308.12924 378.0384Q307.64487 378.36652 306.973 378.36652Q306.56674 378.36652 306.06674 378.19464ZM317.19174 373.7259L317.39487 374.9759Q316.80112 375.1009 316.33237 375.1009Q315.56674 375.1009 315.14487 374.8587Q314.723 374.61652 314.55112 374.21808Q314.37924 373.81964 314.37924 372.55402L314.37924 367.7884L313.348 367.7884L313.348 366.69464L314.37924 366.69464L314.37924 364.63214L315.7855 363.7884L315.7855 366.69464L317.19174 366.69464L317.19174 367.7884L315.7855 367.7884L315.7855 372.63214Q315.7855 373.24152 315.8558 373.4134Q315.92612 373.58527 316.098 373.68683Q316.26987 373.7884 316.58237 373.7884Q316.81674 373.7884 317.19174 373.7259ZM324.23862 372.31964L325.69174 372.49152Q325.348 373.77277 324.4183 374.4759Q323.48862 375.17902 322.05112 375.17902Q320.223 375.17902 319.1605 374.05402Q318.098 372.92902 318.098 370.9134Q318.098 368.81964 319.17612 367.6634Q320.25424 366.50714 321.973 366.50714Q323.62924 366.50714 324.68393 367.63995Q325.73862 368.77277 325.73862 370.81964Q325.73862 370.94464 325.73862 371.19464L319.55112 371.19464Q319.62924 372.56964 320.32455 373.2962Q321.01987 374.02277 322.05112 374.02277Q322.83237 374.02277 323.37924 373.61652Q323.92612 373.21027 324.23862 372.31964ZM319.62924 370.0384L324.25424 370.0384Q324.1605 368.99152 323.723 368.4759Q323.05112 367.6634 321.98862 367.6634Q321.01987 367.6634 320.3558 368.31183Q319.69174 368.96027 319.62924 370.0384ZM326.9105 372.50714L328.30112 372.2884Q328.4105 373.13214 328.94955 373.57745Q329.48862 374.02277 330.44174 374.02277Q331.4105 374.02277 331.87924 373.62433Q332.348 373.2259 332.348 372.69464Q332.348 372.2259 331.94174 371.94464Q331.64487 371.75714 330.50424 371.4759Q328.95737 371.08527 328.3558 370.7962Q327.75424 370.50714 327.44955 370.00714Q327.14487 369.50714 327.14487 368.89777Q327.14487 368.33527 327.39487 367.86652Q327.64487 367.39777 328.08237 367.08527Q328.4105 366.83527 328.9808 366.6712Q329.55112 366.50714 330.19174 366.50714Q331.17612 366.50714 331.9105 366.7884Q332.64487 367.06964 332.99643 367.5462Q333.348 368.02277 333.48862 368.83527L332.11362 369.02277Q332.01987 368.38214 331.56674 368.02277Q331.11362 367.6634 330.30112 367.6634Q329.33237 367.6634 328.9183 367.9837Q328.50424 368.30402 328.50424 368.7259Q328.50424 369.00714 328.67612 369.2259Q328.848 369.44464 329.20737 369.6009Q329.42612 369.67902 330.45737 369.96027Q331.94174 370.3509 332.5355 370.6087Q333.12924 370.86652 333.46518 371.3509Q333.80112 371.83527 333.80112 372.55402Q333.80112 373.25714 333.38705 373.87433Q332.973 374.49152 332.19955 374.83527Q331.42612 375.17902 330.45737 375.17902Q328.83237 375.17902 327.98862 374.50714Q327.14487 373.83527 326.9105 372.50714Z" fill-rule="nonzero" fill="#000000"></path><path d="M383.44427 338.9134L478.3734 338.9134L478.3734 381.0866L383.44427 381.0866Z" fill-rule="nonzero" fill="#cfe2f3" stroke="#073763" stroke-width="2.0" stroke-linejoin="round" stroke-linecap="butt"></path><path d="M402.74115 345.5384L404.25677 345.5384L404.25677 352.14777Q404.25677 353.88214 403.86615 354.89777Q403.47552 355.9134 402.4599 356.55402Q401.44427 357.19464 399.78802 357.19464Q398.17865 357.19464 397.1552 356.63214Q396.13177 356.06964 395.69427 355.02277Q395.25677 353.9759 395.25677 352.14777L395.25677 345.5384L396.7724 345.5384L396.7724 352.14777Q396.7724 353.63214 397.04584 354.34308Q397.31927 355.05402 397.99896 355.43683Q398.67865 355.81964 399.6474 355.81964Q401.31927 355.81964 402.0302 355.06183Q402.74115 354.30402 402.74115 352.14777L402.74115 345.5384ZM406.05365 354.50714L407.44427 354.2884Q407.55365 355.13214 408.0927 355.57745Q408.63177 356.02277 409.5849 356.02277Q410.55365 356.02277 411.0224 355.62433Q411.49115 355.2259 411.49115 354.69464Q411.49115 354.2259 411.0849 353.94464Q410.78802 353.75714 409.6474 353.4759Q408.10052 353.08527 407.49896 352.7962Q406.8974 352.50714 406.5927 352.00714Q406.28802 351.50714 406.28802 350.89777Q406.28802 350.33527 406.53802 349.86652Q406.78802 349.39777 407.22552 349.08527Q407.55365 348.83527 408.12396 348.6712Q408.69427 348.50714 409.3349 348.50714Q410.31927 348.50714 411.05365 348.7884Q411.78802 349.06964 412.1396 349.5462Q412.49115 350.02277 412.63177 350.83527L411.25677 351.02277Q411.16302 350.38214 410.7099 350.02277Q410.25677 349.6634 409.44427 349.6634Q408.47552 349.6634 408.06146 349.9837Q407.6474 350.30402 407.6474 350.7259Q407.6474 351.00714 407.81927 351.2259Q407.99115 351.44464 408.35052 351.6009Q408.56927 351.67902 409.60052 351.96027Q411.0849 352.3509 411.67865 352.6087Q412.2724 352.86652 412.60834 353.3509Q412.94427 353.83527 412.94427 354.55402Q412.94427 355.25714 412.5302 355.87433Q412.11615 356.49152 411.3427 356.83527Q410.56927 357.17902 409.60052 357.17902Q407.97552 357.17902 407.13177 356.50714Q406.28802 355.83527 406.05365 354.50714ZM420.28802 354.31964L421.74115 354.49152Q421.3974 355.77277 420.4677 356.4759Q419.53802 357.17902 418.10052 357.17902Q416.2724 357.17902 415.2099 356.05402Q414.1474 354.92902 414.1474 352.9134Q414.1474 350.81964 415.22552 349.6634Q416.30365 348.50714 418.0224 348.50714Q419.67865 348.50714 420.73334 349.63995Q421.78802 350.77277 421.78802 352.81964Q421.78802 352.94464 421.78802 353.19464L415.60052 353.19464Q415.67865 354.56964 416.37396 355.2962Q417.06927 356.02277 418.10052 356.02277Q418.88177 356.02277 419.42865 355.61652Q419.97552 355.21027 420.28802 354.31964ZM415.67865 352.0384L420.30365 352.0384Q420.2099 350.99152 419.7724 350.4759Q419.10052 349.6634 418.03802 349.6634Q417.06927 349.6634 416.4052 350.31183Q415.74115 350.96027 415.67865 352.0384ZM423.49115 356.99152L423.49115 348.69464L424.75677 348.69464L424.75677 349.94464Q425.24115 349.06964 425.6474 348.7884Q426.05365 348.50714 426.55365 348.50714Q427.25677 348.50714 427.99115 348.96027L427.50677 350.25714Q426.99115 349.96027 426.47552 349.96027Q426.0224 349.96027 425.6552 350.2337Q425.28802 350.50714 425.13177 351.00714Q424.8974 351.75714 424.8974 352.64777L424.8974 356.99152L423.49115 356.99152ZM428.8349 356.99152L428.8349 348.69464L430.10052 348.69464L430.10052 349.86652Q431.00677 348.50714 432.74115 348.50714Q433.49115 348.50714 434.11615 348.77277Q434.74115 349.0384 435.05365 349.4759Q435.36615 349.9134 435.49115 350.52277Q435.56927 350.9134 435.56927 351.88214L435.56927 356.99152L434.16302 356.99152L434.16302 351.94464Q434.16302 351.08527 433.99896 350.65558Q433.8349 350.2259 433.42084 349.9759Q433.00677 349.7259 432.44427 349.7259Q431.53802 349.7259 430.8896 350.2962Q430.24115 350.86652 430.24115 352.46027L430.24115 356.99152L428.8349 356.99152ZM443.1474 355.96027Q442.36615 356.63214 441.6474 356.90558Q440.92865 357.17902 440.10052 357.17902Q438.72552 357.17902 437.99115 356.50714Q437.25677 355.83527 437.25677 354.80402Q437.25677 354.19464 437.53802 353.68683Q437.81927 353.17902 438.2646 352.87433Q438.7099 352.56964 439.2724 352.4134Q439.69427 352.30402 440.5224 352.21027Q442.22552 352.00714 443.03802 351.7259Q443.03802 351.42902 443.03802 351.3509Q443.03802 350.49152 442.6474 350.14777Q442.10052 349.6634 441.03802 349.6634Q440.05365 349.6634 439.5771 350.01495Q439.10052 350.36652 438.88177 351.24152L437.50677 351.05402Q437.69427 350.17902 438.12396 349.63214Q438.55365 349.08527 439.36615 348.7962Q440.17865 348.50714 441.24115 348.50714Q442.30365 348.50714 442.9677 348.75714Q443.63177 349.00714 443.94427 349.38214Q444.25677 349.75714 444.38177 350.33527Q444.4599 350.69464 444.4599 351.63214L444.4599 353.50714Q444.4599 355.4759 444.54584 355.99152Q444.63177 356.50714 444.8974 356.99152L443.42865 356.99152Q443.2099 356.55402 443.1474 355.96027ZM443.03802 352.81964Q442.2724 353.13214 440.74115 353.3509Q439.86615 353.4759 439.50677 353.63214Q439.1474 353.7884 438.9521 354.09308Q438.75677 354.39777 438.75677 354.75714Q438.75677 355.31964 439.18646 355.69464Q439.61615 356.06964 440.42865 356.06964Q441.24115 356.06964 441.87396 355.71808Q442.50677 355.36652 442.80365 354.74152Q443.03802 354.27277 443.03802 353.33527L443.03802 352.81964ZM446.63177 356.99152L446.63177 348.69464L447.88177 348.69464L447.88177 349.8509Q448.2724 349.24152 448.92084 348.87433Q449.56927 348.50714 450.3974 348.50714Q451.31927 348.50714 451.91302 348.88995Q452.50677 349.27277 452.74115 349.96027Q453.72552 348.50714 455.30365 348.50714Q456.53802 348.50714 457.2021 349.18683Q457.86615 349.86652 457.86615 351.2884L457.86615 356.99152L456.47552 356.99152L456.47552 351.75714Q456.47552 350.9134 456.3349 350.5462Q456.19427 350.17902 455.8349 349.95245Q455.47552 349.7259 454.99115 349.7259Q454.11615 349.7259 453.53802 350.30402Q452.9599 350.88214 452.9599 352.1634L452.9599 356.99152L451.55365 356.99152L451.55365 351.6009Q451.55365 350.6634 451.2099 350.19464Q450.86615 349.7259 450.0849 349.7259Q449.49115 349.7259 448.99115 350.0384Q448.49115 350.3509 448.2646 350.95245Q448.03802 351.55402 448.03802 352.67902L448.03802 356.99152L446.63177 356.99152ZM465.63177 354.31964L467.0849 354.49152Q466.74115 355.77277 465.81146 356.4759Q464.88177 357.17902 463.44427 357.17902Q461.61615 357.17902 460.55365 356.05402Q459.49115 354.92902 459.49115 352.9134Q459.49115 350.81964 460.56927 349.6634Q461.6474 348.50714 463.36615 348.50714Q465.0224 348.50714 466.0771 349.63995Q467.13177 350.77277 467.13177 352.81964Q467.13177 352.94464 467.13177 353.19464L460.94427 353.19464Q461.0224 354.56964 461.7177 355.2962Q462.41302 356.02277 463.44427 356.02277Q464.22552 356.02277 464.7724 355.61652Q465.31927 355.21027 465.63177 354.31964ZM461.0224 352.0384L465.6474 352.0384Q465.55365 350.99152 465.11615 350.4759Q464.44427 349.6634 463.38177 349.6634Q462.41302 349.6634 461.74896 350.31183Q461.0849 350.96027 461.0224 352.0384Z" fill-rule="nonzero" fill="#000000"></path><path d="M404.78802 374.99152L407.81927 370.67902L405.00677 366.69464L406.7724 366.69464L408.03802 368.63214Q408.3974 369.19464 408.61615 369.56964Q408.9599 369.05402 409.25677 368.64777L410.6474 366.69464L412.3349 366.69464L409.4599 370.6009L412.55365 374.99152L410.81927 374.99152L409.11615 372.4134L408.66302 371.71027L406.49115 374.99152L404.78802 374.99152ZM418.28802 374.99152L418.28802 363.5384L422.5849 363.5384Q423.8974 363.5384 424.69427 363.88214Q425.49115 364.2259 425.93646 364.95245Q426.38177 365.67902 426.38177 366.46027Q426.38177 367.19464 425.98334 367.84308Q425.5849 368.49152 424.78802 368.89777Q425.81927 369.19464 426.38177 369.92902Q426.94427 370.6634 426.94427 371.6634Q426.94427 372.4759 426.60052 373.1634Q426.25677 373.8509 425.75677 374.2259Q425.25677 374.6009 424.50677 374.7962Q423.75677 374.99152 422.66302 374.99152L418.28802 374.99152ZM419.80365 368.3509L422.28802 368.3509Q423.28802 368.3509 423.72552 368.21027Q424.30365 368.0384 424.60052 367.63995Q424.8974 367.24152 424.8974 366.64777Q424.8974 366.06964 424.62396 365.63995Q424.35052 365.21027 423.8427 365.0462Q423.3349 364.88214 422.10052 364.88214L419.80365 364.88214L419.80365 368.3509ZM419.80365 373.63214L422.66302 373.63214Q423.3974 373.63214 423.69427 373.58527Q424.2099 373.49152 424.56146 373.27277Q424.91302 373.05402 425.1396 372.63214Q425.36615 372.21027 425.36615 371.6634Q425.36615 371.02277 425.03802 370.55402Q424.7099 370.08527 424.13177 369.88995Q423.55365 369.69464 422.4599 369.69464L419.80365 369.69464L419.80365 373.63214ZM428.78802 378.19464L428.63177 376.86652Q429.0849 376.99152 429.42865 376.99152Q429.8974 376.99152 430.17865 376.83527Q430.4599 376.67902 430.6474 376.39777Q430.7724 376.19464 431.06927 375.3509Q431.11615 375.24152 431.19427 375.00714L428.05365 366.69464L429.56927 366.69464L431.28802 371.49152Q431.63177 372.4134 431.8974 373.4134Q432.13177 372.44464 432.47552 371.52277L434.24115 366.69464L435.6474 366.69464L432.49115 375.13214Q431.99115 376.50714 431.7099 377.02277Q431.3349 377.71027 430.85052 378.0384Q430.36615 378.36652 429.69427 378.36652Q429.28802 378.36652 428.78802 378.19464ZM439.91302 373.7259L440.11615 374.9759Q439.5224 375.1009 439.05365 375.1009Q438.28802 375.1009 437.86615 374.8587Q437.44427 374.61652 437.2724 374.21808Q437.10052 373.81964 437.10052 372.55402L437.10052 367.7884L436.06927 367.7884L436.06927 366.69464L437.10052 366.69464L437.10052 364.63214L438.50677 363.7884L438.50677 366.69464L439.91302 366.69464L439.91302 367.7884L438.50677 367.7884L438.50677 372.63214Q438.50677 373.24152 438.5771 373.4134Q438.6474 373.58527 438.81927 373.68683Q438.99115 373.7884 439.30365 373.7884Q439.53802 373.7884 439.91302 373.7259ZM446.9599 372.31964L448.41302 372.49152Q448.06927 373.77277 447.1396 374.4759Q446.2099 375.17902 444.7724 375.17902Q442.94427 375.17902 441.88177 374.05402Q440.81927 372.92902 440.81927 370.9134Q440.81927 368.81964 441.8974 367.6634Q442.97552 366.50714 444.69427 366.50714Q446.35052 366.50714 447.4052 367.63995Q448.4599 368.77277 448.4599 370.81964Q448.4599 370.94464 448.4599 371.19464L442.2724 371.19464Q442.35052 372.56964 443.04584 373.2962Q443.74115 374.02277 444.7724 374.02277Q445.55365 374.02277 446.10052 373.61652Q446.6474 373.21027 446.9599 372.31964ZM442.35052 370.0384L446.97552 370.0384Q446.88177 368.99152 446.44427 368.4759Q445.7724 367.6634 444.7099 367.6634Q443.74115 367.6634 443.0771 368.31183Q442.41302 368.96027 442.35052 370.0384ZM449.63177 372.50714L451.0224 372.2884Q451.13177 373.13214 451.67084 373.57745Q452.2099 374.02277 453.16302 374.02277Q454.13177 374.02277 454.60052 373.62433Q455.06927 373.2259 455.06927 372.69464Q455.06927 372.2259 454.66302 371.94464Q454.36615 371.75714 453.22552 371.4759Q451.67865 371.08527 451.0771 370.7962Q450.47552 370.50714 450.17084 370.00714Q449.86615 369.50714 449.86615 368.89777Q449.86615 368.33527 450.11615 367.86652Q450.36615 367.39777 450.80365 367.08527Q451.13177 366.83527 451.7021 366.6712Q452.2724 366.50714 452.91302 366.50714Q453.8974 366.50714 454.63177 366.7884Q455.36615 367.06964 455.7177 367.5462Q456.06927 368.02277 456.2099 368.83527L454.8349 369.02277Q454.74115 368.38214 454.28802 368.02277Q453.8349 367.6634 453.0224 367.6634Q452.05365 367.6634 451.6396 367.9837Q451.22552 368.30402 451.22552 368.7259Q451.22552 369.00714 451.3974 369.2259Q451.56927 369.44464 451.92865 369.6009Q452.1474 369.67902 453.17865 369.96027Q454.66302 370.3509 455.25677 370.6087Q455.85052 370.86652 456.18646 371.3509Q456.5224 371.83527 456.5224 372.55402Q456.5224 373.25714 456.10834 373.87433Q455.69427 374.49152 454.92084 374.83527Q454.1474 375.17902 453.17865 375.17902Q451.55365 375.17902 450.7099 374.50714Q449.86615 373.83527 449.63177 372.50714Z" fill-rule="nonzero" fill="#000000"></path><path d="M478.62106 338.9134L573.5502 338.9134L573.5502 381.0866L478.62106 381.0866Z" fill-rule="nonzero" fill="#cfe2f3" stroke="#073763" stroke-width="2.0" stroke-linejoin="round" stroke-linecap="butt"></path><path d="M492.18356 356.99152L492.18356 345.5384L496.5117 345.5384Q497.6523 345.5384 498.24606 345.64777Q499.0898 345.7884 499.66013 346.17902Q500.23044 346.56964 500.582 347.28058Q500.93356 347.99152 500.93356 348.8509Q500.93356 350.30402 500.00388 351.31964Q499.0742 352.33527 496.6367 352.33527L493.6992 352.33527L493.6992 356.99152L492.18356 356.99152ZM493.6992 350.9759L496.66794 350.9759Q498.1367 350.9759 498.75388 350.42902Q499.37106 349.88214 499.37106 348.89777Q499.37106 348.17902 499.00388 347.6634Q498.6367 347.14777 498.04294 346.99152Q497.66794 346.88214 496.6367 346.88214L493.6992 346.88214L493.6992 350.9759ZM508.0898 355.96027Q507.30856 356.63214 506.5898 356.90558Q505.87106 357.17902 505.04294 357.17902Q503.66794 357.17902 502.93356 356.50714Q502.1992 355.83527 502.1992 354.80402Q502.1992 354.19464 502.48044 353.68683Q502.7617 353.17902 503.207 352.87433Q503.6523 352.56964 504.2148 352.4134Q504.6367 352.30402 505.4648 352.21027Q507.16794 352.00714 507.98044 351.7259Q507.98044 351.42902 507.98044 351.3509Q507.98044 350.49152 507.5898 350.14777Q507.04294 349.6634 505.98044 349.6634Q504.99606 349.6634 504.5195 350.01495Q504.04294 350.36652 503.8242 351.24152L502.4492 351.05402Q502.6367 350.17902 503.06638 349.63214Q503.49606 349.08527 504.30856 348.7962Q505.12106 348.50714 506.18356 348.50714Q507.24606 348.50714 507.91013 348.75714Q508.5742 349.00714 508.8867 349.38214Q509.1992 349.75714 509.3242 350.33527Q509.4023 350.69464 509.4023 351.63214L509.4023 353.50714Q509.4023 355.4759 509.48825 355.99152Q509.5742 356.50714 509.8398 356.99152L508.37106 356.99152Q508.1523 356.55402 508.0898 355.96027ZM507.98044 352.81964Q507.2148 353.13214 505.68356 353.3509Q504.80856 353.4759 504.4492 353.63214Q504.0898 353.7884 503.8945 354.09308Q503.6992 354.39777 503.6992 354.75714Q503.6992 355.31964 504.12888 355.69464Q504.55856 356.06964 505.37106 356.06964Q506.18356 356.06964 506.81638 355.71808Q507.4492 355.36652 507.74606 354.74152Q507.98044 354.27277 507.98044 353.33527L507.98044 352.81964ZM511.0273 354.50714L512.4179 354.2884Q512.5273 355.13214 513.06635 355.57745Q513.6054 356.02277 514.55853 356.02277Q515.5273 356.02277 515.99603 355.62433Q516.4648 355.2259 516.4648 354.69464Q516.4648 354.2259 516.05853 353.94464Q515.76166 353.75714 514.62103 353.4759Q513.07416 353.08527 512.4726 352.7962Q511.87106 352.50714 511.56638 352.00714Q511.2617 351.50714 511.2617 350.89777Q511.2617 350.33527 511.5117 349.86652Q511.7617 349.39777 512.19916 349.08527Q512.5273 348.83527 513.0976 348.6712Q513.6679 348.50714 514.30853 348.50714Q515.2929 348.50714 516.0273 348.7884Q516.76166 349.06964 517.1132 349.5462Q517.4648 350.02277 517.6054 350.83527L516.2304 351.02277Q516.13666 350.38214 515.68353 350.02277Q515.2304 349.6634 514.4179 349.6634Q513.44916 349.6634 513.0351 349.9837Q512.62103 350.30402 512.62103 350.7259Q512.62103 351.00714 512.7929 351.2259Q512.9648 351.44464 513.32416 351.6009Q513.5429 351.67902 514.57416 351.96027Q516.05853 352.3509 516.6523 352.6087Q517.24603 352.86652 517.582 353.3509Q517.9179 353.83527 517.9179 354.55402Q517.9179 355.25714 517.50385 355.87433Q517.0898 356.49152 516.31635 356.83527Q515.5429 357.17902 514.57416 357.17902Q512.94916 357.17902 512.1054 356.50714Q511.2617 355.83527 511.0273 354.50714ZM519.0273 354.50714L520.4179 354.2884Q520.5273 355.13214 521.06635 355.57745Q521.6054 356.02277 522.55853 356.02277Q523.5273 356.02277 523.99603 355.62433Q524.4648 355.2259 524.4648 354.69464Q524.4648 354.2259 524.05853 353.94464Q523.76166 353.75714 522.62103 353.4759Q521.07416 353.08527 520.4726 352.7962Q519.87103 352.50714 519.56635 352.00714Q519.26166 351.50714 519.26166 350.89777Q519.26166 350.33527 519.51166 349.86652Q519.76166 349.39777 520.19916 349.08527Q520.5273 348.83527 521.0976 348.6712Q521.6679 348.50714 522.30853 348.50714Q523.2929 348.50714 524.0273 348.7884Q524.76166 349.06964 525.1132 349.5462Q525.4648 350.02277 525.6054 350.83527L524.2304 351.02277Q524.13666 350.38214 523.68353 350.02277Q523.2304 349.6634 522.4179 349.6634Q521.44916 349.6634 521.0351 349.9837Q520.62103 350.30402 520.62103 350.7259Q520.62103 351.00714 520.7929 351.2259Q520.9648 351.44464 521.32416 351.6009Q521.5429 351.67902 522.57416 351.96027Q524.05853 352.3509 524.6523 352.6087Q525.24603 352.86652 525.582 353.3509Q525.9179 353.83527 525.9179 354.55402Q525.9179 355.25714 525.50385 355.87433Q525.0898 356.49152 524.31635 356.83527Q523.5429 357.17902 522.57416 357.17902Q520.94916 357.17902 520.1054 356.50714Q519.26166 355.83527 519.0273 354.50714ZM529.12103 356.99152L526.57416 348.69464L528.0273 348.69464L529.3554 353.4759L529.8398 355.25714Q529.87103 355.13214 530.2773 353.55402L531.5898 348.69464L533.0429 348.69464L534.2773 353.50714L534.69916 355.08527L535.1679 353.49152L536.5898 348.69464L537.9648 348.69464L535.37103 356.99152L533.9023 356.99152L532.5898 352.02277L532.26166 350.6009L530.5898 356.99152L529.12103 356.99152ZM538.6054 352.83527Q538.6054 350.5384 539.88666 349.42902Q540.9648 348.50714 542.49603 348.50714Q544.2148 348.50714 545.3007 349.62433Q546.38666 350.74152 546.38666 352.7259Q546.38666 354.31964 545.9023 355.24152Q545.4179 356.1634 544.50385 356.6712Q543.5898 357.17902 542.49603 357.17902Q540.76166 357.17902 539.68353 356.06183Q538.6054 354.94464 538.6054 352.83527ZM540.05853 352.83527Q540.05853 354.42902 540.75385 355.2259Q541.44916 356.02277 542.49603 356.02277Q543.5429 356.02277 544.2382 355.2259Q544.93353 354.42902 544.93353 352.7884Q544.93353 351.25714 544.2382 350.46027Q543.5429 349.6634 542.49603 349.6634Q541.44916 349.6634 540.75385 350.45245Q540.05853 351.24152 540.05853 352.83527ZM548.0273 356.99152L548.0273 348.69464L549.2929 348.69464L549.2929 349.94464Q549.7773 349.06964 550.18353 348.7884Q550.5898 348.50714 551.0898 348.50714Q551.7929 348.50714 552.5273 348.96027L552.0429 350.25714Q551.5273 349.96027 551.01166 349.96027Q550.55853 349.96027 550.19135 350.2337Q549.82416 350.50714 549.6679 351.00714Q549.43353 351.75714 549.43353 352.64777L549.43353 356.99152L548.0273 356.99152ZM558.74603 356.99152L558.74603 355.94464Q557.9648 357.17902 556.43353 357.17902Q555.43353 357.17902 554.6054 356.63214Q553.7773 356.08527 553.31635 355.1009Q552.8554 354.11652 552.8554 352.8509Q552.8554 351.6009 553.2695 350.59308Q553.68353 349.58527 554.51166 349.0462Q555.3398 348.50714 556.37103 348.50714Q557.12103 348.50714 557.707 348.81964Q558.2929 349.13214 558.6523 349.64777L558.6523 345.5384L560.05853 345.5384L560.05853 356.99152L558.74603 356.99152ZM554.30853 352.8509Q554.30853 354.44464 554.9804 355.2337Q555.6523 356.02277 556.55853 356.02277Q557.4804 356.02277 558.12885 355.26495Q558.7773 354.50714 558.7773 352.96027Q558.7773 351.25714 558.12103 350.46027Q557.4648 349.6634 556.49603 349.6634Q555.55853 349.6634 554.93353 350.42902Q554.30853 351.19464 554.30853 352.8509Z" fill-rule="nonzero" fill="#000000"></path><path d="M499.9648 374.99152L502.99606 370.67902L500.18356 366.69464L501.9492 366.69464L503.2148 368.63214Q503.5742 369.19464 503.79294 369.56964Q504.1367 369.05402 504.43356 368.64777L505.8242 366.69464L507.5117 366.69464L504.6367 370.6009L507.73044 374.99152L505.99606 374.99152L504.29294 372.4134L503.8398 371.71027L501.66794 374.99152L499.9648 374.99152ZM513.4648 374.99152L513.4648 363.5384L517.76166 363.5384Q519.07416 363.5384 519.87103 363.88214Q520.6679 364.2259 521.1132 364.95245Q521.55853 365.67902 521.55853 366.46027Q521.55853 367.19464 521.1601 367.84308Q520.76166 368.49152 519.9648 368.89777Q520.99603 369.19464 521.55853 369.92902Q522.12103 370.6634 522.12103 371.6634Q522.12103 372.4759 521.7773 373.1634Q521.43353 373.8509 520.93353 374.2259Q520.43353 374.6009 519.68353 374.7962Q518.93353 374.99152 517.8398 374.99152L513.4648 374.99152ZM514.9804 368.3509L517.4648 368.3509Q518.4648 368.3509 518.9023 368.21027Q519.4804 368.0384 519.7773 367.63995Q520.07416 367.24152 520.07416 366.64777Q520.07416 366.06964 519.8007 365.63995Q519.5273 365.21027 519.0195 365.0462Q518.51166 364.88214 517.2773 364.88214L514.9804 364.88214L514.9804 368.3509ZM514.9804 373.63214L517.8398 373.63214Q518.57416 373.63214 518.87103 373.58527Q519.38666 373.49152 519.7382 373.27277Q520.0898 373.05402 520.31635 372.63214Q520.5429 372.21027 520.5429 371.6634Q520.5429 371.02277 520.2148 370.55402Q519.88666 370.08527 519.30853 369.88995Q518.7304 369.69464 517.63666 369.69464L514.9804 369.69464L514.9804 373.63214ZM523.9648 378.19464L523.80853 376.86652Q524.26166 376.99152 524.6054 376.99152Q525.07416 376.99152 525.3554 376.83527Q525.63666 376.67902 525.82416 376.39777Q525.94916 376.19464 526.24603 375.3509Q526.2929 375.24152 526.37103 375.00714L523.2304 366.69464L524.74603 366.69464L526.4648 371.49152Q526.80853 372.4134 527.07416 373.4134Q527.30853 372.44464 527.6523 371.52277L529.4179 366.69464L530.82416 366.69464L527.6679 375.13214Q527.1679 376.50714 526.88666 377.02277Q526.51166 377.71027 526.0273 378.0384Q525.5429 378.36652 524.87103 378.36652Q524.4648 378.36652 523.9648 378.19464ZM535.0898 373.7259L535.2929 374.9759Q534.69916 375.1009 534.2304 375.1009Q533.4648 375.1009 533.0429 374.8587Q532.62103 374.61652 532.44916 374.21808Q532.2773 373.81964 532.2773 372.55402L532.2773 367.7884L531.24603 367.7884L531.24603 366.69464L532.2773 366.69464L532.2773 364.63214L533.68353 363.7884L533.68353 366.69464L535.0898 366.69464L535.0898 367.7884L533.68353 367.7884L533.68353 372.63214Q533.68353 373.24152 533.75385 373.4134Q533.82416 373.58527 533.99603 373.68683Q534.1679 373.7884 534.4804 373.7884Q534.7148 373.7884 535.0898 373.7259ZM542.13666 372.31964L543.5898 372.49152Q543.24603 373.77277 542.31635 374.4759Q541.38666 375.17902 539.94916 375.17902Q538.12103 375.17902 537.05853 374.05402Q535.99603 372.92902 535.99603 370.9134Q535.99603 368.81964 537.07416 367.6634Q538.1523 366.50714 539.87103 366.50714Q541.5273 366.50714 542.582 367.63995Q543.63666 368.77277 543.63666 370.81964Q543.63666 370.94464 543.63666 371.19464L537.44916 371.19464Q537.5273 372.56964 538.2226 373.2962Q538.9179 374.02277 539.94916 374.02277Q540.7304 374.02277 541.2773 373.61652Q541.82416 373.21027 542.13666 372.31964ZM537.5273 370.0384L542.1523 370.0384Q542.05853 368.99152 541.62103 368.4759Q540.94916 367.6634 539.88666 367.6634Q538.9179 367.6634 538.25385 368.31183Q537.5898 368.96027 537.5273 370.0384ZM544.80853 372.50714L546.19916 372.2884Q546.30853 373.13214 546.8476 373.57745Q547.38666 374.02277 548.3398 374.02277Q549.30853 374.02277 549.7773 373.62433Q550.24603 373.2259 550.24603 372.69464Q550.24603 372.2259 549.8398 371.94464Q549.5429 371.75714 548.4023 371.4759Q546.8554 371.08527 546.25385 370.7962Q545.6523 370.50714 545.3476 370.00714Q545.0429 369.50714 545.0429 368.89777Q545.0429 368.33527 545.2929 367.86652Q545.5429 367.39777 545.9804 367.08527Q546.30853 366.83527 546.87885 366.6712Q547.44916 366.50714 548.0898 366.50714Q549.07416 366.50714 549.80853 366.7884Q550.5429 367.06964 550.8945 367.5462Q551.24603 368.02277 551.38666 368.83527L550.01166 369.02277Q549.9179 368.38214 549.4648 368.02277Q549.01166 367.6634 548.19916 367.6634Q547.2304 367.6634 546.81635 367.9837Q546.4023 368.30402 546.4023 368.7259Q546.4023 369.00714 546.57416 369.2259Q546.74603 369.44464 547.1054 369.6009Q547.32416 369.67902 548.3554 369.96027Q549.8398 370.3509 550.43353 370.6087Q551.0273 370.86652 551.3632 371.3509Q551.69916 371.83527 551.69916 372.55402Q551.69916 373.25714 551.2851 373.87433Q550.87103 374.49152 550.0976 374.83527Q549.32416 375.17902 548.3554 375.17902Q546.7304 375.17902 545.88666 374.50714Q545.0429 373.83527 544.80853 372.50714Z" fill-rule="nonzero" fill="#000000"></path><path d="M573.6407 338.9134L668.5698 338.9134L668.5698 381.0866L573.6407 381.0866Z" fill-rule="nonzero" fill="#cfe2f3" stroke="#073763" stroke-width="2.0" stroke-linejoin="round" stroke-linecap="butt"></path><path d="M592.4688 353.30402L593.9063 353.17902Q594.00006 354.0384 594.37506 354.59308Q594.75006 355.14777 595.5313 355.4837Q596.31256 355.81964 597.2813 355.81964Q598.1563 355.81964 598.8204 355.56183Q599.48444 355.30402 599.80475 354.8587Q600.12506 354.4134 600.12506 353.88214Q600.12506 353.33527 599.81256 352.93683Q599.50006 352.5384 598.7813 352.25714Q598.3282 352.08527 596.75006 351.70245Q595.17194 351.31964 594.5313 350.99152Q593.7188 350.55402 593.31256 349.9212Q592.9063 349.2884 592.9063 348.49152Q592.9063 347.63214 593.3985 346.87433Q593.8907 346.11652 594.836 345.7259Q595.7813 345.33527 596.93756 345.33527Q598.2188 345.33527 599.18756 345.74933Q600.1563 346.1634 600.67975 346.96027Q601.2032 347.75714 601.25006 348.75714L599.79694 348.86652Q599.67194 347.7884 599.00006 347.2337Q598.3282 346.67902 597.00006 346.67902Q595.62506 346.67902 595.00006 347.17902Q594.37506 347.67902 594.37506 348.39777Q594.37506 349.00714 594.81256 349.4134Q595.25006 349.80402 597.1016 350.2259Q598.9532 350.64777 599.6407 350.96027Q600.6407 351.4134 601.11725 352.12433Q601.5938 352.83527 601.5938 353.75714Q601.5938 354.6634 601.0704 355.4759Q600.54694 356.2884 599.56256 356.74152Q598.5782 357.19464 597.35944 357.19464Q595.79694 357.19464 594.75006 356.7337Q593.7032 356.27277 593.1016 355.36652Q592.50006 354.46027 592.4688 353.30402ZM608.8907 353.94464L610.2813 354.13214Q610.04694 355.55402 609.11725 356.36652Q608.18756 357.17902 606.8282 357.17902Q605.12506 357.17902 604.086 356.06183Q603.04694 354.94464 603.04694 352.86652Q603.04694 351.52277 603.49225 350.51495Q603.93756 349.50714 604.8516 349.00714Q605.7657 348.50714 606.8282 348.50714Q608.18756 348.50714 609.04694 349.18683Q609.9063 349.86652 610.1407 351.13214L608.7813 351.33527Q608.5782 350.50714 608.086 350.08527Q607.5938 349.6634 606.8907 349.6634Q605.8282 349.6634 605.1641 350.4212Q604.50006 351.17902 604.50006 352.83527Q604.50006 354.50714 605.1407 355.26495Q605.7813 356.02277 606.81256 356.02277Q607.6407 356.02277 608.1954 355.51495Q608.75006 355.00714 608.8907 353.94464ZM611.48444 356.99152L611.48444 345.5384L612.8907 345.5384L612.8907 349.64777Q613.87506 348.50714 615.37506 348.50714Q616.29694 348.50714 616.9766 348.86652Q617.6563 349.2259 617.9454 349.86652Q618.23444 350.50714 618.23444 351.7259L618.23444 356.99152L616.8282 356.99152L616.8282 351.7259Q616.8282 350.67902 616.37506 350.19464Q615.92194 349.71027 615.0782 349.71027Q614.4532 349.71027 613.9063 350.0384Q613.35944 350.36652 613.12506 350.9212Q612.8907 351.4759 612.8907 352.44464L612.8907 356.99152L611.48444 356.99152ZM626.04694 354.31964L627.50006 354.49152Q627.1563 355.77277 626.2266 356.4759Q625.29694 357.17902 623.85944 357.17902Q622.0313 357.17902 620.9688 356.05402Q619.9063 354.92902 619.9063 352.9134Q619.9063 350.81964 620.98444 349.6634Q622.06256 348.50714 623.7813 348.50714Q625.43756 348.50714 626.49225 349.63995Q627.54694 350.77277 627.54694 352.81964Q627.54694 352.94464 627.54694 353.19464L621.35944 353.19464Q621.43756 354.56964 622.1329 355.2962Q622.8282 356.02277 623.85944 356.02277Q624.6407 356.02277 625.18756 355.61652Q625.73444 355.21027 626.04694 354.31964ZM621.43756 352.0384L626.06256 352.0384Q625.9688 350.99152 625.5313 350.4759Q624.85944 349.6634 623.79694 349.6634Q622.8282 349.6634 622.1641 350.31183Q621.50006 350.96027 621.43756 352.0384ZM629.2813 356.99152L629.2813 348.69464L630.5313 348.69464L630.5313 349.8509Q630.92194 349.24152 631.5704 348.87433Q632.2188 348.50714 633.04694 348.50714Q633.9688 348.50714 634.56256 348.88995Q635.1563 349.27277 635.3907 349.96027Q636.37506 348.50714 637.9532 348.50714Q639.18756 348.50714 639.8516 349.18683Q640.5157 349.86652 640.5157 351.2884L640.5157 356.99152L639.12506 356.99152L639.12506 351.75714Q639.12506 350.9134 638.98444 350.5462Q638.8438 350.17902 638.48444 349.95245Q638.12506 349.7259 637.6407 349.7259Q636.7657 349.7259 636.18756 350.30402Q635.60944 350.88214 635.60944 352.1634L635.60944 356.99152L634.2032 356.99152L634.2032 351.6009Q634.2032 350.6634 633.85944 350.19464Q633.5157 349.7259 632.73444 349.7259Q632.1407 349.7259 631.6407 350.0384Q631.1407 350.3509 630.9141 350.95245Q630.68756 351.55402 630.68756 352.67902L630.68756 356.99152L629.2813 356.99152ZM648.2813 354.31964L649.73444 354.49152Q649.3907 355.77277 648.461 356.4759Q647.5313 357.17902 646.0938 357.17902Q644.2657 357.17902 643.2032 356.05402Q642.1407 354.92902 642.1407 352.9134Q642.1407 350.81964 643.2188 349.6634Q644.29694 348.50714 646.0157 348.50714Q647.67194 348.50714 648.7266 349.63995Q649.7813 350.77277 649.7813 352.81964Q649.7813 352.94464 649.7813 353.19464L643.5938 353.19464Q643.67194 354.56964 644.36725 355.2962Q645.06256 356.02277 646.0938 356.02277Q646.87506 356.02277 647.42194 355.61652Q647.9688 355.21027 648.2813 354.31964ZM643.67194 352.0384L648.29694 352.0384Q648.2032 350.99152 647.7657 350.4759Q647.0938 349.6634 646.0313 349.6634Q645.06256 349.6634 644.3985 350.31183Q643.73444 350.96027 643.67194 352.0384Z" fill-rule="nonzero" fill="#000000"></path><path d="M594.98444 374.99152L598.0157 370.67902L595.2032 366.69464L596.9688 366.69464L598.23444 368.63214Q598.5938 369.19464 598.81256 369.56964Q599.1563 369.05402 599.4532 368.64777L600.8438 366.69464L602.5313 366.69464L599.6563 370.6009L602.75006 374.99152L601.0157 374.99152L599.31256 372.4134L598.85944 371.71027L596.68756 374.99152L594.98444 374.99152ZM608.48444 374.99152L608.48444 363.5384L612.7813 363.5384Q614.0938 363.5384 614.8907 363.88214Q615.68756 364.2259 616.1329 364.95245Q616.5782 365.67902 616.5782 366.46027Q616.5782 367.19464 616.17975 367.84308Q615.7813 368.49152 614.98444 368.89777Q616.0157 369.19464 616.5782 369.92902Q617.1407 370.6634 617.1407 371.6634Q617.1407 372.4759 616.79694 373.1634Q616.4532 373.8509 615.9532 374.2259Q615.4532 374.6009 614.7032 374.7962Q613.9532 374.99152 612.85944 374.99152L608.48444 374.99152ZM610.00006 368.3509L612.48444 368.3509Q613.48444 368.3509 613.92194 368.21027Q614.50006 368.0384 614.79694 367.63995Q615.0938 367.24152 615.0938 366.64777Q615.0938 366.06964 614.8204 365.63995Q614.54694 365.21027 614.0391 365.0462Q613.5313 364.88214 612.29694 364.88214L610.00006 364.88214L610.00006 368.3509ZM610.00006 373.63214L612.85944 373.63214Q613.5938 373.63214 613.8907 373.58527Q614.4063 373.49152 614.7579 373.27277Q615.10944 373.05402 615.336 372.63214Q615.56256 372.21027 615.56256 371.6634Q615.56256 371.02277 615.23444 370.55402Q614.9063 370.08527 614.3282 369.88995Q613.75006 369.69464 612.6563 369.69464L610.00006 369.69464L610.00006 373.63214ZM618.98444 378.19464L618.8282 376.86652Q619.2813 376.99152 619.62506 376.99152Q620.0938 376.99152 620.37506 376.83527Q620.6563 376.67902 620.8438 376.39777Q620.9688 376.19464 621.2657 375.3509Q621.31256 375.24152 621.3907 375.00714L618.25006 366.69464L619.7657 366.69464L621.48444 371.49152Q621.8282 372.4134 622.0938 373.4134Q622.3282 372.44464 622.67194 371.52277L624.43756 366.69464L625.8438 366.69464L622.68756 375.13214Q622.18756 376.50714 621.9063 377.02277Q621.5313 377.71027 621.04694 378.0384Q620.56256 378.36652 619.8907 378.36652Q619.48444 378.36652 618.98444 378.19464ZM630.10944 373.7259L630.31256 374.9759Q629.7188 375.1009 629.25006 375.1009Q628.48444 375.1009 628.06256 374.8587Q627.6407 374.61652 627.4688 374.21808Q627.29694 373.81964 627.29694 372.55402L627.29694 367.7884L626.2657 367.7884L626.2657 366.69464L627.29694 366.69464L627.29694 364.63214L628.7032 363.7884L628.7032 366.69464L630.10944 366.69464L630.10944 367.7884L628.7032 367.7884L628.7032 372.63214Q628.7032 373.24152 628.7735 373.4134Q628.8438 373.58527 629.0157 373.68683Q629.18756 373.7884 629.50006 373.7884Q629.73444 373.7884 630.10944 373.7259ZM637.1563 372.31964L638.60944 372.49152Q638.2657 373.77277 637.336 374.4759Q636.4063 375.17902 634.9688 375.17902Q633.1407 375.17902 632.0782 374.05402Q631.0157 372.92902 631.0157 370.9134Q631.0157 368.81964 632.0938 367.6634Q633.17194 366.50714 634.8907 366.50714Q636.54694 366.50714 637.6016 367.63995Q638.6563 368.77277 638.6563 370.81964Q638.6563 370.94464 638.6563 371.19464L632.4688 371.19464Q632.54694 372.56964 633.24225 373.2962Q633.93756 374.02277 634.9688 374.02277Q635.75006 374.02277 636.29694 373.61652Q636.8438 373.21027 637.1563 372.31964ZM632.54694 370.0384L637.17194 370.0384Q637.0782 368.99152 636.6407 368.4759Q635.9688 367.6634 634.9063 367.6634Q633.93756 367.6634 633.2735 368.31183Q632.60944 368.96027 632.54694 370.0384ZM639.8282 372.50714L641.2188 372.2884Q641.3282 373.13214 641.86725 373.57745Q642.4063 374.02277 643.35944 374.02277Q644.3282 374.02277 644.79694 373.62433Q645.2657 373.2259 645.2657 372.69464Q645.2657 372.2259 644.85944 371.94464Q644.56256 371.75714 643.42194 371.4759Q641.87506 371.08527 641.2735 370.7962Q640.67194 370.50714 640.36725 370.00714Q640.06256 369.50714 640.06256 368.89777Q640.06256 368.33527 640.31256 367.86652Q640.56256 367.39777 641.00006 367.08527Q641.3282 366.83527 641.8985 366.6712Q642.4688 366.50714 643.10944 366.50714Q644.0938 366.50714 644.8282 366.7884Q645.56256 367.06964 645.9141 367.5462Q646.2657 368.02277 646.4063 368.83527L645.0313 369.02277Q644.93756 368.38214 644.48444 368.02277Q644.0313 367.6634 643.2188 367.6634Q642.25006 367.6634 641.836 367.9837Q641.42194 368.30402 641.42194 368.7259Q641.42194 369.00714 641.5938 369.2259Q641.7657 369.44464 642.12506 369.6009Q642.3438 369.67902 643.37506 369.96027Q644.85944 370.3509 645.4532 370.6087Q646.04694 370.86652 646.3829 371.3509Q646.7188 371.83527 646.7188 372.55402Q646.7188 373.25714 646.30475 373.87433Q645.8907 374.49152 645.11725 374.83527Q644.3438 375.17902 643.37506 375.17902Q641.75006 375.17902 640.9063 374.50714Q640.06256 373.83527 639.8282 372.50714Z" fill-rule="nonzero" fill="#000000"></path><path d="M668.66034 338.9134L763.5894 338.9134L763.5894 381.0866L668.66034 381.0866Z" fill-rule="nonzero" fill="#cfe2f3" stroke="#073763" stroke-width="2.0" stroke-linejoin="round" stroke-linecap="butt"></path><path d="M680.9416 356.99152L680.9416 345.5384L682.4572 345.5384L682.4572 350.24152L688.41034 350.24152L688.41034 345.5384L689.92596 345.5384L689.92596 356.99152L688.41034 356.99152L688.41034 351.58527L682.4572 351.58527L682.4572 356.99152L680.9416 356.99152ZM691.73846 352.83527Q691.73846 350.5384 693.0197 349.42902Q694.09784 348.50714 695.6291 348.50714Q697.34784 348.50714 698.4338 349.62433Q699.5197 350.74152 699.5197 352.7259Q699.5197 354.31964 699.03534 355.24152Q698.55096 356.1634 697.6369 356.6712Q696.72284 357.17902 695.6291 357.17902Q693.8947 357.17902 692.8166 356.06183Q691.73846 354.94464 691.73846 352.83527ZM693.1916 352.83527Q693.1916 354.42902 693.8869 355.2259Q694.5822 356.02277 695.6291 356.02277Q696.67596 356.02277 697.3713 355.2259Q698.0666 354.42902 698.0666 352.7884Q698.0666 351.25714 697.3713 350.46027Q696.67596 349.6634 695.6291 349.6634Q694.5822 349.6634 693.8869 350.45245Q693.1916 351.24152 693.1916 352.83527ZM700.61346 354.50714L702.0041 354.2884Q702.11346 355.13214 702.6525 355.57745Q703.1916 356.02277 704.1447 356.02277Q705.11346 356.02277 705.5822 355.62433Q706.05096 355.2259 706.05096 354.69464Q706.05096 354.2259 705.6447 353.94464Q705.34784 353.75714 704.2072 353.4759Q702.66034 353.08527 702.0588 352.7962Q701.4572 352.50714 701.1525 352.00714Q700.84784 351.50714 700.84784 350.89777Q700.84784 350.33527 701.09784 349.86652Q701.34784 349.39777 701.78534 349.08527Q702.11346 348.83527 702.6838 348.6712Q703.2541 348.50714 703.8947 348.50714Q704.8791 348.50714 705.61346 348.7884Q706.34784 349.06964 706.6994 349.5462Q707.05096 350.02277 707.1916 350.83527L705.8166 351.02277Q705.72284 350.38214 705.2697 350.02277Q704.8166 349.6634 704.0041 349.6634Q703.03534 349.6634 702.6213 349.9837Q702.2072 350.30402 702.2072 350.7259Q702.2072 351.00714 702.3791 351.2259Q702.55096 351.44464 702.91034 351.6009Q703.1291 351.67902 704.16034 351.96027Q705.6447 352.3509 706.23846 352.6087Q706.8322 352.86652 707.16815 353.3509Q707.5041 353.83527 707.5041 354.55402Q707.5041 355.25714 707.09 355.87433Q706.67596 356.49152 705.9025 356.83527Q705.1291 357.17902 704.16034 357.17902Q702.53534 357.17902 701.6916 356.50714Q700.84784 355.83527 700.61346 354.50714ZM712.23846 355.7259L712.4416 356.9759Q711.84784 357.1009 711.3791 357.1009Q710.61346 357.1009 710.1916 356.8587Q709.7697 356.61652 709.59784 356.21808Q709.42596 355.81964 709.42596 354.55402L709.42596 349.7884L708.3947 349.7884L708.3947 348.69464L709.42596 348.69464L709.42596 346.63214L710.8322 345.7884L710.8322 348.69464L712.23846 348.69464L712.23846 349.7884L710.8322 349.7884L710.8322 354.63214Q710.8322 355.24152 710.9025 355.4134Q710.97284 355.58527 711.1447 355.68683Q711.3166 355.7884 711.6291 355.7884Q711.86346 355.7884 712.23846 355.7259ZM713.61346 356.99152L713.61346 348.69464L714.8791 348.69464L714.8791 349.86652Q715.78534 348.50714 717.5197 348.50714Q718.2697 348.50714 718.8947 348.77277Q719.5197 349.0384 719.8322 349.4759Q720.1447 349.9134 720.2697 350.52277Q720.34784 350.9134 720.34784 351.88214L720.34784 356.99152L718.9416 356.99152L718.9416 351.94464Q718.9416 351.08527 718.7775 350.65558Q718.61346 350.2259 718.1994 349.9759Q717.78534 349.7259 717.22284 349.7259Q716.3166 349.7259 715.66815 350.2962Q715.0197 350.86652 715.0197 352.46027L715.0197 356.99152L713.61346 356.99152ZM727.92596 355.96027Q727.1447 356.63214 726.42596 356.90558Q725.7072 357.17902 724.8791 357.17902Q723.5041 357.17902 722.7697 356.50714Q722.03534 355.83527 722.03534 354.80402Q722.03534 354.19464 722.3166 353.68683Q722.59784 353.17902 723.04315 352.87433Q723.48846 352.56964 724.05096 352.4134Q724.47284 352.30402 725.30096 352.21027Q727.0041 352.00714 727.8166 351.7259Q727.8166 351.42902 727.8166 351.3509Q727.8166 350.49152 727.42596 350.14777Q726.8791 349.6634 725.8166 349.6634Q724.8322 349.6634 724.35565 350.01495Q723.8791 350.36652 723.66034 351.24152L722.28534 351.05402Q722.47284 350.17902 722.9025 349.63214Q723.3322 349.08527 724.1447 348.7962Q724.9572 348.50714 726.0197 348.50714Q727.0822 348.50714 727.7463 348.75714Q728.41034 349.00714 728.72284 349.38214Q729.03534 349.75714 729.16034 350.33527Q729.23846 350.69464 729.23846 351.63214L729.23846 353.50714Q729.23846 355.4759 729.3244 355.99152Q729.41034 356.50714 729.67596 356.99152L728.2072 356.99152Q727.98846 356.55402 727.92596 355.96027ZM727.8166 352.81964Q727.05096 353.13214 725.5197 353.3509Q724.6447 353.4759 724.28534 353.63214Q723.92596 353.7884 723.73065 354.09308Q723.53534 354.39777 723.53534 354.75714Q723.53534 355.31964 723.965 355.69464Q724.3947 356.06964 725.2072 356.06964Q726.0197 356.06964 726.6525 355.71808Q727.28534 355.36652 727.5822 354.74152Q727.8166 354.27277 727.8166 353.33527L727.8166 352.81964ZM731.41034 356.99152L731.41034 348.69464L732.66034 348.69464L732.66034 349.8509Q733.05096 349.24152 733.6994 348.87433Q734.34784 348.50714 735.17596 348.50714Q736.09784 348.50714 736.6916 348.88995Q737.28534 349.27277 737.5197 349.96027Q738.5041 348.50714 740.0822 348.50714Q741.3166 348.50714 741.98065 349.18683Q742.6447 349.86652 742.6447 351.2884L742.6447 356.99152L741.2541 356.99152L741.2541 351.75714Q741.2541 350.9134 741.11346 350.5462Q740.97284 350.17902 740.61346 349.95245Q740.2541 349.7259 739.7697 349.7259Q738.8947 349.7259 738.3166 350.30402Q737.73846 350.88214 737.73846 352.1634L737.73846 356.99152L736.3322 356.99152L736.3322 351.6009Q736.3322 350.6634 735.98846 350.19464Q735.6447 349.7259 734.86346 349.7259Q734.2697 349.7259 733.7697 350.0384Q733.2697 350.3509 733.04315 350.95245Q732.8166 351.55402 732.8166 352.67902L732.8166 356.99152L731.41034 356.99152ZM750.41034 354.31964L751.86346 354.49152Q751.5197 355.77277 750.59 356.4759Q749.66034 357.17902 748.22284 357.17902Q746.3947 357.17902 745.3322 356.05402Q744.2697 354.92902 744.2697 352.9134Q744.2697 350.81964 745.34784 349.6634Q746.42596 348.50714 748.1447 348.50714Q749.80096 348.50714 750.85565 349.63995Q751.91034 350.77277 751.91034 352.81964Q751.91034 352.94464 751.91034 353.19464L745.72284 353.19464Q745.80096 354.56964 746.4963 355.2962Q747.1916 356.02277 748.22284 356.02277Q749.0041 356.02277 749.55096 355.61652Q750.09784 355.21027 750.41034 354.31964ZM745.80096 352.0384L750.42596 352.0384Q750.3322 350.99152 749.8947 350.4759Q749.22284 349.6634 748.16034 349.6634Q747.1916 349.6634 746.5275 350.31183Q745.86346 350.96027 745.80096 352.0384Z" fill-rule="nonzero" fill="#000000"></path><path d="M690.0041 374.99152L693.03534 370.67902L690.22284 366.69464L691.98846 366.69464L693.2541 368.63214Q693.61346 369.19464 693.8322 369.56964Q694.17596 369.05402 694.47284 368.64777L695.86346 366.69464L697.55096 366.69464L694.67596 370.6009L697.7697 374.99152L696.03534 374.99152L694.3322 372.4134L693.8791 371.71027L691.7072 374.99152L690.0041 374.99152ZM703.5041 374.99152L703.5041 363.5384L707.80096 363.5384Q709.11346 363.5384 709.91034 363.88214Q710.7072 364.2259 711.1525 364.95245Q711.59784 365.67902 711.59784 366.46027Q711.59784 367.19464 711.1994 367.84308Q710.80096 368.49152 710.0041 368.89777Q711.03534 369.19464 711.59784 369.92902Q712.16034 370.6634 712.16034 371.6634Q712.16034 372.4759 711.8166 373.1634Q711.47284 373.8509 710.97284 374.2259Q710.47284 374.6009 709.72284 374.7962Q708.97284 374.99152 707.8791 374.99152L703.5041 374.99152ZM705.0197 368.3509L707.5041 368.3509Q708.5041 368.3509 708.9416 368.21027Q709.5197 368.0384 709.8166 367.63995Q710.11346 367.24152 710.11346 366.64777Q710.11346 366.06964 709.84 365.63995Q709.5666 365.21027 709.0588 365.0462Q708.55096 364.88214 707.3166 364.88214L705.0197 364.88214L705.0197 368.3509ZM705.0197 373.63214L707.8791 373.63214Q708.61346 373.63214 708.91034 373.58527Q709.42596 373.49152 709.7775 373.27277Q710.1291 373.05402 710.35565 372.63214Q710.5822 372.21027 710.5822 371.6634Q710.5822 371.02277 710.2541 370.55402Q709.92596 370.08527 709.34784 369.88995Q708.7697 369.69464 707.67596 369.69464L705.0197 369.69464L705.0197 373.63214ZM714.0041 378.19464L713.84784 376.86652Q714.30096 376.99152 714.6447 376.99152Q715.11346 376.99152 715.3947 376.83527Q715.67596 376.67902 715.86346 376.39777Q715.98846 376.19464 716.28534 375.3509Q716.3322 375.24152 716.41034 375.00714L713.2697 366.69464L714.78534 366.69464L716.5041 371.49152Q716.84784 372.4134 717.11346 373.4134Q717.34784 372.44464 717.6916 371.52277L719.4572 366.69464L720.86346 366.69464L717.7072 375.13214Q717.2072 376.50714 716.92596 377.02277Q716.55096 377.71027 716.0666 378.0384Q715.5822 378.36652 714.91034 378.36652Q714.5041 378.36652 714.0041 378.19464ZM725.1291 373.7259L725.3322 374.9759Q724.73846 375.1009 724.2697 375.1009Q723.5041 375.1009 723.0822 374.8587Q722.66034 374.61652 722.48846 374.21808Q722.3166 373.81964 722.3166 372.55402L722.3166 367.7884L721.28534 367.7884L721.28534 366.69464L722.3166 366.69464L722.3166 364.63214L723.72284 363.7884L723.72284 366.69464L725.1291 366.69464L725.1291 367.7884L723.72284 367.7884L723.72284 372.63214Q723.72284 373.24152 723.79315 373.4134Q723.86346 373.58527 724.03534 373.68683Q724.2072 373.7884 724.5197 373.7884Q724.7541 373.7884 725.1291 373.7259ZM732.17596 372.31964L733.6291 372.49152Q733.28534 373.77277 732.35565 374.4759Q731.42596 375.17902 729.98846 375.17902Q728.16034 375.17902 727.09784 374.05402Q726.03534 372.92902 726.03534 370.9134Q726.03534 368.81964 727.11346 367.6634Q728.1916 366.50714 729.91034 366.50714Q731.5666 366.50714 732.6213 367.63995Q733.67596 368.77277 733.67596 370.81964Q733.67596 370.94464 733.67596 371.19464L727.48846 371.19464Q727.5666 372.56964 728.2619 373.2962Q728.9572 374.02277 729.98846 374.02277Q730.7697 374.02277 731.3166 373.61652Q731.86346 373.21027 732.17596 372.31964ZM727.5666 370.0384L732.1916 370.0384Q732.09784 368.99152 731.66034 368.4759Q730.98846 367.6634 729.92596 367.6634Q728.9572 367.6634 728.29315 368.31183Q727.6291 368.96027 727.5666 370.0384ZM734.84784 372.50714L736.23846 372.2884Q736.34784 373.13214 736.8869 373.57745Q737.42596 374.02277 738.3791 374.02277Q739.34784 374.02277 739.8166 373.62433Q740.28534 373.2259 740.28534 372.69464Q740.28534 372.2259 739.8791 371.94464Q739.5822 371.75714 738.4416 371.4759Q736.8947 371.08527 736.29315 370.7962Q735.6916 370.50714 735.3869 370.00714Q735.0822 369.50714 735.0822 368.89777Q735.0822 368.33527 735.3322 367.86652Q735.5822 367.39777 736.0197 367.08527Q736.34784 366.83527 736.91815 366.6712Q737.48846 366.50714 738.1291 366.50714Q739.11346 366.50714 739.84784 366.7884Q740.5822 367.06964 740.9338 367.5462Q741.28534 368.02277 741.42596 368.83527L740.05096 369.02277Q739.9572 368.38214 739.5041 368.02277Q739.05096 367.6634 738.23846 367.6634Q737.2697 367.6634 736.85565 367.9837Q736.4416 368.30402 736.4416 368.7259Q736.4416 369.00714 736.61346 369.2259Q736.78534 369.44464 737.1447 369.6009Q737.36346 369.67902 738.3947 369.96027Q739.8791 370.3509 740.47284 370.6087Q741.0666 370.86652 741.4025 371.3509Q741.73846 371.83527 741.73846 372.55402Q741.73846 373.25714 741.3244 373.87433Q740.91034 374.49152 740.1369 374.83527Q739.36346 375.17902 738.3947 375.17902Q736.7697 375.17902 735.92596 374.50714Q735.0822 373.83527 734.84784 372.50714Z" fill-rule="nonzero" fill="#000000"></path><path d="M763.1898 338.9134L836.5441 338.9134L836.5441 381.0866L763.1898 381.0866Z" fill-rule="nonzero" fill="#cfe2f3" stroke="#073763" stroke-width="2.0" stroke-linejoin="round" stroke-linecap="butt"></path><path d="M786.4242 356.99152L786.4242 345.5384L790.7523 345.5384Q791.89294 345.5384 792.4867 345.64777Q793.33044 345.7884 793.90076 346.17902Q794.47107 346.56964 794.82263 347.28058Q795.1742 347.99152 795.1742 348.8509Q795.1742 350.30402 794.2445 351.31964Q793.3148 352.33527 790.8773 352.33527L787.9398 352.33527L787.9398 356.99152L786.4242 356.99152ZM787.9398 350.9759L790.90857 350.9759Q792.3773 350.9759 792.9945 350.42902Q793.6117 349.88214 793.6117 348.89777Q793.6117 348.17902 793.2445 347.6634Q792.8773 347.14777 792.28357 346.99152Q791.90857 346.88214 790.8773 346.88214L787.9398 346.88214L787.9398 350.9759ZM796.39294 352.83527Q796.39294 350.5384 797.6742 349.42902Q798.7523 348.50714 800.28357 348.50714Q802.0023 348.50714 803.08826 349.62433Q804.1742 350.74152 804.1742 352.7259Q804.1742 354.31964 803.6898 355.24152Q803.20544 356.1634 802.2914 356.6712Q801.3773 357.17902 800.28357 357.17902Q798.5492 357.17902 797.47107 356.06183Q796.39294 354.94464 796.39294 352.83527ZM797.84607 352.83527Q797.84607 354.42902 798.5414 355.2259Q799.2367 356.02277 800.28357 356.02277Q801.33044 356.02277 802.02576 355.2259Q802.72107 354.42902 802.72107 352.7884Q802.72107 351.25714 802.02576 350.46027Q801.33044 349.6634 800.28357 349.6634Q799.2367 349.6634 798.5414 350.45245Q797.84607 351.24152 797.84607 352.83527ZM805.7992 356.99152L805.7992 348.69464L807.0648 348.69464L807.0648 349.94464Q807.5492 349.06964 807.95544 348.7884Q808.3617 348.50714 808.8617 348.50714Q809.5648 348.50714 810.2992 348.96027L809.8148 350.25714Q809.2992 349.96027 808.78357 349.96027Q808.33044 349.96027 807.96326 350.2337Q807.59607 350.50714 807.4398 351.00714Q807.20544 351.75714 807.20544 352.64777L807.20544 356.99152L805.7992 356.99152ZM814.20544 355.7259L814.40857 356.9759Q813.8148 357.1009 813.34607 357.1009Q812.58044 357.1009 812.15857 356.8587Q811.7367 356.61652 811.5648 356.21808Q811.39294 355.81964 811.39294 354.55402L811.39294 349.7884L810.3617 349.7884L810.3617 348.69464L811.39294 348.69464L811.39294 346.63214L812.7992 345.7884L812.7992 348.69464L814.20544 348.69464L814.20544 349.7884L812.7992 349.7884L812.7992 354.63214Q812.7992 355.24152 812.8695 355.4134Q812.9398 355.58527 813.1117 355.68683Q813.28357 355.7884 813.59607 355.7884Q813.83044 355.7884 814.20544 355.7259Z" fill-rule="nonzero" fill="#000000"></path><path d="M773.7523 374.99152L776.78357 370.67902L773.97107 366.69464L775.7367 366.69464L777.0023 368.63214Q777.3617 369.19464 777.58044 369.56964Q777.9242 369.05402 778.22107 368.64777L779.6117 366.69464L781.2992 366.69464L778.4242 370.6009L781.51794 374.99152L779.78357 374.99152L778.08044 372.4134L777.6273 371.71027L775.45544 374.99152L773.7523 374.99152ZM787.2523 374.99152L787.2523 363.5384L791.5492 363.5384Q792.8617 363.5384 793.65857 363.88214Q794.45544 364.2259 794.90076 364.95245Q795.34607 365.67902 795.34607 366.46027Q795.34607 367.19464 794.94763 367.84308Q794.5492 368.49152 793.7523 368.89777Q794.78357 369.19464 795.34607 369.92902Q795.90857 370.6634 795.90857 371.6634Q795.90857 372.4759 795.5648 373.1634Q795.22107 373.8509 794.72107 374.2259Q794.22107 374.6009 793.47107 374.7962Q792.72107 374.99152 791.6273 374.99152L787.2523 374.99152ZM788.76794 368.3509L791.2523 368.3509Q792.2523 368.3509 792.6898 368.21027Q793.26794 368.0384 793.5648 367.63995Q793.8617 367.24152 793.8617 366.64777Q793.8617 366.06964 793.58826 365.63995Q793.3148 365.21027 792.807 365.0462Q792.2992 364.88214 791.0648 364.88214L788.76794 364.88214L788.76794 368.3509ZM788.76794 373.63214L791.6273 373.63214Q792.3617 373.63214 792.65857 373.58527Q793.1742 373.49152 793.52576 373.27277Q793.8773 373.05402 794.1039 372.63214Q794.33044 372.21027 794.33044 371.6634Q794.33044 371.02277 794.0023 370.55402Q793.6742 370.08527 793.09607 369.88995Q792.51794 369.69464 791.4242 369.69464L788.76794 369.69464L788.76794 373.63214ZM797.7523 378.19464L797.59607 376.86652Q798.0492 376.99152 798.39294 376.99152Q798.8617 376.99152 799.14294 376.83527Q799.4242 376.67902 799.6117 376.39777Q799.7367 376.19464 800.03357 375.3509Q800.08044 375.24152 800.15857 375.00714L797.01794 366.69464L798.53357 366.69464L800.2523 371.49152Q800.59607 372.4134 800.8617 373.4134Q801.09607 372.44464 801.4398 371.52277L803.20544 366.69464L804.6117 366.69464L801.45544 375.13214Q800.95544 376.50714 800.6742 377.02277Q800.2992 377.71027 799.8148 378.0384Q799.33044 378.36652 798.65857 378.36652Q798.2523 378.36652 797.7523 378.19464ZM808.8773 373.7259L809.08044 374.9759Q808.4867 375.1009 808.01794 375.1009Q807.2523 375.1009 806.83044 374.8587Q806.40857 374.61652 806.2367 374.21808Q806.0648 373.81964 806.0648 372.55402L806.0648 367.7884L805.03357 367.7884L805.03357 366.69464L806.0648 366.69464L806.0648 364.63214L807.47107 363.7884L807.47107 366.69464L808.8773 366.69464L808.8773 367.7884L807.47107 367.7884L807.47107 372.63214Q807.47107 373.24152 807.5414 373.4134Q807.6117 373.58527 807.78357 373.68683Q807.95544 373.7884 808.26794 373.7884Q808.5023 373.7884 808.8773 373.7259ZM815.9242 372.31964L817.3773 372.49152Q817.03357 373.77277 816.1039 374.4759Q815.1742 375.17902 813.7367 375.17902Q811.90857 375.17902 810.84607 374.05402Q809.78357 372.92902 809.78357 370.9134Q809.78357 368.81964 810.8617 367.6634Q811.9398 366.50714 813.65857 366.50714Q815.3148 366.50714 816.3695 367.63995Q817.4242 368.77277 817.4242 370.81964Q817.4242 370.94464 817.4242 371.19464L811.2367 371.19464Q811.3148 372.56964 812.01013 373.2962Q812.70544 374.02277 813.7367 374.02277Q814.51794 374.02277 815.0648 373.61652Q815.6117 373.21027 815.9242 372.31964ZM811.3148 370.0384L815.9398 370.0384Q815.84607 368.99152 815.40857 368.4759Q814.7367 367.6634 813.6742 367.6634Q812.70544 367.6634 812.0414 368.31183Q811.3773 368.96027 811.3148 370.0384ZM818.59607 372.50714L819.9867 372.2884Q820.09607 373.13214 820.63513 373.57745Q821.1742 374.02277 822.1273 374.02277Q823.09607 374.02277 823.5648 373.62433Q824.03357 373.2259 824.03357 372.69464Q824.03357 372.2259 823.6273 371.94464Q823.33044 371.75714 822.1898 371.4759Q820.64294 371.08527 820.0414 370.7962Q819.4398 370.50714 819.13513 370.00714Q818.83044 369.50714 818.83044 368.89777Q818.83044 368.33527 819.08044 367.86652Q819.33044 367.39777 819.76794 367.08527Q820.09607 366.83527 820.6664 366.6712Q821.2367 366.50714 821.8773 366.50714Q822.8617 366.50714 823.59607 366.7884Q824.33044 367.06964 824.682 367.5462Q825.03357 368.02277 825.1742 368.83527L823.7992 369.02277Q823.70544 368.38214 823.2523 368.02277Q822.7992 367.6634 821.9867 367.6634Q821.01794 367.6634 820.6039 367.9837Q820.1898 368.30402 820.1898 368.7259Q820.1898 369.00714 820.3617 369.2259Q820.53357 369.44464 820.89294 369.6009Q821.1117 369.67902 822.14294 369.96027Q823.6273 370.3509 824.22107 370.6087Q824.8148 370.86652 825.15076 371.3509Q825.4867 371.83527 825.4867 372.55402Q825.4867 373.25714 825.07263 373.87433Q824.65857 374.49152 823.88513 374.83527Q823.1117 375.17902 822.14294 375.17902Q820.51794 375.17902 819.6742 374.50714Q818.83044 373.83527 818.59607 372.50714Z" fill-rule="nonzero" fill="#000000"></path></svg>

