<?xml version="1.0" standalone="yes"?>

<svg version="1.1" viewBox="0.0 0.0 960.0 720.0" fill="none" stroke="none" stroke-linecap="square" stroke-miterlimit="10" clip-path="url(#clip0)" xmlns="http://www.w3.org/2000/svg" xmlns:xlink="http://www.w3.org/1999/xlink"><clipPath id="clip0"><path d="M0 0L960.0 0L960.0 720.0L0 720.0L0 0Z" clip-rule="nonzero"></path></clipPath><path d="M123.45589 338.9134L197.7236 338.9134L197.7236 381.0866L123.45589 381.0866Z" fill-rule="nonzero" stroke="#073763" stroke-width="2.0" stroke-linejoin="round" stroke-linecap="butt"></path><path d="M147.51839 353.30402L148.95589 353.17902Q149.04964 354.0384 149.42464 354.59308Q149.79964 355.14777 150.58089 355.4837Q151.36214 355.81964 152.33089 355.81964Q153.20589 355.81964 153.86995 355.56183Q154.53401 355.30402 154.85432 354.8587Q155.17464 354.4134 155.17464 353.88214Q155.17464 353.33527 154.86214 352.93683Q154.54964 352.5384 153.83089 352.25714Q153.37776 352.08527 151.79964 351.70245Q150.22151 351.31964 149.58089 350.99152Q148.76839 350.55402 148.36214 349.9212Q147.95589 349.2884 147.95589 348.49152Q147.95589 347.63214 148.44807 346.87433Q148.94026 346.11652 149.88557 345.7259Q150.83089 345.33527 151.98714 345.33527Q153.26839 345.33527 154.23714 345.74933Q155.20589 346.1634 155.72932 346.96027Q156.25276 347.75714 156.29964 348.75714L154.84651 348.86652Q154.72151 347.7884 154.04964 347.2337Q153.37776 346.67902 152.04964 346.67902Q150.67464 346.67902 150.04964 347.17902Q149.42464 347.67902 149.42464 348.39777Q149.42464 349.00714 149.86214 349.4134Q150.29964 349.80402 152.1512 350.2259Q154.00276 350.64777 154.69026 350.96027Q155.69026 351.4134 156.16682 352.12433Q156.64339 352.83527 156.64339 353.75714Q156.64339 354.6634 156.11995 355.4759Q155.59651 356.2884 154.61214 356.74152Q153.62776 357.19464 152.40901 357.19464Q150.84651 357.19464 149.79964 356.7337Q148.75276 356.27277 148.1512 355.36652Q147.54964 354.46027 147.51839 353.30402ZM163.94026 355.96027Q163.15901 356.63214 162.44026 356.90558Q161.72151 357.17902 160.89339 357.17902Q159.51839 357.17902 158.78401 356.50714Q158.04964 355.83527 158.04964 354.80402Q158.04964 354.19464 158.33089 353.68683Q158.61214 353.17902 159.05745 352.87433Q159.50276 352.56964 160.06526 352.4134Q160.48714 352.30402 161.31526 352.21027Q163.01839 352.00714 163.83089 351.7259Q163.83089 351.42902 163.83089 351.3509Q163.83089 350.49152 163.44026 350.14777Q162.89339 349.6634 161.83089 349.6634Q160.84651 349.6634 160.36995 350.01495Q159.89339 350.36652 159.67464 351.24152L158.29964 351.05402Q158.48714 350.17902 158.91682 349.63214Q159.34651 349.08527 160.15901 348.7962Q160.97151 348.50714 162.03401 348.50714Q163.09651 348.50714 163.76057 348.75714Q164.42464 349.00714 164.73714 349.38214Q165.04964 349.75714 165.17464 350.33527Q165.25276 350.69464 165.25276 351.63214L165.25276 353.50714Q165.25276 355.4759 165.3387 355.99152Q165.42464 356.50714 165.69026 356.99152L164.22151 356.99152Q164.00276 356.55402 163.94026 355.96027ZM163.83089 352.81964Q163.06526 353.13214 161.53401 353.3509Q160.65901 353.4759 160.29964 353.63214Q159.94026 353.7884 159.74495 354.09308Q159.54964 354.39777 159.54964 354.75714Q159.54964 355.31964 159.97932 355.69464Q160.40901 356.06964 161.22151 356.06964Q162.03401 356.06964 162.66682 355.71808Q163.29964 355.36652 163.59651 354.74152Q163.83089 354.27277 163.83089 353.33527L163.83089 352.81964ZM167.39339 356.99152L167.39339 345.5384L168.79964 345.5384L168.79964 356.99152L167.39339 356.99152ZM174.04964 355.7259L174.25276 356.9759Q173.65901 357.1009 173.19026 357.1009Q172.42464 357.1009 172.00276 356.8587Q171.58089 356.61652 171.40901 356.21808Q171.23714 355.81964 171.23714 354.55402L171.23714 349.7884L170.20589 349.7884L170.20589 348.69464L171.23714 348.69464L171.23714 346.63214L172.64339 345.7884L172.64339 348.69464L174.04964 348.69464L174.04964 349.7884L172.64339 349.7884L172.64339 354.63214Q172.64339 355.24152 172.7137 355.4134Q172.78401 355.58527 172.95589 355.68683Q173.12776 355.7884 173.44026 355.7884Q173.67464 355.7884 174.04964 355.7259Z" fill-rule="nonzero" fill="#000000"></path><path d="M136.73714 368.77277Q135.86214 368.46027 135.44026 367.86652Q135.01839 367.27277 135.01839 366.44464Q135.01839 365.19464 135.91682 364.34308Q136.81526 363.49152 138.31526 363.49152Q139.81526 363.49152 140.72932 364.3587Q141.64339 365.2259 141.64339 366.4759Q141.64339 367.27277 141.22151 367.86652Q140.79964 368.46027 139.95589 368.77277Q141.00276 369.11652 141.55745 369.88214Q142.11214 370.64777 142.11214 371.71027Q142.11214 373.17902 141.07307 374.18683Q140.03401 375.19464 138.33089 375.19464Q136.64339 375.19464 135.60432 374.18683Q134.56526 373.17902 134.56526 371.67902Q134.56526 370.55402 135.12776 369.80402Q135.69026 369.05402 136.73714 368.77277ZM136.45589 366.39777Q136.45589 367.21027 136.97932 367.7259Q137.50276 368.24152 138.34651 368.24152Q139.15901 368.24152 139.67464 367.7259Q140.19026 367.21027 140.19026 366.4759Q140.19026 365.69464 139.65901 365.1712Q139.12776 364.64777 138.33089 364.64777Q137.51839 364.64777 136.98714 365.1634Q136.45589 365.67902 136.45589 366.39777ZM136.00276 371.67902Q136.00276 372.2884 136.29182 372.8509Q136.58089 373.4134 137.14339 373.71808Q137.70589 374.02277 138.34651 374.02277Q139.36214 374.02277 140.01839 373.37433Q140.67464 372.7259 140.67464 371.7259Q140.67464 370.71027 139.99495 370.0462Q139.31526 369.38214 138.29964 369.38214Q137.31526 369.38214 136.65901 370.0384Q136.00276 370.69464 136.00276 371.67902ZM148.42464 374.99152L148.42464 363.5384L152.72151 363.5384Q154.03401 363.5384 154.83089 363.88214Q155.62776 364.2259 156.07307 364.95245Q156.51839 365.67902 156.51839 366.46027Q156.51839 367.19464 156.11995 367.84308Q155.72151 368.49152 154.92464 368.89777Q155.95589 369.19464 156.51839 369.92902Q157.08089 370.6634 157.08089 371.6634Q157.08089 372.4759 156.73714 373.1634Q156.39339 373.8509 155.89339 374.2259Q155.39339 374.6009 154.64339 374.7962Q153.89339 374.99152 152.79964 374.99152L148.42464 374.99152ZM149.94026 368.3509L152.42464 368.3509Q153.42464 368.3509 153.86214 368.21027Q154.44026 368.0384 154.73714 367.63995Q155.03401 367.24152 155.03401 366.64777Q155.03401 366.06964 154.76057 365.63995Q154.48714 365.21027 153.97932 365.0462Q153.47151 364.88214 152.23714 364.88214L149.94026 364.88214L149.94026 368.3509ZM149.94026 373.63214L152.79964 373.63214Q153.53401 373.63214 153.83089 373.58527Q154.34651 373.49152 154.69807 373.27277Q155.04964 373.05402 155.2762 372.63214Q155.50276 372.21027 155.50276 371.6634Q155.50276 371.02277 155.17464 370.55402Q154.84651 370.08527 154.26839 369.88995Q153.69026 369.69464 152.59651 369.69464L149.94026 369.69464L149.94026 373.63214ZM158.92464 378.19464L158.76839 376.86652Q159.22151 376.99152 159.56526 376.99152Q160.03401 376.99152 160.31526 376.83527Q160.59651 376.67902 160.78401 376.39777Q160.90901 376.19464 161.20589 375.3509Q161.25276 375.24152 161.33089 375.00714L158.19026 366.69464L159.70589 366.69464L161.42464 371.49152Q161.76839 372.4134 162.03401 373.4134Q162.26839 372.44464 162.61214 371.52277L164.37776 366.69464L165.78401 366.69464L162.62776 375.13214Q162.12776 376.50714 161.84651 377.02277Q161.47151 377.71027 160.98714 378.0384Q160.50276 378.36652 159.83089 378.36652Q159.42464 378.36652 158.92464 378.19464ZM170.04964 373.7259L170.25276 374.9759Q169.65901 375.1009 169.19026 375.1009Q168.42464 375.1009 168.00276 374.8587Q167.58089 374.61652 167.40901 374.21808Q167.23714 373.81964 167.23714 372.55402L167.23714 367.7884L166.20589 367.7884L166.20589 366.69464L167.23714 366.69464L167.23714 364.63214L168.64339 363.7884L168.64339 366.69464L170.04964 366.69464L170.04964 367.7884L168.64339 367.7884L168.64339 372.63214Q168.64339 373.24152 168.7137 373.4134Q168.78401 373.58527 168.95589 373.68683Q169.12776 373.7884 169.44026 373.7884Q169.67464 373.7884 170.04964 373.7259ZM177.09651 372.31964L178.54964 372.49152Q178.20589 373.77277 177.2762 374.4759Q176.34651 375.17902 174.90901 375.17902Q173.08089 375.17902 172.01839 374.05402Q170.95589 372.92902 170.95589 370.9134Q170.95589 368.81964 172.03401 367.6634Q173.11214 366.50714 174.83089 366.50714Q176.48714 366.50714 177.54182 367.63995Q178.59651 368.77277 178.59651 370.81964Q178.59651 370.94464 178.59651 371.19464L172.40901 371.19464Q172.48714 372.56964 173.18245 373.2962Q173.87776 374.02277 174.90901 374.02277Q175.69026 374.02277 176.23714 373.61652Q176.78401 373.21027 177.09651 372.31964ZM172.48714 370.0384L177.11214 370.0384Q177.01839 368.99152 176.58089 368.4759Q175.90901 367.6634 174.84651 367.6634Q173.87776 367.6634 173.2137 368.31183Q172.54964 368.96027 172.48714 370.0384ZM179.76839 372.50714L181.15901 372.2884Q181.26839 373.13214 181.80745 373.57745Q182.34651 374.02277 183.29964 374.02277Q184.26839 374.02277 184.73714 373.62433Q185.20589 373.2259 185.20589 372.69464Q185.20589 372.2259 184.79964 371.94464Q184.50276 371.75714 183.36214 371.4759Q181.81526 371.08527 181.2137 370.7962Q180.61214 370.50714 180.30745 370.00714Q180.00276 369.50714 180.00276 368.89777Q180.00276 368.33527 180.25276 367.86652Q180.50276 367.39777 180.94026 367.08527Q181.26839 366.83527 181.8387 366.6712Q182.40901 366.50714 183.04964 366.50714Q184.03401 366.50714 184.76839 366.7884Q185.50276 367.06964 185.85432 367.5462Q186.20589 368.02277 186.34651 368.83527L184.97151 369.02277Q184.87776 368.38214 184.42464 368.02277Q183.97151 367.6634 183.15901 367.6634Q182.19026 367.6634 181.7762 367.9837Q181.36214 368.30402 181.36214 368.7259Q181.36214 369.00714 181.53401 369.2259Q181.70589 369.44464 182.06526 369.6009Q182.28401 369.67902 183.31526 369.96027Q184.79964 370.3509 185.39339 370.6087Q185.98714 370.86652 186.32307 371.3509Q186.65901 371.83527 186.65901 372.55402Q186.65901 373.25714 186.24495 373.87433Q185.83089 374.49152 185.05745 374.83527Q184.28401 375.17902 183.31526 375.17902Q181.69026 375.17902 180.84651 374.50714Q180.00276 373.83527 179.76839 372.50714Z" fill-rule="nonzero" fill="#000000"></path><path d="M198.17735 338.9134L383.31122 338.9134L383.31122 381.0866L198.17735 381.0866Z" fill-rule="nonzero" fill="#cfe2f3" stroke="#073763" stroke-width="2.0" stroke-linejoin="round" stroke-linecap="butt"></path><path d="M237.75548 356.99152L237.75548 345.5384L242.8336 345.5384Q244.36485 345.5384 245.16173 345.84308Q245.9586 346.14777 246.43517 346.92902Q246.91173 347.71027 246.91173 348.6634Q246.91173 349.88214 246.12267 350.71808Q245.3336 351.55402 243.67735 351.77277Q244.28673 352.06964 244.59923 352.3509Q245.25548 352.96027 245.84923 353.86652L247.84923 356.99152L245.94298 356.99152L244.42735 354.6009Q243.75548 353.56964 243.32579 353.02277Q242.8961 352.4759 242.56017 352.25714Q242.22423 352.0384 241.86485 351.96027Q241.61485 351.89777 241.0211 351.89777L239.2711 351.89777L239.2711 356.99152L237.75548 356.99152ZM239.2711 350.58527L242.5211 350.58527Q243.56798 350.58527 244.15392 350.37433Q244.73985 350.1634 245.04454 349.68683Q245.34923 349.21027 245.34923 348.6634Q245.34923 347.8509 244.75548 347.32745Q244.16173 346.80402 242.8961 346.80402L239.2711 346.80402L239.2711 350.58527ZM248.56798 352.83527Q248.56798 350.5384 249.84923 349.42902Q250.92735 348.50714 252.4586 348.50714Q254.17735 348.50714 255.26329 349.62433Q256.3492 350.74152 256.3492 352.7259Q256.3492 354.31964 255.86485 355.24152Q255.38048 356.1634 254.46642 356.6712Q253.55235 357.17902 252.4586 357.17902Q250.72423 357.17902 249.6461 356.06183Q248.56798 354.94464 248.56798 352.83527ZM250.0211 352.83527Q250.0211 354.42902 250.71642 355.2259Q251.41173 356.02277 252.4586 356.02277Q253.50548 356.02277 254.20079 355.2259Q254.8961 354.42902 254.8961 352.7884Q254.8961 351.25714 254.20079 350.46027Q253.50548 349.6634 252.4586 349.6634Q251.41173 349.6634 250.71642 350.45245Q250.0211 351.24152 250.0211 352.83527ZM257.4742 352.83527Q257.4742 350.5384 258.75546 349.42902Q259.8336 348.50714 261.36484 348.50714Q263.0836 348.50714 264.16953 349.62433Q265.25546 350.74152 265.25546 352.7259Q265.25546 354.31964 264.7711 355.24152Q264.2867 356.1634 263.37265 356.6712Q262.4586 357.17902 261.36484 357.17902Q259.63046 357.17902 258.55234 356.06183Q257.4742 354.94464 257.4742 352.83527ZM258.92734 352.83527Q258.92734 354.42902 259.62265 355.2259Q260.31796 356.02277 261.36484 356.02277Q262.4117 356.02277 263.10703 355.2259Q263.80234 354.42902 263.80234 352.7884Q263.80234 351.25714 263.10703 350.46027Q262.4117 349.6634 261.36484 349.6634Q260.31796 349.6634 259.62265 350.45245Q258.92734 351.24152 258.92734 352.83527ZM269.9586 355.7259L270.1617 356.9759Q269.56796 357.1009 269.0992 357.1009Q268.3336 357.1009 267.9117 356.8587Q267.48984 356.61652 267.31796 356.21808Q267.1461 355.81964 267.1461 354.55402L267.1461 349.7884L266.11484 349.7884L266.11484 348.69464L267.1461 348.69464L267.1461 346.63214L268.55234 345.7884L268.55234 348.69464L269.9586 348.69464L269.9586 349.7884L268.55234 349.7884L268.55234 354.63214Q268.55234 355.24152 268.62265 355.4134Q268.69296 355.58527 268.86484 355.68683Q269.0367 355.7884 269.3492 355.7884Q269.5836 355.7884 269.9586 355.7259ZM284.13046 352.9759L285.6461 353.3509Q285.17734 355.2259 283.93515 356.21027Q282.69296 357.19464 280.9117 357.19464Q279.05234 357.19464 277.8961 356.43683Q276.73984 355.67902 276.13046 354.24933Q275.5211 352.81964 275.5211 351.17902Q275.5211 349.38214 276.2086 348.05402Q276.8961 346.7259 278.1539 346.03058Q279.4117 345.33527 280.92734 345.33527Q282.6461 345.33527 283.81796 346.21027Q284.98984 347.08527 285.4586 348.67902L283.9586 349.02277Q283.56796 347.77277 282.81015 347.20245Q282.05234 346.63214 280.8961 346.63214Q279.5836 346.63214 278.69296 347.26495Q277.80234 347.89777 277.44296 348.96808Q277.0836 350.0384 277.0836 351.1634Q277.0836 352.63214 277.51328 353.71808Q277.94296 354.80402 278.8414 355.34308Q279.73984 355.88214 280.7867 355.88214Q282.05234 355.88214 282.93515 355.14777Q283.81796 354.4134 284.13046 352.9759ZM292.75546 355.96027Q291.9742 356.63214 291.25546 356.90558Q290.5367 357.17902 289.7086 357.17902Q288.3336 357.17902 287.5992 356.50714Q286.86484 355.83527 286.86484 354.80402Q286.86484 354.19464 287.1461 353.68683Q287.42734 353.17902 287.87265 352.87433Q288.31796 352.56964 288.88046 352.4134Q289.30234 352.30402 290.13046 352.21027Q291.8336 352.00714 292.6461 351.7259Q292.6461 351.42902 292.6461 351.3509Q292.6461 350.49152 292.25546 350.14777Q291.7086 349.6634 290.6461 349.6634Q289.6617 349.6634 289.18515 350.01495Q288.7086 350.36652 288.48984 351.24152L287.11484 351.05402Q287.30234 350.17902 287.73203 349.63214Q288.1617 349.08527 288.9742 348.7962Q289.7867 348.50714 290.8492 348.50714Q291.9117 348.50714 292.57578 348.75714Q293.23984 349.00714 293.55234 349.38214Q293.86484 349.75714 293.98984 350.33527Q294.06796 350.69464 294.06796 351.63214L294.06796 353.50714Q294.06796 355.4759 294.1539 355.99152Q294.23984 356.50714 294.50546 356.99152L293.0367 356.99152Q292.81796 356.55402 292.75546 355.96027ZM292.6461 352.81964Q291.88046 353.13214 290.3492 353.3509Q289.4742 353.4759 289.11484 353.63214Q288.75546 353.7884 288.56015 354.09308Q288.36484 354.39777 288.36484 354.75714Q288.36484 355.31964 288.79453 355.69464Q289.2242 356.06964 290.0367 356.06964Q290.8492 356.06964 291.48203 355.71808Q292.11484 355.36652 292.4117 354.74152Q292.6461 354.27277 292.6461 353.33527L292.6461 352.81964ZM296.23984 360.17902L296.23984 348.69464L297.5211 348.69464L297.5211 349.77277Q297.9742 349.13214 298.54453 348.81964Q299.11484 348.50714 299.92734 348.50714Q300.98984 348.50714 301.80234 349.05402Q302.61484 349.6009 303.0289 350.59308Q303.44296 351.58527 303.44296 352.77277Q303.44296 354.05402 302.98203 355.06964Q302.5211 356.08527 301.6539 356.63214Q300.7867 357.17902 299.81796 357.17902Q299.11484 357.17902 298.56015 356.88214Q298.00546 356.58527 297.6461 356.13214L297.6461 360.17902L296.23984 360.17902ZM297.50546 352.88214Q297.50546 354.49152 298.1539 355.25714Q298.80234 356.02277 299.7242 356.02277Q300.6617 356.02277 301.3336 355.2259Q302.00546 354.42902 302.00546 352.77277Q302.00546 351.17902 301.3492 350.38995Q300.69296 349.6009 299.7867 349.6009Q298.8961 349.6009 298.20078 350.44464Q297.50546 351.2884 297.50546 352.88214ZM310.55234 355.96027Q309.7711 356.63214 309.05234 356.90558Q308.3336 357.17902 307.50546 357.17902Q306.13046 357.17902 305.3961 356.50714Q304.6617 355.83527 304.6617 354.80402Q304.6617 354.19464 304.94296 353.68683Q305.2242 353.17902 305.66953 352.87433Q306.11484 352.56964 306.67734 352.4134Q307.0992 352.30402 307.92734 352.21027Q309.63046 352.00714 310.44296 351.7259Q310.44296 351.42902 310.44296 351.3509Q310.44296 350.49152 310.05234 350.14777Q309.50546 349.6634 308.44296 349.6634Q307.4586 349.6634 306.98203 350.01495Q306.50546 350.36652 306.2867 351.24152L304.9117 351.05402Q305.0992 350.17902 305.5289 349.63214Q305.9586 349.08527 306.7711 348.7962Q307.5836 348.50714 308.6461 348.50714Q309.7086 348.50714 310.37265 348.75714Q311.0367 349.00714 311.3492 349.38214Q311.6617 349.75714 311.7867 350.33527Q311.86484 350.69464 311.86484 351.63214L311.86484 353.50714Q311.86484 355.4759 311.95078 355.99152Q312.0367 356.50714 312.30234 356.99152L310.8336 356.99152Q310.61484 356.55402 310.55234 355.96027ZM310.44296 352.81964Q309.67734 353.13214 308.1461 353.3509Q307.2711 353.4759 306.9117 353.63214Q306.55234 353.7884 306.35703 354.09308Q306.1617 354.39777 306.1617 354.75714Q306.1617 355.31964 306.5914 355.69464Q307.0211 356.06964 307.8336 356.06964Q308.6461 356.06964 309.2789 355.71808Q309.9117 355.36652 310.2086 354.74152Q310.44296 354.27277 310.44296 353.33527L310.44296 352.81964ZM315.3336 356.99152L314.0211 356.99152L314.0211 345.5384L315.42734 345.5384L315.42734 349.61652Q316.31796 348.50714 317.7086 348.50714Q318.4742 348.50714 319.1539 348.81183Q319.8336 349.11652 320.2789 349.67902Q320.7242 350.24152 320.9742 351.03058Q321.2242 351.81964 321.2242 352.71027Q321.2242 354.8509 320.16953 356.01495Q319.11484 357.17902 317.63046 357.17902Q316.1617 357.17902 315.3336 355.94464L315.3336 356.99152ZM315.31796 352.77277Q315.31796 354.27277 315.7242 354.92902Q316.38046 356.02277 317.5211 356.02277Q318.44296 356.02277 319.11484 355.21808Q319.7867 354.4134 319.7867 352.83527Q319.7867 351.21027 319.13828 350.43683Q318.48984 349.6634 317.5836 349.6634Q316.6617 349.6634 315.98984 350.46027Q315.31796 351.25714 315.31796 352.77277ZM322.94296 347.14777L322.94296 345.5384L324.3492 345.5384L324.3492 347.14777L322.94296 347.14777ZM322.94296 356.99152L322.94296 348.69464L324.3492 348.69464L324.3492 356.99152L322.94296 356.99152ZM326.4586 356.99152L326.4586 345.5384L327.86484 345.5384L327.86484 356.99152L326.4586 356.99152ZM330.05234 347.14777L330.05234 345.5384L331.4586 345.5384L331.4586 347.14777L330.05234 347.14777ZM330.05234 356.99152L330.05234 348.69464L331.4586 348.69464L331.4586 356.99152L330.05234 356.99152ZM336.6617 355.7259L336.86484 356.9759Q336.2711 357.1009 335.80234 357.1009Q335.0367 357.1009 334.61484 356.8587Q334.19296 356.61652 334.0211 356.21808Q333.8492 355.81964 333.8492 354.55402L333.8492 349.7884L332.81796 349.7884L332.81796 348.69464L333.8492 348.69464L333.8492 346.63214L335.25546 345.7884L335.25546 348.69464L336.6617 348.69464L336.6617 349.7884L335.25546 349.7884L335.25546 354.63214Q335.25546 355.24152 335.32578 355.4134Q335.3961 355.58527 335.56796 355.68683Q335.73984 355.7884 336.05234 355.7884Q336.2867 355.7884 336.6617 355.7259ZM337.98984 360.19464L337.8336 358.86652Q338.2867 358.99152 338.63046 358.99152Q339.0992 358.99152 339.38046 358.83527Q339.6617 358.67902 339.8492 358.39777Q339.9742 358.19464 340.2711 357.3509Q340.31796 357.24152 340.3961 357.00714L337.25546 348.69464L338.7711 348.69464L340.48984 353.49152Q340.8336 354.4134 341.0992 355.4134Q341.3336 354.44464 341.67734 353.52277L343.44296 348.69464L344.8492 348.69464L341.69296 357.13214Q341.19296 358.50714 340.9117 359.02277Q340.5367 359.71027 340.05234 360.0384Q339.56796 360.36652 338.8961 360.36652Q338.48984 360.36652 337.98984 360.19464Z" fill-rule="nonzero" fill="#000000"></path><path d="M260.2867 371.99152L261.75546 371.86652Q261.92734 372.94464 262.5211 373.4837Q263.11484 374.02277 263.9586 374.02277Q264.9742 374.02277 265.67734 373.25714Q266.38046 372.49152 266.38046 371.2259Q266.38046 370.02277 265.7086 369.32745Q265.0367 368.63214 263.94296 368.63214Q263.25546 368.63214 262.7086 368.94464Q262.1617 369.25714 261.8492 369.74152L260.5367 369.56964L261.6461 363.69464L267.3336 363.69464L267.3336 365.0384L262.7711 365.0384L262.1461 368.11652Q263.17734 367.39777 264.31796 367.39777Q265.81796 367.39777 266.8492 368.43683Q267.88046 369.4759 267.88046 371.1009Q267.88046 372.6634 266.9742 373.7884Q265.86484 375.19464 263.9586 375.19464Q262.3961 375.19464 261.4117 374.31183Q260.42734 373.42902 260.2867 371.99152ZM269.38046 372.33527L270.73984 372.21027Q270.9117 373.1634 271.3961 373.59308Q271.88046 374.02277 272.63046 374.02277Q273.2867 374.02277 273.7711 373.7259Q274.25546 373.42902 274.56796 372.93683Q274.88046 372.44464 275.0914 371.6009Q275.30234 370.75714 275.30234 369.88214Q275.30234 369.7884 275.30234 369.6009Q274.88046 370.27277 274.1461 370.68683Q273.4117 371.1009 272.56796 371.1009Q271.1461 371.1009 270.1617 370.06964Q269.17734 369.0384 269.17734 367.3509Q269.17734 365.61652 270.20078 364.55402Q271.2242 363.49152 272.7711 363.49152Q273.8961 363.49152 274.81796 364.09308Q275.73984 364.69464 276.2242 365.80402Q276.7086 366.9134 276.7086 369.02277Q276.7086 371.2259 276.23203 372.52277Q275.75546 373.81964 274.81015 374.50714Q273.86484 375.19464 272.5992 375.19464Q271.25546 375.19464 270.4039 374.44464Q269.55234 373.69464 269.38046 372.33527ZM275.1461 367.2884Q275.1461 366.06964 274.49765 365.3587Q273.8492 364.64777 272.94296 364.64777Q272.00546 364.64777 271.31015 365.4134Q270.61484 366.17902 270.61484 367.39777Q270.61484 368.49152 271.2789 369.17902Q271.94296 369.86652 272.9117 369.86652Q273.88046 369.86652 274.51328 369.17902Q275.1461 368.49152 275.1461 367.2884ZM283.0211 374.99152L283.0211 363.5384L287.31796 363.5384Q288.63046 363.5384 289.42734 363.88214Q290.2242 364.2259 290.66953 364.95245Q291.11484 365.67902 291.11484 366.46027Q291.11484 367.19464 290.7164 367.84308Q290.31796 368.49152 289.5211 368.89777Q290.55234 369.19464 291.11484 369.92902Q291.67734 370.6634 291.67734 371.6634Q291.67734 372.4759 291.3336 373.1634Q290.98984 373.8509 290.48984 374.2259Q289.98984 374.6009 289.23984 374.7962Q288.48984 374.99152 287.3961 374.99152L283.0211 374.99152ZM284.5367 368.3509L287.0211 368.3509Q288.0211 368.3509 288.4586 368.21027Q289.0367 368.0384 289.3336 367.63995Q289.63046 367.24152 289.63046 366.64777Q289.63046 366.06964 289.35703 365.63995Q289.0836 365.21027 288.57578 365.0462Q288.06796 364.88214 286.8336 364.88214L284.5367 364.88214L284.5367 368.3509ZM284.5367 373.63214L287.3961 373.63214Q288.13046 373.63214 288.42734 373.58527Q288.94296 373.49152 289.29453 373.27277Q289.6461 373.05402 289.87265 372.63214Q290.0992 372.21027 290.0992 371.6634Q290.0992 371.02277 289.7711 370.55402Q289.44296 370.08527 288.86484 369.88995Q288.2867 369.69464 287.19296 369.69464L284.5367 369.69464L284.5367 373.63214ZM293.5211 378.19464L293.36484 376.86652Q293.81796 376.99152 294.1617 376.99152Q294.63046 376.99152 294.9117 376.83527Q295.19296 376.67902 295.38046 376.39777Q295.50546 376.19464 295.80234 375.3509Q295.8492 375.24152 295.92734 375.00714L292.7867 366.69464L294.30234 366.69464L296.0211 371.49152Q296.36484 372.4134 296.63046 373.4134Q296.86484 372.44464 297.2086 371.52277L298.9742 366.69464L300.38046 366.69464L297.2242 375.13214Q296.7242 376.50714 296.44296 377.02277Q296.06796 377.71027 295.5836 378.0384Q295.0992 378.36652 294.42734 378.36652Q294.0211 378.36652 293.5211 378.19464ZM304.6461 373.7259L304.8492 374.9759Q304.25546 375.1009 303.7867 375.1009Q303.0211 375.1009 302.5992 374.8587Q302.17734 374.61652 302.00546 374.21808Q301.8336 373.81964 301.8336 372.55402L301.8336 367.7884L300.80234 367.7884L300.80234 366.69464L301.8336 366.69464L301.8336 364.63214L303.23984 363.7884L303.23984 366.69464L304.6461 366.69464L304.6461 367.7884L303.23984 367.7884L303.23984 372.63214Q303.23984 373.24152 303.31015 373.4134Q303.38046 373.58527 303.55234 373.68683Q303.7242 373.7884 304.0367 373.7884Q304.2711 373.7884 304.6461 373.7259ZM311.7086 372.31964L313.1617 372.49152Q312.81796 373.77277 311.88828 374.4759Q310.9586 375.17902 309.5211 375.17902Q307.69296 375.17902 306.63046 374.05402Q305.56796 372.92902 305.56796 370.9134Q305.56796 368.81964 306.6461 367.6634Q307.7242 366.50714 309.44296 366.50714Q311.0992 366.50714 312.1539 367.63995Q313.2086 368.77277 313.2086 370.81964Q313.2086 370.94464 313.2086 371.19464L307.0211 371.19464Q307.0992 372.56964 307.79453 373.2962Q308.48984 374.02277 309.5211 374.02277Q310.30234 374.02277 310.8492 373.61652Q311.3961 373.21027 311.7086 372.31964ZM307.0992 370.0384L311.7242 370.0384Q311.63046 368.99152 311.19296 368.4759Q310.5211 367.6634 309.4586 367.6634Q308.48984 367.6634 307.82578 368.31183Q307.1617 368.96027 307.0992 370.0384ZM314.36484 372.50714L315.75546 372.2884Q315.86484 373.13214 316.4039 373.57745Q316.94296 374.02277 317.8961 374.02277Q318.86484 374.02277 319.3336 373.62433Q319.80234 373.2259 319.80234 372.69464Q319.80234 372.2259 319.3961 371.94464Q319.0992 371.75714 317.9586 371.4759Q316.4117 371.08527 315.81015 370.7962Q315.2086 370.50714 314.9039 370.00714Q314.5992 369.50714 314.5992 368.89777Q314.5992 368.33527 314.8492 367.86652Q315.0992 367.39777 315.5367 367.08527Q315.86484 366.83527 316.43515 366.6712Q317.00546 366.50714 317.6461 366.50714Q318.63046 366.50714 319.36484 366.7884Q320.0992 367.06964 320.45078 367.5462Q320.80234 368.02277 320.94296 368.83527L319.56796 369.02277Q319.4742 368.38214 319.0211 368.02277Q318.56796 367.6634 317.75546 367.6634Q316.7867 367.6634 316.37265 367.9837Q315.9586 368.30402 315.9586 368.7259Q315.9586 369.00714 316.13046 369.2259Q316.30234 369.44464 316.6617 369.6009Q316.88046 369.67902 317.9117 369.96027Q319.3961 370.3509 319.98984 370.6087Q320.5836 370.86652 320.91953 371.3509Q321.25546 371.83527 321.25546 372.55402Q321.25546 373.25714 320.8414 373.87433Q320.42734 374.49152 319.6539 374.83527Q318.88046 375.17902 317.9117 375.17902Q316.2867 375.17902 315.44296 374.50714Q314.5992 373.83527 314.36484 372.50714Z" fill-rule="nonzero" fill="#000000"></path><path d="M383.44427 338.9134L478.3734 338.9134L478.3734 381.0866L383.44427 381.0866Z" fill-rule="nonzero" fill="#cfe2f3" stroke="#073763" stroke-width="2.0" stroke-linejoin="round" stroke-linecap="butt"></path><path d="M402.74115 345.5384L404.25677 345.5384L404.25677 352.14777Q404.25677 353.88214 403.86615 354.89777Q403.47552 355.9134 402.4599 356.55402Q401.44427 357.19464 399.78802 357.19464Q398.17865 357.19464 397.1552 356.63214Q396.13177 356.06964 395.69427 355.02277Q395.25677 353.9759 395.25677 352.14777L395.25677 345.5384L396.7724 345.5384L396.7724 352.14777Q396.7724 353.63214 397.04584 354.34308Q397.31927 355.05402 397.99896 355.43683Q398.67865 355.81964 399.6474 355.81964Q401.31927 355.81964 402.0302 355.06183Q402.74115 354.30402 402.74115 352.14777L402.74115 345.5384ZM406.05365 354.50714L407.44427 354.2884Q407.55365 355.13214 408.0927 355.57745Q408.63177 356.02277 409.5849 356.02277Q410.55365 356.02277 411.0224 355.62433Q411.49115 355.2259 411.49115 354.69464Q411.49115 354.2259 411.0849 353.94464Q410.78802 353.75714 409.6474 353.4759Q408.10052 353.08527 407.49896 352.7962Q406.8974 352.50714 406.5927 352.00714Q406.28802 351.50714 406.28802 350.89777Q406.28802 350.33527 406.53802 349.86652Q406.78802 349.39777 407.22552 349.08527Q407.55365 348.83527 408.12396 348.6712Q408.69427 348.50714 409.3349 348.50714Q410.31927 348.50714 411.05365 348.7884Q411.78802 349.06964 412.1396 349.5462Q412.49115 350.02277 412.63177 350.83527L411.25677 351.02277Q411.16302 350.38214 410.7099 350.02277Q410.25677 349.6634 409.44427 349.6634Q408.47552 349.6634 408.06146 349.9837Q407.6474 350.30402 407.6474 350.7259Q407.6474 351.00714 407.81927 351.2259Q407.99115 351.44464 408.35052 351.6009Q408.56927 351.67902 409.60052 351.96027Q411.0849 352.3509 411.67865 352.6087Q412.2724 352.86652 412.60834 353.3509Q412.94427 353.83527 412.94427 354.55402Q412.94427 355.25714 412.5302 355.87433Q412.11615 356.49152 411.3427 356.83527Q410.56927 357.17902 409.60052 357.17902Q407.97552 357.17902 407.13177 356.50714Q406.28802 355.83527 406.05365 354.50714ZM420.28802 354.31964L421.74115 354.49152Q421.3974 355.77277 420.4677 356.4759Q419.53802 357.17902 418.10052 357.17902Q416.2724 357.17902 415.2099 356.05402Q414.1474 354.92902 414.1474 352.9134Q414.1474 350.81964 415.22552 349.6634Q416.30365 348.50714 418.0224 348.50714Q419.67865 348.50714 420.73334 349.63995Q421.78802 350.77277 421.78802 352.81964Q421.78802 352.94464 421.78802 353.19464L415.60052 353.19464Q415.67865 354.56964 416.37396 355.2962Q417.06927 356.02277 418.10052 356.02277Q418.88177 356.02277 419.42865 355.61652Q419.97552 355.21027 420.28802 354.31964ZM415.67865 352.0384L420.30365 352.0384Q420.2099 350.99152 419.7724 350.4759Q419.10052 349.6634 418.03802 349.6634Q417.06927 349.6634 416.4052 350.31183Q415.74115 350.96027 415.67865 352.0384ZM423.49115 356.99152L423.49115 348.69464L424.75677 348.69464L424.75677 349.94464Q425.24115 349.06964 425.6474 348.7884Q426.05365 348.50714 426.55365 348.50714Q427.25677 348.50714 427.99115 348.96027L427.50677 350.25714Q426.99115 349.96027 426.47552 349.96027Q426.0224 349.96027 425.6552 350.2337Q425.28802 350.50714 425.13177 351.00714Q424.8974 351.75714 424.8974 352.64777L424.8974 356.99152L423.49115 356.99152ZM428.8349 356.99152L428.8349 348.69464L430.10052 348.69464L430.10052 349.86652Q431.00677 348.50714 432.74115 348.50714Q433.49115 348.50714 434.11615 348.77277Q434.74115 349.0384 435.05365 349.4759Q435.36615 349.9134 435.49115 350.52277Q435.56927 350.9134 435.56927 351.88214L435.56927 356.99152L434.16302 356.99152L434.16302 351.94464Q434.16302 351.08527 433.99896 350.65558Q433.8349 350.2259 433.42084 349.9759Q433.00677 349.7259 432.44427 349.7259Q431.53802 349.7259 430.8896 350.2962Q430.24115 350.86652 430.24115 352.46027L430.24115 356.99152L428.8349 356.99152ZM443.1474 355.96027Q442.36615 356.63214 441.6474 356.90558Q440.92865 357.17902 440.10052 357.17902Q438.72552 357.17902 437.99115 356.50714Q437.25677 355.83527 437.25677 354.80402Q437.25677 354.19464 437.53802 353.68683Q437.81927 353.17902 438.2646 352.87433Q438.7099 352.56964 439.2724 352.4134Q439.69427 352.30402 440.5224 352.21027Q442.22552 352.00714 443.03802 351.7259Q443.03802 351.42902 443.03802 351.3509Q443.03802 350.49152 442.6474 350.14777Q442.10052 349.6634 441.03802 349.6634Q440.05365 349.6634 439.5771 350.01495Q439.10052 350.36652 438.88177 351.24152L437.50677 351.05402Q437.69427 350.17902 438.12396 349.63214Q438.55365 349.08527 439.36615 348.7962Q440.17865 348.50714 441.24115 348.50714Q442.30365 348.50714 442.9677 348.75714Q443.63177 349.00714 443.94427 349.38214Q444.25677 349.75714 444.38177 350.33527Q444.4599 350.69464 444.4599 351.63214L444.4599 353.50714Q444.4599 355.4759 444.54584 355.99152Q444.63177 356.50714 444.8974 356.99152L443.42865 356.99152Q443.2099 356.55402 443.1474 355.96027ZM443.03802 352.81964Q442.2724 353.13214 440.74115 353.3509Q439.86615 353.4759 439.50677 353.63214Q439.1474 353.7884 438.9521 354.09308Q438.75677 354.39777 438.75677 354.75714Q438.75677 355.31964 439.18646 355.69464Q439.61615 356.06964 440.42865 356.06964Q441.24115 356.06964 441.87396 355.71808Q442.50677 355.36652 442.80365 354.74152Q443.03802 354.27277 443.03802 353.33527L443.03802 352.81964ZM446.63177 356.99152L446.63177 348.69464L447.88177 348.69464L447.88177 349.8509Q448.2724 349.24152 448.92084 348.87433Q449.56927 348.50714 450.3974 348.50714Q451.31927 348.50714 451.91302 348.88995Q452.50677 349.27277 452.74115 349.96027Q453.72552 348.50714 455.30365 348.50714Q456.53802 348.50714 457.2021 349.18683Q457.86615 349.86652 457.86615 351.2884L457.86615 356.99152L456.47552 356.99152L456.47552 351.75714Q456.47552 350.9134 456.3349 350.5462Q456.19427 350.17902 455.8349 349.95245Q455.47552 349.7259 454.99115 349.7259Q454.11615 349.7259 453.53802 350.30402Q452.9599 350.88214 452.9599 352.1634L452.9599 356.99152L451.55365 356.99152L451.55365 351.6009Q451.55365 350.6634 451.2099 350.19464Q450.86615 349.7259 450.0849 349.7259Q449.49115 349.7259 448.99115 350.0384Q448.49115 350.3509 448.2646 350.95245Q448.03802 351.55402 448.03802 352.67902L448.03802 356.99152L446.63177 356.99152ZM465.63177 354.31964L467.0849 354.49152Q466.74115 355.77277 465.81146 356.4759Q464.88177 357.17902 463.44427 357.17902Q461.61615 357.17902 460.55365 356.05402Q459.49115 354.92902 459.49115 352.9134Q459.49115 350.81964 460.56927 349.6634Q461.6474 348.50714 463.36615 348.50714Q465.0224 348.50714 466.0771 349.63995Q467.13177 350.77277 467.13177 352.81964Q467.13177 352.94464 467.13177 353.19464L460.94427 353.19464Q461.0224 354.56964 461.7177 355.2962Q462.41302 356.02277 463.44427 356.02277Q464.22552 356.02277 464.7724 355.61652Q465.31927 355.21027 465.63177 354.31964ZM461.0224 352.0384L465.6474 352.0384Q465.55365 350.99152 465.11615 350.4759Q464.44427 349.6634 463.38177 349.6634Q462.41302 349.6634 461.74896 350.31183Q461.0849 350.96027 461.0224 352.0384Z" fill-rule="nonzero" fill="#000000"></path><path d="M404.78802 374.99152L407.81927 370.67902L405.00677 366.69464L406.7724 366.69464L408.03802 368.63214Q408.3974 369.19464 408.61615 369.56964Q408.9599 369.05402 409.25677 368.64777L410.6474 366.69464L412.3349 366.69464L409.4599 370.6009L412.55365 374.99152L410.81927 374.99152L409.11615 372.4134L408.66302 371.71027L406.49115 374.99152L404.78802 374.99152ZM418.28802 374.99152L418.28802 363.5384L422.5849 363.5384Q423.8974 363.5384 424.69427 363.88214Q425.49115 364.2259 425.93646 364.95245Q426.38177 365.67902 426.38177 366.46027Q426.38177 367.19464 425.98334 367.84308Q425.5849 368.49152 424.78802 368.89777Q425.81927 369.19464 426.38177 369.92902Q426.94427 370.6634 426.94427 371.6634Q426.94427 372.4759 426.60052 373.1634Q426.25677 373.8509 425.75677 374.2259Q425.25677 374.6009 424.50677 374.7962Q423.75677 374.99152 422.66302 374.99152L418.28802 374.99152ZM419.80365 368.3509L422.28802 368.3509Q423.28802 368.3509 423.72552 368.21027Q424.30365 368.0384 424.60052 367.63995Q424.8974 367.24152 424.8974 366.64777Q424.8974 366.06964 424.62396 365.63995Q424.35052 365.21027 423.8427 365.0462Q423.3349 364.88214 422.10052 364.88214L419.80365 364.88214L419.80365 368.3509ZM419.80365 373.63214L422.66302 373.63214Q423.3974 373.63214 423.69427 373.58527Q424.2099 373.49152 424.56146 373.27277Q424.91302 373.05402 425.1396 372.63214Q425.36615 372.21027 425.36615 371.6634Q425.36615 371.02277 425.03802 370.55402Q424.7099 370.08527 424.13177 369.88995Q423.55365 369.69464 422.4599 369.69464L419.80365 369.69464L419.80365 373.63214ZM428.78802 378.19464L428.63177 376.86652Q429.0849 376.99152 429.42865 376.99152Q429.8974 376.99152 430.17865 376.83527Q430.4599 376.67902 430.6474 376.39777Q430.7724 376.19464 431.06927 375.3509Q431.11615 375.24152 431.19427 375.00714L428.05365 366.69464L429.56927 366.69464L431.28802 371.49152Q431.63177 372.4134 431.8974 373.4134Q432.13177 372.44464 432.47552 371.52277L434.24115 366.69464L435.6474 366.69464L432.49115 375.13214Q431.99115 376.50714 431.7099 377.02277Q431.3349 377.71027 430.85052 378.0384Q430.36615 378.36652 429.69427 378.36652Q429.28802 378.36652 428.78802 378.19464ZM439.91302 373.7259L440.11615 374.9759Q439.5224 375.1009 439.05365 375.1009Q438.28802 375.1009 437.86615 374.8587Q437.44427 374.61652 437.2724 374.21808Q437.10052 373.81964 437.10052 372.55402L437.10052 367.7884L436.06927 367.7884L436.06927 366.69464L437.10052 366.69464L437.10052 364.63214L438.50677 363.7884L438.50677 366.69464L439.91302 366.69464L439.91302 367.7884L438.50677 367.7884L438.50677 372.63214Q438.50677 373.24152 438.5771 373.4134Q438.6474 373.58527 438.81927 373.68683Q438.99115 373.7884 439.30365 373.7884Q439.53802 373.7884 439.91302 373.7259ZM446.9599 372.31964L448.41302 372.49152Q448.06927 373.77277 447.1396 374.4759Q446.2099 375.17902 444.7724 375.17902Q442.94427 375.17902 441.88177 374.05402Q440.81927 372.92902 440.81927 370.9134Q440.81927 368.81964 441.8974 367.6634Q442.97552 366.50714 444.69427 366.50714Q446.35052 366.50714 447.4052 367.63995Q448.4599 368.77277 448.4599 370.81964Q448.4599 370.94464 448.4599 371.19464L442.2724 371.19464Q442.35052 372.56964 443.04584 373.2962Q443.74115 374.02277 444.7724 374.02277Q445.55365 374.02277 446.10052 373.61652Q446.6474 373.21027 446.9599 372.31964ZM442.35052 370.0384L446.97552 370.0384Q446.88177 368.99152 446.44427 368.4759Q445.7724 367.6634 444.7099 367.6634Q443.74115 367.6634 443.0771 368.31183Q442.41302 368.96027 442.35052 370.0384ZM449.63177 372.50714L451.0224 372.2884Q451.13177 373.13214 451.67084 373.57745Q452.2099 374.02277 453.16302 374.02277Q454.13177 374.02277 454.60052 373.62433Q455.06927 373.2259 455.06927 372.69464Q455.06927 372.2259 454.66302 371.94464Q454.36615 371.75714 453.22552 371.4759Q451.67865 371.08527 451.0771 370.7962Q450.47552 370.50714 450.17084 370.00714Q449.86615 369.50714 449.86615 368.89777Q449.86615 368.33527 450.11615 367.86652Q450.36615 367.39777 450.80365 367.08527Q451.13177 366.83527 451.7021 366.6712Q452.2724 366.50714 452.91302 366.50714Q453.8974 366.50714 454.63177 366.7884Q455.36615 367.06964 455.7177 367.5462Q456.06927 368.02277 456.2099 368.83527L454.8349 369.02277Q454.74115 368.38214 454.28802 368.02277Q453.8349 367.6634 453.0224 367.6634Q452.05365 367.6634 451.6396 367.9837Q451.22552 368.30402 451.22552 368.7259Q451.22552 369.00714 451.3974 369.2259Q451.56927 369.44464 451.92865 369.6009Q452.1474 369.67902 453.17865 369.96027Q454.66302 370.3509 455.25677 370.6087Q455.85052 370.86652 456.18646 371.3509Q456.5224 371.83527 456.5224 372.55402Q456.5224 373.25714 456.10834 373.87433Q455.69427 374.49152 454.92084 374.83527Q454.1474 375.17902 453.17865 375.17902Q451.55365 375.17902 450.7099 374.50714Q449.86615 373.83527 449.63177 372.50714Z" fill-rule="nonzero" fill="#000000"></path><path d="M478.62103 338.9134L573.5502 338.9134L573.5502 381.0866L478.62103 381.0866Z" fill-rule="nonzero" fill="#cfe2f3" stroke="#073763" stroke-width="2.0" stroke-linejoin="round" stroke-linecap="butt"></path><path d="M492.18353 356.99152L492.18353 345.5384L496.51166 345.5384Q497.65228 345.5384 498.24603 345.64777Q499.08978 345.7884 499.6601 346.17902Q500.2304 346.56964 500.58197 347.28058Q500.93353 347.99152 500.93353 348.8509Q500.93353 350.30402 500.00385 351.31964Q499.07416 352.33527 496.63666 352.33527L493.69916 352.33527L493.69916 356.99152L492.18353 356.99152ZM493.69916 350.9759L496.6679 350.9759Q498.13666 350.9759 498.75385 350.42902Q499.37103 349.88214 499.37103 348.89777Q499.37103 348.17902 499.00385 347.6634Q498.63666 347.14777 498.0429 346.99152Q497.6679 346.88214 496.63666 346.88214L493.69916 346.88214L493.69916 350.9759ZM508.08978 355.96027Q507.30853 356.63214 506.58978 356.90558Q505.87103 357.17902 505.0429 357.17902Q503.6679 357.17902 502.93353 356.50714Q502.19916 355.83527 502.19916 354.80402Q502.19916 354.19464 502.4804 353.68683Q502.76166 353.17902 503.20697 352.87433Q503.65228 352.56964 504.21478 352.4134Q504.63666 352.30402 505.46478 352.21027Q507.1679 352.00714 507.9804 351.7259Q507.9804 351.42902 507.9804 351.3509Q507.9804 350.49152 507.58978 350.14777Q507.0429 349.6634 505.9804 349.6634Q504.99603 349.6634 504.51947 350.01495Q504.0429 350.36652 503.82416 351.24152L502.44916 351.05402Q502.63666 350.17902 503.06635 349.63214Q503.49603 349.08527 504.30853 348.7962Q505.12103 348.50714 506.18353 348.50714Q507.24603 348.50714 507.9101 348.75714Q508.57416 349.00714 508.88666 349.38214Q509.19916 349.75714 509.32416 350.33527Q509.40228 350.69464 509.40228 351.63214L509.40228 353.50714Q509.40228 355.4759 509.48822 355.99152Q509.57416 356.50714 509.83978 356.99152L508.37103 356.99152Q508.15228 356.55402 508.08978 355.96027ZM507.9804 352.81964Q507.21478 353.13214 505.68353 353.3509Q504.80853 353.4759 504.44916 353.63214Q504.08978 353.7884 503.89447 354.09308Q503.69916 354.39777 503.69916 354.75714Q503.69916 355.31964 504.12885 355.69464Q504.55853 356.06964 505.37103 356.06964Q506.18353 356.06964 506.81635 355.71808Q507.44916 355.36652 507.74603 354.74152Q507.9804 354.27277 507.9804 353.33527L507.9804 352.81964ZM511.02728 354.50714L512.4179 354.2884Q512.5273 355.13214 513.06635 355.57745Q513.6054 356.02277 514.55853 356.02277Q515.5273 356.02277 515.99603 355.62433Q516.4648 355.2259 516.4648 354.69464Q516.4648 354.2259 516.05853 353.94464Q515.76166 353.75714 514.62103 353.4759Q513.07416 353.08527 512.4726 352.7962Q511.87103 352.50714 511.56635 352.00714Q511.26166 351.50714 511.26166 350.89777Q511.26166 350.33527 511.51166 349.86652Q511.76166 349.39777 512.19916 349.08527Q512.5273 348.83527 513.0976 348.6712Q513.6679 348.50714 514.30853 348.50714Q515.2929 348.50714 516.0273 348.7884Q516.76166 349.06964 517.1132 349.5462Q517.4648 350.02277 517.6054 350.83527L516.2304 351.02277Q516.13666 350.38214 515.68353 350.02277Q515.2304 349.6634 514.4179 349.6634Q513.44916 349.6634 513.0351 349.9837Q512.62103 350.30402 512.62103 350.7259Q512.62103 351.00714 512.7929 351.2259Q512.9648 351.44464 513.32416 351.6009Q513.5429 351.67902 514.57416 351.96027Q516.05853 352.3509 516.6523 352.6087Q517.24603 352.86652 517.582 353.3509Q517.9179 353.83527 517.9179 354.55402Q517.9179 355.25714 517.50385 355.87433Q517.0898 356.49152 516.31635 356.83527Q515.5429 357.17902 514.57416 357.17902Q512.94916 357.17902 512.1054 356.50714Q511.26166 355.83527 511.02728 354.50714ZM519.0273 354.50714L520.4179 354.2884Q520.5273 355.13214 521.06635 355.57745Q521.6054 356.02277 522.55853 356.02277Q523.5273 356.02277 523.99603 355.62433Q524.4648 355.2259 524.4648 354.69464Q524.4648 354.2259 524.05853 353.94464Q523.76166 353.75714 522.62103 353.4759Q521.07416 353.08527 520.4726 352.7962Q519.87103 352.50714 519.56635 352.00714Q519.26166 351.50714 519.26166 350.89777Q519.26166 350.33527 519.51166 349.86652Q519.76166 349.39777 520.19916 349.08527Q520.5273 348.83527 521.0976 348.6712Q521.6679 348.50714 522.30853 348.50714Q523.2929 348.50714 524.0273 348.7884Q524.76166 349.06964 525.1132 349.5462Q525.4648 350.02277 525.6054 350.83527L524.2304 351.02277Q524.13666 350.38214 523.68353 350.02277Q523.2304 349.6634 522.4179 349.6634Q521.44916 349.6634 521.0351 349.9837Q520.62103 350.30402 520.62103 350.7259Q520.62103 351.00714 520.7929 351.2259Q520.9648 351.44464 521.32416 351.6009Q521.5429 351.67902 522.57416 351.96027Q524.05853 352.3509 524.6523 352.6087Q525.24603 352.86652 525.582 353.3509Q525.9179 353.83527 525.9179 354.55402Q525.9179 355.25714 525.50385 355.87433Q525.0898 356.49152 524.31635 356.83527Q523.5429 357.17902 522.57416 357.17902Q520.94916 357.17902 520.1054 356.50714Q519.26166 355.83527 519.0273 354.50714ZM529.12103 356.99152L526.57416 348.69464L528.0273 348.69464L529.3554 353.4759L529.8398 355.25714Q529.87103 355.13214 530.2773 353.55402L531.5898 348.69464L533.0429 348.69464L534.2773 353.50714L534.69916 355.08527L535.1679 353.49152L536.5898 348.69464L537.9648 348.69464L535.37103 356.99152L533.9023 356.99152L532.5898 352.02277L532.26166 350.6009L530.5898 356.99152L529.12103 356.99152ZM538.6054 352.83527Q538.6054 350.5384 539.88666 349.42902Q540.9648 348.50714 542.49603 348.50714Q544.2148 348.50714 545.3007 349.62433Q546.38666 350.74152 546.38666 352.7259Q546.38666 354.31964 545.9023 355.24152Q545.4179 356.1634 544.50385 356.6712Q543.5898 357.17902 542.49603 357.17902Q540.76166 357.17902 539.68353 356.06183Q538.6054 354.94464 538.6054 352.83527ZM540.05853 352.83527Q540.05853 354.42902 540.75385 355.2259Q541.44916 356.02277 542.49603 356.02277Q543.5429 356.02277 544.2382 355.2259Q544.93353 354.42902 544.93353 352.7884Q544.93353 351.25714 544.2382 350.46027Q543.5429 349.6634 542.49603 349.6634Q541.44916 349.6634 540.75385 350.45245Q540.05853 351.24152 540.05853 352.83527ZM548.0273 356.99152L548.0273 348.69464L549.2929 348.69464L549.2929 349.94464Q549.7773 349.06964 550.18353 348.7884Q550.5898 348.50714 551.0898 348.50714Q551.7929 348.50714 552.5273 348.96027L552.0429 350.25714Q551.5273 349.96027 551.01166 349.96027Q550.55853 349.96027 550.19135 350.2337Q549.82416 350.50714 549.6679 351.00714Q549.43353 351.75714 549.43353 352.64777L549.43353 356.99152L548.0273 356.99152ZM558.74603 356.99152L558.74603 355.94464Q557.9648 357.17902 556.43353 357.17902Q555.43353 357.17902 554.6054 356.63214Q553.7773 356.08527 553.31635 355.1009Q552.8554 354.11652 552.8554 352.8509Q552.8554 351.6009 553.2695 350.59308Q553.68353 349.58527 554.51166 349.0462Q555.3398 348.50714 556.37103 348.50714Q557.12103 348.50714 557.707 348.81964Q558.2929 349.13214 558.6523 349.64777L558.6523 345.5384L560.05853 345.5384L560.05853 356.99152L558.74603 356.99152ZM554.30853 352.8509Q554.30853 354.44464 554.9804 355.2337Q555.6523 356.02277 556.55853 356.02277Q557.4804 356.02277 558.12885 355.26495Q558.7773 354.50714 558.7773 352.96027Q558.7773 351.25714 558.12103 350.46027Q557.4648 349.6634 556.49603 349.6634Q555.55853 349.6634 554.93353 350.42902Q554.30853 351.19464 554.30853 352.8509Z" fill-rule="nonzero" fill="#000000"></path><path d="M499.96478 374.99152L502.99603 370.67902L500.18353 366.69464L501.94916 366.69464L503.21478 368.63214Q503.57416 369.19464 503.7929 369.56964Q504.13666 369.05402 504.43353 368.64777L505.82416 366.69464L507.51166 366.69464L504.63666 370.6009L507.7304 374.99152L505.99603 374.99152L504.2929 372.4134L503.83978 371.71027L501.6679 374.99152L499.96478 374.99152ZM513.4648 374.99152L513.4648 363.5384L517.76166 363.5384Q519.07416 363.5384 519.87103 363.88214Q520.6679 364.2259 521.1132 364.95245Q521.55853 365.67902 521.55853 366.46027Q521.55853 367.19464 521.1601 367.84308Q520.76166 368.49152 519.9648 368.89777Q520.99603 369.19464 521.55853 369.92902Q522.12103 370.6634 522.12103 371.6634Q522.12103 372.4759 521.7773 373.1634Q521.43353 373.8509 520.93353 374.2259Q520.43353 374.6009 519.68353 374.7962Q518.93353 374.99152 517.8398 374.99152L513.4648 374.99152ZM514.9804 368.3509L517.4648 368.3509Q518.4648 368.3509 518.9023 368.21027Q519.4804 368.0384 519.7773 367.63995Q520.07416 367.24152 520.07416 366.64777Q520.07416 366.06964 519.8007 365.63995Q519.5273 365.21027 519.0195 365.0462Q518.51166 364.88214 517.2773 364.88214L514.9804 364.88214L514.9804 368.3509ZM514.9804 373.63214L517.8398 373.63214Q518.57416 373.63214 518.87103 373.58527Q519.38666 373.49152 519.7382 373.27277Q520.0898 373.05402 520.31635 372.63214Q520.5429 372.21027 520.5429 371.6634Q520.5429 371.02277 520.2148 370.55402Q519.88666 370.08527 519.30853 369.88995Q518.7304 369.69464 517.63666 369.69464L514.9804 369.69464L514.9804 373.63214ZM523.9648 378.19464L523.80853 376.86652Q524.26166 376.99152 524.6054 376.99152Q525.07416 376.99152 525.3554 376.83527Q525.63666 376.67902 525.82416 376.39777Q525.94916 376.19464 526.24603 375.3509Q526.2929 375.24152 526.37103 375.00714L523.2304 366.69464L524.74603 366.69464L526.4648 371.49152Q526.80853 372.4134 527.07416 373.4134Q527.30853 372.44464 527.6523 371.52277L529.4179 366.69464L530.82416 366.69464L527.6679 375.13214Q527.1679 376.50714 526.88666 377.02277Q526.51166 377.71027 526.0273 378.0384Q525.5429 378.36652 524.87103 378.36652Q524.4648 378.36652 523.9648 378.19464ZM535.0898 373.7259L535.2929 374.9759Q534.69916 375.1009 534.2304 375.1009Q533.4648 375.1009 533.0429 374.8587Q532.62103 374.61652 532.44916 374.21808Q532.2773 373.81964 532.2773 372.55402L532.2773 367.7884L531.24603 367.7884L531.24603 366.69464L532.2773 366.69464L532.2773 364.63214L533.68353 363.7884L533.68353 366.69464L535.0898 366.69464L535.0898 367.7884L533.68353 367.7884L533.68353 372.63214Q533.68353 373.24152 533.75385 373.4134Q533.82416 373.58527 533.99603 373.68683Q534.1679 373.7884 534.4804 373.7884Q534.7148 373.7884 535.0898 373.7259ZM542.13666 372.31964L543.5898 372.49152Q543.24603 373.77277 542.31635 374.4759Q541.38666 375.17902 539.94916 375.17902Q538.12103 375.17902 537.05853 374.05402Q535.99603 372.92902 535.99603 370.9134Q535.99603 368.81964 537.07416 367.6634Q538.1523 366.50714 539.87103 366.50714Q541.5273 366.50714 542.582 367.63995Q543.63666 368.77277 543.63666 370.81964Q543.63666 370.94464 543.63666 371.19464L537.44916 371.19464Q537.5273 372.56964 538.2226 373.2962Q538.9179 374.02277 539.94916 374.02277Q540.7304 374.02277 541.2773 373.61652Q541.82416 373.21027 542.13666 372.31964ZM537.5273 370.0384L542.1523 370.0384Q542.05853 368.99152 541.62103 368.4759Q540.94916 367.6634 539.88666 367.6634Q538.9179 367.6634 538.25385 368.31183Q537.5898 368.96027 537.5273 370.0384ZM544.80853 372.50714L546.19916 372.2884Q546.30853 373.13214 546.8476 373.57745Q547.38666 374.02277 548.3398 374.02277Q549.30853 374.02277 549.7773 373.62433Q550.24603 373.2259 550.24603 372.69464Q550.24603 372.2259 549.8398 371.94464Q549.5429 371.75714 548.4023 371.4759Q546.8554 371.08527 546.25385 370.7962Q545.6523 370.50714 545.3476 370.00714Q545.0429 369.50714 545.0429 368.89777Q545.0429 368.33527 545.2929 367.86652Q545.5429 367.39777 545.9804 367.08527Q546.30853 366.83527 546.87885 366.6712Q547.44916 366.50714 548.0898 366.50714Q549.07416 366.50714 549.80853 366.7884Q550.5429 367.06964 550.8945 367.5462Q551.24603 368.02277 551.38666 368.83527L550.01166 369.02277Q549.9179 368.38214 549.4648 368.02277Q549.01166 367.6634 548.19916 367.6634Q547.2304 367.6634 546.81635 367.9837Q546.4023 368.30402 546.4023 368.7259Q546.4023 369.00714 546.57416 369.2259Q546.74603 369.44464 547.1054 369.6009Q547.32416 369.67902 548.3554 369.96027Q549.8398 370.3509 550.43353 370.6087Q551.0273 370.86652 551.3632 371.3509Q551.69916 371.83527 551.69916 372.55402Q551.69916 373.25714 551.2851 373.87433Q550.87103 374.49152 550.0976 374.83527Q549.32416 375.17902 548.3554 375.17902Q546.7304 375.17902 545.88666 374.50714Q545.0429 373.83527 544.80853 372.50714Z" fill-rule="nonzero" fill="#000000"></path><path d="M573.6407 338.9134L668.5698 338.9134L668.5698 381.0866L573.6407 381.0866Z" fill-rule="nonzero" fill="#cfe2f3" stroke="#073763" stroke-width="2.0" stroke-linejoin="round" stroke-linecap="butt"></path><path d="M592.4688 353.30402L593.9063 353.17902Q594.00006 354.0384 594.37506 354.59308Q594.75006 355.14777 595.5313 355.4837Q596.31256 355.81964 597.2813 355.81964Q598.1563 355.81964 598.8204 355.56183Q599.48444 355.30402 599.80475 354.8587Q600.12506 354.4134 600.12506 353.88214Q600.12506 353.33527 599.81256 352.93683Q599.50006 352.5384 598.7813 352.25714Q598.3282 352.08527 596.75006 351.70245Q595.17194 351.31964 594.5313 350.99152Q593.7188 350.55402 593.31256 349.9212Q592.9063 349.2884 592.9063 348.49152Q592.9063 347.63214 593.3985 346.87433Q593.8907 346.11652 594.836 345.7259Q595.7813 345.33527 596.93756 345.33527Q598.2188 345.33527 599.18756 345.74933Q600.1563 346.1634 600.67975 346.96027Q601.2032 347.75714 601.25006 348.75714L599.79694 348.86652Q599.67194 347.7884 599.00006 347.2337Q598.3282 346.67902 597.00006 346.67902Q595.62506 346.67902 595.00006 347.17902Q594.37506 347.67902 594.37506 348.39777Q594.37506 349.00714 594.81256 349.4134Q595.25006 349.80402 597.1016 350.2259Q598.9532 350.64777 599.6407 350.96027Q600.6407 351.4134 601.11725 352.12433Q601.5938 352.83527 601.5938 353.75714Q601.5938 354.6634 601.0704 355.4759Q600.54694 356.2884 599.56256 356.74152Q598.5782 357.19464 597.35944 357.19464Q595.79694 357.19464 594.75006 356.7337Q593.7032 356.27277 593.1016 355.36652Q592.50006 354.46027 592.4688 353.30402ZM608.8907 353.94464L610.2813 354.13214Q610.04694 355.55402 609.11725 356.36652Q608.18756 357.17902 606.8282 357.17902Q605.12506 357.17902 604.086 356.06183Q603.04694 354.94464 603.04694 352.86652Q603.04694 351.52277 603.49225 350.51495Q603.93756 349.50714 604.8516 349.00714Q605.7657 348.50714 606.8282 348.50714Q608.18756 348.50714 609.04694 349.18683Q609.9063 349.86652 610.1407 351.13214L608.7813 351.33527Q608.5782 350.50714 608.086 350.08527Q607.5938 349.6634 606.8907 349.6634Q605.8282 349.6634 605.1641 350.4212Q604.50006 351.17902 604.50006 352.83527Q604.50006 354.50714 605.1407 355.26495Q605.7813 356.02277 606.81256 356.02277Q607.6407 356.02277 608.1954 355.51495Q608.75006 355.00714 608.8907 353.94464ZM611.48444 356.99152L611.48444 345.5384L612.8907 345.5384L612.8907 349.64777Q613.87506 348.50714 615.37506 348.50714Q616.29694 348.50714 616.9766 348.86652Q617.6563 349.2259 617.9454 349.86652Q618.23444 350.50714 618.23444 351.7259L618.23444 356.99152L616.8282 356.99152L616.8282 351.7259Q616.8282 350.67902 616.37506 350.19464Q615.92194 349.71027 615.0782 349.71027Q614.4532 349.71027 613.9063 350.0384Q613.35944 350.36652 613.12506 350.9212Q612.8907 351.4759 612.8907 352.44464L612.8907 356.99152L611.48444 356.99152ZM626.04694 354.31964L627.50006 354.49152Q627.1563 355.77277 626.2266 356.4759Q625.29694 357.17902 623.85944 357.17902Q622.0313 357.17902 620.9688 356.05402Q619.9063 354.92902 619.9063 352.9134Q619.9063 350.81964 620.98444 349.6634Q622.06256 348.50714 623.7813 348.50714Q625.43756 348.50714 626.49225 349.63995Q627.54694 350.77277 627.54694 352.81964Q627.54694 352.94464 627.54694 353.19464L621.35944 353.19464Q621.43756 354.56964 622.1329 355.2962Q622.8282 356.02277 623.85944 356.02277Q624.6407 356.02277 625.18756 355.61652Q625.73444 355.21027 626.04694 354.31964ZM621.43756 352.0384L626.06256 352.0384Q625.9688 350.99152 625.5313 350.4759Q624.85944 349.6634 623.79694 349.6634Q622.8282 349.6634 622.1641 350.31183Q621.50006 350.96027 621.43756 352.0384ZM629.2813 356.99152L629.2813 348.69464L630.5313 348.69464L630.5313 349.8509Q630.92194 349.24152 631.5704 348.87433Q632.2188 348.50714 633.04694 348.50714Q633.9688 348.50714 634.56256 348.88995Q635.1563 349.27277 635.3907 349.96027Q636.37506 348.50714 637.9532 348.50714Q639.18756 348.50714 639.8516 349.18683Q640.5157 349.86652 640.5157 351.2884L640.5157 356.99152L639.12506 356.99152L639.12506 351.75714Q639.12506 350.9134 638.98444 350.5462Q638.8438 350.17902 638.48444 349.95245Q638.12506 349.7259 637.6407 349.7259Q636.7657 349.7259 636.18756 350.30402Q635.60944 350.88214 635.60944 352.1634L635.60944 356.99152L634.2032 356.99152L634.2032 351.6009Q634.2032 350.6634 633.85944 350.19464Q633.5157 349.7259 632.73444 349.7259Q632.1407 349.7259 631.6407 350.0384Q631.1407 350.3509 630.9141 350.95245Q630.68756 351.55402 630.68756 352.67902L630.68756 356.99152L629.2813 356.99152ZM648.2813 354.31964L649.73444 354.49152Q649.3907 355.77277 648.461 356.4759Q647.5313 357.17902 646.0938 357.17902Q644.2657 357.17902 643.2032 356.05402Q642.1407 354.92902 642.1407 352.9134Q642.1407 350.81964 643.2188 349.6634Q644.29694 348.50714 646.0157 348.50714Q647.67194 348.50714 648.7266 349.63995Q649.7813 350.77277 649.7813 352.81964Q649.7813 352.94464 649.7813 353.19464L643.5938 353.19464Q643.67194 354.56964 644.36725 355.2962Q645.06256 356.02277 646.0938 356.02277Q646.87506 356.02277 647.42194 355.61652Q647.9688 355.21027 648.2813 354.31964ZM643.67194 352.0384L648.29694 352.0384Q648.2032 350.99152 647.7657 350.4759Q647.0938 349.6634 646.0313 349.6634Q645.06256 349.6634 644.3985 350.31183Q643.73444 350.96027 643.67194 352.0384Z" fill-rule="nonzero" fill="#000000"></path><path d="M594.98444 374.99152L598.0157 370.67902L595.2032 366.69464L596.9688 366.69464L598.23444 368.63214Q598.5938 369.19464 598.81256 369.56964Q599.1563 369.05402 599.4532 368.64777L600.8438 366.69464L602.5313 366.69464L599.6563 370.6009L602.75006 374.99152L601.0157 374.99152L599.31256 372.4134L598.85944 371.71027L596.68756 374.99152L594.98444 374.99152ZM608.48444 374.99152L608.48444 363.5384L612.7813 363.5384Q614.0938 363.5384 614.8907 363.88214Q615.68756 364.2259 616.1329 364.95245Q616.5782 365.67902 616.5782 366.46027Q616.5782 367.19464 616.17975 367.84308Q615.7813 368.49152 614.98444 368.89777Q616.0157 369.19464 616.5782 369.92902Q617.1407 370.6634 617.1407 371.6634Q617.1407 372.4759 616.79694 373.1634Q616.4532 373.8509 615.9532 374.2259Q615.4532 374.6009 614.7032 374.7962Q613.9532 374.99152 612.85944 374.99152L608.48444 374.99152ZM610.00006 368.3509L612.48444 368.3509Q613.48444 368.3509 613.92194 368.21027Q614.50006 368.0384 614.79694 367.63995Q615.0938 367.24152 615.0938 366.64777Q615.0938 366.06964 614.8204 365.63995Q614.54694 365.21027 614.0391 365.0462Q613.5313 364.88214 612.29694 364.88214L610.00006 364.88214L610.00006 368.3509ZM610.00006 373.63214L612.85944 373.63214Q613.5938 373.63214 613.8907 373.58527Q614.4063 373.49152 614.7579 373.27277Q615.10944 373.05402 615.336 372.63214Q615.56256 372.21027 615.56256 371.6634Q615.56256 371.02277 615.23444 370.55402Q614.9063 370.08527 614.3282 369.88995Q613.75006 369.69464 612.6563 369.69464L610.00006 369.69464L610.00006 373.63214ZM618.98444 378.19464L618.8282 376.86652Q619.2813 376.99152 619.62506 376.99152Q620.0938 376.99152 620.37506 376.83527Q620.6563 376.67902 620.8438 376.39777Q620.9688 376.19464 621.2657 375.3509Q621.31256 375.24152 621.3907 375.00714L618.25006 366.69464L619.7657 366.69464L621.48444 371.49152Q621.8282 372.4134 622.0938 373.4134Q622.3282 372.44464 622.67194 371.52277L624.43756 366.69464L625.8438 366.69464L622.68756 375.13214Q622.18756 376.50714 621.9063 377.02277Q621.5313 377.71027 621.04694 378.0384Q620.56256 378.36652 619.8907 378.36652Q619.48444 378.36652 618.98444 378.19464ZM630.10944 373.7259L630.31256 374.9759Q629.7188 375.1009 629.25006 375.1009Q628.48444 375.1009 628.06256 374.8587Q627.6407 374.61652 627.4688 374.21808Q627.29694 373.81964 627.29694 372.55402L627.29694 367.7884L626.2657 367.7884L626.2657 366.69464L627.29694 366.69464L627.29694 364.63214L628.7032 363.7884L628.7032 366.69464L630.10944 366.69464L630.10944 367.7884L628.7032 367.7884L628.7032 372.63214Q628.7032 373.24152 628.7735 373.4134Q628.8438 373.58527 629.0157 373.68683Q629.18756 373.7884 629.50006 373.7884Q629.73444 373.7884 630.10944 373.7259ZM637.1563 372.31964L638.60944 372.49152Q638.2657 373.77277 637.336 374.4759Q636.4063 375.17902 634.9688 375.17902Q633.1407 375.17902 632.0782 374.05402Q631.0157 372.92902 631.0157 370.9134Q631.0157 368.81964 632.0938 367.6634Q633.17194 366.50714 634.8907 366.50714Q636.54694 366.50714 637.6016 367.63995Q638.6563 368.77277 638.6563 370.81964Q638.6563 370.94464 638.6563 371.19464L632.4688 371.19464Q632.54694 372.56964 633.24225 373.2962Q633.93756 374.02277 634.9688 374.02277Q635.75006 374.02277 636.29694 373.61652Q636.8438 373.21027 637.1563 372.31964ZM632.54694 370.0384L637.17194 370.0384Q637.0782 368.99152 636.6407 368.4759Q635.9688 367.6634 634.9063 367.6634Q633.93756 367.6634 633.2735 368.31183Q632.60944 368.96027 632.54694 370.0384ZM639.8282 372.50714L641.2188 372.2884Q641.3282 373.13214 641.86725 373.57745Q642.4063 374.02277 643.35944 374.02277Q644.3282 374.02277 644.79694 373.62433Q645.2657 373.2259 645.2657 372.69464Q645.2657 372.2259 644.85944 371.94464Q644.56256 371.75714 643.42194 371.4759Q641.87506 371.08527 641.2735 370.7962Q640.67194 370.50714 640.36725 370.00714Q640.06256 369.50714 640.06256 368.89777Q640.06256 368.33527 640.31256 367.86652Q640.56256 367.39777 641.00006 367.08527Q641.3282 366.83527 641.8985 366.6712Q642.4688 366.50714 643.10944 366.50714Q644.0938 366.50714 644.8282 366.7884Q645.56256 367.06964 645.9141 367.5462Q646.2657 368.02277 646.4063 368.83527L645.0313 369.02277Q644.93756 368.38214 644.48444 368.02277Q644.0313 367.6634 643.2188 367.6634Q642.25006 367.6634 641.836 367.9837Q641.42194 368.30402 641.42194 368.7259Q641.42194 369.00714 641.5938 369.2259Q641.7657 369.44464 642.12506 369.6009Q642.3438 369.67902 643.37506 369.96027Q644.85944 370.3509 645.4532 370.6087Q646.04694 370.86652 646.3829 371.3509Q646.7188 371.83527 646.7188 372.55402Q646.7188 373.25714 646.30475 373.87433Q645.8907 374.49152 645.11725 374.83527Q644.3438 375.17902 643.37506 375.17902Q641.75006 375.17902 640.9063 374.50714Q640.06256 373.83527 639.8282 372.50714Z" fill-rule="nonzero" fill="#000000"></path><path d="M668.66034 338.9134L763.5895 338.9134L763.5895 381.0866L668.66034 381.0866Z" fill-rule="nonzero" fill="#cfe2f3" stroke="#073763" stroke-width="2.0" stroke-linejoin="round" stroke-linecap="butt"></path><path d="M680.9416 356.99152L680.9416 345.5384L682.4572 345.5384L682.4572 350.24152L688.41034 350.24152L688.41034 345.5384L689.92596 345.5384L689.92596 356.99152L688.41034 356.99152L688.41034 351.58527L682.4572 351.58527L682.4572 356.99152L680.9416 356.99152ZM691.73846 352.83527Q691.73846 350.5384 693.0197 349.42902Q694.09784 348.50714 695.6291 348.50714Q697.34784 348.50714 698.4338 349.62433Q699.5197 350.74152 699.5197 352.7259Q699.5197 354.31964 699.03534 355.24152Q698.55096 356.1634 697.6369 356.6712Q696.72284 357.17902 695.6291 357.17902Q693.8947 357.17902 692.8166 356.06183Q691.73846 354.94464 691.73846 352.83527ZM693.1916 352.83527Q693.1916 354.42902 693.8869 355.2259Q694.5822 356.02277 695.6291 356.02277Q696.67596 356.02277 697.3713 355.2259Q698.0666 354.42902 698.0666 352.7884Q698.0666 351.25714 697.3713 350.46027Q696.67596 349.6634 695.6291 349.6634Q694.5822 349.6634 693.8869 350.45245Q693.1916 351.24152 693.1916 352.83527ZM700.61346 354.50714L702.0041 354.2884Q702.11346 355.13214 702.6525 355.57745Q703.1916 356.02277 704.1447 356.02277Q705.11346 356.02277 705.5822 355.62433Q706.05096 355.2259 706.05096 354.69464Q706.05096 354.2259 705.6447 353.94464Q705.34784 353.75714 704.2072 353.4759Q702.66034 353.08527 702.0588 352.7962Q701.4572 352.50714 701.1525 352.00714Q700.84784 351.50714 700.84784 350.89777Q700.84784 350.33527 701.09784 349.86652Q701.34784 349.39777 701.78534 349.08527Q702.11346 348.83527 702.6838 348.6712Q703.2541 348.50714 703.8947 348.50714Q704.8791 348.50714 705.61346 348.7884Q706.34784 349.06964 706.6994 349.5462Q707.05096 350.02277 707.1916 350.83527L705.8166 351.02277Q705.72284 350.38214 705.2697 350.02277Q704.8166 349.6634 704.0041 349.6634Q703.03534 349.6634 702.6213 349.9837Q702.2072 350.30402 702.2072 350.7259Q702.2072 351.00714 702.3791 351.2259Q702.55096 351.44464 702.91034 351.6009Q703.1291 351.67902 704.16034 351.96027Q705.6447 352.3509 706.23846 352.6087Q706.8322 352.86652 707.16815 353.3509Q707.5041 353.83527 707.5041 354.55402Q707.5041 355.25714 707.09 355.87433Q706.67596 356.49152 705.9025 356.83527Q705.1291 357.17902 704.16034 357.17902Q702.53534 357.17902 701.6916 356.50714Q700.84784 355.83527 700.61346 354.50714ZM712.23846 355.7259L712.4416 356.9759Q711.84784 357.1009 711.3791 357.1009Q710.61346 357.1009 710.1916 356.8587Q709.7697 356.61652 709.59784 356.21808Q709.42596 355.81964 709.42596 354.55402L709.42596 349.7884L708.3947 349.7884L708.3947 348.69464L709.42596 348.69464L709.42596 346.63214L710.8322 345.7884L710.8322 348.69464L712.23846 348.69464L712.23846 349.7884L710.8322 349.7884L710.8322 354.63214Q710.8322 355.24152 710.9025 355.4134Q710.97284 355.58527 711.1447 355.68683Q711.3166 355.7884 711.6291 355.7884Q711.86346 355.7884 712.23846 355.7259ZM713.61346 356.99152L713.61346 348.69464L714.8791 348.69464L714.8791 349.86652Q715.78534 348.50714 717.5197 348.50714Q718.2697 348.50714 718.8947 348.77277Q719.5197 349.0384 719.8322 349.4759Q720.1447 349.9134 720.2697 350.52277Q720.34784 350.9134 720.34784 351.88214L720.34784 356.99152L718.9416 356.99152L718.9416 351.94464Q718.9416 351.08527 718.7775 350.65558Q718.61346 350.2259 718.1994 349.9759Q717.78534 349.7259 717.22284 349.7259Q716.3166 349.7259 715.66815 350.2962Q715.0197 350.86652 715.0197 352.46027L715.0197 356.99152L713.61346 356.99152ZM727.92596 355.96027Q727.1447 356.63214 726.42596 356.90558Q725.7072 357.17902 724.8791 357.17902Q723.5041 357.17902 722.7697 356.50714Q722.03534 355.83527 722.03534 354.80402Q722.03534 354.19464 722.3166 353.68683Q722.59784 353.17902 723.04315 352.87433Q723.48846 352.56964 724.05096 352.4134Q724.47284 352.30402 725.30096 352.21027Q727.0041 352.00714 727.8166 351.7259Q727.8166 351.42902 727.8166 351.3509Q727.8166 350.49152 727.42596 350.14777Q726.8791 349.6634 725.8166 349.6634Q724.8322 349.6634 724.35565 350.01495Q723.8791 350.36652 723.66034 351.24152L722.28534 351.05402Q722.47284 350.17902 722.9025 349.63214Q723.3322 349.08527 724.1447 348.7962Q724.9572 348.50714 726.0197 348.50714Q727.0822 348.50714 727.7463 348.75714Q728.41034 349.00714 728.72284 349.38214Q729.03534 349.75714 729.16034 350.33527Q729.23846 350.69464 729.23846 351.63214L729.23846 353.50714Q729.23846 355.4759 729.3244 355.99152Q729.41034 356.50714 729.67596 356.99152L728.2072 356.99152Q727.98846 356.55402 727.92596 355.96027ZM727.8166 352.81964Q727.05096 353.13214 725.5197 353.3509Q724.6447 353.4759 724.28534 353.63214Q723.92596 353.7884 723.73065 354.09308Q723.53534 354.39777 723.53534 354.75714Q723.53534 355.31964 723.965 355.69464Q724.3947 356.06964 725.2072 356.06964Q726.0197 356.06964 726.6525 355.71808Q727.28534 355.36652 727.5822 354.74152Q727.8166 354.27277 727.8166 353.33527L727.8166 352.81964ZM731.41034 356.99152L731.41034 348.69464L732.66034 348.69464L732.66034 349.8509Q733.05096 349.24152 733.6994 348.87433Q734.34784 348.50714 735.17596 348.50714Q736.09784 348.50714 736.6916 348.88995Q737.28534 349.27277 737.5197 349.96027Q738.5041 348.50714 740.0822 348.50714Q741.3166 348.50714 741.98065 349.18683Q742.6447 349.86652 742.6447 351.2884L742.6447 356.99152L741.2541 356.99152L741.2541 351.75714Q741.2541 350.9134 741.11346 350.5462Q740.97284 350.17902 740.61346 349.95245Q740.2541 349.7259 739.7697 349.7259Q738.8947 349.7259 738.3166 350.30402Q737.73846 350.88214 737.73846 352.1634L737.73846 356.99152L736.3322 356.99152L736.3322 351.6009Q736.3322 350.6634 735.98846 350.19464Q735.6447 349.7259 734.86346 349.7259Q734.2697 349.7259 733.7697 350.0384Q733.2697 350.3509 733.04315 350.95245Q732.8166 351.55402 732.8166 352.67902L732.8166 356.99152L731.41034 356.99152ZM750.41034 354.31964L751.86346 354.49152Q751.5197 355.77277 750.59 356.4759Q749.66034 357.17902 748.22284 357.17902Q746.3947 357.17902 745.3322 356.05402Q744.2697 354.92902 744.2697 352.9134Q744.2697 350.81964 745.34784 349.6634Q746.42596 348.50714 748.1447 348.50714Q749.80096 348.50714 750.85565 349.63995Q751.91034 350.77277 751.91034 352.81964Q751.91034 352.94464 751.91034 353.19464L745.72284 353.19464Q745.80096 354.56964 746.4963 355.2962Q747.1916 356.02277 748.22284 356.02277Q749.0041 356.02277 749.55096 355.61652Q750.09784 355.21027 750.41034 354.31964ZM745.80096 352.0384L750.42596 352.0384Q750.3322 350.99152 749.8947 350.4759Q749.22284 349.6634 748.16034 349.6634Q747.1916 349.6634 746.5275 350.31183Q745.86346 350.96027 745.80096 352.0384Z" fill-rule="nonzero" fill="#000000"></path><path d="M690.0041 374.99152L693.03534 370.67902L690.22284 366.69464L691.98846 366.69464L693.2541 368.63214Q693.61346 369.19464 693.8322 369.56964Q694.17596 369.05402 694.47284 368.64777L695.86346 366.69464L697.55096 366.69464L694.67596 370.6009L697.7697 374.99152L696.03534 374.99152L694.3322 372.4134L693.8791 371.71027L691.7072 374.99152L690.0041 374.99152ZM703.5041 374.99152L703.5041 363.5384L707.80096 363.5384Q709.11346 363.5384 709.91034 363.88214Q710.7072 364.2259 711.1525 364.95245Q711.59784 365.67902 711.59784 366.46027Q711.59784 367.19464 711.1994 367.84308Q710.80096 368.49152 710.0041 368.89777Q711.03534 369.19464 711.59784 369.92902Q712.16034 370.6634 712.16034 371.6634Q712.16034 372.4759 711.8166 373.1634Q711.47284 373.8509 710.97284 374.2259Q710.47284 374.6009 709.72284 374.7962Q708.97284 374.99152 707.8791 374.99152L703.5041 374.99152ZM705.0197 368.3509L707.5041 368.3509Q708.5041 368.3509 708.9416 368.21027Q709.5197 368.0384 709.8166 367.63995Q710.11346 367.24152 710.11346 366.64777Q710.11346 366.06964 709.84 365.63995Q709.5666 365.21027 709.0588 365.0462Q708.55096 364.88214 707.3166 364.88214L705.0197 364.88214L705.0197 368.3509ZM705.0197 373.63214L707.8791 373.63214Q708.61346 373.63214 708.91034 373.58527Q709.42596 373.49152 709.7775 373.27277Q710.1291 373.05402 710.35565 372.63214Q710.5822 372.21027 710.5822 371.6634Q710.5822 371.02277 710.2541 370.55402Q709.92596 370.08527 709.34784 369.88995Q708.7697 369.69464 707.67596 369.69464L705.0197 369.69464L705.0197 373.63214ZM714.0041 378.19464L713.84784 376.86652Q714.30096 376.99152 714.6447 376.99152Q715.11346 376.99152 715.3947 376.83527Q715.67596 376.67902 715.86346 376.39777Q715.98846 376.19464 716.28534 375.3509Q716.3322 375.24152 716.41034 375.00714L713.2697 366.69464L714.78534 366.69464L716.5041 371.49152Q716.84784 372.4134 717.11346 373.4134Q717.34784 372.44464 717.6916 371.52277L719.4572 366.69464L720.86346 366.69464L717.7072 375.13214Q717.2072 376.50714 716.92596 377.02277Q716.55096 377.71027 716.0666 378.0384Q715.5822 378.36652 714.91034 378.36652Q714.5041 378.36652 714.0041 378.19464ZM725.1291 373.7259L725.3322 374.9759Q724.73846 375.1009 724.2697 375.1009Q723.5041 375.1009 723.0822 374.8587Q722.66034 374.61652 722.48846 374.21808Q722.3166 373.81964 722.3166 372.55402L722.3166 367.7884L721.28534 367.7884L721.28534 366.69464L722.3166 366.69464L722.3166 364.63214L723.72284 363.7884L723.72284 366.69464L725.1291 366.69464L725.1291 367.7884L723.72284 367.7884L723.72284 372.63214Q723.72284 373.24152 723.79315 373.4134Q723.86346 373.58527 724.03534 373.68683Q724.2072 373.7884 724.5197 373.7884Q724.7541 373.7884 725.1291 373.7259ZM732.17596 372.31964L733.6291 372.49152Q733.28534 373.77277 732.35565 374.4759Q731.42596 375.17902 729.98846 375.17902Q728.16034 375.17902 727.09784 374.05402Q726.03534 372.92902 726.03534 370.9134Q726.03534 368.81964 727.11346 367.6634Q728.1916 366.50714 729.91034 366.50714Q731.5666 366.50714 732.6213 367.63995Q733.67596 368.77277 733.67596 370.81964Q733.67596 370.94464 733.67596 371.19464L727.48846 371.19464Q727.5666 372.56964 728.2619 373.2962Q728.9572 374.02277 729.98846 374.02277Q730.7697 374.02277 731.3166 373.61652Q731.86346 373.21027 732.17596 372.31964ZM727.5666 370.0384L732.1916 370.0384Q732.09784 368.99152 731.66034 368.4759Q730.98846 367.6634 729.92596 367.6634Q728.9572 367.6634 728.29315 368.31183Q727.6291 368.96027 727.5666 370.0384ZM734.84784 372.50714L736.23846 372.2884Q736.34784 373.13214 736.8869 373.57745Q737.42596 374.02277 738.3791 374.02277Q739.34784 374.02277 739.8166 373.62433Q740.28534 373.2259 740.28534 372.69464Q740.28534 372.2259 739.8791 371.94464Q739.5822 371.75714 738.4416 371.4759Q736.8947 371.08527 736.29315 370.7962Q735.6916 370.50714 735.3869 370.00714Q735.0822 369.50714 735.0822 368.89777Q735.0822 368.33527 735.3322 367.86652Q735.5822 367.39777 736.0197 367.08527Q736.34784 366.83527 736.91815 366.6712Q737.48846 366.50714 738.1291 366.50714Q739.11346 366.50714 739.84784 366.7884Q740.5822 367.06964 740.9338 367.5462Q741.28534 368.02277 741.42596 368.83527L740.05096 369.02277Q739.9572 368.38214 739.5041 368.02277Q739.05096 367.6634 738.23846 367.6634Q737.2697 367.6634 736.85565 367.9837Q736.4416 368.30402 736.4416 368.7259Q736.4416 369.00714 736.61346 369.2259Q736.78534 369.44464 737.1447 369.6009Q737.36346 369.67902 738.3947 369.96027Q739.8791 370.3509 740.47284 370.6087Q741.0666 370.86652 741.4025 371.3509Q741.73846 371.83527 741.73846 372.55402Q741.73846 373.25714 741.3244 373.87433Q740.91034 374.49152 740.1369 374.83527Q739.36346 375.17902 738.3947 375.17902Q736.7697 375.17902 735.92596 374.50714Q735.0822 373.83527 734.84784 372.50714Z" fill-rule="nonzero" fill="#000000"></path><path d="M763.18976 338.9134L836.5441 338.9134L836.5441 381.0866L763.18976 381.0866Z" fill-rule="nonzero" fill="#cfe2f3" stroke="#073763" stroke-width="2.0" stroke-linejoin="round" stroke-linecap="butt"></path><path d="M786.42413 356.99152L786.42413 345.5384L790.75226 345.5384Q791.8929 345.5384 792.48663 345.64777Q793.3304 345.7884 793.9007 346.17902Q794.471 346.56964 794.8226 347.28058Q795.17413 347.99152 795.17413 348.8509Q795.17413 350.30402 794.24445 351.31964Q793.31476 352.33527 790.87726 352.33527L787.93976 352.33527L787.93976 356.99152L786.42413 356.99152ZM787.93976 350.9759L790.9085 350.9759Q792.37726 350.9759 792.99445 350.42902Q793.61163 349.88214 793.61163 348.89777Q793.61163 348.17902 793.24445 347.6634Q792.87726 347.14777 792.2835 346.99152Q791.9085 346.88214 790.87726 346.88214L787.93976 346.88214L787.93976 350.9759ZM796.3929 352.83527Q796.3929 350.5384 797.67413 349.42902Q798.75226 348.50714 800.2835 348.50714Q802.00226 348.50714 803.0882 349.62433Q804.17413 350.74152 804.17413 352.7259Q804.17413 354.31964 803.68976 355.24152Q803.2054 356.1634 802.2913 356.6712Q801.37726 357.17902 800.2835 357.17902Q798.54913 357.17902 797.471 356.06183Q796.3929 354.94464 796.3929 352.83527ZM797.846 352.83527Q797.846 354.42902 798.5413 355.2259Q799.23663 356.02277 800.2835 356.02277Q801.3304 356.02277 802.0257 355.2259Q802.721 354.42902 802.721 352.7884Q802.721 351.25714 802.0257 350.46027Q801.3304 349.6634 800.2835 349.6634Q799.23663 349.6634 798.5413 350.45245Q797.846 351.24152 797.846 352.83527ZM805.79913 356.99152L805.79913 348.69464L807.06476 348.69464L807.06476 349.94464Q807.54913 349.06964 807.9554 348.7884Q808.36163 348.50714 808.86163 348.50714Q809.56476 348.50714 810.29913 348.96027L809.81476 350.25714Q809.29913 349.96027 808.7835 349.96027Q808.3304 349.96027 807.9632 350.2337Q807.596 350.50714 807.43976 351.00714Q807.2054 351.75714 807.2054 352.64777L807.2054 356.99152L805.79913 356.99152ZM814.2054 355.7259L814.4085 356.9759Q813.81476 357.1009 813.346 357.1009Q812.5804 357.1009 812.1585 356.8587Q811.73663 356.61652 811.56476 356.21808Q811.3929 355.81964 811.3929 354.55402L811.3929 349.7884L810.36163 349.7884L810.36163 348.69464L811.3929 348.69464L811.3929 346.63214L812.79913 345.7884L812.79913 348.69464L814.2054 348.69464L814.2054 349.7884L812.79913 349.7884L812.79913 354.63214Q812.79913 355.24152 812.86945 355.4134Q812.93976 355.58527 813.11163 355.68683Q813.2835 355.7884 813.596 355.7884Q813.8304 355.7884 814.2054 355.7259Z" fill-rule="nonzero" fill="#000000"></path><path d="M773.75226 374.99152L776.7835 370.67902L773.971 366.69464L775.73663 366.69464L777.00226 368.63214Q777.36163 369.19464 777.5804 369.56964Q777.92413 369.05402 778.221 368.64777L779.61163 366.69464L781.29913 366.69464L778.42413 370.6009L781.5179 374.99152L779.7835 374.99152L778.0804 372.4134L777.62726 371.71027L775.4554 374.99152L773.75226 374.99152ZM787.25226 374.99152L787.25226 363.5384L791.54913 363.5384Q792.86163 363.5384 793.6585 363.88214Q794.4554 364.2259 794.9007 364.95245Q795.346 365.67902 795.346 366.46027Q795.346 367.19464 794.9476 367.84308Q794.54913 368.49152 793.75226 368.89777Q794.7835 369.19464 795.346 369.92902Q795.9085 370.6634 795.9085 371.6634Q795.9085 372.4759 795.56476 373.1634Q795.221 373.8509 794.721 374.2259Q794.221 374.6009 793.471 374.7962Q792.721 374.99152 791.62726 374.99152L787.25226 374.99152ZM788.7679 368.3509L791.25226 368.3509Q792.25226 368.3509 792.68976 368.21027Q793.2679 368.0384 793.56476 367.63995Q793.86163 367.24152 793.86163 366.64777Q793.86163 366.06964 793.5882 365.63995Q793.31476 365.21027 792.80695 365.0462Q792.29913 364.88214 791.06476 364.88214L788.7679 364.88214L788.7679 368.3509ZM788.7679 373.63214L791.62726 373.63214Q792.36163 373.63214 792.6585 373.58527Q793.17413 373.49152 793.5257 373.27277Q793.87726 373.05402 794.1038 372.63214Q794.3304 372.21027 794.3304 371.6634Q794.3304 371.02277 794.00226 370.55402Q793.67413 370.08527 793.096 369.88995Q792.5179 369.69464 791.42413 369.69464L788.7679 369.69464L788.7679 373.63214ZM797.75226 378.19464L797.596 376.86652Q798.04913 376.99152 798.3929 376.99152Q798.86163 376.99152 799.1429 376.83527Q799.42413 376.67902 799.61163 376.39777Q799.73663 376.19464 800.0335 375.3509Q800.0804 375.24152 800.1585 375.00714L797.0179 366.69464L798.5335 366.69464L800.25226 371.49152Q800.596 372.4134 800.86163 373.4134Q801.096 372.44464 801.43976 371.52277L803.2054 366.69464L804.61163 366.69464L801.4554 375.13214Q800.9554 376.50714 800.67413 377.02277Q800.29913 377.71027 799.81476 378.0384Q799.3304 378.36652 798.6585 378.36652Q798.25226 378.36652 797.75226 378.19464ZM808.87726 373.7259L809.0804 374.9759Q808.48663 375.1009 808.0179 375.1009Q807.25226 375.1009 806.8304 374.8587Q806.4085 374.61652 806.23663 374.21808Q806.06476 373.81964 806.06476 372.55402L806.06476 367.7884L805.0335 367.7884L805.0335 366.69464L806.06476 366.69464L806.06476 364.63214L807.471 363.7884L807.471 366.69464L808.87726 366.69464L808.87726 367.7884L807.471 367.7884L807.471 372.63214Q807.471 373.24152 807.5413 373.4134Q807.61163 373.58527 807.7835 373.68683Q807.9554 373.7884 808.2679 373.7884Q808.50226 373.7884 808.87726 373.7259ZM815.92413 372.31964L817.37726 372.49152Q817.0335 373.77277 816.1038 374.4759Q815.17413 375.17902 813.73663 375.17902Q811.9085 375.17902 810.846 374.05402Q809.7835 372.92902 809.7835 370.9134Q809.7835 368.81964 810.86163 367.6634Q811.93976 366.50714 813.6585 366.50714Q815.31476 366.50714 816.36945 367.63995Q817.42413 368.77277 817.42413 370.81964Q817.42413 370.94464 817.42413 371.19464L811.23663 371.19464Q811.31476 372.56964 812.0101 373.2962Q812.7054 374.02277 813.73663 374.02277Q814.5179 374.02277 815.06476 373.61652Q815.61163 373.21027 815.92413 372.31964ZM811.31476 370.0384L815.93976 370.0384Q815.846 368.99152 815.4085 368.4759Q814.73663 367.6634 813.67413 367.6634Q812.7054 367.6634 812.0413 368.31183Q811.37726 368.96027 811.31476 370.0384ZM818.596 372.50714L819.98663 372.2884Q820.096 373.13214 820.6351 373.57745Q821.17413 374.02277 822.12726 374.02277Q823.096 374.02277 823.56476 373.62433Q824.0335 373.2259 824.0335 372.69464Q824.0335 372.2259 823.62726 371.94464Q823.3304 371.75714 822.18976 371.4759Q820.6429 371.08527 820.0413 370.7962Q819.43976 370.50714 819.1351 370.00714Q818.8304 369.50714 818.8304 368.89777Q818.8304 368.33527 819.0804 367.86652Q819.3304 367.39777 819.7679 367.08527Q820.096 366.83527 820.6663 366.6712Q821.23663 366.50714 821.87726 366.50714Q822.86163 366.50714 823.596 366.7884Q824.3304 367.06964 824.68195 367.5462Q825.0335 368.02277 825.17413 368.83527L823.79913 369.02277Q823.7054 368.38214 823.25226 368.02277Q822.79913 367.6634 821.98663 367.6634Q821.0179 367.6634 820.6038 367.9837Q820.18976 368.30402 820.18976 368.7259Q820.18976 369.00714 820.36163 369.2259Q820.5335 369.44464 820.8929 369.6009Q821.11163 369.67902 822.1429 369.96027Q823.62726 370.3509 824.221 370.6087Q824.81476 370.86652 825.1507 371.3509Q825.48663 371.83527 825.48663 372.55402Q825.48663 373.25714 825.0726 373.87433Q824.6585 374.49152 823.8851 374.83527Q823.11163 375.17902 822.1429 375.17902Q820.5179 375.17902 819.67413 374.50714Q818.8304 373.83527 818.596 372.50714Z" fill-rule="nonzero" fill="#000000"></path></svg>

