<?xml version="1.0" standalone="yes"?>

<svg version="1.1" viewBox="0.0 0.0 960.0 720.0" fill="none" stroke="none" stroke-linecap="square" stroke-miterlimit="10" clip-path="url(#clip0)" xmlns="http://www.w3.org/2000/svg" xmlns:xlink="http://www.w3.org/1999/xlink"><clipPath id="clip0"><path d="M0 0L960.0 0L960.0 720.0L0 720.0L0 0Z" clip-rule="nonzero"></path></clipPath><path d="M333.56693 166.29167L438.70078 166.29167L438.70078 219.01608L333.56693 219.01608Z" fill-rule="nonzero" fill="#cfe2f3" stroke="#073763" stroke-width="2.0" stroke-linejoin="round" stroke-linecap="butt"></path><path d="M365.8638 199.15105L365.8638 185.5573L367.6763 185.5573L367.6763 191.13542L374.7388 191.13542L374.7388 185.5573L376.53568 185.5573L376.53568 199.15105L374.7388 199.15105L374.7388 192.7448L367.6763 192.7448L367.6763 199.15105L365.8638 199.15105ZM385.50443 197.9323Q384.56693 198.72917 383.70755 199.04948Q382.84818 199.3698 381.8638 199.3698Q380.25443 199.3698 379.37943 198.58073Q378.50443 197.79167 378.50443 196.5573Q378.50443 195.82292 378.83255 195.22917Q379.16068 194.63542 379.69193 194.27605Q380.22318 193.91667 380.89505 193.72917Q381.39505 193.58855 382.37943 193.47917Q384.41068 193.22917 385.3638 192.90105Q385.3638 192.5573 385.3638 192.46355Q385.3638 191.44792 384.89505 191.02605Q384.25443 190.46355 382.9888 190.46355Q381.81693 190.46355 381.25443 190.8698Q380.69193 191.27605 380.4263 192.33855L378.78568 192.10417Q379.02005 191.0573 379.52786 190.41667Q380.03568 189.77605 380.9966 189.42448Q381.95755 189.07292 383.2388 189.07292Q384.50443 189.07292 385.28568 189.3698Q386.06693 189.66667 386.44193 190.1198Q386.81693 190.57292 386.95755 191.26042Q387.0513 191.6823 387.0513 192.79167L387.0513 195.02605Q387.0513 197.35417 387.15286 197.97136Q387.25443 198.58855 387.58255 199.15105L385.83255 199.15105Q385.56693 198.63542 385.50443 197.9323ZM385.3638 194.21355Q384.45755 194.57292 382.62943 194.83855Q381.59818 194.97917 381.1763 195.16667Q380.75443 195.35417 380.52005 195.71355Q380.28568 196.07292 380.28568 196.51042Q380.28568 197.1823 380.7935 197.62761Q381.3013 198.07292 382.27005 198.07292Q383.2388 198.07292 383.9888 197.64323Q384.7388 197.21355 385.09818 196.4948Q385.3638 195.91667 385.3638 194.82292L385.3638 194.21355ZM388.77005 196.21355L390.4263 195.94792Q390.56693 196.94792 391.19974 197.47136Q391.83255 197.9948 392.97318 197.9948Q394.12943 197.9948 394.6841 197.52605Q395.2388 197.0573 395.2388 196.4323Q395.2388 195.8698 394.75443 195.54167Q394.41068 195.32292 393.0513 194.97917Q391.20755 194.51042 390.4966 194.17448Q389.78568 193.83855 389.4185 193.23698Q389.0513 192.63542 389.0513 191.91667Q389.0513 191.26042 389.356 190.69792Q389.66068 190.13542 390.1763 189.76042Q390.56693 189.47917 391.2388 189.27605Q391.91068 189.07292 392.6763 189.07292Q393.84818 189.07292 394.72318 189.40886Q395.59818 189.7448 396.01224 190.31511Q396.4263 190.88542 396.58255 191.83855L394.95755 192.0573Q394.84818 191.3073 394.3091 190.87761Q393.77005 190.44792 392.8013 190.44792Q391.64505 190.44792 391.16068 190.83073Q390.6763 191.21355 390.6763 191.71355Q390.6763 192.04167 390.87943 192.3073Q391.08255 192.57292 391.52005 192.7448Q391.77005 192.83855 392.9888 193.1823Q394.75443 193.65105 395.45755 193.94792Q396.16068 194.2448 396.5591 194.82292Q396.95755 195.40105 396.95755 196.26042Q396.95755 197.08855 396.47318 197.83073Q395.9888 198.57292 395.06693 198.97136Q394.14505 199.3698 392.9888 199.3698Q391.06693 199.3698 390.0591 198.57292Q389.0513 197.77605 388.77005 196.21355ZM398.77005 199.15105L398.77005 185.5573L400.44193 185.5573L400.44193 190.4323Q401.6138 189.07292 403.39505 189.07292Q404.4888 189.07292 405.2935 189.50261Q406.09818 189.9323 406.44974 190.69792Q406.8013 191.46355 406.8013 192.90105L406.8013 199.15105L405.12943 199.15105L405.12943 192.90105Q405.12943 191.65105 404.58255 191.08073Q404.03568 190.51042 403.0513 190.51042Q402.3013 190.51042 401.65286 190.89323Q401.00443 191.27605 400.72318 191.94011Q400.44193 192.60417 400.44193 193.76042L400.44193 199.15105L398.77005 199.15105Z" fill-rule="nonzero" fill="#000000"></path><path d="M173.71965 186.92632L173.71965 173.33257L179.7509 173.33257Q181.5634 173.33257 182.50871 173.69194Q183.45403 174.05132 184.01653 174.981Q184.57903 175.91069 184.57903 177.03569Q184.57903 178.48882 183.64934 179.481Q182.71965 180.47319 180.7509 180.73882Q181.46965 181.08257 181.84465 181.41069Q182.6259 182.14507 183.32903 183.22319L185.70403 186.92632L183.4384 186.92632L181.64153 184.09819Q180.84465 182.87944 180.33684 182.22319Q179.82903 181.56694 179.42278 181.30913Q179.01653 181.05132 178.61028 180.95757Q178.29778 180.87944 177.59465 180.87944L175.51653 180.87944L175.51653 186.92632L173.71965 186.92632ZM175.51653 179.33257L179.3759 179.33257Q180.61028 179.33257 181.30559 179.07475Q182.0009 178.81694 182.36809 178.25444Q182.73528 177.69194 182.73528 177.03569Q182.73528 176.06694 182.03215 175.44975Q181.32903 174.83257 179.8134 174.83257L175.51653 174.83257L175.51653 179.33257ZM193.3759 185.70757Q192.4384 186.50444 191.57903 186.82475Q190.71965 187.14507 189.73528 187.14507Q188.1259 187.14507 187.2509 186.356Q186.3759 185.56694 186.3759 184.33257Q186.3759 183.59819 186.70403 183.00444Q187.03215 182.41069 187.5634 182.05132Q188.09465 181.69194 188.76653 181.50444Q189.26653 181.36382 190.2509 181.25444Q192.28215 181.00444 193.23528 180.67632Q193.23528 180.33257 193.23528 180.23882Q193.23528 179.22319 192.76653 178.80132Q192.1259 178.23882 190.86028 178.23882Q189.6884 178.23882 189.1259 178.64507Q188.5634 179.05132 188.29778 180.11382L186.65715 179.87944Q186.89153 178.83257 187.39934 178.19194Q187.90715 177.55132 188.86809 177.19975Q189.82903 176.84819 191.11028 176.84819Q192.3759 176.84819 193.15715 177.14507Q193.9384 177.44194 194.3134 177.89507Q194.6884 178.34819 194.82903 179.03569Q194.92278 179.45757 194.92278 180.56694L194.92278 182.80132Q194.92278 185.12944 195.02434 185.74663Q195.1259 186.36382 195.45403 186.92632L193.70403 186.92632Q193.4384 186.41069 193.3759 185.70757ZM193.23528 181.98882Q192.32903 182.34819 190.5009 182.61382Q189.46965 182.75444 189.04778 182.94194Q188.6259 183.12944 188.39153 183.48882Q188.15715 183.84819 188.15715 184.28569Q188.15715 184.95757 188.66496 185.40288Q189.17278 185.84819 190.14153 185.84819Q191.11028 185.84819 191.86028 185.4185Q192.61028 184.98882 192.96965 184.27007Q193.23528 183.69194 193.23528 182.59819L193.23528 181.98882ZM197.3134 186.92632L197.3134 177.06694L198.8134 177.06694L198.8134 178.47319Q199.90715 176.84819 201.95403 176.84819Q202.84465 176.84819 203.59465 177.1685Q204.34465 177.48882 204.71184 178.01225Q205.07903 178.53569 205.23528 179.23882Q205.32903 179.70757 205.32903 180.86382L205.32903 186.92632L203.65715 186.92632L203.65715 180.92632Q203.65715 179.91069 203.46184 179.40288Q203.26653 178.89507 202.76653 178.59819Q202.26653 178.30132 201.59465 178.30132Q200.53215 178.30132 199.75871 178.97319Q198.98528 179.64507 198.98528 181.55132L198.98528 186.92632L197.3134 186.92632ZM214.07903 186.92632L214.07903 185.67632Q213.14153 187.14507 211.32903 187.14507Q210.15715 187.14507 209.16496 186.49663Q208.17278 185.84819 207.63371 184.68413Q207.09465 183.52007 207.09465 182.00444Q207.09465 180.53569 207.58684 179.33257Q208.07903 178.12944 209.05559 177.48882Q210.03215 176.84819 211.2509 176.84819Q212.14153 176.84819 212.83684 177.22319Q213.53215 177.59819 213.96965 178.20757L213.96965 173.33257L215.6259 173.33257L215.6259 186.92632L214.07903 186.92632ZM208.79778 182.00444Q208.79778 183.89507 209.60246 184.83257Q210.40715 185.77007 211.48528 185.77007Q212.57903 185.77007 213.34465 184.87944Q214.11028 183.98882 214.11028 182.14507Q214.11028 180.12944 213.32903 179.18413Q212.54778 178.23882 211.40715 178.23882Q210.29778 178.23882 209.54778 179.14507Q208.79778 180.05132 208.79778 182.00444ZM217.4384 182.00444Q217.4384 179.27007 218.96965 177.94194Q220.23528 176.84819 222.0634 176.84819Q224.09465 176.84819 225.38371 178.18413Q226.67278 179.52007 226.67278 181.86382Q226.67278 183.77007 226.10246 184.856Q225.53215 185.94194 224.44621 186.5435Q223.36028 187.14507 222.0634 187.14507Q220.0009 187.14507 218.71965 185.81694Q217.4384 184.48882 217.4384 182.00444ZM219.15715 182.00444Q219.15715 183.89507 219.98528 184.83257Q220.8134 185.77007 222.0634 185.77007Q223.3134 185.77007 224.13371 184.82475Q224.95403 183.87944 224.95403 181.94194Q224.95403 180.11382 224.1259 179.17632Q223.29778 178.23882 222.0634 178.23882Q220.8134 178.23882 219.98528 179.17632Q219.15715 180.11382 219.15715 182.00444ZM228.45403 186.92632L228.45403 177.06694L229.95403 177.06694L229.95403 178.45757Q230.40715 177.73882 231.18059 177.2935Q231.95403 176.84819 232.9384 176.84819Q234.03215 176.84819 234.73528 177.30132Q235.4384 177.75444 235.71965 178.58257Q236.89153 176.84819 238.76653 176.84819Q240.23528 176.84819 241.02434 177.66069Q241.8134 178.47319 241.8134 180.16069L241.8134 186.92632L240.14153 186.92632L240.14153 180.72319Q240.14153 179.72319 239.98528 179.27788Q239.82903 178.83257 239.39934 178.56694Q238.96965 178.30132 238.39153 178.30132Q237.36028 178.30132 236.67278 178.98882Q235.98528 179.67632 235.98528 181.20757L235.98528 186.92632L234.3134 186.92632L234.3134 180.52007Q234.3134 179.41069 233.90715 178.856Q233.5009 178.30132 232.5634 178.30132Q231.86028 178.30132 231.25871 178.6685Q230.65715 179.03569 230.39153 179.75444Q230.1259 180.47319 230.1259 181.81694L230.1259 186.92632L228.45403 186.92632ZM249.3134 186.92632L249.3134 173.33257L251.11028 173.33257L251.11028 180.06694L257.87592 173.33257L260.31342 173.33257L254.61028 178.83257L260.56342 186.92632L258.18842 186.92632L253.34465 180.03569L251.11028 182.20757L251.11028 186.92632L249.3134 186.92632ZM268.3603 183.75444L270.07904 183.97319Q269.6728 185.47319 268.57123 186.30913Q267.46967 187.14507 265.75092 187.14507Q263.59467 187.14507 262.32904 185.81694Q261.06342 184.48882 261.06342 182.08257Q261.06342 179.59819 262.33685 178.22319Q263.6103 176.84819 265.65717 176.84819Q267.64154 176.84819 268.89154 178.19194Q270.14154 179.53569 270.14154 181.98882Q270.14154 182.12944 270.12592 182.42632L262.78217 182.42632Q262.87592 184.05132 263.70404 184.91069Q264.53217 185.77007 265.76654 185.77007Q266.6728 185.77007 267.32123 185.2935Q267.96967 184.81694 268.3603 183.75444ZM262.87592 181.05132L268.37592 181.05132Q268.26654 179.81694 267.75092 179.19194Q266.95404 178.22319 265.6728 178.22319Q264.53217 178.22319 263.7431 178.99663Q262.95404 179.77007 262.87592 181.05132ZM271.90717 190.72319L271.7353 189.16069Q272.28217 189.30132 272.68842 189.30132Q273.2353 189.30132 273.57123 189.11382Q273.90717 188.92632 274.12592 188.59819Q274.28217 188.34819 274.62592 187.34819Q274.6728 187.20757 274.78217 186.94194L271.0478 177.06694L272.84467 177.06694L274.89154 182.78569Q275.2978 183.86382 275.6103 185.06694Q275.89154 183.91069 276.2978 182.81694L278.39154 177.06694L280.06342 177.06694L276.31342 187.09819Q275.71967 188.72319 275.37592 189.33257Q274.93842 190.16069 274.3603 190.5435Q273.78217 190.92632 272.9853 190.92632Q272.50092 190.92632 271.90717 190.72319Z" fill-rule="nonzero" fill="#000000"></path><path d="M192.84554 208.01064L192.84554 208.01064C192.84554 201.67744 198.13531 196.5434 204.66058 196.5434L204.66058 196.5434C207.79413 196.5434 210.79935 197.75154 213.01509 199.90207C215.23085 202.0526 216.47565 204.96933 216.47565 208.01064L216.47565 208.01064C216.47565 214.34381 211.18587 219.47787 204.66058 219.47787L204.66058 219.47787C198.13531 219.47787 192.84554 214.34381 192.84554 208.01064Z" fill-rule="nonzero" stroke="#073763" stroke-width="2.0" stroke-linejoin="round" stroke-linecap="butt"></path><path d="M212.31316 199.9029L259.45892 199.9029" fill-rule="nonzero" stroke="#073763" stroke-width="2.0" stroke-linejoin="round" stroke-linecap="butt"></path><path d="M258.6195 199.7901C258.6195 202.18774 258.15305 207.57104 255.94398 206.49792C254.53564 205.81378 255.93619 201.91931 254.3826 202.16988C252.36026 202.49603 251.98065 207.38777 250.14702 206.49792C248.71994 205.80537 249.43106 201.89722 247.91742 202.38693C246.21228 202.93858 247.02834 206.73872 245.2419 206.93073C242.23396 207.25403 239.96916 203.77812 236.99168 203.25253C235.47032 202.984 235.57489 206.05899 234.31616 206.93073C232.15431 208.42793 229.1109 203.3982 226.7355 204.55095C223.48837 206.12677 220.33203 208.66194 216.70161 208.66194" fill-rule="evenodd" stroke="#073763" stroke-width="2.0" stroke-linejoin="round" stroke-linecap="butt"></path><path d="M219.82306 201.9541L246.57143 201.9541" fill-rule="nonzero" stroke="#cccccc" stroke-width="1.0" stroke-linejoin="round" stroke-linecap="butt"></path><path d="M200.98528 208.02013L200.98528 208.02013C200.98528 206.04492 202.63112 204.44371 204.66139 204.44371L204.66139 204.44371C205.63635 204.44371 206.57138 204.82051 207.26079 205.49123C207.9502 206.16193 208.3375 207.07161 208.3375 208.02013L208.3375 208.02013C208.3375 209.99533 206.69165 211.59654 204.66139 211.59654L204.66139 211.59654C202.63112 211.59654 200.98528 209.99533 200.98528 208.02013Z" fill-rule="nonzero" stroke="#073763" stroke-width="2.0" stroke-linejoin="round" stroke-linecap="butt"></path><path d="M283.57742 192.6693L321.56168 192.6693" fill-rule="evenodd" stroke="#073763" stroke-width="2.0" stroke-linejoin="round" stroke-linecap="butt"></path><path d="M321.56168 195.97276L330.63788 192.6693L321.56168 189.36583Z" fill-rule="evenodd" fill="#073763" stroke="#073763" stroke-width="2.0" stroke-linecap="butt"></path><path d="M386.13385 124.81135L386.13385 154.29167" fill-rule="evenodd" stroke="#073763" stroke-width="2.0" stroke-linejoin="round" stroke-linecap="butt"></path><path d="M382.83038 154.29167L386.13385 163.36786L389.43732 154.29167Z" fill-rule="evenodd" fill="#073763" stroke="#073763" stroke-width="2.0" stroke-linecap="butt"></path><path d="M434.4987 110.54855L492.6719 110.54855" fill-rule="evenodd" stroke="#073763" stroke-width="2.0" stroke-linejoin="round" stroke-linecap="butt"></path><path d="M492.6719 113.85202L501.7481 110.54855L492.6719 107.245094Z" fill-rule="evenodd" fill="#073763" stroke="#073763" stroke-width="2.0" stroke-linecap="butt"></path><path d="M482.8505 214.50485L482.8505 200.9111L492.69424 200.9111L492.69424 202.50485L484.64737 202.50485L484.64737 206.67673L492.17862 206.67673L492.17862 208.27048L484.64737 208.27048L484.64737 212.89548L493.00674 212.89548L493.00674 214.50485L482.8505 214.50485ZM495.038 214.50485L495.038 204.64548L496.538 204.64548L496.538 206.05173Q497.63174 204.42673 499.67862 204.42673Q500.56924 204.42673 501.31924 204.74704Q502.06924 205.06735 502.43643 205.59079Q502.80362 206.11423 502.95987 206.81735Q503.05362 207.2861 503.05362 208.44235L503.05362 214.50485L501.38174 214.50485L501.38174 208.50485Q501.38174 207.48923 501.18643 206.98141Q500.99112 206.4736 500.49112 206.17673Q499.99112 205.87985 499.31924 205.87985Q498.25674 205.87985 497.4833 206.55173Q496.70987 207.2236 496.70987 209.12985L496.70987 214.50485L495.038 214.50485ZM511.8505 210.89548L513.4911 211.11423Q513.22546 212.80173 512.1161 213.76266Q511.00674 214.7236 509.38174 214.7236Q507.36612 214.7236 506.13956 213.40329Q504.913 212.08298 504.913 209.61423Q504.913 208.02048 505.43643 206.82516Q505.95987 205.62985 507.0458 205.02829Q508.13174 204.42673 509.39737 204.42673Q511.00674 204.42673 512.02234 205.23923Q513.03796 206.05173 513.33484 207.55173L511.70987 207.80173Q511.4755 206.80173 510.88174 206.30173Q510.288 205.80173 509.45987 205.80173Q508.19424 205.80173 507.40518 206.70798Q506.61612 207.61423 506.61612 209.56735Q506.61612 211.55173 507.38174 212.45016Q508.14737 213.3486 509.36612 213.3486Q510.3505 213.3486 511.00674 212.74704Q511.663 212.14548 511.8505 210.89548ZM514.72546 214.50485L514.72546 204.64548L516.22546 204.64548L516.22546 206.14548Q516.8036 205.0986 517.28796 204.76266Q517.77234 204.42673 518.3661 204.42673Q519.20984 204.42673 520.08484 204.9736L519.5067 206.52048Q518.89734 206.1611 518.27234 206.1611Q517.72546 206.1611 517.2958 206.48923Q516.8661 206.81735 516.6786 207.39548Q516.39734 208.2861 516.39734 209.3486L516.39734 214.50485L514.72546 214.50485ZM520.8817 218.30173L520.70984 216.73923Q521.2567 216.87985 521.66296 216.87985Q522.20984 216.87985 522.5458 216.69235Q522.8817 216.50485 523.10046 216.17673Q523.2567 215.92673 523.60046 214.92673Q523.64734 214.7861 523.7567 214.52048L520.02234 204.64548L521.8192 204.64548L523.8661 210.36423Q524.27234 211.44235 524.58484 212.64548Q524.8661 211.48923 525.27234 210.39548L527.3661 204.64548L529.03796 204.64548L525.28796 214.67673Q524.6942 216.30173 524.35046 216.9111Q523.91296 217.73923 523.33484 218.12204Q522.7567 218.50485 521.95984 218.50485Q521.47546 218.50485 520.8817 218.30173ZM530.28796 218.2861L530.28796 204.64548L531.8192 204.64548L531.8192 205.92673Q532.35046 205.17673 533.03015 204.80173Q533.70984 204.42673 534.66296 204.42673Q535.9286 204.42673 536.89734 205.07516Q537.8661 205.7236 538.3583 206.9111Q538.85046 208.0986 538.85046 209.50485Q538.85046 211.02048 538.3036 212.23141Q537.7567 213.44235 536.72546 214.08298Q535.6942 214.7236 534.5536 214.7236Q533.70984 214.7236 533.0458 214.37204Q532.3817 214.02048 531.95984 213.48923L531.95984 218.2861L530.28796 218.2861ZM531.8036 209.62985Q531.8036 211.5361 532.577 212.44235Q533.35046 213.3486 534.4442 213.3486Q535.5536 213.3486 536.34265 212.4111Q537.1317 211.4736 537.1317 209.48923Q537.1317 207.61423 536.3583 206.67673Q535.58484 205.73923 534.5067 205.73923Q533.4442 205.73923 532.6239 206.73923Q531.8036 207.73923 531.8036 209.62985ZM544.3192 213.00485L544.5536 214.48923Q543.85046 214.62985 543.28796 214.62985Q542.3817 214.62985 541.8817 214.34079Q541.3817 214.05173 541.1786 213.59079Q540.97546 213.12985 540.97546 211.61423L540.97546 205.95798L539.7411 205.95798L539.7411 204.64548L540.97546 204.64548L540.97546 202.20798L542.6317 201.20798L542.6317 204.64548L544.3192 204.64548L544.3192 205.95798L542.6317 205.95798L542.6317 211.70798Q542.6317 212.42673 542.71765 212.62985Q542.8036 212.83298 543.0067 212.95798Q543.20984 213.08298 543.58484 213.08298Q543.85046 213.08298 544.3192 213.00485ZM545.8661 202.81735L545.8661 200.9111L547.53796 200.9111L547.53796 202.81735L545.8661 202.81735ZM545.8661 214.50485L545.8661 204.64548L547.53796 204.64548L547.53796 214.50485L545.8661 214.50485ZM549.3661 209.58298Q549.3661 206.8486 550.89734 205.52048Q552.16296 204.42673 553.9911 204.42673Q556.02234 204.42673 557.3114 205.76266Q558.60046 207.0986 558.60046 209.44235Q558.60046 211.3486 558.03015 212.43454Q557.45984 213.52048 556.3739 214.12204Q555.28796 214.7236 553.9911 214.7236Q551.9286 214.7236 550.64734 213.39548Q549.3661 212.06735 549.3661 209.58298ZM551.08484 209.58298Q551.08484 211.4736 551.91296 212.4111Q552.7411 213.3486 553.9911 213.3486Q555.2411 213.3486 556.0614 212.40329Q556.8817 211.45798 556.8817 209.52048Q556.8817 207.69235 556.0536 206.75485Q555.22546 205.81735 553.9911 205.81735Q552.7411 205.81735 551.91296 206.75485Q551.08484 207.69235 551.08484 209.58298ZM560.3661 214.50485L560.3661 204.64548L561.8661 204.64548L561.8661 206.05173Q562.95984 204.42673 565.0067 204.42673Q565.89734 204.42673 566.64734 204.74704Q567.39734 205.06735 567.7645 205.59079Q568.1317 206.11423 568.28796 206.81735Q568.3817 207.2861 568.3817 208.44235L568.3817 214.50485L566.70984 214.50485L566.70984 208.50485Q566.70984 207.48923 566.5145 206.98141Q566.3192 206.4736 565.8192 206.17673Q565.3192 205.87985 564.64734 205.87985Q563.58484 205.87985 562.8114 206.55173Q562.03796 207.2236 562.03796 209.12985L562.03796 214.50485L560.3661 214.50485ZM576.0692 214.50485L576.0692 200.9111L577.8661 200.9111L577.8661 207.64548L584.6317 200.9111L587.0692 200.9111L581.3661 206.4111L587.3192 214.50485L584.9442 214.50485L580.10046 207.61423L577.8661 209.7861L577.8661 214.50485L576.0692 214.50485ZM595.1161 211.33298L596.83484 211.55173Q596.4286 213.05173 595.327 213.88766Q594.22546 214.7236 592.5067 214.7236Q590.35046 214.7236 589.08484 213.39548Q587.8192 212.06735 587.8192 209.6611Q587.8192 207.17673 589.09265 205.80173Q590.3661 204.42673 592.41296 204.42673Q594.39734 204.42673 595.64734 205.77048Q596.89734 207.11423 596.89734 209.56735Q596.89734 209.70798 596.8817 210.00485L589.53796 210.00485Q589.6317 211.62985 590.45984 212.48923Q591.28796 213.3486 592.52234 213.3486Q593.4286 213.3486 594.077 212.87204Q594.72546 212.39548 595.1161 211.33298ZM589.6317 208.62985L595.1317 208.62985Q595.02234 207.39548 594.5067 206.77048Q593.70984 205.80173 592.4286 205.80173Q591.28796 205.80173 590.4989 206.57516Q589.70984 207.3486 589.6317 208.62985ZM598.66296 218.30173L598.4911 216.73923Q599.03796 216.87985 599.4442 216.87985Q599.9911 216.87985 600.327 216.69235Q600.66296 216.50485 600.8817 216.17673Q601.03796 215.92673 601.3817 214.92673Q601.4286 214.7861 601.53796 214.52048L597.8036 204.64548L599.60046 204.64548L601.64734 210.36423Q602.0536 211.44235 602.3661 212.64548Q602.64734 211.48923 603.0536 210.39548L605.14734 204.64548L606.8192 204.64548L603.0692 214.67673Q602.47546 216.30173 602.1317 216.9111Q601.6942 217.73923 601.1161 218.12204Q600.53796 218.50485 599.7411 218.50485Q599.2567 218.50485 598.66296 218.30173Z" fill-rule="nonzero" fill="#000000"></path><path d="M353.05234 117.04855L353.05234 103.4548L358.17734 103.4548Q359.5367 103.4548 360.25546 103.5798Q361.25546 103.75168 361.92734 104.22043Q362.5992 104.68918 363.01328 105.53293Q363.42734 106.37668 363.42734 107.37668Q363.42734 109.11105 362.32578 110.31418Q361.2242 111.5173 358.3336 111.5173L354.8492 111.5173L354.8492 117.04855L353.05234 117.04855ZM354.8492 109.90793L358.36484 109.90793Q360.11484 109.90793 360.8414 109.25949Q361.56796 108.61105 361.56796 107.43918Q361.56796 106.5798 361.13828 105.97043Q360.7086 105.36105 360.00546 105.17355Q359.55234 105.04855 358.3336 105.04855L354.8492 105.04855L354.8492 109.90793ZM365.23984 117.04855L365.23984 103.4548L366.9117 103.4548L366.9117 117.04855L365.23984 117.04855ZM375.8492 115.8298Q374.9117 116.62668 374.05234 116.94699Q373.19296 117.2673 372.2086 117.2673Q370.5992 117.2673 369.7242 116.47824Q368.8492 115.68918 368.8492 114.4548Q368.8492 113.72043 369.17734 113.12668Q369.50546 112.53293 370.0367 112.17355Q370.56796 111.81418 371.23984 111.62668Q371.73984 111.48605 372.7242 111.37668Q374.75546 111.12668 375.7086 110.79855Q375.7086 110.4548 375.7086 110.36105Q375.7086 109.34543 375.23984 108.92355Q374.5992 108.36105 373.3336 108.36105Q372.1617 108.36105 371.5992 108.7673Q371.0367 109.17355 370.7711 110.23605L369.13046 110.00168Q369.36484 108.9548 369.87265 108.31418Q370.38046 107.67355 371.3414 107.32199Q372.30234 106.97043 373.5836 106.97043Q374.8492 106.97043 375.63046 107.2673Q376.4117 107.56418 376.7867 108.0173Q377.1617 108.47043 377.30234 109.15793Q377.3961 109.5798 377.3961 110.68918L377.3961 112.92355Q377.3961 115.25168 377.49765 115.868866Q377.5992 116.48605 377.92734 117.04855L376.17734 117.04855Q375.9117 116.53293 375.8492 115.8298ZM375.7086 112.11105Q374.80234 112.47043 372.9742 112.73605Q371.94296 112.87668 371.5211 113.06418Q371.0992 113.25168 370.86484 113.61105Q370.63046 113.97043 370.63046 114.40793Q370.63046 115.0798 371.13828 115.525116Q371.6461 115.97043 372.61484 115.97043Q373.5836 115.97043 374.3336 115.54074Q375.0836 115.11105 375.44296 114.3923Q375.7086 113.81418 375.7086 112.72043L375.7086 112.11105ZM379.80234 105.36105L379.80234 103.4548L381.4742 103.4548L381.4742 105.36105L379.80234 105.36105ZM379.80234 117.04855L379.80234 107.18918L381.4742 107.18918L381.4742 117.04855L379.80234 117.04855ZM383.94296 117.04855L383.94296 107.18918L385.44296 107.18918L385.44296 108.59543Q386.5367 106.97043 388.5836 106.97043Q389.4742 106.97043 390.2242 107.29074Q390.9742 107.61105 391.3414 108.13449Q391.7086 108.65793 391.86484 109.36105Q391.9586 109.8298 391.9586 110.98605L391.9586 117.04855L390.2867 117.04855L390.2867 111.04855Q390.2867 110.03293 390.0914 109.525116Q389.8961 109.0173 389.3961 108.72043Q388.8961 108.42355 388.2242 108.42355Q387.1617 108.42355 386.38828 109.09543Q385.61484 109.7673 385.61484 111.67355L385.61484 117.04855L383.94296 117.04855ZM397.9742 115.54855L398.2086 117.03293Q397.50546 117.17355 396.94296 117.17355Q396.0367 117.17355 395.5367 116.88449Q395.0367 116.59543 394.8336 116.13449Q394.63046 115.67355 394.63046 114.15793L394.63046 108.50168L393.3961 108.50168L393.3961 107.18918L394.63046 107.18918L394.63046 104.75168L396.2867 103.75168L396.2867 107.18918L397.9742 107.18918L397.9742 108.50168L396.2867 108.50168L396.2867 114.25168Q396.2867 114.97043 396.37265 115.17355Q396.4586 115.37668 396.6617 115.50168Q396.86484 115.62668 397.23984 115.62668Q397.50546 115.62668 397.9742 115.54855ZM406.23984 113.87668L407.9586 114.09543Q407.55234 115.59543 406.45078 116.431366Q405.3492 117.2673 403.63046 117.2673Q401.4742 117.2673 400.2086 115.93918Q398.94296 114.61105 398.94296 112.2048Q398.94296 109.72043 400.2164 108.34543Q401.48984 106.97043 403.5367 106.97043Q405.5211 106.97043 406.7711 108.31418Q408.0211 109.65793 408.0211 112.11105Q408.0211 112.25168 408.00546 112.54855L400.6617 112.54855Q400.75546 114.17355 401.5836 115.03293Q402.4117 115.8923 403.6461 115.8923Q404.55234 115.8923 405.20078 115.41574Q405.8492 114.93918 406.23984 113.87668ZM400.75546 111.17355L406.25546 111.17355Q406.1461 109.93918 405.63046 109.31418Q404.8336 108.34543 403.55234 108.34543Q402.4117 108.34543 401.62265 109.118866Q400.8336 109.8923 400.75546 111.17355ZM408.7711 117.04855L412.36484 111.92355L409.0367 107.18918L411.13046 107.18918L412.6461 109.50168Q413.06796 110.15793 413.31796 110.61105Q413.73984 110.00168 414.0836 109.5173L415.73984 107.18918L417.7242 107.18918L414.3336 111.8298L417.98984 117.04855L415.94296 117.04855L413.9117 113.98605L413.38046 113.15793L410.7867 117.04855L408.7711 117.04855ZM422.86484 115.54855L423.0992 117.03293Q422.3961 117.17355 421.8336 117.17355Q420.92734 117.17355 420.42734 116.88449Q419.92734 116.59543 419.7242 116.13449Q419.5211 115.67355 419.5211 114.15793L419.5211 108.50168L418.2867 108.50168L418.2867 107.18918L419.5211 107.18918L419.5211 104.75168L421.17734 103.75168L421.17734 107.18918L422.86484 107.18918L422.86484 108.50168L421.17734 108.50168L421.17734 114.25168Q421.17734 114.97043 421.26328 115.17355Q421.3492 115.37668 421.55234 115.50168Q421.75546 115.62668 422.13046 115.62668Q422.3961 115.62668 422.86484 115.54855Z" fill-rule="nonzero" fill="#000000"></path><path d="M504.68503 84.18635L609.8189 84.18635L609.8189 136.91077L504.68503 136.91077Z" fill-rule="nonzero" fill="#cfe2f3" stroke="#073763" stroke-width="2.0" stroke-linejoin="round" stroke-linecap="butt"></path><path d="M527.12256 117.04572L527.12256 103.45197L536.9663 103.45197L536.9663 105.04572L528.91943 105.04572L528.91943 109.2176L536.4507 109.2176L536.4507 110.81135L528.91943 110.81135L528.91943 115.43635L537.2788 115.43635L537.2788 117.04572L527.12256 117.04572ZM539.31006 117.04572L539.31006 107.18635L540.81006 107.18635L540.81006 108.5926Q541.9038 106.9676 543.9507 106.9676Q544.8413 106.9676 545.5913 107.28791Q546.3413 107.60822 546.7085 108.13166Q547.0757 108.6551 547.23193 109.35822Q547.3257 109.82697 547.3257 110.98322L547.3257 117.04572L545.6538 117.04572L545.6538 111.04572Q545.6538 110.0301 545.4585 109.522285Q545.2632 109.01447 544.7632 108.7176Q544.2632 108.42072 543.5913 108.42072Q542.5288 108.42072 541.7554 109.0926Q540.98193 109.76447 540.98193 111.67072L540.98193 117.04572L539.31006 117.04572ZM556.12256 113.43635L557.7632 113.6551Q557.49756 115.3426 556.3882 116.303535Q555.2788 117.26447 553.6538 117.26447Q551.6382 117.26447 550.4116 115.94416Q549.18506 114.62385 549.18506 112.1551Q549.18506 110.56135 549.7085 109.366035Q550.23193 108.17072 551.3179 107.56916Q552.4038 106.9676 553.66943 106.9676Q555.2788 106.9676 556.29443 107.7801Q557.31006 108.5926 557.60693 110.0926L555.98193 110.3426Q555.74756 109.3426 555.1538 108.8426Q554.56006 108.3426 553.73193 108.3426Q552.4663 108.3426 551.67725 109.24885Q550.8882 110.1551 550.8882 112.10822Q550.8882 114.0926 551.6538 114.991035Q552.41943 115.88947 553.6382 115.88947Q554.62256 115.88947 555.2788 115.28791Q555.93506 114.68635 556.12256 113.43635ZM558.99756 117.04572L558.99756 107.18635L560.49756 107.18635L560.49756 108.68635Q561.0757 107.63947 561.56006 107.303535Q562.04443 106.9676 562.6382 106.9676Q563.48193 106.9676 564.35693 107.51447L563.7788 109.06135Q563.16943 108.70197 562.54443 108.70197Q561.99756 108.70197 561.5679 109.0301Q561.1382 109.35822 560.9507 109.93635Q560.66943 110.82697 560.66943 111.88947L560.66943 117.04572L558.99756 117.04572ZM565.1538 120.8426L564.98193 119.2801Q565.5288 119.42072 565.93506 119.42072Q566.48193 119.42072 566.8179 119.23322Q567.1538 119.04572 567.37256 118.7176Q567.5288 118.4676 567.87256 117.4676Q567.91943 117.32697 568.0288 117.06135L564.29443 107.18635L566.0913 107.18635L568.1382 112.9051Q568.54443 113.98322 568.85693 115.18635Q569.1382 114.0301 569.54443 112.93635L571.6382 107.18635L573.31006 107.18635L569.56006 117.2176Q568.9663 118.8426 568.62256 119.45197Q568.18506 120.2801 567.60693 120.66291Q567.0288 121.04572 566.23193 121.04572Q565.74756 121.04572 565.1538 120.8426ZM574.56006 120.82697L574.56006 107.18635L576.0913 107.18635L576.0913 108.4676Q576.62256 107.7176 577.30225 107.3426Q577.98193 106.9676 578.93506 106.9676Q580.2007 106.9676 581.16943 107.616035Q582.1382 108.26447 582.6304 109.45197Q583.12256 110.63947 583.12256 112.04572Q583.12256 113.56135 582.5757 114.772285Q582.0288 115.98322 580.99756 116.62385Q579.9663 117.26447 578.8257 117.26447Q577.98193 117.26447 577.3179 116.91291Q576.6538 116.56135 576.23193 116.0301L576.23193 120.82697L574.56006 120.82697ZM576.0757 112.17072Q576.0757 114.07697 576.8491 114.98322Q577.62256 115.88947 578.7163 115.88947Q579.8257 115.88947 580.61475 114.95197Q581.4038 114.01447 581.4038 112.0301Q581.4038 110.1551 580.6304 109.2176Q579.85693 108.2801 578.7788 108.2801Q577.7163 108.2801 576.896 109.2801Q576.0757 110.2801 576.0757 112.17072ZM588.5913 115.54572L588.8257 117.0301Q588.12256 117.17072 587.56006 117.17072Q586.6538 117.17072 586.1538 116.88166Q585.6538 116.5926 585.4507 116.13166Q585.24756 115.67072 585.24756 114.1551L585.24756 108.49885L584.0132 108.49885L584.0132 107.18635L585.24756 107.18635L585.24756 104.74885L586.9038 103.74885L586.9038 107.18635L588.5913 107.18635L588.5913 108.49885L586.9038 108.49885L586.9038 114.24885Q586.9038 114.9676 586.98975 115.17072Q587.0757 115.37385 587.2788 115.49885Q587.48193 115.62385 587.85693 115.62385Q588.12256 115.62385 588.5913 115.54572Z" fill-rule="nonzero" fill="#000000"></path><path d="M438.70078 193.13452L558.03937 193.13452" fill-rule="nonzero" stroke="#073763" stroke-width="2.0" stroke-linejoin="round" stroke-linecap="butt"></path><path d="M557.25195 194.17061L557.25195 148.91077" fill-rule="evenodd" stroke="#073763" stroke-width="2.0" stroke-linejoin="round" stroke-linecap="butt"></path><path d="M560.5554 148.91077L557.25195 139.83456L553.9485 148.91077Z" fill-rule="evenodd" fill="#073763" stroke="#073763" stroke-width="2.0" stroke-linecap="butt"></path><path d="M609.8189 110.54855L631.1926 110.54855" fill-rule="evenodd" stroke="#073763" stroke-width="2.0" stroke-linejoin="round" stroke-linecap="butt"></path><path d="M631.1926 113.85202L640.2688 110.54855L631.1926 107.245094Z" fill-rule="evenodd" fill="#073763" stroke="#073763" stroke-width="2.0" stroke-linecap="butt"></path><path d="M663.95825 112.28293L665.7551 112.73605Q665.1926 114.9548 663.7239 116.118866Q662.2551 117.28293 660.1301 117.28293Q657.927 117.28293 656.552 116.38449Q655.177 115.48605 654.45825 113.79074Q653.7395 112.09543 653.7395 110.1423Q653.7395 108.0173 654.5442 106.43918Q655.3489 104.86105 656.8489 104.04074Q658.3489 103.22043 660.14575 103.22043Q662.1926 103.22043 663.58325 104.25949Q664.9739 105.29855 665.52075 107.17355L663.7551 107.59543Q663.2864 106.11105 662.3801 105.431366Q661.4739 104.75168 660.1145 104.75168Q658.552 104.75168 657.4973 105.50168Q656.4426 106.25168 656.01294 107.525116Q655.58325 108.79855 655.58325 110.1423Q655.58325 111.87668 656.09106 113.16574Q656.5989 114.4548 657.6692 115.09543Q658.7395 115.73605 659.9739 115.73605Q661.4895 115.73605 662.5364 114.868866Q663.58325 114.00168 663.95825 112.28293ZM667.52075 105.36105L667.52075 103.4548L669.1926 103.4548L669.1926 105.36105L667.52075 105.36105ZM667.52075 117.04855L667.52075 107.18918L669.1926 107.18918L669.1926 117.04855L667.52075 117.04855ZM671.6614 120.8298L671.6614 107.18918L673.1926 107.18918L673.1926 108.47043Q673.7239 107.72043 674.40356 107.34543Q675.08325 106.97043 676.0364 106.97043Q677.302 106.97043 678.27075 107.618866Q679.2395 108.2673 679.7317 109.4548Q680.2239 110.6423 680.2239 112.04855Q680.2239 113.56418 679.677 114.775116Q679.1301 115.98605 678.0989 116.62668Q677.0676 117.2673 675.927 117.2673Q675.08325 117.2673 674.4192 116.91574Q673.7551 116.56418 673.33325 116.03293L673.33325 120.8298L671.6614 120.8298ZM673.177 112.17355Q673.177 114.0798 673.95044 114.98605Q674.7239 115.8923 675.8176 115.8923Q676.927 115.8923 677.71606 114.9548Q678.5051 114.0173 678.5051 112.03293Q678.5051 110.15793 677.7317 109.22043Q676.95825 108.28293 675.8801 108.28293Q674.8176 108.28293 673.9973 109.28293Q673.177 110.28293 673.177 112.17355ZM682.0364 117.04855L682.0364 103.4548L683.70825 103.4548L683.70825 108.3298Q684.8801 106.97043 686.6614 106.97043Q687.7551 106.97043 688.5598 107.400116Q689.3645 107.8298 689.71606 108.59543Q690.0676 109.36105 690.0676 110.79855L690.0676 117.04855L688.39575 117.04855L688.39575 110.79855Q688.39575 109.54855 687.8489 108.97824Q687.302 108.40793 686.3176 108.40793Q685.5676 108.40793 684.9192 108.79074Q684.27075 109.17355 683.9895 109.837616Q683.70825 110.50168 683.70825 111.65793L683.70825 117.04855L682.0364 117.04855ZM699.1614 113.87668L700.8801 114.09543Q700.4739 115.59543 699.3723 116.431366Q698.27075 117.2673 696.552 117.2673Q694.39575 117.2673 693.1301 115.93918Q691.8645 114.61105 691.8645 112.2048Q691.8645 109.72043 693.13794 108.34543Q694.4114 106.97043 696.45825 106.97043Q698.4426 106.97043 699.6926 108.31418Q700.9426 109.65793 700.9426 112.11105Q700.9426 112.25168 700.927 112.54855L693.58325 112.54855Q693.677 114.17355 694.5051 115.03293Q695.33325 115.8923 696.5676 115.8923Q697.4739 115.8923 698.1223 115.41574Q698.77075 114.93918 699.1614 113.87668ZM693.677 111.17355L699.177 111.17355Q699.0676 109.93918 698.552 109.31418Q697.7551 108.34543 696.4739 108.34543Q695.33325 108.34543 694.5442 109.118866Q693.7551 109.8923 693.677 111.17355ZM702.77075 117.04855L702.77075 107.18918L704.27075 107.18918L704.27075 108.68918Q704.8489 107.6423 705.33325 107.306366Q705.8176 106.97043 706.4114 106.97043Q707.2551 106.97043 708.1301 107.5173L707.552 109.06418Q706.9426 108.7048 706.3176 108.7048Q705.77075 108.7048 705.34106 109.03293Q704.9114 109.36105 704.7239 109.93918Q704.4426 110.8298 704.4426 111.8923L704.4426 117.04855L702.77075 117.04855ZM717.83325 115.54855L718.0676 117.03293Q717.3645 117.17355 716.802 117.17355Q715.89575 117.17355 715.39575 116.88449Q714.89575 116.59543 714.6926 116.13449Q714.4895 115.67355 714.4895 114.15793L714.4895 108.50168L713.2551 108.50168L713.2551 107.18918L714.4895 107.18918L714.4895 104.75168L716.14575 103.75168L716.14575 107.18918L717.83325 107.18918L717.83325 108.50168L716.14575 108.50168L716.14575 114.25168Q716.14575 114.97043 716.2317 115.17355Q716.3176 115.37668 716.52075 115.50168Q716.7239 115.62668 717.0989 115.62668Q717.3645 115.62668 717.83325 115.54855ZM726.1145 113.87668L727.83325 114.09543Q727.427 115.59543 726.32544 116.431366Q725.2239 117.2673 723.5051 117.2673Q721.3489 117.2673 720.08325 115.93918Q718.8176 114.61105 718.8176 112.2048Q718.8176 109.72043 720.09106 108.34543Q721.3645 106.97043 723.4114 106.97043Q725.39575 106.97043 726.64575 108.31418Q727.89575 109.65793 727.89575 112.11105Q727.89575 112.25168 727.8801 112.54855L720.5364 112.54855Q720.6301 114.17355 721.45825 115.03293Q722.2864 115.8923 723.52075 115.8923Q724.427 115.8923 725.07544 115.41574Q725.7239 114.93918 726.1145 113.87668ZM720.6301 111.17355L726.1301 111.17355Q726.02075 109.93918 725.5051 109.31418Q724.70825 108.34543 723.427 108.34543Q722.2864 108.34543 721.4973 109.118866Q720.70825 109.8923 720.6301 111.17355ZM728.6301 117.04855L732.2239 111.92355L728.89575 107.18918L730.9895 107.18918L732.5051 109.50168Q732.927 110.15793 733.177 110.61105Q733.5989 110.00168 733.9426 109.5173L735.5989 107.18918L737.58325 107.18918L734.1926 111.8298L737.8489 117.04855L735.802 117.04855L733.77075 113.98605L733.2395 113.15793L730.64575 117.04855L728.6301 117.04855ZM742.7239 115.54855L742.95825 117.03293Q742.2551 117.17355 741.6926 117.17355Q740.7864 117.17355 740.2864 116.88449Q739.7864 116.59543 739.58325 116.13449Q739.3801 115.67355 739.3801 114.15793L739.3801 108.50168L738.14575 108.50168L738.14575 107.18918L739.3801 107.18918L739.3801 104.75168L741.0364 103.75168L741.0364 107.18918L742.7239 107.18918L742.7239 108.50168L741.0364 108.50168L741.0364 114.25168Q741.0364 114.97043 741.1223 115.17355Q741.20825 115.37668 741.4114 115.50168Q741.6145 115.62668 741.9895 115.62668Q742.2551 115.62668 742.7239 115.54855Z" fill-rule="nonzero" fill="#000000"></path></svg>

