<?xml version="1.0" encoding="UTF-8" standalone="no"?>
<svg
   xmlns:dc="http://purl.org/dc/elements/1.1/"
   xmlns:cc="http://creativecommons.org/ns#"
   xmlns:rdf="http://www.w3.org/1999/02/22-rdf-syntax-ns#"
   xmlns:svg="http://www.w3.org/2000/svg"
   xmlns="http://www.w3.org/2000/svg"
   xmlns:sodipodi="http://sodipodi.sourceforge.net/DTD/sodipodi-0.dtd"
   xmlns:inkscape="http://www.inkscape.org/namespaces/inkscape"
   version="1.1"
   viewBox="0 0 575.84747 322.62711"
   stroke-miterlimit="10"
   id="svg6181"
   inkscape:version="0.47 r22583"
   width="100%"
   height="100%"
   sodipodi:docname="Tahoe-LAFSInsertionofnewfile (1).svg"
   style="fill:none;stroke:none">
  <metadata
     id="metadata6257">
    <rdf:RDF>
      <cc:Work
         rdf:about="">
        <dc:format>image/svg+xml</dc:format>
        <dc:type
           rdf:resource="http://purl.org/dc/dcmitype/StillImage" />
        <dc:title></dc:title>
      </cc:Work>
    </rdf:RDF>
  </metadata>
  <defs
     id="defs6255">
    <marker
       inkscape:stockid="Arrow1Lstart"
       orient="auto"
       refY="0"
       refX="0"
       id="Arrow1Lstart"
       style="overflow:visible">
      <path
         id="path6960"
         d="M 0,0 5,-5 -12.5,0 5,5 0,0 z"
         style="stroke:#000000;stroke-width:1pt;marker-start:none"
         transform="matrix(0.8,0,0,0.8,10,0)" />
    </marker>
    <marker
       inkscape:stockid="Arrow2Lend"
       orient="auto"
       refY="0"
       refX="0"
       id="Arrow2Lend"
       style="overflow:visible">
      <path
         id="path6981"
         style="font-size:12px"
         d="M 8.7185878,4.0337352 -2.2072895,0.01601326 8.7185884,-4.0017078 c -1.7454984,2.3720609 -1.7354408,5.6174519 -6e-7,8.035443 z"
         transform="matrix(-1.1,0,0,-1.1,-1.1,0)" />
    </marker>
    <marker
       inkscape:stockid="TriangleOutL"
       orient="auto"
       refY="0"
       refX="0"
       id="TriangleOutL"
       style="overflow:visible">
      <path
         id="path7103"
         d="m 5.77,0 -8.65,5 0,-10 8.65,5 z"
         style="stroke:#000000;stroke-width:1pt;marker-start:none"
         transform="scale(0.8,0.8)" />
    </marker>
    <marker
       inkscape:stockid="Arrow1Lend"
       orient="auto"
       refY="0"
       refX="0"
       id="Arrow1Lend"
       style="overflow:visible">
      <path
         id="path6963"
         d="M 0,0 5,-5 -12.5,0 5,5 0,0 z"
         style="stroke:#000000;stroke-width:1pt;marker-start:none"
         transform="matrix(-0.8,0,0,-0.8,-10,0)" />
    </marker>
    <inkscape:perspective
       sodipodi:type="inkscape:persp3d"
       inkscape:vp_x="0 : 360 : 1"
       inkscape:vp_y="0 : 1000 : 0"
       inkscape:vp_z="960 : 360 : 1"
       inkscape:persp3d-origin="480 : 240 : 1"
       id="perspective6259" />
    <inkscape:perspective
       id="perspective8931"
       inkscape:persp3d-origin="0.5 : 0.33333333 : 1"
       inkscape:vp_z="1 : 0.5 : 1"
       inkscape:vp_y="0 : 1000 : 0"
       inkscape:vp_x="0 : 0.5 : 1"
       sodipodi:type="inkscape:persp3d" />
  </defs>
  <sodipodi:namedview
     pagecolor="#ffffff"
     bordercolor="#666666"
     borderopacity="1"
     objecttolerance="10"
     gridtolerance="10"
     guidetolerance="10"
     inkscape:pageopacity="0"
     inkscape:pageshadow="2"
     inkscape:window-width="1280"
     inkscape:window-height="997"
     id="namedview6253"
     showgrid="false"
     inkscape:zoom="1.3111111"
     inkscape:cx="298.21729"
     inkscape:cy="153.64117"
     inkscape:window-x="1280"
     inkscape:window-y="0"
     inkscape:window-maximized="1"
     inkscape:current-layer="svg6181" />
  <path
     d="m 3.1978429,112.2105 0,0 c 0,-22.838771 16.9963101,-41.353251 37.9623301,-41.353251 l 493.021557,0 c 10.06824,0 19.7241,4.35684 26.8434,12.11208 7.11931,7.75524 11.11891,18.273611 11.11891,29.241171 l 0,165.40807 c 0,22.83881 -16.99632,41.35327 -37.96231,41.35327 l -493.021557,0 0,0 c -20.96602,0 -37.9623301,-18.51446 -37.9623301,-41.35327 z"
     id="path6183"
     style="fill:#cfe2f3;fill-rule:nonzero;stroke:#073763;stroke-width:1.91688919;stroke-linecap:butt;stroke-linejoin:round" />
  <path
     d="m 73.452193,124.61034 0,0 c 0,-8.84832 7.17296,-16.02131 16.0213,-16.02131 l 161.248717,0 c 4.24912,0 8.32419,1.68794 11.32877,4.69253 3.00457,3.00458 4.69253,7.07967 4.69253,11.32878 l 0,64.08335 c 0,8.84834 -7.17296,16.02134 -16.0213,16.02134 l -161.248717,0 0,0 c -8.84834,0 -16.0213,-7.173 -16.0213,-16.02134 z"
     id="path6185"
     style="fill:#cfe2f3;fill-rule:nonzero" />
  <path
     d="m 72.453473,124.55991 0,0 0.0827,-1.63808 0.0102,-0.10044 0.24277,-1.59076 0.0201,-0.0981 0.39478,-1.5354 0.0294,-0.0947 0.53876,-1.47196 0.0382,-0.0903 0.67465,-1.40051 0.0465,-0.0856 0.0225,-0.037 1.70883,1.03912 -0.0225,0.037 -0.85441,-0.51956 0.90091,0.43397 -0.67466,1.40051 -0.90091,-0.43397 0.93906,0.3437 -0.53876,1.47196 -0.93905,-0.34371 0.96849,0.24901 -0.39478,1.5354 -0.96849,-0.24901 0.98854,0.15087 -0.24276,1.59076 -0.98855,-0.15087 0.99873,0.0504 -0.0827,1.6381 z m 6.15299,-12.95573 0,0 1.27295,-1.05029 0.11721,-0.0833 1.32099,-0.80249 0.0192,-0.0114 0.066,-0.0349 1.40049,-0.67465 0.0903,-0.0382 1.47198,-0.53876 0.0947,-0.0294 1.5354,-0.3948 0.0982,-0.0202 0.0956,-0.0146 0.30157,1.97727 -0.0956,0.0146 -0.15078,-0.98864 0.249,0.96849 -1.5354,0.39481 -0.249,-0.96849 0.34368,0.93906 -1.47192,0.53875 -0.34372,-0.93905 0.43399,0.90091 -1.40049,0.67465 -0.43399,-0.90091 0.5192,0.85464 -1.32098,0.80249 -0.5192,-0.85464 0.63641,0.77133 -1.27295,1.05029 z m 13.71441,-4.01514 0,0 7.999997,0 0,2 -7.999997,0 z m 13.999997,0 0,0 8,0 0,2 -8,0 z m 14,0 0,0 8,0 0,2 -8,0 z m 14,0 0,0 8,0 0,2 -8,0 z m 14,0 0,0 8,0 0,2 -8,0 z m 14,0 0,0 8,0 0,2 -8,0 z m 14,0 0,0 8,0 0,2 -8,0 z m 14,0 0,0 8,0 0,2 -8,0 z m 14,0 0,0 8,0 0,2 -8,0 z m 14,0 0,0 8,0 0,2 -8,0 z m 14,0 0,0 8,0 0,2 -8,0 z m 14,0 0,0 4.40134,0 0.0494,0.001 1.5835,0.0784 0.0981,0.01 1.5567,0.23227 0.0962,0.0192 0.4261,0.10709 -0.48756,1.9397 -0.42604,-0.10709 0.24376,-0.96985 -0.14756,0.98905 -1.5567,-0.23227 0.14756,-0.98905 -0.0494,0.99877 -1.5835,-0.0784 0.0494,-0.99877 0,1 -4.40134,0 z m 14.02964,2.99512 0,0 1.12034,0.82941 0.0763,0.0625 1.17512,1.0643 0.0699,0.0699 1.06426,1.17514 0.0625,0.0763 0.93649,1.26498 0.0544,0.0816 0.80436,1.34435 0.046,0.0861 0.12587,0.26636 -1.80823,0.85458 -0.12588,-0.26635 0.90411,-0.4273 -0.85812,0.51343 -0.80435,-1.34436 0.85812,-0.51343 -0.80372,0.595 -0.93648,-1.26498 0.80371,-0.595 -0.74118,0.67128 -1.06433,-1.17514 0.74121,-0.67128 -0.67127,0.74119 -1.17516,-1.0643 0.6713,-0.74119 -0.595,0.80371 -1.12035,-0.82941 z m 7.31472,12.42116 0,0 0.077,1.55557 10e-4,0.0495 0,0 0,6.44254 -2,0 0,-6.44254 1,0 -0.99876,0.0495 -0.077,-1.55557 z m 0.0783,14.04756 0,0 0,8 -2,0 0,-8 z m 0,14 0,0 0,8 -2,0 0,-8 z m 0,14 0,0 0,8 -2,0 0,-8 z m 0,14 0,0 0,8 -2,0 0,-8 z m -0.63339,14.19351 0,0 -0.11841,0.46054 -0.0294,0.0947 -0.53874,1.47192 -0.0382,0.0903 -0.67464,1.40052 -0.0463,0.0852 -0.80249,1.32096 -0.0833,0.11721 -1.81818,2.20366 -1.54266,-1.27284 1.81817,-2.20364 0.77135,0.63641 -0.85466,-0.51919 0.80249,-1.32096 0.85465,0.5192 -0.90091,-0.43396 0.67465,-1.40052 0.90091,0.43396 -0.93906,-0.34368 0.53876,-1.47198 0.93907,0.3437 -0.9685,-0.24898 0.11842,-0.46054 z m -9.36523,10.94074 0,0 -0.35248,0.1698 -0.0903,0.0381 -1.47196,0.53877 -0.0947,0.0294 -1.5354,0.39477 -0.0981,0.0201 -1.59077,0.24273 -0.10046,0.0102 -1.63807,0.0827 -0.0504,0.001 -1.20656,0 0,-2 1.20656,0 0,1 -0.0504,-0.99873 1.63812,-0.0827 0.0504,0.99872 -0.15088,-0.98853 1.59076,-0.2428 0.15087,0.98857 -0.249,-0.9685 1.5354,-0.39482 0.249,0.9685 -0.34368,-0.93908 1.47196,-0.5387 0.34369,0.93906 -0.43399,-0.90094 0.35254,-0.1698 z m -14.22924,1.5279 0,0 -8,0 0,-2 8,0 z m -14,0 0,0 -8,0 0,-2 8,0 z m -14,0 0,0 -8,0 0,-2 8,0 z m -14,0 0,0 -8,0 0,-2 8,0 z m -14,0 0,0 -8,0 0,-2 8,0 z m -14,0 0,0 -8,0 0,-2 8,0 z m -14,0 0,0 -8,0 0,-2 8,0 z m -14,0 0,0 -8,0 0,-2 8,0 z m -14,0 0,0 -8,0 0,-2 8,0 z m -14,0 0,0 -8,0 0,-2 8,0 z m -14,0 0,0 -7.999997,0 0,-2 7.999997,0 z m -13.999997,0 0,0 -0.0422,0 -0.0504,-0.001 -1.63806,-0.0827 -0.10041,-0.0102 -1.59079,-0.24273 -0.0982,-0.0201 -1.5354,-0.39477 -0.0947,-0.0294 -1.47195,-0.53877 -0.0903,-0.0381 -1.40049,-0.67467 -0.066,-0.0349 -0.025,-0.0161 -0.001,-6.1e-4 1.04998,-1.70001 10e-4,6.7e-4 -0.525,0.84997 0.43399,-0.9009 1.40049,0.67465 -0.43399,0.90091 0.34369,-0.93906 1.47195,0.5387 -0.34368,0.93908 0.249,-0.9685 1.5354,0.39482 -0.249,0.9685 0.15084,-0.98857 1.59079,0.2428 -0.15085,0.98853 0.0505,-0.99872 1.63807,0.0827 -0.0505,0.99873 0,-1 0.0422,0 z m -13.0215,-6.12184 0,0 -1.07708,-1.30542 -0.0833,-0.11721 -0.80252,-1.32093 -0.0463,-0.0853 -0.67465,-1.40052 -0.0382,-0.0903 -0.53876,-1.47192 -0.0294,-0.0947 -0.39478,-1.5354 -0.0201,-0.0982 -0.008,-0.054 1.97708,-0.30158 0.008,0.054 -0.98854,0.15078 0.96849,-0.24898 0.39478,1.5354 -0.96849,0.24898 0.93905,-0.3437 0.53876,1.47198 -0.93906,0.34368 0.90091,-0.43396 0.67466,1.40052 -0.90091,0.43396 0.85463,-0.51923 0.80252,1.32099 -0.85463,0.51919 0.77133,-0.63641 1.07709,1.30542 z m -4.04196,-13.7048 0,0 0,-8 2,0 0,8 z m 0,-14 0,0 0,-8 2,0 0,8 z m 0,-14 0,0 0,-8 2,0 0,8 z m 0,-14 0,0 0,-8 2,0 0,8 z m 0,-14 0,0 0,-5.27805 2,0 0,5.27805 z"
     id="path6187"
     style="fill:#073763;fill-rule:nonzero" />
  <path
     d="m 4.0544029,11.790939 0,0 c 0,-3.1079201 2.51948,-5.6274001 5.62741,-5.6274001 l 80.8081801,0 c 1.49246,0 2.92383,0.59288 3.97916,1.64822 1.05536,1.05535 1.64825,2.4867001 1.64825,3.9791801 l 0,22.50897 c 0,3.10793 -2.5195,5.62741 -5.62741,5.62741 l -80.8081801,0 c -3.10793,0 -5.62741,-2.51948 -5.62741,-5.62741 z"
     id="path6189"
     style="fill:#cfe2f3;fill-rule:nonzero;stroke:#073763;stroke-width:2;stroke-linecap:butt;stroke-linejoin:round;stroke-miterlimit:10;stroke-dasharray:8, 2;stroke-dashoffset:0" />
  <path
     d="m 16.251793,29.015279 0,-13.59375 1.84375,0 7.14062,10.67188 0,-10.67188 1.71875,0 0,13.59375 -1.84375,0 -7.14062,-10.6875 0,10.6875 -1.71875,0 z m 20.03125,-3.17187 1.71875,0.21875 q -0.40625,1.5 -1.50782,2.33594 -1.10156,0.83593 -2.82031,0.83593 -2.15625,0 -3.42187,-1.32812 -1.26563,-1.32813 -1.26563,-3.73438 0,-2.48437 1.27344,-3.85937 1.27344,-1.375 3.32031,-1.375 1.98438,0 3.23438,1.34375 1.25,1.34375 1.25,3.79687 0,0.14063 -0.0156,0.4375 l -7.34375,0 q 0.0937,1.625 0.92188,2.48438 0.82812,0.85937 2.0625,0.85937 0.90625,0 1.55468,-0.47656 0.64844,-0.47656 1.03907,-1.53906 z m -5.48438,-2.70313 5.5,0 q -0.10937,-1.23437 -0.625,-1.85937 -0.79687,-0.96875 -2.07812,-0.96875 -1.14063,0 -1.92969,0.77344 -0.78906,0.77343 -0.86719,2.05468 z m 10.9375,5.875 -3.01562,-9.85937 1.71875,0 1.5625,5.6875 0.59375,2.125 q 0.0312,-0.15625 0.5,-2.03125 l 1.57812,-5.78125 1.71875,0 1.46875,5.71875 0.48438,1.89062 0.57812,-1.90625 1.6875,-5.70312 1.625,0 -3.07812,9.85937 -1.73438,0 -1.57812,-5.90625 -0.375,-1.67187 -2,7.57812 -1.73438,0 z m 17.14063,0 0,-13.59375 9.17187,0 0,1.59375 -7.375,0 0,4.21875 6.375,0 0,1.60938 -6.375,0 0,6.17187 -1.79687,0 z m 11.09375,-11.6875 0,-1.90625 1.67187,0 0,1.90625 -1.67187,0 z m 0,11.6875 0,-9.85937 1.67187,0 0,9.85937 -1.67187,0 z m 4.09375,0 0,-13.59375 1.67187,0 0,13.59375 -1.67187,0 z m 10.9375,-3.17187 1.71873,0.21875 q -0.40625,1.5 -1.5078,2.33594 -1.10156,0.83593 -2.82031,0.83593 -2.15625,0 -3.42187,-1.32812 -1.26563,-1.32813 -1.26563,-3.73438 0,-2.48437 1.27344,-3.85937 1.27344,-1.375 3.32031,-1.375 1.98438,0 3.23438,1.34375 1.24998,1.34375 1.24998,3.79687 0,0.14063 -0.0156,0.4375 l -7.34374,0 q 0.0937,1.625 0.92188,2.48438 0.82812,0.85937 2.0625,0.85937 0.90625,0 1.55468,-0.47656 0.64844,-0.47656 1.03907,-1.53906 z m -5.48438,-2.70313 5.5,0 q -0.10937,-1.23437 -0.625,-1.85937 -0.79687,-0.96875 -2.07812,-0.96875 -1.14063,0 -1.92969,0.77344 -0.78906,0.77343 -0.86719,2.05468 z"
     id="path6191"
     style="fill:#000000;fill-rule:nonzero" />
  <path
     d="m 277.11277,124.61034 0,0 c 0,-8.84832 7.17298,-16.02131 16.02131,-16.02131 l 201.53217,0 c 4.2491,0 8.3242,1.68794 11.32876,4.69253 3.00458,3.00458 4.69254,7.07967 4.69254,11.32878 l 0,64.08335 c 0,8.84834 -7.17295,16.02134 -16.0213,16.02134 l -201.53217,0 c -8.84833,0 -16.02131,-7.173 -16.02131,-16.02134 z"
     id="path6193"
     style="fill:#cfe2f3;fill-rule:nonzero" />
  <path
     d="m 276.11405,124.55993 0,0 0.0827,-1.63809 0.0102,-0.10045 0.2428,-1.59076 0.02,-0.0982 0.39483,-1.5354 0.0294,-0.0947 0.53876,-1.47196 0.0382,-0.0903 0.67465,-1.40051 0.0465,-0.0856 0.0225,-0.037 1.7088,1.03912 -0.0225,0.037 -0.85444,-0.51956 0.90092,0.43397 -0.67465,1.40051 -0.90091,-0.43397 0.93904,0.3437 -0.53874,1.47196 -0.93906,-0.34371 0.96848,0.24903 -0.39478,1.5354 -0.9685,-0.24903 0.98852,0.15087 -0.24274,1.59076 -0.98855,-0.15087 0.99872,0.0504 -0.0827,1.63809 z m 6.153,-12.95575 0,0 1.27294,-1.05029 0.11722,-0.0833 1.32094,-0.80249 0.0192,-0.0114 0.066,-0.0349 1.40051,-0.67465 0.0903,-0.0382 1.472,-0.53876 0.0947,-0.0294 1.5354,-0.3948 0.0983,-0.0202 0.0956,-0.0146 0.30157,1.97727 -0.0956,0.0146 -0.15079,-0.98864 0.24903,0.96849 -1.5354,0.39481 -0.24903,-0.96849 0.34369,0.93906 -1.47192,0.53875 -0.34372,-0.93905 0.43398,0.90091 -1.4005,0.67465 -0.434,-0.90091 0.5192,0.85464 -1.32095,0.80249 -0.5192,-0.85464 0.63642,0.77133 -1.27295,1.05029 z m 13.7144,-4.01514 0,0 8,0 0,2 -8,0 z m 14,0 0,0 8,0 0,2 -8,0 z m 14,0 0,0 8,0 0,2 -8,0 z m 14,0 0,0 8,0 0,2 -8,0 z m 14,0 0,0 8,0 0,2 -8,0 z m 14,0 0,0 8,0 0,2 -8,0 z m 14,0 0,0 8,0 0,2 -8,0 z m 14,0 0,0 8,0 0,2 -8,0 z m 14,0 0,0 8,0 0,2 -8,0 z m 14,0 0,0 8,0 0,2 -8,0 z m 14,0 0,0 8,0 0,2 -8,0 z m 14,0 0,0 8,0 0,2 -8,0 z m 14,0 0,0 8,0 0,2 -8,0 z m 14,0 0,0 8,0 0,2 -8,0 z m 14,0 0,0 2.6848,0 0.0495,0.001 1.5835,0.0784 0.0981,0.01 1.5567,0.23227 0.0961,0.0192 1.51937,0.38184 0.0935,0.0284 0.5547,0.1987 -0.67434,1.88284 -0.55481,-0.1987 0.33722,-0.94142 -0.24372,0.96983 -1.51935,-0.38183 0.2437,-0.96984 -0.14756,0.98905 -1.5567,-0.23227 0.14756,-0.98905 -0.0494,0.99877 -1.5835,-0.0784 0.0494,-0.99877 0,1 -2.6848,0 z m 13.74885,4.10364 0,0 0.93605,0.84772 0.0699,0.0699 1.06427,1.17514 0.0625,0.0763 0.93652,1.26499 0.0544,0.0816 0.8043,1.34436 0.046,0.0861 0.6679,1.41318 0.0374,0.0901 0.15115,0.42191 -1.88296,0.67441 -0.15114,-0.4219 0.9415,-0.33721 -0.90413,0.42729 -0.66791,-1.41317 0.90414,-0.4273 -0.8582,0.51342 -0.8043,-1.34436 0.85815,-0.51342 -0.80371,0.59502 -0.93654,-1.26499 0.8037,-0.59501 -0.7412,0.67126 -1.06425,-1.17514 0.74121,-0.67126 -0.67133,0.74118 -0.93593,-0.84772 z m 5.95725,13.07678 0,0 0,8 -2,0 0,-8 z m 0,14 0,0 0,8 -2,0 0,-8 z m 0,14 0,0 0,8 -2,0 0,-8 z m 0,14 0,0 0,8 -2,0 0,-8 z m 0,14 0,0 0,7.92423 0,0 -10e-4,0.0507 -0.004,0.0757 -1.99756,-0.10144 0.004,-0.0757 0.99876,0.0507 -1,0 0,-7.92423 z m -1.20774,14.19767 0,0 -0.11216,0.30648 -0.0382,0.0903 -0.67467,1.40051 -0.0463,0.0852 -0.80247,1.32096 -0.0832,0.11721 -1.95644,2.37113 -0.13486,0.13495 -1.15665,0.95428 -1.27285,-1.54272 1.15664,-0.95428 0.63642,0.77135 -0.7713,-0.63641 1.9563,-2.37112 0.77134,0.63641 -0.8546,-0.51919 0.8025,-1.32096 0.8546,0.5192 -0.9009,-0.43398 0.6747,-1.40053 0.9009,0.43399 -0.9391,-0.34371 0.1122,-0.30649 z m -10.47826,9.88342 0,0 -0.2273,0.0832 -0.0947,0.0295 -1.5354,0.39477 -0.0982,0.0201 -1.59074,0.24273 -0.10046,0.0102 -1.63806,0.0827 -0.0504,0.001 -2.9232,0 0,-2 2.9232,0 0,1 -0.0504,-0.99873 1.63807,-0.0827 0.0504,0.99872 -0.1509,-0.98853 1.59076,-0.2428 0.15088,0.98857 -0.24904,-0.9685 1.5354,-0.39482 0.24904,0.9685 -0.34374,-0.93902 0.2274,-0.0833 z m -14.2585,0.86448 0,0 -8,0 0,-2 8,0 z m -14,0 0,0 -8,0 0,-2 8,0 z m -14,0 0,0 -8,0 0,-2 8,0 z m -14,0 0,0 -8,0 0,-2 8,0 z m -14,0 0,0 -8,0 0,-2 8,0 z m -14,0 0,0 -8,0 0,-2 8,0 z m -14,0 0,0 -8,0 0,-2 8,0 z m -14,0 0,0 -8,0 0,-2 8,0 z m -14,0 0,0 -8,0 0,-2 8,0 z m -14,0 0,0 -8,0 0,-2 8,0 z m -14,0 0,0 -8,0 0,-2 8,0 z m -14,0 0,0 -8,0 0,-2 8,0 z m -14,0 0,0 -8,0 0,-2 8,0 z m -14,0 0,0 -8,0 0,-2 8,0 z m -14.22406,-0.3923 0,0 -1.39819,-0.3595 -0.0947,-0.0294 -1.47197,-0.53877 -0.0903,-0.0381 -1.40051,-0.67467 -0.066,-0.0349 -0.0192,-0.0114 -1.32097,-0.80249 -0.11719,-0.0833 -1.45684,-1.20202 1.27282,-1.54267 1.45685,1.20202 -0.63642,0.77133 0.51923,-0.85464 1.32092,0.80256 -0.5192,0.8546 0.434,-0.9009 1.4005,0.67465 -0.43398,0.90091 0.34368,-0.93906 1.47196,0.5387 -0.34369,0.93908 0.24903,-0.9685 1.3982,0.35956 z m -11.45814,-8.73414 0,0 -0.58995,-1.22474 -0.0382,-0.0903 -0.53876,-1.47192 -0.0294,-0.0947 -0.39483,-1.5354 -0.02,-0.0982 -0.2428,-1.59076 -0.0102,-0.10043 -0.0827,-1.6381 -0.001,-0.0504 0,0 0,-0.2384 2,0 0,0.2384 -1,0 0.99872,-0.0504 0.0827,1.6381 -0.99872,0.0504 0.98855,-0.15085 0.24274,1.59076 -0.98852,0.15084 0.9685,-0.249 0.39478,1.5354 -0.96848,0.249 0.93906,-0.3437 0.53874,1.47198 -0.93904,0.34368 0.90091,-0.43396 0.58996,1.22474 z m -1.94808,-14.1333 0,0 0,-8 2,0 0,8 z m 0,-14 0,0 0,-8 2,0 0,8 z m 0,-14 0,0 0,-8 2,0 0,8 z m 0,-14 0,0 0,-8 2,0 0,8 z m 0,-14 0,0 0,-1.84495 2,0 0,1.84495 z"
     id="path6195"
     style="fill:#073763;fill-rule:nonzero" />
  <path
     d="m 97.652813,146.67585 0,0 c 0,-4.04727 3.280977,-7.32823 7.328237,-7.32823 l 137.71687,0 c 1.94357,0 3.80753,0.77208 5.18185,2.14638 1.3743,1.37431 2.14638,3.23828 2.14638,5.18185 l 0,29.31203 c 0,4.04727 -3.28096,7.32825 -7.32823,7.32825 l -137.71687,0 c -4.04726,0 -7.328237,-3.28098 -7.328237,-7.32825 z"
     id="path6197"
     style="fill:#cfe2f3;fill-rule:nonzero;stroke:#073763;stroke-width:2;stroke-linecap:butt;stroke-linejoin:round" />
  <path
     d="m 115.14615,168.86599 0,-13.59375 9.84376,0 0,1.59375 -8.04686,0 0,4.17188 7.53124,0 0,1.59376 -7.53124,0 0,4.625 8.35936,0 0,1.60936 -10.15626,0 z m 12.20314,0 0,-9.85937 1.5,0 0,1.40625 q 1.09376,-1.625 3.14062,-1.625 0.89064,0 1.64064,0.32031 0.75,0.32031 1.11717,0.84375 0.36719,0.52344 0.52343,1.22656 0.0938,0.46874 0.0938,1.625 l 0,6.0625 -1.67186,0 0,-6 q 0,-1.01562 -0.19533,-1.52344 -0.19531,-0.50781 -0.69531,-0.80468 -0.5,-0.29688 -1.17186,-0.29688 -1.0625,0 -1.83595,0.67188 -0.77345,0.67186 -0.77345,2.57812 l 0,5.375 -1.67186,0 z m 16.8125,-3.60936 1.64062,0.21874 q -0.26562,1.6875 -1.375,2.64843 -1.10936,0.96093 -2.73436,0.96093 -2.01564,0 -3.2422,-1.3203 -1.22656,-1.3203 -1.22656,-3.78906 0,-1.59374 0.52343,-2.78907 0.52343,-1.19531 1.60938,-1.79687 1.08595,-0.60156 2.35155,-0.60156 1.6094,0 2.625,0.8125 1.01564,0.8125 1.3125,2.3125 l -1.625,0.25 q -0.23436,-1 -0.8281,-1.5 -0.59376,-0.5 -1.4219,-0.5 -1.2656,0 -2.05468,0.90625 -0.78906,0.90625 -0.78906,2.85937 0,1.98438 0.76564,2.88281 0.7656,0.89843 1.98436,0.89843 0.98438,0 1.64064,-0.60155 0.65624,-0.60155 0.84374,-1.85155 z m 2.875,3.60936 0,-9.85937 1.5,0 0,1.5 q 0.57812,-1.04688 1.0625,-1.38282 0.48436,-0.33593 1.07812,-0.33593 0.84374,0 1.71874,0.54687 l -0.5781,1.54688 q -0.6094,-0.35938 -1.2344,-0.35938 -0.54686,0 -0.97655,0.32813 -0.42969,0.32812 -0.61719,0.90626 -0.28126,0.8906 -0.28126,1.9531 l 0,5.15626 -1.67186,0 z m 6.14062,3.79688 -0.17186,-1.5625 q 0.54686,0.14062 0.9531,0.14062 0.5469,0 0.88282,-0.1875 0.33594,-0.1875 0.55468,-0.51562 0.15626,-0.25 0.5,-1.25 0.0469,-0.14064 0.15626,-0.40624 l -3.73436,-9.87501 1.79686,0 2.04688,5.71875 q 0.40626,1.07812 0.71876,2.28126 0.28124,-1.15626 0.6875,-2.25 l 2.09374,-5.75001 1.67186,0 -3.75,10.03125 q -0.59374,1.625 -0.9375,2.23436 -0.4375,0.82814 -1.0156,1.21095 -0.57814,0.38281 -1.375,0.38281 -0.4844,0 -1.07814,-0.20312 z m 9.40624,-0.0156 0,-13.64061 1.53126,0 0,1.28125 q 0.53124,-0.75 1.21094,-1.125 0.6797,-0.375 1.6328,-0.375 1.26564,0 2.2344,0.64843 0.96874,0.64844 1.46092,1.83594 0.49218,1.18749 0.49218,2.59375 0,1.51564 -0.54686,2.72656 -0.54688,1.21094 -1.57814,1.85158 -1.03124,0.6406 -2.17186,0.6406 -0.84374,0 -1.50782,-0.35155 -0.66406,-0.35155 -1.08592,-0.88281 l 0,4.79686 -1.6719,0 z m 1.51564,-8.65624 q 0,1.90624 0.77343,2.8125 0.77343,0.90624 1.86719,0.90624 1.10938,0 1.89844,-0.9375 0.78906,-0.9375 0.78906,-2.92186 0,-1.875 -0.77344,-2.8125 -0.77342,-0.9375 -1.85156,-0.9375 -1.0625,0 -1.88281,1 -0.82031,1 -0.82031,2.89062 z m 12.51562,3.375 0.23438,1.48438 q -0.70314,0.14062 -1.26564,0.14062 -0.90624,0 -1.40624,-0.28906 -0.5,-0.28906 -0.70312,-0.75 -0.20314,-0.46094 -0.20314,-1.97656 l 0,-5.65625 -1.23436,0 0,-1.3125 1.23436,0 0,-2.4375 1.65626,-1 0,3.4375 1.6875,0 0,1.3125 -1.6875,0 0,5.75001 q 0,0.71874 0.0859,0.92186 0.0859,0.20314 0.28906,0.32814 0.20314,0.125 0.57814,0.125 0.2656,0 0.73436,-0.0781 z m 9.90624,5.5 q -1.375,-1.75 -2.3281,-4.08594 -0.95314,-2.33592 -0.95314,-4.83592 0,-2.21876 0.70314,-4.23439 0.84374,-2.34375 2.5781,-4.67187 l 1.20314,0 q -1.125,1.92187 -1.48438,2.75 -0.5625,1.28125 -0.89062,2.67187 -0.40624,1.73439 -0.40624,3.48439 0,4.46874 2.78124,8.92186 l -1.20314,0 z m 1.75,-4 5.2344,-13.59375 1.9375,0 5.5625,13.59375 -2.0469,0 -1.59374,-4.125 -5.6875,0 -1.48436,4.125 -1.9219,0 z m 3.9219,-5.57812 4.60936,0 -1.40626,-3.78125 q -0.65624,-1.70313 -0.96874,-2.8125 -0.26562,1.3125 -0.73436,2.59375 l -1.5,4 z m 10.04686,5.57812 0,-13.59375 9.84374,0 0,1.59375 -8.04686,0 0,4.17188 7.53126,0 0,1.59376 -7.53126,0 0,4.625 8.35936,0 0,1.60936 -10.15624,0 z m 11.79688,-4.375 1.6875,-0.14062 q 0.125,1.01562 0.5625,1.67186 0.4375,0.65626 1.36718,1.0625 0.92968,0.40626 2.08594,0.40626 1.03124,0 1.82031,-0.3125 0.78907,-0.3125 1.17969,-0.84376 0.39064,-0.53124 0.39064,-1.15624 0,-0.64062 -0.375,-1.11719 -0.375,-0.47657 -1.2344,-0.80467 -0.54686,-0.21876 -2.42186,-0.66408 -1.875,-0.44532 -2.625,-0.85156 -0.96874,-0.51562 -1.44532,-1.26562 -0.47656,-0.75 -0.47656,-1.6875 0,-1.03125 0.58594,-1.92969 0.58594,-0.89844 1.70312,-1.35938 1.11718,-0.46093 2.49218,-0.46093 1.51564,0 2.6719,0.48437 1.15624,0.48438 1.77342,1.42969 0.61718,0.94531 0.66408,2.14844 l -1.71876,0.125 q -0.14064,-1.28125 -0.94532,-1.94532 -0.80468,-0.66406 -2.36718,-0.66406 -1.625,0 -2.375,0.60156 -0.75,0.60157 -0.75,1.44532 0,0.73437 0.53126,1.20312 0.5156,0.46875 2.71092,0.96875 2.19532,0.5 3.00782,0.87499 1.1875,0.5469 1.75781,1.38282 0.57031,0.83594 0.57031,1.92968 0,1.09376 -0.625,2.0547 -0.625,0.96094 -1.78906,1.4922 -1.16406,0.53124 -2.6172,0.53124 -1.84374,0 -3.09374,-0.53907 -1.25,-0.53907 -1.96094,-1.61717 -0.71092,-1.07814 -0.74218,-2.45314 z m 13.9375,8.375 -1.1875,0 q 2.76562,-4.45312 2.76562,-8.92186 0,-1.7344 -0.39062,-3.45314 -0.32814,-1.39062 -0.89064,-2.67187 -0.35936,-0.84375 -1.48436,-2.78125 l 1.1875,0 q 1.75,2.32812 2.57812,4.67187 0.71874,2.01563 0.71874,4.23439 0,2.5 -0.96093,4.83592 -0.96093,2.33594 -2.33593,4.08594 z"
     id="path6199"
     style="fill:#000000;fill-rule:nonzero" />
  <path
     d="m 303.56947,146.6706 0,0 c 0,-4.33429 3.51361,-7.84791 7.8479,-7.84791 l 164.99708,0 c 2.0814,0 4.07757,0.82682 5.5493,2.2986 1.4718,1.47177 2.2986,3.46792 2.2986,5.54931 l 0,31.39076 c 0,4.33429 -3.5136,7.84794 -7.8479,7.84794 l -164.99708,0 c -4.33429,0 -7.8479,-3.51365 -7.8479,-7.84794 z"
     id="path6201"
     style="fill:#ea9999;fill-rule:nonzero;stroke:#073763;stroke-width:2;stroke-linecap:butt;stroke-linejoin:round" />
  <path
     d="m 316.1692,164.4873 1.6875,-0.14063 q 0.125,1.01563 0.5625,1.67188 0.4375,0.65625 1.36719,1.0625 0.92969,0.40625 2.08594,0.40625 1.03125,0 1.82032,-0.3125 0.78905,-0.3125 1.17968,-0.84375 0.39062,-0.53125 0.39062,-1.15625 0,-0.64063 -0.375,-1.11719 -0.375,-0.47656 -1.23437,-0.80468 -0.54688,-0.21876 -2.42188,-0.66407 -1.875,-0.44531 -2.625,-0.85156 -0.96875,-0.51563 -1.44531,-1.26563 -0.47656,-0.75 -0.47656,-1.6875 0,-1.03124 0.58592,-1.92968 0.58595,-0.89844 1.70314,-1.35938 1.11719,-0.46094 2.49219,-0.46094 1.51562,0 2.67187,0.48438 1.15625,0.48438 1.77344,1.42968 0.61719,0.94532 0.66406,2.14844 l -1.71875,0.125 q -0.14062,-1.28124 -0.94531,-1.94531 -0.80469,-0.66406 -2.36719,-0.66406 -1.625,0 -2.375,0.60156 -0.75,0.60157 -0.75,1.44531 0,0.73438 0.53125,1.20313 0.51563,0.46875 2.71094,0.96875 2.19531,0.5 3.00781,0.875 1.1875,0.54688 1.75781,1.38281 0.57032,0.83594 0.57032,1.92969 0,1.09375 -0.625,2.05468 -0.625,0.96094 -1.78908,1.4922 -1.16405,0.53124 -2.61717,0.53124 -1.84375,0 -3.09375,-0.53906 -1.25,-0.53906 -1.96094,-1.61718 -0.71094,-1.07813 -0.74219,-2.45313 z m 12.82813,8.15625 0,-13.64062 1.53125,0 0,1.28124 q 0.53125,-0.75 1.21093,-1.125 0.67969,-0.375 1.63282,-0.375 1.26562,0 2.23437,0.64844 0.96875,0.64844 1.46095,1.83594 0.4922,1.1875 0.4922,2.59375 0,1.51563 -0.5469,2.72656 -0.5469,1.21094 -1.57812,1.85157 -1.03125,0.64062 -2.17188,0.64062 -0.84375,0 -1.5078,-0.35156 -0.66407,-0.35156 -1.08595,-0.88282 l 0,4.79688 -1.67187,0 z m 1.51562,-8.65625 q 0,1.90625 0.77344,2.8125 0.77344,0.90625 1.86719,0.90625 1.10937,0 1.89843,-0.9375 0.78904,-0.9375 0.78904,-2.92188 0,-1.875 -0.7734,-2.8125 -0.77345,-0.9375 -1.85157,-0.9375 -1.0625,0 -1.88283,1 -0.8203,1 -0.8203,2.89063 z m 8.8281,4.875 0,-13.59375 1.6719,0 0,13.59375 -1.6719,0 z m 4.20315,-11.6875 0,-1.90625 1.67185,0 0,1.90625 -1.67185,0 z m 0,11.6875 0,-9.85937 1.67185,0 0,9.85937 -1.67185,0 z m 7.78125,-1.5 0.2344,1.48437 q -0.70315,0.14063 -1.26565,0.14063 -0.90625,0 -1.40625,-0.28907 -0.5,-0.28906 -0.7031,-0.75 -0.20315,-0.46093 -0.20315,-1.97656 l 0,-5.65624 -1.23435,0 0,-1.3125 1.23435,0 0,-2.4375 1.65625,-1 0,3.4375 1.6875,0 0,1.3125 -1.6875,0 0,5.75 q 0,0.71874 0.0859,0.92187 0.086,0.20313 0.28906,0.32813 0.2031,0.125 0.5781,0.125 0.26565,0 0.7344,-0.0781 z m 9.8906,5.5 q -1.375,-1.75 -2.3281,-4.08594 -0.9531,-2.33593 -0.9531,-4.83593 0,-2.21876 0.7031,-4.23438 0.84375,-2.34375 2.5781,-4.67188 l 1.20315,0 q -1.125,1.92188 -1.48435,2.75 -0.5625,1.28126 -0.89065,2.67188 -0.40625,1.73438 -0.40625,3.48438 0,4.46874 2.78125,8.92187 l -1.20315,0 z m 9.7813,-7.17187 1.7187,0.21874 q -0.4062,1.5 -1.5078,2.33594 -1.10155,0.83594 -2.8203,0.83594 -2.15625,0 -3.4219,-1.32812 -1.2656,-1.32813 -1.2656,-3.73438 0,-2.48438 1.27344,-3.85938 1.27346,-1.375 3.32031,-1.375 1.98435,0 3.23435,1.34376 1.25,1.34374 1.25,3.79687 0,0.14063 -0.0156,0.4375 l -7.34375,0 q 0.0937,1.625 0.92185,2.48437 0.82815,0.85938 2.0625,0.85938 0.9063,0 1.5547,-0.47656 0.64845,-0.47656 1.0391,-1.53906 z m -5.4844,-2.70313 5.5,0 q -0.1094,-1.23437 -0.625,-1.85937 -0.7969,-0.96876 -2.0781,-0.96876 -1.14065,0 -1.9297,0.77344 -0.7891,0.77344 -0.8672,2.05469 z m 9.09375,5.875 0,-9.85937 1.5,0 0,1.5 q 0.57815,-1.04688 1.0625,-1.38282 0.48435,-0.33594 1.07815,-0.33594 0.8437,0 1.7187,0.54688 l -0.5781,1.54688 q -0.6094,-0.35938 -1.2344,-0.35938 -0.54685,0 -0.97654,0.32812 -0.42966,0.32813 -0.61716,0.90626 -0.2813,0.89062 -0.2813,1.95312 l 0,5.15625 -1.67185,0 z m 12.67185,-1.21875 q -0.9375,0.79688 -1.79685,1.11718 -0.85935,0.32032 -1.84375,0.32032 -1.6094,0 -2.4844,-0.78906 -0.875,-0.78906 -0.875,-2.02344 0,-0.73438 0.32815,-1.32812 0.32815,-0.59376 0.85935,-0.95313 0.5313,-0.35937 1.20315,-0.54687 0.5,-0.14063 1.48435,-0.25 2.0313,-0.25 2.9844,-0.57813 0,-0.34375 0,-0.4375 0,-1.01563 -0.46875,-1.4375 -0.64065,-0.5625 -1.90625,-0.5625 -1.1719,0 -1.7344,0.40625 -0.5625,0.40625 -0.8281,1.46875 l -1.6406,-0.23437 q 0.23435,-1.04688 0.74216,-1.6875 0.50784,-0.64063 1.46874,-0.9922 0.96095,-0.35156 2.2422,-0.35156 1.2656,0 2.0469,0.29688 0.7812,0.29688 1.1562,0.75 0.375,0.45312 0.51565,1.14062 0.0937,0.42188 0.0937,1.53126 l 0,2.23437 q 0,2.32813 0.10156,2.94531 0.10154,0.61719 0.42969,1.17969 l -1.75,0 q -0.26565,-0.51563 -0.32815,-1.21875 z m -0.1406,-3.71875 q -0.90625,0.35937 -2.7344,0.625 -1.0312,0.14063 -1.4531,0.32813 -0.4219,0.1875 -0.65625,0.54687 -0.23435,0.35937 -0.23435,0.79687 0,0.67188 0.5078,1.11719 0.5078,0.44531 1.47655,0.44531 0.96875,0 1.71875,-0.42968 0.75,-0.42969 1.1094,-1.14844 0.2656,-0.57812 0.2656,-1.67188 l 0,-0.60937 z m 3.40625,2 1.65625,-0.26563 q 0.1406,1 0.77344,1.52344 0.63281,0.52344 1.77346,0.52344 1.1562,0 1.7109,-0.46875 0.5547,-0.46875 0.5547,-1.09375 0,-0.5625 -0.4844,-0.89062 -0.3437,-0.21876 -1.7031,-0.5625 -1.84375,-0.46876 -2.5547,-0.8047 -0.7109,-0.33593 -1.0781,-0.9375 -0.3672,-0.60156 -0.3672,-1.3203 0,-0.65626 0.3047,-1.21876 0.3047,-0.5625 0.8203,-0.9375 0.3906,-0.28124 1.0625,-0.48437 0.6719,-0.20313 1.4375,-0.20313 1.1719,0 2.0469,0.33594 0.875,0.33594 1.28904,0.90625 0.41406,0.57031 0.57031,1.52344 l -1.625,0.21875 q -0.10935,-0.75 -0.64845,-1.17969 -0.53905,-0.42969 -1.5078,-0.42969 -1.15625,0 -1.6406,0.38282 -0.4844,0.38281 -0.4844,0.88281 0,0.32813 0.2031,0.59375 0.20315,0.26562 0.64065,0.4375 0.25,0.0937 1.46875,0.4375 1.7656,0.46875 2.46875,0.76562 0.70315,0.29688 1.10155,0.875 0.39845,0.57813 0.39845,1.4375 0,0.82813 -0.48435,1.57032 -0.4844,0.74218 -1.4063,1.14062 -0.92185,0.39844 -2.0781,0.39844 -1.9219,0 -2.9297,-0.79688 -1.0078,-0.79687 -1.28905,-2.35937 z m 16.45315,2.9375 0,-1.45313 q -1.14065,1.67188 -3.125,1.67188 -0.8594,0 -1.6172,-0.33594 -0.7578,-0.33594 -1.125,-0.83594 -0.3672,-0.5 -0.52345,-1.23437 -0.0937,-0.5 -0.0937,-1.5625 l 0,-6.10937 1.6719,0 0,5.46874 q 0,1.3125 0.0937,1.76563 0.1563,0.65625 0.6719,1.03125 0.5156,0.375 1.2656,0.375 0.75,0 1.4063,-0.38282 0.6562,-0.3828 0.92966,-1.04687 0.27344,-0.66406 0.27344,-1.92969 l 0,-5.28124 1.6719,0 0,9.85937 -1.5,0 z m 3.9062,0 0,-9.85937 1.5,0 0,1.5 q 0.57815,-1.04688 1.0625,-1.38282 0.4844,-0.33594 1.07815,-0.33594 0.84375,0 1.71875,0.54688 l -0.5781,1.54688 q -0.6094,-0.35938 -1.2344,-0.35938 -0.5469,0 -0.97656,0.32812 -0.42969,0.32813 -0.61719,0.90626 -0.28125,0.89062 -0.28125,1.95312 l 0,5.15625 -1.6719,0 z m 12.9688,-3.17187 1.7187,0.21874 q -0.4062,1.5 -1.5078,2.33594 -1.10155,0.83594 -2.8203,0.83594 -2.15625,0 -3.4219,-1.32812 -1.2656,-1.32813 -1.2656,-3.73438 0,-2.48438 1.27344,-3.85938 1.27346,-1.375 3.32031,-1.375 1.98435,0 3.23435,1.34376 1.25,1.34374 1.25,3.79687 0,0.14063 -0.0156,0.4375 l -7.34375,0 q 0.0937,1.625 0.92185,2.48437 0.82815,0.85938 2.0625,0.85938 0.9063,0 1.5547,-0.47656 0.64845,-0.47656 1.0391,-1.53906 z m -5.4844,-2.70313 5.5,0 q -0.1094,-1.23437 -0.625,-1.85937 -0.7969,-0.96876 -2.0781,-0.96876 -1.14065,0 -1.9297,0.77344 -0.7891,0.77344 -0.8672,2.05469 z m 20.7344,2.26563 1.6406,0.21874 q -0.2656,1.6875 -1.375,2.64844 -1.1094,0.96094 -2.7344,0.96094 -2.0156,0 -3.24216,-1.32032 -1.22654,-1.3203 -1.22654,-3.78906 0,-1.59374 0.5234,-2.78906 0.52345,-1.19531 1.6094,-1.79688 1.0859,-0.60156 2.35155,-0.60156 1.60935,0 2.625,0.8125 1.01565,0.8125 1.3125,2.3125 l -1.625,0.25 q -0.23435,-1 -0.82815,-1.5 -0.5937,-0.5 -1.42185,-0.5 -1.26565,0 -2.05469,0.90626 -0.78906,0.90624 -0.78906,2.85937 0,1.98437 0.7656,2.88281 0.76565,0.89844 1.9844,0.89844 0.9844,0 1.6406,-0.60156 0.6563,-0.60156 0.8438,-1.85156 z m 2.2656,-1.3125 q 0,-2.73438 1.53125,-4.0625 1.26565,-1.09376 3.09375,-1.09376 2.03125,0 3.3203,1.33594 1.2891,1.33594 1.2891,3.67969 0,1.90625 -0.57034,2.99219 -0.57031,1.08594 -1.65626,1.6875 -1.0859,0.60156 -2.3828,0.60156 -2.0625,0 -3.34375,-1.32812 -1.28125,-1.32813 -1.28125,-3.8125 z m 1.71875,0 q 0,1.89062 0.82815,2.82812 0.8281,0.9375 2.0781,0.9375 1.25,0 2.0703,-0.94532 0.8203,-0.9453 0.8203,-2.8828 0,-1.82813 -0.8281,-2.76563 -0.8281,-0.9375 -2.0625,-0.9375 -1.25,0 -2.0781,0.9375 -0.82815,0.9375 -0.82815,2.82813 z m 15.67185,4.92187 0,-1.25 q -0.9375,1.46875 -2.75,1.46875 -1.17185,0 -2.16404,-0.64844 -0.99216,-0.64844 -1.53126,-1.8125 -0.53905,-1.16406 -0.53905,-2.67968 0,-1.46876 0.49219,-2.67188 0.49216,-1.20312 1.46876,-1.84375 0.97655,-0.64063 2.1953,-0.64063 0.8906,0 1.58594,0.375 0.69531,0.375 1.13281,0.98438 l 0,-4.875 1.65625,0 0,13.59375 -1.5469,0 z m -5.2812,-4.92187 q 0,1.89062 0.80466,2.82812 0.80469,0.9375 1.88284,0.9375 1.0937,0 1.85935,-0.89062 0.76565,-0.89063 0.76565,-2.73438 0,-2.01562 -0.7813,-2.96094 -0.7812,-0.94531 -1.92185,-0.94531 -1.10935,0 -1.85935,0.90625 -0.75,0.90625 -0.75,2.85938 z m 16.0156,1.75 1.71875,0.21874 q -0.40625,1.5 -1.50781,2.33594 -1.10154,0.83594 -2.82034,0.83594 -2.1562,0 -3.42185,-1.32812 -1.26565,-1.32813 -1.26565,-3.73438 0,-2.48438 1.27346,-3.85938 1.27344,-1.375 3.32034,-1.375 1.98435,0 3.23435,1.34376 1.25,1.34374 1.25,3.79687 0,0.14063 -0.0156,0.4375 l -7.3437,0 q 0.0937,1.625 0.92185,2.48437 0.82815,0.85938 2.0625,0.85938 0.90625,0 1.55469,-0.47656 0.64846,-0.47656 1.03906,-1.53906 z m -5.4844,-2.70313 5.5,0 q -0.10935,-1.23437 -0.625,-1.85937 -0.79685,-0.96876 -2.0781,-0.96876 -1.1406,0 -1.9297,0.77344 -0.78905,0.77344 -0.8672,2.05469 z m 10.20315,9.875 -1.1875,0 q 2.76565,-4.45313 2.76565,-8.92187 0,-1.73438 -0.39065,-3.45313 -0.32815,-1.39063 -0.89065,-2.67187 -0.35935,-0.84376 -1.48435,-2.78126 l 1.1875,0 q 1.75,2.32813 2.57815,4.67188 0.7187,2.01562 0.7187,4.23438 0,2.5 -0.9609,4.83593 -0.96095,2.33594 -2.33595,4.08594 z"
     id="path6203"
     style="fill:#000000;fill-rule:nonzero" />
  <path
     d="m 25.007783,249.62863 0,0 c 0,-4.42417 3.58649,-8.0107 8.01065,-8.0107 l 82.151897,0 c 2.12457,0 4.16212,0.844 5.6644,2.3463 1.50229,1.5023 2.34628,3.53982 2.34628,5.6644 l 0,32.04165 c 0,4.42417 -3.58652,8.01068 -8.01068,8.01068 l -82.151897,0 c -4.42416,0 -8.01065,-3.58651 -8.01065,-8.01068 z"
     id="path6205"
     style="fill:#ea9999;fill-rule:nonzero;stroke:#073763;stroke-width:2;stroke-linecap:butt;stroke-linejoin:round" />
  <path
     d="m 38.983213,261.14288 0,-13.59375 9.84375,0 0,1.59375 -8.04687,0 0,4.17187 7.53125,0 0,1.59375 -7.53125,0 0,4.625 8.35937,0 0,1.60938 -10.15625,0 z m 11.07813,0 3.59375,-5.125 -3.32813,-4.73438 2.09375,0 1.51563,2.3125 q 0.42187,0.65625 0.67187,1.10938 0.42188,-0.60938 0.76563,-1.09375 l 1.65625,-2.32813 1.98437,0 -3.39062,4.64063 3.65625,5.21875 -2.04688,0 -2.03125,-3.0625 -0.53125,-0.82813 -2.59375,3.89063 -2.01562,0 z m 14.09375,-1.5 0.23437,1.48437 q -0.70312,0.14063 -1.26562,0.14063 -0.90625,0 -1.40625,-0.28907 -0.5,-0.28906 -0.70313,-0.75 -0.20312,-0.46093 -0.20312,-1.97656 l 0,-5.65625 -1.23438,0 0,-1.3125 1.23438,0 0,-2.4375 1.65625,-1 0,3.4375 1.6875,0 0,1.3125 -1.6875,0 0,5.75 q 0,0.71875 0.0859,0.92188 0.0859,0.20312 0.28907,0.32812 0.20312,0.125 0.57812,0.125 0.26563,0 0.73438,-0.0781 z m 8.28125,-1.67188 1.71875,0.21875 q -0.40625,1.5 -1.50782,2.33594 -1.10156,0.83594 -2.82031,0.83594 -2.15625,0 -3.42187,-1.32813 -1.26563,-1.32812 -1.26563,-3.73437 0,-2.48438 1.27344,-3.85938 1.27344,-1.375 3.32031,-1.375 1.98438,0 3.23438,1.34375 1.25,1.34375 1.25,3.79688 0,0.14062 -0.0156,0.4375 l -7.34375,0 q 0.0937,1.625 0.92188,2.48437 0.82812,0.85938 2.0625,0.85938 0.90625,0 1.55468,-0.47657 0.64844,-0.47656 1.03907,-1.53906 z m -5.48438,-2.70312 5.5,0 q -0.10937,-1.23438 -0.625,-1.85938 -0.79687,-0.96875 -2.07812,-0.96875 -1.14063,0 -1.92969,0.77344 -0.78906,0.77344 -0.86719,2.05469 z m 9.09375,5.875 0,-9.85938 1.5,0 0,1.5 q 0.57813,-1.04687 1.0625,-1.38281 0.48438,-0.33594 1.07813,-0.33594 0.84373,0 1.71873,0.54688 l -0.57812,1.54687 q -0.60938,-0.35937 -1.23436,-0.35937 -0.54688,0 -0.97657,0.32812 -0.42968,0.32813 -0.61718,0.90625 -0.28125,0.89063 -0.28125,1.95313 l 0,5.15625 -1.67188,0 z m 6.21874,0 0,-9.85938 1.5,0 0,1.40625 q 1.09375,-1.625 3.14062,-1.625 0.89063,0 1.64063,0.32031 0.75,0.32032 1.11718,0.84375 0.36719,0.52344 0.52344,1.22657 0.0937,0.46875 0.0937,1.625 l 0,6.0625 -1.67187,0 0,-6 q 0,-1.01563 -0.19532,-1.52345 -0.19531,-0.5078 -0.69531,-0.80468 -0.5,-0.29687 -1.17187,-0.29687 -1.0625,0 -1.83595,0.67187 -0.77343,0.67188 -0.77343,2.57813 l 0,5.375 -1.67187,0 z m 16.8125,-1.21875 q -0.9375,0.79687 -1.79688,1.11718 -0.85937,0.32032 -1.84375,0.32032 -1.60937,0 -2.48437,-0.78907 -0.875,-0.78906 -0.875,-2.02343 0,-0.73438 0.32812,-1.32813 0.32813,-0.59375 0.85938,-0.95312 0.53125,-0.35938 1.20312,-0.54688 0.5,-0.14062 1.48438,-0.25 2.03125,-0.25 2.98437,-0.57812 0,-0.34375 0,-0.4375 0,-1.01563 -0.46875,-1.4375 -0.64062,-0.5625 -1.90625,-0.5625 -1.17187,0 -1.73437,0.40625 -0.5625,0.40625 -0.82813,1.46875 l -1.64062,-0.23438 q 0.23437,-1.04687 0.74218,-1.6875 0.50782,-0.64062 1.46875,-0.99219 0.96094,-0.35156 2.24219,-0.35156 1.26563,0 2.04688,0.29688 0.78125,0.29687 1.156247,0.75 0.375,0.45312 0.51562,1.14062 0.0937,0.42188 0.0937,1.53125 l 0,2.23438 q 0,2.32812 0.10156,2.94531 0.10157,0.61719 0.42969,1.17969 l -1.749997,0 q -0.26562,-0.51563 -0.32812,-1.21875 z m -0.14063,-3.71875 q -0.90625,0.35937 -2.73437,0.625 -1.03125,0.14062 -1.45313,0.32812 -0.42187,0.1875 -0.65625,0.54688 -0.23437,0.35937 -0.23437,0.79687 0,0.67188 0.50781,1.11718 0.50781,0.44532 1.47656,0.44532 0.96875,0 1.71875,-0.42969 0.75,-0.42968 1.10938,-1.14843 0.26562,-0.57813 0.26562,-1.67188 l 0,-0.60937 z m 4.046877,4.9375 0,-13.59375 1.67187,0 0,13.59375 -1.67187,0 z"
     id="path6207"
     style="fill:#000000;fill-rule:nonzero" />
  <path
     d="m 43.061343,282.14288 0,-13.59375 1.84375,0 7.14062,10.67187 0,-10.67187 1.71875,0 0,13.59375 -1.84375,0 -7.14062,-10.6875 0,10.6875 -1.71875,0 z m 12.65625,-4.92188 q 0,-2.73437 1.53125,-4.0625 1.26562,-1.09375 3.09375,-1.09375 2.03125,0 3.32031,1.33594 1.28906,1.33594 1.28906,3.67969 0,1.90625 -0.57031,2.99218 -0.57031,1.08594 -1.65625,1.6875 -1.08594,0.60157 -2.38281,0.60157 -2.0625,0 -3.34375,-1.32813 -1.28125,-1.32812 -1.28125,-3.8125 z m 1.71875,0 q 0,1.89063 0.82812,2.82813 0.82813,0.9375 2.07813,0.9375 1.25,0 2.07031,-0.94532 0.82031,-0.94531 0.82031,-2.88281 0,-1.82812 -0.82812,-2.76562 -0.82813,-0.9375 -2.0625,-0.9375 -1.25,0 -2.07813,0.9375 -0.82812,0.9375 -0.82812,2.82812 z m 15.67187,4.92188 0,-1.25 q -0.9375,1.46875 -2.75,1.46875 -1.17187,0 -2.16406,-0.64844 -0.99219,-0.64844 -1.53125,-1.8125 -0.53906,-1.16406 -0.53906,-2.67969 0,-1.46875 0.49218,-2.67187 0.49219,-1.20313 1.46875,-1.84375 0.97657,-0.64063 2.19532,-0.64063 0.89062,0 1.58593,0.375 0.69532,0.375 1.13282,0.98438 l 0,-4.875 1.65625,0 0,13.59375 -1.54688,0 z m -5.28125,-4.92188 q 0,1.89063 0.80469,2.82813 0.80469,0.9375 1.88281,0.9375 1.09375,0 1.85938,-0.89063 0.76562,-0.89062 0.76562,-2.73437 0,-2.01563 -0.78125,-2.96094 -0.78125,-0.94531 -1.92187,-0.94531 -1.10938,0 -1.85938,0.90625 -0.75,0.90625 -0.75,2.85937 z m 16.01561,1.75 1.71875,0.21875 q -0.40625,1.5 -1.50781,2.33594 -1.10156,0.83594 -2.82031,0.83594 -2.15624,0 -3.42186,-1.32813 -1.26563,-1.32812 -1.26563,-3.73437 0,-2.48438 1.27344,-3.85938 1.27344,-1.375 3.3203,-1.375 1.98437,0 3.23437,1.34375 1.25,1.34375 1.25,3.79688 0,0.14062 -0.0156,0.4375 l -7.34374,0 q 0.0937,1.625 0.92188,2.48437 0.82811,0.85938 2.06248,0.85938 0.90625,0 1.55469,-0.47657 0.64844,-0.47656 1.03906,-1.53906 z m -5.48436,-2.70312 5.49999,0 q -0.10938,-1.23438 -0.625,-1.85938 -0.79688,-0.96875 -2.07813,-0.96875 -1.14062,0 -1.92967,0.77344 -0.78906,0.77344 -0.86719,2.05469 z m 20.12499,5.875 -1.67188,0 0,-10.64063 q -0.59375,0.57813 -1.57812,1.14844 -0.98438,0.57031 -1.76563,0.86719 l 0,-1.625 q 1.40625,-0.65625 2.45313,-1.59375 1.04687,-0.9375 1.48437,-1.8125 l 1.07813,0 0,13.65625 z"
     id="path6209"
     style="fill:#000000;fill-rule:nonzero" />
  <path
     d="m 150.36735,249.86613 0,0 c 0,-4.42415 3.5865,-8.01064 8.01065,-8.01064 l 82.15192,0 c 2.12457,0 4.16211,0.84397 5.6644,2.34624 1.50229,1.5023 2.34625,3.53987 2.34625,5.6644 l 0,32.0417 c 0,4.42416 -3.58649,8.01065 -8.01065,8.01065 l -82.15192,0 c -4.42415,0 -8.01065,-3.58649 -8.01065,-8.01065 z"
     id="path6211"
     style="fill:#ea9999;fill-rule:nonzero;stroke:#073763;stroke-width:2;stroke-linecap:butt;stroke-linejoin:round" />
  <path
     d="m 164.34279,261.38043 0,-13.59375 9.84376,0 0,1.59375 -8.0469,0 0,4.17187 7.53126,0 0,1.59375 -7.53126,0 0,4.625 8.3594,0 0,1.60938 -10.15626,0 z m 11.07812,0 3.59374,-5.125 -3.3281,-4.73438 2.09374,0 1.51562,2.3125 q 0.42188,0.65625 0.67188,1.10938 0.42186,-0.60938 0.76562,-1.09375 l 1.65624,-2.32813 1.9844,0 -3.39064,4.64063 3.65624,5.21875 -2.04686,0 -2.03124,-3.0625 -0.53126,-0.82813 -2.59374,3.89063 -2.01564,0 z m 14.09374,-1.5 0.2344,1.48437 q -0.70314,0.14063 -1.26564,0.14063 -0.90626,0 -1.40626,-0.28907 -0.5,-0.28906 -0.7031,-0.75 -0.20314,-0.46093 -0.20314,-1.97656 l 0,-5.65625 -1.23436,0 0,-1.3125 1.23436,0 0,-2.4375 1.65624,-1 0,3.4375 1.6875,0 0,1.3125 -1.6875,0 0,5.75 q 0,0.71875 0.086,0.92188 0.0859,0.20312 0.28905,0.32812 0.20314,0.125 0.57814,0.125 0.26562,0 0.73436,-0.0781 z m 8.28126,-1.67188 1.71874,0.21875 q -0.40624,1.5 -1.5078,2.33593 -1.10156,0.83595 -2.8203,0.83595 -2.15626,0 -3.4219,-1.32813 -1.2656,-1.32812 -1.2656,-3.73437 0,-2.48438 1.27342,-3.85938 1.27344,-1.375 3.32032,-1.375 1.98436,0 3.23436,1.34375 1.25,1.34375 1.25,3.79688 0,0.14062 -0.0156,0.4375 l -7.34376,0 q 0.0938,1.625 0.92186,2.48437 0.82814,0.85938 2.0625,0.85938 0.90626,0 1.5547,-0.47657 0.64844,-0.47656 1.03906,-1.53906 z m -5.48436,-2.70312 5.5,0 q -0.1094,-1.23438 -0.625,-1.85938 -0.7969,-0.96875 -2.07814,-0.96875 -1.14062,0 -1.92969,0.77343 -0.78907,0.77345 -0.86717,2.0547 z m 9.09374,5.875 0,-9.85938 1.5,0 0,1.5 q 0.57812,-1.04687 1.0625,-1.38282 0.48436,-0.33593 1.07812,-0.33593 0.84374,0 1.71874,0.54688 l -0.5781,1.54687 q -0.6094,-0.35937 -1.2344,-0.35937 -0.54686,0 -0.97655,0.32812 -0.42969,0.32813 -0.61719,0.90625 -0.28126,0.89063 -0.28126,1.95313 l 0,5.15625 -1.67186,0 z m 6.21876,0 0,-9.85938 1.5,0 0,1.40625 q 1.09374,-1.625 3.1406,-1.625 0.89064,0 1.64064,0.32031 0.75,0.32032 1.11718,0.84375 0.36718,0.52344 0.52344,1.22657 0.0937,0.46875 0.0937,1.625 l 0,6.0625 -1.67186,0 0,-6 q 0,-1.01563 -0.19532,-1.52344 -0.19532,-0.50781 -0.69532,-0.80469 -0.5,-0.29687 -1.17186,-0.29687 -1.0625,0 -1.83594,0.67187 -0.77344,0.67188 -0.77344,2.57813 l 0,5.375 -1.67186,0 z m 16.8125,-1.21875 q -0.9375,0.79687 -1.7969,1.11718 -0.85936,0.32032 -1.84374,0.32032 -1.60936,0 -2.48436,-0.78907 -0.875,-0.78906 -0.875,-2.02343 0,-0.73438 0.3281,-1.32813 0.32814,-0.59375 0.8594,-0.95312 0.53124,-0.35938 1.2031,-0.54688 0.5,-0.14062 1.4844,-0.25 2.03124,-0.25 2.98436,-0.57812 0,-0.34375 0,-0.4375 0,-1.01563 -0.46876,-1.4375 -0.6406,-0.5625 -1.90624,-0.5625 -1.17186,0 -1.73436,0.40625 -0.5625,0.40625 -0.82814,1.46875 l -1.64062,-0.23438 q 0.23436,-1.04687 0.74218,-1.6875 0.50782,-0.64062 1.46875,-0.99219 0.96093,-0.35156 2.24219,-0.35156 1.26564,0 2.04688,0.29688 0.78126,0.29687 1.15626,0.75 0.375,0.45312 0.5156,1.14062 0.0938,0.42188 0.0938,1.53125 l 0,2.23438 q 0,2.32812 0.10156,2.9453 0.10158,0.6172 0.42968,1.1797 l -1.75,0 q -0.2656,-0.51563 -0.3281,-1.21875 z m -0.14064,-3.71875 q -0.90626,0.35937 -2.73436,0.625 -1.03126,0.14062 -1.45314,0.32812 -0.42186,0.1875 -0.65626,0.54688 -0.23436,0.35937 -0.23436,0.79687 0,0.67188 0.50781,1.11719 0.50781,0.44531 1.47655,0.44531 0.96876,0 1.71876,-0.42969 0.75,-0.42968 1.10938,-1.14843 0.26562,-0.57813 0.26562,-1.67188 l 0,-0.60937 z m 4.04688,4.9375 0,-13.59375 1.67186,0 0,13.59375 -1.67186,0 z"
     id="path6213"
     style="fill:#000000;fill-rule:nonzero" />
  <path
     d="m 168.42091,282.38043 0,-13.59375 1.84374,0 7.14064,10.67187 0,-10.67187 1.71876,0 0,13.59375 -1.84376,0 -7.14064,-10.6875 0,10.6875 -1.71874,0 z m 12.65624,-4.92188 q 0,-2.73437 1.53126,-4.0625 1.26564,-1.09375 3.09374,-1.09375 2.03126,0 3.32032,1.33593 1.28908,1.33595 1.28908,3.6797 0,1.90625 -0.57033,2.99218 -0.57031,1.08594 -1.65625,1.6875 -1.08592,0.60157 -2.38282,0.60157 -2.0625,0 -3.34374,-1.32813 -1.28126,-1.32812 -1.28126,-3.8125 z m 1.71876,0 q 0,1.89063 0.82814,2.82813 0.8281,0.9375 2.0781,0.9375 1.25,0 2.07032,-0.94532 0.82032,-0.94531 0.82032,-2.88281 0,-1.82812 -0.82814,-2.76562 -0.8281,-0.9375 -2.0625,-0.9375 -1.25,0 -2.0781,0.9375 -0.82814,0.9375 -0.82814,2.82812 z m 15.67188,4.92188 0,-1.25 q -0.9375,1.46875 -2.75,1.46875 -1.17188,0 -2.16407,-0.64845 -0.99217,-0.64843 -1.53125,-1.8125 -0.53906,-1.16405 -0.53906,-2.67968 0,-1.46875 0.49219,-2.67187 0.49219,-1.20313 1.46875,-1.84375 0.97656,-0.64063 2.1953,-0.64063 0.89064,0 1.58595,0.375 0.69531,0.375 1.13281,0.98438 l 0,-4.875 1.65624,0 0,13.59375 -1.54686,0 z m -5.28124,-4.92188 q 0,1.89063 0.80467,2.82813 0.80469,0.9375 1.88283,0.9375 1.09374,0 1.85936,-0.89063 0.76564,-0.89062 0.76564,-2.73437 0,-2.01563 -0.78126,-2.96095 -0.78124,-0.9453 -1.92188,-0.9453 -1.10936,0 -1.85936,0.90625 -0.75,0.90625 -0.75,2.85937 z m 16.0156,1.75 1.71876,0.21875 q -0.40626,1.5 -1.50781,2.33593 -1.10155,0.83595 -2.82031,0.83595 -2.15624,0 -3.42188,-1.32813 -1.26562,-1.32812 -1.26562,-3.73437 0,-2.48438 1.27343,-3.85938 1.27343,-1.375 3.32033,-1.375 1.98436,0 3.23436,1.34375 1.25,1.34375 1.25,3.79688 0,0.14062 -0.0156,0.4375 l -7.34374,0 q 0.0937,1.625 0.92186,2.48437 0.82814,0.85938 2.0625,0.85938 0.90624,0 1.55469,-0.47657 0.64845,-0.47656 1.03905,-1.53906 z m -5.48436,-2.70312 5.5,0 q -0.10938,-1.23438 -0.625,-1.85938 -0.79688,-0.96875 -2.07814,-0.96875 -1.1406,0 -1.92968,0.77343 -0.78906,0.77345 -0.86718,2.0547 z m 22.60936,4.26562 0,1.60938 -8.98436,0 q -0.0156,-0.60938 0.1875,-1.15625 0.34376,-0.92188 1.10156,-1.8125 0.7578,-0.89063 2.1797,-2.0625 2.21874,-1.8125 3,-2.875 0.78124,-1.0625 0.78124,-2.01563 0,-0.98437 -0.71094,-1.67187 -0.71094,-0.6875 -1.85156,-0.6875 -1.20314,0 -1.92969,0.72655 -0.72655,0.72657 -0.72655,2.00782 l -1.71876,-0.17187 q 0.17186,-1.92188 1.32812,-2.92969 1.15624,-1.00781 3.09374,-1.00781 1.95314,0 3.09376,1.08593 1.14064,1.08594 1.14064,2.69532 0,0.8125 -0.33595,1.60156 -0.33595,0.78906 -1.10938,1.65624 -0.77343,0.8672 -2.57031,2.39845 -1.5,1.26562 -1.92969,1.71093 -0.42967,0.44532 -0.71093,0.89844 l 6.67186,0 z"
     id="path6215"
     style="fill:#000000;fill-rule:nonzero" />
  <path
     d="m 452.92115,249.35958 0,0 c 0,-4.42415 3.5865,-8.01065 8.0107,-8.01065 l 82.1519,0 c 2.1245,0 4.1621,0.84397 5.6644,2.34625 1.5023,1.50229 2.3462,3.53985 2.3462,5.6644 l 0,32.04169 c 0,4.42416 -3.58646,8.01066 -8.0106,8.01066 l -82.1519,0 c -4.4242,0 -8.0107,-3.5865 -8.0107,-8.01066 z"
     id="path6217"
     style="fill:#ea9999;fill-rule:nonzero;stroke:#073763;stroke-width:2;stroke-linecap:butt;stroke-linejoin:round" />
  <path
     d="m 466.41225,260.87386 0,-13.59375 9.84374,0 0,1.59375 -8.04687,0 0,4.17187 7.53123,0 0,1.59376 -7.53123,0 0,4.625 8.35937,0 0,1.60937 -10.15624,0 z m 11.09374,0 3.59376,-5.125 -3.32813,-4.73437 2.09373,0 1.51564,2.3125 q 0.42186,0.65624 0.67186,1.10937 0.4219,-0.60937 0.76564,-1.09375 l 1.65626,-2.32812 1.98437,0 -3.39063,4.64062 3.65626,5.21875 -2.0469,0 -2.03123,-3.0625 -0.53127,-0.82813 -2.59373,3.89063 -2.01563,0 z m 14.09376,-1.5 0.23437,1.48437 q -0.70313,0.14063 -1.26563,0.14063 -0.90624,0 -1.40624,-0.28906 -0.5,-0.28907 -0.70313,-0.75 -0.20313,-0.46094 -0.20313,-1.97657 l 0,-5.65624 -1.23437,0 0,-1.3125 1.23437,0 0,-2.4375 1.65626,-1 0,3.4375 1.6875,0 0,1.3125 -1.6875,0 0,5.75 q 0,0.71874 0.0859,0.92187 0.0859,0.20313 0.28907,0.32813 0.2031,0.125 0.5781,0.125 0.26564,0 0.7344,-0.0781 z m 8.2656,-1.67187 1.71877,0.21874 q -0.40627,1.5 -1.50781,2.33595 -1.10156,0.83593 -2.82032,0.83593 -2.15624,0 -3.42187,-1.32812 -1.26563,-1.32813 -1.26563,-3.73438 0,-2.48438 1.27346,-3.85938 1.2734,-1.375 3.3203,-1.375 1.98437,0 3.23437,1.34376 1.25,1.34374 1.25,3.79687 0,0.14063 -0.0156,0.4375 l -7.34374,0 q 0.0937,1.625 0.92187,2.48437 0.82813,0.85938 2.0625,0.85938 0.90623,0 1.55469,-0.47656 0.64844,-0.47656 1.03904,-1.53906 z m -5.48436,-2.70313 5.5,0 q -0.10937,-1.23437 -0.625,-1.85937 -0.79687,-0.96876 -2.07814,-0.96876 -1.1406,0 -1.92967,0.77345 -0.78906,0.77343 -0.86719,2.05468 z m 9.09376,5.875 0,-9.85937 1.5,0 0,1.5 q 0.5781,-1.04688 1.0625,-1.38281 0.48437,-0.33595 1.0781,-0.33595 0.84377,0 1.71877,0.54688 l -0.57813,1.54688 q -0.60937,-0.35938 -1.23437,-0.35938 -0.54687,0 -0.97657,0.32812 -0.4297,0.32813 -0.6172,0.90626 -0.28123,0.89062 -0.28123,1.95312 l 0,5.15625 -1.67187,0 z m 6.23437,0 0,-9.85937 1.5,0 0,1.40624 q 1.09373,-1.625 3.14063,-1.625 0.8906,0 1.6406,0.32032 0.75,0.32031 1.1172,0.84375 0.3672,0.52343 0.52344,1.22656 0.0938,0.46875 0.0938,1.625 l 0,6.0625 -1.6719,0 0,-6 q 0,-1.01563 -0.1953,-1.52343 -0.1953,-0.50782 -0.6953,-0.8047 -0.5,-0.29687 -1.1719,-0.29687 -1.0625,0 -1.8359,0.67187 -0.77346,0.67188 -0.77346,2.57813 l 0,5.375 -1.67187,0 z m 16.8125,-1.21875 q -0.9375,0.79688 -1.79687,1.11719 -0.8594,0.32031 -1.84376,0.32031 -1.60937,0 -2.48437,-0.78906 -0.875,-0.78906 -0.875,-2.02344 0,-0.73438 0.32813,-1.32812 0.3281,-0.59376 0.85937,-0.95313 0.53123,-0.35937 1.20313,-0.54687 0.5,-0.14063 1.48437,-0.25 2.03123,-0.25 2.98437,-0.57813 0,-0.34375 0,-0.4375 0,-1.01563 -0.46874,-1.4375 -0.64063,-0.5625 -1.90626,-0.5625 -1.17187,0 -1.73437,0.40625 -0.5625,0.40625 -0.82813,1.46875 l -1.64064,-0.23437 q 0.2344,-1.04688 0.7422,-1.6875 0.5078,-0.64063 1.46876,-0.99219 0.96094,-0.35157 2.24218,-0.35157 1.26563,0 2.04686,0.29688 0.78127,0.29688 1.15627,0.75 0.375,0.45312 0.51563,1.14062 0.0937,0.42188 0.0937,1.53126 l 0,2.23437 q 0,2.32813 0.10156,2.94532 0.10157,0.61718 0.4297,1.17968 l -1.75,0 q -0.26563,-0.51563 -0.32813,-1.21875 z m -0.14063,-3.71875 q -0.90624,0.35937 -2.73437,0.625 -1.03127,0.14063 -1.45313,0.32813 -0.42187,0.1875 -0.65624,0.54687 -0.2344,0.35937 -0.2344,0.79687 0,0.67188 0.50783,1.1172 0.50781,0.4453 1.47657,0.4453 0.96874,0 1.71874,-0.42968 0.75,-0.42969 1.10936,-1.14844 0.26564,-0.57812 0.26564,-1.67188 l 0,-0.60937 z m 4.04686,4.9375 0,-13.59375 1.6719,0 0,13.59375 -1.6719,0 z"
     id="path6219"
     style="fill:#000000;fill-rule:nonzero" />
  <path
     d="m 465.31849,281.87386 0,-13.59375 1.84376,0 7.1406,10.67188 0,-10.67188 1.71877,0 0,13.59375 -1.84377,0 -7.1406,-10.6875 0,10.6875 -1.71876,0 z m 12.65626,-4.92187 q 0,-2.73438 1.53124,-4.0625 1.26563,-1.09376 3.09376,-1.09376 2.03124,0 3.3203,1.33595 1.28907,1.33593 1.28907,3.67968 0,1.90625 -0.57031,2.99219 -0.57032,1.08594 -1.65626,1.6875 -1.08593,0.60156 -2.3828,0.60156 -2.0625,0 -3.34376,-1.32812 -1.28124,-1.32813 -1.28124,-3.8125 z m 1.71874,0 q 0,1.89062 0.82813,2.82812 0.82813,0.9375 2.07813,0.9375 1.25,0 2.0703,-0.94531 0.8203,-0.94531 0.8203,-2.88281 0,-1.82813 -0.8281,-2.76563 -0.82813,-0.9375 -2.0625,-0.9375 -1.25,0 -2.07813,0.9375 -0.82813,0.9375 -0.82813,2.82813 z m 15.67186,4.92187 0,-1.25 q -0.9375,1.46875 -2.75,1.46875 -1.17186,0 -2.16404,-0.64843 -0.99219,-0.64845 -1.53126,-1.8125 -0.53906,-1.16407 -0.53906,-2.67969 0,-1.46876 0.49219,-2.67188 0.49217,-1.20312 1.46877,-1.84375 0.97654,-0.64063 2.1953,-0.64063 0.8906,0 1.58593,0.375 0.69531,0.375 1.13281,0.98438 l 0,-4.875 1.65626,0 0,13.59375 -1.5469,0 z m -5.28123,-4.92187 q 0,1.89062 0.80469,2.82812 0.80468,0.9375 1.88281,0.9375 1.09373,0 1.85937,-0.89062 0.76563,-0.89063 0.76563,-2.73438 0,-2.01562 -0.78127,-2.96093 -0.78123,-0.94532 -1.92186,-0.94532 -1.10937,0 -1.85937,0.90625 -0.75,0.90625 -0.75,2.85938 z m 16.01563,1.75 1.71874,0.21874 q -0.40624,1.5 -1.50781,2.33595 -1.10156,0.83593 -2.82033,0.83593 -2.15623,0 -3.42186,-1.32812 -1.26564,-1.32813 -1.26564,-3.73438 0,-2.48438 1.27346,-3.85938 1.27344,-1.375 3.32031,-1.375 1.98437,0 3.23437,1.34376 1.25,1.34374 1.25,3.79687 0,0.14063 -0.0156,0.4375 l -7.34373,0 q 0.0937,1.625 0.92187,2.48437 0.82813,0.85938 2.0625,0.85938 0.90626,0 1.55469,-0.47656 0.64844,-0.47656 1.03907,-1.53906 z m -5.4844,-2.70313 5.5,0 q -0.10936,-1.23437 -0.625,-1.85937 -0.79686,-0.96876 -2.0781,-0.96876 -1.14063,0 -1.9297,0.77345 -0.78906,0.77343 -0.8672,2.05468 z m 20.1094,5.875 -1.6719,0 0,-10.64063 q -0.59373,0.57813 -1.5781,1.14845 -0.9844,0.57031 -1.76563,0.86718 l 0,-1.625 q 1.40623,-0.65625 2.45313,-1.59375 1.04687,-0.9375 1.48437,-1.8125 l 1.07813,0 0,13.65625 z m 4.0781,-6.70313 q 0,-2.42187 0.5,-3.89062 0.5,-1.46875 1.4766,-2.26562 0.97654,-0.79688 2.4609,-0.79688 1.09377,0 1.9219,0.4375 0.8281,0.4375 1.3672,1.27344 0.53904,0.83594 0.84373,2.02344 0.30467,1.1875 0.30467,3.21874 0,2.39063 -0.49217,3.85938 -0.49219,1.46875 -1.46873,2.27344 -0.9766,0.80468 -2.4766,0.80468 -1.96873,0 -3.0781,-1.40624 -1.3594,-1.70313 -1.3594,-5.53126 z m 1.71877,0 q 0,3.34376 0.78906,4.45313 0.78907,1.10937 1.92967,1.10937 1.15627,0 1.9375,-1.11718 0.78127,-1.11719 0.78127,-4.44532 0,-3.35937 -0.78127,-4.46874 -0.78123,-1.10938 -1.9531,-1.10938 -1.15626,0 -1.82813,0.98438 -0.875,1.23437 -0.875,4.59374 z"
     id="path6221"
     style="fill:#000000;fill-rule:nonzero" />
  <path
     d="m 325.61751,271.36758 0,-1.90625 1.90624,0 0,1.90625 -1.90624,0 z m 10.375,0 0,-1.90625 1.90624,0 0,1.90625 -1.90624,0 z m 10.35934,0 0,-1.90625 1.9063,0 0,1.90625 -1.9063,0 z m 10.375,0 0,-1.90625 1.9063,0 0,1.90625 -1.9063,0 z"
     id="path6223"
     style="fill:#000000;fill-rule:nonzero" />
  <path
     d="m 467.22569,96.084249 0,-9.46875 -3.53125,0 0,-1.26563 8.5,0 0,1.26563 -3.54687,0 0,9.46875 -1.42188,0 z m 11.125,-0.95313 q -0.73437,0.60938 -1.40625,0.86719 -0.67187,0.25781 -1.45312,0.25781 -1.28125,0 -1.96875,-0.625 -0.6875,-0.625 -0.6875,-1.59375 0,-0.57812 0.25781,-1.04687 0.25781,-0.46875 0.67969,-0.75782 0.42187,-0.28906 0.95312,-0.42968 0.375,-0.10938 1.17188,-0.20313 1.59375,-0.1875 2.34375,-0.45312 0.0156,-0.26563 0.0156,-0.34375 0,-0.8125 -0.375,-1.14063 -0.51562,-0.4375 -1.5,-0.4375 -0.9375,0 -1.38281,0.32031 -0.44531,0.32032 -0.64844,1.14844 l -1.29687,-0.17187 q 0.17187,-0.82813 0.57812,-1.33594 0.40625,-0.50781 1.17188,-0.78125 0.76562,-0.27344 1.76562,-0.27344 1,0 1.61719,0.23438 0.61719,0.23437 0.91406,0.58593 0.29688,0.35157 0.40625,0.89844 0.0625,0.34375 0.0625,1.21875 l 0,1.75 q 0,1.84375 0.0859,2.32813 0.0859,0.48437 0.33594,0.9375 l -1.375,0 q -0.20313,-0.40625 -0.26563,-0.95313 z m -0.10937,-2.95312 q -0.71875,0.29687 -2.15625,0.5 -0.8125,0.125 -1.14844,0.26562 -0.33594,0.14063 -0.51563,0.42188 -0.17968,0.28125 -0.17968,0.625 0,0.53125 0.39843,0.88281 0.39844,0.35156 1.16407,0.35156 0.76562,0 1.35937,-0.33594 0.59375,-0.33593 0.875,-0.91406 0.20313,-0.4375 0.20313,-1.3125 l 0,-0.48437 z m 3.17187,3.90625 0,-10.73438 1.32813,0 0,3.84375 q 0.92187,-1.0625 2.32812,-1.0625 0.85938,0 1.5,0.34375 0.64063,0.34375 0.91406,0.9375 0.27344,0.59375 0.27344,1.75 l 0,4.92188 -1.32812,0 0,-4.92188 q 0,-1 -0.42188,-1.44531 -0.42187,-0.44531 -1.21875,-0.44531 -0.57812,0 -1.09375,0.29687 -0.51562,0.29688 -0.73437,0.82031 -0.21875,0.52344 -0.21875,1.44532 l 0,4.25 -1.32813,0 z m 7.67188,-3.89063 q 0,-2.15625 1.20312,-3.20312 1,-0.85938 2.4375,-0.85938 1.60938,0 2.625,1.04688 1.01563,1.04687 1.01563,2.90625 0,1.5 -0.44532,2.35937 -0.44531,0.85938 -1.3125,1.33594 -0.86718,0.47656 -1.88281,0.47656 -1.625,0 -2.63281,-1.04687 -1.00781,-1.04688 -1.00781,-3.01563 z m 1.35937,0 q 0,1.5 0.64844,2.24219 0.64844,0.74219 1.63281,0.74219 0.98438,0 1.64063,-0.75 0.65625,-0.75 0.65625,-2.28125 0,-1.4375 -0.65625,-2.17969 -0.65625,-0.74219 -1.64063,-0.74219 -0.98437,0 -1.63281,0.73438 -0.64844,0.73437 -0.64844,2.23437 z m 12.60938,1.39063 1.35937,0.15625 q -0.3125,1.20312 -1.1875,1.85937 -0.875,0.65625 -2.23437,0.65625 -1.70313,0 -2.70313,-1.04687 -1,-1.04688 -1,-2.95313 0,-1.95312 1.01563,-3.03906 1.01562,-1.08594 2.625,-1.08594 1.5625,0 2.54687,1.0625 0.98438,1.0625 0.98438,2.98438 0,0.125 0,0.35937 l -5.8125,0 q 0.0781,1.28125 0.72656,1.96094 0.64844,0.67969 1.63281,0.67969 0.71875,0 1.23438,-0.38282 0.51562,-0.38281 0.8125,-1.21093 z m -4.32813,-2.14063 4.34375,0 q -0.0937,-0.98437 -0.5,-1.46875 -0.625,-0.76562 -1.625,-0.76562 -0.92187,0 -1.53906,0.60937 -0.61719,0.60938 -0.67969,1.625 z m 6.625,1.42188 0,-1.32813 4.0625,0 0,1.32813 -4.0625,0 z m 5.51563,3.21875 0,-10.73438 1.42187,0 0,9.46875 5.29688,0 0,1.26563 -6.71875,0 z m 7.03125,0 4.125,-10.73438 1.51562,0 4.40625,10.73438 -1.625,0 -1.25,-3.25 -4.48437,0 -1.1875,3.25 -1.5,0 z m 3.09375,-4.40625 3.64062,0 -1.125,-2.98438 q -0.51562,-1.34375 -0.76562,-2.21875 -0.20313,1.03125 -0.57813,2.04688 l -1.17187,3.15625 z m 7.9375,4.40625 0,-10.73438 7.23437,0 0,1.26563 -5.8125,0 0,3.32812 5.03125,0 0,1.26563 -5.03125,0 0,4.875 -1.42187,0 z m 8.39062,-3.45313 1.34375,-0.10937 q 0.0937,0.79687 0.44531,1.3125 0.35157,0.51562 1.07813,0.83593 0.72656,0.32032 1.64844,0.32032 0.8125,0 1.4375,-0.24219 0.625,-0.24219 0.92968,-0.66406 0.30469,-0.42188 0.30469,-0.92188 0,-0.5 -0.29687,-0.875 -0.29688,-0.375 -0.96875,-0.64062 -0.4375,-0.15625 -1.91407,-0.51563 -1.47656,-0.35937 -2.07031,-0.67187 -0.76562,-0.40625 -1.14844,-1 -0.38281,-0.59375 -0.38281,-1.34375 0,-0.8125 0.46094,-1.51563 0.46094,-0.70312 1.35156,-1.07031 0.89063,-0.36719 1.96875,-0.36719 1.20313,0 2.10938,0.38281 0.90625,0.38282 1.39843,1.13282 0.49219,0.75 0.53907,1.6875 l -1.375,0.10937 q -0.10938,-1.01562 -0.74219,-1.53906 -0.63281,-0.52344 -1.86719,-0.52344 -1.28125,0 -1.875,0.47656 -0.59375,0.47657 -0.59375,1.13282 0,0.57812 0.42188,0.95312 0.40625,0.375 2.14062,0.76563 1.73438,0.39062 2.375,0.6875 0.9375,0.4375 1.38281,1.10156 0.44532,0.66406 0.44532,1.52344 0,0.85937 -0.49219,1.61718 -0.49219,0.75782 -1.40625,1.17969 -0.91406,0.42188 -2.07031,0.42188 -1.45313,0 -2.4375,-0.42969 -0.98438,-0.42969 -1.54688,-1.28125 -0.5625,-0.85156 -0.59375,-1.92969 z"
     id="path6225"
     style="fill:#000000;fill-rule:nonzero" />
  <path
     d="m 250.41722,163.41586 40.72443,0"
     id="path6227"
     style="stroke:#073763;stroke-width:2;stroke-linecap:butt;stroke-linejoin:round" />
  <path
     d="m 291.14165,166.71933 9.0762,-3.30347 -9.0762,-3.30347 z"
     id="path6229"
     style="fill:#073763;fill-rule:evenodd;stroke:#073763;stroke-width:2;stroke-linecap:butt" />
  <path
     d="m 370.25709,186.42635 0,30.67716"
     id="path6231"
     style="stroke:#073763;stroke-width:2;stroke-linecap:butt;stroke-linejoin:round" />
  <path
     d="m 371.2151,217.10613 -294.330687,0"
     id="path6233"
     style="stroke:#073763;stroke-width:2;stroke-linecap:butt;stroke-linejoin:round" />
  <path
     d="m 371.2151,217.10613 136.12605,0"
     id="path6235"
     style="stroke:#073763;stroke-width:2;stroke-linecap:butt;stroke-linejoin:round" />
  <path
     d="m 77.860303,217.01967 0,12.91339"
     id="path6237"
     style="stroke:#073763;stroke-width:2;stroke-linecap:butt;stroke-linejoin:round" />
  <path
     d="m 74.461493,228.69364 3.30347,9.0762 3.30347,-9.0762 z"
     id="path6239"
     style="fill:#073763;fill-rule:evenodd;stroke:#073763;stroke-width:2;stroke-linecap:butt" />
  <path
     d="m 201.5222,218.06413 0,11.96852"
     id="path6241"
     style="stroke:#073763;stroke-width:2;stroke-linecap:butt;stroke-linejoin:round" />
  <path
     d="m 198.07572,228.84091 3.30347,9.0762 3.30347,-9.0762 z"
     id="path6243"
     style="fill:#073763;fill-rule:evenodd;stroke:#073763;stroke-width:2;stroke-linecap:butt" />
  <path
     d="m 506.34051,217.7903 0,12"
     id="path6245"
     style="stroke:#073763;stroke-width:2;stroke-linecap:butt;stroke-linejoin:round" />
  <path
     d="m 503.0202,228.45556 3.30346,9.07621 3.30344,-9.07621 z"
     id="path6247"
     style="fill:#073763;fill-rule:evenodd;stroke:#073763;stroke-width:2;stroke-linecap:butt" />
  <path
     d="m 90.886953,126.98409 0,-9.3125 1.23437,0 0,8.21875 4.57813,0 0,1.09375 -5.8125,0 z m 6.89062,-3.375 q 0,-1.875 1.03125,-2.76562 0.875,-0.75 2.124997,-0.75 1.39063,0 2.27343,0.90625 0.88282,0.90625 0.88282,2.51562 0,1.29688 -0.39062,2.04688 -0.39063,0.75 -1.14063,1.16406 -0.75,0.41406 -1.625,0.41406 -1.421867,0 -2.289067,-0.90625 -0.86718,-0.90625 -0.86718,-2.625 z m 1.17188,0 q 0,1.29688 0.5625,1.94532 0.562497,0.64843 1.421867,0.64843 0.84375,0 1.41406,-0.64843 0.57031,-0.64844 0.57031,-1.97657 0,-1.25 -0.57031,-1.89843 -0.57031,-0.64844 -1.41406,-0.64844 -0.85937,0 -1.421867,0.64062 -0.5625,0.64063 -0.5625,1.9375 z m 11.046867,0.90625 1.125,0.14063 q -0.17187,1.17187 -0.9375,1.82812 -0.76563,0.65625 -1.85937,0.65625 -1.39063,0 -2.22657,-0.90625 -0.83593,-0.90625 -0.83593,-2.59375 0,-1.09375 0.35937,-1.91406 0.35937,-0.82031 1.09375,-1.22656 0.73438,-0.40625 1.60938,-0.40625 1.09374,0 1.79687,0.55469 0.70313,0.55468 0.89063,1.57031 l -1.10938,0.17187 q -0.15625,-0.67187 -0.55469,-1.01562 -0.39843,-0.34375 -0.97656,-0.34375 -0.85937,0 -1.39844,0.61719 -0.53906,0.61718 -0.53906,1.96093 0,1.35938 0.51563,1.97657 0.51562,0.61718 1.35937,0.61718 0.67187,0 1.125,-0.41406 0.45313,-0.41406 0.5625,-1.27344 z m 6.67187,1.64063 q -0.625,0.53125 -1.21094,0.75781 -0.58593,0.22656 -1.2578,0.22656 -1.125,0 -1.71876,-0.54687 -0.59374,-0.54688 -0.59374,-1.39063 0,-0.48437 0.22656,-0.89843 0.22656,-0.41407 0.59374,-0.66407 0.3672,-0.25 0.82032,-0.375 0.32812,-0.0781 1.01562,-0.17187 1.375,-0.15625 2.03126,-0.39063 0.0156,-0.23437 0.0156,-0.29687 0,-0.70313 -0.32812,-0.98438 -0.4375,-0.39062 -1.29688,-0.39062 -0.8125,0 -1.19532,0.28125 -0.3828,0.28125 -0.5703,1 l -1.10938,-0.14063 q 0.14062,-0.71875 0.49218,-1.16406 0.35157,-0.44531 1.01563,-0.67969 0.66407,-0.23437 1.52344,-0.23437 0.875,0 1.41406,0.20312 0.53907,0.20313 0.78907,0.50782 0.25,0.30468 0.35937,0.77343 0.0469,0.29688 0.0469,1.0625 l 0,1.51563 q 0,1.59375 0.0781,2.01562 0.0781,0.42188 0.28125,0.8125 l -1.1875,0 q -0.17188,-0.35937 -0.23438,-0.82812 z m -0.0937,-2.5625 q -0.625,0.26562 -1.85938,0.4375 -0.70312,0.10937 -1,0.23437 -0.29688,0.125 -0.45312,0.36719 -0.15626,0.24219 -0.15626,0.53906 0,0.45313 0.34376,0.75782 0.34374,0.30468 1.01562,0.30468 0.65625,0 1.17188,-0.28906 0.51562,-0.28906 0.76562,-0.78906 0.17188,-0.375 0.17188,-1.14063 l 0,-0.42187 z m 3.07812,3.39062 0,-9.3125 1.14062,0 0,9.3125 -1.14062,0 z m 6.70312,0 0,-6.73437 1.03126,0 0,0.95312 q 0.73437,-1.10937 2.14062,-1.10937 0.60938,0 1.11718,0.21875 0.50782,0.21875 0.76563,0.57031 0.25781,0.35156 0.35157,0.85156 0.0625,0.3125 0.0625,1.10938 l 0,4.14062 -1.14063,0 0,-4.09375 q 0,-0.70312 -0.13281,-1.04687 -0.13282,-0.34375 -0.46876,-0.55469 -0.33593,-0.21094 -0.78906,-0.21094 -0.73437,0 -1.26562,0.46094 -0.53125,0.46094 -0.53125,1.75781 l 0,3.6875 -1.14063,0 z m 6.98438,-3.375 q 0,-1.875 1.03125,-2.76562 0.875,-0.75 2.125,-0.75 1.39063,0 2.27343,0.90625 0.88282,0.90625 0.88282,2.51562 0,1.29688 -0.39062,2.04688 -0.39063,0.75 -1.14063,1.16406 -0.75,0.41406 -1.625,0.41406 -1.42187,0 -2.28907,-0.90625 -0.86718,-0.90625 -0.86718,-2.625 z m 1.17188,0 q 0,1.29688 0.5625,1.94532 0.5625,0.64843 1.42187,0.64843 0.84375,0 1.41406,-0.64843 0.57031,-0.64844 0.57031,-1.97657 0,-1.25 -0.57031,-1.89843 -0.57031,-0.64844 -1.41406,-0.64844 -0.85937,0 -1.42187,0.64062 -0.5625,0.64063 -0.5625,1.9375 z m 11.04687,3.375 0,-0.84375 q -0.64063,1 -1.89063,1 -0.79687,0 -1.47656,-0.44531 -0.67968,-0.44531 -1.05468,-1.24219 -0.375,-0.79687 -0.375,-1.82812 0,-1.01563 0.34374,-1.83594 0.34376,-0.82031 1.01563,-1.25781 0.67187,-0.4375 1.5,-0.4375 0.60937,0 1.08593,0.25781 0.47657,0.25781 0.77344,0.66406 l 0,-3.34375 1.14063,0 0,9.3125 -1.0625,0 z m -3.60937,-3.35937 q 0,1.29687 0.53906,1.9375 0.53906,0.64062 1.28906,0.64062 0.75,0 1.27344,-0.61718 0.52344,-0.61719 0.52344,-1.86719 0,-1.39063 -0.53126,-2.03906 -0.53124,-0.64844 -1.3125,-0.64844 -0.76562,0 -1.27344,0.625 -0.5078,0.625 -0.5078,1.96875 z m 11.25,1.1875 1.1875,0.14062 q -0.28126,1.04688 -1.03907,1.61719 -0.75781,0.57031 -1.92969,0.57031 -1.48437,0 -2.35156,-0.91406 -0.86718,-0.91406 -0.86718,-2.55469 0,-1.70312 0.8828,-2.64062 0.88282,-0.9375 2.27344,-0.9375 1.35938,0 2.21094,0.92187 0.85156,0.92188 0.85156,2.57813 0,0.10937 0,0.3125 l -5.03124,0 q 0.0625,1.10937 0.625,1.70312 0.5625,0.59375 1.40624,0.59375 0.64063,0 1.08594,-0.33593 0.44532,-0.33594 0.69532,-1.05469 z m -3.75,-1.84375 3.76562,0 q -0.0781,-0.85938 -0.4375,-1.28125 -0.54688,-0.65625 -1.40625,-0.65625 -0.79687,0 -1.32813,0.52344 -0.53124,0.52343 -0.59374,1.41406 z"
     id="path6249"
     style="fill:#000000;fill-rule:nonzero" />
  <path
     d="m 294.27665,126.98409 0,-9.3125 1.23438,0 0,8.21875 4.57812,0 0,1.09375 -5.8125,0 z m 6.89063,-3.375 q 0,-1.875 1.03125,-2.76562 0.875,-0.75 2.125,-0.75 1.39062,0 2.27344,0.90625 0.88281,0.90625 0.88281,2.51562 0,1.29688 -0.39063,2.04688 -0.39062,0.75 -1.14062,1.16406 -0.75,0.41406 -1.625,0.41406 -1.42188,0 -2.28906,-0.90625 -0.86719,-0.90625 -0.86719,-2.625 z m 1.17187,0 q 0,1.29688 0.5625,1.94532 0.5625,0.64843 1.42188,0.64843 0.84375,0 1.41406,-0.64843 0.57031,-0.64844 0.57031,-1.97657 0,-1.25 -0.57031,-1.89843 -0.57031,-0.64844 -1.41406,-0.64844 -0.85938,0 -1.42188,0.64062 -0.5625,0.64063 -0.5625,1.9375 z m 11.0625,0.90625 1.125,0.14063 q -0.17187,1.17187 -0.9375,1.82812 -0.76562,0.65625 -1.85937,0.65625 -1.39063,0 -2.22656,-0.90625 -0.83594,-0.90625 -0.83594,-2.59375 0,-1.09375 0.35937,-1.91406 0.35938,-0.82031 1.09375,-1.22656 0.73438,-0.40625 1.60938,-0.40625 1.09375,0 1.79687,0.55469 0.70313,0.55468 0.89063,1.57031 l -1.10938,0.17187 q -0.15625,-0.67187 -0.55468,-1.01562 -0.39844,-0.34375 -0.97657,-0.34375 -0.85937,0 -1.39843,0.61719 -0.53907,0.61718 -0.53907,1.96093 0,1.35938 0.51563,1.97657 0.51562,0.61718 1.35937,0.61718 0.67188,0 1.125,-0.41406 0.45313,-0.41406 0.5625,-1.27344 z m 6.65625,1.64063 q -0.625,0.53125 -1.21093,0.75781 -0.58594,0.22656 -1.25782,0.22656 -1.125,0 -1.71875,-0.54687 -0.59375,-0.54688 -0.59375,-1.39063 0,-0.48437 0.22657,-0.89843 0.22656,-0.41407 0.59375,-0.66407 0.36718,-0.25 0.82031,-0.375 0.32812,-0.0781 1.01562,-0.17187 1.375,-0.15625 2.03125,-0.39063 0.0156,-0.23437 0.0156,-0.29687 0,-0.70313 -0.32813,-0.98438 -0.4375,-0.39062 -1.29687,-0.39062 -0.8125,0 -1.19531,0.28125 -0.38282,0.28125 -0.57032,1 l -1.10937,-0.14063 q 0.14062,-0.71875 0.49219,-1.16406 0.35156,-0.44531 1.01562,-0.67969 0.66406,-0.23437 1.52344,-0.23437 0.875,0 1.41406,0.20312 0.53906,0.20313 0.78906,0.50782 0.25,0.30468 0.35938,0.77343 0.0469,0.29688 0.0469,1.0625 l 0,1.51563 q 0,1.59375 0.0781,2.01562 0.0781,0.42188 0.28125,0.8125 l -1.1875,0 q -0.17188,-0.35937 -0.23438,-0.82812 z m -0.0937,-2.5625 q -0.625,0.26562 -1.85937,0.4375 -0.70313,0.10937 -1,0.23437 -0.29688,0.125 -0.45313,0.36719 -0.15625,0.24219 -0.15625,0.53906 0,0.45313 0.34375,0.75782 0.34375,0.30468 1.01563,0.30468 0.65625,0 1.17187,-0.28906 0.51563,-0.28906 0.76563,-0.78906 0.17187,-0.375 0.17187,-1.14063 l 0,-0.42187 z m 3.09375,3.39062 0,-9.3125 1.14063,0 0,9.3125 -1.14063,0 z m 6.26563,-3.375 q 0,-1.875 1.03125,-2.76562 0.875,-0.75 2.125,-0.75 1.39062,0 2.27344,0.90625 0.88281,0.90625 0.88281,2.51562 0,1.29688 -0.39063,2.04688 -0.39062,0.75 -1.14062,1.16406 -0.75,0.41406 -1.625,0.41406 -1.42188,0 -2.28906,-0.90625 -0.86719,-0.90625 -0.86719,-2.625 z m 1.17187,0 q 0,1.29688 0.5625,1.94532 0.5625,0.64843 1.42188,0.64843 0.84375,0 1.41407,-0.64843 0.5703,-0.64844 0.5703,-1.97657 0,-1.25 -0.5703,-1.89843 -0.57032,-0.64844 -1.41407,-0.64844 -0.85938,0 -1.42188,0.64062 -0.5625,0.64063 -0.5625,1.9375 z m 6.6406,3.375 0,-6.73437 1.03125,0 0,1.01562 q 0.3906,-0.71875 0.72656,-0.94531 0.33594,-0.22656 0.72654,-0.22656 0.57815,0 1.1719,0.35937 l -0.3906,1.0625 q -0.4219,-0.25 -0.82815,-0.25 -0.375,0 -0.67969,0.22657 -0.30466,0.22656 -0.42966,0.63281 -0.1875,0.60937 -0.1875,1.32812 l 0,3.53125 -1.14065,0 z m 8.15625,0 0,-9.3125 1.1406,0 0,3.34375 q 0.7969,-0.92187 2.01565,-0.92187 0.75,0 1.30469,0.29687 0.55466,0.29688 0.78906,0.8125 0.2344,0.51563 0.2344,1.51563 l 0,4.26562 -1.14065,0 0,-4.26562 q 0,-0.85938 -0.36719,-1.25 -0.36716,-0.39063 -1.05466,-0.39063 -0.5,0 -0.95315,0.25782 -0.45315,0.25781 -0.64065,0.71093 -0.1875,0.45313 -0.1875,1.25 l 0,3.6875 -1.1406,0 z m 12.03125,-2.17187 1.1875,0.14062 q -0.28125,1.04688 -1.03905,1.61719 -0.7578,0.57031 -1.9297,0.57031 -1.4844,0 -2.35156,-0.91406 -0.86719,-0.91406 -0.86719,-2.55469 0,-1.70312 0.88281,-2.64062 0.88284,-0.9375 2.27344,-0.9375 1.3594,0 2.21094,0.92187 0.85156,0.92188 0.85156,2.57813 0,0.10937 0,0.3125 l -5.03125,0 q 0.0625,1.10937 0.625,1.70312 0.5625,0.59375 1.40625,0.59375 0.6406,0 1.08594,-0.33593 0.44531,-0.33594 0.69531,-1.05469 z m -3.75,-1.84375 3.76565,0 q -0.0782,-0.85938 -0.4375,-1.28125 -0.5469,-0.65625 -1.4063,-0.65625 -0.79685,0 -1.3281,0.52344 -0.53125,0.52343 -0.59375,1.41406 z m 6.51565,4.01562 0,-9.3125 1.1406,0 0,9.3125 -1.1406,0 z m 3,2.57813 0,-9.3125 1.0312,0 0,0.875 q 0.375,-0.51563 0.83596,-0.77344 0.46094,-0.25781 1.13284,-0.25781 0.85935,0 1.5156,0.44531 0.65625,0.44531 0.9922,1.25 0.3359,0.80469 0.3359,1.77344 0,1.03125 -0.36716,1.85937 -0.36719,0.82813 -1.07814,1.27344 -0.7109,0.44531 -1.4922,0.44531 -0.5625,0 -1.0156,-0.24218 -0.4531,-0.24219 -0.75,-0.61719 l 0,3.28125 -1.1406,0 z m 1.0312,-5.90625 q 0,1.29687 0.5313,1.92187 0.5312,0.625 1.2656,0.625 0.7656,0 1.3125,-0.64843 0.5469,-0.64844 0.5469,-1.99219 0,-1.29688 -0.5313,-1.9375 -0.5312,-0.64063 -1.2656,-0.64063 -0.7344,0 -1.2969,0.67969 -0.5625,0.67969 -0.5625,1.99219 z m 10.9844,1.15625 1.1875,0.14062 q -0.28125,1.04688 -1.03906,1.61719 -0.75784,0.57031 -1.92969,0.57031 -1.48435,0 -2.35155,-0.91406 -0.8672,-0.91406 -0.8672,-2.55469 0,-1.70312 0.8828,-2.64062 0.8828,-0.9375 2.27345,-0.9375 1.35935,0 2.21095,0.92187 0.85155,0.92188 0.85155,2.57813 0,0.10937 0,0.3125 l -5.03125,0 q 0.0625,1.10937 0.625,1.70312 0.5625,0.59375 1.40625,0.59375 0.64065,0 1.08595,-0.33593 0.4453,-0.33594 0.6953,-1.05469 z m -3.75,-1.84375 3.7656,0 q -0.0781,-0.85938 -0.4375,-1.28125 -0.54685,-0.65625 -1.4062,-0.65625 -0.7969,0 -1.32815,0.52344 -0.53125,0.52343 -0.59375,1.41406 z m 6.5469,4.01562 0,-6.73437 1.0312,0 0,1.01562 q 0.39065,-0.71875 0.7266,-0.94531 0.3359,-0.22656 0.72655,-0.22656 0.57815,0 1.17185,0.35937 l -0.3906,1.0625 q -0.4219,-0.25 -0.8281,-0.25 -0.375,0 -0.6797,0.22657 -0.3047,0.22656 -0.4297,0.63281 -0.1875,0.60937 -0.1875,1.32812 l 0,3.53125 -1.1406,0 z m 8.1562,0 0,-6.73437 1.0313,0 0,0.95312 q 0.73435,-1.10937 2.1406,-1.10937 0.6094,0 1.1172,0.21875 0.5078,0.21875 0.7656,0.57031 0.2578,0.35156 0.3516,0.85156 0.0625,0.3125 0.0625,1.10938 l 0,4.14062 -1.14065,0 0,-4.09375 q 0,-0.70312 -0.13281,-1.04687 -0.13284,-0.34375 -0.46874,-0.55469 -0.33595,-0.21094 -0.7891,-0.21094 -0.73435,0 -1.2656,0.46094 -0.53125,0.46094 -0.53125,1.75781 l 0,3.6875 -1.14065,0 z m 6.9844,-3.375 q 0,-1.875 1.03125,-2.76562 0.875,-0.75 2.125,-0.75 1.39065,0 2.27345,0.90625 0.8828,0.90625 0.8828,2.51562 0,1.29688 -0.3906,2.04688 -0.39065,0.75 -1.14065,1.16406 -0.75,0.41406 -1.625,0.41406 -1.42185,0 -2.28905,-0.90625 -0.8672,-0.90625 -0.8672,-2.625 z m 1.1719,0 q 0,1.29688 0.5625,1.94532 0.5625,0.64843 1.42185,0.64843 0.84375,0 1.41405,-0.64843 0.5703,-0.64844 0.5703,-1.97657 0,-1.25 -0.5703,-1.89843 -0.5703,-0.64844 -1.41405,-0.64844 -0.85935,0 -1.42185,0.64062 -0.5625,0.64063 -0.5625,1.9375 z m 11.0312,3.375 0,-0.84375 q -0.6406,1 -1.8906,1 -0.7969,0 -1.47656,-0.44531 -0.67969,-0.44531 -1.05469,-1.24219 -0.375,-0.79687 -0.375,-1.82812 0,-1.01563 0.34375,-1.83594 0.34375,-0.82031 1.0156,-1.25781 0.6719,-0.4375 1.5,-0.4375 0.6094,0 1.08596,0.25781 0.47654,0.25781 0.77344,0.66406 l 0,-3.34375 1.1406,0 0,9.3125 -1.0625,0 z m -3.60935,-3.35937 q 0,1.29687 0.53905,1.9375 0.5391,0.64062 1.2891,0.64062 0.75,0 1.2734,-0.61718 0.52345,-0.61719 0.52345,-1.86719 0,-1.39063 -0.53125,-2.03906 -0.53125,-0.64844 -1.3125,-0.64844 -0.7656,0 -1.27344,0.625 -0.50781,0.625 -0.50781,1.96875 z m 11.26565,1.1875 1.1875,0.14062 q -0.2813,1.04688 -1.0391,1.61719 -0.7578,0.57031 -1.9297,0.57031 -1.48435,0 -2.35154,-0.91406 -0.86716,-0.91406 -0.86716,-2.55469 0,-1.70312 0.8828,-2.64062 0.8828,-0.9375 2.2734,-0.9375 1.3594,0 2.21096,0.92187 0.85154,0.92188 0.85154,2.57813 0,0.10937 0,0.3125 l -5.0312,0 q 0.0625,1.10937 0.625,1.70312 0.5625,0.59375 1.4062,0.59375 0.64065,0 1.08596,-0.33593 0.44534,-0.33594 0.69534,-1.05469 z m -3.75,-1.84375 3.7656,0 q -0.0781,-0.85938 -0.4375,-1.28125 -0.5469,-0.65625 -1.40625,-0.65625 -0.79685,0 -1.32815,0.52344 -0.5312,0.52343 -0.5937,1.41406 z"
     id="path6251"
     style="fill:#000000;fill-rule:nonzero" />
  <path
     style="fill:none;stroke:#073763;stroke-width:1.60255849;stroke-linecap:butt;stroke-linejoin:miter;stroke-miterlimit:10;stroke-opacity:1;stroke-dasharray:none;marker-start:none;marker-end:none"
     d="m 44.801283,40.057179 0,121.836451 42.72793,0"
     id="path7405" />
  <path
     style="fill:#073763;fill-rule:evenodd;stroke:#073763;stroke-width:2;stroke-linecap:butt"
     d="m 84.794513,164.90304 9.0762,-3.30347 -9.0762,-3.30347 z"
     id="path6229-8" />
  <rect
     style="fill:none;stroke:#073763;stroke-width:0;stroke-miterlimit:10;stroke-opacity:1;stroke-dasharray:none;stroke-dashoffset:0"
     id="rect8945"
     width="575.84747"
     height="322.62711"
     x="0"
     y="0" />
</svg>
